<?xml version="1.0" encoding="UTF-8" standalone="no"?><svg xmlns="http://www.w3.org/2000/svg" xmlns:xlink="http://www.w3.org/1999/xlink" contentScriptType="application/ecmascript" contentStyleType="text/css" height="804px" preserveAspectRatio="none" style="width:1716px;height:804px;" version="1.1" viewBox="0 0 1716 804" width="1716px" zoomAndPan="magnify"><defs><filter height="300%" id="f1q80kg9dxt9k9" width="300%" x="-1" y="-1"><feGaussianBlur result="blurOut" stdDeviation="2.0"/><feColorMatrix in="blurOut" result="blurOut2" type="matrix" values="0 0 0 0 0 0 0 0 0 0 0 0 0 0 0 0 0 0 .4 0"/><feOffset dx="4.0" dy="4.0" in="blurOut2" result="blurOut3"/><feBlend in="SourceGraphic" in2="blurOut3" mode="normal"/></filter></defs><g><!--MD5=[9e83cf350cee93aa3efb004ab5834683]
cluster Tamagotchi--><rect fill="#FFFFFF" filter="url(#f1q80kg9dxt9k9)" height="656.5" style="stroke: #000000; stroke-width: 1.5;" width="1412" x="22" y="136.5"/><text fill="#000000" font-family="sans-serif" font-size="14" font-weight="bold" lengthAdjust="spacingAndGlyphs" textLength="91" x="682.5" y="151.4951">Tamagotchi</text><!--MD5=[5319da33ceac95ddf1d5fced7ca1a2a0]
cluster Menu--><polygon fill="#FFFFFF" filter="url(#f1q80kg9dxt9k9)" points="167,324.5,216,324.5,223,346.7969,786,346.7969,786,646,167,646,167,324.5" style="stroke: #000000; stroke-width: 1.5;"/><line style="stroke: #000000; stroke-width: 1.5;" x1="167" x2="223" y1="346.7969" y2="346.7969"/><text fill="#000000" font-family="sans-serif" font-size="14" font-weight="bold" lengthAdjust="spacingAndGlyphs" textLength="43" x="171" y="339.4951">Menu</text><!--MD5=[2b611c2d60e481aa2035053367969193]
cluster Game--><polygon fill="#FFFFFF" filter="url(#f1q80kg9dxt9k9)" points="810,179.5,861,179.5,868,201.7969,1410,201.7969,1410,769,810,769,810,179.5" style="stroke: #000000; stroke-width: 1.5;"/><line style="stroke: #000000; stroke-width: 1.5;" x1="810" x2="868" y1="201.7969" y2="201.7969"/><text fill="#000000" font-family="sans-serif" font-size="14" font-weight="bold" lengthAdjust="spacingAndGlyphs" textLength="45" x="814" y="194.4951">Game</text><ellipse cx="239.0477" cy="230.5236" fill="#FEFECE" filter="url(#f1q80kg9dxt9k9)" rx="47.5477" ry="14.5236" style="stroke: #A80036; stroke-width: 1.5;"/><text fill="#000000" font-family="sans-serif" font-size="14" lengthAdjust="spacingAndGlyphs" textLength="63" x="207.5477" y="235.1721">Start App</text><ellipse cx="392.0143" cy="374.7029" fill="#FEFECE" filter="url(#f1q80kg9dxt9k9)" rx="61.5143" ry="14.7029" style="stroke: #A80036; stroke-width: 1.5;"/><text fill="#000000" font-family="sans-serif" font-size="14" lengthAdjust="spacingAndGlyphs" textLength="84" x="350.0143" y="379.3513">Edit Options</text><ellipse cx="239.033" cy="374.5236" fill="#FEFECE" filter="url(#f1q80kg9dxt9k9)" rx="56.033" ry="14.5236" style="stroke: #A80036; stroke-width: 1.5;"/><text fill="#000000" font-family="sans-serif" font-size="14" lengthAdjust="spacingAndGlyphs" textLength="75" x="201.533" y="379.1721">New Game</text><ellipse cx="549.8007" cy="374.5601" fill="#FEFECE" filter="url(#f1q80kg9dxt9k9)" rx="60.8007" ry="14.5601" style="stroke: #A80036; stroke-width: 1.5;"/><text fill="#000000" font-family="sans-serif" font-size="14" lengthAdjust="spacingAndGlyphs" textLength="82" x="508.8007" y="379.2086">Chose Save</text><ellipse cx="707.8742" cy="374.2748" fill="#FEFECE" filter="url(#f1q80kg9dxt9k9)" rx="61.8742" ry="14.7748" style="stroke: #A80036; stroke-width: 1.5;"/><text fill="#000000" font-family="sans-serif" font-size="14" lengthAdjust="spacingAndGlyphs" textLength="85" x="665.3742" y="378.9233">Login Online</text><ellipse cx="496.8345" cy="489.0236" fill="#FEFECE" filter="url(#f1q80kg9dxt9k9)" rx="26.3345" ry="14.5236" style="stroke: #A80036; stroke-width: 1.5;"/><text fill="#000000" font-family="sans-serif" font-size="14" lengthAdjust="spacingAndGlyphs" textLength="33" x="480.3345" y="493.6721">Load</text><ellipse cx="453.9472" cy="614.0236" fill="#FEFECE" filter="url(#f1q80kg9dxt9k9)" rx="57.4472" ry="14.5236" style="stroke: #A80036; stroke-width: 1.5;"/><text fill="#000000" font-family="sans-serif" font-size="14" lengthAdjust="spacingAndGlyphs" textLength="77" x="415.4472" y="618.6721">Start Game</text><ellipse cx="250.7756" cy="489.0236" fill="#FEFECE" filter="url(#f1q80kg9dxt9k9)" rx="60.2756" ry="14.5236" style="stroke: #A80036; stroke-width: 1.5;"/><text fill="#000000" font-family="sans-serif" font-size="14" lengthAdjust="spacingAndGlyphs" textLength="81" x="210.2756" y="493.6721">Choose Pet</text><ellipse cx="700.2471" cy="488.9494" fill="#FEFECE" filter="url(#f1q80kg9dxt9k9)" rx="70.2471" ry="16.4494" style="stroke: #A80036; stroke-width: 1.5;"/><text fill="#000000" font-family="sans-serif" font-size="14" lengthAdjust="spacingAndGlyphs" textLength="107" x="646.7471" y="493.5979">Authentification</text><ellipse cx="250.8859" cy="613.9772" fill="#FEFECE" filter="url(#f1q80kg9dxt9k9)" rx="67.8859" ry="15.9772" style="stroke: #A80036; stroke-width: 1.5;"/><text fill="#000000" font-family="sans-serif" font-size="14" lengthAdjust="spacingAndGlyphs" textLength="101" x="200.3859" y="618.6256">Customize Pet</text><ellipse cx="1077.1107" cy="230.3221" fill="#FEFECE" filter="url(#f1q80kg9dxt9k9)" rx="67.1107" ry="15.8221" style="stroke: #A80036; stroke-width: 1.5;"/><text fill="#000000" font-family="sans-serif" font-size="14" lengthAdjust="spacingAndGlyphs" textLength="99" x="1027.6107" y="234.9706">Change Room</text><ellipse cx="1207.2487" cy="230.5236" fill="#FEFECE" filter="url(#f1q80kg9dxt9k9)" rx="27.7487" ry="14.5236" style="stroke: #A80036; stroke-width: 1.5;"/><text fill="#000000" font-family="sans-serif" font-size="14" lengthAdjust="spacingAndGlyphs" textLength="35" x="1189.7487" y="235.1721">Feed</text><ellipse cx="1298.8489" cy="488.7698" fill="#FEFECE" filter="url(#f1q80kg9dxt9k9)" rx="71.8489" ry="16.7698" style="stroke: #A80036; stroke-width: 1.5;"/><text fill="#000000" font-family="sans-serif" font-size="14" lengthAdjust="spacingAndGlyphs" textLength="111" x="1243.3489" y="493.4182">Interact with Pet</text><ellipse cx="1329.7756" cy="230.5236" fill="#FEFECE" filter="url(#f1q80kg9dxt9k9)" rx="60.2756" ry="14.5236" style="stroke: #A80036; stroke-width: 1.5;"/><text fill="#000000" font-family="sans-serif" font-size="14" lengthAdjust="spacingAndGlyphs" textLength="81" x="1289.2756" y="235.1721">Open Menu</text><ellipse cx="917.9431" cy="374.6886" fill="#FEFECE" filter="url(#f1q80kg9dxt9k9)" rx="91.4431" ry="20.6886" style="stroke: #A80036; stroke-width: 1.5;"/><text fill="#000000" font-family="sans-serif" font-size="14" lengthAdjust="spacingAndGlyphs" textLength="157" x="839.4431" y="379.3371">Change player location</text><ellipse cx="1122.1884" cy="374.3377" fill="#FEFECE" filter="url(#f1q80kg9dxt9k9)" rx="77.1884" ry="17.8377" style="stroke: #A80036; stroke-width: 1.5;"/><text fill="#000000" font-family="sans-serif" font-size="14" lengthAdjust="spacingAndGlyphs" textLength="124" x="1060.1884" y="378.9861">Load environment</text><ellipse cx="1112.2007" cy="613.9401" fill="#FEFECE" filter="url(#f1q80kg9dxt9k9)" rx="65.2007" ry="15.4401" style="stroke: #A80036; stroke-width: 1.5;"/><text fill="#000000" font-family="sans-serif" font-size="14" lengthAdjust="spacingAndGlyphs" textLength="94" x="1065.2007" y="618.5886">State Change</text><ellipse cx="1111.8345" cy="738.5236" fill="#FEFECE" filter="url(#f1q80kg9dxt9k9)" rx="26.3345" ry="14.5236" style="stroke: #A80036; stroke-width: 1.5;"/><text fill="#000000" font-family="sans-serif" font-size="14" lengthAdjust="spacingAndGlyphs" textLength="33" x="1095.3345" y="743.1721">Save</text><ellipse cx="1168.2132" cy="489.0236" fill="#FEFECE" filter="url(#f1q80kg9dxt9k9)" rx="24.2132" ry="14.5236" style="stroke: #A80036; stroke-width: 1.5;"/><text fill="#000000" font-family="sans-serif" font-size="14" lengthAdjust="spacingAndGlyphs" textLength="30" x="1153.2132" y="493.6721">Give</text><ellipse cx="1262.9558" cy="374.5236" fill="#FEFECE" filter="url(#f1q80kg9dxt9k9)" rx="28.4558" ry="14.5236" style="stroke: #A80036; stroke-width: 1.5;"/><text fill="#000000" font-family="sans-serif" font-size="14" lengthAdjust="spacingAndGlyphs" textLength="36" x="1244.9558" y="379.1721">Cook</text><ellipse cx="1359.9056" cy="374.5236" fill="#FEFECE" filter="url(#f1q80kg9dxt9k9)" rx="33.4056" ry="14.5236" style="stroke: #A80036; stroke-width: 1.5;"/><text fill="#000000" font-family="sans-serif" font-size="14" lengthAdjust="spacingAndGlyphs" textLength="43" x="1338.4056" y="379.1721">Fridge</text><ellipse cx="1290.0833" cy="614.0236" fill="#FEFECE" filter="url(#f1q80kg9dxt9k9)" rx="51.0833" ry="14.5236" style="stroke: #A80036; stroke-width: 1.5;"/><text fill="#000000" font-family="sans-serif" font-size="14" lengthAdjust="spacingAndGlyphs" textLength="68" x="1256.0833" y="618.6721">MiniGame</text><ellipse cx="1290.163" cy="738.5236" fill="#FEFECE" filter="url(#f1q80kg9dxt9k9)" rx="29.163" ry="14.5236" style="stroke: #A80036; stroke-width: 1.5;"/><text fill="#000000" font-family="sans-serif" font-size="14" lengthAdjust="spacingAndGlyphs" textLength="37" x="1271.663" y="743.1721">Sport</text><!--MD5=[be5750da26e06623bc49653cefaf97c7]
entity p--><ellipse cx="1444" cy="18" fill="#FEFECE" filter="url(#f1q80kg9dxt9k9)" rx="8" ry="8" style="stroke: #A80036; stroke-width: 1.5;"/><path d="M1444,26 L1444,53 M1431,34 L1457,34 M1444,53 L1431,68 M1444,53 L1457,68 " fill="none" filter="url(#f1q80kg9dxt9k9)" style="stroke: #A80036; stroke-width: 1.5;"/><text fill="#000000" font-family="sans-serif" font-size="14" lengthAdjust="spacingAndGlyphs" textLength="41" x="1423.5" y="86.4951">Player</text><!--MD5=[6d0182004b2966652cc4e596d18dc4f9]
link p to Start App--><path d="M1423.42,52.16 C1344.08,60.55 1050.47,92.37 810,128.5 C612.44,158.18 378.05,202.54 282.64,220.98 " fill="none" id="p-&gt;Start App" style="stroke: #A80036; stroke-width: 1.0;"/><polygon fill="#A80036" points="277.66,221.95,287.2587,224.1556,282.5678,220.9941,285.7293,216.3032,277.66,221.95" style="stroke: #A80036; stroke-width: 1.0;"/><!--MD5=[1f7ce2bce05c16c8df7b69f2e054f458]
link p to Edit Options--><path d="M1464.63,89.58 C1491.1,146.48 1527.18,250.86 1470,308.5 C1460.24,318.34 485.19,312.22 472,316.5 C447.53,324.43 424.13,342.8 409.03,356.56 " fill="none" id="p-&gt;Edit Options" style="stroke: #A80036; stroke-width: 1.0;"/><polygon fill="#A80036" points="404.99,360.3,414.305,357.1015,408.6519,356.8956,408.8579,351.2424,404.99,360.3" style="stroke: #A80036; stroke-width: 1.0;"/><!--MD5=[920f9eaeaa50050ca181d1a13317b404]
link p to New Game--><path d="M1452.76,89.59 C1462.97,147.49 1471.4,254.25 1410,308.5 C1398.58,318.59 327.41,311.54 313,316.5 C289.88,324.47 268.31,342.83 254.5,356.58 " fill="none" id="p-&gt;New Game" style="stroke: #A80036; stroke-width: 1.0;"/><polygon fill="#A80036" points="250.81,360.32,259.9735,356.7102,254.3168,356.756,254.271,351.0993,250.81,360.32" style="stroke: #A80036; stroke-width: 1.0;"/><!--MD5=[644a32328c29985f2f54631628279fc9]
link p to Chose Save--><path d="M1464.87,58.02 C1488.29,68.29 1525.1,88.54 1541,119.5 C1579.38,194.22 1600.14,248.84 1541,308.5 C1532.08,317.5 641.04,312.55 629,316.5 C604.76,324.45 581.66,342.82 566.77,356.57 " fill="none" id="p-&gt;Chose Save" style="stroke: #A80036; stroke-width: 1.0;"/><polygon fill="#A80036" points="562.8,360.31,572.0953,357.0545,566.441,356.8832,566.6123,351.2289,562.8,360.31" style="stroke: #A80036; stroke-width: 1.0;"/><!--MD5=[56e1e0091f7a70d7727582fce96dc7fe]
link p to Login Online--><path d="M1464.51,51.47 C1501.47,55.36 1578.5,69.38 1612,119.5 C1658.68,189.33 1671.1,248.81 1612,308.5 C1604.16,316.42 820.77,313.64 810,316.5 C780.11,324.44 749.64,343.14 729.89,356.97 " fill="none" id="p-&gt;Login Online" style="stroke: #A80036; stroke-width: 1.0;"/><polygon fill="#A80036" points="725.59,360.02,735.2457,358.0791,729.6693,357.1287,730.6197,351.5523,725.59,360.02" style="stroke: #A80036; stroke-width: 1.0;"/><!--MD5=[5e20289c72f92fc57622dbc761dd86e0]
link Load to Start Game--><path d="M492.23,503.63 C484.52,525.71 469.27,569.31 460.55,594.28 " fill="none" id="Load-&gt;Start Game" style="stroke: #A80036; stroke-width: 1.0; stroke-dasharray: 7.0,7.0;"/><polygon fill="#A80036" points="458.79,599.31,465.5289,592.1276,460.4354,594.5885,457.9745,589.495,458.79,599.31" style="stroke: #A80036; stroke-width: 1.0;"/><text fill="#000000" font-family="sans-serif" font-size="13" lengthAdjust="spacingAndGlyphs" textLength="61" x="481" y="556.5669">«include»</text><!--MD5=[51d14e0eb7fdf0ab70dae1bb1ef13d74]
link New Game to Choose Pet--><path d="M240.47,389.29 C242.62,409.39 246.6,446.78 249.01,469.32 " fill="none" id="New Game-&gt;Choose Pet" style="stroke: #A80036; stroke-width: 1.0; stroke-dasharray: 7.0,7.0;"/><polygon fill="#A80036" points="249.55,474.44,252.576,465.0675,249.0214,469.468,244.6209,465.9133,249.55,474.44" style="stroke: #A80036; stroke-width: 1.0;"/><text fill="#000000" font-family="sans-serif" font-size="13" lengthAdjust="spacingAndGlyphs" textLength="61" x="247" y="438.0669">«include»</text><!--MD5=[6e64b47c7f2898601aaee5d783f0dd31]
link Login Online to Authentification--><path d="M706.99,389.75 C705.59,409.34 703.08,444.74 701.47,467.27 " fill="none" id="Login Online-&gt;Authentification" style="stroke: #A80036; stroke-width: 1.0; stroke-dasharray: 7.0,7.0;"/><polygon fill="#A80036" points="701.11,472.43,705.7428,463.7388,701.4673,467.4428,697.7633,463.1672,701.11,472.43" style="stroke: #A80036; stroke-width: 1.0;"/><text fill="#000000" font-family="sans-serif" font-size="13" lengthAdjust="spacingAndGlyphs" textLength="61" x="705" y="438.0669">«include»</text><!--MD5=[c03fcb7ad6d912560f232ef8ee3e4d40]
link Login Online to Load--><path d="M683.8,388.41 C642.71,410.31 559.88,454.47 519.78,475.85 " fill="none" id="Login Online-&gt;Load" style="stroke: #A80036; stroke-width: 1.0; stroke-dasharray: 7.0,7.0;"/><polygon fill="#A80036" points="515.11,478.35,524.9349,477.6639,519.5265,476.006,521.1845,470.5975,515.11,478.35" style="stroke: #A80036; stroke-width: 1.0;"/><text fill="#000000" font-family="sans-serif" font-size="13" lengthAdjust="spacingAndGlyphs" textLength="61" x="616" y="438.0669">«include»</text><!--MD5=[4d986c46a206b57712dff806995e3519]
link Chose Save to Load--><path d="M529.02,388.27 C516.91,396.95 502.76,409.63 496,425 C489.82,439.05 490.72,456.64 492.79,469.65 " fill="none" id="Chose Save-&gt;Load" style="stroke: #A80036; stroke-width: 1.0; stroke-dasharray: 7.0,7.0;"/><polygon fill="#A80036" points="493.66,474.58,496.0319,465.021,492.7894,469.6564,488.1541,466.4139,493.66,474.58" style="stroke: #A80036; stroke-width: 1.0;"/><text fill="#000000" font-family="sans-serif" font-size="13" lengthAdjust="spacingAndGlyphs" textLength="61" x="497" y="438.0669">«include»</text><!--MD5=[01afff2ec7eb67e78a76da9408cae289]
reverse link Start App to Load--><path d="M199.06,242.11 C163.64,253.87 114.06,276.66 91,316.5 C73.52,346.69 70.48,366.78 91,395 C136.39,457.43 388.46,480.41 470.9,486.32 " fill="none" id="Start App&lt;-Load" style="stroke: #A80036; stroke-width: 1.0; stroke-dasharray: 7.0,7.0;"/><polygon fill="#A80036" points="204.17,240.45,194.375,239.4217,199.4139,241.9925,196.843,247.0314,204.17,240.45" style="stroke: #A80036; stroke-width: 1.0;"/><text fill="#000000" font-family="sans-serif" font-size="13" lengthAdjust="spacingAndGlyphs" textLength="60" x="98.5" y="371.5669">«extend»</text><text fill="#000000" font-family="sans-serif" font-size="13" lengthAdjust="spacingAndGlyphs" textLength="73" x="92" y="386.6997">[if save file]</text><!--MD5=[11af7103c63c24c7f03e4af6778170f0]
reverse link Start App to New Game--><path d="M239,250.2 C239,279.14 239,334.1 239,359.72 " fill="none" id="Start App&lt;-New Game" style="stroke: #A80036; stroke-width: 1.0; stroke-dasharray: 7.0,7.0;"/><polygon fill="#A80036" points="239,245.12,235,254.12,239,250.12,243,254.12,239,245.12" style="stroke: #A80036; stroke-width: 1.0;"/><text fill="#000000" font-family="sans-serif" font-size="13" lengthAdjust="spacingAndGlyphs" textLength="60" x="256.5" y="289.5669">«extend»</text><text fill="#000000" font-family="sans-serif" font-size="13" lengthAdjust="spacingAndGlyphs" textLength="93" x="240" y="304.6997">[if no save file]</text><!--MD5=[79fabe53d4519e92e90736423f12aed2]
reverse link Choose Pet to Customize Pet--><path d="M249.47,509.12 C248.89,517.38 248.29,527.16 248,536 C247.54,550.21 247.53,553.79 248,568 C248.33,577.86 249.06,588.92 249.72,597.6 " fill="none" id="Choose Pet&lt;-Customize Pet" style="stroke: #A80036; stroke-width: 1.0; stroke-dasharray: 7.0,7.0;"/><polygon fill="#A80036" points="249.87,503.68,245.2124,512.358,249.4985,508.6662,253.1903,512.9523,249.87,503.68" style="stroke: #A80036; stroke-width: 1.0;"/><text fill="#000000" font-family="sans-serif" font-size="13" lengthAdjust="spacingAndGlyphs" textLength="60" x="269.5" y="549.0669">«extend»</text><text fill="#000000" font-family="sans-serif" font-size="13" lengthAdjust="spacingAndGlyphs" textLength="101" x="249" y="564.1997">[if player wants]</text><!--MD5=[fa002fed60a6feb50391bd8d605bfc47]
link Choose Pet to Start Game--><path d="M282.47,501.58 C303.63,509.92 331.78,522.12 355,536 C371.08,545.61 410.26,577.08 434.23,596.69 " fill="none" id="Choose Pet-&gt;Start Game" style="stroke: #A80036; stroke-width: 1.0; stroke-dasharray: 7.0,7.0;"/><polygon fill="#A80036" points="438.23,599.97,433.8026,591.1724,434.3621,596.8015,428.733,597.361,438.23,599.97" style="stroke: #A80036; stroke-width: 1.0;"/><text fill="#000000" font-family="sans-serif" font-size="13" lengthAdjust="spacingAndGlyphs" textLength="61" x="398" y="556.5669">«include»</text><!--MD5=[c6d855ff307eccfe2f775fd48febc938]
link p to Change Room--><path d="M1423.18,51.59 C1374.01,56.2 1248.35,72.99 1162,128.5 C1129.29,149.53 1102.6,187.06 1088.32,209.97 " fill="none" id="p-&gt;Change Room" style="stroke: #A80036; stroke-width: 1.0;"/><polygon fill="#A80036" points="1085.63,214.35,1093.7483,208.7739,1088.2465,210.0893,1086.9311,204.5875,1085.63,214.35" style="stroke: #A80036; stroke-width: 1.0;"/><!--MD5=[4401873a5c26ec071943d55d346dd9a7]
link p to Feed--><path d="M1423.31,53.24 C1384.82,60.28 1301.64,80.37 1252,128.5 C1228.52,151.26 1216.36,188.45 1210.86,210.79 " fill="none" id="p-&gt;Feed" style="stroke: #A80036; stroke-width: 1.0;"/><polygon fill="#A80036" points="1209.66,215.86,1215.6368,208.032,1210.8187,210.9961,1207.8546,206.178,1209.66,215.86" style="stroke: #A80036; stroke-width: 1.0;"/><!--MD5=[388975523b7d5f1d4e95b1c5a6bec318]
link p to Interact with Pet--><path d="M1464.77,50.14 C1509.77,51.71 1615.74,62.58 1660,128.5 C1704.66,195.02 1697.14,243.71 1650,308.5 C1577.99,407.47 1435.32,455.76 1355.83,475.88 " fill="none" id="p-&gt;Interact with Pet" style="stroke: #A80036; stroke-width: 1.0;"/><polygon fill="#A80036" points="1350.69,477.16,1360.3914,478.8577,1355.5407,475.9473,1358.4511,471.0966,1350.69,477.16" style="stroke: #A80036; stroke-width: 1.0;"/><!--MD5=[6e5ca8de1f035551afcf0c04ab86ecd3]
link p to Open Menu--><path d="M1423.36,82.51 C1399.36,120.29 1360.61,181.31 1341.46,211.45 " fill="none" id="p-&gt;Open Menu" style="stroke: #A80036; stroke-width: 1.0;"/><polygon fill="#A80036" points="1338.56,216.02,1346.7701,210.5799,1341.2472,211.8035,1340.0236,206.2805,1338.56,216.02" style="stroke: #A80036; stroke-width: 1.0;"/><!--MD5=[e2271b4c1a83fd848e0de2705c7c63b2]
link Change Room to Change player location--><path d="M1050,245.29 C1035.37,253.4 1017.39,264.41 1003,276.5 C976.64,298.65 951.29,329.18 935.23,350.04 " fill="none" id="Change Room-&gt;Change player location" style="stroke: #A80036; stroke-width: 1.0; stroke-dasharray: 7.0,7.0;"/><polygon fill="#A80036" points="932.15,354.07,940.78,349.3241,935.1751,350.0889,934.4102,344.484,932.15,354.07" style="stroke: #A80036; stroke-width: 1.0;"/><text fill="#000000" font-family="sans-serif" font-size="13" lengthAdjust="spacingAndGlyphs" textLength="61" x="1004" y="297.0669">«include»</text><!--MD5=[e9906a49173c19562f7af0b5bdf64903]
link Change Room to Load environment--><path d="M1075.27,246.66 C1074,262.49 1073.46,287.84 1080,308.5 C1085.05,324.47 1095.15,340.31 1104.17,352.35 " fill="none" id="Change Room-&gt;Load environment" style="stroke: #A80036; stroke-width: 1.0; stroke-dasharray: 7.0,7.0;"/><polygon fill="#A80036" points="1107.44,356.6,1105.1248,347.0271,1104.3921,352.6363,1098.7829,351.9037,1107.44,356.6" style="stroke: #A80036; stroke-width: 1.0;"/><text fill="#000000" font-family="sans-serif" font-size="13" lengthAdjust="spacingAndGlyphs" textLength="61" x="1081" y="297.0669">«include»</text><!--MD5=[bef49e14e9aad9d6359ace37814c6349]
link State Change to Save--><path d="M1112,629.53 C1112,651.69 1112,693.92 1112,718.48 " fill="none" id="State Change-&gt;Save" style="stroke: #A80036; stroke-width: 1.0; stroke-dasharray: 7.0,7.0;"/><polygon fill="#A80036" points="1112,723.74,1116,714.74,1112,718.74,1108,714.74,1112,723.74" style="stroke: #A80036; stroke-width: 1.0;"/><text fill="#000000" font-family="sans-serif" font-size="13" lengthAdjust="spacingAndGlyphs" textLength="61" x="1113" y="682.5669">«include»</text><!--MD5=[c835cd8752eba037798410890452d05e]
link Give to State Change--><path d="M1145.64,494.9 C1124.81,500.77 1094.93,512.88 1081,536 C1069.62,554.89 1082.92,578.71 1095.47,594.82 " fill="none" id="Give-&gt;State Change" style="stroke: #A80036; stroke-width: 1.0; stroke-dasharray: 7.0,7.0;"/><polygon fill="#A80036" points="1098.62,598.74,1096.1085,589.2168,1095.4913,594.8398,1089.8682,594.2227,1098.62,598.74" style="stroke: #A80036; stroke-width: 1.0;"/><text fill="#000000" font-family="sans-serif" font-size="13" lengthAdjust="spacingAndGlyphs" textLength="61" x="1082" y="556.5669">«include»</text><!--MD5=[30e4ddcc1c2bd7e5a45d66df0b3d3448]
link Cook to Give--><path d="M1243.04,384.85 C1226.96,393.3 1204.84,407.13 1191,425 C1180.86,438.08 1174.89,456.06 1171.59,469.46 " fill="none" id="Cook-&gt;Give" style="stroke: #A80036; stroke-width: 1.0; stroke-dasharray: 7.0,7.0;"/><polygon fill="#A80036" points="1170.41,474.53,1176.338,466.665,1171.5385,469.659,1168.5445,464.8594,1170.41,474.53" style="stroke: #A80036; stroke-width: 1.0;"/><text fill="#000000" font-family="sans-serif" font-size="13" lengthAdjust="spacingAndGlyphs" textLength="61" x="1192" y="438.0669">«include»</text><!--MD5=[4ba5f0069cd6702e1eb1bd8b9480472a]
link Fridge to Give--><path d="M1343.38,387.12 C1323.46,400.85 1288.91,424.09 1258,442 C1235.79,454.87 1209.59,468.04 1191.2,476.98 " fill="none" id="Fridge-&gt;Give" style="stroke: #A80036; stroke-width: 1.0; stroke-dasharray: 7.0,7.0;"/><polygon fill="#A80036" points="1186.23,479.38,1196.074,479.0712,1190.7331,477.2071,1192.5973,471.8662,1186.23,479.38" style="stroke: #A80036; stroke-width: 1.0;"/><text fill="#000000" font-family="sans-serif" font-size="13" lengthAdjust="spacingAndGlyphs" textLength="61" x="1284" y="438.0669">«include»</text><!--MD5=[b112f1b4846b70ab66c60194ae2359ee]
reverse link Feed to Cook--><path d="M1193.53,248.47 C1181.94,265.26 1169.09,290.94 1183,308.5 C1192.64,320.67 1203.86,308.24 1217,316.5 C1234.22,327.33 1247.89,346.89 1255.71,360.03 " fill="none" id="Feed&lt;-Cook" style="stroke: #A80036; stroke-width: 1.0; stroke-dasharray: 7.0,7.0;"/><polygon fill="#A80036" points="1196.74,243.98,1188.2523,248.9758,1193.8325,248.0477,1194.7606,253.6279,1196.74,243.98" style="stroke: #A80036; stroke-width: 1.0;"/><text fill="#000000" font-family="sans-serif" font-size="13" lengthAdjust="spacingAndGlyphs" textLength="60" x="1195" y="289.5669">«extend»</text><text fill="#000000" font-family="sans-serif" font-size="13" lengthAdjust="spacingAndGlyphs" textLength="82" x="1184" y="304.6997">[if in kitchen]</text><!--MD5=[bc13a91bbf65955cc7046406c2a0538e]
reverse link Feed to Fridge--><path d="M1228.19,244.86 C1241.04,253.33 1257.51,264.86 1271,276.5 C1302.32,303.52 1333.84,340.82 1349.62,360.36 " fill="none" id="Feed&lt;-Fridge" style="stroke: #A80036; stroke-width: 1.0; stroke-dasharray: 7.0,7.0;"/><polygon fill="#A80036" points="1223.98,242.11,1229.3351,250.3757,1228.1686,244.8405,1233.7039,243.6739,1223.98,242.11" style="stroke: #A80036; stroke-width: 1.0;"/><text fill="#000000" font-family="sans-serif" font-size="13" lengthAdjust="spacingAndGlyphs" textLength="60" x="1314" y="289.5669">«extend»</text><text fill="#000000" font-family="sans-serif" font-size="13" lengthAdjust="spacingAndGlyphs" textLength="82" x="1303" y="304.6997">[if in kitchen]</text><!--MD5=[e4db03ac82b1fc62bb8c48bf98dc007d]
reverse link MiniGame to Sport--><path d="M1290,633.58 C1290,658.41 1290,701.84 1290,723.86 " fill="none" id="MiniGame&lt;-Sport" style="stroke: #A80036; stroke-width: 1.0; stroke-dasharray: 7.0,7.0;"/><polygon fill="#A80036" points="1290,628.58,1286,637.58,1290,633.58,1294,637.58,1290,628.58" style="stroke: #A80036; stroke-width: 1.0;"/><text fill="#000000" font-family="sans-serif" font-size="13" lengthAdjust="spacingAndGlyphs" textLength="60" x="1295" y="675.0669">«extend»</text><text fill="#000000" font-family="sans-serif" font-size="13" lengthAdjust="spacingAndGlyphs" textLength="68" x="1291" y="690.1997">[if outside]</text><!--MD5=[9d06e1b55a6e4885e3e192178bbff502]
link Interact with Pet to State Change--><path d="M1273.05,504.88 C1257.98,513.67 1238.73,525.17 1222,536 C1191.55,555.72 1157.47,579.92 1135.43,595.86 " fill="none" id="Interact with Pet-&gt;State Change" style="stroke: #A80036; stroke-width: 1.0; stroke-dasharray: 7.0,7.0;"/><polygon fill="#A80036" points="1131.18,598.94,1140.8152,596.8996,1135.2292,596.0068,1136.1221,590.4209,1131.18,598.94" style="stroke: #A80036; stroke-width: 1.0;"/><text fill="#000000" font-family="sans-serif" font-size="13" lengthAdjust="spacingAndGlyphs" textLength="61" x="1223" y="556.5669">«include»</text><!--MD5=[81dc08de62570ff3cc7ed33e9cd719a7]
reverse link Interact with Pet to MiniGame--><path d="M1297.45,511.2 C1295.6,536.42 1292.58,577.78 1291.01,599.19 " fill="none" id="Interact with Pet&lt;-MiniGame" style="stroke: #A80036; stroke-width: 1.0; stroke-dasharray: 7.0,7.0;"/><polygon fill="#A80036" points="1297.82,506.08,1293.1872,514.7712,1297.4627,511.0672,1301.1667,515.3428,1297.82,506.08" style="stroke: #A80036; stroke-width: 1.0;"/><text fill="#000000" font-family="sans-serif" font-size="13" lengthAdjust="spacingAndGlyphs" textLength="60" x="1317" y="549.0669">«extend»</text><text fill="#000000" font-family="sans-serif" font-size="13" lengthAdjust="spacingAndGlyphs" textLength="102" x="1296" y="564.1997">[if player chose]</text><!--MD5=[03c0031cf6e952fac88e26a83c6c1411]
@startuml

:Player: as p

rectangle Tamagotchi {

    p -> (Start App)
    
    package Menu {
        
        p - -> (Edit Options)
        p - -> (New Game)
        p - -> (Chose Save)
        p - -> (Login Online)
        
        (Load) ..> (Start Game) : <<include>>
        (New Game) ..> (Choose Pet) : <<include>>
        (Login Online) ..> (Authentification) : <<include>>
        (Login Online) ..> (Load) : <<include>>
        (Chose Save) ..> (Load) : <<include>>
        (Start App) <.. (Load) : <<extend>>\n[if save file]
        (Start App) <.. (New Game) : <<extend>>\n[if no save file]
        (Choose Pet) <.. (Customize Pet) : <<extend>>\n[if player wants]
        (Choose Pet) ..> (Start Game) : <<include>>
        (Edit Options)
    }

    package Game {
    
        p - -> (Change Room)
        p - -> (Feed)
        p - -> (Interact with Pet)
        p - -> (Open Menu)
        
        (Change Room) ..> (Change player location) : <<include>>
        (Change Room) ..> (Load environment) : <<include>>
        (State Change) ..> (Save) : <<include>>
        (Give) ..> (State Change) : <<include>>
        (Cook) ..> (Give) : <<include>>
        (Fridge) ..> (Give) : <<include>>
        (Feed) <.. (Cook) : <<extend>>\n[if in kitchen]
        (Feed) <.. (Fridge) : <<extend>>\n[if in kitchen]
        (MiniGame) <.. (Sport) : <<extend>>\n[if outside]
        (Interact with Pet) ..> (State Change) : <<include>>
        (Interact with Pet) <.. (MiniGame) : <<extend>>\n[if player chose]
    }
}

@enduml

PlantUML version 1.2020.02(Sun Mar 01 11:22:07 CET 2020)
(GPL source distribution)
Java Runtime: OpenJDK Runtime Environment
JVM: OpenJDK 64-Bit Server VM
Java Version: 17.0.4+8-Debian-1
Operating System: Linux
Default Encoding: UTF-8
Language: fr
Country: FR
--></g></svg>