<?xml version="1.0" encoding="UTF-8" standalone="no"?><svg xmlns="http://www.w3.org/2000/svg" xmlns:xlink="http://www.w3.org/1999/xlink" contentScriptType="application/ecmascript" contentStyleType="text/css" height="793px" preserveAspectRatio="none" style="width:1525px;height:793px;" version="1.1" viewBox="0 0 1525 793" width="1525px" zoomAndPan="magnify"><defs><filter height="300%" id="fm8mrnf0dg7yr" width="300%" x="-1" y="-1"><feGaussianBlur result="blurOut" stdDeviation="2.0"/><feColorMatrix in="blurOut" result="blurOut2" type="matrix" values="0 0 0 0 0 0 0 0 0 0 0 0 0 0 0 0 0 0 .4 0"/><feOffset dx="4.0" dy="4.0" in="blurOut2" result="blurOut3"/><feBlend in="SourceGraphic" in2="blurOut3" mode="normal"/></filter></defs><g><!--MD5=[9e83cf350cee93aa3efb004ab5834683]
cluster Tamagotchi--><rect fill="#FFFFFF" filter="url(#fm8mrnf0dg7yr)" height="646" style="stroke: #000000; stroke-width: 1.5;" width="1260" x="158" y="136"/><text fill="#000000" font-family="sans-serif" font-size="14" font-weight="bold" lengthAdjust="spacingAndGlyphs" textLength="91" x="742.5" y="150.9951">Tamagotchi</text><!--MD5=[5319da33ceac95ddf1d5fced7ca1a2a0]
cluster Menu--><polygon fill="#FFFFFF" filter="url(#fm8mrnf0dg7yr)" points="182,324,231,324,238,346.2969,771,346.2969,771,758,182,758,182,324" style="stroke: #000000; stroke-width: 1.5;"/><line style="stroke: #000000; stroke-width: 1.5;" x1="182" x2="238" y1="346.2969" y2="346.2969"/><text fill="#000000" font-family="sans-serif" font-size="14" font-weight="bold" lengthAdjust="spacingAndGlyphs" textLength="43" x="186" y="338.9951">Menu</text><!--MD5=[2b611c2d60e481aa2035053367969193]
cluster Game--><polygon fill="#FFFFFF" filter="url(#fm8mrnf0dg7yr)" points="795,179,846,179,853,201.2969,1394,201.2969,1394,756,795,756,795,179" style="stroke: #000000; stroke-width: 1.5;"/><line style="stroke: #000000; stroke-width: 1.5;" x1="795" x2="853" y1="201.2969" y2="201.2969"/><text fill="#000000" font-family="sans-serif" font-size="14" font-weight="bold" lengthAdjust="spacingAndGlyphs" textLength="45" x="799" y="193.9951">Game</text><ellipse cx="540.1001" cy="229.92" fill="#FEFECE" filter="url(#fm8mrnf0dg7yr)" rx="62.6001" ry="14.92" style="stroke: #A80036; stroke-width: 1.5;"/><text fill="#000000" font-family="sans-serif" font-size="14" lengthAdjust="spacingAndGlyphs" textLength="87" x="496.6001" y="234.5685">On Start App</text><ellipse cx="259.8742" cy="599.2748" fill="#FEFECE" filter="url(#fm8mrnf0dg7yr)" rx="61.8742" ry="14.7748" style="stroke: #A80036; stroke-width: 1.5;"/><text fill="#000000" font-family="sans-serif" font-size="14" lengthAdjust="spacingAndGlyphs" textLength="85" x="217.3742" y="603.9233">Login Online</text><ellipse cx="268.2471" cy="725.4494" fill="#FEFECE" filter="url(#fm8mrnf0dg7yr)" rx="70.2471" ry="16.4494" style="stroke: #A80036; stroke-width: 1.5;"/><text fill="#000000" font-family="sans-serif" font-size="14" lengthAdjust="spacingAndGlyphs" textLength="107" x="214.7471" y="730.0979">Authentification</text><ellipse cx="540.033" cy="373.5236" fill="#FEFECE" filter="url(#fm8mrnf0dg7yr)" rx="56.033" ry="14.5236" style="stroke: #A80036; stroke-width: 1.5;"/><text fill="#000000" font-family="sans-serif" font-size="14" lengthAdjust="spacingAndGlyphs" textLength="75" x="502.533" y="378.1721">New Game</text><ellipse cx="539.7756" cy="488.0236" fill="#FEFECE" filter="url(#fm8mrnf0dg7yr)" rx="60.2756" ry="14.5236" style="stroke: #A80036; stroke-width: 1.5;"/><text fill="#000000" font-family="sans-serif" font-size="14" lengthAdjust="spacingAndGlyphs" textLength="81" x="499.2756" y="492.6721">Choose Pet</text><ellipse cx="253.8345" cy="488.0236" fill="#FEFECE" filter="url(#fm8mrnf0dg7yr)" rx="26.3345" ry="14.5236" style="stroke: #A80036; stroke-width: 1.5;"/><text fill="#000000" font-family="sans-serif" font-size="14" lengthAdjust="spacingAndGlyphs" textLength="33" x="237.3345" y="492.6721">Load</text><ellipse cx="424.9472" cy="599.5236" fill="#FEFECE" filter="url(#fm8mrnf0dg7yr)" rx="57.4472" ry="14.5236" style="stroke: #A80036; stroke-width: 1.5;"/><text fill="#000000" font-family="sans-serif" font-size="14" lengthAdjust="spacingAndGlyphs" textLength="77" x="386.4472" y="604.1721">Start Game</text><ellipse cx="594.8859" cy="599.4772" fill="#FEFECE" filter="url(#fm8mrnf0dg7yr)" rx="67.8859" ry="15.9772" style="stroke: #A80036; stroke-width: 1.5;"/><text fill="#000000" font-family="sans-serif" font-size="14" lengthAdjust="spacingAndGlyphs" textLength="101" x="544.3859" y="604.1256">Customize Pet</text><ellipse cx="693.0143" cy="373.7029" fill="#FEFECE" filter="url(#fm8mrnf0dg7yr)" rx="61.5143" ry="14.7029" style="stroke: #A80036; stroke-width: 1.5;"/><text fill="#000000" font-family="sans-serif" font-size="14" lengthAdjust="spacingAndGlyphs" textLength="84" x="651.0143" y="378.3513">Edit Options</text><ellipse cx="871.7756" cy="230.0236" fill="#FEFECE" filter="url(#fm8mrnf0dg7yr)" rx="60.2756" ry="14.5236" style="stroke: #A80036; stroke-width: 1.5;"/><text fill="#000000" font-family="sans-serif" font-size="14" lengthAdjust="spacingAndGlyphs" textLength="81" x="831.2756" y="234.6721">Open Menu</text><ellipse cx="1035.1107" cy="229.8221" fill="#FEFECE" filter="url(#fm8mrnf0dg7yr)" rx="67.1107" ry="15.8221" style="stroke: #A80036; stroke-width: 1.5;"/><text fill="#000000" font-family="sans-serif" font-size="14" lengthAdjust="spacingAndGlyphs" textLength="99" x="985.6107" y="234.4706">Change Room</text><ellipse cx="1091.9431" cy="373.6886" fill="#FEFECE" filter="url(#fm8mrnf0dg7yr)" rx="91.4431" ry="20.6886" style="stroke: #A80036; stroke-width: 1.5;"/><text fill="#000000" font-family="sans-serif" font-size="14" lengthAdjust="spacingAndGlyphs" textLength="157" x="1013.4431" y="378.3371">Change player location</text><ellipse cx="888.1884" cy="373.3377" fill="#FEFECE" filter="url(#fm8mrnf0dg7yr)" rx="77.1884" ry="17.8377" style="stroke: #A80036; stroke-width: 1.5;"/><text fill="#000000" font-family="sans-serif" font-size="14" lengthAdjust="spacingAndGlyphs" textLength="124" x="826.1884" y="377.9861">Load environment</text><ellipse cx="1128.2002" cy="599.34" fill="#FEFECE" filter="url(#fm8mrnf0dg7yr)" rx="74.7002" ry="17.34" style="stroke: #A80036; stroke-width: 1.5;"/><text fill="#000000" font-family="sans-serif" font-size="14" lengthAdjust="spacingAndGlyphs" textLength="118" x="1069.2002" y="603.9885">On State Change</text><ellipse cx="1127.8345" cy="725.5236" fill="#FEFECE" filter="url(#fm8mrnf0dg7yr)" rx="26.3345" ry="14.5236" style="stroke: #A80036; stroke-width: 1.5;"/><text fill="#000000" font-family="sans-serif" font-size="14" lengthAdjust="spacingAndGlyphs" textLength="33" x="1111.3345" y="730.1721">Save</text><ellipse cx="1212.2132" cy="488.0236" fill="#FEFECE" filter="url(#fm8mrnf0dg7yr)" rx="24.2132" ry="14.5236" style="stroke: #A80036; stroke-width: 1.5;"/><text fill="#000000" font-family="sans-serif" font-size="14" lengthAdjust="spacingAndGlyphs" textLength="30" x="1197.2132" y="492.6721">Give</text><ellipse cx="1348.9558" cy="373.5236" fill="#FEFECE" filter="url(#fm8mrnf0dg7yr)" rx="28.4558" ry="14.5236" style="stroke: #A80036; stroke-width: 1.5;"/><text fill="#000000" font-family="sans-serif" font-size="14" lengthAdjust="spacingAndGlyphs" textLength="36" x="1330.9558" y="378.1721">Cook</text><ellipse cx="1251.9056" cy="373.5236" fill="#FEFECE" filter="url(#fm8mrnf0dg7yr)" rx="33.4056" ry="14.5236" style="stroke: #A80036; stroke-width: 1.5;"/><text fill="#000000" font-family="sans-serif" font-size="14" lengthAdjust="spacingAndGlyphs" textLength="43" x="1230.4056" y="378.1721">Fridge</text><ellipse cx="1170.2487" cy="230.0236" fill="#FEFECE" filter="url(#fm8mrnf0dg7yr)" rx="27.7487" ry="14.5236" style="stroke: #A80036; stroke-width: 1.5;"/><text fill="#000000" font-family="sans-serif" font-size="14" lengthAdjust="spacingAndGlyphs" textLength="35" x="1152.7487" y="234.6721">Feed</text><ellipse cx="907.0833" cy="599.5236" fill="#FEFECE" filter="url(#fm8mrnf0dg7yr)" rx="51.0833" ry="14.5236" style="stroke: #A80036; stroke-width: 1.5;"/><text fill="#000000" font-family="sans-serif" font-size="14" lengthAdjust="spacingAndGlyphs" textLength="68" x="873.0833" y="604.1721">MiniGame</text><ellipse cx="907.163" cy="725.5236" fill="#FEFECE" filter="url(#fm8mrnf0dg7yr)" rx="29.163" ry="14.5236" style="stroke: #A80036; stroke-width: 1.5;"/><text fill="#000000" font-family="sans-serif" font-size="14" lengthAdjust="spacingAndGlyphs" textLength="37" x="888.663" y="730.1721">Sport</text><ellipse cx="906.8489" cy="487.7698" fill="#FEFECE" filter="url(#fm8mrnf0dg7yr)" rx="71.8489" ry="16.7698" style="stroke: #A80036; stroke-width: 1.5;"/><text fill="#000000" font-family="sans-serif" font-size="14" lengthAdjust="spacingAndGlyphs" textLength="111" x="851.3489" y="492.4182">Interact with Pet</text><!--MD5=[be5750da26e06623bc49653cefaf97c7]
entity p--><ellipse cx="872" cy="17.5" fill="#FEFECE" filter="url(#fm8mrnf0dg7yr)" rx="8" ry="8" style="stroke: #A80036; stroke-width: 1.5;"/><path d="M872,25.5 L872,52.5 M859,33.5 L885,33.5 M872,52.5 L859,67.5 M872,52.5 L885,67.5 " fill="none" filter="url(#fm8mrnf0dg7yr)" style="stroke: #A80036; stroke-width: 1.5;"/><text fill="#000000" font-family="sans-serif" font-size="14" lengthAdjust="spacingAndGlyphs" textLength="41" x="851.5" y="85.9951">Player</text><!--MD5=[6e64b47c7f2898601aaee5d783f0dd31]
link Login Online to Authentification--><path d="M260.92,614.72 C262.33,636.58 265.03,678.53 266.66,703.77 " fill="none" id="Login Online-&gt;Authentification" style="stroke: #A80036; stroke-width: 1.0; stroke-dasharray: 7.0,7.0;"/><polygon fill="#A80036" points="266.99,708.89,270.4175,699.6568,266.6763,703.8998,262.4333,700.1587,266.99,708.89" style="stroke: #A80036; stroke-width: 1.0;"/><text fill="#000000" font-family="sans-serif" font-size="13" lengthAdjust="spacingAndGlyphs" textLength="61" x="265" y="667.5669">«include»</text><!--MD5=[51d14e0eb7fdf0ab70dae1bb1ef13d74]
link New Game to Choose Pet--><path d="M540,388.29 C540,408.39 540,445.78 540,468.32 " fill="none" id="New Game-&gt;Choose Pet" style="stroke: #A80036; stroke-width: 1.0; stroke-dasharray: 7.0,7.0;"/><polygon fill="#A80036" points="540,473.44,544,464.44,540,468.44,536,464.44,540,473.44" style="stroke: #A80036; stroke-width: 1.0;"/><text fill="#000000" font-family="sans-serif" font-size="13" lengthAdjust="spacingAndGlyphs" textLength="61" x="541" y="437.0669">«include»</text><!--MD5=[5e20289c72f92fc57622dbc761dd86e0]
link Load to Start Game--><path d="M274.66,497.08 C294.67,505.33 325.49,519.13 350,535 C371.21,548.73 392.97,567.82 407.56,581.48 " fill="none" id="Load-&gt;Start Game" style="stroke: #A80036; stroke-width: 1.0; stroke-dasharray: 7.0,7.0;"/><polygon fill="#A80036" points="411.47,585.18,407.6577,576.0989,407.829,581.7532,402.1747,581.9245,411.47,585.18" style="stroke: #A80036; stroke-width: 1.0;"/><text fill="#000000" font-family="sans-serif" font-size="13" lengthAdjust="spacingAndGlyphs" textLength="61" x="372" y="548.0669">«include»</text><!--MD5=[4e7e8171a94d8480a44d3567df433ea2]
reverse link Load to Login Online--><path d="M240.95,506.21 C233.06,518.74 225.35,536.2 230,552 C233.53,563.98 241.21,575.78 247.92,584.5 " fill="none" id="Load&lt;-Login Online" style="stroke: #A80036; stroke-width: 1.0; stroke-dasharray: 7.0,7.0;"/><polygon fill="#A80036" points="243.84,501.83,235.5404,507.1326,241.083,506.0012,242.2144,511.5438,243.84,501.83" style="stroke: #A80036; stroke-width: 1.0;"/><text fill="#000000" font-family="sans-serif" font-size="13" lengthAdjust="spacingAndGlyphs" textLength="114" x="231" y="548.0669">«extend» [if auth]</text><!--MD5=[7b5440bd360352ef45436482796b38cd]
reverse link On Start App to Load--><path d="M487.05,240.92 C440.73,252.05 374.27,274.3 331,316 C283.65,361.64 263.08,441.72 256.51,473.48 " fill="none" id="On Start App&lt;-Load" style="stroke: #A80036; stroke-width: 1.0; stroke-dasharray: 7.0,7.0;"/><polygon fill="#A80036" points="492.04,239.75,482.3643,237.9114,487.1722,240.892,484.1915,245.6999,492.04,239.75" style="stroke: #A80036; stroke-width: 1.0;"/><text fill="#000000" font-family="sans-serif" font-size="13" lengthAdjust="spacingAndGlyphs" textLength="134" x="332" y="378.0669">«extend» [if load file]</text><!--MD5=[f42871e8feb86d500e7707fc054dd9ca]
reverse link On Start App to New Game--><path d="M540,250.2 C540,279.23 540,333.58 540,358.89 " fill="none" id="On Start App&lt;-New Game" style="stroke: #A80036; stroke-width: 1.0; stroke-dasharray: 7.0,7.0;"/><polygon fill="#A80036" points="540,245.08,536,254.08,540,250.08,544,254.08,540,245.08" style="stroke: #A80036; stroke-width: 1.0;"/><text fill="#000000" font-family="sans-serif" font-size="13" lengthAdjust="spacingAndGlyphs" textLength="154" x="541" y="296.5669">«extend» [if no load file]</text><!--MD5=[79fabe53d4519e92e90736423f12aed2]
reverse link Choose Pet to Customize Pet--><path d="M549.05,507.03 C559.79,528.4 577.49,563.64 587.5,583.56 " fill="none" id="Choose Pet&lt;-Customize Pet" style="stroke: #A80036; stroke-width: 1.0; stroke-dasharray: 7.0,7.0;"/><polygon fill="#A80036" points="546.74,502.43,547.1998,512.2681,548.9818,506.8993,554.3506,508.6813,546.74,502.43" style="stroke: #A80036; stroke-width: 1.0;"/><text fill="#000000" font-family="sans-serif" font-size="13" lengthAdjust="spacingAndGlyphs" textLength="158" x="571" y="548.0669">«extend» [if player want]</text><!--MD5=[fa002fed60a6feb50391bd8d605bfc47]
link Choose Pet to Start Game--><path d="M525.9,502.43 C504.92,522.4 465.52,559.92 442.65,581.69 " fill="none" id="Choose Pet-&gt;Start Game" style="stroke: #A80036; stroke-width: 1.0; stroke-dasharray: 7.0,7.0;"/><polygon fill="#A80036" points="438.86,585.31,448.1287,581.9796,442.4732,581.8539,442.5989,576.1984,438.86,585.31" style="stroke: #A80036; stroke-width: 1.0;"/><text fill="#000000" font-family="sans-serif" font-size="13" lengthAdjust="spacingAndGlyphs" textLength="61" x="490" y="548.0669">«include»</text><!--MD5=[e2271b4c1a83fd848e0de2705c7c63b2]
link Change Room to Change player location--><path d="M1040.45,246.13 C1046.12,261.72 1055.37,286.68 1064,308 C1069.42,321.38 1075.81,336.17 1081.12,348.21 " fill="none" id="Change Room-&gt;Change player location" style="stroke: #A80036; stroke-width: 1.0; stroke-dasharray: 7.0,7.0;"/><polygon fill="#A80036" points="1083.17,352.85,1083.2015,343.0012,1081.1539,348.2745,1075.8806,346.2269,1083.17,352.85" style="stroke: #A80036; stroke-width: 1.0;"/><text fill="#000000" font-family="sans-serif" font-size="13" lengthAdjust="spacingAndGlyphs" textLength="61" x="1065" y="296.5669">«include»</text><!--MD5=[e9906a49173c19562f7af0b5bdf64903]
link Change Room to Load environment--><path d="M1016.19,245.45 C1005.33,254.01 991.58,265.26 980,276 C953.26,300.78 924.6,331.6 906.5,351.64 " fill="none" id="Change Room-&gt;Load environment" style="stroke: #A80036; stroke-width: 1.0; stroke-dasharray: 7.0,7.0;"/><polygon fill="#A80036" points="903.03,355.5,912.0162,351.4691,906.3677,351.7772,906.0596,346.1287,903.03,355.5" style="stroke: #A80036; stroke-width: 1.0;"/><text fill="#000000" font-family="sans-serif" font-size="13" lengthAdjust="spacingAndGlyphs" textLength="61" x="981" y="296.5669">«include»</text><!--MD5=[8ae420125e3de0f99f5cbeebe46616cd]
link On State Change to Save--><path d="M1128,617.22 C1128,640.21 1128,681.45 1128,705.55 " fill="none" id="On State Change-&gt;Save" style="stroke: #A80036; stroke-width: 1.0; stroke-dasharray: 7.0,7.0;"/><polygon fill="#A80036" points="1128,710.71,1132,701.71,1128,705.71,1124,701.71,1128,710.71" style="stroke: #A80036; stroke-width: 1.0;"/><text fill="#000000" font-family="sans-serif" font-size="13" lengthAdjust="spacingAndGlyphs" textLength="61" x="1129" y="667.5669">«include»</text><!--MD5=[3a07bb5532b7e0a78ab6366aec21cc57]
link Give to On State Change--><path d="M1202.36,501.56 C1188,520.28 1160.83,555.7 1143.61,578.15 " fill="none" id="Give-&gt;On State Change" style="stroke: #A80036; stroke-width: 1.0; stroke-dasharray: 7.0,7.0;"/><polygon fill="#A80036" points="1140.52,582.18,1149.1689,577.4687,1143.561,578.211,1142.8186,572.6031,1140.52,582.18" style="stroke: #A80036; stroke-width: 1.0;"/><text fill="#000000" font-family="sans-serif" font-size="13" lengthAdjust="spacingAndGlyphs" textLength="61" x="1176" y="548.0669">«include»</text><!--MD5=[30e4ddcc1c2bd7e5a45d66df0b3d3448]
link Cook to Give--><path d="M1336.47,386.73 C1322.24,400.44 1298.11,423.08 1276,441 C1261.58,452.69 1244.47,464.91 1231.57,473.81 " fill="none" id="Cook-&gt;Give" style="stroke: #A80036; stroke-width: 1.0; stroke-dasharray: 7.0,7.0;"/><polygon fill="#A80036" points="1227.37,476.7,1237.0554,474.9131,1231.4948,473.874,1232.5338,468.3134,1227.37,476.7" style="stroke: #A80036; stroke-width: 1.0;"/><text fill="#000000" font-family="sans-serif" font-size="13" lengthAdjust="spacingAndGlyphs" textLength="61" x="1295" y="437.0669">«include»</text><!--MD5=[4ba5f0069cd6702e1eb1bd8b9480472a]
link Fridge to Give--><path d="M1236.95,386.58 C1226.92,395.67 1214.58,409.07 1209,424 C1203.7,438.18 1205,455.42 1207.32,468.28 " fill="none" id="Fridge-&gt;Give" style="stroke: #A80036; stroke-width: 1.0; stroke-dasharray: 7.0,7.0;"/><polygon fill="#A80036" points="1208.36,473.5,1210.5388,463.8952,1207.3904,468.5949,1202.6906,465.4465,1208.36,473.5" style="stroke: #A80036; stroke-width: 1.0;"/><text fill="#000000" font-family="sans-serif" font-size="13" lengthAdjust="spacingAndGlyphs" textLength="61" x="1210" y="437.0669">«include»</text><!--MD5=[b112f1b4846b70ab66c60194ae2359ee]
reverse link Feed to Cook--><path d="M1194.64,242.35 C1212.04,250.77 1235.61,262.99 1255,276 C1278.06,291.47 1283.48,296.25 1303,316 C1316.7,329.85 1330.56,347.48 1339.43,359.34 " fill="none" id="Feed&lt;-Cook" style="stroke: #A80036; stroke-width: 1.0; stroke-dasharray: 7.0,7.0;"/><polygon fill="#A80036" points="1189.9,240.08,1196.2959,247.5695,1194.4114,242.2358,1199.7451,240.3513,1189.9,240.08" style="stroke: #A80036; stroke-width: 1.0;"/><text fill="#000000" font-family="sans-serif" font-size="13" lengthAdjust="spacingAndGlyphs" textLength="60" x="1306" y="289.0669">«extend»</text><text fill="#000000" font-family="sans-serif" font-size="13" lengthAdjust="spacingAndGlyphs" textLength="82" x="1295" y="304.1997">[if in kitchen]</text><!--MD5=[bc13a91bbf65955cc7046406c2a0538e]
reverse link Feed to Fridge--><path d="M1163.13,249.32 C1158.03,266.37 1153.98,291.56 1167,308 C1176.64,320.17 1187.64,308.1 1201,316 C1219.2,326.76 1234.57,346.14 1243.54,359.16 " fill="none" id="Feed&lt;-Fridge" style="stroke: #A80036; stroke-width: 1.0; stroke-dasharray: 7.0,7.0;"/><polygon fill="#A80036" points="1164.73,244.31,1158.1749,251.6606,1163.2046,249.0716,1165.7935,254.1013,1164.73,244.31" style="stroke: #A80036; stroke-width: 1.0;"/><text fill="#000000" font-family="sans-serif" font-size="13" lengthAdjust="spacingAndGlyphs" textLength="60" x="1179" y="289.0669">«extend»</text><text fill="#000000" font-family="sans-serif" font-size="13" lengthAdjust="spacingAndGlyphs" textLength="82" x="1168" y="304.1997">[if in kitchen]</text><!--MD5=[e4db03ac82b1fc62bb8c48bf98dc007d]
reverse link MiniGame to Sport--><path d="M907,619.31 C907,644.44 907,688.4 907,710.69 " fill="none" id="MiniGame&lt;-Sport" style="stroke: #A80036; stroke-width: 1.0; stroke-dasharray: 7.0,7.0;"/><polygon fill="#A80036" points="907,614.24,903,623.24,907,619.24,911,623.24,907,614.24" style="stroke: #A80036; stroke-width: 1.0;"/><text fill="#000000" font-family="sans-serif" font-size="13" lengthAdjust="spacingAndGlyphs" textLength="60" x="912" y="660.0669">«extend»</text><text fill="#000000" font-family="sans-serif" font-size="13" lengthAdjust="spacingAndGlyphs" textLength="68" x="908" y="675.1997">[if outside]</text><!--MD5=[8f8fca6b8a4556f33eb543141ed5774f]
link Interact with Pet to On State Change--><path d="M936.35,503.54 C976.79,523.58 1049.56,559.63 1092.85,581.09 " fill="none" id="Interact with Pet-&gt;On State Change" style="stroke: #A80036; stroke-width: 1.0; stroke-dasharray: 7.0,7.0;"/><polygon fill="#A80036" points="1097.47,583.37,1091.1703,575.7995,1092.9865,581.1568,1087.6291,582.9731,1097.47,583.37" style="stroke: #A80036; stroke-width: 1.0;"/><text fill="#000000" font-family="sans-serif" font-size="13" lengthAdjust="spacingAndGlyphs" textLength="61" x="1031" y="548.0669">«include»</text><!--MD5=[be25795ad559a3a156e162261386f735]
link Interact with Pet to MiniGame--><path d="M907,505.16 C907,525.01 907,558.64 907,579.65 " fill="none" id="Interact with Pet-&gt;MiniGame" style="stroke: #A80036; stroke-width: 1.0; stroke-dasharray: 7.0,7.0;"/><polygon fill="#A80036" points="907,584.7,911,575.7,907,579.7,903,575.7,907,584.7" style="stroke: #A80036; stroke-width: 1.0;"/><text fill="#000000" font-family="sans-serif" font-size="13" lengthAdjust="spacingAndGlyphs" textLength="60" x="908" y="548.0669">«extend»</text><!--MD5=[1f7ce2bce05c16c8df7b69f2e054f458]
link p to Edit Options--><path d="M892.53,50.37 C991.47,54.76 1415.83,76 1454,119 C1509.76,181.82 1513.04,248.24 1454,308 C1441.13,321.02 812.7,311.31 795,316 C764.98,323.95 734.31,342.66 714.55,356.38 " fill="none" id="p-&gt;Edit Options" style="stroke: #A80036; stroke-width: 1.0;"/><polygon fill="#A80036" points="710.26,359.4,719.9189,357.4751,714.344,356.5155,715.3037,350.9406,710.26,359.4" style="stroke: #A80036; stroke-width: 1.0;"/><!--MD5=[4b204f1e9d8faece36acbd985446a871]
link p to On Start App--><path d="M851.23,60.73 C793.98,91.68 633.8,178.29 568.38,213.66 " fill="none" id="p-&gt;On Start App" style="stroke: #A80036; stroke-width: 1.0;"/><polygon fill="#A80036" points="563.83,216.11,573.6504,215.3612,568.2314,213.7378,569.8548,208.3189,563.83,216.11" style="stroke: #A80036; stroke-width: 1.0;"/><!--MD5=[56e1e0091f7a70d7727582fce96dc7fe]
link p to Login Online--><path d="M851.16,50.34 C731.13,55.33 131.1,82.4 64,128 C21.19,157.09 6,177.24 6,229 C6,229 6,229 6,489 C6,570.48 117.58,592.05 192.84,597.34 " fill="none" id="p-&gt;Login Online" style="stroke: #A80036; stroke-width: 1.0;"/><polygon fill="#A80036" points="198.19,597.69,189.4725,593.1068,193.2008,597.3612,188.9464,601.0895,198.19,597.69" style="stroke: #A80036; stroke-width: 1.0;"/><!--MD5=[920f9eaeaa50050ca181d1a13317b404]
link p to New Game--><path d="M892.76,49.21 C981.49,48.47 1327.41,50.65 1394,128 C1446.19,188.63 1450.28,251.14 1394,308 C1378.76,323.4 634.49,308.95 614,316 C591.09,323.88 569.63,341.9 555.79,355.49 " fill="none" id="p-&gt;New Game" style="stroke: #A80036; stroke-width: 1.0;"/><polygon fill="#A80036" points="552.09,359.19,561.2752,355.6359,555.6184,355.6473,555.607,349.9905,552.09,359.19" style="stroke: #A80036; stroke-width: 1.0;"/><!--MD5=[95c47b7a60d8eb3a66b0bb87ece1eeaa]
link p to Load--><path d="M851.13,50 C734.94,53.01 171.22,70.53 123,128 C32.86,235.44 69.03,336.89 163,441 C179.84,459.66 205.99,471.77 225.94,478.85 " fill="none" id="p-&gt;Load" style="stroke: #A80036; stroke-width: 1.0;"/><polygon fill="#A80036" points="230.87,480.55,223.6631,473.8373,226.1425,478.9218,221.058,481.4012,230.87,480.55" style="stroke: #A80036; stroke-width: 1.0;"/><!--MD5=[c6d855ff307eccfe2f775fd48febc938]
link p to Change Room--><path d="M892.67,69.38 C908.67,84.99 931.2,107.44 950,128 C975.38,155.74 1003.14,189.41 1019.8,210.01 " fill="none" id="p-&gt;Change Room" style="stroke: #A80036; stroke-width: 1.0;"/><polygon fill="#A80036" points="1022.99,213.95,1020.4573,204.4324,1019.8526,210.0568,1014.2282,209.4522,1022.99,213.95" style="stroke: #A80036; stroke-width: 1.0;"/><!--MD5=[4401873a5c26ec071943d55d346dd9a7]
link p to Feed--><path d="M892.57,50.69 C938.64,54.36 1051.43,69.2 1120,128 C1145.55,149.91 1159.33,187.97 1165.63,210.59 " fill="none" id="p-&gt;Feed" style="stroke: #A80036; stroke-width: 1.0;"/><polygon fill="#A80036" points="1166.94,215.44,1168.4896,205.7138,1165.6535,210.6084,1160.7589,207.7723,1166.94,215.44" style="stroke: #A80036; stroke-width: 1.0;"/><!--MD5=[388975523b7d5f1d4e95b1c5a6bec318]
link p to Interact with Pet--><path d="M851.42,50.2 C740.46,54.19 216.75,75.73 170,128 C91.19,216.12 155.26,276.7 170,394 C172.69,415.39 165.32,427.35 182,441 C232.71,482.5 705.7,465.5 771,471 C793.8,472.92 818.67,475.66 840.84,478.33 " fill="none" id="p-&gt;Interact with Pet" style="stroke: #A80036; stroke-width: 1.0;"/><polygon fill="#A80036" points="845.82,478.93,837.3659,473.8775,840.8562,478.3292,836.4046,481.8196,845.82,478.93" style="stroke: #A80036; stroke-width: 1.0;"/><!--MD5=[6e5ca8de1f035551afcf0c04ab86ecd3]
link p to Open Menu--><path d="M872,89.34 C872,126.91 872,181.59 872,210.1 " fill="none" id="p-&gt;Open Menu" style="stroke: #A80036; stroke-width: 1.0;"/><polygon fill="#A80036" points="872,215.44,876,206.44,872,210.44,868,206.44,872,215.44" style="stroke: #A80036; stroke-width: 1.0;"/><!--MD5=[ef9ef94b1931240655207852091fd3c7]
@startuml

:Player: as p

rectangle Tamagotchi {

    (On Start App)
    
    package Menu {
        
        (Login Online) ..> (Authentification) : <<include>>
        (New Game) ..> (Choose Pet) : <<include>>
        (Load) ..> (Start Game) : <<include>>
        (Load) <.. (Login Online) : <<extend>> [if auth]
        (On Start App) <.. (Load) : <<extend>> [if load file]
        (On Start App) <.. (New Game) : <<extend>> [if no load file]
        (Choose Pet) <.. (Customize Pet) : <<extend>> [if player want]
        (Choose Pet) ..> (Start Game) : <<include>>
        (Edit Options)
        
    }

    package Game {
        (Open Menu)
        (Change Room) ..> (Change player location) : <<include>>
        (Change Room) ..> (Load environment) : <<include>>
        (On State Change) ..> (Save) : <<include>>
        (Give) ..> (On State Change) : <<include>>
        (Cook) ..> (Give) : <<include>>
        (Fridge) ..> (Give) : <<include>>
        (Feed) <.. (Cook) : <<extend>>\n[if in kitchen]
        (Feed) <.. (Fridge) : <<extend>>\n[if in kitchen]
        (MiniGame) <.. (Sport) : <<extend>>\n[if outside]
        (Interact with Pet) ..> (On State Change) : <<include>>
        (Interact with Pet) ..> (MiniGame) : <<extend>>
    }
    
    p - -> (Edit Options)
    p - -> (On Start App)
    p - -> (Login Online)
    p - -> (New Game)
    p - -> (Load)
    p - -> (Change Room)
    p - -> (Feed)
    p - -> (Interact with Pet)
    p - -> (Open Menu)
}

@enduml

PlantUML version 1.2020.02(Sun Mar 01 11:22:07 CET 2020)
(GPL source distribution)
Java Runtime: OpenJDK Runtime Environment
JVM: OpenJDK 64-Bit Server VM
Java Version: 17.0.4+8-Debian-1
Operating System: Linux
Default Encoding: UTF-8
Language: fr
Country: FR
--></g></svg>