<?xml version="1.0" encoding="UTF-8" standalone="no"?><svg xmlns="http://www.w3.org/2000/svg" xmlns:xlink="http://www.w3.org/1999/xlink" contentScriptType="application/ecmascript" contentStyleType="text/css" height="707px" preserveAspectRatio="none" style="width:1654px;height:707px;" version="1.1" viewBox="0 0 1654 707" width="1654px" zoomAndPan="magnify"><defs><filter height="300%" id="f932p7k2fwc4p" width="300%" x="-1" y="-1"><feGaussianBlur result="blurOut" stdDeviation="2.0"/><feColorMatrix in="blurOut" result="blurOut2" type="matrix" values="0 0 0 0 0 0 0 0 0 0 0 0 0 0 0 0 0 0 .4 0"/><feOffset dx="4.0" dy="4.0" in="blurOut2" result="blurOut3"/><feBlend in="SourceGraphic" in2="blurOut3" mode="normal"/></filter></defs><g><!--MD5=[5d4cd377749310b66bf14896f5cd8d9b]
cluster model--><polygon fill="#FFFFFF" filter="url(#f932p7k2fwc4p)" points="370,24,424,24,431,46.2969,818,46.2969,818,552,370,552,370,24" style="stroke: #000000; stroke-width: 1.5;"/><line style="stroke: #000000; stroke-width: 1.5;" x1="370" x2="431" y1="46.2969" y2="46.2969"/><text fill="#000000" font-family="sans-serif" font-size="14" font-weight="bold" lengthAdjust="spacingAndGlyphs" textLength="48" x="374" y="38.9951">model</text><!--MD5=[86cbce8df1eb9d604fbbb2fa357940f8]
cluster view--><polygon fill="#FFFFFF" filter="url(#f932p7k2fwc4p)" points="842,53.5,885,53.5,892,75.7969,1632,75.7969,1632,552,842,552,842,53.5" style="stroke: #000000; stroke-width: 1.5;"/><line style="stroke: #000000; stroke-width: 1.5;" x1="842" x2="892" y1="75.7969" y2="75.7969"/><text fill="#000000" font-family="sans-serif" font-size="14" font-weight="bold" lengthAdjust="spacingAndGlyphs" textLength="37" x="846" y="68.4951">view</text><!--MD5=[1f2cfc53d9d308f53762fd0fcbaa4873]
cluster Controller--><polygon fill="#FFFFFF" filter="url(#f932p7k2fwc4p)" points="22,194,107,194,114,216.2969,346,216.2969,346,695,22,695,22,194" style="stroke: #000000; stroke-width: 1.5;"/><line style="stroke: #000000; stroke-width: 1.5;" x1="22" x2="114" y1="216.2969" y2="216.2969"/><text fill="#000000" font-family="sans-serif" font-size="14" font-weight="bold" lengthAdjust="spacingAndGlyphs" textLength="79" x="26" y="208.9951">Controller</text><!--MD5=[ce588b4fa91533db47d899c6e7055886]
class ModelRoom--><rect fill="#FEFECE" filter="url(#f932p7k2fwc4p)" height="32" id="ModelRoom" style="stroke: #A80036; stroke-width: 1.5;" width="104" x="386" y="239.5"/><ellipse cx="401" cy="255.5" fill="#ADD1B2" rx="11" ry="11" style="stroke: #A80036; stroke-width: 1.0;"/><path d="M403.9688,261.1406 Q403.3906,261.4375 402.75,261.5781 Q402.1094,261.7344 401.4063,261.7344 Q398.9063,261.7344 397.5781,260.0938 Q396.2656,258.4375 396.2656,255.3125 Q396.2656,252.1875 397.5781,250.5313 Q398.9063,248.875 401.4063,248.875 Q402.1094,248.875 402.75,249.0313 Q403.4063,249.1875 403.9688,249.4844 L403.9688,252.2031 Q403.3438,251.625 402.75,251.3594 Q402.1563,251.0781 401.5313,251.0781 Q400.1875,251.0781 399.5,252.1563 Q398.8125,253.2188 398.8125,255.3125 Q398.8125,257.4063 399.5,258.4844 Q400.1875,259.5469 401.5313,259.5469 Q402.1563,259.5469 402.75,259.2813 Q403.3438,259 403.9688,258.4219 L403.9688,261.1406 Z "/><text fill="#000000" font-family="sans-serif" font-size="12" lengthAdjust="spacingAndGlyphs" textLength="72" x="415" y="259.6543">ModelRoom</text><!--MD5=[5ef06c8862a4439f35d8b1de5f55aae6]
class ModelGame--><rect fill="#FEFECE" filter="url(#f932p7k2fwc4p)" height="32" id="ModelGame" style="stroke: #A80036; stroke-width: 1.5;" width="105" x="550.5" y="88.5"/><ellipse cx="565.5" cy="104.5" fill="#ADD1B2" rx="11" ry="11" style="stroke: #A80036; stroke-width: 1.0;"/><path d="M568.4688,110.1406 Q567.8906,110.4375 567.25,110.5781 Q566.6094,110.7344 565.9063,110.7344 Q563.4063,110.7344 562.0781,109.0938 Q560.7656,107.4375 560.7656,104.3125 Q560.7656,101.1875 562.0781,99.5313 Q563.4063,97.875 565.9063,97.875 Q566.6094,97.875 567.25,98.0313 Q567.9063,98.1875 568.4688,98.4844 L568.4688,101.2031 Q567.8438,100.625 567.25,100.3594 Q566.6563,100.0781 566.0313,100.0781 Q564.6875,100.0781 564,101.1563 Q563.3125,102.2188 563.3125,104.3125 Q563.3125,106.4063 564,107.4844 Q564.6875,108.5469 566.0313,108.5469 Q566.6563,108.5469 567.25,108.2813 Q567.8438,108 568.4688,107.4219 L568.4688,110.1406 Z "/><text fill="#000000" font-family="sans-serif" font-size="12" lengthAdjust="spacingAndGlyphs" textLength="73" x="579.5" y="108.6543">ModelGame</text><!--MD5=[93eb20994f674771d0d73131508a8777]
class ModelStat--><rect fill="#FEFECE" filter="url(#f932p7k2fwc4p)" height="32" id="ModelStat" style="stroke: #A80036; stroke-width: 1.5;" width="95" x="658.5" y="504"/><ellipse cx="673.5" cy="520" fill="#ADD1B2" rx="11" ry="11" style="stroke: #A80036; stroke-width: 1.0;"/><path d="M676.4688,525.6406 Q675.8906,525.9375 675.25,526.0781 Q674.6094,526.2344 673.9063,526.2344 Q671.4063,526.2344 670.0781,524.5938 Q668.7656,522.9375 668.7656,519.8125 Q668.7656,516.6875 670.0781,515.0313 Q671.4063,513.375 673.9063,513.375 Q674.6094,513.375 675.25,513.5313 Q675.9063,513.6875 676.4688,513.9844 L676.4688,516.7031 Q675.8438,516.125 675.25,515.8594 Q674.6563,515.5781 674.0313,515.5781 Q672.6875,515.5781 672,516.6563 Q671.3125,517.7188 671.3125,519.8125 Q671.3125,521.9063 672,522.9844 Q672.6875,524.0469 674.0313,524.0469 Q674.6563,524.0469 675.25,523.7813 Q675.8438,523.5 676.4688,522.9219 L676.4688,525.6406 Z "/><text fill="#000000" font-family="sans-serif" font-size="12" lengthAdjust="spacingAndGlyphs" textLength="63" x="687.5" y="524.1543">ModelStat</text><!--MD5=[9a411119b15aaa1f323289dd6a5d4481]
class ModelOption--><rect fill="#FEFECE" filter="url(#f932p7k2fwc4p)" height="91.2188" id="ModelOption" style="stroke: #A80036; stroke-width: 1.5;" width="121" x="390.5" y="59"/><ellipse cx="410.45" cy="75" fill="#ADD1B2" rx="11" ry="11" style="stroke: #A80036; stroke-width: 1.0;"/><path d="M413.4188,80.6406 Q412.8406,80.9375 412.2,81.0781 Q411.5594,81.2344 410.8563,81.2344 Q408.3563,81.2344 407.0281,79.5938 Q405.7156,77.9375 405.7156,74.8125 Q405.7156,71.6875 407.0281,70.0313 Q408.3563,68.375 410.8563,68.375 Q411.5594,68.375 412.2,68.5313 Q412.8563,68.6875 413.4188,68.9844 L413.4188,71.7031 Q412.7938,71.125 412.2,70.8594 Q411.6063,70.5781 410.9813,70.5781 Q409.6375,70.5781 408.95,71.6563 Q408.2625,72.7188 408.2625,74.8125 Q408.2625,76.9063 408.95,77.9844 Q409.6375,79.0469 410.9813,79.0469 Q411.6063,79.0469 412.2,78.7813 Q412.7938,78.5 413.4188,77.9219 L413.4188,80.6406 Z "/><text fill="#000000" font-family="sans-serif" font-size="12" lengthAdjust="spacingAndGlyphs" textLength="78" x="425.55" y="79.1543">ModelOption</text><line style="stroke: #A80036; stroke-width: 1.5;" x1="391.5" x2="510.5" y1="91" y2="91"/><rect fill="none" height="6" style="stroke: #C82930; stroke-width: 1.0;" width="6" x="398.5" y="99"/><text fill="#000000" font-family="sans-serif" font-size="11" lengthAdjust="spacingAndGlyphs" textLength="95" x="410.5" y="105.2104">language : string</text><rect fill="none" height="6" style="stroke: #C82930; stroke-width: 1.0;" width="6" x="398.5" y="111.8047"/><text fill="#000000" font-family="sans-serif" font-size="11" lengthAdjust="spacingAndGlyphs" textLength="89" x="410.5" y="118.0151">volume : double</text><rect fill="none" height="6" style="stroke: #C82930; stroke-width: 1.0;" width="6" x="398.5" y="124.6094"/><text fill="#000000" font-family="sans-serif" font-size="11" lengthAdjust="spacingAndGlyphs" textLength="79" x="410.5" y="130.8198">h_window : int</text><rect fill="none" height="6" style="stroke: #C82930; stroke-width: 1.0;" width="6" x="398.5" y="137.4141"/><text fill="#000000" font-family="sans-serif" font-size="11" lengthAdjust="spacingAndGlyphs" textLength="81" x="410.5" y="143.6245">w_window : int</text><!--MD5=[6764910fd196d746cd856a2d80e11db7]
class ModelSave--><rect fill="#FEFECE" filter="url(#f932p7k2fwc4p)" height="91.2188" id="ModelSave" style="stroke: #A80036; stroke-width: 1.5;" width="156" x="525" y="210"/><ellipse cx="565.65" cy="226" fill="#ADD1B2" rx="11" ry="11" style="stroke: #A80036; stroke-width: 1.0;"/><path d="M568.6188,231.6406 Q568.0406,231.9375 567.4,232.0781 Q566.7594,232.2344 566.0563,232.2344 Q563.5563,232.2344 562.2281,230.5938 Q560.9156,228.9375 560.9156,225.8125 Q560.9156,222.6875 562.2281,221.0313 Q563.5563,219.375 566.0563,219.375 Q566.7594,219.375 567.4,219.5313 Q568.0563,219.6875 568.6188,219.9844 L568.6188,222.7031 Q567.9938,222.125 567.4,221.8594 Q566.8063,221.5781 566.1813,221.5781 Q564.8375,221.5781 564.15,222.6563 Q563.4625,223.7188 563.4625,225.8125 Q563.4625,227.9063 564.15,228.9844 Q564.8375,230.0469 566.1813,230.0469 Q566.8063,230.0469 567.4,229.7813 Q567.9938,229.5 568.6188,228.9219 L568.6188,231.6406 Z "/><text fill="#000000" font-family="sans-serif" font-size="12" lengthAdjust="spacingAndGlyphs" textLength="67" x="585.35" y="230.1543">ModelSave</text><line style="stroke: #A80036; stroke-width: 1.5;" x1="526" x2="680" y1="242" y2="242"/><rect fill="none" height="6" style="stroke: #C82930; stroke-width: 1.0;" width="6" x="533" y="250"/><text fill="#000000" font-family="sans-serif" font-size="11" lengthAdjust="spacingAndGlyphs" textLength="123" x="545" y="256.2104">info_pet : list&lt;string&gt;</text><rect fill="none" height="6" style="stroke: #C82930; stroke-width: 1.0;" width="6" x="533" y="262.8047"/><text fill="#000000" font-family="sans-serif" font-size="11" lengthAdjust="spacingAndGlyphs" textLength="123" x="545" y="269.0151">info_opt : list&lt;string&gt;</text><rect fill="none" height="6" style="stroke: #C82930; stroke-width: 1.0;" width="6" x="533" y="275.6094"/><text fill="#000000" font-family="sans-serif" font-size="11" lengthAdjust="spacingAndGlyphs" textLength="130" x="545" y="281.8198">info_gme : list&lt;string&gt;</text><rect fill="none" height="6" style="stroke: #C82930; stroke-width: 1.0;" width="6" x="533" y="288.4141"/><text fill="#000000" font-family="sans-serif" font-size="11" lengthAdjust="spacingAndGlyphs" textLength="124" x="545" y="294.6245">info_usr : list&lt;string&gt;</text><!--MD5=[42b6c9b95235c21ed83560c01266501d]
class ModelPet--><rect fill="#FEFECE" filter="url(#f932p7k2fwc4p)" height="32" id="ModelPet" style="stroke: #A80036; stroke-width: 1.5;" width="86" x="716" y="239.5"/><ellipse cx="731" cy="255.5" fill="#B4A7E5" rx="11" ry="11" style="stroke: #A80036; stroke-width: 1.0;"/><path d="M726.9219,251.2656 L726.9219,249.1094 L734.3125,249.1094 L734.3125,251.2656 L731.8438,251.2656 L731.8438,259.3438 L734.3125,259.3438 L734.3125,261.5 L726.9219,261.5 L726.9219,259.3438 L729.3906,259.3438 L729.3906,251.2656 L726.9219,251.2656 Z "/><text fill="#000000" font-family="sans-serif" font-size="12" font-style="italic" lengthAdjust="spacingAndGlyphs" textLength="54" x="745" y="259.6543">ModelPet</text><!--MD5=[60fb4f72b7635aa97affd2efc062a79f]
class Robot--><rect fill="#FEFECE" filter="url(#f932p7k2fwc4p)" height="32" id="Robot" style="stroke: #A80036; stroke-width: 1.5;" width="69" x="621.5" y="378"/><ellipse cx="636.5" cy="394" fill="#ADD1B2" rx="11" ry="11" style="stroke: #A80036; stroke-width: 1.0;"/><path d="M639.4688,399.6406 Q638.8906,399.9375 638.25,400.0781 Q637.6094,400.2344 636.9063,400.2344 Q634.4063,400.2344 633.0781,398.5938 Q631.7656,396.9375 631.7656,393.8125 Q631.7656,390.6875 633.0781,389.0313 Q634.4063,387.375 636.9063,387.375 Q637.6094,387.375 638.25,387.5313 Q638.9063,387.6875 639.4688,387.9844 L639.4688,390.7031 Q638.8438,390.125 638.25,389.8594 Q637.6563,389.5781 637.0313,389.5781 Q635.6875,389.5781 635,390.6563 Q634.3125,391.7188 634.3125,393.8125 Q634.3125,395.9063 635,396.9844 Q635.6875,398.0469 637.0313,398.0469 Q637.6563,398.0469 638.25,397.7813 Q638.8438,397.5 639.4688,396.9219 L639.4688,399.6406 Z "/><text fill="#000000" font-family="sans-serif" font-size="12" lengthAdjust="spacingAndGlyphs" textLength="37" x="650.5" y="398.1543">Robot</text><!--MD5=[7fd4401f5c5cb0e3d029c879cad30c04]
class Animal--><rect fill="#FEFECE" filter="url(#f932p7k2fwc4p)" height="32" id="Animal" style="stroke: #A80036; stroke-width: 1.5;" width="73" x="725.5" y="378"/><ellipse cx="740.5" cy="394" fill="#ADD1B2" rx="11" ry="11" style="stroke: #A80036; stroke-width: 1.0;"/><path d="M743.4688,399.6406 Q742.8906,399.9375 742.25,400.0781 Q741.6094,400.2344 740.9063,400.2344 Q738.4063,400.2344 737.0781,398.5938 Q735.7656,396.9375 735.7656,393.8125 Q735.7656,390.6875 737.0781,389.0313 Q738.4063,387.375 740.9063,387.375 Q741.6094,387.375 742.25,387.5313 Q742.9063,387.6875 743.4688,387.9844 L743.4688,390.7031 Q742.8438,390.125 742.25,389.8594 Q741.6563,389.5781 741.0313,389.5781 Q739.6875,389.5781 739,390.6563 Q738.3125,391.7188 738.3125,393.8125 Q738.3125,395.9063 739,396.9844 Q739.6875,398.0469 741.0313,398.0469 Q741.6563,398.0469 742.25,397.7813 Q742.8438,397.5 743.4688,396.9219 L743.4688,399.6406 Z "/><text fill="#000000" font-family="sans-serif" font-size="12" lengthAdjust="spacingAndGlyphs" textLength="41" x="754.5" y="398.1543">Animal</text><!--MD5=[2369c9863c53bf1001e6873222dfb3fe]
class ViewMain--><rect fill="#FEFECE" filter="url(#f932p7k2fwc4p)" height="32" id="ViewMain" style="stroke: #A80036; stroke-width: 1.5;" width="89" x="1212.5" y="88.5"/><ellipse cx="1227.5" cy="104.5" fill="#ADD1B2" rx="11" ry="11" style="stroke: #A80036; stroke-width: 1.0;"/><path d="M1230.4688,110.1406 Q1229.8906,110.4375 1229.25,110.5781 Q1228.6094,110.7344 1227.9063,110.7344 Q1225.4063,110.7344 1224.0781,109.0938 Q1222.7656,107.4375 1222.7656,104.3125 Q1222.7656,101.1875 1224.0781,99.5313 Q1225.4063,97.875 1227.9063,97.875 Q1228.6094,97.875 1229.25,98.0313 Q1229.9063,98.1875 1230.4688,98.4844 L1230.4688,101.2031 Q1229.8438,100.625 1229.25,100.3594 Q1228.6563,100.0781 1228.0313,100.0781 Q1226.6875,100.0781 1226,101.1563 Q1225.3125,102.2188 1225.3125,104.3125 Q1225.3125,106.4063 1226,107.4844 Q1226.6875,108.5469 1228.0313,108.5469 Q1228.6563,108.5469 1229.25,108.2813 Q1229.8438,108 1230.4688,107.4219 L1230.4688,110.1406 Z "/><text fill="#000000" font-family="sans-serif" font-size="12" lengthAdjust="spacingAndGlyphs" textLength="57" x="1241.5" y="108.6543">ViewMain</text><!--MD5=[66004aa1b2b41dfc3553a089f11ca636]
class ViewPet--><rect fill="#FEFECE" filter="url(#f932p7k2fwc4p)" height="32" id="ViewPet" style="stroke: #A80036; stroke-width: 1.5;" width="81" x="1282.5" y="378"/><ellipse cx="1297.5" cy="394" fill="#ADD1B2" rx="11" ry="11" style="stroke: #A80036; stroke-width: 1.0;"/><path d="M1300.4688,399.6406 Q1299.8906,399.9375 1299.25,400.0781 Q1298.6094,400.2344 1297.9063,400.2344 Q1295.4063,400.2344 1294.0781,398.5938 Q1292.7656,396.9375 1292.7656,393.8125 Q1292.7656,390.6875 1294.0781,389.0313 Q1295.4063,387.375 1297.9063,387.375 Q1298.6094,387.375 1299.25,387.5313 Q1299.9063,387.6875 1300.4688,387.9844 L1300.4688,390.7031 Q1299.8438,390.125 1299.25,389.8594 Q1298.6563,389.5781 1298.0313,389.5781 Q1296.6875,389.5781 1296,390.6563 Q1295.3125,391.7188 1295.3125,393.8125 Q1295.3125,395.9063 1296,396.9844 Q1296.6875,398.0469 1298.0313,398.0469 Q1298.6563,398.0469 1299.25,397.7813 Q1299.8438,397.5 1300.4688,396.9219 L1300.4688,399.6406 Z "/><text fill="#000000" font-family="sans-serif" font-size="12" lengthAdjust="spacingAndGlyphs" textLength="49" x="1311.5" y="398.1543">ViewPet</text><!--MD5=[27e4653765d9e56603ae0db51ef372f2]
class ViewRoom--><rect fill="#FEFECE" filter="url(#f932p7k2fwc4p)" height="32" id="ViewRoom" style="stroke: #A80036; stroke-width: 1.5;" width="95" x="1398.5" y="378"/><ellipse cx="1413.5" cy="394" fill="#ADD1B2" rx="11" ry="11" style="stroke: #A80036; stroke-width: 1.0;"/><path d="M1416.4688,399.6406 Q1415.8906,399.9375 1415.25,400.0781 Q1414.6094,400.2344 1413.9063,400.2344 Q1411.4063,400.2344 1410.0781,398.5938 Q1408.7656,396.9375 1408.7656,393.8125 Q1408.7656,390.6875 1410.0781,389.0313 Q1411.4063,387.375 1413.9063,387.375 Q1414.6094,387.375 1415.25,387.5313 Q1415.9063,387.6875 1416.4688,387.9844 L1416.4688,390.7031 Q1415.8438,390.125 1415.25,389.8594 Q1414.6563,389.5781 1414.0313,389.5781 Q1412.6875,389.5781 1412,390.6563 Q1411.3125,391.7188 1411.3125,393.8125 Q1411.3125,395.9063 1412,396.9844 Q1412.6875,398.0469 1414.0313,398.0469 Q1414.6563,398.0469 1415.25,397.7813 Q1415.8438,397.5 1416.4688,396.9219 L1416.4688,399.6406 Z "/><text fill="#000000" font-family="sans-serif" font-size="12" lengthAdjust="spacingAndGlyphs" textLength="63" x="1427.5" y="398.1543">ViewRoom</text><!--MD5=[fe60a39180a13549a61d1a377547b35e]
class ViewStat--><rect fill="#FEFECE" filter="url(#f932p7k2fwc4p)" height="32" id="ViewStat" style="stroke: #A80036; stroke-width: 1.5;" width="86" x="1395" y="504"/><ellipse cx="1410" cy="520" fill="#ADD1B2" rx="11" ry="11" style="stroke: #A80036; stroke-width: 1.0;"/><path d="M1412.9688,525.6406 Q1412.3906,525.9375 1411.75,526.0781 Q1411.1094,526.2344 1410.4063,526.2344 Q1407.9063,526.2344 1406.5781,524.5938 Q1405.2656,522.9375 1405.2656,519.8125 Q1405.2656,516.6875 1406.5781,515.0313 Q1407.9063,513.375 1410.4063,513.375 Q1411.1094,513.375 1411.75,513.5313 Q1412.4063,513.6875 1412.9688,513.9844 L1412.9688,516.7031 Q1412.3438,516.125 1411.75,515.8594 Q1411.1563,515.5781 1410.5313,515.5781 Q1409.1875,515.5781 1408.5,516.6563 Q1407.8125,517.7188 1407.8125,519.8125 Q1407.8125,521.9063 1408.5,522.9844 Q1409.1875,524.0469 1410.5313,524.0469 Q1411.1563,524.0469 1411.75,523.7813 Q1412.3438,523.5 1412.9688,522.9219 L1412.9688,525.6406 Z "/><text fill="#000000" font-family="sans-serif" font-size="12" lengthAdjust="spacingAndGlyphs" textLength="54" x="1424" y="524.1543">ViewStat</text><!--MD5=[9e3e829b1d67d6c705c38104337e7cce]
class ViewMenu--><rect fill="#FEFECE" filter="url(#f932p7k2fwc4p)" height="32" id="ViewMenu" style="stroke: #A80036; stroke-width: 1.5;" width="94" x="1084" y="239.5"/><ellipse cx="1099" cy="255.5" fill="#ADD1B2" rx="11" ry="11" style="stroke: #A80036; stroke-width: 1.0;"/><path d="M1101.9688,261.1406 Q1101.3906,261.4375 1100.75,261.5781 Q1100.1094,261.7344 1099.4063,261.7344 Q1096.9063,261.7344 1095.5781,260.0938 Q1094.2656,258.4375 1094.2656,255.3125 Q1094.2656,252.1875 1095.5781,250.5313 Q1096.9063,248.875 1099.4063,248.875 Q1100.1094,248.875 1100.75,249.0313 Q1101.4063,249.1875 1101.9688,249.4844 L1101.9688,252.2031 Q1101.3438,251.625 1100.75,251.3594 Q1100.1563,251.0781 1099.5313,251.0781 Q1098.1875,251.0781 1097.5,252.1563 Q1096.8125,253.2188 1096.8125,255.3125 Q1096.8125,257.4063 1097.5,258.4844 Q1098.1875,259.5469 1099.5313,259.5469 Q1100.1563,259.5469 1100.75,259.2813 Q1101.3438,259 1101.9688,258.4219 L1101.9688,261.1406 Z "/><text fill="#000000" font-family="sans-serif" font-size="12" lengthAdjust="spacingAndGlyphs" textLength="62" x="1113" y="259.6543">ViewMenu</text><!--MD5=[bb8139252ab9d60963f0ad3aa85822d8]
class ViewCustomPet--><rect fill="#FEFECE" filter="url(#f932p7k2fwc4p)" height="32" id="ViewCustomPet" style="stroke: #A80036; stroke-width: 1.5;" width="128" x="858" y="378"/><ellipse cx="873" cy="394" fill="#ADD1B2" rx="11" ry="11" style="stroke: #A80036; stroke-width: 1.0;"/><path d="M875.9688,399.6406 Q875.3906,399.9375 874.75,400.0781 Q874.1094,400.2344 873.4063,400.2344 Q870.9063,400.2344 869.5781,398.5938 Q868.2656,396.9375 868.2656,393.8125 Q868.2656,390.6875 869.5781,389.0313 Q870.9063,387.375 873.4063,387.375 Q874.1094,387.375 874.75,387.5313 Q875.4063,387.6875 875.9688,387.9844 L875.9688,390.7031 Q875.3438,390.125 874.75,389.8594 Q874.1563,389.5781 873.5313,389.5781 Q872.1875,389.5781 871.5,390.6563 Q870.8125,391.7188 870.8125,393.8125 Q870.8125,395.9063 871.5,396.9844 Q872.1875,398.0469 873.5313,398.0469 Q874.1563,398.0469 874.75,397.7813 Q875.3438,397.5 875.9688,396.9219 L875.9688,399.6406 Z "/><text fill="#000000" font-family="sans-serif" font-size="12" lengthAdjust="spacingAndGlyphs" textLength="96" x="887" y="398.1543">ViewCustomPet</text><!--MD5=[d18d64f195106826546ed42fd601b6d0]
class ViewLoad--><rect fill="#FEFECE" filter="url(#f932p7k2fwc4p)" height="32" id="ViewLoad" style="stroke: #A80036; stroke-width: 1.5;" width="90" x="1021" y="378"/><ellipse cx="1036" cy="394" fill="#ADD1B2" rx="11" ry="11" style="stroke: #A80036; stroke-width: 1.0;"/><path d="M1038.9688,399.6406 Q1038.3906,399.9375 1037.75,400.0781 Q1037.1094,400.2344 1036.4063,400.2344 Q1033.9063,400.2344 1032.5781,398.5938 Q1031.2656,396.9375 1031.2656,393.8125 Q1031.2656,390.6875 1032.5781,389.0313 Q1033.9063,387.375 1036.4063,387.375 Q1037.1094,387.375 1037.75,387.5313 Q1038.4063,387.6875 1038.9688,387.9844 L1038.9688,390.7031 Q1038.3438,390.125 1037.75,389.8594 Q1037.1563,389.5781 1036.5313,389.5781 Q1035.1875,389.5781 1034.5,390.6563 Q1033.8125,391.7188 1033.8125,393.8125 Q1033.8125,395.9063 1034.5,396.9844 Q1035.1875,398.0469 1036.5313,398.0469 Q1037.1563,398.0469 1037.75,397.7813 Q1038.3438,397.5 1038.9688,396.9219 L1038.9688,399.6406 Z "/><text fill="#000000" font-family="sans-serif" font-size="12" lengthAdjust="spacingAndGlyphs" textLength="58" x="1050" y="398.1543">ViewLoad</text><!--MD5=[363299a84393b04db7416c04d3062cf1]
class ViewAction--><rect fill="#FEFECE" filter="url(#f932p7k2fwc4p)" height="32" id="ViewAction" style="stroke: #A80036; stroke-width: 1.5;" width="99" x="1516.5" y="504"/><ellipse cx="1531.5" cy="520" fill="#ADD1B2" rx="11" ry="11" style="stroke: #A80036; stroke-width: 1.0;"/><path d="M1534.4688,525.6406 Q1533.8906,525.9375 1533.25,526.0781 Q1532.6094,526.2344 1531.9063,526.2344 Q1529.4063,526.2344 1528.0781,524.5938 Q1526.7656,522.9375 1526.7656,519.8125 Q1526.7656,516.6875 1528.0781,515.0313 Q1529.4063,513.375 1531.9063,513.375 Q1532.6094,513.375 1533.25,513.5313 Q1533.9063,513.6875 1534.4688,513.9844 L1534.4688,516.7031 Q1533.8438,516.125 1533.25,515.8594 Q1532.6563,515.5781 1532.0313,515.5781 Q1530.6875,515.5781 1530,516.6563 Q1529.3125,517.7188 1529.3125,519.8125 Q1529.3125,521.9063 1530,522.9844 Q1530.6875,524.0469 1532.0313,524.0469 Q1532.6563,524.0469 1533.25,523.7813 Q1533.8438,523.5 1534.4688,522.9219 L1534.4688,525.6406 Z "/><text fill="#000000" font-family="sans-serif" font-size="12" lengthAdjust="spacingAndGlyphs" textLength="67" x="1545.5" y="524.1543">ViewAction</text><!--MD5=[47d553743e6c0f650877be889f88f64f]
class ViewOption--><rect fill="#FEFECE" filter="url(#f932p7k2fwc4p)" height="32" id="ViewOption" style="stroke: #A80036; stroke-width: 1.5;" width="101" x="1146.5" y="378"/><ellipse cx="1161.5" cy="394" fill="#ADD1B2" rx="11" ry="11" style="stroke: #A80036; stroke-width: 1.0;"/><path d="M1164.4688,399.6406 Q1163.8906,399.9375 1163.25,400.0781 Q1162.6094,400.2344 1161.9063,400.2344 Q1159.4063,400.2344 1158.0781,398.5938 Q1156.7656,396.9375 1156.7656,393.8125 Q1156.7656,390.6875 1158.0781,389.0313 Q1159.4063,387.375 1161.9063,387.375 Q1162.6094,387.375 1163.25,387.5313 Q1163.9063,387.6875 1164.4688,387.9844 L1164.4688,390.7031 Q1163.8438,390.125 1163.25,389.8594 Q1162.6563,389.5781 1162.0313,389.5781 Q1160.6875,389.5781 1160,390.6563 Q1159.3125,391.7188 1159.3125,393.8125 Q1159.3125,395.9063 1160,396.9844 Q1160.6875,398.0469 1162.0313,398.0469 Q1162.6563,398.0469 1163.25,397.7813 Q1163.8438,397.5 1164.4688,396.9219 L1164.4688,399.6406 Z "/><text fill="#000000" font-family="sans-serif" font-size="12" lengthAdjust="spacingAndGlyphs" textLength="69" x="1175.5" y="398.1543">ViewOption</text><!--MD5=[7ef7df81153a108328eb7a5b9355a136]
class ViewGame--><rect fill="#FEFECE" filter="url(#f932p7k2fwc4p)" height="32" id="ViewGame" style="stroke: #A80036; stroke-width: 1.5;" width="96" x="1336" y="239.5"/><ellipse cx="1351" cy="255.5" fill="#ADD1B2" rx="11" ry="11" style="stroke: #A80036; stroke-width: 1.0;"/><path d="M1353.9688,261.1406 Q1353.3906,261.4375 1352.75,261.5781 Q1352.1094,261.7344 1351.4063,261.7344 Q1348.9063,261.7344 1347.5781,260.0938 Q1346.2656,258.4375 1346.2656,255.3125 Q1346.2656,252.1875 1347.5781,250.5313 Q1348.9063,248.875 1351.4063,248.875 Q1352.1094,248.875 1352.75,249.0313 Q1353.4063,249.1875 1353.9688,249.4844 L1353.9688,252.2031 Q1353.3438,251.625 1352.75,251.3594 Q1352.1563,251.0781 1351.5313,251.0781 Q1350.1875,251.0781 1349.5,252.1563 Q1348.8125,253.2188 1348.8125,255.3125 Q1348.8125,257.4063 1349.5,258.4844 Q1350.1875,259.5469 1351.5313,259.5469 Q1352.1563,259.5469 1352.75,259.2813 Q1353.3438,259 1353.9688,258.4219 L1353.9688,261.1406 Z "/><text fill="#000000" font-family="sans-serif" font-size="12" lengthAdjust="spacingAndGlyphs" textLength="64" x="1365" y="259.6543">ViewGame</text><!--MD5=[fab7056576ea3880aaf36e4ccb94a01c]
class ViewHUD--><rect fill="#FEFECE" filter="url(#f932p7k2fwc4p)" height="32" id="ViewHUD" style="stroke: #A80036; stroke-width: 1.5;" width="87" x="1528.5" y="378"/><ellipse cx="1543.5" cy="394" fill="#ADD1B2" rx="11" ry="11" style="stroke: #A80036; stroke-width: 1.0;"/><path d="M1546.4688,399.6406 Q1545.8906,399.9375 1545.25,400.0781 Q1544.6094,400.2344 1543.9063,400.2344 Q1541.4063,400.2344 1540.0781,398.5938 Q1538.7656,396.9375 1538.7656,393.8125 Q1538.7656,390.6875 1540.0781,389.0313 Q1541.4063,387.375 1543.9063,387.375 Q1544.6094,387.375 1545.25,387.5313 Q1545.9063,387.6875 1546.4688,387.9844 L1546.4688,390.7031 Q1545.8438,390.125 1545.25,389.8594 Q1544.6563,389.5781 1544.0313,389.5781 Q1542.6875,389.5781 1542,390.6563 Q1541.3125,391.7188 1541.3125,393.8125 Q1541.3125,395.9063 1542,396.9844 Q1542.6875,398.0469 1544.0313,398.0469 Q1544.6563,398.0469 1545.25,397.7813 Q1545.8438,397.5 1546.4688,396.9219 L1546.4688,399.6406 Z "/><text fill="#000000" font-family="sans-serif" font-size="12" lengthAdjust="spacingAndGlyphs" textLength="55" x="1557.5" y="398.1543">ViewHUD</text><!--MD5=[b4d764e3c38fb7b1af6f2a8a636bdd8c]
class ControllerMain--><rect fill="#FEFECE" filter="url(#f932p7k2fwc4p)" height="52.8047" id="ControllerMain" style="stroke: #A80036; stroke-width: 1.5;" width="122" x="114" y="229"/><ellipse cx="129" cy="245" fill="#ADD1B2" rx="11" ry="11" style="stroke: #A80036; stroke-width: 1.0;"/><path d="M131.9688,250.6406 Q131.3906,250.9375 130.75,251.0781 Q130.1094,251.2344 129.4063,251.2344 Q126.9063,251.2344 125.5781,249.5938 Q124.2656,247.9375 124.2656,244.8125 Q124.2656,241.6875 125.5781,240.0313 Q126.9063,238.375 129.4063,238.375 Q130.1094,238.375 130.75,238.5313 Q131.4063,238.6875 131.9688,238.9844 L131.9688,241.7031 Q131.3438,241.125 130.75,240.8594 Q130.1563,240.5781 129.5313,240.5781 Q128.1875,240.5781 127.5,241.6563 Q126.8125,242.7188 126.8125,244.8125 Q126.8125,246.9063 127.5,247.9844 Q128.1875,249.0469 129.5313,249.0469 Q130.1563,249.0469 130.75,248.7813 Q131.3438,248.5 131.9688,247.9219 L131.9688,250.6406 Z "/><text fill="#000000" font-family="sans-serif" font-size="12" lengthAdjust="spacingAndGlyphs" textLength="90" x="143" y="249.1543">ControllerMain</text><line style="stroke: #A80036; stroke-width: 1.5;" x1="115" x2="235" y1="261" y2="261"/><rect fill="none" height="6" style="stroke: #C82930; stroke-width: 1.0;" width="6" x="122" y="269"/><text fill="#000000" font-family="sans-serif" font-size="11" lengthAdjust="spacingAndGlyphs" textLength="61" x="134" y="275.2104">ModelSave</text><!--MD5=[a8dd5522732e18611229f49aa10f22e6]
class ControllerPet--><rect fill="#FEFECE" filter="url(#f932p7k2fwc4p)" height="65.6094" id="ControllerPet" style="stroke: #A80036; stroke-width: 1.5;" width="114" x="52" y="487"/><ellipse cx="67" cy="503" fill="#ADD1B2" rx="11" ry="11" style="stroke: #A80036; stroke-width: 1.0;"/><path d="M69.9688,508.6406 Q69.3906,508.9375 68.75,509.0781 Q68.1094,509.2344 67.4063,509.2344 Q64.9063,509.2344 63.5781,507.5938 Q62.2656,505.9375 62.2656,502.8125 Q62.2656,499.6875 63.5781,498.0313 Q64.9063,496.375 67.4063,496.375 Q68.1094,496.375 68.75,496.5313 Q69.4063,496.6875 69.9688,496.9844 L69.9688,499.7031 Q69.3438,499.125 68.75,498.8594 Q68.1563,498.5781 67.5313,498.5781 Q66.1875,498.5781 65.5,499.6563 Q64.8125,500.7188 64.8125,502.8125 Q64.8125,504.9063 65.5,505.9844 Q66.1875,507.0469 67.5313,507.0469 Q68.1563,507.0469 68.75,506.7813 Q69.3438,506.5 69.9688,505.9219 L69.9688,508.6406 Z "/><text fill="#000000" font-family="sans-serif" font-size="12" lengthAdjust="spacingAndGlyphs" textLength="82" x="81" y="507.1543">ControllerPet</text><line style="stroke: #A80036; stroke-width: 1.5;" x1="53" x2="165" y1="519" y2="519"/><rect fill="none" height="6" style="stroke: #C82930; stroke-width: 1.0;" width="6" x="60" y="527"/><text fill="#000000" font-family="sans-serif" font-size="11" lengthAdjust="spacingAndGlyphs" textLength="51" x="72" y="533.2104">ModelPet</text><rect fill="none" height="6" style="stroke: #C82930; stroke-width: 1.0;" width="6" x="60" y="539.8047"/><text fill="#000000" font-family="sans-serif" font-size="11" lengthAdjust="spacingAndGlyphs" textLength="44" x="72" y="546.0151">ViewPet</text><!--MD5=[87caa93e14c110f7c3c35dde97c8934c]
class ControllerRoom--><rect fill="#FEFECE" filter="url(#f932p7k2fwc4p)" height="65.6094" id="ControllerRoom" style="stroke: #A80036; stroke-width: 1.5;" width="128" x="201" y="487"/><ellipse cx="216" cy="503" fill="#ADD1B2" rx="11" ry="11" style="stroke: #A80036; stroke-width: 1.0;"/><path d="M218.9688,508.6406 Q218.3906,508.9375 217.75,509.0781 Q217.1094,509.2344 216.4063,509.2344 Q213.9063,509.2344 212.5781,507.5938 Q211.2656,505.9375 211.2656,502.8125 Q211.2656,499.6875 212.5781,498.0313 Q213.9063,496.375 216.4063,496.375 Q217.1094,496.375 217.75,496.5313 Q218.4063,496.6875 218.9688,496.9844 L218.9688,499.7031 Q218.3438,499.125 217.75,498.8594 Q217.1563,498.5781 216.5313,498.5781 Q215.1875,498.5781 214.5,499.6563 Q213.8125,500.7188 213.8125,502.8125 Q213.8125,504.9063 214.5,505.9844 Q215.1875,507.0469 216.5313,507.0469 Q217.1563,507.0469 217.75,506.7813 Q218.3438,506.5 218.9688,505.9219 L218.9688,508.6406 Z "/><text fill="#000000" font-family="sans-serif" font-size="12" lengthAdjust="spacingAndGlyphs" textLength="96" x="230" y="507.1543">ControllerRoom</text><line style="stroke: #A80036; stroke-width: 1.5;" x1="202" x2="328" y1="519" y2="519"/><rect fill="none" height="6" style="stroke: #C82930; stroke-width: 1.0;" width="6" x="209" y="527"/><text fill="#000000" font-family="sans-serif" font-size="11" lengthAdjust="spacingAndGlyphs" textLength="65" x="221" y="533.2104">ModelRoom</text><rect fill="none" height="6" style="stroke: #C82930; stroke-width: 1.0;" width="6" x="209" y="539.8047"/><text fill="#000000" font-family="sans-serif" font-size="11" lengthAdjust="spacingAndGlyphs" textLength="58" x="221" y="546.0151">ViewRoom</text><!--MD5=[a8c4fef36f1be4f4b0b1faa4659e444b]
class ControllerStat--><rect fill="#FEFECE" filter="url(#f932p7k2fwc4p)" height="65.6094" id="ControllerStat" style="stroke: #A80036; stroke-width: 1.5;" width="119" x="49.5" y="613"/><ellipse cx="64.5" cy="629" fill="#ADD1B2" rx="11" ry="11" style="stroke: #A80036; stroke-width: 1.0;"/><path d="M67.4688,634.6406 Q66.8906,634.9375 66.25,635.0781 Q65.6094,635.2344 64.9063,635.2344 Q62.4063,635.2344 61.0781,633.5938 Q59.7656,631.9375 59.7656,628.8125 Q59.7656,625.6875 61.0781,624.0313 Q62.4063,622.375 64.9063,622.375 Q65.6094,622.375 66.25,622.5313 Q66.9063,622.6875 67.4688,622.9844 L67.4688,625.7031 Q66.8438,625.125 66.25,624.8594 Q65.6563,624.5781 65.0313,624.5781 Q63.6875,624.5781 63,625.6563 Q62.3125,626.7188 62.3125,628.8125 Q62.3125,630.9063 63,631.9844 Q63.6875,633.0469 65.0313,633.0469 Q65.6563,633.0469 66.25,632.7813 Q66.8438,632.5 67.4688,631.9219 L67.4688,634.6406 Z "/><text fill="#000000" font-family="sans-serif" font-size="12" lengthAdjust="spacingAndGlyphs" textLength="87" x="78.5" y="633.1543">ControllerStat</text><line style="stroke: #A80036; stroke-width: 1.5;" x1="50.5" x2="167.5" y1="645" y2="645"/><rect fill="none" height="6" style="stroke: #C82930; stroke-width: 1.0;" width="6" x="57.5" y="653"/><text fill="#000000" font-family="sans-serif" font-size="11" lengthAdjust="spacingAndGlyphs" textLength="56" x="69.5" y="659.2104">ModelStat</text><rect fill="none" height="6" style="stroke: #C82930; stroke-width: 1.0;" width="6" x="57.5" y="665.8047"/><text fill="#000000" font-family="sans-serif" font-size="11" lengthAdjust="spacingAndGlyphs" textLength="49" x="69.5" y="672.0151">ViewStat</text><!--MD5=[ad9dd60b9e2ea02c403c8610a882571c]
class ControllerMenu--><rect fill="#FEFECE" filter="url(#f932p7k2fwc4p)" height="65.6094" id="ControllerMenu" style="stroke: #A80036; stroke-width: 1.5;" width="127" x="38.5" y="361"/><ellipse cx="53.5" cy="377" fill="#ADD1B2" rx="11" ry="11" style="stroke: #A80036; stroke-width: 1.0;"/><path d="M56.4688,382.6406 Q55.8906,382.9375 55.25,383.0781 Q54.6094,383.2344 53.9063,383.2344 Q51.4063,383.2344 50.0781,381.5938 Q48.7656,379.9375 48.7656,376.8125 Q48.7656,373.6875 50.0781,372.0313 Q51.4063,370.375 53.9063,370.375 Q54.6094,370.375 55.25,370.5313 Q55.9063,370.6875 56.4688,370.9844 L56.4688,373.7031 Q55.8438,373.125 55.25,372.8594 Q54.6563,372.5781 54.0313,372.5781 Q52.6875,372.5781 52,373.6563 Q51.3125,374.7188 51.3125,376.8125 Q51.3125,378.9063 52,379.9844 Q52.6875,381.0469 54.0313,381.0469 Q54.6563,381.0469 55.25,380.7813 Q55.8438,380.5 56.4688,379.9219 L56.4688,382.6406 Z "/><text fill="#000000" font-family="sans-serif" font-size="12" lengthAdjust="spacingAndGlyphs" textLength="95" x="67.5" y="381.1543">ControllerMenu</text><line style="stroke: #A80036; stroke-width: 1.5;" x1="39.5" x2="164.5" y1="393" y2="393"/><rect fill="none" height="6" style="stroke: #C82930; stroke-width: 1.0;" width="6" x="46.5" y="401"/><text fill="#000000" font-family="sans-serif" font-size="11" lengthAdjust="spacingAndGlyphs" textLength="70" x="58.5" y="407.2104">ModelOption</text><rect fill="none" height="6" style="stroke: #C82930; stroke-width: 1.0;" width="6" x="46.5" y="413.8047"/><text fill="#000000" font-family="sans-serif" font-size="11" lengthAdjust="spacingAndGlyphs" textLength="56" x="58.5" y="420.0151">ViewMenu</text><!--MD5=[a23319bb6651943ab882a8895f3a4933]
class ControllerGame--><rect fill="#FEFECE" filter="url(#f932p7k2fwc4p)" height="65.6094" id="ControllerGame" style="stroke: #A80036; stroke-width: 1.5;" width="129" x="200.5" y="361"/><ellipse cx="215.5" cy="377" fill="#ADD1B2" rx="11" ry="11" style="stroke: #A80036; stroke-width: 1.0;"/><path d="M218.4688,382.6406 Q217.8906,382.9375 217.25,383.0781 Q216.6094,383.2344 215.9063,383.2344 Q213.4063,383.2344 212.0781,381.5938 Q210.7656,379.9375 210.7656,376.8125 Q210.7656,373.6875 212.0781,372.0313 Q213.4063,370.375 215.9063,370.375 Q216.6094,370.375 217.25,370.5313 Q217.9063,370.6875 218.4688,370.9844 L218.4688,373.7031 Q217.8438,373.125 217.25,372.8594 Q216.6563,372.5781 216.0313,372.5781 Q214.6875,372.5781 214,373.6563 Q213.3125,374.7188 213.3125,376.8125 Q213.3125,378.9063 214,379.9844 Q214.6875,381.0469 216.0313,381.0469 Q216.6563,381.0469 217.25,380.7813 Q217.8438,380.5 218.4688,379.9219 L218.4688,382.6406 Z "/><text fill="#000000" font-family="sans-serif" font-size="12" lengthAdjust="spacingAndGlyphs" textLength="97" x="229.5" y="381.1543">ControllerGame</text><line style="stroke: #A80036; stroke-width: 1.5;" x1="201.5" x2="328.5" y1="393" y2="393"/><rect fill="none" height="6" style="stroke: #C82930; stroke-width: 1.0;" width="6" x="208.5" y="401"/><text fill="#000000" font-family="sans-serif" font-size="11" lengthAdjust="spacingAndGlyphs" textLength="67" x="220.5" y="407.2104">ModelGame</text><rect fill="none" height="6" style="stroke: #C82930; stroke-width: 1.0;" width="6" x="208.5" y="413.8047"/><text fill="#000000" font-family="sans-serif" font-size="11" lengthAdjust="spacingAndGlyphs" textLength="60" x="220.5" y="420.0151">ViewGame</text><!--MD5=[335f4d9be48430461c68bf6d6fdba145]
class App--><rect fill="#FEFECE" filter="url(#f932p7k2fwc4p)" height="65.6094" id="App" style="stroke: #A80036; stroke-width: 1.5;" width="209" x="70.5" y="71.5"/><ellipse cx="158.75" cy="87.5" fill="#ADD1B2" rx="11" ry="11" style="stroke: #A80036; stroke-width: 1.0;"/><path d="M161.7188,93.1406 Q161.1406,93.4375 160.5,93.5781 Q159.8594,93.7344 159.1563,93.7344 Q156.6563,93.7344 155.3281,92.0938 Q154.0156,90.4375 154.0156,87.3125 Q154.0156,84.1875 155.3281,82.5313 Q156.6563,80.875 159.1563,80.875 Q159.8594,80.875 160.5,81.0313 Q161.1563,81.1875 161.7188,81.4844 L161.7188,84.2031 Q161.0938,83.625 160.5,83.3594 Q159.9063,83.0781 159.2813,83.0781 Q157.9375,83.0781 157.25,84.1563 Q156.5625,85.2188 156.5625,87.3125 Q156.5625,89.4063 157.25,90.4844 Q157.9375,91.5469 159.2813,91.5469 Q159.9063,91.5469 160.5,91.2813 Q161.0938,91 161.7188,90.4219 L161.7188,93.1406 Z "/><text fill="#000000" font-family="sans-serif" font-size="12" lengthAdjust="spacingAndGlyphs" textLength="24" x="179.25" y="91.6543">App</text><line style="stroke: #A80036; stroke-width: 1.5;" x1="71.5" x2="278.5" y1="103.5" y2="103.5"/><rect fill="none" height="6" style="stroke: #C82930; stroke-width: 1.0;" width="6" x="78.5" y="111.5"/><text fill="#000000" font-family="sans-serif" font-size="11" lengthAdjust="spacingAndGlyphs" text-decoration="underline" textLength="183" x="90.5" y="117.7104">lang_resource : ResourceBundle</text><rect fill="none" height="6" style="stroke: #C82930; stroke-width: 1.0;" width="6" x="78.5" y="124.3047"/><text fill="#000000" font-family="sans-serif" font-size="11" lengthAdjust="spacingAndGlyphs" text-decoration="underline" textLength="159" x="90.5" y="130.5151">num_locale : NumberFormat</text><!--MD5=[4f466642c94ef2a73e975d7b90f446a9]
reverse link ModelPet to Robot--><path d="M735.45,287.71 C714.19,315.88 683.82,356.14 667.47,377.8 " fill="none" id="ModelPet&lt;-Robot" style="stroke: #A80036; stroke-width: 1.0; stroke-dasharray: 7.0,7.0;"/><polygon fill="none" points="729.95,283.38,747.58,271.63,741.12,291.81,729.95,283.38" style="stroke: #A80036; stroke-width: 1.0;"/><!--MD5=[74c06c42aaa6c8b448d0338302a44b32]
reverse link ModelPet to Animal--><path d="M759.78,291.79 C760.39,319.66 761.21,357.16 761.67,377.8 " fill="none" id="ModelPet&lt;-Animal" style="stroke: #A80036; stroke-width: 1.0; stroke-dasharray: 7.0,7.0;"/><polygon fill="none" points="752.77,291.78,759.33,271.63,766.77,291.47,752.77,291.78" style="stroke: #A80036; stroke-width: 1.0;"/><!--MD5=[e7fdbd9cc01a81d0a8cc9dd038c862e3]
link Animal to ModelStat--><path d="M750.1842,421.1334 C750.1842,421.1334 727.7,470.95 718.36,491.62 " fill="none" id="Animal-ModelStat" style="stroke: #A80036; stroke-width: 1.0;"/><polygon fill="#A80036" points="712.92,503.67,720.2738,497.1185,714.9807,499.1144,712.9848,493.8214,712.92,503.67" style="stroke: #A80036; stroke-width: 1.0;"/><line style="stroke: #A80036; stroke-width: 1.0;" x1="714.9807" x2="718.275" y1="499.1144" y2="491.825"/><polygon fill="#FFFFFF" points="755.13,410.2,749.0127,414.0181,750.1842,421.1334,756.3016,417.3153,755.13,410.2" style="stroke: #A80036; stroke-width: 1.0;"/><!--MD5=[f422c2807d3be77dbf95b21178d759de]
link Robot to ModelStat--><path d="M666.614,421.3308 C666.614,421.3308 686.59,470.86 694.87,491.39 " fill="none" id="Robot-ModelStat" style="stroke: #A80036; stroke-width: 1.0;"/><polygon fill="#A80036" points="699.82,503.67,700.1573,493.8269,697.947,499.0341,692.7398,496.8238,699.82,503.67" style="stroke: #A80036; stroke-width: 1.0;"/><line style="stroke: #A80036; stroke-width: 1.0;" x1="697.947" x2="694.96" y1="499.0341" y2="491.615"/><polygon fill="#FFFFFF" points="662.13,410.2,660.6617,417.26,666.614,421.3308,668.0822,414.2707,662.13,410.2" style="stroke: #A80036; stroke-width: 1.0;"/><!--MD5=[5971e1841a2b9e394eb43f7dc4831a0e]
link ModelGame to ModelPet--><path d="M632.3016,128.1319 C632.3016,128.1319 678.11,165.56 699,186 C712.86,199.56 727.21,215.85 738.4,229.15 " fill="none" id="ModelGame-ModelPet" style="stroke: #A80036; stroke-width: 1.0;"/><polygon fill="#A80036" points="746.98,239.48,744.3099,230,743.7867,235.6326,738.1541,235.1093,746.98,239.48" style="stroke: #A80036; stroke-width: 1.0;"/><line style="stroke: #A80036; stroke-width: 1.0;" x1="743.7867" x2="738.68" y1="235.6326" y2="229.475"/><polygon fill="#FFFFFF" points="622.88,120.7,625.1135,127.5565,632.3016,128.1319,630.0681,121.2754,622.88,120.7" style="stroke: #A80036; stroke-width: 1.0;"/><!--MD5=[4de9b067ee7228c78f0bb54c9b6691cd]
link ModelGame to ModelRoom--><path d="M575.1872,128.1789 C575.1872,128.1789 529.74,166.19 508,186 C492.37,200.23 475.42,216.8 462.11,230.07 " fill="none" id="ModelGame-ModelRoom" style="stroke: #A80036; stroke-width: 1.0;"/><polygon fill="#A80036" points="452.72,239.49,461.9069,235.9402,456.25,235.949,456.2412,230.2921,452.72,239.49" style="stroke: #A80036; stroke-width: 1.0;"/><line style="stroke: #A80036; stroke-width: 1.0;" x1="456.25" x2="461.9" y1="235.949" y2="230.28"/><polygon fill="#FFFFFF" points="584.45,120.55,577.2756,121.2769,575.1872,128.1789,582.3616,127.4521,584.45,120.55" style="stroke: #A80036; stroke-width: 1.0;"/><!--MD5=[cf0edb94e2ad993425b64db8db747807]
link ModelGame to ModelSave--><path d="M603,120.61 C603,140.19 603,175.31 603,204.67 " fill="none" id="ModelGame-&gt;ModelSave" style="stroke: #A80036; stroke-width: 1.0; stroke-dasharray: 7.0,7.0;"/><polygon fill="#A80036" points="603,209.7,607,200.7,603,204.7,599,200.7,603,209.7" style="stroke: #A80036; stroke-width: 1.0;"/><!--MD5=[8bf2486ab1619f20eac8878ac066c89f]
link ViewMain to ViewGame--><path d="M1277.6656,129.7415 C1277.6656,129.7415 1339.15,201.88 1362.56,229.35 " fill="none" id="ViewMain-ViewGame" style="stroke: #A80036; stroke-width: 1.0;"/><polygon fill="#A80036" points="1371.09,239.35,1368.3014,229.9042,1367.8487,235.5429,1362.21,235.0902,1371.09,239.35" style="stroke: #A80036; stroke-width: 1.0;"/><line style="stroke: #A80036; stroke-width: 1.0;" x1="1367.8487" x2="1362.655" y1="235.5429" y2="229.46"/><polygon fill="#FFFFFF" points="1269.88,120.61,1270.7289,127.771,1277.6656,129.7415,1276.8166,122.5806,1269.88,120.61" style="stroke: #A80036; stroke-width: 1.0;"/><!--MD5=[da53a9ba11fef0ffc8dc778c68eb8e27]
link ViewMain to ViewMenu--><path d="M1236.487,129.7776 C1236.487,129.7776 1175.5,201.88 1152.27,229.35 " fill="none" id="ViewMain-ViewMenu" style="stroke: #A80036; stroke-width: 1.0;"/><polygon fill="#A80036" points="1143.81,239.35,1152.6731,235.0553,1147.0363,235.5302,1146.5614,229.8933,1143.81,239.35" style="stroke: #A80036; stroke-width: 1.0;"/><line style="stroke: #A80036; stroke-width: 1.0;" x1="1147.0363" x2="1152.205" y1="235.5302" y2="229.425"/><polygon fill="#FFFFFF" points="1244.23,120.61,1237.3026,122.6128,1236.487,129.7776,1243.4144,127.7748,1244.23,120.61" style="stroke: #A80036; stroke-width: 1.0;"/><!--MD5=[be9c79c74cacc2f476e166c2a4f64dcb]
link ViewMenu to ViewOption--><path d="M1143.5436,282.4334 C1143.5436,282.4334 1172.41,342.14 1183.98,366.08 " fill="none" id="ViewMenu-ViewOption" style="stroke: #A80036; stroke-width: 1.0;"/><polygon fill="#A80036" points="1189.65,377.8,1189.3334,367.9562,1187.4735,373.2986,1182.1311,371.4387,1189.65,377.8" style="stroke: #A80036; stroke-width: 1.0;"/><line style="stroke: #A80036; stroke-width: 1.0;" x1="1187.4735" x2="1183.995" y1="373.2986" y2="366.1"/><polygon fill="#A80036" points="1138.32,271.63,1137.3307,278.7729,1143.5436,282.4334,1144.533,275.2905,1138.32,271.63" style="stroke: #A80036; stroke-width: 1.0;"/><!--MD5=[f650e94ab78217e3508de37f16f9547a]
link ViewMenu to ViewCustomPet--><path d="M1097.785,278.1949 C1097.785,278.1949 995.38,345.07 956.51,370.46 " fill="none" id="ViewMenu-ViewCustomPet" style="stroke: #A80036; stroke-width: 1.0;"/><polygon fill="#A80036" points="945.27,377.8,954.9935,376.2336,949.4579,375.0685,950.6231,369.5329,945.27,377.8" style="stroke: #A80036; stroke-width: 1.0;"/><line style="stroke: #A80036; stroke-width: 1.0;" x1="949.4579" x2="956.155" y1="375.0685" y2="370.69"/><polygon fill="#A80036" points="1107.83,271.63,1100.6192,271.5641,1097.785,278.1949,1104.9958,278.2608,1107.83,271.63" style="stroke: #A80036; stroke-width: 1.0;"/><!--MD5=[6446f8f44f20e882252a98232a1037b1]
link ViewMenu to ViewLoad--><path d="M1118.6403,282.4641 C1118.6403,282.4641 1090.37,341.82 1078.98,365.75 " fill="none" id="ViewMenu-ViewLoad" style="stroke: #A80036; stroke-width: 1.0;"/><polygon fill="#A80036" points="1073.24,377.8,1080.7211,371.3943,1075.3899,373.2858,1073.4984,367.9545,1073.24,377.8" style="stroke: #A80036; stroke-width: 1.0;"/><line style="stroke: #A80036; stroke-width: 1.0;" x1="1075.3899" x2="1078.825" y1="373.2858" y2="366.065"/><polygon fill="#A80036" points="1123.8,271.63,1117.6088,275.3271,1118.6403,282.4641,1124.8315,278.7669,1123.8,271.63" style="stroke: #A80036; stroke-width: 1.0;"/><!--MD5=[9168ed23fe193ebb26894be34fee4a0e]
link ViewGame to ViewHUD--><path d="M1414.5465,278.6857 C1414.5465,278.6857 1505.35,344.61 1540.12,369.86 " fill="none" id="ViewGame-ViewHUD" style="stroke: #A80036; stroke-width: 1.0;"/><polygon fill="#A80036" points="1551.07,377.8,1546.1289,369.2803,1547.0211,374.8663,1541.435,375.7585,1551.07,377.8" style="stroke: #A80036; stroke-width: 1.0;"/><line style="stroke: #A80036; stroke-width: 1.0;" x1="1547.0211" x2="1540.55" y1="374.8663" y2="370.165"/><polygon fill="#A80036" points="1404.84,271.63,1407.3414,278.3934,1414.5465,278.6857,1412.0452,271.9223,1404.84,271.63" style="stroke: #A80036; stroke-width: 1.0;"/><!--MD5=[09dd6a64c3d68c174e3adb5d94daf6ef]
link ViewHUD to ViewAction--><path d="M1570.6798,422.186 C1570.6798,422.186 1568.36,470.33 1567.38,490.41 " fill="none" id="ViewHUD-ViewAction" style="stroke: #A80036; stroke-width: 1.0;"/><polygon fill="#A80036" points="1566.74,503.67,1571.1709,494.8742,1566.982,498.6759,1563.1803,494.4869,1566.74,503.67" style="stroke: #A80036; stroke-width: 1.0;"/><line style="stroke: #A80036; stroke-width: 1.0;" x1="1566.982" x2="1567.37" y1="498.6759" y2="490.69"/><polygon fill="#A80036" points="1571.26,410.2,1566.9746,415.9996,1570.6798,422.186,1574.9652,416.3864,1571.26,410.2" style="stroke: #A80036; stroke-width: 1.0;"/><!--MD5=[2c621505a26fa19aa311a2aae8df3665]
link ViewHUD to ViewStat--><path d="M1546.7615,418.3492 C1546.7615,418.3492 1487.9,472.82 1464.27,494.69 " fill="none" id="ViewHUD-ViewStat" style="stroke: #A80036; stroke-width: 1.0;"/><polygon fill="#A80036" points="1454.57,503.67,1463.8928,500.4943,1458.2402,500.2745,1458.46,494.6219,1454.57,503.67" style="stroke: #A80036; stroke-width: 1.0;"/><line style="stroke: #A80036; stroke-width: 1.0;" x1="1458.2402" x2="1464.11" y1="500.2745" y2="494.84"/><polygon fill="#FFFFFF" points="1555.57,410.2,1548.4493,411.3384,1546.7615,418.3492,1553.8821,417.2108,1555.57,410.2" style="stroke: #A80036; stroke-width: 1.0;"/><!--MD5=[72c63d8179027bd176e1b9e790de2564]
link ViewGame to ViewRoom--><path d="M1395.8426,282.5512 C1395.8426,282.5512 1422.84,342.01 1433.65,365.81 " fill="none" id="ViewGame-ViewRoom" style="stroke: #A80036; stroke-width: 1.0;"/><polygon fill="#A80036" points="1439.1,377.8,1439.011,367.9515,1437.0281,373.2495,1431.7301,371.2666,1439.1,377.8" style="stroke: #A80036; stroke-width: 1.0;"/><line style="stroke: #A80036; stroke-width: 1.0;" x1="1437.0281" x2="1433.72" y1="373.2495" y2="365.965"/><polygon fill="#FFFFFF" points="1390.87,271.63,1389.7159,278.7481,1395.8426,282.5512,1396.9967,275.4331,1390.87,271.63" style="stroke: #A80036; stroke-width: 1.0;"/><!--MD5=[1982cb46ecac96c4096775a36a11f323]
link ViewGame to ViewPet--><path d="M1372.348,282.5876 C1372.348,282.5876 1345.79,342.01 1335.15,365.81 " fill="none" id="ViewGame-ViewPet" style="stroke: #A80036; stroke-width: 1.0;"/><polygon fill="#A80036" points="1329.79,377.8,1337.1115,371.2125,1331.8283,373.2343,1329.8065,367.9512,1329.79,377.8" style="stroke: #A80036; stroke-width: 1.0;"/><line style="stroke: #A80036; stroke-width: 1.0;" x1="1331.8283" x2="1335.095" y1="373.2343" y2="365.935"/><polygon fill="#FFFFFF" points="1377.24,271.63,1371.1415,275.4781,1372.348,282.5876,1378.4465,278.7395,1377.24,271.63" style="stroke: #A80036; stroke-width: 1.0;"/><!--MD5=[b1ef4671a1757d589d06dc8a838d028a]
link ControllerPet to ControllerStat--><path d="M109,565.26 C109,565.26 109,588.79 109,599.65 " fill="none" id="ControllerPet-ControllerStat" style="stroke: #A80036; stroke-width: 1.0;"/><polygon fill="#A80036" points="109,612.91,113,603.91,109,607.91,105,603.91,109,612.91" style="stroke: #A80036; stroke-width: 1.0;"/><line style="stroke: #A80036; stroke-width: 1.0;" x1="109" x2="109" y1="607.91" y2="599.91"/><polygon fill="#A80036" points="109,553.26,105,559.26,109,565.26,113,559.26,109,553.26" style="stroke: #A80036; stroke-width: 1.0;"/><!--MD5=[efe405b14041d5631e08871e4931eb2f]
link ControllerGame to ControllerPet--><path d="M215.0213,434.7209 C215.0213,434.7209 177.27,464.73 159.89,478.55 " fill="none" id="ControllerGame-ControllerPet" style="stroke: #A80036; stroke-width: 1.0;"/><polygon fill="#A80036" points="149.38,486.91,158.916,484.4472,153.2961,483.8013,153.942,478.1814,149.38,486.91" style="stroke: #A80036; stroke-width: 1.0;"/><line style="stroke: #A80036; stroke-width: 1.0;" x1="153.2961" x2="159.55" y1="483.8013" y2="478.815"/><polygon fill="#A80036" points="224.42,427.26,217.2337,427.8576,215.0213,434.7209,222.2076,434.1233,224.42,427.26" style="stroke: #A80036; stroke-width: 1.0;"/><!--MD5=[ddcc429a3235b8516599080435159d34]
link ControllerGame to ControllerRoom--><path d="M265,439.26 C265,439.26 265,462.79 265,473.65 " fill="none" id="ControllerGame-ControllerRoom" style="stroke: #A80036; stroke-width: 1.0;"/><polygon fill="#A80036" points="265,486.91,269,477.91,265,481.91,261,477.91,265,486.91" style="stroke: #A80036; stroke-width: 1.0;"/><line style="stroke: #A80036; stroke-width: 1.0;" x1="265" x2="265" y1="481.91" y2="473.91"/><polygon fill="#A80036" points="265,427.26,261,433.26,265,439.26,269,433.26,265,427.26" style="stroke: #A80036; stroke-width: 1.0;"/><!--MD5=[9929c6352887e0a164ebebea74672e21]
link ControllerMain to ControllerGame--><path d="M198.5407,292.1849 C198.5407,292.1849 224.53,331.61 236.51,349.79 " fill="none" id="ControllerMain-ControllerGame" style="stroke: #A80036; stroke-width: 1.0;"/><polygon fill="#A80036" points="243.7,360.69,242.0803,350.9752,240.9456,356.5171,235.4037,355.3823,243.7,360.69" style="stroke: #A80036; stroke-width: 1.0;"/><line style="stroke: #A80036; stroke-width: 1.0;" x1="240.9456" x2="236.545" y1="356.5171" y2="349.845"/><polygon fill="#A80036" points="191.93,282.17,191.897,289.381,198.5407,292.1849,198.5736,284.9739,191.93,282.17" style="stroke: #A80036; stroke-width: 1.0;"/><!--MD5=[db94271f82011bff79064c77ddb1b261]
link ControllerMain to ControllerMenu--><path d="M155.6099,292.7513 C155.6099,292.7513 134.99,331.31 125.46,349.13 " fill="none" id="ControllerMain-ControllerMenu" style="stroke: #A80036; stroke-width: 1.0;"/><polygon fill="#A80036" points="119.28,360.69,127.0521,354.6407,121.6384,356.2811,119.998,350.8673,119.28,360.69" style="stroke: #A80036; stroke-width: 1.0;"/><line style="stroke: #A80036; stroke-width: 1.0;" x1="121.6384" x2="125.41" y1="356.2811" y2="349.235"/><polygon fill="#A80036" points="161.27,282.17,154.9129,285.574,155.6099,292.7513,161.9671,289.3473,161.27,282.17" style="stroke: #A80036; stroke-width: 1.0;"/><!--MD5=[dd57218bcfe32411ddd60f0a689a21ae]
link App to ControllerMain--><path d="M175,149.83 C175,149.83 175,195.69 175,215.46 " fill="none" id="App-ControllerMain" style="stroke: #A80036; stroke-width: 1.0;"/><polygon fill="#A80036" points="175,228.67,179,219.67,175,223.67,171,219.67,175,228.67" style="stroke: #A80036; stroke-width: 1.0;"/><line style="stroke: #A80036; stroke-width: 1.0;" x1="175" x2="175" y1="223.67" y2="215.67"/><polygon fill="#A80036" points="175,137.83,171,143.83,175,149.83,179,143.83,175,137.83" style="stroke: #A80036; stroke-width: 1.0;"/><!--MD5=[3453fbfbe413b3ecf191eeee742f9808]
@startuml

hide empty attributes
hide empty methods

class App {
	-{static}lang_resource : ResourceBundle
	-{static}num_locale : NumberFormat
}


package model {
    class ModelRoom
    class ModelGame
    class ModelStat
    class ModelOption {
    	-language : string
	    -volume : double
	    -h_window : int
	    -w_window : int
    }
    class ModelSave {
    	-info_pet : list<string>
    	-info_opt : list<string>
    	-info_gme : list<string>
    	-info_usr : list<string>
    }
    interface ModelPet
    class Robot
    class Animal
    
    ModelPet <|.. Robot
    ModelPet <|.. Animal
    Animal o- -> ModelStat
    Robot o- -> ModelStat
    ModelGame o- -> ModelPet
    ModelGame o- -> ModelRoom
    ModelGame ..> ModelSave
}

package view {
	class ViewMain
    class ViewPet
    class ViewRoom
    class ViewStat
    class ViewMenu
    class ViewCustomPet
    class ViewLoad
    class ViewAction
    class ViewOption
    class ViewGame
    class ViewHUD
    
    ViewMain o- -> ViewGame
    ViewMain o- -> ViewMenu
    ViewMenu *- -> ViewOption
    ViewMenu *- -> ViewCustomPet
    ViewMenu *- -> ViewLoad
    ViewGame *- -> ViewHUD
    ViewHUD  *- -> ViewAction
    ViewHUD  o- -> ViewStat
    ViewGame o- -> ViewRoom
    ViewGame o- -> ViewPet
}

package Controller {
    class ControllerMain {
    	-ModelSave
    }
    
    class ControllerPet {
        -ModelPet
        -ViewPet
    }
    class ControllerRoom {
        -ModelRoom
        -ViewRoom
    }
    class ControllerStat {
        -ModelStat
        -ViewStat
    }
    class ControllerMenu {
        -ModelOption
        -ViewMenu
    }
    class ControllerGame {
        -ModelGame
        -ViewGame
    }
    
    ControllerPet *- -> ControllerStat
    ControllerGame *- -> ControllerPet
    ControllerGame *- -> ControllerRoom
    ControllerMain *- -> ControllerGame 
    ControllerMain *- -> ControllerMenu
    
}

App *- -> ControllerMain

@enduml

PlantUML version 1.2020.02(Sun Mar 01 11:22:07 CET 2020)
(GPL source distribution)
Java Runtime: OpenJDK Runtime Environment
JVM: OpenJDK 64-Bit Server VM
Java Version: 17.0.5+8-Debian-2
Operating System: Linux
Default Encoding: UTF-8
Language: fr
Country: FR
--></g></svg>