<?xml version="1.0" encoding="UTF-8" standalone="no"?><svg xmlns="http://www.w3.org/2000/svg" xmlns:xlink="http://www.w3.org/1999/xlink" contentScriptType="application/ecmascript" contentStyleType="text/css" height="623px" preserveAspectRatio="none" style="width:1871px;height:623px;" version="1.1" viewBox="0 0 1871 623" width="1871px" zoomAndPan="magnify"><defs><filter height="300%" id="fglehj43rs8n4" width="300%" x="-1" y="-1"><feGaussianBlur result="blurOut" stdDeviation="2.0"/><feColorMatrix in="blurOut" result="blurOut2" type="matrix" values="0 0 0 0 0 0 0 0 0 0 0 0 0 0 0 0 0 0 .4 0"/><feOffset dx="4.0" dy="4.0" in="blurOut2" result="blurOut3"/><feBlend in="SourceGraphic" in2="blurOut3" mode="normal"/></filter></defs><g><!--MD5=[5d4cd377749310b66bf14896f5cd8d9b]
cluster model--><polygon fill="#FFFFFF" filter="url(#fglehj43rs8n4)" points="511,24,565,24,572,46.2969,1022,46.2969,1022,468,511,468,511,24" style="stroke: #000000; stroke-width: 1.5;"/><line style="stroke: #000000; stroke-width: 1.5;" x1="511" x2="572" y1="46.2969" y2="46.2969"/><text fill="#000000" font-family="sans-serif" font-size="14" font-weight="bold" lengthAdjust="spacingAndGlyphs" textLength="48" x="515" y="38.9951">model</text><!--MD5=[86cbce8df1eb9d604fbbb2fa357940f8]
cluster view--><polygon fill="#FFFFFF" filter="url(#fglehj43rs8n4)" points="1046,24,1089,24,1096,46.2969,1849,46.2969,1849,216,1046,216,1046,24" style="stroke: #000000; stroke-width: 1.5;"/><line style="stroke: #000000; stroke-width: 1.5;" x1="1046" x2="1096" y1="46.2969" y2="46.2969"/><text fill="#000000" font-family="sans-serif" font-size="14" font-weight="bold" lengthAdjust="spacingAndGlyphs" textLength="37" x="1050" y="38.9951">view</text><!--MD5=[1f2cfc53d9d308f53762fd0fcbaa4873]
cluster Controller--><polygon fill="#FFFFFF" filter="url(#fglehj43rs8n4)" points="22,133,107,133,114,155.2969,346,155.2969,346,611,22,611,22,133" style="stroke: #000000; stroke-width: 1.5;"/><line style="stroke: #000000; stroke-width: 1.5;" x1="22" x2="114" y1="155.2969" y2="155.2969"/><text fill="#000000" font-family="sans-serif" font-size="14" font-weight="bold" lengthAdjust="spacingAndGlyphs" textLength="79" x="26" y="147.9951">Controller</text><!--MD5=[42b6c9b95235c21ed83560c01266501d]
class ModelPet--><rect fill="#FEFECE" filter="url(#fglehj43rs8n4)" height="32" id="ModelPet" style="stroke: #A80036; stroke-width: 1.5;" width="90" x="632" y="168"/><ellipse cx="647" cy="184" fill="#ADD1B2" rx="11" ry="11" style="stroke: #A80036; stroke-width: 1.0;"/><path d="M649.9688,189.6406 Q649.3906,189.9375 648.75,190.0781 Q648.1094,190.2344 647.4063,190.2344 Q644.9063,190.2344 643.5781,188.5938 Q642.2656,186.9375 642.2656,183.8125 Q642.2656,180.6875 643.5781,179.0313 Q644.9063,177.375 647.4063,177.375 Q648.1094,177.375 648.75,177.5313 Q649.4063,177.6875 649.9688,177.9844 L649.9688,180.7031 Q649.3438,180.125 648.75,179.8594 Q648.1563,179.5781 647.5313,179.5781 Q646.1875,179.5781 645.5,180.6563 Q644.8125,181.7188 644.8125,183.8125 Q644.8125,185.9063 645.5,186.9844 Q646.1875,188.0469 647.5313,188.0469 Q648.1563,188.0469 648.75,187.7813 Q649.3438,187.5 649.9688,186.9219 L649.9688,189.6406 Z "/><text fill="#000000" font-family="sans-serif" font-size="12" lengthAdjust="spacingAndGlyphs" textLength="58" x="661" y="188.1543">ModelPet</text><!--MD5=[ce588b4fa91533db47d899c6e7055886]
class ModelRoom--><rect fill="#FEFECE" filter="url(#fglehj43rs8n4)" height="32" id="ModelRoom" style="stroke: #A80036; stroke-width: 1.5;" width="104" x="757" y="168"/><ellipse cx="772" cy="184" fill="#ADD1B2" rx="11" ry="11" style="stroke: #A80036; stroke-width: 1.0;"/><path d="M774.9688,189.6406 Q774.3906,189.9375 773.75,190.0781 Q773.1094,190.2344 772.4063,190.2344 Q769.9063,190.2344 768.5781,188.5938 Q767.2656,186.9375 767.2656,183.8125 Q767.2656,180.6875 768.5781,179.0313 Q769.9063,177.375 772.4063,177.375 Q773.1094,177.375 773.75,177.5313 Q774.4063,177.6875 774.9688,177.9844 L774.9688,180.7031 Q774.3438,180.125 773.75,179.8594 Q773.1563,179.5781 772.5313,179.5781 Q771.1875,179.5781 770.5,180.6563 Q769.8125,181.7188 769.8125,183.8125 Q769.8125,185.9063 770.5,186.9844 Q771.1875,188.0469 772.5313,188.0469 Q773.1563,188.0469 773.75,187.7813 Q774.3438,187.5 774.9688,186.9219 L774.9688,189.6406 Z "/><text fill="#000000" font-family="sans-serif" font-size="12" lengthAdjust="spacingAndGlyphs" textLength="72" x="786" y="188.1543">ModelRoom</text><!--MD5=[5ef06c8862a4439f35d8b1de5f55aae6]
class ModelGame--><rect fill="#FEFECE" filter="url(#fglehj43rs8n4)" height="32" id="ModelGame" style="stroke: #A80036; stroke-width: 1.5;" width="105" x="756.5" y="59"/><ellipse cx="771.5" cy="75" fill="#ADD1B2" rx="11" ry="11" style="stroke: #A80036; stroke-width: 1.0;"/><path d="M774.4688,80.6406 Q773.8906,80.9375 773.25,81.0781 Q772.6094,81.2344 771.9063,81.2344 Q769.4063,81.2344 768.0781,79.5938 Q766.7656,77.9375 766.7656,74.8125 Q766.7656,71.6875 768.0781,70.0313 Q769.4063,68.375 771.9063,68.375 Q772.6094,68.375 773.25,68.5313 Q773.9063,68.6875 774.4688,68.9844 L774.4688,71.7031 Q773.8438,71.125 773.25,70.8594 Q772.6563,70.5781 772.0313,70.5781 Q770.6875,70.5781 770,71.6563 Q769.3125,72.7188 769.3125,74.8125 Q769.3125,76.9063 770,77.9844 Q770.6875,79.0469 772.0313,79.0469 Q772.6563,79.0469 773.25,78.7813 Q773.8438,78.5 774.4688,77.9219 L774.4688,80.6406 Z "/><text fill="#000000" font-family="sans-serif" font-size="12" lengthAdjust="spacingAndGlyphs" textLength="73" x="785.5" y="79.1543">ModelGame</text><!--MD5=[9a411119b15aaa1f323289dd6a5d4481]
class ModelOption--><rect fill="#FEFECE" filter="url(#fglehj43rs8n4)" height="65.6094" id="ModelOption" style="stroke: #A80036; stroke-width: 1.5;" width="110" x="896" y="151"/><ellipse cx="911" cy="167" fill="#ADD1B2" rx="11" ry="11" style="stroke: #A80036; stroke-width: 1.0;"/><path d="M913.9688,172.6406 Q913.3906,172.9375 912.75,173.0781 Q912.1094,173.2344 911.4063,173.2344 Q908.9063,173.2344 907.5781,171.5938 Q906.2656,169.9375 906.2656,166.8125 Q906.2656,163.6875 907.5781,162.0313 Q908.9063,160.375 911.4063,160.375 Q912.1094,160.375 912.75,160.5313 Q913.4063,160.6875 913.9688,160.9844 L913.9688,163.7031 Q913.3438,163.125 912.75,162.8594 Q912.1563,162.5781 911.5313,162.5781 Q910.1875,162.5781 909.5,163.6563 Q908.8125,164.7188 908.8125,166.8125 Q908.8125,168.9063 909.5,169.9844 Q910.1875,171.0469 911.5313,171.0469 Q912.1563,171.0469 912.75,170.7813 Q913.3438,170.5 913.9688,169.9219 L913.9688,172.6406 Z "/><text fill="#000000" font-family="sans-serif" font-size="12" lengthAdjust="spacingAndGlyphs" textLength="78" x="925" y="171.1543">ModelOption</text><line style="stroke: #A80036; stroke-width: 1.5;" x1="897" x2="1005" y1="183" y2="183"/><rect fill="none" height="6" style="stroke: #C82930; stroke-width: 1.0;" width="6" x="904" y="191"/><text fill="#000000" font-family="sans-serif" font-size="11" lengthAdjust="spacingAndGlyphs" textLength="61" x="916" y="197.2104">String lang</text><rect fill="none" height="6" style="stroke: #C82930; stroke-width: 1.0;" width="6" x="904" y="203.8047"/><text fill="#000000" font-family="sans-serif" font-size="11" lengthAdjust="spacingAndGlyphs" textLength="77" x="916" y="210.0151">Double sound</text><!--MD5=[93eb20994f674771d0d73131508a8777]
class ModelStat--><rect fill="#FEFECE" filter="url(#fglehj43rs8n4)" height="32" id="ModelStat" style="stroke: #A80036; stroke-width: 1.5;" width="92" x="675" y="294"/><ellipse cx="690" cy="310" fill="#B4A7E5" rx="11" ry="11" style="stroke: #A80036; stroke-width: 1.0;"/><path d="M685.9219,305.7656 L685.9219,303.6094 L693.3125,303.6094 L693.3125,305.7656 L690.8438,305.7656 L690.8438,313.8438 L693.3125,313.8438 L693.3125,316 L685.9219,316 L685.9219,313.8438 L688.3906,313.8438 L688.3906,305.7656 L685.9219,305.7656 Z "/><text fill="#000000" font-family="sans-serif" font-size="12" font-style="italic" lengthAdjust="spacingAndGlyphs" textLength="60" x="704" y="314.1543">ModelStat</text><!--MD5=[5b4460e97222b45c9cf25eacd4639dbc]
class Food--><rect fill="#FEFECE" filter="url(#fglehj43rs8n4)" height="32" id="Food" style="stroke: #A80036; stroke-width: 1.5;" width="63" x="527.5" y="420"/><ellipse cx="542.5" cy="436" fill="#ADD1B2" rx="11" ry="11" style="stroke: #A80036; stroke-width: 1.0;"/><path d="M545.4688,441.6406 Q544.8906,441.9375 544.25,442.0781 Q543.6094,442.2344 542.9063,442.2344 Q540.4063,442.2344 539.0781,440.5938 Q537.7656,438.9375 537.7656,435.8125 Q537.7656,432.6875 539.0781,431.0313 Q540.4063,429.375 542.9063,429.375 Q543.6094,429.375 544.25,429.5313 Q544.9063,429.6875 545.4688,429.9844 L545.4688,432.7031 Q544.8438,432.125 544.25,431.8594 Q543.6563,431.5781 543.0313,431.5781 Q541.6875,431.5781 541,432.6563 Q540.3125,433.7188 540.3125,435.8125 Q540.3125,437.9063 541,438.9844 Q541.6875,440.0469 543.0313,440.0469 Q543.6563,440.0469 544.25,439.7813 Q544.8438,439.5 545.4688,438.9219 L545.4688,441.6406 Z "/><text fill="#000000" font-family="sans-serif" font-size="12" lengthAdjust="spacingAndGlyphs" textLength="31" x="556.5" y="440.1543">Food</text><!--MD5=[0dcf86fc0345c3fa9c3f2e2664f55d3f]
class Sleep--><rect fill="#FEFECE" filter="url(#fglehj43rs8n4)" height="32" id="Sleep" style="stroke: #A80036; stroke-width: 1.5;" width="67" x="625.5" y="420"/><ellipse cx="640.5" cy="436" fill="#ADD1B2" rx="11" ry="11" style="stroke: #A80036; stroke-width: 1.0;"/><path d="M643.4688,441.6406 Q642.8906,441.9375 642.25,442.0781 Q641.6094,442.2344 640.9063,442.2344 Q638.4063,442.2344 637.0781,440.5938 Q635.7656,438.9375 635.7656,435.8125 Q635.7656,432.6875 637.0781,431.0313 Q638.4063,429.375 640.9063,429.375 Q641.6094,429.375 642.25,429.5313 Q642.9063,429.6875 643.4688,429.9844 L643.4688,432.7031 Q642.8438,432.125 642.25,431.8594 Q641.6563,431.5781 641.0313,431.5781 Q639.6875,431.5781 639,432.6563 Q638.3125,433.7188 638.3125,435.8125 Q638.3125,437.9063 639,438.9844 Q639.6875,440.0469 641.0313,440.0469 Q641.6563,440.0469 642.25,439.7813 Q642.8438,439.5 643.4688,438.9219 L643.4688,441.6406 Z "/><text fill="#000000" font-family="sans-serif" font-size="12" lengthAdjust="spacingAndGlyphs" textLength="35" x="654.5" y="440.1543">Sleep</text><!--MD5=[b8ca79fd367f79be7dbbd127290f5300]
class Weight--><rect fill="#FEFECE" filter="url(#fglehj43rs8n4)" height="32" id="Weight" style="stroke: #A80036; stroke-width: 1.5;" width="75" x="727.5" y="420"/><ellipse cx="742.5" cy="436" fill="#ADD1B2" rx="11" ry="11" style="stroke: #A80036; stroke-width: 1.0;"/><path d="M745.4688,441.6406 Q744.8906,441.9375 744.25,442.0781 Q743.6094,442.2344 742.9063,442.2344 Q740.4063,442.2344 739.0781,440.5938 Q737.7656,438.9375 737.7656,435.8125 Q737.7656,432.6875 739.0781,431.0313 Q740.4063,429.375 742.9063,429.375 Q743.6094,429.375 744.25,429.5313 Q744.9063,429.6875 745.4688,429.9844 L745.4688,432.7031 Q744.8438,432.125 744.25,431.8594 Q743.6563,431.5781 743.0313,431.5781 Q741.6875,431.5781 741,432.6563 Q740.3125,433.7188 740.3125,435.8125 Q740.3125,437.9063 741,438.9844 Q741.6875,440.0469 743.0313,440.0469 Q743.6563,440.0469 744.25,439.7813 Q744.8438,439.5 745.4688,438.9219 L745.4688,441.6406 Z "/><text fill="#000000" font-family="sans-serif" font-size="12" lengthAdjust="spacingAndGlyphs" textLength="43" x="756.5" y="440.1543">Weight</text><!--MD5=[b666994a49ab4e34c628b20978d83d67]
class Thirst--><rect fill="#FEFECE" filter="url(#fglehj43rs8n4)" height="32" id="Thirst" style="stroke: #A80036; stroke-width: 1.5;" width="67" x="837.5" y="420"/><ellipse cx="852.5" cy="436" fill="#ADD1B2" rx="11" ry="11" style="stroke: #A80036; stroke-width: 1.0;"/><path d="M855.4688,441.6406 Q854.8906,441.9375 854.25,442.0781 Q853.6094,442.2344 852.9063,442.2344 Q850.4063,442.2344 849.0781,440.5938 Q847.7656,438.9375 847.7656,435.8125 Q847.7656,432.6875 849.0781,431.0313 Q850.4063,429.375 852.9063,429.375 Q853.6094,429.375 854.25,429.5313 Q854.9063,429.6875 855.4688,429.9844 L855.4688,432.7031 Q854.8438,432.125 854.25,431.8594 Q853.6563,431.5781 853.0313,431.5781 Q851.6875,431.5781 851,432.6563 Q850.3125,433.7188 850.3125,435.8125 Q850.3125,437.9063 851,438.9844 Q851.6875,440.0469 853.0313,440.0469 Q853.6563,440.0469 854.25,439.7813 Q854.8438,439.5 855.4688,438.9219 L855.4688,441.6406 Z "/><text fill="#000000" font-family="sans-serif" font-size="12" lengthAdjust="spacingAndGlyphs" textLength="35" x="866.5" y="440.1543">Thirst</text><!--MD5=[e6a74b0f1bfbb959c535641963bab7b9]
class Moral--><rect fill="#FEFECE" filter="url(#fglehj43rs8n4)" height="32" id="Moral" style="stroke: #A80036; stroke-width: 1.5;" width="66" x="940" y="420"/><ellipse cx="955" cy="436" fill="#ADD1B2" rx="11" ry="11" style="stroke: #A80036; stroke-width: 1.0;"/><path d="M957.9688,441.6406 Q957.3906,441.9375 956.75,442.0781 Q956.1094,442.2344 955.4063,442.2344 Q952.9063,442.2344 951.5781,440.5938 Q950.2656,438.9375 950.2656,435.8125 Q950.2656,432.6875 951.5781,431.0313 Q952.9063,429.375 955.4063,429.375 Q956.1094,429.375 956.75,429.5313 Q957.4063,429.6875 957.9688,429.9844 L957.9688,432.7031 Q957.3438,432.125 956.75,431.8594 Q956.1563,431.5781 955.5313,431.5781 Q954.1875,431.5781 953.5,432.6563 Q952.8125,433.7188 952.8125,435.8125 Q952.8125,437.9063 953.5,438.9844 Q954.1875,440.0469 955.5313,440.0469 Q956.1563,440.0469 956.75,439.7813 Q957.3438,439.5 957.9688,438.9219 L957.9688,441.6406 Z "/><text fill="#000000" font-family="sans-serif" font-size="12" lengthAdjust="spacingAndGlyphs" textLength="34" x="969" y="440.1543">Moral</text><!--MD5=[66004aa1b2b41dfc3553a089f11ca636]
class ViewPet--><rect fill="#FEFECE" filter="url(#fglehj43rs8n4)" height="32" id="ViewPet" style="stroke: #A80036; stroke-width: 1.5;" width="81" x="1062.5" y="168"/><ellipse cx="1077.5" cy="184" fill="#ADD1B2" rx="11" ry="11" style="stroke: #A80036; stroke-width: 1.0;"/><path d="M1080.4688,189.6406 Q1079.8906,189.9375 1079.25,190.0781 Q1078.6094,190.2344 1077.9063,190.2344 Q1075.4063,190.2344 1074.0781,188.5938 Q1072.7656,186.9375 1072.7656,183.8125 Q1072.7656,180.6875 1074.0781,179.0313 Q1075.4063,177.375 1077.9063,177.375 Q1078.6094,177.375 1079.25,177.5313 Q1079.9063,177.6875 1080.4688,177.9844 L1080.4688,180.7031 Q1079.8438,180.125 1079.25,179.8594 Q1078.6563,179.5781 1078.0313,179.5781 Q1076.6875,179.5781 1076,180.6563 Q1075.3125,181.7188 1075.3125,183.8125 Q1075.3125,185.9063 1076,186.9844 Q1076.6875,188.0469 1078.0313,188.0469 Q1078.6563,188.0469 1079.25,187.7813 Q1079.8438,187.5 1080.4688,186.9219 L1080.4688,189.6406 Z "/><text fill="#000000" font-family="sans-serif" font-size="12" lengthAdjust="spacingAndGlyphs" textLength="49" x="1091.5" y="188.1543">ViewPet</text><!--MD5=[27e4653765d9e56603ae0db51ef372f2]
class ViewRoom--><rect fill="#FEFECE" filter="url(#fglehj43rs8n4)" height="32" id="ViewRoom" style="stroke: #A80036; stroke-width: 1.5;" width="95" x="1178.5" y="168"/><ellipse cx="1193.5" cy="184" fill="#ADD1B2" rx="11" ry="11" style="stroke: #A80036; stroke-width: 1.0;"/><path d="M1196.4688,189.6406 Q1195.8906,189.9375 1195.25,190.0781 Q1194.6094,190.2344 1193.9063,190.2344 Q1191.4063,190.2344 1190.0781,188.5938 Q1188.7656,186.9375 1188.7656,183.8125 Q1188.7656,180.6875 1190.0781,179.0313 Q1191.4063,177.375 1193.9063,177.375 Q1194.6094,177.375 1195.25,177.5313 Q1195.9063,177.6875 1196.4688,177.9844 L1196.4688,180.7031 Q1195.8438,180.125 1195.25,179.8594 Q1194.6563,179.5781 1194.0313,179.5781 Q1192.6875,179.5781 1192,180.6563 Q1191.3125,181.7188 1191.3125,183.8125 Q1191.3125,185.9063 1192,186.9844 Q1192.6875,188.0469 1194.0313,188.0469 Q1194.6563,188.0469 1195.25,187.7813 Q1195.8438,187.5 1196.4688,186.9219 L1196.4688,189.6406 Z "/><text fill="#000000" font-family="sans-serif" font-size="12" lengthAdjust="spacingAndGlyphs" textLength="63" x="1207.5" y="188.1543">ViewRoom</text><!--MD5=[fe60a39180a13549a61d1a377547b35e]
class ViewStat--><rect fill="#FEFECE" filter="url(#fglehj43rs8n4)" height="32" id="ViewStat" style="stroke: #A80036; stroke-width: 1.5;" width="86" x="1740" y="59"/><ellipse cx="1755" cy="75" fill="#ADD1B2" rx="11" ry="11" style="stroke: #A80036; stroke-width: 1.0;"/><path d="M1757.9688,80.6406 Q1757.3906,80.9375 1756.75,81.0781 Q1756.1094,81.2344 1755.4063,81.2344 Q1752.9063,81.2344 1751.5781,79.5938 Q1750.2656,77.9375 1750.2656,74.8125 Q1750.2656,71.6875 1751.5781,70.0313 Q1752.9063,68.375 1755.4063,68.375 Q1756.1094,68.375 1756.75,68.5313 Q1757.4063,68.6875 1757.9688,68.9844 L1757.9688,71.7031 Q1757.3438,71.125 1756.75,70.8594 Q1756.1563,70.5781 1755.5313,70.5781 Q1754.1875,70.5781 1753.5,71.6563 Q1752.8125,72.7188 1752.8125,74.8125 Q1752.8125,76.9063 1753.5,77.9844 Q1754.1875,79.0469 1755.5313,79.0469 Q1756.1563,79.0469 1756.75,78.7813 Q1757.3438,78.5 1757.9688,77.9219 L1757.9688,80.6406 Z "/><text fill="#000000" font-family="sans-serif" font-size="12" lengthAdjust="spacingAndGlyphs" textLength="54" x="1769" y="79.1543">ViewStat</text><!--MD5=[9e3e829b1d67d6c705c38104337e7cce]
class ViewMenu--><rect fill="#FEFECE" filter="url(#fglehj43rs8n4)" height="32" id="ViewMenu" style="stroke: #A80036; stroke-width: 1.5;" width="94" x="1604" y="59"/><ellipse cx="1619" cy="75" fill="#ADD1B2" rx="11" ry="11" style="stroke: #A80036; stroke-width: 1.0;"/><path d="M1621.9688,80.6406 Q1621.3906,80.9375 1620.75,81.0781 Q1620.1094,81.2344 1619.4063,81.2344 Q1616.9063,81.2344 1615.5781,79.5938 Q1614.2656,77.9375 1614.2656,74.8125 Q1614.2656,71.6875 1615.5781,70.0313 Q1616.9063,68.375 1619.4063,68.375 Q1620.1094,68.375 1620.75,68.5313 Q1621.4063,68.6875 1621.9688,68.9844 L1621.9688,71.7031 Q1621.3438,71.125 1620.75,70.8594 Q1620.1563,70.5781 1619.5313,70.5781 Q1618.1875,70.5781 1617.5,71.6563 Q1616.8125,72.7188 1616.8125,74.8125 Q1616.8125,76.9063 1617.5,77.9844 Q1618.1875,79.0469 1619.5313,79.0469 Q1620.1563,79.0469 1620.75,78.7813 Q1621.3438,78.5 1621.9688,77.9219 L1621.9688,80.6406 Z "/><text fill="#000000" font-family="sans-serif" font-size="12" lengthAdjust="spacingAndGlyphs" textLength="62" x="1633" y="79.1543">ViewMenu</text><!--MD5=[bb8139252ab9d60963f0ad3aa85822d8]
class ViewCustomPet--><rect fill="#FEFECE" filter="url(#fglehj43rs8n4)" height="32" id="ViewCustomPet" style="stroke: #A80036; stroke-width: 1.5;" width="128" x="1443" y="168"/><ellipse cx="1458" cy="184" fill="#ADD1B2" rx="11" ry="11" style="stroke: #A80036; stroke-width: 1.0;"/><path d="M1460.9688,189.6406 Q1460.3906,189.9375 1459.75,190.0781 Q1459.1094,190.2344 1458.4063,190.2344 Q1455.9063,190.2344 1454.5781,188.5938 Q1453.2656,186.9375 1453.2656,183.8125 Q1453.2656,180.6875 1454.5781,179.0313 Q1455.9063,177.375 1458.4063,177.375 Q1459.1094,177.375 1459.75,177.5313 Q1460.4063,177.6875 1460.9688,177.9844 L1460.9688,180.7031 Q1460.3438,180.125 1459.75,179.8594 Q1459.1563,179.5781 1458.5313,179.5781 Q1457.1875,179.5781 1456.5,180.6563 Q1455.8125,181.7188 1455.8125,183.8125 Q1455.8125,185.9063 1456.5,186.9844 Q1457.1875,188.0469 1458.5313,188.0469 Q1459.1563,188.0469 1459.75,187.7813 Q1460.3438,187.5 1460.9688,186.9219 L1460.9688,189.6406 Z "/><text fill="#000000" font-family="sans-serif" font-size="12" lengthAdjust="spacingAndGlyphs" textLength="96" x="1472" y="188.1543">ViewCustomPet</text><!--MD5=[d18d64f195106826546ed42fd601b6d0]
class ViewLoad--><rect fill="#FEFECE" filter="url(#fglehj43rs8n4)" height="32" id="ViewLoad" style="stroke: #A80036; stroke-width: 1.5;" width="90" x="1606" y="168"/><ellipse cx="1621" cy="184" fill="#ADD1B2" rx="11" ry="11" style="stroke: #A80036; stroke-width: 1.0;"/><path d="M1623.9688,189.6406 Q1623.3906,189.9375 1622.75,190.0781 Q1622.1094,190.2344 1621.4063,190.2344 Q1618.9063,190.2344 1617.5781,188.5938 Q1616.2656,186.9375 1616.2656,183.8125 Q1616.2656,180.6875 1617.5781,179.0313 Q1618.9063,177.375 1621.4063,177.375 Q1622.1094,177.375 1622.75,177.5313 Q1623.4063,177.6875 1623.9688,177.9844 L1623.9688,180.7031 Q1623.3438,180.125 1622.75,179.8594 Q1622.1563,179.5781 1621.5313,179.5781 Q1620.1875,179.5781 1619.5,180.6563 Q1618.8125,181.7188 1618.8125,183.8125 Q1618.8125,185.9063 1619.5,186.9844 Q1620.1875,188.0469 1621.5313,188.0469 Q1622.1563,188.0469 1622.75,187.7813 Q1623.3438,187.5 1623.9688,186.9219 L1623.9688,189.6406 Z "/><text fill="#000000" font-family="sans-serif" font-size="12" lengthAdjust="spacingAndGlyphs" textLength="58" x="1635" y="188.1543">ViewLoad</text><!--MD5=[363299a84393b04db7416c04d3062cf1]
class ViewAction--><rect fill="#FEFECE" filter="url(#fglehj43rs8n4)" height="32" id="ViewAction" style="stroke: #A80036; stroke-width: 1.5;" width="99" x="1308.5" y="168"/><ellipse cx="1323.5" cy="184" fill="#ADD1B2" rx="11" ry="11" style="stroke: #A80036; stroke-width: 1.0;"/><path d="M1326.4688,189.6406 Q1325.8906,189.9375 1325.25,190.0781 Q1324.6094,190.2344 1323.9063,190.2344 Q1321.4063,190.2344 1320.0781,188.5938 Q1318.7656,186.9375 1318.7656,183.8125 Q1318.7656,180.6875 1320.0781,179.0313 Q1321.4063,177.375 1323.9063,177.375 Q1324.6094,177.375 1325.25,177.5313 Q1325.9063,177.6875 1326.4688,177.9844 L1326.4688,180.7031 Q1325.8438,180.125 1325.25,179.8594 Q1324.6563,179.5781 1324.0313,179.5781 Q1322.6875,179.5781 1322,180.6563 Q1321.3125,181.7188 1321.3125,183.8125 Q1321.3125,185.9063 1322,186.9844 Q1322.6875,188.0469 1324.0313,188.0469 Q1324.6563,188.0469 1325.25,187.7813 Q1325.8438,187.5 1326.4688,186.9219 L1326.4688,189.6406 Z "/><text fill="#000000" font-family="sans-serif" font-size="12" lengthAdjust="spacingAndGlyphs" textLength="67" x="1337.5" y="188.1543">ViewAction</text><!--MD5=[47d553743e6c0f650877be889f88f64f]
class ViewOption--><rect fill="#FEFECE" filter="url(#fglehj43rs8n4)" height="32" id="ViewOption" style="stroke: #A80036; stroke-width: 1.5;" width="101" x="1731.5" y="168"/><ellipse cx="1746.5" cy="184" fill="#ADD1B2" rx="11" ry="11" style="stroke: #A80036; stroke-width: 1.0;"/><path d="M1749.4688,189.6406 Q1748.8906,189.9375 1748.25,190.0781 Q1747.6094,190.2344 1746.9063,190.2344 Q1744.4063,190.2344 1743.0781,188.5938 Q1741.7656,186.9375 1741.7656,183.8125 Q1741.7656,180.6875 1743.0781,179.0313 Q1744.4063,177.375 1746.9063,177.375 Q1747.6094,177.375 1748.25,177.5313 Q1748.9063,177.6875 1749.4688,177.9844 L1749.4688,180.7031 Q1748.8438,180.125 1748.25,179.8594 Q1747.6563,179.5781 1747.0313,179.5781 Q1745.6875,179.5781 1745,180.6563 Q1744.3125,181.7188 1744.3125,183.8125 Q1744.3125,185.9063 1745,186.9844 Q1745.6875,188.0469 1747.0313,188.0469 Q1747.6563,188.0469 1748.25,187.7813 Q1748.8438,187.5 1749.4688,186.9219 L1749.4688,189.6406 Z "/><text fill="#000000" font-family="sans-serif" font-size="12" lengthAdjust="spacingAndGlyphs" textLength="69" x="1760.5" y="188.1543">ViewOption</text><!--MD5=[7ef7df81153a108328eb7a5b9355a136]
class ViewGame--><rect fill="#FEFECE" filter="url(#fglehj43rs8n4)" height="32" id="ViewGame" style="stroke: #A80036; stroke-width: 1.5;" width="96" x="1178" y="59"/><ellipse cx="1193" cy="75" fill="#ADD1B2" rx="11" ry="11" style="stroke: #A80036; stroke-width: 1.0;"/><path d="M1195.9688,80.6406 Q1195.3906,80.9375 1194.75,81.0781 Q1194.1094,81.2344 1193.4063,81.2344 Q1190.9063,81.2344 1189.5781,79.5938 Q1188.2656,77.9375 1188.2656,74.8125 Q1188.2656,71.6875 1189.5781,70.0313 Q1190.9063,68.375 1193.4063,68.375 Q1194.1094,68.375 1194.75,68.5313 Q1195.4063,68.6875 1195.9688,68.9844 L1195.9688,71.7031 Q1195.3438,71.125 1194.75,70.8594 Q1194.1563,70.5781 1193.5313,70.5781 Q1192.1875,70.5781 1191.5,71.6563 Q1190.8125,72.7188 1190.8125,74.8125 Q1190.8125,76.9063 1191.5,77.9844 Q1192.1875,79.0469 1193.5313,79.0469 Q1194.1563,79.0469 1194.75,78.7813 Q1195.3438,78.5 1195.9688,77.9219 L1195.9688,80.6406 Z "/><text fill="#000000" font-family="sans-serif" font-size="12" lengthAdjust="spacingAndGlyphs" textLength="64" x="1207" y="79.1543">ViewGame</text><!--MD5=[b4d764e3c38fb7b1af6f2a8a636bdd8c]
class ControllerMain--><rect fill="#FEFECE" filter="url(#fglehj43rs8n4)" height="32" id="ControllerMain" style="stroke: #A80036; stroke-width: 1.5;" width="122" x="204" y="168"/><ellipse cx="219" cy="184" fill="#ADD1B2" rx="11" ry="11" style="stroke: #A80036; stroke-width: 1.0;"/><path d="M221.9688,189.6406 Q221.3906,189.9375 220.75,190.0781 Q220.1094,190.2344 219.4063,190.2344 Q216.9063,190.2344 215.5781,188.5938 Q214.2656,186.9375 214.2656,183.8125 Q214.2656,180.6875 215.5781,179.0313 Q216.9063,177.375 219.4063,177.375 Q220.1094,177.375 220.75,177.5313 Q221.4063,177.6875 221.9688,177.9844 L221.9688,180.7031 Q221.3438,180.125 220.75,179.8594 Q220.1563,179.5781 219.5313,179.5781 Q218.1875,179.5781 217.5,180.6563 Q216.8125,181.7188 216.8125,183.8125 Q216.8125,185.9063 217.5,186.9844 Q218.1875,188.0469 219.5313,188.0469 Q220.1563,188.0469 220.75,187.7813 Q221.3438,187.5 221.9688,186.9219 L221.9688,189.6406 Z "/><text fill="#000000" font-family="sans-serif" font-size="12" lengthAdjust="spacingAndGlyphs" textLength="90" x="233" y="188.1543">ControllerMain</text><!--MD5=[a8dd5522732e18611229f49aa10f22e6]
class ControllerPet--><rect fill="#FEFECE" filter="url(#fglehj43rs8n4)" height="65.6094" id="ControllerPet" style="stroke: #A80036; stroke-width: 1.5;" width="114" x="52" y="403"/><ellipse cx="67" cy="419" fill="#ADD1B2" rx="11" ry="11" style="stroke: #A80036; stroke-width: 1.0;"/><path d="M69.9688,424.6406 Q69.3906,424.9375 68.75,425.0781 Q68.1094,425.2344 67.4063,425.2344 Q64.9063,425.2344 63.5781,423.5938 Q62.2656,421.9375 62.2656,418.8125 Q62.2656,415.6875 63.5781,414.0313 Q64.9063,412.375 67.4063,412.375 Q68.1094,412.375 68.75,412.5313 Q69.4063,412.6875 69.9688,412.9844 L69.9688,415.7031 Q69.3438,415.125 68.75,414.8594 Q68.1563,414.5781 67.5313,414.5781 Q66.1875,414.5781 65.5,415.6563 Q64.8125,416.7188 64.8125,418.8125 Q64.8125,420.9063 65.5,421.9844 Q66.1875,423.0469 67.5313,423.0469 Q68.1563,423.0469 68.75,422.7813 Q69.3438,422.5 69.9688,421.9219 L69.9688,424.6406 Z "/><text fill="#000000" font-family="sans-serif" font-size="12" lengthAdjust="spacingAndGlyphs" textLength="82" x="81" y="423.1543">ControllerPet</text><line style="stroke: #A80036; stroke-width: 1.5;" x1="53" x2="165" y1="435" y2="435"/><rect fill="none" height="6" style="stroke: #C82930; stroke-width: 1.0;" width="6" x="60" y="443"/><text fill="#000000" font-family="sans-serif" font-size="11" lengthAdjust="spacingAndGlyphs" textLength="51" x="72" y="449.2104">ModelPet</text><rect fill="none" height="6" style="stroke: #C82930; stroke-width: 1.0;" width="6" x="60" y="455.8047"/><text fill="#000000" font-family="sans-serif" font-size="11" lengthAdjust="spacingAndGlyphs" textLength="44" x="72" y="462.0151">ViewPet</text><!--MD5=[87caa93e14c110f7c3c35dde97c8934c]
class ControllerRoom--><rect fill="#FEFECE" filter="url(#fglehj43rs8n4)" height="65.6094" id="ControllerRoom" style="stroke: #A80036; stroke-width: 1.5;" width="128" x="201" y="403"/><ellipse cx="216" cy="419" fill="#ADD1B2" rx="11" ry="11" style="stroke: #A80036; stroke-width: 1.0;"/><path d="M218.9688,424.6406 Q218.3906,424.9375 217.75,425.0781 Q217.1094,425.2344 216.4063,425.2344 Q213.9063,425.2344 212.5781,423.5938 Q211.2656,421.9375 211.2656,418.8125 Q211.2656,415.6875 212.5781,414.0313 Q213.9063,412.375 216.4063,412.375 Q217.1094,412.375 217.75,412.5313 Q218.4063,412.6875 218.9688,412.9844 L218.9688,415.7031 Q218.3438,415.125 217.75,414.8594 Q217.1563,414.5781 216.5313,414.5781 Q215.1875,414.5781 214.5,415.6563 Q213.8125,416.7188 213.8125,418.8125 Q213.8125,420.9063 214.5,421.9844 Q215.1875,423.0469 216.5313,423.0469 Q217.1563,423.0469 217.75,422.7813 Q218.3438,422.5 218.9688,421.9219 L218.9688,424.6406 Z "/><text fill="#000000" font-family="sans-serif" font-size="12" lengthAdjust="spacingAndGlyphs" textLength="96" x="230" y="423.1543">ControllerRoom</text><line style="stroke: #A80036; stroke-width: 1.5;" x1="202" x2="328" y1="435" y2="435"/><rect fill="none" height="6" style="stroke: #C82930; stroke-width: 1.0;" width="6" x="209" y="443"/><text fill="#000000" font-family="sans-serif" font-size="11" lengthAdjust="spacingAndGlyphs" textLength="65" x="221" y="449.2104">ModelRoom</text><rect fill="none" height="6" style="stroke: #C82930; stroke-width: 1.0;" width="6" x="209" y="455.8047"/><text fill="#000000" font-family="sans-serif" font-size="11" lengthAdjust="spacingAndGlyphs" textLength="58" x="221" y="462.0151">ViewRoom</text><!--MD5=[a8c4fef36f1be4f4b0b1faa4659e444b]
class ControllerStat--><rect fill="#FEFECE" filter="url(#fglehj43rs8n4)" height="65.6094" id="ControllerStat" style="stroke: #A80036; stroke-width: 1.5;" width="119" x="49.5" y="529"/><ellipse cx="64.5" cy="545" fill="#ADD1B2" rx="11" ry="11" style="stroke: #A80036; stroke-width: 1.0;"/><path d="M67.4688,550.6406 Q66.8906,550.9375 66.25,551.0781 Q65.6094,551.2344 64.9063,551.2344 Q62.4063,551.2344 61.0781,549.5938 Q59.7656,547.9375 59.7656,544.8125 Q59.7656,541.6875 61.0781,540.0313 Q62.4063,538.375 64.9063,538.375 Q65.6094,538.375 66.25,538.5313 Q66.9063,538.6875 67.4688,538.9844 L67.4688,541.7031 Q66.8438,541.125 66.25,540.8594 Q65.6563,540.5781 65.0313,540.5781 Q63.6875,540.5781 63,541.6563 Q62.3125,542.7188 62.3125,544.8125 Q62.3125,546.9063 63,547.9844 Q63.6875,549.0469 65.0313,549.0469 Q65.6563,549.0469 66.25,548.7813 Q66.8438,548.5 67.4688,547.9219 L67.4688,550.6406 Z "/><text fill="#000000" font-family="sans-serif" font-size="12" lengthAdjust="spacingAndGlyphs" textLength="87" x="78.5" y="549.1543">ControllerStat</text><line style="stroke: #A80036; stroke-width: 1.5;" x1="50.5" x2="167.5" y1="561" y2="561"/><rect fill="none" height="6" style="stroke: #C82930; stroke-width: 1.0;" width="6" x="57.5" y="569"/><text fill="#000000" font-family="sans-serif" font-size="11" lengthAdjust="spacingAndGlyphs" textLength="56" x="69.5" y="575.2104">ModelStat</text><rect fill="none" height="6" style="stroke: #C82930; stroke-width: 1.0;" width="6" x="57.5" y="581.8047"/><text fill="#000000" font-family="sans-serif" font-size="11" lengthAdjust="spacingAndGlyphs" textLength="49" x="69.5" y="588.0151">ViewStat</text><!--MD5=[ad9dd60b9e2ea02c403c8610a882571c]
class ControllerMenu--><rect fill="#FEFECE" filter="url(#fglehj43rs8n4)" height="65.6094" id="ControllerMenu" style="stroke: #A80036; stroke-width: 1.5;" width="127" x="38.5" y="277"/><ellipse cx="53.5" cy="293" fill="#ADD1B2" rx="11" ry="11" style="stroke: #A80036; stroke-width: 1.0;"/><path d="M56.4688,298.6406 Q55.8906,298.9375 55.25,299.0781 Q54.6094,299.2344 53.9063,299.2344 Q51.4063,299.2344 50.0781,297.5938 Q48.7656,295.9375 48.7656,292.8125 Q48.7656,289.6875 50.0781,288.0313 Q51.4063,286.375 53.9063,286.375 Q54.6094,286.375 55.25,286.5313 Q55.9063,286.6875 56.4688,286.9844 L56.4688,289.7031 Q55.8438,289.125 55.25,288.8594 Q54.6563,288.5781 54.0313,288.5781 Q52.6875,288.5781 52,289.6563 Q51.3125,290.7188 51.3125,292.8125 Q51.3125,294.9063 52,295.9844 Q52.6875,297.0469 54.0313,297.0469 Q54.6563,297.0469 55.25,296.7813 Q55.8438,296.5 56.4688,295.9219 L56.4688,298.6406 Z "/><text fill="#000000" font-family="sans-serif" font-size="12" lengthAdjust="spacingAndGlyphs" textLength="95" x="67.5" y="297.1543">ControllerMenu</text><line style="stroke: #A80036; stroke-width: 1.5;" x1="39.5" x2="164.5" y1="309" y2="309"/><rect fill="none" height="6" style="stroke: #C82930; stroke-width: 1.0;" width="6" x="46.5" y="317"/><text fill="#000000" font-family="sans-serif" font-size="11" lengthAdjust="spacingAndGlyphs" textLength="70" x="58.5" y="323.2104">ModelOption</text><rect fill="none" height="6" style="stroke: #C82930; stroke-width: 1.0;" width="6" x="46.5" y="329.8047"/><text fill="#000000" font-family="sans-serif" font-size="11" lengthAdjust="spacingAndGlyphs" textLength="56" x="58.5" y="336.0151">ViewMenu</text><!--MD5=[a23319bb6651943ab882a8895f3a4933]
class ControllerGame--><rect fill="#FEFECE" filter="url(#fglehj43rs8n4)" height="65.6094" id="ControllerGame" style="stroke: #A80036; stroke-width: 1.5;" width="129" x="200.5" y="277"/><ellipse cx="215.5" cy="293" fill="#ADD1B2" rx="11" ry="11" style="stroke: #A80036; stroke-width: 1.0;"/><path d="M218.4688,298.6406 Q217.8906,298.9375 217.25,299.0781 Q216.6094,299.2344 215.9063,299.2344 Q213.4063,299.2344 212.0781,297.5938 Q210.7656,295.9375 210.7656,292.8125 Q210.7656,289.6875 212.0781,288.0313 Q213.4063,286.375 215.9063,286.375 Q216.6094,286.375 217.25,286.5313 Q217.9063,286.6875 218.4688,286.9844 L218.4688,289.7031 Q217.8438,289.125 217.25,288.8594 Q216.6563,288.5781 216.0313,288.5781 Q214.6875,288.5781 214,289.6563 Q213.3125,290.7188 213.3125,292.8125 Q213.3125,294.9063 214,295.9844 Q214.6875,297.0469 216.0313,297.0469 Q216.6563,297.0469 217.25,296.7813 Q217.8438,296.5 218.4688,295.9219 L218.4688,298.6406 Z "/><text fill="#000000" font-family="sans-serif" font-size="12" lengthAdjust="spacingAndGlyphs" textLength="97" x="229.5" y="297.1543">ControllerGame</text><line style="stroke: #A80036; stroke-width: 1.5;" x1="201.5" x2="328.5" y1="309" y2="309"/><rect fill="none" height="6" style="stroke: #C82930; stroke-width: 1.0;" width="6" x="208.5" y="317"/><text fill="#000000" font-family="sans-serif" font-size="11" lengthAdjust="spacingAndGlyphs" textLength="67" x="220.5" y="323.2104">ModelGame</text><rect fill="none" height="6" style="stroke: #C82930; stroke-width: 1.0;" width="6" x="208.5" y="329.8047"/><text fill="#000000" font-family="sans-serif" font-size="11" lengthAdjust="spacingAndGlyphs" textLength="60" x="220.5" y="336.0151">ViewGame</text><!--MD5=[335f4d9be48430461c68bf6d6fdba145]
class App--><rect fill="#FEFECE" filter="url(#fglehj43rs8n4)" height="32" id="App" style="stroke: #A80036; stroke-width: 1.5;" width="56" x="301" y="59"/><ellipse cx="316" cy="75" fill="#ADD1B2" rx="11" ry="11" style="stroke: #A80036; stroke-width: 1.0;"/><path d="M318.9688,80.6406 Q318.3906,80.9375 317.75,81.0781 Q317.1094,81.2344 316.4063,81.2344 Q313.9063,81.2344 312.5781,79.5938 Q311.2656,77.9375 311.2656,74.8125 Q311.2656,71.6875 312.5781,70.0313 Q313.9063,68.375 316.4063,68.375 Q317.1094,68.375 317.75,68.5313 Q318.4063,68.6875 318.9688,68.9844 L318.9688,71.7031 Q318.3438,71.125 317.75,70.8594 Q317.1563,70.5781 316.5313,70.5781 Q315.1875,70.5781 314.5,71.6563 Q313.8125,72.7188 313.8125,74.8125 Q313.8125,76.9063 314.5,77.9844 Q315.1875,79.0469 316.5313,79.0469 Q317.1563,79.0469 317.75,78.7813 Q318.3438,78.5 318.9688,77.9219 L318.9688,80.6406 Z "/><text fill="#000000" font-family="sans-serif" font-size="12" lengthAdjust="spacingAndGlyphs" textLength="24" x="330" y="79.1543">App</text><!--MD5=[d6c567a33847b77a8058f3d00eba0565]
class Lang--><rect fill="#FEFECE" filter="url(#fglehj43rs8n4)" height="32" id="Lang" style="stroke: #A80036; stroke-width: 1.5;" width="61" x="362.5" y="168"/><ellipse cx="377.5" cy="184" fill="#B4A7E5" rx="11" ry="11" style="stroke: #A80036; stroke-width: 1.0;"/><path d="M373.4219,179.7656 L373.4219,177.6094 L380.8125,177.6094 L380.8125,179.7656 L378.3438,179.7656 L378.3438,187.8438 L380.8125,187.8438 L380.8125,190 L373.4219,190 L373.4219,187.8438 L375.8906,187.8438 L375.8906,179.7656 L373.4219,179.7656 Z "/><text fill="#000000" font-family="sans-serif" font-size="12" font-style="italic" lengthAdjust="spacingAndGlyphs" textLength="29" x="391.5" y="188.1543">Lang</text><!--MD5=[e0b0f022d868ad323502bc5184d39584]
class Fr--><rect fill="#FEFECE" filter="url(#fglehj43rs8n4)" height="32" id="Fr" style="stroke: #A80036; stroke-width: 1.5;" width="44" x="368" y="294"/><ellipse cx="383" cy="310" fill="#ADD1B2" rx="11" ry="11" style="stroke: #A80036; stroke-width: 1.0;"/><path d="M385.9688,315.6406 Q385.3906,315.9375 384.75,316.0781 Q384.1094,316.2344 383.4063,316.2344 Q380.9063,316.2344 379.5781,314.5938 Q378.2656,312.9375 378.2656,309.8125 Q378.2656,306.6875 379.5781,305.0313 Q380.9063,303.375 383.4063,303.375 Q384.1094,303.375 384.75,303.5313 Q385.4063,303.6875 385.9688,303.9844 L385.9688,306.7031 Q385.3438,306.125 384.75,305.8594 Q384.1563,305.5781 383.5313,305.5781 Q382.1875,305.5781 381.5,306.6563 Q380.8125,307.7188 380.8125,309.8125 Q380.8125,311.9063 381.5,312.9844 Q382.1875,314.0469 383.5313,314.0469 Q384.1563,314.0469 384.75,313.7813 Q385.3438,313.5 385.9688,312.9219 L385.9688,315.6406 Z "/><text fill="#000000" font-family="sans-serif" font-size="12" lengthAdjust="spacingAndGlyphs" textLength="12" x="397" y="314.1543">Fr</text><!--MD5=[11aee42e7bda610f1ae7beec836b5cfb]
class En--><rect fill="#FEFECE" filter="url(#fglehj43rs8n4)" height="32" id="En" style="stroke: #A80036; stroke-width: 1.5;" width="48" x="447" y="294"/><ellipse cx="462" cy="310" fill="#ADD1B2" rx="11" ry="11" style="stroke: #A80036; stroke-width: 1.0;"/><path d="M464.9688,315.6406 Q464.3906,315.9375 463.75,316.0781 Q463.1094,316.2344 462.4063,316.2344 Q459.9063,316.2344 458.5781,314.5938 Q457.2656,312.9375 457.2656,309.8125 Q457.2656,306.6875 458.5781,305.0313 Q459.9063,303.375 462.4063,303.375 Q463.1094,303.375 463.75,303.5313 Q464.4063,303.6875 464.9688,303.9844 L464.9688,306.7031 Q464.3438,306.125 463.75,305.8594 Q463.1563,305.5781 462.5313,305.5781 Q461.1875,305.5781 460.5,306.6563 Q459.8125,307.7188 459.8125,309.8125 Q459.8125,311.9063 460.5,312.9844 Q461.1875,314.0469 462.5313,314.0469 Q463.1563,314.0469 463.75,313.7813 Q464.3438,313.5 464.9688,312.9219 L464.9688,315.6406 Z "/><text fill="#000000" font-family="sans-serif" font-size="12" lengthAdjust="spacingAndGlyphs" textLength="16" x="476" y="314.1543">En</text><!--MD5=[44ec7255984f9518cac8781f20697b6b]
link App to Lang--><path d="M338.17,91.33 C349.48,110.24 368.73,142.43 381.15,163.19 " fill="none" id="App-&gt;Lang" style="stroke: #A80036; stroke-width: 1.0; stroke-dasharray: 7.0,7.0;"/><polygon fill="#A80036" points="383.85,167.7,382.6495,157.9246,381.2775,163.4125,375.7896,162.0405,383.85,167.7" style="stroke: #A80036; stroke-width: 1.0;"/><!--MD5=[7a711561beb8c4cdf7234f3728bff315]
reverse link Lang to Fr--><path d="M392.14,220.37 C391.56,244.58 390.81,275.48 390.37,293.67 " fill="none" id="Lang&lt;-Fr" style="stroke: #A80036; stroke-width: 1.0; stroke-dasharray: 7.0,7.0;"/><polygon fill="none" points="385.15,220.03,392.63,200.2,399.15,220.37,385.15,220.03" style="stroke: #A80036; stroke-width: 1.0;"/><!--MD5=[19ab5e507920a255ac7de618dae57c4a]
reverse link Lang to En--><path d="M413.4,217.42 C428.87,242.03 449.45,274.74 461.36,293.67 " fill="none" id="Lang&lt;-En" style="stroke: #A80036; stroke-width: 1.0; stroke-dasharray: 7.0,7.0;"/><polygon fill="none" points="407.29,220.86,402.56,200.2,419.14,213.41,407.29,220.86" style="stroke: #A80036; stroke-width: 1.0;"/><!--MD5=[42b5e208bed3a4ec06b6ce70c7900f6d]
reverse link ModelStat to Food--><path d="M685.08,338.49 C652.33,363.56 605.15,399.67 578.77,419.86 " fill="none" id="ModelStat&lt;-Food" style="stroke: #A80036; stroke-width: 1.0; stroke-dasharray: 7.0,7.0;"/><polygon fill="none" points="681,332.8,701.14,326.2,689.51,343.92,681,332.8" style="stroke: #A80036; stroke-width: 1.0;"/><!--MD5=[d6c623ec2c808ba8e17ebe518a28e6bd]
reverse link ModelStat to Sleep--><path d="M704.42,344.15 C692.17,368.67 676.04,400.92 666.66,419.67 " fill="none" id="ModelStat&lt;-Sleep" style="stroke: #A80036; stroke-width: 1.0; stroke-dasharray: 7.0,7.0;"/><polygon fill="none" points="698.19,340.96,713.4,326.2,710.71,347.22,698.19,340.96" style="stroke: #A80036; stroke-width: 1.0;"/><!--MD5=[b25eaf09130dd187d484ea39712c7203]
reverse link ModelStat to Weight--><path d="M733.16,345.26 C741.8,369.63 753.01,401.2 759.56,419.67 " fill="none" id="ModelStat&lt;-Weight" style="stroke: #A80036; stroke-width: 1.0; stroke-dasharray: 7.0,7.0;"/><polygon fill="none" points="726.49,347.39,726.4,326.2,739.68,342.71,726.49,347.39" style="stroke: #A80036; stroke-width: 1.0;"/><!--MD5=[b503f6958b56d2eb8af96afa2b8cbdae]
reverse link ModelStat to Thirst--><path d="M755.05,339.15 C785.25,364.11 828.2,399.62 852.46,419.67 " fill="none" id="ModelStat&lt;-Thirst" style="stroke: #A80036; stroke-width: 1.0; stroke-dasharray: 7.0,7.0;"/><polygon fill="none" points="750.35,344.34,739.39,326.2,759.27,333.55,750.35,344.34" style="stroke: #A80036; stroke-width: 1.0;"/><!--MD5=[ed53a062ba185080cb6ad26334ef14ca]
reverse link ModelStat to Moral--><path d="M776.07,333.88 C817,351.45 873.85,377.02 922,403 C931.48,408.11 941.58,414.29 950.28,419.85 " fill="none" id="ModelStat&lt;-Moral" style="stroke: #A80036; stroke-width: 1.0; stroke-dasharray: 7.0,7.0;"/><polygon fill="none" points="773.31,340.32,757.64,326.06,778.79,327.43,773.31,340.32" style="stroke: #A80036; stroke-width: 1.0;"/><!--MD5=[679d484d0ec5c45ee4398561603d9200]
reverse link ModelPet to ModelStat--><path d="M686.74,212.46 C695.61,237.45 708.38,273.43 715.56,293.67 " fill="none" id="ModelPet&lt;-ModelStat" style="stroke: #A80036; stroke-width: 1.0;"/><polygon fill="#FFFFFF" points="682.4,200.2,680.6407,207.1932,686.4193,211.5069,688.1786,204.5136,682.4,200.2" style="stroke: #A80036; stroke-width: 1.0;"/><!--MD5=[e75d7599123d6020c26870df9debc80d]
reverse link ModelGame to ModelPet--><path d="M775.2,98.72 C763.79,106.73 751.13,115.98 740,125 C723.02,138.76 704.77,155.84 692.3,167.89 " fill="none" id="ModelGame&lt;-ModelPet" style="stroke: #A80036; stroke-width: 1.0;"/><polygon fill="#FFFFFF" points="786.1,91.19,778.8898,91.3065,776.2242,98.0068,783.4344,97.8903,786.1,91.19" style="stroke: #A80036; stroke-width: 1.0;"/><!--MD5=[5fe33b06dadbfbab2ab1b29b9177ea2a]
reverse link ModelGame to ModelRoom--><path d="M809,104.48 C809,124.77 809,151.26 809,167.7 " fill="none" id="ModelGame&lt;-ModelRoom" style="stroke: #A80036; stroke-width: 1.0;"/><polygon fill="#FFFFFF" points="809,91.33,805,97.33,809,103.33,813,97.33,809,91.33" style="stroke: #A80036; stroke-width: 1.0;"/><!--MD5=[27226d11d78e69100c4ee9a7ae710617]
reverse link ModelGame to ModelOption--><path d="M842.08,98.48 C853.86,106.66 867.14,116.09 879,125 C889.91,133.2 901.51,142.34 912.14,150.91 " fill="none" id="ModelGame&lt;-ModelOption" style="stroke: #A80036; stroke-width: 1.0;"/><polygon fill="#FFFFFF" points="831.34,91.07,834.0056,97.7703,841.2158,97.8868,838.5502,91.1865,831.34,91.07" style="stroke: #A80036; stroke-width: 1.0;"/><!--MD5=[dc9a0cf9061e5980592fd14bccfd4b22]
reverse link ViewMenu to ViewOption--><path d="M1681.11,98.98 C1691.6,107.1 1703.4,116.36 1714,125 C1731.44,139.21 1750.94,155.93 1764.57,167.76 " fill="none" id="ViewMenu&lt;-ViewOption" style="stroke: #A80036; stroke-width: 1.0;"/><polygon fill="#A80036" points="1670.76,91,1673.0687,97.8315,1680.2627,98.328,1677.954,91.4964,1670.76,91" style="stroke: #A80036; stroke-width: 1.0;"/><!--MD5=[e10526ff49d25e2e6608a2602bee142a]
reverse link ViewMenu to ViewCustomPet--><path d="M1620.22,98.87 C1592.13,119.75 1551.4,150.01 1527.22,167.97 " fill="none" id="ViewMenu&lt;-ViewCustomPet" style="stroke: #A80036; stroke-width: 1.0;"/><polygon fill="#A80036" points="1630.67,91.1,1623.4679,91.4604,1621.0306,98.2471,1628.2327,97.8867,1630.67,91.1" style="stroke: #A80036; stroke-width: 1.0;"/><!--MD5=[5c866a0f2d9af451f59908340b4b6a64]
reverse link ViewMenu to ViewLoad--><path d="M1651,104.48 C1651,124.77 1651,151.26 1651,167.7 " fill="none" id="ViewMenu&lt;-ViewLoad" style="stroke: #A80036; stroke-width: 1.0;"/><polygon fill="#A80036" points="1651,91.33,1647,97.33,1651,103.33,1655,97.33,1651,91.33" style="stroke: #A80036; stroke-width: 1.0;"/><!--MD5=[b7e6d8a117cee3c0a1332d18d9818b5e]
reverse link ViewGame to ViewAction--><path d="M1257.42,99.01 C1268.19,107.08 1280.23,116.3 1291,125 C1308.47,139.12 1327.81,156 1341.2,167.9 " fill="none" id="ViewGame&lt;-ViewAction" style="stroke: #A80036; stroke-width: 1.0;"/><polygon fill="#A80036" points="1246.77,91.1,1249.2029,97.8883,1256.4047,98.2535,1253.9719,91.4652,1246.77,91.1" style="stroke: #A80036; stroke-width: 1.0;"/><!--MD5=[039506e5731d0cdfbf522b46b8721320]
reverse link ViewGame to ViewRoom--><path d="M1226,104.48 C1226,124.77 1226,151.26 1226,167.7 " fill="none" id="ViewGame&lt;-ViewRoom" style="stroke: #A80036; stroke-width: 1.0;"/><polygon fill="#FFFFFF" points="1226,91.33,1222,97.33,1226,103.33,1230,97.33,1226,91.33" style="stroke: #A80036; stroke-width: 1.0;"/><!--MD5=[e0ae029bf8757a3b8d6502cf0a33182e]
reverse link ViewGame to ViewPet--><path d="M1193.72,98.94 C1183.06,106.89 1171.29,116.05 1161,125 C1145.31,138.64 1128.65,155.59 1117.23,167.63 " fill="none" id="ViewGame&lt;-ViewPet" style="stroke: #A80036; stroke-width: 1.0;"/><polygon fill="#FFFFFF" points="1204.34,91.17,1197.136,91.4909,1194.6615,98.2641,1201.8654,97.9432,1204.34,91.17" style="stroke: #A80036; stroke-width: 1.0;"/><!--MD5=[8466e2bcad38480452a253633c3f3bd1]
reverse link ControllerPet to ControllerStat--><path d="M109,482.34 C109,497.78 109,514.72 109,528.91 " fill="none" id="ControllerPet&lt;-ControllerStat" style="stroke: #A80036; stroke-width: 1.0;"/><polygon fill="#A80036" points="109,469.26,105,475.26,109,481.26,113,475.26,109,469.26" style="stroke: #A80036; stroke-width: 1.0;"/><!--MD5=[9229276c4cb4dbc1b86b8c5fab041ffd]
reverse link ControllerGame to ControllerPet--><path d="M214.07,351.48 C193.09,368.16 169.12,387.21 149.38,402.91 " fill="none" id="ControllerGame&lt;-ControllerPet" style="stroke: #A80036; stroke-width: 1.0;"/><polygon fill="#A80036" points="224.42,343.26,217.2337,343.8576,215.0213,350.7209,222.2076,350.1233,224.42,343.26" style="stroke: #A80036; stroke-width: 1.0;"/><!--MD5=[5368b871930de664e6112bd1802f89fc]
reverse link ControllerGame to ControllerRoom--><path d="M265,356.34 C265,371.78 265,388.72 265,402.91 " fill="none" id="ControllerGame&lt;-ControllerRoom" style="stroke: #A80036; stroke-width: 1.0;"/><polygon fill="#A80036" points="265,343.26,261,349.26,265,355.26,269,349.26,265,343.26" style="stroke: #A80036; stroke-width: 1.0;"/><!--MD5=[02a37f491c2df9bd9d4949cd82160a48]
reverse link ControllerMain to ControllerGame--><path d="M265,213.34 C265,232.3 265,257.29 265,276.97 " fill="none" id="ControllerMain&lt;-ControllerGame" style="stroke: #A80036; stroke-width: 1.0;"/><polygon fill="#A80036" points="265,200.2,261,206.2,265,212.2,269,206.2,265,200.2" style="stroke: #A80036; stroke-width: 1.0;"/><!--MD5=[3249f48cac15ffa808744ad64ad49e16]
reverse link ControllerMain to ControllerMenu--><path d="M234.49,208.21 C209,227.6 172.39,255.45 144.11,276.97 " fill="none" id="ControllerMain&lt;-ControllerMenu" style="stroke: #A80036; stroke-width: 1.0;"/><polygon fill="#A80036" points="245.01,200.2,237.8127,200.6459,235.4561,207.461,242.6534,207.0151,245.01,200.2" style="stroke: #A80036; stroke-width: 1.0;"/><!--MD5=[70e24e9f57e7ae5a199a36f32818d8ad]
reverse link App to ControllerMain--><path d="M313.01,102.73 C300.75,123.23 284.27,150.79 274.15,167.7 " fill="none" id="App&lt;-ControllerMain" style="stroke: #A80036; stroke-width: 1.0;"/><polygon fill="#A80036" points="319.83,91.33,313.3177,94.4268,313.6716,101.6292,320.1839,98.5324,319.83,91.33" style="stroke: #A80036; stroke-width: 1.0;"/><!--MD5=[78cfe858bcd4444c2e6371209c88bda2]
@startuml

hide empty attributes
hide empty methods

class App
interface Lang
App ..> Lang
class Fr
Class En
Lang <|.. Fr
Lang <|.. En

package model {
    class ModelPet
    class ModelRoom
    class ModelGame
    class ModelOption {
        -String lang
        -Double sound
    }
    interface ModelStat
    class Food
    class Sleep
    class Weight
    class Thirst
    class Moral
    ModelStat <|.. Food
    ModelStat <|.. Sleep
    ModelStat <|.. Weight
    ModelStat <|.. Thirst
    ModelStat <|.. Moral
    ModelPet o- - ModelStat
    ModelGame o- - ModelPet
    ModelGame o- - ModelRoom
    ModelGame o- - ModelOption
}

package view {
    class ViewPet
    class ViewRoom
    class ViewStat
    class ViewMenu
    class ViewCustomPet
    class ViewLoad
    class ViewAction
    class ViewOption
    class ViewGame
    
    ViewMenu *- - ViewOption
    ViewMenu *- - ViewCustomPet
    ViewMenu *- - ViewLoad
    ViewGame *- - ViewAction
    ViewGame o- - ViewRoom
    ViewGame o- - ViewPet
}

package Controller {
    class ControllerMain
    
    class ControllerPet {
        -ModelPet
        -ViewPet
    }
    class ControllerRoom {
        -ModelRoom
        -ViewRoom
    }
    class ControllerStat {
        -ModelStat
        -ViewStat
    }
    class ControllerMenu {
        -ModelOption
        -ViewMenu
    }
    class ControllerGame {
        -ModelGame
        -ViewGame
    }
    
    ControllerPet *- - ControllerStat
    ControllerGame *- - ControllerPet
    ControllerGame *- - ControllerRoom
    ControllerMain *- - ControllerGame 
    ControllerMain *- - ControllerMenu
    
}

App *- - ControllerMain

@enduml

PlantUML version 1.2020.02(Sun Mar 01 11:22:07 CET 2020)
(GPL source distribution)
Java Runtime: OpenJDK Runtime Environment
JVM: OpenJDK 64-Bit Server VM
Java Version: 17.0.5+8-Debian-2
Operating System: Linux
Default Encoding: UTF-8
Language: fr
Country: FR
--></g></svg>