<?xml version="1.0" encoding="UTF-8" standalone="no"?><svg xmlns="http://www.w3.org/2000/svg" xmlns:xlink="http://www.w3.org/1999/xlink" contentScriptType="application/ecmascript" contentStyleType="text/css" height="834px" preserveAspectRatio="none" style="width:888px;height:834px;" version="1.1" viewBox="0 0 888 834" width="888px" zoomAndPan="magnify"><defs><filter height="300%" id="f1tewf8ocm431y" width="300%" x="-1" y="-1"><feGaussianBlur result="blurOut" stdDeviation="2.0"/><feColorMatrix in="blurOut" result="blurOut2" type="matrix" values="0 0 0 0 0 0 0 0 0 0 0 0 0 0 0 0 0 0 .4 0"/><feOffset dx="4.0" dy="4.0" in="blurOut2" result="blurOut3"/><feBlend in="SourceGraphic" in2="blurOut3" mode="normal"/></filter></defs><g><rect fill="#FFFFFF" filter="url(#f1tewf8ocm431y)" height="468.6016" style="stroke: #000000; stroke-width: 2.0;" width="863" x="13" y="261.8281"/><rect fill="#FFFFFF" height="203.6016" style="stroke: none; stroke-width: 1.0;" width="863" x="13" y="424.625"/><rect fill="#FFFFFF" height="102.2031" style="stroke: none; stroke-width: 1.0;" width="863" x="13" y="628.2266"/><line style="stroke: #A80036; stroke-width: 1.0; stroke-dasharray: 5.0,5.0;" x1="41" x2="41" y1="86.2969" y2="747.4297"/><line style="stroke: #A80036; stroke-width: 1.0; stroke-dasharray: 5.0,5.0;" x1="107" x2="107" y1="86.2969" y2="747.4297"/><line style="stroke: #A80036; stroke-width: 1.0; stroke-dasharray: 5.0,5.0;" x1="208" x2="208" y1="86.2969" y2="747.4297"/><line style="stroke: #A80036; stroke-width: 1.0; stroke-dasharray: 5.0,5.0;" x1="339" x2="339" y1="86.2969" y2="747.4297"/><line style="stroke: #A80036; stroke-width: 1.0; stroke-dasharray: 5.0,5.0;" x1="455" x2="455" y1="86.2969" y2="747.4297"/><line style="stroke: #A80036; stroke-width: 1.0; stroke-dasharray: 5.0,5.0;" x1="573" x2="573" y1="86.2969" y2="747.4297"/><line style="stroke: #A80036; stroke-width: 1.0; stroke-dasharray: 5.0,5.0;" x1="688" x2="688" y1="86.2969" y2="747.4297"/><line style="stroke: #A80036; stroke-width: 1.0; stroke-dasharray: 5.0,5.0;" x1="803" x2="803" y1="86.2969" y2="747.4297"/><text fill="#000000" font-family="sans-serif" font-size="14" lengthAdjust="spacingAndGlyphs" textLength="31" x="23" y="82.9951">user</text><ellipse cx="41.5" cy="13" fill="#FEFECE" filter="url(#f1tewf8ocm431y)" rx="8" ry="8" style="stroke: #A80036; stroke-width: 2.0;"/><path d="M41.5,21 L41.5,48 M28.5,29 L54.5,29 M41.5,48 L28.5,63 M41.5,48 L54.5,63 " fill="none" filter="url(#f1tewf8ocm431y)" style="stroke: #A80036; stroke-width: 2.0;"/><text fill="#000000" font-family="sans-serif" font-size="14" lengthAdjust="spacingAndGlyphs" textLength="31" x="23" y="759.4248">user</text><ellipse cx="41.5" cy="772.7266" fill="#FEFECE" filter="url(#f1tewf8ocm431y)" rx="8" ry="8" style="stroke: #A80036; stroke-width: 2.0;"/><path d="M41.5,780.7266 L41.5,807.7266 M28.5,788.7266 L54.5,788.7266 M41.5,807.7266 L28.5,822.7266 M41.5,807.7266 L54.5,822.7266 " fill="none" filter="url(#f1tewf8ocm431y)" style="stroke: #A80036; stroke-width: 2.0;"/><rect fill="#FEFECE" filter="url(#f1tewf8ocm431y)" height="30.2969" style="stroke: #A80036; stroke-width: 1.5;" width="41" x="85" y="51"/><text fill="#000000" font-family="sans-serif" font-size="14" lengthAdjust="spacingAndGlyphs" textLength="27" x="92" y="70.9951">App</text><rect fill="#FEFECE" filter="url(#f1tewf8ocm431y)" height="30.2969" style="stroke: #A80036; stroke-width: 1.5;" width="41" x="85" y="746.4297"/><text fill="#000000" font-family="sans-serif" font-size="14" lengthAdjust="spacingAndGlyphs" textLength="27" x="92" y="766.4248">App</text><rect fill="#FEFECE" filter="url(#f1tewf8ocm431y)" height="30.2969" style="stroke: #A80036; stroke-width: 1.5;" width="113" x="150" y="51"/><text fill="#000000" font-family="sans-serif" font-size="14" lengthAdjust="spacingAndGlyphs" textLength="99" x="157" y="70.9951">ControllerMain</text><rect fill="#FEFECE" filter="url(#f1tewf8ocm431y)" height="30.2969" style="stroke: #A80036; stroke-width: 1.5;" width="113" x="150" y="746.4297"/><text fill="#000000" font-family="sans-serif" font-size="14" lengthAdjust="spacingAndGlyphs" textLength="99" x="157" y="766.4248">ControllerMain</text><rect fill="#FEFECE" filter="url(#f1tewf8ocm431y)" height="30.2969" style="stroke: #A80036; stroke-width: 1.5;" width="120" x="277" y="51"/><text fill="#000000" font-family="sans-serif" font-size="14" lengthAdjust="spacingAndGlyphs" textLength="106" x="284" y="70.9951">ControllerMenu</text><rect fill="#FEFECE" filter="url(#f1tewf8ocm431y)" height="30.2969" style="stroke: #A80036; stroke-width: 1.5;" width="120" x="277" y="746.4297"/><text fill="#000000" font-family="sans-serif" font-size="14" lengthAdjust="spacingAndGlyphs" textLength="106" x="284" y="766.4248">ControllerMenu</text><rect fill="#FEFECE" filter="url(#f1tewf8ocm431y)" height="30.2969" style="stroke: #A80036; stroke-width: 1.5;" width="85" x="411" y="51"/><text fill="#000000" font-family="sans-serif" font-size="14" lengthAdjust="spacingAndGlyphs" textLength="71" x="418" y="70.9951">ViewMenu</text><rect fill="#FEFECE" filter="url(#f1tewf8ocm431y)" height="30.2969" style="stroke: #A80036; stroke-width: 1.5;" width="85" x="411" y="746.4297"/><text fill="#000000" font-family="sans-serif" font-size="14" lengthAdjust="spacingAndGlyphs" textLength="71" x="418" y="766.4248">ViewMenu</text><rect fill="#FEFECE" filter="url(#f1tewf8ocm431y)" height="30.2969" style="stroke: #A80036; stroke-width: 1.5;" width="123" x="510" y="51"/><text fill="#000000" font-family="sans-serif" font-size="14" lengthAdjust="spacingAndGlyphs" textLength="109" x="517" y="70.9951">ViewCustomPet</text><rect fill="#FEFECE" filter="url(#f1tewf8ocm431y)" height="30.2969" style="stroke: #A80036; stroke-width: 1.5;" width="123" x="510" y="746.4297"/><text fill="#000000" font-family="sans-serif" font-size="14" lengthAdjust="spacingAndGlyphs" textLength="109" x="517" y="766.4248">ViewCustomPet</text><rect fill="#FEFECE" filter="url(#f1tewf8ocm431y)" height="30.2969" style="stroke: #A80036; stroke-width: 1.5;" width="79" x="647" y="51"/><text fill="#000000" font-family="sans-serif" font-size="14" lengthAdjust="spacingAndGlyphs" textLength="65" x="654" y="70.9951">ViewLoad</text><rect fill="#FEFECE" filter="url(#f1tewf8ocm431y)" height="30.2969" style="stroke: #A80036; stroke-width: 1.5;" width="79" x="647" y="746.4297"/><text fill="#000000" font-family="sans-serif" font-size="14" lengthAdjust="spacingAndGlyphs" textLength="65" x="654" y="766.4248">ViewLoad</text><rect fill="#FEFECE" filter="url(#f1tewf8ocm431y)" height="30.2969" style="stroke: #A80036; stroke-width: 1.5;" width="122" x="740" y="51"/><text fill="#000000" font-family="sans-serif" font-size="14" lengthAdjust="spacingAndGlyphs" textLength="108" x="747" y="70.9951">ControllerGame</text><rect fill="#FEFECE" filter="url(#f1tewf8ocm431y)" height="30.2969" style="stroke: #A80036; stroke-width: 1.5;" width="122" x="740" y="746.4297"/><text fill="#000000" font-family="sans-serif" font-size="14" lengthAdjust="spacingAndGlyphs" textLength="108" x="747" y="766.4248">ControllerGame</text><polygon fill="#A80036" points="95.5,113.4297,105.5,117.4297,95.5,121.4297,99.5,117.4297" style="stroke: #A80036; stroke-width: 1.0;"/><line style="stroke: #A80036; stroke-width: 1.0;" x1="41.5" x2="101.5" y1="117.4297" y2="117.4297"/><text fill="#000000" font-family="sans-serif" font-size="13" lengthAdjust="spacingAndGlyphs" textLength="42" x="48.5" y="112.3638">launch</text><polygon fill="#A80036" points="196.5,142.5625,206.5,146.5625,196.5,150.5625,200.5,146.5625" style="stroke: #A80036; stroke-width: 1.0;"/><line style="stroke: #A80036; stroke-width: 1.0;" x1="107.5" x2="202.5" y1="146.5625" y2="146.5625"/><text fill="#000000" font-family="sans-serif" font-size="13" lengthAdjust="spacingAndGlyphs" textLength="77" x="114.5" y="141.4966">showMenu()</text><polygon fill="#A80036" points="327,171.6953,337,175.6953,327,179.6953,331,175.6953" style="stroke: #A80036; stroke-width: 1.0;"/><line style="stroke: #A80036; stroke-width: 1.0;" x1="208.5" x2="333" y1="175.6953" y2="175.6953"/><text fill="#000000" font-family="sans-serif" font-size="13" lengthAdjust="spacingAndGlyphs" textLength="77" x="215.5" y="170.6294">showMenu()</text><polygon fill="#A80036" points="443.5,200.8281,453.5,204.8281,443.5,208.8281,447.5,204.8281" style="stroke: #A80036; stroke-width: 1.0;"/><line style="stroke: #A80036; stroke-width: 1.0;" x1="339" x2="449.5" y1="204.8281" y2="204.8281"/><text fill="#000000" font-family="sans-serif" font-size="13" lengthAdjust="spacingAndGlyphs" textLength="42" x="346" y="199.7622">show()</text><polygon fill="#A80036" points="350,214.8281,340,218.8281,350,222.8281,346,218.8281" style="stroke: #A80036; stroke-width: 1.0;"/><line style="stroke: #A80036; stroke-width: 1.0; stroke-dasharray: 2.0,2.0;" x1="344" x2="454.5" y1="218.8281" y2="218.8281"/><polygon fill="#A80036" points="219.5,228.8281,209.5,232.8281,219.5,236.8281,215.5,232.8281" style="stroke: #A80036; stroke-width: 1.0;"/><line style="stroke: #A80036; stroke-width: 1.0; stroke-dasharray: 2.0,2.0;" x1="213.5" x2="338" y1="232.8281" y2="232.8281"/><polygon fill="#A80036" points="118.5,242.8281,108.5,246.8281,118.5,250.8281,114.5,246.8281" style="stroke: #A80036; stroke-width: 1.0;"/><line style="stroke: #A80036; stroke-width: 1.0; stroke-dasharray: 2.0,2.0;" x1="112.5" x2="207.5" y1="246.8281" y2="246.8281"/><path d="M13,261.8281 L77,261.8281 L77,268.8281 L67,278.8281 L13,278.8281 L13,261.8281 " fill="#EEEEEE" style="stroke: #000000; stroke-width: 1.0;"/><rect fill="none" height="468.6016" style="stroke: #000000; stroke-width: 2.0;" width="863" x="13" y="261.8281"/><text fill="#000000" font-family="sans-serif" font-size="13" font-weight="bold" lengthAdjust="spacingAndGlyphs" textLength="19" x="28" y="274.895">alt</text><text fill="#000000" font-family="sans-serif" font-size="11" font-weight="bold" lengthAdjust="spacingAndGlyphs" textLength="71" x="92" y="274.0386">[new case]</text><polygon fill="#A80036" points="443.5,296.0938,453.5,300.0938,443.5,304.0938,447.5,300.0938" style="stroke: #A80036; stroke-width: 1.0;"/><line style="stroke: #A80036; stroke-width: 1.0;" x1="41.5" x2="449.5" y1="300.0938" y2="300.0938"/><text fill="#000000" font-family="sans-serif" font-size="13" lengthAdjust="spacingAndGlyphs" textLength="88" x="48.5" y="295.0278">click-on-new()</text><polygon fill="#A80036" points="350,325.2266,340,329.2266,350,333.2266,346,329.2266" style="stroke: #A80036; stroke-width: 1.0;"/><line style="stroke: #A80036; stroke-width: 1.0; stroke-dasharray: 2.0,2.0;" x1="344" x2="454.5" y1="329.2266" y2="329.2266"/><text fill="#000000" font-family="sans-serif" font-size="13" lengthAdjust="spacingAndGlyphs" textLength="39" x="356" y="324.1606">action</text><polygon fill="#A80036" points="561.5,354.3594,571.5,358.3594,561.5,362.3594,565.5,358.3594" style="stroke: #A80036; stroke-width: 1.0;"/><line style="stroke: #A80036; stroke-width: 1.0;" x1="455.5" x2="567.5" y1="358.3594" y2="358.3594"/><text fill="#000000" font-family="sans-serif" font-size="13" lengthAdjust="spacingAndGlyphs" textLength="42" x="462.5" y="353.2935">show()</text><polygon fill="#A80036" points="561.5,383.4922,571.5,387.4922,561.5,391.4922,565.5,387.4922" style="stroke: #A80036; stroke-width: 1.0;"/><line style="stroke: #A80036; stroke-width: 1.0;" x1="41.5" x2="567.5" y1="387.4922" y2="387.4922"/><text fill="#000000" font-family="sans-serif" font-size="13" lengthAdjust="spacingAndGlyphs" textLength="102" x="48.5" y="382.4263">click-on-action()</text><polygon fill="#A80036" points="350,412.625,340,416.625,350,420.625,346,416.625" style="stroke: #A80036; stroke-width: 1.0;"/><line style="stroke: #A80036; stroke-width: 1.0; stroke-dasharray: 2.0,2.0;" x1="344" x2="572.5" y1="416.625" y2="416.625"/><text fill="#000000" font-family="sans-serif" font-size="13" lengthAdjust="spacingAndGlyphs" textLength="39" x="356" y="411.5591">action</text><line style="stroke: #000000; stroke-width: 1.0; stroke-dasharray: 2.0,2.0;" x1="13" x2="876" y1="425.625" y2="425.625"/><text fill="#000000" font-family="sans-serif" font-size="11" font-weight="bold" lengthAdjust="spacingAndGlyphs" textLength="72" x="18" y="435.8354">[load case]</text><polygon fill="#A80036" points="443.5,456.5625,453.5,460.5625,443.5,464.5625,447.5,460.5625" style="stroke: #A80036; stroke-width: 1.0;"/><line style="stroke: #A80036; stroke-width: 1.0;" x1="41.5" x2="449.5" y1="460.5625" y2="460.5625"/><text fill="#000000" font-family="sans-serif" font-size="13" lengthAdjust="spacingAndGlyphs" textLength="90" x="48.5" y="455.4966">click-on-load()</text><polygon fill="#A80036" points="350,485.6953,340,489.6953,350,493.6953,346,489.6953" style="stroke: #A80036; stroke-width: 1.0;"/><line style="stroke: #A80036; stroke-width: 1.0; stroke-dasharray: 2.0,2.0;" x1="344" x2="454.5" y1="489.6953" y2="489.6953"/><text fill="#000000" font-family="sans-serif" font-size="13" lengthAdjust="spacingAndGlyphs" textLength="39" x="356" y="484.6294">action</text><polygon fill="#A80036" points="676.5,514.8281,686.5,518.8281,676.5,522.8281,680.5,518.8281" style="stroke: #A80036; stroke-width: 1.0;"/><line style="stroke: #A80036; stroke-width: 1.0;" x1="455.5" x2="682.5" y1="518.8281" y2="518.8281"/><text fill="#000000" font-family="sans-serif" font-size="13" lengthAdjust="spacingAndGlyphs" textLength="42" x="462.5" y="513.7622">show()</text><polygon fill="#A80036" points="676.5,543.9609,686.5,547.9609,676.5,551.9609,680.5,547.9609" style="stroke: #A80036; stroke-width: 1.0;"/><line style="stroke: #A80036; stroke-width: 1.0;" x1="41.5" x2="682.5" y1="547.9609" y2="547.9609"/><text fill="#000000" font-family="sans-serif" font-size="13" lengthAdjust="spacingAndGlyphs" textLength="102" x="48.5" y="542.895">click-on-action()</text><polygon fill="#A80036" points="219.5,573.0938,209.5,577.0938,219.5,581.0938,215.5,577.0938" style="stroke: #A80036; stroke-width: 1.0;"/><line style="stroke: #A80036; stroke-width: 1.0; stroke-dasharray: 2.0,2.0;" x1="213.5" x2="687.5" y1="577.0938" y2="577.0938"/><text fill="#000000" font-family="sans-serif" font-size="13" lengthAdjust="spacingAndGlyphs" textLength="39" x="225.5" y="572.0278">action</text><polygon fill="#A80036" points="791,602.2266,801,606.2266,791,610.2266,795,606.2266" style="stroke: #A80036; stroke-width: 1.0;"/><line style="stroke: #A80036; stroke-width: 1.0;" x1="208.5" x2="797" y1="606.2266" y2="606.2266"/><text fill="#000000" font-family="sans-serif" font-size="13" lengthAdjust="spacingAndGlyphs" textLength="37" x="215.5" y="601.1606">load()</text><polygon fill="#A80036" points="219.5,616.2266,209.5,620.2266,219.5,624.2266,215.5,620.2266" style="stroke: #A80036; stroke-width: 1.0;"/><line style="stroke: #A80036; stroke-width: 1.0; stroke-dasharray: 2.0,2.0;" x1="213.5" x2="802" y1="620.2266" y2="620.2266"/><line style="stroke: #000000; stroke-width: 1.0; stroke-dasharray: 2.0,2.0;" x1="13" x2="876" y1="629.2266" y2="629.2266"/><text fill="#000000" font-family="sans-serif" font-size="11" font-weight="bold" lengthAdjust="spacingAndGlyphs" textLength="100" x="18" y="639.437">[continue case]</text><polygon fill="#A80036" points="443.5,660.1641,453.5,664.1641,443.5,668.1641,447.5,664.1641" style="stroke: #A80036; stroke-width: 1.0;"/><line style="stroke: #A80036; stroke-width: 1.0;" x1="41.5" x2="449.5" y1="664.1641" y2="664.1641"/><text fill="#000000" font-family="sans-serif" font-size="13" lengthAdjust="spacingAndGlyphs" textLength="118" x="48.5" y="659.0981">click-on-continue()</text><polygon fill="#A80036" points="219.5,689.2969,209.5,693.2969,219.5,697.2969,215.5,693.2969" style="stroke: #A80036; stroke-width: 1.0;"/><line style="stroke: #A80036; stroke-width: 1.0; stroke-dasharray: 2.0,2.0;" x1="213.5" x2="687.5" y1="693.2969" y2="693.2969"/><text fill="#000000" font-family="sans-serif" font-size="13" lengthAdjust="spacingAndGlyphs" textLength="39" x="225.5" y="688.231">action</text><polygon fill="#A80036" points="791,718.4297,801,722.4297,791,726.4297,795,722.4297" style="stroke: #A80036; stroke-width: 1.0;"/><line style="stroke: #A80036; stroke-width: 1.0;" x1="208.5" x2="797" y1="722.4297" y2="722.4297"/><text fill="#000000" font-family="sans-serif" font-size="13" lengthAdjust="spacingAndGlyphs" textLength="37" x="215.5" y="717.3638">load()</text><!--MD5=[cc3317abbb978b0adf9eeeb60b9baffd]
@startuml

    actor user as Player

    Player -> App : launch
    
    App -> ControllerMain : showMenu()
	    ControllerMain -> ControllerMenu : showMenu()
		    ControllerMenu -> ViewMenu : show()
		    ViewMenu - -> ControllerMenu
	    ControllerMenu - -> ControllerMain
    ControllerMain - -> App
	
	alt new case
		Player -> ViewMenu : click-on-new()
		ViewMenu - -> ControllerMenu : action
		ViewMenu -> ViewCustomPet : show()
		Player -> ViewCustomPet : click-on-action()
		ViewCustomPet - -> ControllerMenu : action
		
	else load case
		Player -> ViewMenu : click-on-load()
		ViewMenu - -> ControllerMenu : action
		ViewMenu -> ViewLoad : show()
		Player -> ViewLoad : click-on-action()
		ViewLoad - -> ControllerMain : action
		ControllerMain -> ControllerGame : load()
		ControllerGame - -> ControllerMain
		
	else continue case
		Player -> ViewMenu : click-on-continue()
		ViewLoad - -> ControllerMain : action
		ControllerMain -> ControllerGame : load()
		
	end
	
@enduml

PlantUML version 1.2020.02(Sun Mar 01 11:22:07 CET 2020)
(GPL source distribution)
Java Runtime: OpenJDK Runtime Environment
JVM: OpenJDK 64-Bit Server VM
Java Version: 17.0.5+8-Debian-2
Operating System: Linux
Default Encoding: UTF-8
Language: fr
Country: FR
--></g></svg>