<?xml version="1.0" encoding="UTF-8" standalone="no"?><svg xmlns="http://www.w3.org/2000/svg" xmlns:xlink="http://www.w3.org/1999/xlink" contentScriptType="application/ecmascript" contentStyleType="text/css" height="648px" preserveAspectRatio="none" style="width:1683px;height:648px;" version="1.1" viewBox="0 0 1683 648" width="1683px" zoomAndPan="magnify"><defs><filter height="300%" id="fsr2x85h0fhd" width="300%" x="-1" y="-1"><feGaussianBlur result="blurOut" stdDeviation="2.0"/><feColorMatrix in="blurOut" result="blurOut2" type="matrix" values="0 0 0 0 0 0 0 0 0 0 0 0 0 0 0 0 0 0 .4 0"/><feOffset dx="4.0" dy="4.0" in="blurOut2" result="blurOut3"/><feBlend in="SourceGraphic" in2="blurOut3" mode="normal"/></filter></defs><g><!--MD5=[78194114d808d3aaca9db31f547b0644]
cluster lang--><polygon fill="#FFFFFF" filter="url(#fsr2x85h0fhd)" points="22,175,61,175,68,197.2969,181,197.2969,181,367,22,367,22,175" style="stroke: #000000; stroke-width: 1.5;"/><line style="stroke: #000000; stroke-width: 1.5;" x1="22" x2="68" y1="197.2969" y2="197.2969"/><text fill="#000000" font-family="sans-serif" font-size="14" font-weight="bold" lengthAdjust="spacingAndGlyphs" textLength="33" x="26" y="189.9951">lang</text><!--MD5=[5d4cd377749310b66bf14896f5cd8d9b]
cluster model--><polygon fill="#FFFFFF" filter="url(#fsr2x85h0fhd)" points="553,24,607,24,614,46.2969,847,46.2969,847,493,553,493,553,24" style="stroke: #000000; stroke-width: 1.5;"/><line style="stroke: #000000; stroke-width: 1.5;" x1="553" x2="614" y1="46.2969" y2="46.2969"/><text fill="#000000" font-family="sans-serif" font-size="14" font-weight="bold" lengthAdjust="spacingAndGlyphs" textLength="48" x="557" y="38.9951">model</text><!--MD5=[86cbce8df1eb9d604fbbb2fa357940f8]
cluster view--><polygon fill="#FFFFFF" filter="url(#fsr2x85h0fhd)" points="871,53.5,914,53.5,921,75.7969,1661,75.7969,1661,493,871,493,871,53.5" style="stroke: #000000; stroke-width: 1.5;"/><line style="stroke: #000000; stroke-width: 1.5;" x1="871" x2="921" y1="75.7969" y2="75.7969"/><text fill="#000000" font-family="sans-serif" font-size="14" font-weight="bold" lengthAdjust="spacingAndGlyphs" textLength="37" x="875" y="68.4951">view</text><!--MD5=[1f2cfc53d9d308f53762fd0fcbaa4873]
cluster Controller--><polygon fill="#FFFFFF" filter="url(#fsr2x85h0fhd)" points="205,175,290,175,297,197.2969,529,197.2969,529,636,205,636,205,175" style="stroke: #000000; stroke-width: 1.5;"/><line style="stroke: #000000; stroke-width: 1.5;" x1="205" x2="297" y1="197.2969" y2="197.2969"/><text fill="#000000" font-family="sans-serif" font-size="14" font-weight="bold" lengthAdjust="spacingAndGlyphs" textLength="79" x="209" y="189.9951">Controller</text><!--MD5=[d6c567a33847b77a8058f3d00eba0565]
class Lang--><rect fill="#FEFECE" filter="url(#fsr2x85h0fhd)" height="32" id="Lang" style="stroke: #A80036; stroke-width: 1.5;" width="61" x="103.5" y="210"/><ellipse cx="118.5" cy="226" fill="#B4A7E5" rx="11" ry="11" style="stroke: #A80036; stroke-width: 1.0;"/><path d="M114.4219,221.7656 L114.4219,219.6094 L121.8125,219.6094 L121.8125,221.7656 L119.3438,221.7656 L119.3438,229.8438 L121.8125,229.8438 L121.8125,232 L114.4219,232 L114.4219,229.8438 L116.8906,229.8438 L116.8906,221.7656 L114.4219,221.7656 Z "/><text fill="#000000" font-family="sans-serif" font-size="12" font-style="italic" lengthAdjust="spacingAndGlyphs" textLength="29" x="132.5" y="230.1543">Lang</text><!--MD5=[e0b0f022d868ad323502bc5184d39584]
class Fr--><rect fill="#FEFECE" filter="url(#fsr2x85h0fhd)" height="32" id="Fr" style="stroke: #A80036; stroke-width: 1.5;" width="44" x="38" y="319"/><ellipse cx="53" cy="335" fill="#ADD1B2" rx="11" ry="11" style="stroke: #A80036; stroke-width: 1.0;"/><path d="M55.9688,340.6406 Q55.3906,340.9375 54.75,341.0781 Q54.1094,341.2344 53.4063,341.2344 Q50.9063,341.2344 49.5781,339.5938 Q48.2656,337.9375 48.2656,334.8125 Q48.2656,331.6875 49.5781,330.0313 Q50.9063,328.375 53.4063,328.375 Q54.1094,328.375 54.75,328.5313 Q55.4063,328.6875 55.9688,328.9844 L55.9688,331.7031 Q55.3438,331.125 54.75,330.8594 Q54.1563,330.5781 53.5313,330.5781 Q52.1875,330.5781 51.5,331.6563 Q50.8125,332.7188 50.8125,334.8125 Q50.8125,336.9063 51.5,337.9844 Q52.1875,339.0469 53.5313,339.0469 Q54.1563,339.0469 54.75,338.7813 Q55.3438,338.5 55.9688,337.9219 L55.9688,340.6406 Z "/><text fill="#000000" font-family="sans-serif" font-size="12" lengthAdjust="spacingAndGlyphs" textLength="12" x="67" y="339.1543">Fr</text><!--MD5=[11aee42e7bda610f1ae7beec836b5cfb]
class En--><rect fill="#FEFECE" filter="url(#fsr2x85h0fhd)" height="32" id="En" style="stroke: #A80036; stroke-width: 1.5;" width="48" x="117" y="319"/><ellipse cx="132" cy="335" fill="#ADD1B2" rx="11" ry="11" style="stroke: #A80036; stroke-width: 1.0;"/><path d="M134.9688,340.6406 Q134.3906,340.9375 133.75,341.0781 Q133.1094,341.2344 132.4063,341.2344 Q129.9063,341.2344 128.5781,339.5938 Q127.2656,337.9375 127.2656,334.8125 Q127.2656,331.6875 128.5781,330.0313 Q129.9063,328.375 132.4063,328.375 Q133.1094,328.375 133.75,328.5313 Q134.4063,328.6875 134.9688,328.9844 L134.9688,331.7031 Q134.3438,331.125 133.75,330.8594 Q133.1563,330.5781 132.5313,330.5781 Q131.1875,330.5781 130.5,331.6563 Q129.8125,332.7188 129.8125,334.8125 Q129.8125,336.9063 130.5,337.9844 Q131.1875,339.0469 132.5313,339.0469 Q133.1563,339.0469 133.75,338.7813 Q134.3438,338.5 134.9688,337.9219 L134.9688,340.6406 Z "/><text fill="#000000" font-family="sans-serif" font-size="12" lengthAdjust="spacingAndGlyphs" textLength="16" x="146" y="339.1543">En</text><!--MD5=[ce588b4fa91533db47d899c6e7055886]
class ModelRoom--><rect fill="#FEFECE" filter="url(#fsr2x85h0fhd)" height="32" id="ModelRoom" style="stroke: #A80036; stroke-width: 1.5;" width="104" x="600" y="210"/><ellipse cx="615" cy="226" fill="#ADD1B2" rx="11" ry="11" style="stroke: #A80036; stroke-width: 1.0;"/><path d="M617.9688,231.6406 Q617.3906,231.9375 616.75,232.0781 Q616.1094,232.2344 615.4063,232.2344 Q612.9063,232.2344 611.5781,230.5938 Q610.2656,228.9375 610.2656,225.8125 Q610.2656,222.6875 611.5781,221.0313 Q612.9063,219.375 615.4063,219.375 Q616.1094,219.375 616.75,219.5313 Q617.4063,219.6875 617.9688,219.9844 L617.9688,222.7031 Q617.3438,222.125 616.75,221.8594 Q616.1563,221.5781 615.5313,221.5781 Q614.1875,221.5781 613.5,222.6563 Q612.8125,223.7188 612.8125,225.8125 Q612.8125,227.9063 613.5,228.9844 Q614.1875,230.0469 615.5313,230.0469 Q616.1563,230.0469 616.75,229.7813 Q617.3438,229.5 617.9688,228.9219 L617.9688,231.6406 Z "/><text fill="#000000" font-family="sans-serif" font-size="12" lengthAdjust="spacingAndGlyphs" textLength="72" x="629" y="230.1543">ModelRoom</text><!--MD5=[5ef06c8862a4439f35d8b1de5f55aae6]
class ModelGame--><rect fill="#FEFECE" filter="url(#fsr2x85h0fhd)" height="32" id="ModelGame" style="stroke: #A80036; stroke-width: 1.5;" width="105" x="725.5" y="88.5"/><ellipse cx="740.5" cy="104.5" fill="#ADD1B2" rx="11" ry="11" style="stroke: #A80036; stroke-width: 1.0;"/><path d="M743.4688,110.1406 Q742.8906,110.4375 742.25,110.5781 Q741.6094,110.7344 740.9063,110.7344 Q738.4063,110.7344 737.0781,109.0938 Q735.7656,107.4375 735.7656,104.3125 Q735.7656,101.1875 737.0781,99.5313 Q738.4063,97.875 740.9063,97.875 Q741.6094,97.875 742.25,98.0313 Q742.9063,98.1875 743.4688,98.4844 L743.4688,101.2031 Q742.8438,100.625 742.25,100.3594 Q741.6563,100.0781 741.0313,100.0781 Q739.6875,100.0781 739,101.1563 Q738.3125,102.2188 738.3125,104.3125 Q738.3125,106.4063 739,107.4844 Q739.6875,108.5469 741.0313,108.5469 Q741.6563,108.5469 742.25,108.2813 Q742.8438,108 743.4688,107.4219 L743.4688,110.1406 Z "/><text fill="#000000" font-family="sans-serif" font-size="12" lengthAdjust="spacingAndGlyphs" textLength="73" x="754.5" y="108.6543">ModelGame</text><!--MD5=[93eb20994f674771d0d73131508a8777]
class ModelStat--><rect fill="#FEFECE" filter="url(#fsr2x85h0fhd)" height="32" id="ModelStat" style="stroke: #A80036; stroke-width: 1.5;" width="95" x="689.5" y="445"/><ellipse cx="704.5" cy="461" fill="#ADD1B2" rx="11" ry="11" style="stroke: #A80036; stroke-width: 1.0;"/><path d="M707.4688,466.6406 Q706.8906,466.9375 706.25,467.0781 Q705.6094,467.2344 704.9063,467.2344 Q702.4063,467.2344 701.0781,465.5938 Q699.7656,463.9375 699.7656,460.8125 Q699.7656,457.6875 701.0781,456.0313 Q702.4063,454.375 704.9063,454.375 Q705.6094,454.375 706.25,454.5313 Q706.9063,454.6875 707.4688,454.9844 L707.4688,457.7031 Q706.8438,457.125 706.25,456.8594 Q705.6563,456.5781 705.0313,456.5781 Q703.6875,456.5781 703,457.6563 Q702.3125,458.7188 702.3125,460.8125 Q702.3125,462.9063 703,463.9844 Q703.6875,465.0469 705.0313,465.0469 Q705.6563,465.0469 706.25,464.7813 Q706.8438,464.5 707.4688,463.9219 L707.4688,466.6406 Z "/><text fill="#000000" font-family="sans-serif" font-size="12" lengthAdjust="spacingAndGlyphs" textLength="63" x="718.5" y="465.1543">ModelStat</text><!--MD5=[9a411119b15aaa1f323289dd6a5d4481]
class ModelOption--><rect fill="#FEFECE" filter="url(#fsr2x85h0fhd)" height="91.2188" id="ModelOption" style="stroke: #A80036; stroke-width: 1.5;" width="121" x="569.5" y="59"/><ellipse cx="589.45" cy="75" fill="#ADD1B2" rx="11" ry="11" style="stroke: #A80036; stroke-width: 1.0;"/><path d="M592.4188,80.6406 Q591.8406,80.9375 591.2,81.0781 Q590.5594,81.2344 589.8563,81.2344 Q587.3563,81.2344 586.0281,79.5938 Q584.7156,77.9375 584.7156,74.8125 Q584.7156,71.6875 586.0281,70.0313 Q587.3563,68.375 589.8563,68.375 Q590.5594,68.375 591.2,68.5313 Q591.8563,68.6875 592.4188,68.9844 L592.4188,71.7031 Q591.7938,71.125 591.2,70.8594 Q590.6063,70.5781 589.9813,70.5781 Q588.6375,70.5781 587.95,71.6563 Q587.2625,72.7188 587.2625,74.8125 Q587.2625,76.9063 587.95,77.9844 Q588.6375,79.0469 589.9813,79.0469 Q590.6063,79.0469 591.2,78.7813 Q591.7938,78.5 592.4188,77.9219 L592.4188,80.6406 Z "/><text fill="#000000" font-family="sans-serif" font-size="12" lengthAdjust="spacingAndGlyphs" textLength="78" x="604.55" y="79.1543">ModelOption</text><line style="stroke: #A80036; stroke-width: 1.5;" x1="570.5" x2="689.5" y1="91" y2="91"/><rect fill="none" height="6" style="stroke: #C82930; stroke-width: 1.0;" width="6" x="577.5" y="99"/><text fill="#000000" font-family="sans-serif" font-size="11" lengthAdjust="spacingAndGlyphs" textLength="95" x="589.5" y="105.2104">language : string</text><rect fill="none" height="6" style="stroke: #C82930; stroke-width: 1.0;" width="6" x="577.5" y="111.8047"/><text fill="#000000" font-family="sans-serif" font-size="11" lengthAdjust="spacingAndGlyphs" textLength="89" x="589.5" y="118.0151">volume : double</text><rect fill="none" height="6" style="stroke: #C82930; stroke-width: 1.0;" width="6" x="577.5" y="124.6094"/><text fill="#000000" font-family="sans-serif" font-size="11" lengthAdjust="spacingAndGlyphs" textLength="79" x="589.5" y="130.8198">h_window : int</text><rect fill="none" height="6" style="stroke: #C82930; stroke-width: 1.0;" width="6" x="577.5" y="137.4141"/><text fill="#000000" font-family="sans-serif" font-size="11" lengthAdjust="spacingAndGlyphs" textLength="81" x="589.5" y="143.6245">w_window : int</text><!--MD5=[42b6c9b95235c21ed83560c01266501d]
class ModelPet--><rect fill="#FEFECE" filter="url(#fsr2x85h0fhd)" height="32" id="ModelPet" style="stroke: #A80036; stroke-width: 1.5;" width="86" x="739" y="210"/><ellipse cx="754" cy="226" fill="#B4A7E5" rx="11" ry="11" style="stroke: #A80036; stroke-width: 1.0;"/><path d="M749.9219,221.7656 L749.9219,219.6094 L757.3125,219.6094 L757.3125,221.7656 L754.8438,221.7656 L754.8438,229.8438 L757.3125,229.8438 L757.3125,232 L749.9219,232 L749.9219,229.8438 L752.3906,229.8438 L752.3906,221.7656 L749.9219,221.7656 Z "/><text fill="#000000" font-family="sans-serif" font-size="12" font-style="italic" lengthAdjust="spacingAndGlyphs" textLength="54" x="768" y="230.1543">ModelPet</text><!--MD5=[60fb4f72b7635aa97affd2efc062a79f]
class Robot--><rect fill="#FEFECE" filter="url(#fsr2x85h0fhd)" height="32" id="Robot" style="stroke: #A80036; stroke-width: 1.5;" width="69" x="649.5" y="319"/><ellipse cx="664.5" cy="335" fill="#ADD1B2" rx="11" ry="11" style="stroke: #A80036; stroke-width: 1.0;"/><path d="M667.4688,340.6406 Q666.8906,340.9375 666.25,341.0781 Q665.6094,341.2344 664.9063,341.2344 Q662.4063,341.2344 661.0781,339.5938 Q659.7656,337.9375 659.7656,334.8125 Q659.7656,331.6875 661.0781,330.0313 Q662.4063,328.375 664.9063,328.375 Q665.6094,328.375 666.25,328.5313 Q666.9063,328.6875 667.4688,328.9844 L667.4688,331.7031 Q666.8438,331.125 666.25,330.8594 Q665.6563,330.5781 665.0313,330.5781 Q663.6875,330.5781 663,331.6563 Q662.3125,332.7188 662.3125,334.8125 Q662.3125,336.9063 663,337.9844 Q663.6875,339.0469 665.0313,339.0469 Q665.6563,339.0469 666.25,338.7813 Q666.8438,338.5 667.4688,337.9219 L667.4688,340.6406 Z "/><text fill="#000000" font-family="sans-serif" font-size="12" lengthAdjust="spacingAndGlyphs" textLength="37" x="678.5" y="339.1543">Robot</text><!--MD5=[7fd4401f5c5cb0e3d029c879cad30c04]
class Animal--><rect fill="#FEFECE" filter="url(#fsr2x85h0fhd)" height="32" id="Animal" style="stroke: #A80036; stroke-width: 1.5;" width="73" x="753.5" y="319"/><ellipse cx="768.5" cy="335" fill="#ADD1B2" rx="11" ry="11" style="stroke: #A80036; stroke-width: 1.0;"/><path d="M771.4688,340.6406 Q770.8906,340.9375 770.25,341.0781 Q769.6094,341.2344 768.9063,341.2344 Q766.4063,341.2344 765.0781,339.5938 Q763.7656,337.9375 763.7656,334.8125 Q763.7656,331.6875 765.0781,330.0313 Q766.4063,328.375 768.9063,328.375 Q769.6094,328.375 770.25,328.5313 Q770.9063,328.6875 771.4688,328.9844 L771.4688,331.7031 Q770.8438,331.125 770.25,330.8594 Q769.6563,330.5781 769.0313,330.5781 Q767.6875,330.5781 767,331.6563 Q766.3125,332.7188 766.3125,334.8125 Q766.3125,336.9063 767,337.9844 Q767.6875,339.0469 769.0313,339.0469 Q769.6563,339.0469 770.25,338.7813 Q770.8438,338.5 771.4688,337.9219 L771.4688,340.6406 Z "/><text fill="#000000" font-family="sans-serif" font-size="12" lengthAdjust="spacingAndGlyphs" textLength="41" x="782.5" y="339.1543">Animal</text><!--MD5=[2369c9863c53bf1001e6873222dfb3fe]
class ViewMain--><rect fill="#FEFECE" filter="url(#fsr2x85h0fhd)" height="32" id="ViewMain" style="stroke: #A80036; stroke-width: 1.5;" width="89" x="1241.5" y="88.5"/><ellipse cx="1256.5" cy="104.5" fill="#ADD1B2" rx="11" ry="11" style="stroke: #A80036; stroke-width: 1.0;"/><path d="M1259.4688,110.1406 Q1258.8906,110.4375 1258.25,110.5781 Q1257.6094,110.7344 1256.9063,110.7344 Q1254.4063,110.7344 1253.0781,109.0938 Q1251.7656,107.4375 1251.7656,104.3125 Q1251.7656,101.1875 1253.0781,99.5313 Q1254.4063,97.875 1256.9063,97.875 Q1257.6094,97.875 1258.25,98.0313 Q1258.9063,98.1875 1259.4688,98.4844 L1259.4688,101.2031 Q1258.8438,100.625 1258.25,100.3594 Q1257.6563,100.0781 1257.0313,100.0781 Q1255.6875,100.0781 1255,101.1563 Q1254.3125,102.2188 1254.3125,104.3125 Q1254.3125,106.4063 1255,107.4844 Q1255.6875,108.5469 1257.0313,108.5469 Q1257.6563,108.5469 1258.25,108.2813 Q1258.8438,108 1259.4688,107.4219 L1259.4688,110.1406 Z "/><text fill="#000000" font-family="sans-serif" font-size="12" lengthAdjust="spacingAndGlyphs" textLength="57" x="1270.5" y="108.6543">ViewMain</text><!--MD5=[66004aa1b2b41dfc3553a089f11ca636]
class ViewPet--><rect fill="#FEFECE" filter="url(#fsr2x85h0fhd)" height="32" id="ViewPet" style="stroke: #A80036; stroke-width: 1.5;" width="81" x="1311.5" y="319"/><ellipse cx="1326.5" cy="335" fill="#ADD1B2" rx="11" ry="11" style="stroke: #A80036; stroke-width: 1.0;"/><path d="M1329.4688,340.6406 Q1328.8906,340.9375 1328.25,341.0781 Q1327.6094,341.2344 1326.9063,341.2344 Q1324.4063,341.2344 1323.0781,339.5938 Q1321.7656,337.9375 1321.7656,334.8125 Q1321.7656,331.6875 1323.0781,330.0313 Q1324.4063,328.375 1326.9063,328.375 Q1327.6094,328.375 1328.25,328.5313 Q1328.9063,328.6875 1329.4688,328.9844 L1329.4688,331.7031 Q1328.8438,331.125 1328.25,330.8594 Q1327.6563,330.5781 1327.0313,330.5781 Q1325.6875,330.5781 1325,331.6563 Q1324.3125,332.7188 1324.3125,334.8125 Q1324.3125,336.9063 1325,337.9844 Q1325.6875,339.0469 1327.0313,339.0469 Q1327.6563,339.0469 1328.25,338.7813 Q1328.8438,338.5 1329.4688,337.9219 L1329.4688,340.6406 Z "/><text fill="#000000" font-family="sans-serif" font-size="12" lengthAdjust="spacingAndGlyphs" textLength="49" x="1340.5" y="339.1543">ViewPet</text><!--MD5=[27e4653765d9e56603ae0db51ef372f2]
class ViewRoom--><rect fill="#FEFECE" filter="url(#fsr2x85h0fhd)" height="32" id="ViewRoom" style="stroke: #A80036; stroke-width: 1.5;" width="95" x="1427.5" y="319"/><ellipse cx="1442.5" cy="335" fill="#ADD1B2" rx="11" ry="11" style="stroke: #A80036; stroke-width: 1.0;"/><path d="M1445.4688,340.6406 Q1444.8906,340.9375 1444.25,341.0781 Q1443.6094,341.2344 1442.9063,341.2344 Q1440.4063,341.2344 1439.0781,339.5938 Q1437.7656,337.9375 1437.7656,334.8125 Q1437.7656,331.6875 1439.0781,330.0313 Q1440.4063,328.375 1442.9063,328.375 Q1443.6094,328.375 1444.25,328.5313 Q1444.9063,328.6875 1445.4688,328.9844 L1445.4688,331.7031 Q1444.8438,331.125 1444.25,330.8594 Q1443.6563,330.5781 1443.0313,330.5781 Q1441.6875,330.5781 1441,331.6563 Q1440.3125,332.7188 1440.3125,334.8125 Q1440.3125,336.9063 1441,337.9844 Q1441.6875,339.0469 1443.0313,339.0469 Q1443.6563,339.0469 1444.25,338.7813 Q1444.8438,338.5 1445.4688,337.9219 L1445.4688,340.6406 Z "/><text fill="#000000" font-family="sans-serif" font-size="12" lengthAdjust="spacingAndGlyphs" textLength="63" x="1456.5" y="339.1543">ViewRoom</text><!--MD5=[fe60a39180a13549a61d1a377547b35e]
class ViewStat--><rect fill="#FEFECE" filter="url(#fsr2x85h0fhd)" height="32" id="ViewStat" style="stroke: #A80036; stroke-width: 1.5;" width="86" x="1424" y="445"/><ellipse cx="1439" cy="461" fill="#ADD1B2" rx="11" ry="11" style="stroke: #A80036; stroke-width: 1.0;"/><path d="M1441.9688,466.6406 Q1441.3906,466.9375 1440.75,467.0781 Q1440.1094,467.2344 1439.4063,467.2344 Q1436.9063,467.2344 1435.5781,465.5938 Q1434.2656,463.9375 1434.2656,460.8125 Q1434.2656,457.6875 1435.5781,456.0313 Q1436.9063,454.375 1439.4063,454.375 Q1440.1094,454.375 1440.75,454.5313 Q1441.4063,454.6875 1441.9688,454.9844 L1441.9688,457.7031 Q1441.3438,457.125 1440.75,456.8594 Q1440.1563,456.5781 1439.5313,456.5781 Q1438.1875,456.5781 1437.5,457.6563 Q1436.8125,458.7188 1436.8125,460.8125 Q1436.8125,462.9063 1437.5,463.9844 Q1438.1875,465.0469 1439.5313,465.0469 Q1440.1563,465.0469 1440.75,464.7813 Q1441.3438,464.5 1441.9688,463.9219 L1441.9688,466.6406 Z "/><text fill="#000000" font-family="sans-serif" font-size="12" lengthAdjust="spacingAndGlyphs" textLength="54" x="1453" y="465.1543">ViewStat</text><!--MD5=[9e3e829b1d67d6c705c38104337e7cce]
class ViewMenu--><rect fill="#FEFECE" filter="url(#fsr2x85h0fhd)" height="32" id="ViewMenu" style="stroke: #A80036; stroke-width: 1.5;" width="94" x="1113" y="210"/><ellipse cx="1128" cy="226" fill="#ADD1B2" rx="11" ry="11" style="stroke: #A80036; stroke-width: 1.0;"/><path d="M1130.9688,231.6406 Q1130.3906,231.9375 1129.75,232.0781 Q1129.1094,232.2344 1128.4063,232.2344 Q1125.9063,232.2344 1124.5781,230.5938 Q1123.2656,228.9375 1123.2656,225.8125 Q1123.2656,222.6875 1124.5781,221.0313 Q1125.9063,219.375 1128.4063,219.375 Q1129.1094,219.375 1129.75,219.5313 Q1130.4063,219.6875 1130.9688,219.9844 L1130.9688,222.7031 Q1130.3438,222.125 1129.75,221.8594 Q1129.1563,221.5781 1128.5313,221.5781 Q1127.1875,221.5781 1126.5,222.6563 Q1125.8125,223.7188 1125.8125,225.8125 Q1125.8125,227.9063 1126.5,228.9844 Q1127.1875,230.0469 1128.5313,230.0469 Q1129.1563,230.0469 1129.75,229.7813 Q1130.3438,229.5 1130.9688,228.9219 L1130.9688,231.6406 Z "/><text fill="#000000" font-family="sans-serif" font-size="12" lengthAdjust="spacingAndGlyphs" textLength="62" x="1142" y="230.1543">ViewMenu</text><!--MD5=[bb8139252ab9d60963f0ad3aa85822d8]
class ViewCustomPet--><rect fill="#FEFECE" filter="url(#fsr2x85h0fhd)" height="32" id="ViewCustomPet" style="stroke: #A80036; stroke-width: 1.5;" width="128" x="887" y="319"/><ellipse cx="902" cy="335" fill="#ADD1B2" rx="11" ry="11" style="stroke: #A80036; stroke-width: 1.0;"/><path d="M904.9688,340.6406 Q904.3906,340.9375 903.75,341.0781 Q903.1094,341.2344 902.4063,341.2344 Q899.9063,341.2344 898.5781,339.5938 Q897.2656,337.9375 897.2656,334.8125 Q897.2656,331.6875 898.5781,330.0313 Q899.9063,328.375 902.4063,328.375 Q903.1094,328.375 903.75,328.5313 Q904.4063,328.6875 904.9688,328.9844 L904.9688,331.7031 Q904.3438,331.125 903.75,330.8594 Q903.1563,330.5781 902.5313,330.5781 Q901.1875,330.5781 900.5,331.6563 Q899.8125,332.7188 899.8125,334.8125 Q899.8125,336.9063 900.5,337.9844 Q901.1875,339.0469 902.5313,339.0469 Q903.1563,339.0469 903.75,338.7813 Q904.3438,338.5 904.9688,337.9219 L904.9688,340.6406 Z "/><text fill="#000000" font-family="sans-serif" font-size="12" lengthAdjust="spacingAndGlyphs" textLength="96" x="916" y="339.1543">ViewCustomPet</text><!--MD5=[d18d64f195106826546ed42fd601b6d0]
class ViewLoad--><rect fill="#FEFECE" filter="url(#fsr2x85h0fhd)" height="32" id="ViewLoad" style="stroke: #A80036; stroke-width: 1.5;" width="90" x="1050" y="319"/><ellipse cx="1065" cy="335" fill="#ADD1B2" rx="11" ry="11" style="stroke: #A80036; stroke-width: 1.0;"/><path d="M1067.9688,340.6406 Q1067.3906,340.9375 1066.75,341.0781 Q1066.1094,341.2344 1065.4063,341.2344 Q1062.9063,341.2344 1061.5781,339.5938 Q1060.2656,337.9375 1060.2656,334.8125 Q1060.2656,331.6875 1061.5781,330.0313 Q1062.9063,328.375 1065.4063,328.375 Q1066.1094,328.375 1066.75,328.5313 Q1067.4063,328.6875 1067.9688,328.9844 L1067.9688,331.7031 Q1067.3438,331.125 1066.75,330.8594 Q1066.1563,330.5781 1065.5313,330.5781 Q1064.1875,330.5781 1063.5,331.6563 Q1062.8125,332.7188 1062.8125,334.8125 Q1062.8125,336.9063 1063.5,337.9844 Q1064.1875,339.0469 1065.5313,339.0469 Q1066.1563,339.0469 1066.75,338.7813 Q1067.3438,338.5 1067.9688,337.9219 L1067.9688,340.6406 Z "/><text fill="#000000" font-family="sans-serif" font-size="12" lengthAdjust="spacingAndGlyphs" textLength="58" x="1079" y="339.1543">ViewLoad</text><!--MD5=[363299a84393b04db7416c04d3062cf1]
class ViewAction--><rect fill="#FEFECE" filter="url(#fsr2x85h0fhd)" height="32" id="ViewAction" style="stroke: #A80036; stroke-width: 1.5;" width="99" x="1545.5" y="445"/><ellipse cx="1560.5" cy="461" fill="#ADD1B2" rx="11" ry="11" style="stroke: #A80036; stroke-width: 1.0;"/><path d="M1563.4688,466.6406 Q1562.8906,466.9375 1562.25,467.0781 Q1561.6094,467.2344 1560.9063,467.2344 Q1558.4063,467.2344 1557.0781,465.5938 Q1555.7656,463.9375 1555.7656,460.8125 Q1555.7656,457.6875 1557.0781,456.0313 Q1558.4063,454.375 1560.9063,454.375 Q1561.6094,454.375 1562.25,454.5313 Q1562.9063,454.6875 1563.4688,454.9844 L1563.4688,457.7031 Q1562.8438,457.125 1562.25,456.8594 Q1561.6563,456.5781 1561.0313,456.5781 Q1559.6875,456.5781 1559,457.6563 Q1558.3125,458.7188 1558.3125,460.8125 Q1558.3125,462.9063 1559,463.9844 Q1559.6875,465.0469 1561.0313,465.0469 Q1561.6563,465.0469 1562.25,464.7813 Q1562.8438,464.5 1563.4688,463.9219 L1563.4688,466.6406 Z "/><text fill="#000000" font-family="sans-serif" font-size="12" lengthAdjust="spacingAndGlyphs" textLength="67" x="1574.5" y="465.1543">ViewAction</text><!--MD5=[47d553743e6c0f650877be889f88f64f]
class ViewOption--><rect fill="#FEFECE" filter="url(#fsr2x85h0fhd)" height="32" id="ViewOption" style="stroke: #A80036; stroke-width: 1.5;" width="101" x="1175.5" y="319"/><ellipse cx="1190.5" cy="335" fill="#ADD1B2" rx="11" ry="11" style="stroke: #A80036; stroke-width: 1.0;"/><path d="M1193.4688,340.6406 Q1192.8906,340.9375 1192.25,341.0781 Q1191.6094,341.2344 1190.9063,341.2344 Q1188.4063,341.2344 1187.0781,339.5938 Q1185.7656,337.9375 1185.7656,334.8125 Q1185.7656,331.6875 1187.0781,330.0313 Q1188.4063,328.375 1190.9063,328.375 Q1191.6094,328.375 1192.25,328.5313 Q1192.9063,328.6875 1193.4688,328.9844 L1193.4688,331.7031 Q1192.8438,331.125 1192.25,330.8594 Q1191.6563,330.5781 1191.0313,330.5781 Q1189.6875,330.5781 1189,331.6563 Q1188.3125,332.7188 1188.3125,334.8125 Q1188.3125,336.9063 1189,337.9844 Q1189.6875,339.0469 1191.0313,339.0469 Q1191.6563,339.0469 1192.25,338.7813 Q1192.8438,338.5 1193.4688,337.9219 L1193.4688,340.6406 Z "/><text fill="#000000" font-family="sans-serif" font-size="12" lengthAdjust="spacingAndGlyphs" textLength="69" x="1204.5" y="339.1543">ViewOption</text><!--MD5=[7ef7df81153a108328eb7a5b9355a136]
class ViewGame--><rect fill="#FEFECE" filter="url(#fsr2x85h0fhd)" height="32" id="ViewGame" style="stroke: #A80036; stroke-width: 1.5;" width="96" x="1365" y="210"/><ellipse cx="1380" cy="226" fill="#ADD1B2" rx="11" ry="11" style="stroke: #A80036; stroke-width: 1.0;"/><path d="M1382.9688,231.6406 Q1382.3906,231.9375 1381.75,232.0781 Q1381.1094,232.2344 1380.4063,232.2344 Q1377.9063,232.2344 1376.5781,230.5938 Q1375.2656,228.9375 1375.2656,225.8125 Q1375.2656,222.6875 1376.5781,221.0313 Q1377.9063,219.375 1380.4063,219.375 Q1381.1094,219.375 1381.75,219.5313 Q1382.4063,219.6875 1382.9688,219.9844 L1382.9688,222.7031 Q1382.3438,222.125 1381.75,221.8594 Q1381.1563,221.5781 1380.5313,221.5781 Q1379.1875,221.5781 1378.5,222.6563 Q1377.8125,223.7188 1377.8125,225.8125 Q1377.8125,227.9063 1378.5,228.9844 Q1379.1875,230.0469 1380.5313,230.0469 Q1381.1563,230.0469 1381.75,229.7813 Q1382.3438,229.5 1382.9688,228.9219 L1382.9688,231.6406 Z "/><text fill="#000000" font-family="sans-serif" font-size="12" lengthAdjust="spacingAndGlyphs" textLength="64" x="1394" y="230.1543">ViewGame</text><!--MD5=[fab7056576ea3880aaf36e4ccb94a01c]
class ViewHUD--><rect fill="#FEFECE" filter="url(#fsr2x85h0fhd)" height="32" id="ViewHUD" style="stroke: #A80036; stroke-width: 1.5;" width="87" x="1557.5" y="319"/><ellipse cx="1572.5" cy="335" fill="#ADD1B2" rx="11" ry="11" style="stroke: #A80036; stroke-width: 1.0;"/><path d="M1575.4688,340.6406 Q1574.8906,340.9375 1574.25,341.0781 Q1573.6094,341.2344 1572.9063,341.2344 Q1570.4063,341.2344 1569.0781,339.5938 Q1567.7656,337.9375 1567.7656,334.8125 Q1567.7656,331.6875 1569.0781,330.0313 Q1570.4063,328.375 1572.9063,328.375 Q1573.6094,328.375 1574.25,328.5313 Q1574.9063,328.6875 1575.4688,328.9844 L1575.4688,331.7031 Q1574.8438,331.125 1574.25,330.8594 Q1573.6563,330.5781 1573.0313,330.5781 Q1571.6875,330.5781 1571,331.6563 Q1570.3125,332.7188 1570.3125,334.8125 Q1570.3125,336.9063 1571,337.9844 Q1571.6875,339.0469 1573.0313,339.0469 Q1573.6563,339.0469 1574.25,338.7813 Q1574.8438,338.5 1575.4688,337.9219 L1575.4688,340.6406 Z "/><text fill="#000000" font-family="sans-serif" font-size="12" lengthAdjust="spacingAndGlyphs" textLength="55" x="1586.5" y="339.1543">ViewHUD</text><!--MD5=[b4d764e3c38fb7b1af6f2a8a636bdd8c]
class ControllerMain--><rect fill="#FEFECE" filter="url(#fsr2x85h0fhd)" height="32" id="ControllerMain" style="stroke: #A80036; stroke-width: 1.5;" width="122" x="224" y="210"/><ellipse cx="239" cy="226" fill="#ADD1B2" rx="11" ry="11" style="stroke: #A80036; stroke-width: 1.0;"/><path d="M241.9688,231.6406 Q241.3906,231.9375 240.75,232.0781 Q240.1094,232.2344 239.4063,232.2344 Q236.9063,232.2344 235.5781,230.5938 Q234.2656,228.9375 234.2656,225.8125 Q234.2656,222.6875 235.5781,221.0313 Q236.9063,219.375 239.4063,219.375 Q240.1094,219.375 240.75,219.5313 Q241.4063,219.6875 241.9688,219.9844 L241.9688,222.7031 Q241.3438,222.125 240.75,221.8594 Q240.1563,221.5781 239.5313,221.5781 Q238.1875,221.5781 237.5,222.6563 Q236.8125,223.7188 236.8125,225.8125 Q236.8125,227.9063 237.5,228.9844 Q238.1875,230.0469 239.5313,230.0469 Q240.1563,230.0469 240.75,229.7813 Q241.3438,229.5 241.9688,228.9219 L241.9688,231.6406 Z "/><text fill="#000000" font-family="sans-serif" font-size="12" lengthAdjust="spacingAndGlyphs" textLength="90" x="253" y="230.1543">ControllerMain</text><!--MD5=[a8dd5522732e18611229f49aa10f22e6]
class ControllerPet--><rect fill="#FEFECE" filter="url(#fsr2x85h0fhd)" height="65.6094" id="ControllerPet" style="stroke: #A80036; stroke-width: 1.5;" width="114" x="235" y="428"/><ellipse cx="250" cy="444" fill="#ADD1B2" rx="11" ry="11" style="stroke: #A80036; stroke-width: 1.0;"/><path d="M252.9688,449.6406 Q252.3906,449.9375 251.75,450.0781 Q251.1094,450.2344 250.4063,450.2344 Q247.9063,450.2344 246.5781,448.5938 Q245.2656,446.9375 245.2656,443.8125 Q245.2656,440.6875 246.5781,439.0313 Q247.9063,437.375 250.4063,437.375 Q251.1094,437.375 251.75,437.5313 Q252.4063,437.6875 252.9688,437.9844 L252.9688,440.7031 Q252.3438,440.125 251.75,439.8594 Q251.1563,439.5781 250.5313,439.5781 Q249.1875,439.5781 248.5,440.6563 Q247.8125,441.7188 247.8125,443.8125 Q247.8125,445.9063 248.5,446.9844 Q249.1875,448.0469 250.5313,448.0469 Q251.1563,448.0469 251.75,447.7813 Q252.3438,447.5 252.9688,446.9219 L252.9688,449.6406 Z "/><text fill="#000000" font-family="sans-serif" font-size="12" lengthAdjust="spacingAndGlyphs" textLength="82" x="264" y="448.1543">ControllerPet</text><line style="stroke: #A80036; stroke-width: 1.5;" x1="236" x2="348" y1="460" y2="460"/><rect fill="none" height="6" style="stroke: #C82930; stroke-width: 1.0;" width="6" x="243" y="468"/><text fill="#000000" font-family="sans-serif" font-size="11" lengthAdjust="spacingAndGlyphs" textLength="51" x="255" y="474.2104">ModelPet</text><rect fill="none" height="6" style="stroke: #C82930; stroke-width: 1.0;" width="6" x="243" y="480.8047"/><text fill="#000000" font-family="sans-serif" font-size="11" lengthAdjust="spacingAndGlyphs" textLength="44" x="255" y="487.0151">ViewPet</text><!--MD5=[87caa93e14c110f7c3c35dde97c8934c]
class ControllerRoom--><rect fill="#FEFECE" filter="url(#fsr2x85h0fhd)" height="65.6094" id="ControllerRoom" style="stroke: #A80036; stroke-width: 1.5;" width="128" x="384" y="428"/><ellipse cx="399" cy="444" fill="#ADD1B2" rx="11" ry="11" style="stroke: #A80036; stroke-width: 1.0;"/><path d="M401.9688,449.6406 Q401.3906,449.9375 400.75,450.0781 Q400.1094,450.2344 399.4063,450.2344 Q396.9063,450.2344 395.5781,448.5938 Q394.2656,446.9375 394.2656,443.8125 Q394.2656,440.6875 395.5781,439.0313 Q396.9063,437.375 399.4063,437.375 Q400.1094,437.375 400.75,437.5313 Q401.4063,437.6875 401.9688,437.9844 L401.9688,440.7031 Q401.3438,440.125 400.75,439.8594 Q400.1563,439.5781 399.5313,439.5781 Q398.1875,439.5781 397.5,440.6563 Q396.8125,441.7188 396.8125,443.8125 Q396.8125,445.9063 397.5,446.9844 Q398.1875,448.0469 399.5313,448.0469 Q400.1563,448.0469 400.75,447.7813 Q401.3438,447.5 401.9688,446.9219 L401.9688,449.6406 Z "/><text fill="#000000" font-family="sans-serif" font-size="12" lengthAdjust="spacingAndGlyphs" textLength="96" x="413" y="448.1543">ControllerRoom</text><line style="stroke: #A80036; stroke-width: 1.5;" x1="385" x2="511" y1="460" y2="460"/><rect fill="none" height="6" style="stroke: #C82930; stroke-width: 1.0;" width="6" x="392" y="468"/><text fill="#000000" font-family="sans-serif" font-size="11" lengthAdjust="spacingAndGlyphs" textLength="65" x="404" y="474.2104">ModelRoom</text><rect fill="none" height="6" style="stroke: #C82930; stroke-width: 1.0;" width="6" x="392" y="480.8047"/><text fill="#000000" font-family="sans-serif" font-size="11" lengthAdjust="spacingAndGlyphs" textLength="58" x="404" y="487.0151">ViewRoom</text><!--MD5=[a8c4fef36f1be4f4b0b1faa4659e444b]
class ControllerStat--><rect fill="#FEFECE" filter="url(#fsr2x85h0fhd)" height="65.6094" id="ControllerStat" style="stroke: #A80036; stroke-width: 1.5;" width="119" x="232.5" y="554"/><ellipse cx="247.5" cy="570" fill="#ADD1B2" rx="11" ry="11" style="stroke: #A80036; stroke-width: 1.0;"/><path d="M250.4688,575.6406 Q249.8906,575.9375 249.25,576.0781 Q248.6094,576.2344 247.9063,576.2344 Q245.4063,576.2344 244.0781,574.5938 Q242.7656,572.9375 242.7656,569.8125 Q242.7656,566.6875 244.0781,565.0313 Q245.4063,563.375 247.9063,563.375 Q248.6094,563.375 249.25,563.5313 Q249.9063,563.6875 250.4688,563.9844 L250.4688,566.7031 Q249.8438,566.125 249.25,565.8594 Q248.6563,565.5781 248.0313,565.5781 Q246.6875,565.5781 246,566.6563 Q245.3125,567.7188 245.3125,569.8125 Q245.3125,571.9063 246,572.9844 Q246.6875,574.0469 248.0313,574.0469 Q248.6563,574.0469 249.25,573.7813 Q249.8438,573.5 250.4688,572.9219 L250.4688,575.6406 Z "/><text fill="#000000" font-family="sans-serif" font-size="12" lengthAdjust="spacingAndGlyphs" textLength="87" x="261.5" y="574.1543">ControllerStat</text><line style="stroke: #A80036; stroke-width: 1.5;" x1="233.5" x2="350.5" y1="586" y2="586"/><rect fill="none" height="6" style="stroke: #C82930; stroke-width: 1.0;" width="6" x="240.5" y="594"/><text fill="#000000" font-family="sans-serif" font-size="11" lengthAdjust="spacingAndGlyphs" textLength="56" x="252.5" y="600.2104">ModelStat</text><rect fill="none" height="6" style="stroke: #C82930; stroke-width: 1.0;" width="6" x="240.5" y="606.8047"/><text fill="#000000" font-family="sans-serif" font-size="11" lengthAdjust="spacingAndGlyphs" textLength="49" x="252.5" y="613.0151">ViewStat</text><!--MD5=[ad9dd60b9e2ea02c403c8610a882571c]
class ControllerMenu--><rect fill="#FEFECE" filter="url(#fsr2x85h0fhd)" height="65.6094" id="ControllerMenu" style="stroke: #A80036; stroke-width: 1.5;" width="127" x="221.5" y="302"/><ellipse cx="236.5" cy="318" fill="#ADD1B2" rx="11" ry="11" style="stroke: #A80036; stroke-width: 1.0;"/><path d="M239.4688,323.6406 Q238.8906,323.9375 238.25,324.0781 Q237.6094,324.2344 236.9063,324.2344 Q234.4063,324.2344 233.0781,322.5938 Q231.7656,320.9375 231.7656,317.8125 Q231.7656,314.6875 233.0781,313.0313 Q234.4063,311.375 236.9063,311.375 Q237.6094,311.375 238.25,311.5313 Q238.9063,311.6875 239.4688,311.9844 L239.4688,314.7031 Q238.8438,314.125 238.25,313.8594 Q237.6563,313.5781 237.0313,313.5781 Q235.6875,313.5781 235,314.6563 Q234.3125,315.7188 234.3125,317.8125 Q234.3125,319.9063 235,320.9844 Q235.6875,322.0469 237.0313,322.0469 Q237.6563,322.0469 238.25,321.7813 Q238.8438,321.5 239.4688,320.9219 L239.4688,323.6406 Z "/><text fill="#000000" font-family="sans-serif" font-size="12" lengthAdjust="spacingAndGlyphs" textLength="95" x="250.5" y="322.1543">ControllerMenu</text><line style="stroke: #A80036; stroke-width: 1.5;" x1="222.5" x2="347.5" y1="334" y2="334"/><rect fill="none" height="6" style="stroke: #C82930; stroke-width: 1.0;" width="6" x="229.5" y="342"/><text fill="#000000" font-family="sans-serif" font-size="11" lengthAdjust="spacingAndGlyphs" textLength="70" x="241.5" y="348.2104">ModelOption</text><rect fill="none" height="6" style="stroke: #C82930; stroke-width: 1.0;" width="6" x="229.5" y="354.8047"/><text fill="#000000" font-family="sans-serif" font-size="11" lengthAdjust="spacingAndGlyphs" textLength="56" x="241.5" y="361.0151">ViewMenu</text><!--MD5=[a23319bb6651943ab882a8895f3a4933]
class ControllerGame--><rect fill="#FEFECE" filter="url(#fsr2x85h0fhd)" height="65.6094" id="ControllerGame" style="stroke: #A80036; stroke-width: 1.5;" width="129" x="383.5" y="302"/><ellipse cx="398.5" cy="318" fill="#ADD1B2" rx="11" ry="11" style="stroke: #A80036; stroke-width: 1.0;"/><path d="M401.4688,323.6406 Q400.8906,323.9375 400.25,324.0781 Q399.6094,324.2344 398.9063,324.2344 Q396.4063,324.2344 395.0781,322.5938 Q393.7656,320.9375 393.7656,317.8125 Q393.7656,314.6875 395.0781,313.0313 Q396.4063,311.375 398.9063,311.375 Q399.6094,311.375 400.25,311.5313 Q400.9063,311.6875 401.4688,311.9844 L401.4688,314.7031 Q400.8438,314.125 400.25,313.8594 Q399.6563,313.5781 399.0313,313.5781 Q397.6875,313.5781 397,314.6563 Q396.3125,315.7188 396.3125,317.8125 Q396.3125,319.9063 397,320.9844 Q397.6875,322.0469 399.0313,322.0469 Q399.6563,322.0469 400.25,321.7813 Q400.8438,321.5 401.4688,320.9219 L401.4688,323.6406 Z "/><text fill="#000000" font-family="sans-serif" font-size="12" lengthAdjust="spacingAndGlyphs" textLength="97" x="412.5" y="322.1543">ControllerGame</text><line style="stroke: #A80036; stroke-width: 1.5;" x1="384.5" x2="511.5" y1="334" y2="334"/><rect fill="none" height="6" style="stroke: #C82930; stroke-width: 1.0;" width="6" x="391.5" y="342"/><text fill="#000000" font-family="sans-serif" font-size="11" lengthAdjust="spacingAndGlyphs" textLength="67" x="403.5" y="348.2104">ModelGame</text><rect fill="none" height="6" style="stroke: #C82930; stroke-width: 1.0;" width="6" x="391.5" y="354.8047"/><text fill="#000000" font-family="sans-serif" font-size="11" lengthAdjust="spacingAndGlyphs" textLength="60" x="403.5" y="361.0151">ViewGame</text><!--MD5=[335f4d9be48430461c68bf6d6fdba145]
class App--><rect fill="#FEFECE" filter="url(#fsr2x85h0fhd)" height="65.6094" id="App" style="stroke: #A80036; stroke-width: 1.5;" width="172" x="123" y="71.5"/><ellipse cx="192.75" cy="87.5" fill="#ADD1B2" rx="11" ry="11" style="stroke: #A80036; stroke-width: 1.0;"/><path d="M195.7188,93.1406 Q195.1406,93.4375 194.5,93.5781 Q193.8594,93.7344 193.1563,93.7344 Q190.6563,93.7344 189.3281,92.0938 Q188.0156,90.4375 188.0156,87.3125 Q188.0156,84.1875 189.3281,82.5313 Q190.6563,80.875 193.1563,80.875 Q193.8594,80.875 194.5,81.0313 Q195.1563,81.1875 195.7188,81.4844 L195.7188,84.2031 Q195.0938,83.625 194.5,83.3594 Q193.9063,83.0781 193.2813,83.0781 Q191.9375,83.0781 191.25,84.1563 Q190.5625,85.2188 190.5625,87.3125 Q190.5625,89.4063 191.25,90.4844 Q191.9375,91.5469 193.2813,91.5469 Q193.9063,91.5469 194.5,91.2813 Q195.0938,91 195.7188,90.4219 L195.7188,93.1406 Z "/><text fill="#000000" font-family="sans-serif" font-size="12" lengthAdjust="spacingAndGlyphs" textLength="24" x="213.25" y="91.6543">App</text><line style="stroke: #A80036; stroke-width: 1.5;" x1="124" x2="294" y1="103.5" y2="103.5"/><ellipse cx="134" cy="114.5" fill="#84BE84" rx="3" ry="3" style="stroke: #038048; stroke-width: 1.0;"/><text fill="#000000" font-family="sans-serif" font-size="11" lengthAdjust="spacingAndGlyphs" text-decoration="underline" textLength="90" x="143" y="117.7104">getLang() : Lang</text><ellipse cx="134" cy="127.3047" fill="#84BE84" rx="3" ry="3" style="stroke: #038048; stroke-width: 1.0;"/><text fill="#000000" font-family="sans-serif" font-size="11" lengthAdjust="spacingAndGlyphs" text-decoration="underline" textLength="146" x="143" y="130.5151">setLang( newLang : Lang )</text><!--MD5=[4f466642c94ef2a73e975d7b90f446a9]
reverse link ModelPet to Robot--><path d="M754.28,257.26 C735.93,277.3 712.63,302.74 698.01,318.7 " fill="none" id="ModelPet&lt;-Robot" style="stroke: #A80036; stroke-width: 1.0; stroke-dasharray: 7.0,7.0;"/><polygon fill="none" points="749.29,252.35,767.96,242.33,759.61,261.81,749.29,252.35" style="stroke: #A80036; stroke-width: 1.0;"/><!--MD5=[74c06c42aaa6c8b448d0338302a44b32]
reverse link ModelPet to Animal--><path d="M784.65,262.45 C786.08,281.54 787.76,304.09 788.86,318.7 " fill="none" id="ModelPet&lt;-Animal" style="stroke: #A80036; stroke-width: 1.0; stroke-dasharray: 7.0,7.0;"/><polygon fill="none" points="777.66,262.8,783.15,242.33,791.62,261.75,777.66,262.8" style="stroke: #A80036; stroke-width: 1.0;"/><!--MD5=[e7fdbd9cc01a81d0a8cc9dd038c862e3]
link Animal to ModelStat--><path d="M778.7809,362.2331 C778.7809,362.2331 757.46,412.12 748.68,432.68 " fill="none" id="Animal-ModelStat" style="stroke: #A80036; stroke-width: 1.0;"/><polygon fill="#A80036" points="743.55,444.67,750.767,437.9682,745.5163,440.0729,743.4116,434.8221,743.55,444.67" style="stroke: #A80036; stroke-width: 1.0;"/><line style="stroke: #A80036; stroke-width: 1.0;" x1="745.5163" x2="748.665" y1="440.0729" y2="432.72"/><polygon fill="#FFFFFF" points="783.5,351.2,777.4627,355.1435,778.7809,362.2331,784.8182,358.2896,783.5,351.2" style="stroke: #A80036; stroke-width: 1.0;"/><!--MD5=[f422c2807d3be77dbf95b21178d759de]
link Robot to ModelStat--><path d="M695.2191,362.2331 C695.2191,362.2331 716.54,412.12 725.32,432.68 " fill="none" id="Robot-ModelStat" style="stroke: #A80036; stroke-width: 1.0;"/><polygon fill="#A80036" points="730.45,444.67,730.5884,434.8221,728.4837,440.0729,723.233,437.9682,730.45,444.67" style="stroke: #A80036; stroke-width: 1.0;"/><line style="stroke: #A80036; stroke-width: 1.0;" x1="728.4837" x2="725.335" y1="440.0729" y2="432.72"/><polygon fill="#FFFFFF" points="690.5,351.2,689.1818,358.2896,695.2191,362.2331,696.5373,355.1435,690.5,351.2" style="stroke: #A80036; stroke-width: 1.0;"/><!--MD5=[5971e1841a2b9e394eb43f7dc4831a0e]
link ModelGame to ModelPet--><path d="M778.9054,132.6235 C778.9054,132.6235 780.42,177.79 781.06,196.81 " fill="none" id="ModelGame-ModelPet" style="stroke: #A80036; stroke-width: 1.0;"/><polygon fill="#A80036" points="781.5,209.99,785.1909,200.8589,781.3296,204.9929,777.1956,201.1316,781.5,209.99" style="stroke: #A80036; stroke-width: 1.0;"/><line style="stroke: #A80036; stroke-width: 1.0;" x1="781.3296" x2="781.065" y1="204.9929" y2="196.995"/><polygon fill="#FFFFFF" points="778.51,120.63,774.7099,126.7585,778.9054,132.6235,782.7055,126.4949,778.51,120.63" style="stroke: #A80036; stroke-width: 1.0;"/><!--MD5=[4de9b067ee7228c78f0bb54c9b6691cd]
link ModelGame to ModelRoom--><path d="M753.3334,128.8881 C753.3334,128.8881 699.21,180.23 677.4,200.91 " fill="none" id="ModelGame-ModelRoom" style="stroke: #A80036; stroke-width: 1.0;"/><polygon fill="#A80036" points="667.83,209.99,677.1126,206.6986,671.4577,206.5491,671.6072,200.8943,667.83,209.99" style="stroke: #A80036; stroke-width: 1.0;"/><line style="stroke: #A80036; stroke-width: 1.0;" x1="671.4577" x2="677.26" y1="206.5491" y2="201.04"/><polygon fill="#FFFFFF" points="762.04,120.63,754.934,121.8568,753.3334,128.8881,760.4394,127.6612,762.04,120.63" style="stroke: #A80036; stroke-width: 1.0;"/><!--MD5=[8bf2486ab1619f20eac8878ac066c89f]
link ViewMain to ViewGame--><path d="M1310.8184,128.8544 C1310.8184,128.8544 1365.42,180.23 1387.4,200.91 " fill="none" id="ViewMain-ViewGame" style="stroke: #A80036; stroke-width: 1.0;"/><polygon fill="#A80036" points="1397.05,209.99,1393.2445,200.906,1393.4116,206.5604,1387.7572,206.7275,1397.05,209.99" style="stroke: #A80036; stroke-width: 1.0;"/><line style="stroke: #A80036; stroke-width: 1.0;" x1="1393.4116" x2="1387.58" y1="206.5604" y2="201.08"/><polygon fill="#FFFFFF" points="1302.08,120.63,1303.7077,127.655,1310.8184,128.8544,1309.1907,121.8294,1302.08,120.63" style="stroke: #A80036; stroke-width: 1.0;"/><!--MD5=[da53a9ba11fef0ffc8dc778c68eb8e27]
link ViewMain to ViewMenu--><path d="M1261.3334,128.8881 C1261.3334,128.8881 1207.21,180.23 1185.4,200.91 " fill="none" id="ViewMain-ViewMenu" style="stroke: #A80036; stroke-width: 1.0;"/><polygon fill="#A80036" points="1175.83,209.99,1185.1126,206.6986,1179.4577,206.5491,1179.6072,200.8943,1175.83,209.99" style="stroke: #A80036; stroke-width: 1.0;"/><line style="stroke: #A80036; stroke-width: 1.0;" x1="1179.4577" x2="1185.26" y1="206.5491" y2="201.04"/><polygon fill="#FFFFFF" points="1270.04,120.63,1262.934,121.8568,1261.3334,128.8881,1268.4394,127.6612,1270.04,120.63" style="stroke: #A80036; stroke-width: 1.0;"/><!--MD5=[be9c79c74cacc2f476e166c2a4f64dcb]
link ViewMenu to ViewOption--><path d="M1175.7558,252.5458 C1175.7558,252.5458 1199.31,290.74 1209.45,307.16 " fill="none" id="ViewMenu-ViewOption" style="stroke: #A80036; stroke-width: 1.0;"/><polygon fill="#A80036" points="1216.56,318.7,1215.2399,308.94,1213.9352,314.4444,1208.4309,313.1397,1216.56,318.7" style="stroke: #A80036; stroke-width: 1.0;"/><line style="stroke: #A80036; stroke-width: 1.0;" x1="1213.9352" x2="1209.735" y1="314.4444" y2="307.63"/><polygon fill="#A80036" points="1169.46,242.33,1169.2026,249.5365,1175.7558,252.5458,1176.0132,245.3393,1169.46,242.33" style="stroke: #A80036; stroke-width: 1.0;"/><!--MD5=[f650e94ab78217e3508de37f16f9547a]
link ViewMenu to ViewCustomPet--><path d="M1119.8201,247.5718 C1119.8201,247.5718 1028.74,294.2 992.09,312.96 " fill="none" id="ViewMenu-ViewCustomPet" style="stroke: #A80036; stroke-width: 1.0;"/><polygon fill="#A80036" points="980.35,318.97,990.1838,318.4261,984.7999,316.6901,986.536,311.3062,980.35,318.97" style="stroke: #A80036; stroke-width: 1.0;"/><line style="stroke: #A80036; stroke-width: 1.0;" x1="984.7999" x2="991.925" y1="316.6901" y2="313.05"/><polygon fill="#A80036" points="1130.5,242.1,1123.3361,241.2759,1119.8201,247.5718,1126.984,248.3958,1130.5,242.1" style="stroke: #A80036; stroke-width: 1.0;"/><!--MD5=[6446f8f44f20e882252a98232a1037b1]
link ViewMenu to ViewLoad--><path d="M1144.4657,252.5895 C1144.4657,252.5895 1121.28,290.74 1111.3,307.16 " fill="none" id="ViewMenu-ViewLoad" style="stroke: #A80036; stroke-width: 1.0;"/><polygon fill="#A80036" points="1104.3,318.7,1112.3913,313.0847,1106.8959,314.4267,1105.5539,308.9313,1104.3,318.7" style="stroke: #A80036; stroke-width: 1.0;"/><line style="stroke: #A80036; stroke-width: 1.0;" x1="1106.8959" x2="1111.045" y1="314.4267" y2="307.59"/><polygon fill="#A80036" points="1150.69,242.33,1144.158,245.385,1144.4657,252.5895,1150.9977,249.5345,1150.69,242.33" style="stroke: #A80036; stroke-width: 1.0;"/><!--MD5=[9168ed23fe193ebb26894be34fee4a0e]
link ViewGame to ViewHUD--><path d="M1449.9646,248.0437 C1449.9646,248.0437 1530.35,293.79 1562.88,312.3 " fill="none" id="ViewGame-ViewHUD" style="stroke: #A80036; stroke-width: 1.0;"/><polygon fill="#A80036" points="1574.6,318.97,1568.7552,311.0429,1570.2541,316.4976,1564.7994,317.9964,1574.6,318.97" style="stroke: #A80036; stroke-width: 1.0;"/><line style="stroke: #A80036; stroke-width: 1.0;" x1="1570.2541" x2="1563.3" y1="316.4976" y2="312.545"/><polygon fill="#A80036" points="1439.54,242.1,1442.7711,248.5467,1449.9646,248.0437,1446.7335,241.597,1439.54,242.1" style="stroke: #A80036; stroke-width: 1.0;"/><!--MD5=[09dd6a64c3d68c174e3adb5d94daf6ef]
link ViewHUD to ViewAction--><path d="M1599.6798,363.186 C1599.6798,363.186 1597.36,411.33 1596.38,431.41 " fill="none" id="ViewHUD-ViewAction" style="stroke: #A80036; stroke-width: 1.0;"/><polygon fill="#A80036" points="1595.74,444.67,1600.1709,435.8742,1595.982,439.6759,1592.1803,435.4869,1595.74,444.67" style="stroke: #A80036; stroke-width: 1.0;"/><line style="stroke: #A80036; stroke-width: 1.0;" x1="1595.982" x2="1596.37" y1="439.6759" y2="431.69"/><polygon fill="#A80036" points="1600.26,351.2,1595.9746,356.9996,1599.6798,363.186,1603.9652,357.3864,1600.26,351.2" style="stroke: #A80036; stroke-width: 1.0;"/><!--MD5=[2c621505a26fa19aa311a2aae8df3665]
link ViewHUD to ViewStat--><path d="M1575.7615,359.3492 C1575.7615,359.3492 1516.9,413.82 1493.27,435.69 " fill="none" id="ViewHUD-ViewStat" style="stroke: #A80036; stroke-width: 1.0;"/><polygon fill="#A80036" points="1483.57,444.67,1492.8928,441.4943,1487.2402,441.2745,1487.46,435.6219,1483.57,444.67" style="stroke: #A80036; stroke-width: 1.0;"/><line style="stroke: #A80036; stroke-width: 1.0;" x1="1487.2402" x2="1493.11" y1="441.2745" y2="435.84"/><polygon fill="#FFFFFF" points="1584.57,351.2,1577.4493,352.3384,1575.7615,359.3492,1582.8821,358.2108,1584.57,351.2" style="stroke: #A80036; stroke-width: 1.0;"/><!--MD5=[72c63d8179027bd176e1b9e790de2564]
link ViewGame to ViewRoom--><path d="M1427.8904,252.7163 C1427.8904,252.7163 1450.02,290.88 1459.48,307.22 " fill="none" id="ViewGame-ViewRoom" style="stroke: #A80036; stroke-width: 1.0;"/><polygon fill="#A80036" points="1466.13,318.7,1465.0789,308.9074,1463.6233,314.3737,1458.1569,312.9181,1466.13,318.7" style="stroke: #A80036; stroke-width: 1.0;"/><line style="stroke: #A80036; stroke-width: 1.0;" x1="1463.6233" x2="1459.615" y1="314.3737" y2="307.45"/><polygon fill="#FFFFFF" points="1421.88,242.33,1421.4231,249.5266,1427.8904,252.7163,1428.3473,245.5197,1421.88,242.33" style="stroke: #A80036; stroke-width: 1.0;"/><!--MD5=[1982cb46ecac96c4096775a36a11f323]
link ViewGame to ViewPet--><path d="M1398.3106,252.7514 C1398.3106,252.7514 1376.58,290.88 1367.27,307.22 " fill="none" id="ViewGame-ViewPet" style="stroke: #A80036; stroke-width: 1.0;"/><polygon fill="#A80036" points="1360.72,318.7,1368.6558,312.8671,1363.1989,314.3578,1361.7083,308.9009,1360.72,318.7" style="stroke: #A80036; stroke-width: 1.0;"/><line style="stroke: #A80036; stroke-width: 1.0;" x1="1363.1989" x2="1367.16" y1="314.3578" y2="307.405"/><polygon fill="#FFFFFF" points="1404.26,242.33,1397.8115,245.5575,1398.3106,252.7514,1404.7591,249.5238,1404.26,242.33" style="stroke: #A80036; stroke-width: 1.0;"/><!--MD5=[b1ef4671a1757d589d06dc8a838d028a]
link ControllerPet to ControllerStat--><path d="M292,506.26 C292,506.26 292,529.79 292,540.65 " fill="none" id="ControllerPet-ControllerStat" style="stroke: #A80036; stroke-width: 1.0;"/><polygon fill="#A80036" points="292,553.91,296,544.91,292,548.91,288,544.91,292,553.91" style="stroke: #A80036; stroke-width: 1.0;"/><line style="stroke: #A80036; stroke-width: 1.0;" x1="292" x2="292" y1="548.91" y2="540.91"/><polygon fill="#A80036" points="292,494.26,288,500.26,292,506.26,296,500.26,292,494.26" style="stroke: #A80036; stroke-width: 1.0;"/><!--MD5=[efe405b14041d5631e08871e4931eb2f]
link ControllerGame to ControllerPet--><path d="M398.0213,375.7209 C398.0213,375.7209 360.27,405.73 342.89,419.55 " fill="none" id="ControllerGame-ControllerPet" style="stroke: #A80036; stroke-width: 1.0;"/><polygon fill="#A80036" points="332.38,427.91,341.916,425.4472,336.2961,424.8013,336.942,419.1814,332.38,427.91" style="stroke: #A80036; stroke-width: 1.0;"/><line style="stroke: #A80036; stroke-width: 1.0;" x1="336.2961" x2="342.55" y1="424.8013" y2="419.815"/><polygon fill="#A80036" points="407.42,368.26,400.2337,368.8576,398.0213,375.7209,405.2076,375.1233,407.42,368.26" style="stroke: #A80036; stroke-width: 1.0;"/><!--MD5=[ddcc429a3235b8516599080435159d34]
link ControllerGame to ControllerRoom--><path d="M448,380.26 C448,380.26 448,403.79 448,414.65 " fill="none" id="ControllerGame-ControllerRoom" style="stroke: #A80036; stroke-width: 1.0;"/><polygon fill="#A80036" points="448,427.91,452,418.91,448,422.91,444,418.91,448,427.91" style="stroke: #A80036; stroke-width: 1.0;"/><line style="stroke: #A80036; stroke-width: 1.0;" x1="448" x2="448" y1="422.91" y2="414.91"/><polygon fill="#A80036" points="448,368.26,444,374.26,448,380.26,452,374.26,448,368.26" style="stroke: #A80036; stroke-width: 1.0;"/><!--MD5=[9929c6352887e0a164ebebea74672e21]
link ControllerMain to ControllerGame--><path d="M318.045,248.6801 C318.045,248.6801 364.58,279.24 387.79,294.47 " fill="none" id="ControllerMain-ControllerGame" style="stroke: #A80036; stroke-width: 1.0;"/><polygon fill="#A80036" points="398.95,301.8,393.6247,293.515,394.7713,299.0544,389.2318,300.201,398.95,301.8" style="stroke: #A80036; stroke-width: 1.0;"/><line style="stroke: #A80036; stroke-width: 1.0;" x1="394.7713" x2="388.08" y1="299.0544" y2="294.665"/><polygon fill="#A80036" points="308.01,242.1,310.8341,248.7351,318.045,248.6801,315.2209,242.0451,308.01,242.1" style="stroke: #A80036; stroke-width: 1.0;"/><!--MD5=[db94271f82011bff79064c77ddb1b261]
link ControllerMain to ControllerMenu--><path d="M285,254.33 C285,254.33 285,277.33 285,288.59 " fill="none" id="ControllerMain-ControllerMenu" style="stroke: #A80036; stroke-width: 1.0;"/><polygon fill="#A80036" points="285,301.94,289,292.94,285,296.94,281,292.94,285,301.94" style="stroke: #A80036; stroke-width: 1.0;"/><line style="stroke: #A80036; stroke-width: 1.0;" x1="285" x2="285" y1="296.94" y2="288.94"/><polygon fill="#A80036" points="285,242.33,281,248.33,285,254.33,289,248.33,285,242.33" style="stroke: #A80036; stroke-width: 1.0;"/><!--MD5=[7a711561beb8c4cdf7234f3728bff315]
reverse link Lang to Fr--><path d="M111.82,259.07 C98.17,278.81 81.29,303.21 70.58,318.7 " fill="none" id="Lang&lt;-Fr" style="stroke: #A80036; stroke-width: 1.0; stroke-dasharray: 7.0,7.0;"/><polygon fill="none" points="106.26,254.8,123.4,242.33,117.78,262.76,106.26,254.8" style="stroke: #A80036; stroke-width: 1.0;"/><!--MD5=[19ab5e507920a255ac7de618dae57c4a]
reverse link Lang to En--><path d="M136.32,262.45 C137.57,281.54 139.04,304.09 140,318.7 " fill="none" id="Lang&lt;-En" style="stroke: #A80036; stroke-width: 1.0; stroke-dasharray: 7.0,7.0;"/><polygon fill="none" points="129.32,262.74,135,242.33,143.29,261.83,129.32,262.74" style="stroke: #A80036; stroke-width: 1.0;"/><!--MD5=[44ec7255984f9518cac8781f20697b6b]
link App to Lang--><path d="M182.5234,147.6856 C182.5234,147.6856 159.69,184.07 150.49,198.73 " fill="none" id="App-Lang" style="stroke: #A80036; stroke-width: 1.0;"/><polygon fill="#A80036" points="143.43,209.97,151.601,204.4713,146.0869,205.7343,144.8239,200.2203,143.43,209.97" style="stroke: #A80036; stroke-width: 1.0;"/><line style="stroke: #A80036; stroke-width: 1.0;" x1="146.0869" x2="150.34" y1="205.7343" y2="198.965"/><polygon fill="#FFFFFF" points="188.9,137.52,182.3232,140.4773,182.5234,147.6856,189.1002,144.7283,188.9,137.52" style="stroke: #A80036; stroke-width: 1.0;"/><!--MD5=[dd57218bcfe32411ddd60f0a689a21ae]
link App to ControllerMain--><path d="M235.8151,147.6423 C235.8151,147.6423 258.97,184.07 268.29,198.73 " fill="none" id="App-ControllerMain" style="stroke: #A80036; stroke-width: 1.0;"/><polygon fill="#A80036" points="275.44,209.97,273.9803,200.2299,272.7546,205.7524,267.2321,204.5266,275.44,209.97" style="stroke: #A80036; stroke-width: 1.0;"/><line style="stroke: #A80036; stroke-width: 1.0;" x1="272.7546" x2="268.47" y1="205.7524" y2="199.005"/><polygon fill="#A80036" points="229.37,137.52,229.2184,144.7295,235.8151,147.6423,235.9666,140.4328,229.37,137.52" style="stroke: #A80036; stroke-width: 1.0;"/><!--MD5=[e571c36e5a463e5c2dda637fdf217da7]
@startuml

hide empty attributes
hide empty methods

class App {
	+ {static} getLang() : Lang
	+ {static} setLang( newLang : Lang )
}


package lang {
	interface Lang
	class Fr
	Class En
}

package model {
    class ModelRoom
    class ModelGame
    class ModelStat
    class ModelOption {
    	-language : string
	    -volume : double
	    -h_window : int
	    -w_window : int
    }
    interface ModelPet
    class Robot
    class Animal
    
    ModelPet <|.. Robot
    ModelPet <|.. Animal
    Animal o- -> ModelStat
    Robot o- -> ModelStat
    ModelGame o- -> ModelPet
    ModelGame o- -> ModelRoom
}

package view {
	class ViewMain
    class ViewPet
    class ViewRoom
    class ViewStat
    class ViewMenu
    class ViewCustomPet
    class ViewLoad
    class ViewAction
    class ViewOption
    class ViewGame
    class ViewHUD
    
    ViewMain o- -> ViewGame
    ViewMain o- -> ViewMenu
    ViewMenu *- -> ViewOption
    ViewMenu *- -> ViewCustomPet
    ViewMenu *- -> ViewLoad
    ViewGame *- -> ViewHUD
    ViewHUD  *- -> ViewAction
    ViewHUD  o- -> ViewStat
    ViewGame o- -> ViewRoom
    ViewGame o- -> ViewPet
}

package Controller {
    class ControllerMain
    
    class ControllerPet {
        -ModelPet
        -ViewPet
    }
    class ControllerRoom {
        -ModelRoom
        -ViewRoom
    }
    class ControllerStat {
        -ModelStat
        -ViewStat
    }
    class ControllerMenu {
        -ModelOption
        -ViewMenu
    }
    class ControllerGame {
        -ModelGame
        -ViewGame
    }
    
    ControllerPet *- -> ControllerStat
    ControllerGame *- -> ControllerPet
    ControllerGame *- -> ControllerRoom
    ControllerMain *- -> ControllerGame 
    ControllerMain *- -> ControllerMenu
    
}

Lang <|.. Fr
Lang <|.. En
App o- -> Lang
App *- -> ControllerMain

@enduml

PlantUML version 1.2020.02(Sun Mar 01 11:22:07 CET 2020)
(GPL source distribution)
Java Runtime: OpenJDK Runtime Environment
JVM: OpenJDK 64-Bit Server VM
Java Version: 17.0.5+8-Debian-2
Operating System: Linux
Default Encoding: UTF-8
Language: fr
Country: FR
--></g></svg>