<?xml version="1.0" encoding="UTF-8" standalone="no"?><svg xmlns="http://www.w3.org/2000/svg" xmlns:xlink="http://www.w3.org/1999/xlink" contentStyleType="text/css" height="880px" preserveAspectRatio="none" style="width:1926px;height:880px;background:#FFFFFF;" version="1.1" viewBox="0 0 1926 880" width="1926px" zoomAndPan="magnify"><defs/><g><!--cluster model--><g id="cluster_model"><path d="M390.5,6 L440.5,6 A3.75,3.75 0 0 1 443,8.5 L450,28.2969 L1027.5,28.2969 A2.5,2.5 0 0 1 1030,30.7969 L1030,717 A2.5,2.5 0 0 1 1027.5,719.5 L390.5,719.5 A2.5,2.5 0 0 1 388,717 L388,8.5 A2.5,2.5 0 0 1 390.5,6 " fill="none" style="stroke:#000000;stroke-width:1.5;"/><line style="stroke:#000000;stroke-width:1.5;" x1="388" x2="450" y1="28.2969" y2="28.2969"/><text fill="#000000" font-family="sans-serif" font-size="14" font-weight="bold" lengthAdjust="spacing" textLength="49" x="392" y="20.9951">model</text></g><!--cluster view--><g id="cluster_view"><path d="M1056.5,42.5 L1093.5,42.5 A3.75,3.75 0 0 1 1096,45 L1103,64.7969 L1916.5,64.7969 A2.5,2.5 0 0 1 1919,67.2969 L1919,717 A2.5,2.5 0 0 1 1916.5,719.5 L1056.5,719.5 A2.5,2.5 0 0 1 1054,717 L1054,45 A2.5,2.5 0 0 1 1056.5,42.5 " fill="none" style="stroke:#000000;stroke-width:1.5;"/><line style="stroke:#000000;stroke-width:1.5;" x1="1054" x2="1103" y1="64.7969" y2="64.7969"/><text fill="#000000" font-family="sans-serif" font-size="14" font-weight="bold" lengthAdjust="spacing" textLength="36" x="1058" y="57.4951">view</text></g><!--cluster Controller--><g id="cluster_Controller"><path d="M8.5,269 L90.5,269 A3.75,3.75 0 0 1 93,271.5 L100,291.2969 L361.5,291.2969 A2.5,2.5 0 0 1 364,293.7969 L364,870.5 A2.5,2.5 0 0 1 361.5,873 L8.5,873 A2.5,2.5 0 0 1 6,870.5 L6,271.5 A2.5,2.5 0 0 1 8.5,269 " fill="none" style="stroke:#000000;stroke-width:1.5;"/><line style="stroke:#000000;stroke-width:1.5;" x1="6" x2="100" y1="291.2969" y2="291.2969"/><text fill="#000000" font-family="sans-serif" font-size="14" font-weight="bold" lengthAdjust="spacing" textLength="81" x="10" y="283.9951">Controller</text></g><!--class ModelRoom--><g id="elem_ModelRoom"><rect codeLine="25" fill="#F1F1F1" height="32" id="ModelRoom" rx="2.5" ry="2.5" style="stroke:#181818;stroke-width:0.5;" width="117" x="404.5" y="316"/><ellipse cx="419.5" cy="332" fill="#ADD1B2" rx="11" ry="11" style="stroke:#181818;stroke-width:1.0;"/><path d="M421.8438,327.6719 C420.9063,327.2344 420.3125,327.0938 419.4375,327.0938 C416.8125,327.0938 414.8125,329.1719 414.8125,331.8906 L414.8125,333.0156 C414.8125,335.5938 416.9219,337.4844 419.8125,337.4844 C421.0313,337.4844 422.1875,337.1875 422.9375,336.6406 C423.5156,336.2344 423.8438,335.7813 423.8438,335.3906 C423.8438,334.9375 423.4531,334.5469 422.9844,334.5469 C422.7656,334.5469 422.5625,334.625 422.375,334.8125 C421.9219,335.2969 421.9219,335.2969 421.7344,335.3906 C421.3125,335.6563 420.625,335.7813 419.8594,335.7813 C417.8125,335.7813 416.5156,334.6875 416.5156,332.9844 L416.5156,331.8906 C416.5156,330.1094 417.7656,328.7969 419.5,328.7969 C420.0781,328.7969 420.6875,328.9531 421.1563,329.2031 C421.6406,329.4844 421.8125,329.7031 421.9063,330.1094 C421.9688,330.5156 422,330.6406 422.1406,330.7656 C422.2813,330.9063 422.5156,331.0156 422.7344,331.0156 C423,331.0156 423.2656,330.875 423.4375,330.6563 C423.5469,330.5 423.5781,330.3125 423.5781,329.8906 L423.5781,328.4688 C423.5781,328.0313 423.5625,327.9063 423.4688,327.75 C423.3125,327.4844 423.0313,327.3438 422.7344,327.3438 C422.4375,327.3438 422.2344,327.4375 422.0156,327.75 L421.8438,327.6719 Z " fill="#000000"/><text fill="#000000" font-family="sans-serif" font-size="14" lengthAdjust="spacing" textLength="85" x="433.5" y="336.8467">ModelRoom</text></g><!--class ModelGame--><g id="elem_ModelGame"><rect codeLine="26" fill="#F1F1F1" height="88.8906" id="ModelGame" rx="2.5" ry="2.5" style="stroke:#181818;stroke-width:0.5;" width="241" x="584.5" y="49"/><ellipse cx="658.25" cy="65" fill="#ADD1B2" rx="11" ry="11" style="stroke:#181818;stroke-width:1.0;"/><path d="M660.5938,60.6719 C659.6563,60.2344 659.0625,60.0938 658.1875,60.0938 C655.5625,60.0938 653.5625,62.1719 653.5625,64.8906 L653.5625,66.0156 C653.5625,68.5938 655.6719,70.4844 658.5625,70.4844 C659.7813,70.4844 660.9375,70.1875 661.6875,69.6406 C662.2656,69.2344 662.5938,68.7813 662.5938,68.3906 C662.5938,67.9375 662.2031,67.5469 661.7344,67.5469 C661.5156,67.5469 661.3125,67.625 661.125,67.8125 C660.6719,68.2969 660.6719,68.2969 660.4844,68.3906 C660.0625,68.6563 659.375,68.7813 658.6094,68.7813 C656.5625,68.7813 655.2656,67.6875 655.2656,65.9844 L655.2656,64.8906 C655.2656,63.1094 656.5156,61.7969 658.25,61.7969 C658.8281,61.7969 659.4375,61.9531 659.9063,62.2031 C660.3906,62.4844 660.5625,62.7031 660.6563,63.1094 C660.7188,63.5156 660.75,63.6406 660.8906,63.7656 C661.0313,63.9063 661.2656,64.0156 661.4844,64.0156 C661.75,64.0156 662.0156,63.875 662.1875,63.6563 C662.2969,63.5 662.3281,63.3125 662.3281,62.8906 L662.3281,61.4688 C662.3281,61.0313 662.3125,60.9063 662.2188,60.75 C662.0625,60.4844 661.7813,60.3438 661.4844,60.3438 C661.1875,60.3438 660.9844,60.4375 660.7656,60.75 L660.5938,60.6719 Z " fill="#000000"/><text fill="#000000" font-family="sans-serif" font-size="14" lengthAdjust="spacing" textLength="85" x="678.75" y="69.8467">ModelGame</text><line style="stroke:#181818;stroke-width:0.5;" x1="585.5" x2="824.5" y1="81" y2="81"/><text fill="#000000" font-family="sans-serif" font-size="14" lengthAdjust="spacing" textLength="89" x="590.5" y="97.9951">Pet getPet()</text><text fill="#000000" font-family="sans-serif" font-size="14" lengthAdjust="spacing" textLength="123" x="590.5" y="114.292">Room getRoom()</text><text fill="#000000" font-family="sans-serif" font-size="14" lengthAdjust="spacing" textLength="229" x="590.5" y="130.5889">void setRoom(Room new_room)</text></g><!--class ModelStat--><g id="elem_ModelStat"><rect codeLine="31" fill="#F1F1F1" height="32" id="ModelStat" rx="2.5" ry="2.5" style="stroke:#181818;stroke-width:0.5;" width="106" x="826" y="671.5"/><ellipse cx="841" cy="687.5" fill="#ADD1B2" rx="11" ry="11" style="stroke:#181818;stroke-width:1.0;"/><path d="M843.3438,683.1719 C842.4063,682.7344 841.8125,682.5938 840.9375,682.5938 C838.3125,682.5938 836.3125,684.6719 836.3125,687.3906 L836.3125,688.5156 C836.3125,691.0938 838.4219,692.9844 841.3125,692.9844 C842.5313,692.9844 843.6875,692.6875 844.4375,692.1406 C845.0156,691.7344 845.3438,691.2813 845.3438,690.8906 C845.3438,690.4375 844.9531,690.0469 844.4844,690.0469 C844.2656,690.0469 844.0625,690.125 843.875,690.3125 C843.4219,690.7969 843.4219,690.7969 843.2344,690.8906 C842.8125,691.1563 842.125,691.2813 841.3594,691.2813 C839.3125,691.2813 838.0156,690.1875 838.0156,688.4844 L838.0156,687.3906 C838.0156,685.6094 839.2656,684.2969 841,684.2969 C841.5781,684.2969 842.1875,684.4531 842.6563,684.7031 C843.1406,684.9844 843.3125,685.2031 843.4063,685.6094 C843.4688,686.0156 843.5,686.1406 843.6406,686.2656 C843.7813,686.4063 844.0156,686.5156 844.2344,686.5156 C844.5,686.5156 844.7656,686.375 844.9375,686.1563 C845.0469,686 845.0781,685.8125 845.0781,685.3906 L845.0781,683.9688 C845.0781,683.5313 845.0625,683.4063 844.9688,683.25 C844.8125,682.9844 844.5313,682.8438 844.2344,682.8438 C843.9375,682.8438 843.7344,682.9375 843.5156,683.25 L843.3438,683.1719 Z " fill="#000000"/><text fill="#000000" font-family="sans-serif" font-size="14" lengthAdjust="spacing" textLength="74" x="855" y="692.3467">ModelStat</text></g><!--class ModelOption--><g id="elem_ModelOption"><rect codeLine="32" fill="#F1F1F1" height="105.1875" id="ModelOption" rx="2.5" ry="2.5" style="stroke:#181818;stroke-width:0.5;" width="145" x="404.5" y="41"/><ellipse cx="428.5" cy="57" fill="#ADD1B2" rx="11" ry="11" style="stroke:#181818;stroke-width:1.0;"/><path d="M430.8438,52.6719 C429.9063,52.2344 429.3125,52.0938 428.4375,52.0938 C425.8125,52.0938 423.8125,54.1719 423.8125,56.8906 L423.8125,58.0156 C423.8125,60.5938 425.9219,62.4844 428.8125,62.4844 C430.0313,62.4844 431.1875,62.1875 431.9375,61.6406 C432.5156,61.2344 432.8438,60.7813 432.8438,60.3906 C432.8438,59.9375 432.4531,59.5469 431.9844,59.5469 C431.7656,59.5469 431.5625,59.625 431.375,59.8125 C430.9219,60.2969 430.9219,60.2969 430.7344,60.3906 C430.3125,60.6563 429.625,60.7813 428.8594,60.7813 C426.8125,60.7813 425.5156,59.6875 425.5156,57.9844 L425.5156,56.8906 C425.5156,55.1094 426.7656,53.7969 428.5,53.7969 C429.0781,53.7969 429.6875,53.9531 430.1563,54.2031 C430.6406,54.4844 430.8125,54.7031 430.9063,55.1094 C430.9688,55.5156 431,55.6406 431.1406,55.7656 C431.2813,55.9063 431.5156,56.0156 431.7344,56.0156 C432,56.0156 432.2656,55.875 432.4375,55.6563 C432.5469,55.5 432.5781,55.3125 432.5781,54.8906 L432.5781,53.4688 C432.5781,53.0313 432.5625,52.9063 432.4688,52.75 C432.3125,52.4844 432.0313,52.3438 431.7344,52.3438 C431.4375,52.3438 431.2344,52.4375 431.0156,52.75 L430.8438,52.6719 Z " fill="#000000"/><text fill="#000000" font-family="sans-serif" font-size="14" lengthAdjust="spacing" textLength="93" x="444.5" y="61.8467">ModelOption</text><line style="stroke:#181818;stroke-width:0.5;" x1="405.5" x2="548.5" y1="73" y2="73"/><rect fill="none" height="6" style="stroke:#C82930;stroke-width:1.0;" width="6" x="412.5" y="83.6484"/><text fill="#000000" font-family="sans-serif" font-size="14" lengthAdjust="spacing" textLength="119" x="424.5" y="89.9951">language : string</text><rect fill="none" height="6" style="stroke:#C82930;stroke-width:1.0;" width="6" x="412.5" y="99.9453"/><text fill="#000000" font-family="sans-serif" font-size="14" lengthAdjust="spacing" textLength="114" x="424.5" y="106.292">volume : double</text><rect fill="none" height="6" style="stroke:#C82930;stroke-width:1.0;" width="6" x="412.5" y="116.2422"/><text fill="#000000" font-family="sans-serif" font-size="14" lengthAdjust="spacing" textLength="102" x="424.5" y="122.5889">h_window : int</text><rect fill="none" height="6" style="stroke:#C82930;stroke-width:1.0;" width="6" x="412.5" y="132.5391"/><text fill="#000000" font-family="sans-serif" font-size="14" lengthAdjust="spacing" textLength="104" x="424.5" y="138.8857">w_window : int</text></g><!--class ModelSave--><g id="elem_ModelSave"><rect codeLine="38" fill="#F1F1F1" height="105.1875" id="ModelSave" rx="2.5" ry="2.5" style="stroke:#181818;stroke-width:0.5;" width="192" x="557" y="279.5"/><ellipse cx="610.25" cy="295.5" fill="#ADD1B2" rx="11" ry="11" style="stroke:#181818;stroke-width:1.0;"/><path d="M612.5938,291.1719 C611.6563,290.7344 611.0625,290.5938 610.1875,290.5938 C607.5625,290.5938 605.5625,292.6719 605.5625,295.3906 L605.5625,296.5156 C605.5625,299.0938 607.6719,300.9844 610.5625,300.9844 C611.7813,300.9844 612.9375,300.6875 613.6875,300.1406 C614.2656,299.7344 614.5938,299.2813 614.5938,298.8906 C614.5938,298.4375 614.2031,298.0469 613.7344,298.0469 C613.5156,298.0469 613.3125,298.125 613.125,298.3125 C612.6719,298.7969 612.6719,298.7969 612.4844,298.8906 C612.0625,299.1563 611.375,299.2813 610.6094,299.2813 C608.5625,299.2813 607.2656,298.1875 607.2656,296.4844 L607.2656,295.3906 C607.2656,293.6094 608.5156,292.2969 610.25,292.2969 C610.8281,292.2969 611.4375,292.4531 611.9063,292.7031 C612.3906,292.9844 612.5625,293.2031 612.6563,293.6094 C612.7188,294.0156 612.75,294.1406 612.8906,294.2656 C613.0313,294.4063 613.2656,294.5156 613.4844,294.5156 C613.75,294.5156 614.0156,294.375 614.1875,294.1563 C614.2969,294 614.3281,293.8125 614.3281,293.3906 L614.3281,291.9688 C614.3281,291.5313 614.3125,291.4063 614.2188,291.25 C614.0625,290.9844 613.7813,290.8438 613.4844,290.8438 C613.1875,290.8438 612.9844,290.9375 612.7656,291.25 L612.5938,291.1719 Z " fill="#000000"/><text fill="#000000" font-family="sans-serif" font-size="14" lengthAdjust="spacing" textLength="77" x="630.75" y="300.3467">ModelSave</text><line style="stroke:#181818;stroke-width:0.5;" x1="558" x2="748" y1="311.5" y2="311.5"/><rect fill="none" height="6" style="stroke:#C82930;stroke-width:1.0;" width="6" x="565" y="322.1484"/><text fill="#000000" font-family="sans-serif" font-size="14" lengthAdjust="spacing" textLength="160" x="577" y="328.4951">info_pet : list&lt;string&gt;</text><rect fill="none" height="6" style="stroke:#C82930;stroke-width:1.0;" width="6" x="565" y="338.4453"/><text fill="#000000" font-family="sans-serif" font-size="14" lengthAdjust="spacing" textLength="160" x="577" y="344.792">info_opt : list&lt;string&gt;</text><rect fill="none" height="6" style="stroke:#C82930;stroke-width:1.0;" width="6" x="565" y="354.7422"/><text fill="#000000" font-family="sans-serif" font-size="14" lengthAdjust="spacing" textLength="166" x="577" y="361.0889">info_gme : list&lt;string&gt;</text><rect fill="none" height="6" style="stroke:#C82930;stroke-width:1.0;" width="6" x="565" y="371.0391"/><text fill="#000000" font-family="sans-serif" font-size="14" lengthAdjust="spacing" textLength="155" x="577" y="377.3857">info_usr : list&lt;string&gt;</text></g><!--class ModelPet--><g id="elem_ModelPet"><rect codeLine="44" fill="#F1F1F1" height="251.8594" id="ModelPet" rx="2.5" ry="2.5" style="stroke:#181818;stroke-width:0.5;" width="229" x="784.5" y="206"/><ellipse cx="862.25" cy="222" fill="#B4A7E5" rx="11" ry="11" style="stroke:#181818;stroke-width:1.0;"/><path d="M863.2031,218.7813 L864.9219,218.7813 C865.3125,218.7813 865.5,218.75 865.625,218.6719 C865.8906,218.5156 866.0313,218.2344 866.0313,217.9375 C866.0313,217.6719 865.9219,217.4063 865.6875,217.2344 C865.5156,217.125 865.375,217.0938 864.9219,217.0938 L859.7813,217.0938 C859.3438,217.0938 859.2188,217.1094 859.0625,217.2031 C858.8125,217.3594 858.6563,217.6563 858.6563,217.9375 C858.6563,218.2188 858.7969,218.4688 859.0156,218.6406 C859.1719,218.75 859.3594,218.7813 859.7813,218.7813 L861.5,218.7813 L861.5,225.2969 L859.7813,225.2969 C859.3438,225.2969 859.2188,225.3125 859.0625,225.4219 C858.8125,225.5781 858.6563,225.8594 858.6563,226.1563 C858.6563,226.4063 858.7969,226.6719 859.0156,226.8281 C859.1719,226.9531 859.375,227 859.7813,227 L864.9219,227 C865.6719,227 866.0313,226.7188 866.0313,226.1563 C866.0313,225.875 865.9219,225.625 865.6875,225.4531 C865.5156,225.3281 865.375,225.2969 864.9219,225.2969 L863.2031,225.2969 L863.2031,218.7813 Z " fill="#000000"/><text fill="#000000" font-family="sans-serif" font-size="14" font-style="italic" lengthAdjust="spacing" textLength="65" x="882.75" y="226.8467">ModelPet</text><line style="stroke:#181818;stroke-width:0.5;" x1="785.5" x2="1012.5" y1="238" y2="238"/><text fill="#000000" font-family="sans-serif" font-size="14" lengthAdjust="spacing" textLength="202" x="790.5" y="254.9951">void sethunger(Stat hunger)</text><text fill="#000000" font-family="sans-serif" font-size="14" lengthAdjust="spacing" textLength="184" x="790.5" y="271.292">void setThrist(Stat thirst)</text><text fill="#000000" font-family="sans-serif" font-size="14" lengthAdjust="spacing" textLength="203" x="790.5" y="287.5889">void setWeight(Stat weight)</text><text fill="#000000" font-family="sans-serif" font-size="14" lengthAdjust="spacing" textLength="217" x="790.5" y="303.8857">void setHygiene(Stat hygiene)</text><text fill="#000000" font-family="sans-serif" font-size="14" lengthAdjust="spacing" textLength="182" x="790.5" y="320.1826">void setMoral(Stat moral)</text><text fill="#000000" font-family="sans-serif" font-size="14" lengthAdjust="spacing" textLength="121" x="790.5" y="336.4795">Stat getHunger()</text><text fill="#000000" font-family="sans-serif" font-size="14" lengthAdjust="spacing" textLength="112" x="790.5" y="352.7764">Stat getThirst()</text><text fill="#000000" font-family="sans-serif" font-size="14" lengthAdjust="spacing" textLength="122" x="790.5" y="369.0732">Stat getWeight()</text><text fill="#000000" font-family="sans-serif" font-size="14" lengthAdjust="spacing" textLength="128" x="790.5" y="385.3701">Stat getHygiene()</text><text fill="#000000" font-family="sans-serif" font-size="14" lengthAdjust="spacing" textLength="109" x="790.5" y="401.667">Stat getMoral()</text><text fill="#000000" font-family="sans-serif" font-size="14" lengthAdjust="spacing" textLength="119" x="790.5" y="417.9639">String getType()</text><text fill="#000000" font-family="sans-serif" font-size="14" lengthAdjust="spacing" textLength="118" x="790.5" y="434.2607">String toString()</text><text fill="#000000" font-family="sans-serif" font-size="14" lengthAdjust="spacing" textLength="154" x="790.5" y="450.5576">int getStatsNumber()</text></g><!--class Robot--><g id="elem_Robot"><rect codeLine="59" fill="#F1F1F1" height="32" id="Robot" rx="2.5" ry="2.5" style="stroke:#181818;stroke-width:0.5;" width="77" x="783.5" y="538.5"/><ellipse cx="798.5" cy="554.5" fill="#ADD1B2" rx="11" ry="11" style="stroke:#181818;stroke-width:1.0;"/><path d="M800.8438,550.1719 C799.9063,549.7344 799.3125,549.5938 798.4375,549.5938 C795.8125,549.5938 793.8125,551.6719 793.8125,554.3906 L793.8125,555.5156 C793.8125,558.0938 795.9219,559.9844 798.8125,559.9844 C800.0313,559.9844 801.1875,559.6875 801.9375,559.1406 C802.5156,558.7344 802.8438,558.2813 802.8438,557.8906 C802.8438,557.4375 802.4531,557.0469 801.9844,557.0469 C801.7656,557.0469 801.5625,557.125 801.375,557.3125 C800.9219,557.7969 800.9219,557.7969 800.7344,557.8906 C800.3125,558.1563 799.625,558.2813 798.8594,558.2813 C796.8125,558.2813 795.5156,557.1875 795.5156,555.4844 L795.5156,554.3906 C795.5156,552.6094 796.7656,551.2969 798.5,551.2969 C799.0781,551.2969 799.6875,551.4531 800.1563,551.7031 C800.6406,551.9844 800.8125,552.2031 800.9063,552.6094 C800.9688,553.0156 801,553.1406 801.1406,553.2656 C801.2813,553.4063 801.5156,553.5156 801.7344,553.5156 C802,553.5156 802.2656,553.375 802.4375,553.1563 C802.5469,553 802.5781,552.8125 802.5781,552.3906 L802.5781,550.9688 C802.5781,550.5313 802.5625,550.4063 802.4688,550.25 C802.3125,549.9844 802.0313,549.8438 801.7344,549.8438 C801.4375,549.8438 801.2344,549.9375 801.0156,550.25 L800.8438,550.1719 Z " fill="#000000"/><text fill="#000000" font-family="sans-serif" font-size="14" lengthAdjust="spacing" textLength="45" x="812.5" y="559.3467">Robot</text></g><!--class Animal--><g id="elem_Animal"><rect codeLine="60" fill="#F1F1F1" height="32" id="Animal" rx="2.5" ry="2.5" style="stroke:#181818;stroke-width:0.5;" width="81" x="895.5" y="538.5"/><ellipse cx="910.5" cy="554.5" fill="#ADD1B2" rx="11" ry="11" style="stroke:#181818;stroke-width:1.0;"/><path d="M912.8438,550.1719 C911.9063,549.7344 911.3125,549.5938 910.4375,549.5938 C907.8125,549.5938 905.8125,551.6719 905.8125,554.3906 L905.8125,555.5156 C905.8125,558.0938 907.9219,559.9844 910.8125,559.9844 C912.0313,559.9844 913.1875,559.6875 913.9375,559.1406 C914.5156,558.7344 914.8438,558.2813 914.8438,557.8906 C914.8438,557.4375 914.4531,557.0469 913.9844,557.0469 C913.7656,557.0469 913.5625,557.125 913.375,557.3125 C912.9219,557.7969 912.9219,557.7969 912.7344,557.8906 C912.3125,558.1563 911.625,558.2813 910.8594,558.2813 C908.8125,558.2813 907.5156,557.1875 907.5156,555.4844 L907.5156,554.3906 C907.5156,552.6094 908.7656,551.2969 910.5,551.2969 C911.0781,551.2969 911.6875,551.4531 912.1563,551.7031 C912.6406,551.9844 912.8125,552.2031 912.9063,552.6094 C912.9688,553.0156 913,553.1406 913.1406,553.2656 C913.2813,553.4063 913.5156,553.5156 913.7344,553.5156 C914,553.5156 914.2656,553.375 914.4375,553.1563 C914.5469,553 914.5781,552.8125 914.5781,552.3906 L914.5781,550.9688 C914.5781,550.5313 914.5625,550.4063 914.4688,550.25 C914.3125,549.9844 914.0313,549.8438 913.7344,549.8438 C913.4375,549.8438 913.2344,549.9375 913.0156,550.25 L912.8438,550.1719 Z " fill="#000000"/><text fill="#000000" font-family="sans-serif" font-size="14" lengthAdjust="spacing" textLength="49" x="924.5" y="559.3467">Animal</text></g><!--class ViewMain--><g id="elem_ViewMain"><rect codeLine="72" fill="#F1F1F1" height="32" id="ViewMain" rx="2.5" ry="2.5" style="stroke:#181818;stroke-width:0.5;" width="99" x="1463.5" y="77.5"/><ellipse cx="1478.5" cy="93.5" fill="#ADD1B2" rx="11" ry="11" style="stroke:#181818;stroke-width:1.0;"/><path d="M1480.8438,89.1719 C1479.9063,88.7344 1479.3125,88.5938 1478.4375,88.5938 C1475.8125,88.5938 1473.8125,90.6719 1473.8125,93.3906 L1473.8125,94.5156 C1473.8125,97.0938 1475.9219,98.9844 1478.8125,98.9844 C1480.0313,98.9844 1481.1875,98.6875 1481.9375,98.1406 C1482.5156,97.7344 1482.8438,97.2813 1482.8438,96.8906 C1482.8438,96.4375 1482.4531,96.0469 1481.9844,96.0469 C1481.7656,96.0469 1481.5625,96.125 1481.375,96.3125 C1480.9219,96.7969 1480.9219,96.7969 1480.7344,96.8906 C1480.3125,97.1563 1479.625,97.2813 1478.8594,97.2813 C1476.8125,97.2813 1475.5156,96.1875 1475.5156,94.4844 L1475.5156,93.3906 C1475.5156,91.6094 1476.7656,90.2969 1478.5,90.2969 C1479.0781,90.2969 1479.6875,90.4531 1480.1563,90.7031 C1480.6406,90.9844 1480.8125,91.2031 1480.9063,91.6094 C1480.9688,92.0156 1481,92.1406 1481.1406,92.2656 C1481.2813,92.4063 1481.5156,92.5156 1481.7344,92.5156 C1482,92.5156 1482.2656,92.375 1482.4375,92.1563 C1482.5469,92 1482.5781,91.8125 1482.5781,91.3906 L1482.5781,89.9688 C1482.5781,89.5313 1482.5625,89.4063 1482.4688,89.25 C1482.3125,88.9844 1482.0313,88.8438 1481.7344,88.8438 C1481.4375,88.8438 1481.2344,88.9375 1481.0156,89.25 L1480.8438,89.1719 Z " fill="#000000"/><text fill="#000000" font-family="sans-serif" font-size="14" lengthAdjust="spacing" textLength="67" x="1492.5" y="98.3467">ViewMain</text></g><!--class ViewPet--><g id="elem_ViewPet"><rect codeLine="73" fill="#F1F1F1" height="32" id="ViewPet" rx="2.5" ry="2.5" style="stroke:#181818;stroke-width:0.5;" width="91" x="1537.5" y="538.5"/><ellipse cx="1552.5" cy="554.5" fill="#ADD1B2" rx="11" ry="11" style="stroke:#181818;stroke-width:1.0;"/><path d="M1554.8438,550.1719 C1553.9063,549.7344 1553.3125,549.5938 1552.4375,549.5938 C1549.8125,549.5938 1547.8125,551.6719 1547.8125,554.3906 L1547.8125,555.5156 C1547.8125,558.0938 1549.9219,559.9844 1552.8125,559.9844 C1554.0313,559.9844 1555.1875,559.6875 1555.9375,559.1406 C1556.5156,558.7344 1556.8438,558.2813 1556.8438,557.8906 C1556.8438,557.4375 1556.4531,557.0469 1555.9844,557.0469 C1555.7656,557.0469 1555.5625,557.125 1555.375,557.3125 C1554.9219,557.7969 1554.9219,557.7969 1554.7344,557.8906 C1554.3125,558.1563 1553.625,558.2813 1552.8594,558.2813 C1550.8125,558.2813 1549.5156,557.1875 1549.5156,555.4844 L1549.5156,554.3906 C1549.5156,552.6094 1550.7656,551.2969 1552.5,551.2969 C1553.0781,551.2969 1553.6875,551.4531 1554.1563,551.7031 C1554.6406,551.9844 1554.8125,552.2031 1554.9063,552.6094 C1554.9688,553.0156 1555,553.1406 1555.1406,553.2656 C1555.2813,553.4063 1555.5156,553.5156 1555.7344,553.5156 C1556,553.5156 1556.2656,553.375 1556.4375,553.1563 C1556.5469,553 1556.5781,552.8125 1556.5781,552.3906 L1556.5781,550.9688 C1556.5781,550.5313 1556.5625,550.4063 1556.4688,550.25 C1556.3125,549.9844 1556.0313,549.8438 1555.7344,549.8438 C1555.4375,549.8438 1555.2344,549.9375 1555.0156,550.25 L1554.8438,550.1719 Z " fill="#000000"/><text fill="#000000" font-family="sans-serif" font-size="14" lengthAdjust="spacing" textLength="59" x="1566.5" y="559.3467">ViewPet</text></g><!--class ViewRoom--><g id="elem_ViewRoom"><rect codeLine="74" fill="#F1F1F1" height="32" id="ViewRoom" rx="2.5" ry="2.5" style="stroke:#181818;stroke-width:0.5;" width="108" x="1664" y="538.5"/><ellipse cx="1679" cy="554.5" fill="#ADD1B2" rx="11" ry="11" style="stroke:#181818;stroke-width:1.0;"/><path d="M1681.3438,550.1719 C1680.4063,549.7344 1679.8125,549.5938 1678.9375,549.5938 C1676.3125,549.5938 1674.3125,551.6719 1674.3125,554.3906 L1674.3125,555.5156 C1674.3125,558.0938 1676.4219,559.9844 1679.3125,559.9844 C1680.5313,559.9844 1681.6875,559.6875 1682.4375,559.1406 C1683.0156,558.7344 1683.3438,558.2813 1683.3438,557.8906 C1683.3438,557.4375 1682.9531,557.0469 1682.4844,557.0469 C1682.2656,557.0469 1682.0625,557.125 1681.875,557.3125 C1681.4219,557.7969 1681.4219,557.7969 1681.2344,557.8906 C1680.8125,558.1563 1680.125,558.2813 1679.3594,558.2813 C1677.3125,558.2813 1676.0156,557.1875 1676.0156,555.4844 L1676.0156,554.3906 C1676.0156,552.6094 1677.2656,551.2969 1679,551.2969 C1679.5781,551.2969 1680.1875,551.4531 1680.6563,551.7031 C1681.1406,551.9844 1681.3125,552.2031 1681.4063,552.6094 C1681.4688,553.0156 1681.5,553.1406 1681.6406,553.2656 C1681.7813,553.4063 1682.0156,553.5156 1682.2344,553.5156 C1682.5,553.5156 1682.7656,553.375 1682.9375,553.1563 C1683.0469,553 1683.0781,552.8125 1683.0781,552.3906 L1683.0781,550.9688 C1683.0781,550.5313 1683.0625,550.4063 1682.9688,550.25 C1682.8125,549.9844 1682.5313,549.8438 1682.2344,549.8438 C1681.9375,549.8438 1681.7344,549.9375 1681.5156,550.25 L1681.3438,550.1719 Z " fill="#000000"/><text fill="#000000" font-family="sans-serif" font-size="14" lengthAdjust="spacing" textLength="76" x="1693" y="559.3467">ViewRoom</text></g><!--class ViewStat--><g id="elem_ViewStat"><rect codeLine="75" fill="#F1F1F1" height="32" id="ViewStat" rx="2.5" ry="2.5" style="stroke:#181818;stroke-width:0.5;" width="97" x="1657.5" y="671.5"/><ellipse cx="1672.5" cy="687.5" fill="#ADD1B2" rx="11" ry="11" style="stroke:#181818;stroke-width:1.0;"/><path d="M1674.8438,683.1719 C1673.9063,682.7344 1673.3125,682.5938 1672.4375,682.5938 C1669.8125,682.5938 1667.8125,684.6719 1667.8125,687.3906 L1667.8125,688.5156 C1667.8125,691.0938 1669.9219,692.9844 1672.8125,692.9844 C1674.0313,692.9844 1675.1875,692.6875 1675.9375,692.1406 C1676.5156,691.7344 1676.8438,691.2813 1676.8438,690.8906 C1676.8438,690.4375 1676.4531,690.0469 1675.9844,690.0469 C1675.7656,690.0469 1675.5625,690.125 1675.375,690.3125 C1674.9219,690.7969 1674.9219,690.7969 1674.7344,690.8906 C1674.3125,691.1563 1673.625,691.2813 1672.8594,691.2813 C1670.8125,691.2813 1669.5156,690.1875 1669.5156,688.4844 L1669.5156,687.3906 C1669.5156,685.6094 1670.7656,684.2969 1672.5,684.2969 C1673.0781,684.2969 1673.6875,684.4531 1674.1563,684.7031 C1674.6406,684.9844 1674.8125,685.2031 1674.9063,685.6094 C1674.9688,686.0156 1675,686.1406 1675.1406,686.2656 C1675.2813,686.4063 1675.5156,686.5156 1675.7344,686.5156 C1676,686.5156 1676.2656,686.375 1676.4375,686.1563 C1676.5469,686 1676.5781,685.8125 1676.5781,685.3906 L1676.5781,683.9688 C1676.5781,683.5313 1676.5625,683.4063 1676.4688,683.25 C1676.3125,682.9844 1676.0313,682.8438 1675.7344,682.8438 C1675.4375,682.8438 1675.2344,682.9375 1675.0156,683.25 L1674.8438,683.1719 Z " fill="#000000"/><text fill="#000000" font-family="sans-serif" font-size="14" lengthAdjust="spacing" textLength="65" x="1686.5" y="692.3467">ViewStat</text></g><!--class ViewMenu--><g id="elem_ViewMenu"><rect codeLine="76" fill="#F1F1F1" height="32" id="ViewMenu" rx="2.5" ry="2.5" style="stroke:#181818;stroke-width:0.5;" width="104" x="1320" y="316"/><ellipse cx="1335" cy="332" fill="#ADD1B2" rx="11" ry="11" style="stroke:#181818;stroke-width:1.0;"/><path d="M1337.3438,327.6719 C1336.4063,327.2344 1335.8125,327.0938 1334.9375,327.0938 C1332.3125,327.0938 1330.3125,329.1719 1330.3125,331.8906 L1330.3125,333.0156 C1330.3125,335.5938 1332.4219,337.4844 1335.3125,337.4844 C1336.5313,337.4844 1337.6875,337.1875 1338.4375,336.6406 C1339.0156,336.2344 1339.3438,335.7813 1339.3438,335.3906 C1339.3438,334.9375 1338.9531,334.5469 1338.4844,334.5469 C1338.2656,334.5469 1338.0625,334.625 1337.875,334.8125 C1337.4219,335.2969 1337.4219,335.2969 1337.2344,335.3906 C1336.8125,335.6563 1336.125,335.7813 1335.3594,335.7813 C1333.3125,335.7813 1332.0156,334.6875 1332.0156,332.9844 L1332.0156,331.8906 C1332.0156,330.1094 1333.2656,328.7969 1335,328.7969 C1335.5781,328.7969 1336.1875,328.9531 1336.6563,329.2031 C1337.1406,329.4844 1337.3125,329.7031 1337.4063,330.1094 C1337.4688,330.5156 1337.5,330.6406 1337.6406,330.7656 C1337.7813,330.9063 1338.0156,331.0156 1338.2344,331.0156 C1338.5,331.0156 1338.7656,330.875 1338.9375,330.6563 C1339.0469,330.5 1339.0781,330.3125 1339.0781,329.8906 L1339.0781,328.4688 C1339.0781,328.0313 1339.0625,327.9063 1338.9688,327.75 C1338.8125,327.4844 1338.5313,327.3438 1338.2344,327.3438 C1337.9375,327.3438 1337.7344,327.4375 1337.5156,327.75 L1337.3438,327.6719 Z " fill="#000000"/><text fill="#000000" font-family="sans-serif" font-size="14" lengthAdjust="spacing" textLength="72" x="1349" y="336.8467">ViewMenu</text></g><!--class ViewCustomPet--><g id="elem_ViewCustomPet"><rect codeLine="77" fill="#F1F1F1" height="32" id="ViewCustomPet" rx="2.5" ry="2.5" style="stroke:#181818;stroke-width:0.5;" width="146" x="1070" y="538.5"/><ellipse cx="1085" cy="554.5" fill="#ADD1B2" rx="11" ry="11" style="stroke:#181818;stroke-width:1.0;"/><path d="M1087.3438,550.1719 C1086.4063,549.7344 1085.8125,549.5938 1084.9375,549.5938 C1082.3125,549.5938 1080.3125,551.6719 1080.3125,554.3906 L1080.3125,555.5156 C1080.3125,558.0938 1082.4219,559.9844 1085.3125,559.9844 C1086.5313,559.9844 1087.6875,559.6875 1088.4375,559.1406 C1089.0156,558.7344 1089.3438,558.2813 1089.3438,557.8906 C1089.3438,557.4375 1088.9531,557.0469 1088.4844,557.0469 C1088.2656,557.0469 1088.0625,557.125 1087.875,557.3125 C1087.4219,557.7969 1087.4219,557.7969 1087.2344,557.8906 C1086.8125,558.1563 1086.125,558.2813 1085.3594,558.2813 C1083.3125,558.2813 1082.0156,557.1875 1082.0156,555.4844 L1082.0156,554.3906 C1082.0156,552.6094 1083.2656,551.2969 1085,551.2969 C1085.5781,551.2969 1086.1875,551.4531 1086.6563,551.7031 C1087.1406,551.9844 1087.3125,552.2031 1087.4063,552.6094 C1087.4688,553.0156 1087.5,553.1406 1087.6406,553.2656 C1087.7813,553.4063 1088.0156,553.5156 1088.2344,553.5156 C1088.5,553.5156 1088.7656,553.375 1088.9375,553.1563 C1089.0469,553 1089.0781,552.8125 1089.0781,552.3906 L1089.0781,550.9688 C1089.0781,550.5313 1089.0625,550.4063 1088.9688,550.25 C1088.8125,549.9844 1088.5313,549.8438 1088.2344,549.8438 C1087.9375,549.8438 1087.7344,549.9375 1087.5156,550.25 L1087.3438,550.1719 Z " fill="#000000"/><text fill="#000000" font-family="sans-serif" font-size="14" lengthAdjust="spacing" textLength="114" x="1099" y="559.3467">ViewCustomPet</text></g><!--class ViewLoad--><g id="elem_ViewLoad"><rect codeLine="78" fill="#F1F1F1" height="32" id="ViewLoad" rx="2.5" ry="2.5" style="stroke:#181818;stroke-width:0.5;" width="100" x="1251" y="538.5"/><ellipse cx="1266" cy="554.5" fill="#ADD1B2" rx="11" ry="11" style="stroke:#181818;stroke-width:1.0;"/><path d="M1268.3438,550.1719 C1267.4063,549.7344 1266.8125,549.5938 1265.9375,549.5938 C1263.3125,549.5938 1261.3125,551.6719 1261.3125,554.3906 L1261.3125,555.5156 C1261.3125,558.0938 1263.4219,559.9844 1266.3125,559.9844 C1267.5313,559.9844 1268.6875,559.6875 1269.4375,559.1406 C1270.0156,558.7344 1270.3438,558.2813 1270.3438,557.8906 C1270.3438,557.4375 1269.9531,557.0469 1269.4844,557.0469 C1269.2656,557.0469 1269.0625,557.125 1268.875,557.3125 C1268.4219,557.7969 1268.4219,557.7969 1268.2344,557.8906 C1267.8125,558.1563 1267.125,558.2813 1266.3594,558.2813 C1264.3125,558.2813 1263.0156,557.1875 1263.0156,555.4844 L1263.0156,554.3906 C1263.0156,552.6094 1264.2656,551.2969 1266,551.2969 C1266.5781,551.2969 1267.1875,551.4531 1267.6563,551.7031 C1268.1406,551.9844 1268.3125,552.2031 1268.4063,552.6094 C1268.4688,553.0156 1268.5,553.1406 1268.6406,553.2656 C1268.7813,553.4063 1269.0156,553.5156 1269.2344,553.5156 C1269.5,553.5156 1269.7656,553.375 1269.9375,553.1563 C1270.0469,553 1270.0781,552.8125 1270.0781,552.3906 L1270.0781,550.9688 C1270.0781,550.5313 1270.0625,550.4063 1269.9688,550.25 C1269.8125,549.9844 1269.5313,549.8438 1269.2344,549.8438 C1268.9375,549.8438 1268.7344,549.9375 1268.5156,550.25 L1268.3438,550.1719 Z " fill="#000000"/><text fill="#000000" font-family="sans-serif" font-size="14" lengthAdjust="spacing" textLength="68" x="1280" y="559.3467">ViewLoad</text></g><!--class ViewAction--><g id="elem_ViewAction"><rect codeLine="79" fill="#F1F1F1" height="32" id="ViewAction" rx="2.5" ry="2.5" style="stroke:#181818;stroke-width:0.5;" width="113" x="1789.5" y="671.5"/><ellipse cx="1804.5" cy="687.5" fill="#ADD1B2" rx="11" ry="11" style="stroke:#181818;stroke-width:1.0;"/><path d="M1806.8438,683.1719 C1805.9063,682.7344 1805.3125,682.5938 1804.4375,682.5938 C1801.8125,682.5938 1799.8125,684.6719 1799.8125,687.3906 L1799.8125,688.5156 C1799.8125,691.0938 1801.9219,692.9844 1804.8125,692.9844 C1806.0313,692.9844 1807.1875,692.6875 1807.9375,692.1406 C1808.5156,691.7344 1808.8438,691.2813 1808.8438,690.8906 C1808.8438,690.4375 1808.4531,690.0469 1807.9844,690.0469 C1807.7656,690.0469 1807.5625,690.125 1807.375,690.3125 C1806.9219,690.7969 1806.9219,690.7969 1806.7344,690.8906 C1806.3125,691.1563 1805.625,691.2813 1804.8594,691.2813 C1802.8125,691.2813 1801.5156,690.1875 1801.5156,688.4844 L1801.5156,687.3906 C1801.5156,685.6094 1802.7656,684.2969 1804.5,684.2969 C1805.0781,684.2969 1805.6875,684.4531 1806.1563,684.7031 C1806.6406,684.9844 1806.8125,685.2031 1806.9063,685.6094 C1806.9688,686.0156 1807,686.1406 1807.1406,686.2656 C1807.2813,686.4063 1807.5156,686.5156 1807.7344,686.5156 C1808,686.5156 1808.2656,686.375 1808.4375,686.1563 C1808.5469,686 1808.5781,685.8125 1808.5781,685.3906 L1808.5781,683.9688 C1808.5781,683.5313 1808.5625,683.4063 1808.4688,683.25 C1808.3125,682.9844 1808.0313,682.8438 1807.7344,682.8438 C1807.4375,682.8438 1807.2344,682.9375 1807.0156,683.25 L1806.8438,683.1719 Z " fill="#000000"/><text fill="#000000" font-family="sans-serif" font-size="14" lengthAdjust="spacing" textLength="81" x="1818.5" y="692.3467">ViewAction</text></g><!--class ViewOption--><g id="elem_ViewOption"><rect codeLine="80" fill="#F1F1F1" height="32" id="ViewOption" rx="2.5" ry="2.5" style="stroke:#181818;stroke-width:0.5;" width="116" x="1386" y="538.5"/><ellipse cx="1401" cy="554.5" fill="#ADD1B2" rx="11" ry="11" style="stroke:#181818;stroke-width:1.0;"/><path d="M1403.3438,550.1719 C1402.4063,549.7344 1401.8125,549.5938 1400.9375,549.5938 C1398.3125,549.5938 1396.3125,551.6719 1396.3125,554.3906 L1396.3125,555.5156 C1396.3125,558.0938 1398.4219,559.9844 1401.3125,559.9844 C1402.5313,559.9844 1403.6875,559.6875 1404.4375,559.1406 C1405.0156,558.7344 1405.3438,558.2813 1405.3438,557.8906 C1405.3438,557.4375 1404.9531,557.0469 1404.4844,557.0469 C1404.2656,557.0469 1404.0625,557.125 1403.875,557.3125 C1403.4219,557.7969 1403.4219,557.7969 1403.2344,557.8906 C1402.8125,558.1563 1402.125,558.2813 1401.3594,558.2813 C1399.3125,558.2813 1398.0156,557.1875 1398.0156,555.4844 L1398.0156,554.3906 C1398.0156,552.6094 1399.2656,551.2969 1401,551.2969 C1401.5781,551.2969 1402.1875,551.4531 1402.6563,551.7031 C1403.1406,551.9844 1403.3125,552.2031 1403.4063,552.6094 C1403.4688,553.0156 1403.5,553.1406 1403.6406,553.2656 C1403.7813,553.4063 1404.0156,553.5156 1404.2344,553.5156 C1404.5,553.5156 1404.7656,553.375 1404.9375,553.1563 C1405.0469,553 1405.0781,552.8125 1405.0781,552.3906 L1405.0781,550.9688 C1405.0781,550.5313 1405.0625,550.4063 1404.9688,550.25 C1404.8125,549.9844 1404.5313,549.8438 1404.2344,549.8438 C1403.9375,549.8438 1403.7344,549.9375 1403.5156,550.25 L1403.3438,550.1719 Z " fill="#000000"/><text fill="#000000" font-family="sans-serif" font-size="14" lengthAdjust="spacing" textLength="84" x="1415" y="559.3467">ViewOption</text></g><!--class ViewGame--><g id="elem_ViewGame"><rect codeLine="81" fill="#F1F1F1" height="32" id="ViewGame" rx="2.5" ry="2.5" style="stroke:#181818;stroke-width:0.5;" width="108" x="1596" y="316"/><ellipse cx="1611" cy="332" fill="#ADD1B2" rx="11" ry="11" style="stroke:#181818;stroke-width:1.0;"/><path d="M1613.3438,327.6719 C1612.4063,327.2344 1611.8125,327.0938 1610.9375,327.0938 C1608.3125,327.0938 1606.3125,329.1719 1606.3125,331.8906 L1606.3125,333.0156 C1606.3125,335.5938 1608.4219,337.4844 1611.3125,337.4844 C1612.5313,337.4844 1613.6875,337.1875 1614.4375,336.6406 C1615.0156,336.2344 1615.3438,335.7813 1615.3438,335.3906 C1615.3438,334.9375 1614.9531,334.5469 1614.4844,334.5469 C1614.2656,334.5469 1614.0625,334.625 1613.875,334.8125 C1613.4219,335.2969 1613.4219,335.2969 1613.2344,335.3906 C1612.8125,335.6563 1612.125,335.7813 1611.3594,335.7813 C1609.3125,335.7813 1608.0156,334.6875 1608.0156,332.9844 L1608.0156,331.8906 C1608.0156,330.1094 1609.2656,328.7969 1611,328.7969 C1611.5781,328.7969 1612.1875,328.9531 1612.6563,329.2031 C1613.1406,329.4844 1613.3125,329.7031 1613.4063,330.1094 C1613.4688,330.5156 1613.5,330.6406 1613.6406,330.7656 C1613.7813,330.9063 1614.0156,331.0156 1614.2344,331.0156 C1614.5,331.0156 1614.7656,330.875 1614.9375,330.6563 C1615.0469,330.5 1615.0781,330.3125 1615.0781,329.8906 L1615.0781,328.4688 C1615.0781,328.0313 1615.0625,327.9063 1614.9688,327.75 C1614.8125,327.4844 1614.5313,327.3438 1614.2344,327.3438 C1613.9375,327.3438 1613.7344,327.4375 1613.5156,327.75 L1613.3438,327.6719 Z " fill="#000000"/><text fill="#000000" font-family="sans-serif" font-size="14" lengthAdjust="spacing" textLength="76" x="1625" y="336.8467">ViewGame</text></g><!--class ViewHUD--><g id="elem_ViewHUD"><rect codeLine="82" fill="#F1F1F1" height="32" id="ViewHUD" rx="2.5" ry="2.5" style="stroke:#181818;stroke-width:0.5;" width="96" x="1807" y="538.5"/><ellipse cx="1822" cy="554.5" fill="#ADD1B2" rx="11" ry="11" style="stroke:#181818;stroke-width:1.0;"/><path d="M1824.3438,550.1719 C1823.4063,549.7344 1822.8125,549.5938 1821.9375,549.5938 C1819.3125,549.5938 1817.3125,551.6719 1817.3125,554.3906 L1817.3125,555.5156 C1817.3125,558.0938 1819.4219,559.9844 1822.3125,559.9844 C1823.5313,559.9844 1824.6875,559.6875 1825.4375,559.1406 C1826.0156,558.7344 1826.3438,558.2813 1826.3438,557.8906 C1826.3438,557.4375 1825.9531,557.0469 1825.4844,557.0469 C1825.2656,557.0469 1825.0625,557.125 1824.875,557.3125 C1824.4219,557.7969 1824.4219,557.7969 1824.2344,557.8906 C1823.8125,558.1563 1823.125,558.2813 1822.3594,558.2813 C1820.3125,558.2813 1819.0156,557.1875 1819.0156,555.4844 L1819.0156,554.3906 C1819.0156,552.6094 1820.2656,551.2969 1822,551.2969 C1822.5781,551.2969 1823.1875,551.4531 1823.6563,551.7031 C1824.1406,551.9844 1824.3125,552.2031 1824.4063,552.6094 C1824.4688,553.0156 1824.5,553.1406 1824.6406,553.2656 C1824.7813,553.4063 1825.0156,553.5156 1825.2344,553.5156 C1825.5,553.5156 1825.7656,553.375 1825.9375,553.1563 C1826.0469,553 1826.0781,552.8125 1826.0781,552.3906 L1826.0781,550.9688 C1826.0781,550.5313 1826.0625,550.4063 1825.9688,550.25 C1825.8125,549.9844 1825.5313,549.8438 1825.2344,549.8438 C1824.9375,549.8438 1824.7344,549.9375 1824.5156,550.25 L1824.3438,550.1719 Z " fill="#000000"/><text fill="#000000" font-family="sans-serif" font-size="14" lengthAdjust="spacing" textLength="64" x="1836" y="559.3467">ViewHUD</text></g><!--class ControllerMain--><g id="elem_ControllerMain"><rect codeLine="97" fill="#F1F1F1" height="56.2969" id="ControllerMain" rx="2.5" ry="2.5" style="stroke:#181818;stroke-width:0.5;" width="138" x="99" y="304"/><ellipse cx="114" cy="320" fill="#ADD1B2" rx="11" ry="11" style="stroke:#181818;stroke-width:1.0;"/><path d="M116.3438,315.6719 C115.4063,315.2344 114.8125,315.0938 113.9375,315.0938 C111.3125,315.0938 109.3125,317.1719 109.3125,319.8906 L109.3125,321.0156 C109.3125,323.5938 111.4219,325.4844 114.3125,325.4844 C115.5313,325.4844 116.6875,325.1875 117.4375,324.6406 C118.0156,324.2344 118.3438,323.7813 118.3438,323.3906 C118.3438,322.9375 117.9531,322.5469 117.4844,322.5469 C117.2656,322.5469 117.0625,322.625 116.875,322.8125 C116.4219,323.2969 116.4219,323.2969 116.2344,323.3906 C115.8125,323.6563 115.125,323.7813 114.3594,323.7813 C112.3125,323.7813 111.0156,322.6875 111.0156,320.9844 L111.0156,319.8906 C111.0156,318.1094 112.2656,316.7969 114,316.7969 C114.5781,316.7969 115.1875,316.9531 115.6563,317.2031 C116.1406,317.4844 116.3125,317.7031 116.4063,318.1094 C116.4688,318.5156 116.5,318.6406 116.6406,318.7656 C116.7813,318.9063 117.0156,319.0156 117.2344,319.0156 C117.5,319.0156 117.7656,318.875 117.9375,318.6563 C118.0469,318.5 118.0781,318.3125 118.0781,317.8906 L118.0781,316.4688 C118.0781,316.0313 118.0625,315.9063 117.9688,315.75 C117.8125,315.4844 117.5313,315.3438 117.2344,315.3438 C116.9375,315.3438 116.7344,315.4375 116.5156,315.75 L116.3438,315.6719 Z " fill="#000000"/><text fill="#000000" font-family="sans-serif" font-size="14" lengthAdjust="spacing" textLength="106" x="128" y="324.8467">ControllerMain</text><line style="stroke:#181818;stroke-width:0.5;" x1="100" x2="236" y1="336" y2="336"/><rect fill="none" height="6" style="stroke:#C82930;stroke-width:1.0;" width="6" x="107" y="346.6484"/><text fill="#000000" font-family="sans-serif" font-size="14" lengthAdjust="spacing" textLength="77" x="119" y="352.9951">ModelSave</text></g><!--class ControllerPet--><g id="elem_ControllerPet"><rect codeLine="101" fill="#F1F1F1" height="72.5938" id="ControllerPet" rx="2.5" ry="2.5" style="stroke:#181818;stroke-width:0.5;" width="130" x="35" y="651"/><ellipse cx="50" cy="667" fill="#ADD1B2" rx="11" ry="11" style="stroke:#181818;stroke-width:1.0;"/><path d="M52.3438,662.6719 C51.4063,662.2344 50.8125,662.0938 49.9375,662.0938 C47.3125,662.0938 45.3125,664.1719 45.3125,666.8906 L45.3125,668.0156 C45.3125,670.5938 47.4219,672.4844 50.3125,672.4844 C51.5313,672.4844 52.6875,672.1875 53.4375,671.6406 C54.0156,671.2344 54.3438,670.7813 54.3438,670.3906 C54.3438,669.9375 53.9531,669.5469 53.4844,669.5469 C53.2656,669.5469 53.0625,669.625 52.875,669.8125 C52.4219,670.2969 52.4219,670.2969 52.2344,670.3906 C51.8125,670.6563 51.125,670.7813 50.3594,670.7813 C48.3125,670.7813 47.0156,669.6875 47.0156,667.9844 L47.0156,666.8906 C47.0156,665.1094 48.2656,663.7969 50,663.7969 C50.5781,663.7969 51.1875,663.9531 51.6563,664.2031 C52.1406,664.4844 52.3125,664.7031 52.4063,665.1094 C52.4688,665.5156 52.5,665.6406 52.6406,665.7656 C52.7813,665.9063 53.0156,666.0156 53.2344,666.0156 C53.5,666.0156 53.7656,665.875 53.9375,665.6563 C54.0469,665.5 54.0781,665.3125 54.0781,664.8906 L54.0781,663.4688 C54.0781,663.0313 54.0625,662.9063 53.9688,662.75 C53.8125,662.4844 53.5313,662.3438 53.2344,662.3438 C52.9375,662.3438 52.7344,662.4375 52.5156,662.75 L52.3438,662.6719 Z " fill="#000000"/><text fill="#000000" font-family="sans-serif" font-size="14" lengthAdjust="spacing" textLength="98" x="64" y="671.8467">ControllerPet</text><line style="stroke:#181818;stroke-width:0.5;" x1="36" x2="164" y1="683" y2="683"/><rect fill="none" height="6" style="stroke:#C82930;stroke-width:1.0;" width="6" x="43" y="693.6484"/><text fill="#000000" font-family="sans-serif" font-size="14" lengthAdjust="spacing" textLength="68" x="55" y="699.9951">ModelPet</text><rect fill="none" height="6" style="stroke:#C82930;stroke-width:1.0;" width="6" x="43" y="709.9453"/><text fill="#000000" font-family="sans-serif" font-size="14" lengthAdjust="spacing" textLength="59" x="55" y="716.292">ViewPet</text></g><!--class ControllerRoom--><g id="elem_ControllerRoom"><rect codeLine="105" fill="#F1F1F1" height="72.5938" id="ControllerRoom" rx="2.5" ry="2.5" style="stroke:#181818;stroke-width:0.5;" width="147" x="200.5" y="651"/><ellipse cx="215.5" cy="667" fill="#ADD1B2" rx="11" ry="11" style="stroke:#181818;stroke-width:1.0;"/><path d="M217.8438,662.6719 C216.9063,662.2344 216.3125,662.0938 215.4375,662.0938 C212.8125,662.0938 210.8125,664.1719 210.8125,666.8906 L210.8125,668.0156 C210.8125,670.5938 212.9219,672.4844 215.8125,672.4844 C217.0313,672.4844 218.1875,672.1875 218.9375,671.6406 C219.5156,671.2344 219.8438,670.7813 219.8438,670.3906 C219.8438,669.9375 219.4531,669.5469 218.9844,669.5469 C218.7656,669.5469 218.5625,669.625 218.375,669.8125 C217.9219,670.2969 217.9219,670.2969 217.7344,670.3906 C217.3125,670.6563 216.625,670.7813 215.8594,670.7813 C213.8125,670.7813 212.5156,669.6875 212.5156,667.9844 L212.5156,666.8906 C212.5156,665.1094 213.7656,663.7969 215.5,663.7969 C216.0781,663.7969 216.6875,663.9531 217.1563,664.2031 C217.6406,664.4844 217.8125,664.7031 217.9063,665.1094 C217.9688,665.5156 218,665.6406 218.1406,665.7656 C218.2813,665.9063 218.5156,666.0156 218.7344,666.0156 C219,666.0156 219.2656,665.875 219.4375,665.6563 C219.5469,665.5 219.5781,665.3125 219.5781,664.8906 L219.5781,663.4688 C219.5781,663.0313 219.5625,662.9063 219.4688,662.75 C219.3125,662.4844 219.0313,662.3438 218.7344,662.3438 C218.4375,662.3438 218.2344,662.4375 218.0156,662.75 L217.8438,662.6719 Z " fill="#000000"/><text fill="#000000" font-family="sans-serif" font-size="14" lengthAdjust="spacing" textLength="115" x="229.5" y="671.8467">ControllerRoom</text><line style="stroke:#181818;stroke-width:0.5;" x1="201.5" x2="346.5" y1="683" y2="683"/><rect fill="none" height="6" style="stroke:#C82930;stroke-width:1.0;" width="6" x="208.5" y="693.6484"/><text fill="#000000" font-family="sans-serif" font-size="14" lengthAdjust="spacing" textLength="85" x="220.5" y="699.9951">ModelRoom</text><rect fill="none" height="6" style="stroke:#C82930;stroke-width:1.0;" width="6" x="208.5" y="709.9453"/><text fill="#000000" font-family="sans-serif" font-size="14" lengthAdjust="spacing" textLength="76" x="220.5" y="716.292">ViewRoom</text></g><!--class ControllerStat--><g id="elem_ControllerStat"><rect codeLine="109" fill="#F1F1F1" height="72.5938" id="ControllerStat" rx="2.5" ry="2.5" style="stroke:#181818;stroke-width:0.5;" width="136" x="32" y="784"/><ellipse cx="47" cy="800" fill="#ADD1B2" rx="11" ry="11" style="stroke:#181818;stroke-width:1.0;"/><path d="M49.3438,795.6719 C48.4063,795.2344 47.8125,795.0938 46.9375,795.0938 C44.3125,795.0938 42.3125,797.1719 42.3125,799.8906 L42.3125,801.0156 C42.3125,803.5938 44.4219,805.4844 47.3125,805.4844 C48.5313,805.4844 49.6875,805.1875 50.4375,804.6406 C51.0156,804.2344 51.3438,803.7813 51.3438,803.3906 C51.3438,802.9375 50.9531,802.5469 50.4844,802.5469 C50.2656,802.5469 50.0625,802.625 49.875,802.8125 C49.4219,803.2969 49.4219,803.2969 49.2344,803.3906 C48.8125,803.6563 48.125,803.7813 47.3594,803.7813 C45.3125,803.7813 44.0156,802.6875 44.0156,800.9844 L44.0156,799.8906 C44.0156,798.1094 45.2656,796.7969 47,796.7969 C47.5781,796.7969 48.1875,796.9531 48.6563,797.2031 C49.1406,797.4844 49.3125,797.7031 49.4063,798.1094 C49.4688,798.5156 49.5,798.6406 49.6406,798.7656 C49.7813,798.9063 50.0156,799.0156 50.2344,799.0156 C50.5,799.0156 50.7656,798.875 50.9375,798.6563 C51.0469,798.5 51.0781,798.3125 51.0781,797.8906 L51.0781,796.4688 C51.0781,796.0313 51.0625,795.9063 50.9688,795.75 C50.8125,795.4844 50.5313,795.3438 50.2344,795.3438 C49.9375,795.3438 49.7344,795.4375 49.5156,795.75 L49.3438,795.6719 Z " fill="#000000"/><text fill="#000000" font-family="sans-serif" font-size="14" lengthAdjust="spacing" textLength="104" x="61" y="804.8467">ControllerStat</text><line style="stroke:#181818;stroke-width:0.5;" x1="33" x2="167" y1="816" y2="816"/><rect fill="none" height="6" style="stroke:#C82930;stroke-width:1.0;" width="6" x="40" y="826.6484"/><text fill="#000000" font-family="sans-serif" font-size="14" lengthAdjust="spacing" textLength="74" x="52" y="832.9951">ModelStat</text><rect fill="none" height="6" style="stroke:#C82930;stroke-width:1.0;" width="6" x="40" y="842.9453"/><text fill="#000000" font-family="sans-serif" font-size="14" lengthAdjust="spacing" textLength="65" x="52" y="849.292">ViewStat</text></g><!--class ControllerMenu--><g id="elem_ControllerMenu"><rect codeLine="113" fill="#F1F1F1" height="72.5938" id="ControllerMenu" rx="2.5" ry="2.5" style="stroke:#181818;stroke-width:0.5;" width="143" x="22.5" y="518"/><ellipse cx="37.5" cy="534" fill="#ADD1B2" rx="11" ry="11" style="stroke:#181818;stroke-width:1.0;"/><path d="M39.8438,529.6719 C38.9063,529.2344 38.3125,529.0938 37.4375,529.0938 C34.8125,529.0938 32.8125,531.1719 32.8125,533.8906 L32.8125,535.0156 C32.8125,537.5938 34.9219,539.4844 37.8125,539.4844 C39.0313,539.4844 40.1875,539.1875 40.9375,538.6406 C41.5156,538.2344 41.8438,537.7813 41.8438,537.3906 C41.8438,536.9375 41.4531,536.5469 40.9844,536.5469 C40.7656,536.5469 40.5625,536.625 40.375,536.8125 C39.9219,537.2969 39.9219,537.2969 39.7344,537.3906 C39.3125,537.6563 38.625,537.7813 37.8594,537.7813 C35.8125,537.7813 34.5156,536.6875 34.5156,534.9844 L34.5156,533.8906 C34.5156,532.1094 35.7656,530.7969 37.5,530.7969 C38.0781,530.7969 38.6875,530.9531 39.1563,531.2031 C39.6406,531.4844 39.8125,531.7031 39.9063,532.1094 C39.9688,532.5156 40,532.6406 40.1406,532.7656 C40.2813,532.9063 40.5156,533.0156 40.7344,533.0156 C41,533.0156 41.2656,532.875 41.4375,532.6563 C41.5469,532.5 41.5781,532.3125 41.5781,531.8906 L41.5781,530.4688 C41.5781,530.0313 41.5625,529.9063 41.4688,529.75 C41.3125,529.4844 41.0313,529.3438 40.7344,529.3438 C40.4375,529.3438 40.2344,529.4375 40.0156,529.75 L39.8438,529.6719 Z " fill="#000000"/><text fill="#000000" font-family="sans-serif" font-size="14" lengthAdjust="spacing" textLength="111" x="51.5" y="538.8467">ControllerMenu</text><line style="stroke:#181818;stroke-width:0.5;" x1="23.5" x2="164.5" y1="550" y2="550"/><rect fill="none" height="6" style="stroke:#C82930;stroke-width:1.0;" width="6" x="30.5" y="560.6484"/><text fill="#000000" font-family="sans-serif" font-size="14" lengthAdjust="spacing" textLength="93" x="42.5" y="566.9951">ModelOption</text><rect fill="none" height="6" style="stroke:#C82930;stroke-width:1.0;" width="6" x="30.5" y="576.9453"/><text fill="#000000" font-family="sans-serif" font-size="14" lengthAdjust="spacing" textLength="72" x="42.5" y="583.292">ViewMenu</text></g><!--class ControllerGame--><g id="elem_ControllerGame"><rect codeLine="117" fill="#F1F1F1" height="72.5938" id="ControllerGame" rx="2.5" ry="2.5" style="stroke:#181818;stroke-width:0.5;" width="147" x="200.5" y="518"/><ellipse cx="215.5" cy="534" fill="#ADD1B2" rx="11" ry="11" style="stroke:#181818;stroke-width:1.0;"/><path d="M217.8438,529.6719 C216.9063,529.2344 216.3125,529.0938 215.4375,529.0938 C212.8125,529.0938 210.8125,531.1719 210.8125,533.8906 L210.8125,535.0156 C210.8125,537.5938 212.9219,539.4844 215.8125,539.4844 C217.0313,539.4844 218.1875,539.1875 218.9375,538.6406 C219.5156,538.2344 219.8438,537.7813 219.8438,537.3906 C219.8438,536.9375 219.4531,536.5469 218.9844,536.5469 C218.7656,536.5469 218.5625,536.625 218.375,536.8125 C217.9219,537.2969 217.9219,537.2969 217.7344,537.3906 C217.3125,537.6563 216.625,537.7813 215.8594,537.7813 C213.8125,537.7813 212.5156,536.6875 212.5156,534.9844 L212.5156,533.8906 C212.5156,532.1094 213.7656,530.7969 215.5,530.7969 C216.0781,530.7969 216.6875,530.9531 217.1563,531.2031 C217.6406,531.4844 217.8125,531.7031 217.9063,532.1094 C217.9688,532.5156 218,532.6406 218.1406,532.7656 C218.2813,532.9063 218.5156,533.0156 218.7344,533.0156 C219,533.0156 219.2656,532.875 219.4375,532.6563 C219.5469,532.5 219.5781,532.3125 219.5781,531.8906 L219.5781,530.4688 C219.5781,530.0313 219.5625,529.9063 219.4688,529.75 C219.3125,529.4844 219.0313,529.3438 218.7344,529.3438 C218.4375,529.3438 218.2344,529.4375 218.0156,529.75 L217.8438,529.6719 Z " fill="#000000"/><text fill="#000000" font-family="sans-serif" font-size="14" lengthAdjust="spacing" textLength="115" x="229.5" y="538.8467">ControllerGame</text><line style="stroke:#181818;stroke-width:0.5;" x1="201.5" x2="346.5" y1="550" y2="550"/><rect fill="none" height="6" style="stroke:#C82930;stroke-width:1.0;" width="6" x="208.5" y="560.6484"/><text fill="#000000" font-family="sans-serif" font-size="14" lengthAdjust="spacing" textLength="85" x="220.5" y="566.9951">ModelGame</text><rect fill="none" height="6" style="stroke:#C82930;stroke-width:1.0;" width="6" x="208.5" y="576.9453"/><text fill="#000000" font-family="sans-serif" font-size="14" lengthAdjust="spacing" textLength="76" x="220.5" y="583.292">ViewGame</text></g><!--class App--><g id="elem_App"><rect codeLine="4" fill="#F1F1F1" height="72.5938" id="App" rx="2.5" ry="2.5" style="stroke:#181818;stroke-width:0.5;" width="253" x="41.5" y="57"/><ellipse cx="148.75" cy="73" fill="#ADD1B2" rx="11" ry="11" style="stroke:#181818;stroke-width:1.0;"/><path d="M151.0938,68.6719 C150.1563,68.2344 149.5625,68.0938 148.6875,68.0938 C146.0625,68.0938 144.0625,70.1719 144.0625,72.8906 L144.0625,74.0156 C144.0625,76.5938 146.1719,78.4844 149.0625,78.4844 C150.2813,78.4844 151.4375,78.1875 152.1875,77.6406 C152.7656,77.2344 153.0938,76.7813 153.0938,76.3906 C153.0938,75.9375 152.7031,75.5469 152.2344,75.5469 C152.0156,75.5469 151.8125,75.625 151.625,75.8125 C151.1719,76.2969 151.1719,76.2969 150.9844,76.3906 C150.5625,76.6563 149.875,76.7813 149.1094,76.7813 C147.0625,76.7813 145.7656,75.6875 145.7656,73.9844 L145.7656,72.8906 C145.7656,71.1094 147.0156,69.7969 148.75,69.7969 C149.3281,69.7969 149.9375,69.9531 150.4063,70.2031 C150.8906,70.4844 151.0625,70.7031 151.1563,71.1094 C151.2188,71.5156 151.25,71.6406 151.3906,71.7656 C151.5313,71.9063 151.7656,72.0156 151.9844,72.0156 C152.25,72.0156 152.5156,71.875 152.6875,71.6563 C152.7969,71.5 152.8281,71.3125 152.8281,70.8906 L152.8281,69.4688 C152.8281,69.0313 152.8125,68.9063 152.7188,68.75 C152.5625,68.4844 152.2813,68.3438 151.9844,68.3438 C151.6875,68.3438 151.4844,68.4375 151.2656,68.75 L151.0938,68.6719 Z " fill="#000000"/><text fill="#000000" font-family="sans-serif" font-size="14" lengthAdjust="spacing" textLength="30" x="169.25" y="77.8467">App</text><line style="stroke:#181818;stroke-width:0.5;" x1="42.5" x2="293.5" y1="89" y2="89"/><rect fill="none" height="6" style="stroke:#C82930;stroke-width:1.0;" width="6" x="49.5" y="99.6484"/><text fill="#000000" font-family="sans-serif" font-size="14" lengthAdjust="spacing" text-decoration="underline" textLength="227" x="61.5" y="105.9951">lang_resource : ResourceBundle</text><rect fill="none" height="6" style="stroke:#C82930;stroke-width:1.0;" width="6" x="49.5" y="115.9453"/><text fill="#000000" font-family="sans-serif" font-size="14" lengthAdjust="spacing" text-decoration="underline" textLength="202" x="61.5" y="122.292">num_locale : NumberFormat</text></g><!--reverse link ModelPet to Robot--><g id="link_ModelPet_Robot"><path codeLine="62" d="M848.693,477.06 C839.987,501.991 832.173,524.369 827.282,538.374 " fill="none" id="ModelPet-backto-Robot" style="stroke:#181818;stroke-width:1.0;stroke-dasharray:7.0,7.0;"/><polygon fill="none" points="842.123,474.642,855.325,458.068,855.34,479.258,842.123,474.642" style="stroke:#181818;stroke-width:1.0;"/></g><!--reverse link ModelPet to Animal--><g id="link_ModelPet_Animal"><path codeLine="63" d="M923.357,478.153 C927.466,502.645 931.146,524.574 933.462,538.374 " fill="none" id="ModelPet-backto-Animal" style="stroke:#181818;stroke-width:1.0;stroke-dasharray:7.0,7.0;"/><polygon fill="none" points="916.393,478.951,919.986,458.068,930.2,476.634,916.393,478.951" style="stroke:#181818;stroke-width:1.0;"/></g><!--link Animal to ModelStat--><g id="link_Animal_ModelStat"><path codeLine="64" d="M924.6732,581.5305 C924.6732,581.5305 900.676,636.683 890.879,659.198 " fill="none" id="Animal-ModelStat" style="stroke:#181818;stroke-width:1.0;"/><polygon fill="none" points="929.461,570.527,923.3993,574.4328,924.6732,581.5305,930.735,577.6247,929.461,570.527" style="stroke:#181818;stroke-width:1.0;"/><polygon fill="#181818" points="885.638,671.244,892.8963,664.5869,887.6326,666.6591,885.5604,661.3954,885.638,671.244" style="stroke:#181818;stroke-width:1.0;"/><line style="stroke:#181818;stroke-width:1.0;" x1="887.6326" x2="890.825" y1="666.6591" y2="659.324"/></g><!--link Robot to ModelStat--><g id="link_Robot_ModelStat"><path codeLine="65" d="M833.3268,581.5305 C833.3268,581.5305 857.324,636.683 867.121,659.198 " fill="none" id="Robot-ModelStat" style="stroke:#181818;stroke-width:1.0;"/><polygon fill="none" points="828.539,570.527,827.265,577.6247,833.3268,581.5305,834.6007,574.4328,828.539,570.527" style="stroke:#181818;stroke-width:1.0;"/><polygon fill="#181818" points="872.362,671.244,872.4396,661.3954,870.3674,666.6591,865.1037,664.5869,872.362,671.244" style="stroke:#181818;stroke-width:1.0;"/><line style="stroke:#181818;stroke-width:1.0;" x1="870.3674" x2="867.175" y1="666.6591" y2="659.324"/></g><!--link ModelGame to ModelPet--><g id="link_ModelGame_ModelPet"><path codeLine="66" d="M748.4198,147.4307 C748.4198,147.4307 774.276,178.952 787.862,195.515 " fill="none" id="ModelGame-ModelPet" style="stroke:#181818;stroke-width:1.0;"/><polygon fill="none" points="740.809,138.153,741.5218,145.3288,748.4198,147.4307,747.707,140.2549,740.809,138.153" style="stroke:#181818;stroke-width:1.0;"/><polygon fill="#181818" points="796.361,205.875,793.7454,196.3798,793.1898,202.0093,787.5603,201.4538,796.361,205.875" style="stroke:#181818;stroke-width:1.0;"/><line style="stroke:#181818;stroke-width:1.0;" x1="793.1898" x2="788.116" y1="202.0093" y2="195.824"/></g><!--link ModelGame to ModelRoom--><g id="link_ModelGame_ModelRoom"><path codeLine="67" d="M615.2269,144.6396 C615.2269,144.6396 560.829,183.162 539,206 C510.95,235.347 488.298,276.779 475.24,303.763 " fill="none" id="ModelGame-ModelRoom" style="stroke:#181818;stroke-width:1.0;"/><polygon fill="none" points="625.315,138.141,618.1048,138.0276,615.2269,144.6396,622.4372,144.753,625.315,138.141" style="stroke:#181818;stroke-width:1.0;"/><polygon fill="#181818" points="469.618,315.733,477.0642,309.2867,471.7433,311.2072,469.8228,305.8863,469.618,315.733" style="stroke:#181818;stroke-width:1.0;"/><line style="stroke:#181818;stroke-width:1.0;" x1="471.7433" x2="475.1445" y1="311.2072" y2="303.966"/></g><!--link ModelGame to ModelSave--><g id="link_ModelGame_ModelSave"><path codeLine="68" d="M695.402,138.153 C686.97,176.501 674.649,232.54 665.459,274.338 " fill="none" id="ModelGame-to-ModelSave" style="stroke:#181818;stroke-width:1.0;stroke-dasharray:7.0,7.0;"/><polygon fill="#181818" points="664.354,279.362,670.1939,271.4314,665.4281,274.4787,662.3807,269.7129,664.354,279.362" style="stroke:#181818;stroke-width:1.0;"/></g><!--link ViewMain to ViewGame--><g id="link_ViewMain_ViewGame"><path codeLine="84" d="M1527.7981,120.0359 C1527.7981,120.0359 1608.26,258.943 1634.62,304.457 " fill="none" id="ViewMain-ViewGame" style="stroke:#181818;stroke-width:1.0;"/><polygon fill="none" points="1521.78,109.654,1521.3284,116.8509,1527.7981,120.0359,1528.2496,112.8389,1521.78,109.654" style="stroke:#181818;stroke-width:1.0;"/><polygon fill="#181818" points="1641.29,315.972,1640.2434,306.1789,1638.7853,311.6446,1633.3196,310.1865,1641.29,315.972" style="stroke:#181818;stroke-width:1.0;"/><line style="stroke:#181818;stroke-width:1.0;" x1="1638.7853" x2="1634.78" y1="311.6446" y2="304.7235"/></g><!--link ViewMain to ViewMenu--><g id="link_ViewMain_ViewMenu"><path codeLine="85" d="M1497.8271,119.9625 C1497.8271,119.9625 1414.72,259.338 1387.65,304.748 " fill="none" id="ViewMain-ViewMenu" style="stroke:#181818;stroke-width:1.0;"/><polygon fill="none" points="1503.97,109.654,1497.4624,112.7606,1497.8271,119.9625,1504.3347,116.8559,1503.97,109.654" style="stroke:#181818;stroke-width:1.0;"/><polygon fill="#181818" points="1380.96,315.972,1389.0065,310.2928,1383.522,311.6782,1382.1365,306.1937,1380.96,315.972" style="stroke:#181818;stroke-width:1.0;"/><line style="stroke:#181818;stroke-width:1.0;" x1="1383.522" x2="1387.615" y1="311.6782" y2="304.806"/></g><!--link ViewMenu to ViewOption--><g id="link_ViewMenu_ViewOption"><path codeLine="86" d="M1380.6754,359.5631 C1380.6754,359.5631 1421.05,483.219 1434.91,525.651 " fill="none" id="ViewMenu-ViewOption" style="stroke:#181818;stroke-width:1.0;"/><polygon fill="#181818" points="1376.95,348.156,1375.0104,355.1013,1380.6754,359.5631,1382.6151,352.6177,1376.95,348.156" style="stroke:#181818;stroke-width:1.0;"/><polygon fill="#181818" points="1439.02,538.238,1440.0283,528.4409,1437.4677,533.4851,1432.4236,530.9245,1439.02,538.238" style="stroke:#181818;stroke-width:1.0;"/><line style="stroke:#181818;stroke-width:1.0;" x1="1437.4677" x2="1434.985" y1="533.4851" y2="525.8805"/></g><!--link ViewMenu to ViewCustomPet--><g id="link_ViewMenu_ViewCustomPet"><path codeLine="87" d="M1347.6147,356.4782 C1347.6147,356.4782 1212.3,486.772 1168.26,529.182 " fill="none" id="ViewMenu-ViewCustomPet" style="stroke:#181818;stroke-width:1.0;"/><polygon fill="#181818" points="1356.26,348.156,1349.1633,349.4353,1347.6147,356.4782,1354.7114,355.1989,1356.26,348.156" style="stroke:#181818;stroke-width:1.0;"/><polygon fill="#181818" points="1158.85,538.238,1168.108,534.8781,1162.4522,534.7704,1162.5599,529.1146,1158.85,538.238" style="stroke:#181818;stroke-width:1.0;"/><line style="stroke:#181818;stroke-width:1.0;" x1="1162.4522" x2="1168.215" y1="534.7704" y2="529.2215"/></g><!--link ViewMenu to ViewLoad--><g id="link_ViewMenu_ViewLoad"><path codeLine="88" d="M1363.4452,359.5795 C1363.4452,359.5795 1323.63,483.219 1309.97,525.651 " fill="none" id="ViewMenu-ViewLoad" style="stroke:#181818;stroke-width:1.0;"/><polygon fill="#181818" points="1367.12,348.156,1361.4748,352.6428,1363.4452,359.5795,1369.0905,355.0927,1367.12,348.156" style="stroke:#181818;stroke-width:1.0;"/><polygon fill="#181818" points="1305.91,538.238,1312.4764,530.8975,1307.4427,533.4787,1304.8615,528.4451,1305.91,538.238" style="stroke:#181818;stroke-width:1.0;"/><line style="stroke:#181818;stroke-width:1.0;" x1="1307.4427" x2="1309.9" y1="533.4787" y2="525.8635"/></g><!--link ViewGame to ViewHUD--><g id="link_ViewGame_ViewHUD"><path codeLine="89" d="M1672.2637,356.9418 C1672.2637,356.9418 1792.52,486.293 1831.93,528.688 " fill="none" id="ViewGame-ViewHUD" style="stroke:#181818;stroke-width:1.0;"/><polygon fill="#181818" points="1664.09,348.156,1665.2482,355.2735,1672.2637,356.9418,1671.1055,349.8243,1664.09,348.156" style="stroke:#181818;stroke-width:1.0;"/><polygon fill="#181818" points="1840.81,538.238,1837.6083,528.9241,1837.4043,534.5772,1831.7511,534.3732,1840.81,538.238" style="stroke:#181818;stroke-width:1.0;"/><line style="stroke:#181818;stroke-width:1.0;" x1="1837.4043" x2="1831.96" y1="534.5772" y2="528.717"/></g><!--link ViewHUD to ViewAction--><g id="link_ViewHUD_ViewAction"><path codeLine="90" d="M1853.1473,582.4988 C1853.1473,582.4988 1849.47,636.056 1847.95,658.127 " fill="none" id="ViewHUD-ViewAction" style="stroke:#181818;stroke-width:1.0;"/><polygon fill="#181818" points="1853.97,570.527,1849.568,576.2386,1853.1473,582.4988,1857.5492,576.7871,1853.97,570.527" style="stroke:#181818;stroke-width:1.0;"/><polygon fill="#181818" points="1847.05,671.244,1851.6576,662.5394,1847.3928,666.2558,1843.6765,661.9909,1847.05,671.244" style="stroke:#181818;stroke-width:1.0;"/><line style="stroke:#181818;stroke-width:1.0;" x1="1847.3928" x2="1847.94" y1="666.2558" y2="658.275"/></g><!--link ViewHUD to ViewStat--><g id="link_ViewHUD_ViewStat"><path codeLine="91" d="M1828.8989,578.4516 C1828.8989,578.4516 1760.2,638.851 1733.27,662.526 " fill="none" id="ViewHUD-ViewStat" style="stroke:#181818;stroke-width:1.0;"/><polygon fill="none" points="1837.91,570.527,1830.7629,571.4856,1828.8989,578.4516,1836.046,577.493,1837.91,570.527" style="stroke:#181818;stroke-width:1.0;"/><polygon fill="#181818" points="1723.35,671.244,1732.7501,668.3049,1727.1049,667.9423,1727.4675,662.2971,1723.35,671.244" style="stroke:#181818;stroke-width:1.0;"/><line style="stroke:#181818;stroke-width:1.0;" x1="1727.1049" x2="1733.115" y1="667.9423" y2="662.6605"/></g><!--link ViewGame to ViewRoom--><g id="link_ViewGame_ViewRoom"><path codeLine="92" d="M1658.2077,359.6227 C1658.2077,359.6227 1696.33,483.219 1709.41,525.651 " fill="none" id="ViewGame-ViewRoom" style="stroke:#181818;stroke-width:1.0;"/><polygon fill="none" points="1654.67,348.156,1652.6166,355.0686,1658.2077,359.6227,1660.2611,352.7101,1654.67,348.156" style="stroke:#181818;stroke-width:1.0;"/><polygon fill="#181818" points="1713.29,538.238,1714.4622,528.4591,1711.8175,533.4597,1706.8169,530.8151,1713.29,538.238" style="stroke:#181818;stroke-width:1.0;"/><line style="stroke:#181818;stroke-width:1.0;" x1="1711.8175" x2="1709.46" y1="533.4597" y2="525.8155"/></g><!--link ViewGame to ViewPet--><g id="link_ViewGame_ViewPet"><path codeLine="93" d="M1641.9019,359.6379 C1641.9019,359.6379 1604.31,483.358 1591.45,525.681 " fill="none" id="ViewGame-ViewPet" style="stroke:#181818;stroke-width:1.0;"/><polygon fill="none" points="1645.39,348.156,1639.8187,352.7342,1641.9019,359.6379,1647.4733,355.0596,1645.39,348.156" style="stroke:#181818;stroke-width:1.0;"/><polygon fill="#181818" points="1587.64,538.238,1594.0826,530.7886,1589.0929,533.4537,1586.4277,528.464,1587.64,538.238" style="stroke:#181818;stroke-width:1.0;"/><line style="stroke:#181818;stroke-width:1.0;" x1="1589.0929" x2="1591.415" y1="533.4537" y2="525.7995"/></g><!--link ControllerPet to ControllerStat--><g id="link_ControllerPet_ControllerStat"><path codeLine="122" d="M100,736.296 C100,736.296 100,759.661 100,770.481 " fill="none" id="ControllerPet-ControllerStat" style="stroke:#181818;stroke-width:1.0;"/><polygon fill="#181818" points="100,724.296,96,730.296,100,736.296,104,730.296,100,724.296" style="stroke:#181818;stroke-width:1.0;"/><polygon fill="#181818" points="100,783.747,104,774.747,100,778.747,96,774.747,100,783.747" style="stroke:#181818;stroke-width:1.0;"/><line style="stroke:#181818;stroke-width:1.0;" x1="100" x2="100" y1="778.747" y2="770.747"/></g><!--link ControllerGame to ControllerPet--><g id="link_ControllerGame_ControllerPet"><path codeLine="123" d="M216.8676,598.5141 C216.8676,598.5141 176.307,629.05 157.624,643.116 " fill="none" id="ControllerGame-ControllerPet" style="stroke:#181818;stroke-width:1.0;"/><polygon fill="#181818" points="226.454,591.296,219.2548,591.7096,216.8676,598.5141,224.0669,598.1005,226.454,591.296" style="stroke:#181818;stroke-width:1.0;"/><polygon fill="#181818" points="147.187,650.974,156.7828,648.7559,151.1813,647.9664,151.9707,642.3649,147.187,650.974" style="stroke:#181818;stroke-width:1.0;"/><line style="stroke:#181818;stroke-width:1.0;" x1="151.1813" x2="157.573" y1="647.9664" y2="643.155"/></g><!--link ControllerGame to ControllerRoom--><g id="link_ControllerGame_ControllerRoom"><path codeLine="124" d="M274,603.296 C274,603.296 274,626.661 274,637.481 " fill="none" id="ControllerGame-ControllerRoom" style="stroke:#181818;stroke-width:1.0;"/><polygon fill="#181818" points="274,591.296,270,597.296,274,603.296,278,597.296,274,591.296" style="stroke:#181818;stroke-width:1.0;"/><polygon fill="#181818" points="274,650.747,278,641.747,274,645.747,270,641.747,274,650.747" style="stroke:#181818;stroke-width:1.0;"/><line style="stroke:#181818;stroke-width:1.0;" x1="274" x2="274" y1="645.747" y2="637.747"/></g><!--link ControllerMain to ControllerGame--><g id="link_ControllerMain_ControllerGame"><path codeLine="125" d="M186.1962,370.8537 C186.1962,370.8537 231.875,465.872 251.152,505.971 " fill="none" id="ControllerMain-ControllerGame" style="stroke:#181818;stroke-width:1.0;"/><polygon fill="#181818" points="180.998,360.038,179.9919,367.1786,186.1962,370.8537,187.2023,363.7131,180.998,360.038" style="stroke:#181818;stroke-width:1.0;"/><polygon fill="#181818" points="256.859,517.843,256.5642,507.9986,254.6924,513.3368,249.3542,511.4651,256.859,517.843" style="stroke:#181818;stroke-width:1.0;"/><line style="stroke:#181818;stroke-width:1.0;" x1="254.6924" x2="251.2265" y1="513.3368" y2="506.1265"/></g><!--link ControllerMain to ControllerMenu--><g id="link_ControllerMain_ControllerMenu"><path codeLine="126" d="M155.1075,371.4143 C155.1075,371.4143 123.531,465.507 110.184,505.277 " fill="none" id="ControllerMain-ControllerMenu" style="stroke:#181818;stroke-width:1.0;"/><polygon fill="#181818" points="158.926,360.038,153.2247,364.4533,155.1075,371.4143,160.8089,366.999,158.926,360.038" style="stroke:#181818;stroke-width:1.0;"/><polygon fill="#181818" points="105.966,517.843,112.6214,510.5832,107.5567,513.1028,105.0371,508.038,105.966,517.843" style="stroke:#181818;stroke-width:1.0;"/><line style="stroke:#181818;stroke-width:1.0;" x1="107.5567" x2="110.1025" y1="513.1028" y2="505.5185"/></g><!--link App to ControllerMain--><g id="link_App_ControllerMain"><path codeLine="130" d="M168,142.163 C168,142.163 168,249.913 168,290.718 " fill="none" id="App-ControllerMain" style="stroke:#181818;stroke-width:1.0;"/><polygon fill="#181818" points="168,130.163,164,136.163,168,142.163,172,136.163,168,130.163" style="stroke:#181818;stroke-width:1.0;"/><polygon fill="#181818" points="168,303.894,172,294.894,168,298.894,164,294.894,168,303.894" style="stroke:#181818;stroke-width:1.0;"/><line style="stroke:#181818;stroke-width:1.0;" x1="168" x2="168" y1="298.894" y2="290.894"/></g><!--SRC=[ZLRBRjGm55qdN-5Tfw1CzwMgL0gbI2sWKc0vyYHkOf7OaHypgeRy2rluZVuOldRYE4wAEeiPvvpZwtElhvsfQ44GQLhrYB1IWcwr8ZAjHhGXgkA5JDEynbAYYxP5XpJ93b9XHVEkngpS22Av5Zb1f-Yk7xxLhAX986IwsTGynpMeFkbcIyGL5mrMQPUc9qUehRL4Mj6QogS_w0rgC9MeDR44fWhLHqz_bI3ewJTYNEy8rccByv-u90WSW2MybKhWN25dzAQ7azVeu7BeqE05bKG1lpesNc3mZ4psCiJ8_YEJgbUZupJfqYHDt4fN8aqkxUWz0zHApdvbcMN69yDswT59wfqtl22ryOZCnuMw1UIEyoR6Fk26E25ylX05APYVrR47OHgWy1l0EquBICJ2LcEIsGWpS9ekNkghIJx6FhUASjPRJJ8ekOOCJf6fEONw0P7jUAqRG0kkjx3x5gqsUyeAlZSuPQe7zrDmsGdU4RycPGzyqnBO0zCYwimjV1wolFqVMrfdpx5QYYNMUJ8EYNZ0fi6jBrFtmwo-bMOb4Ike7dBZ-HxSLy8iu3IgeaAgkUO7eMNLQ_PsFDTSFvQKCD8lvXxcgbikSEqq3Gn7XSLCgrmxptFYtffR87ft2w5wItF6sGXnAAzTvR4bSq9nDmWOKt_GGqJfhexLl7dl-9Q7ZNl1Q8Dh2zYlOUlCOLol0_KK3sQv8U9PTXwT33jvYV1dDI1Dw6SvVzH7Shq-7xiVxiRXjjXHieSBpMNttJpTOig2X04Q5XkHw3O1A3hXDXHXEe8kjLIycGUyuRY8e8iSheS8T7T614AA4NJzxTsuIKDQhaQJ6NFAcnuUqAk12XQVazFCvhpFS5X_f0Qp_HYDJ503Jtgdlk8-egVy_imfS1Wqm2LdIl2w9cBopXXXMvtXlXnxQ3meYxEWzSVhB9lqh4N2lkeMGzZNIXp39-Q3U6GvYhqmuYY-SZwAHvQZsAsCemJjuEFuxbcEOxSYZkERqKVnI53XQMrjXqopZ5HZYqrcla3bAnerGIIpKr-WyoM1jeD_UZ5lvlm3]--></g></svg>