<?xml version="1.0" encoding="UTF-8" standalone="no"?><svg xmlns="http://www.w3.org/2000/svg" xmlns:xlink="http://www.w3.org/1999/xlink" contentScriptType="application/ecmascript" contentStyleType="text/css" height="648px" preserveAspectRatio="none" style="width:1729px;height:648px;" version="1.1" viewBox="0 0 1729 648" width="1729px" zoomAndPan="magnify"><defs><filter height="300%" id="fguhjz55th8fs" width="300%" x="-1" y="-1"><feGaussianBlur result="blurOut" stdDeviation="2.0"/><feColorMatrix in="blurOut" result="blurOut2" type="matrix" values="0 0 0 0 0 0 0 0 0 0 0 0 0 0 0 0 0 0 .4 0"/><feOffset dx="4.0" dy="4.0" in="blurOut2" result="blurOut3"/><feBlend in="SourceGraphic" in2="blurOut3" mode="normal"/></filter></defs><g><!--MD5=[78194114d808d3aaca9db31f547b0644]
cluster lang--><polygon fill="#FFFFFF" filter="url(#fguhjz55th8fs)" points="22,175,61,175,68,197.2969,181,197.2969,181,367,22,367,22,175" style="stroke: #000000; stroke-width: 1.5;"/><line style="stroke: #000000; stroke-width: 1.5;" x1="22" x2="68" y1="197.2969" y2="197.2969"/><text fill="#000000" font-family="sans-serif" font-size="14" font-weight="bold" lengthAdjust="spacingAndGlyphs" textLength="33" x="26" y="189.9951">lang</text><!--MD5=[5d4cd377749310b66bf14896f5cd8d9b]
cluster model--><polygon fill="#FFFFFF" filter="url(#fguhjz55th8fs)" points="553,24,607,24,614,46.2969,893,46.2969,893,367,553,367,553,24" style="stroke: #000000; stroke-width: 1.5;"/><line style="stroke: #000000; stroke-width: 1.5;" x1="553" x2="614" y1="46.2969" y2="46.2969"/><text fill="#000000" font-family="sans-serif" font-size="14" font-weight="bold" lengthAdjust="spacingAndGlyphs" textLength="48" x="557" y="38.9951">model</text><!--MD5=[86cbce8df1eb9d604fbbb2fa357940f8]
cluster view--><polygon fill="#FFFFFF" filter="url(#fguhjz55th8fs)" points="917,53.5,960,53.5,967,75.7969,1707,75.7969,1707,493,917,493,917,53.5" style="stroke: #000000; stroke-width: 1.5;"/><line style="stroke: #000000; stroke-width: 1.5;" x1="917" x2="967" y1="75.7969" y2="75.7969"/><text fill="#000000" font-family="sans-serif" font-size="14" font-weight="bold" lengthAdjust="spacingAndGlyphs" textLength="37" x="921" y="68.4951">view</text><!--MD5=[1f2cfc53d9d308f53762fd0fcbaa4873]
cluster Controller--><polygon fill="#FFFFFF" filter="url(#fguhjz55th8fs)" points="205,175,290,175,297,197.2969,529,197.2969,529,636,205,636,205,175" style="stroke: #000000; stroke-width: 1.5;"/><line style="stroke: #000000; stroke-width: 1.5;" x1="205" x2="297" y1="197.2969" y2="197.2969"/><text fill="#000000" font-family="sans-serif" font-size="14" font-weight="bold" lengthAdjust="spacingAndGlyphs" textLength="79" x="209" y="189.9951">Controller</text><!--MD5=[d6c567a33847b77a8058f3d00eba0565]
class Lang--><rect fill="#FEFECE" filter="url(#fguhjz55th8fs)" height="32" id="Lang" style="stroke: #A80036; stroke-width: 1.5;" width="61" x="103.5" y="210"/><ellipse cx="118.5" cy="226" fill="#B4A7E5" rx="11" ry="11" style="stroke: #A80036; stroke-width: 1.0;"/><path d="M114.4219,221.7656 L114.4219,219.6094 L121.8125,219.6094 L121.8125,221.7656 L119.3438,221.7656 L119.3438,229.8438 L121.8125,229.8438 L121.8125,232 L114.4219,232 L114.4219,229.8438 L116.8906,229.8438 L116.8906,221.7656 L114.4219,221.7656 Z "/><text fill="#000000" font-family="sans-serif" font-size="12" font-style="italic" lengthAdjust="spacingAndGlyphs" textLength="29" x="132.5" y="230.1543">Lang</text><!--MD5=[e0b0f022d868ad323502bc5184d39584]
class Fr--><rect fill="#FEFECE" filter="url(#fguhjz55th8fs)" height="32" id="Fr" style="stroke: #A80036; stroke-width: 1.5;" width="44" x="38" y="319"/><ellipse cx="53" cy="335" fill="#ADD1B2" rx="11" ry="11" style="stroke: #A80036; stroke-width: 1.0;"/><path d="M55.9688,340.6406 Q55.3906,340.9375 54.75,341.0781 Q54.1094,341.2344 53.4063,341.2344 Q50.9063,341.2344 49.5781,339.5938 Q48.2656,337.9375 48.2656,334.8125 Q48.2656,331.6875 49.5781,330.0313 Q50.9063,328.375 53.4063,328.375 Q54.1094,328.375 54.75,328.5313 Q55.4063,328.6875 55.9688,328.9844 L55.9688,331.7031 Q55.3438,331.125 54.75,330.8594 Q54.1563,330.5781 53.5313,330.5781 Q52.1875,330.5781 51.5,331.6563 Q50.8125,332.7188 50.8125,334.8125 Q50.8125,336.9063 51.5,337.9844 Q52.1875,339.0469 53.5313,339.0469 Q54.1563,339.0469 54.75,338.7813 Q55.3438,338.5 55.9688,337.9219 L55.9688,340.6406 Z "/><text fill="#000000" font-family="sans-serif" font-size="12" lengthAdjust="spacingAndGlyphs" textLength="12" x="67" y="339.1543">Fr</text><!--MD5=[11aee42e7bda610f1ae7beec836b5cfb]
class En--><rect fill="#FEFECE" filter="url(#fguhjz55th8fs)" height="32" id="En" style="stroke: #A80036; stroke-width: 1.5;" width="48" x="117" y="319"/><ellipse cx="132" cy="335" fill="#ADD1B2" rx="11" ry="11" style="stroke: #A80036; stroke-width: 1.0;"/><path d="M134.9688,340.6406 Q134.3906,340.9375 133.75,341.0781 Q133.1094,341.2344 132.4063,341.2344 Q129.9063,341.2344 128.5781,339.5938 Q127.2656,337.9375 127.2656,334.8125 Q127.2656,331.6875 128.5781,330.0313 Q129.9063,328.375 132.4063,328.375 Q133.1094,328.375 133.75,328.5313 Q134.4063,328.6875 134.9688,328.9844 L134.9688,331.7031 Q134.3438,331.125 133.75,330.8594 Q133.1563,330.5781 132.5313,330.5781 Q131.1875,330.5781 130.5,331.6563 Q129.8125,332.7188 129.8125,334.8125 Q129.8125,336.9063 130.5,337.9844 Q131.1875,339.0469 132.5313,339.0469 Q133.1563,339.0469 133.75,338.7813 Q134.3438,338.5 134.9688,337.9219 L134.9688,340.6406 Z "/><text fill="#000000" font-family="sans-serif" font-size="12" lengthAdjust="spacingAndGlyphs" textLength="16" x="146" y="339.1543">En</text><!--MD5=[ce588b4fa91533db47d899c6e7055886]
class ModelRoom--><rect fill="#FEFECE" filter="url(#fguhjz55th8fs)" height="32" id="ModelRoom" style="stroke: #A80036; stroke-width: 1.5;" width="104" x="596" y="210"/><ellipse cx="611" cy="226" fill="#ADD1B2" rx="11" ry="11" style="stroke: #A80036; stroke-width: 1.0;"/><path d="M613.9688,231.6406 Q613.3906,231.9375 612.75,232.0781 Q612.1094,232.2344 611.4063,232.2344 Q608.9063,232.2344 607.5781,230.5938 Q606.2656,228.9375 606.2656,225.8125 Q606.2656,222.6875 607.5781,221.0313 Q608.9063,219.375 611.4063,219.375 Q612.1094,219.375 612.75,219.5313 Q613.4063,219.6875 613.9688,219.9844 L613.9688,222.7031 Q613.3438,222.125 612.75,221.8594 Q612.1563,221.5781 611.5313,221.5781 Q610.1875,221.5781 609.5,222.6563 Q608.8125,223.7188 608.8125,225.8125 Q608.8125,227.9063 609.5,228.9844 Q610.1875,230.0469 611.5313,230.0469 Q612.1563,230.0469 612.75,229.7813 Q613.3438,229.5 613.9688,228.9219 L613.9688,231.6406 Z "/><text fill="#000000" font-family="sans-serif" font-size="12" lengthAdjust="spacingAndGlyphs" textLength="72" x="625" y="230.1543">ModelRoom</text><!--MD5=[5ef06c8862a4439f35d8b1de5f55aae6]
class ModelGame--><rect fill="#FEFECE" filter="url(#fguhjz55th8fs)" height="32" id="ModelGame" style="stroke: #A80036; stroke-width: 1.5;" width="105" x="725.5" y="88.5"/><ellipse cx="740.5" cy="104.5" fill="#ADD1B2" rx="11" ry="11" style="stroke: #A80036; stroke-width: 1.0;"/><path d="M743.4688,110.1406 Q742.8906,110.4375 742.25,110.5781 Q741.6094,110.7344 740.9063,110.7344 Q738.4063,110.7344 737.0781,109.0938 Q735.7656,107.4375 735.7656,104.3125 Q735.7656,101.1875 737.0781,99.5313 Q738.4063,97.875 740.9063,97.875 Q741.6094,97.875 742.25,98.0313 Q742.9063,98.1875 743.4688,98.4844 L743.4688,101.2031 Q742.8438,100.625 742.25,100.3594 Q741.6563,100.0781 741.0313,100.0781 Q739.6875,100.0781 739,101.1563 Q738.3125,102.2188 738.3125,104.3125 Q738.3125,106.4063 739,107.4844 Q739.6875,108.5469 741.0313,108.5469 Q741.6563,108.5469 742.25,108.2813 Q742.8438,108 743.4688,107.4219 L743.4688,110.1406 Z "/><text fill="#000000" font-family="sans-serif" font-size="12" lengthAdjust="spacingAndGlyphs" textLength="73" x="754.5" y="108.6543">ModelGame</text><!--MD5=[93eb20994f674771d0d73131508a8777]
class ModelStat--><rect fill="#FEFECE" filter="url(#fguhjz55th8fs)" height="32" id="ModelStat" style="stroke: #A80036; stroke-width: 1.5;" width="95" x="569.5" y="319"/><ellipse cx="584.5" cy="335" fill="#ADD1B2" rx="11" ry="11" style="stroke: #A80036; stroke-width: 1.0;"/><path d="M587.4688,340.6406 Q586.8906,340.9375 586.25,341.0781 Q585.6094,341.2344 584.9063,341.2344 Q582.4063,341.2344 581.0781,339.5938 Q579.7656,337.9375 579.7656,334.8125 Q579.7656,331.6875 581.0781,330.0313 Q582.4063,328.375 584.9063,328.375 Q585.6094,328.375 586.25,328.5313 Q586.9063,328.6875 587.4688,328.9844 L587.4688,331.7031 Q586.8438,331.125 586.25,330.8594 Q585.6563,330.5781 585.0313,330.5781 Q583.6875,330.5781 583,331.6563 Q582.3125,332.7188 582.3125,334.8125 Q582.3125,336.9063 583,337.9844 Q583.6875,339.0469 585.0313,339.0469 Q585.6563,339.0469 586.25,338.7813 Q586.8438,338.5 587.4688,337.9219 L587.4688,340.6406 Z "/><text fill="#000000" font-family="sans-serif" font-size="12" lengthAdjust="spacingAndGlyphs" textLength="63" x="598.5" y="339.1543">ModelStat</text><!--MD5=[9a411119b15aaa1f323289dd6a5d4481]
class ModelOption--><rect fill="#FEFECE" filter="url(#fguhjz55th8fs)" height="91.2188" id="ModelOption" style="stroke: #A80036; stroke-width: 1.5;" width="121" x="569.5" y="59"/><ellipse cx="589.45" cy="75" fill="#ADD1B2" rx="11" ry="11" style="stroke: #A80036; stroke-width: 1.0;"/><path d="M592.4188,80.6406 Q591.8406,80.9375 591.2,81.0781 Q590.5594,81.2344 589.8563,81.2344 Q587.3563,81.2344 586.0281,79.5938 Q584.7156,77.9375 584.7156,74.8125 Q584.7156,71.6875 586.0281,70.0313 Q587.3563,68.375 589.8563,68.375 Q590.5594,68.375 591.2,68.5313 Q591.8563,68.6875 592.4188,68.9844 L592.4188,71.7031 Q591.7938,71.125 591.2,70.8594 Q590.6063,70.5781 589.9813,70.5781 Q588.6375,70.5781 587.95,71.6563 Q587.2625,72.7188 587.2625,74.8125 Q587.2625,76.9063 587.95,77.9844 Q588.6375,79.0469 589.9813,79.0469 Q590.6063,79.0469 591.2,78.7813 Q591.7938,78.5 592.4188,77.9219 L592.4188,80.6406 Z "/><text fill="#000000" font-family="sans-serif" font-size="12" lengthAdjust="spacingAndGlyphs" textLength="78" x="604.55" y="79.1543">ModelOption</text><line style="stroke: #A80036; stroke-width: 1.5;" x1="570.5" x2="689.5" y1="91" y2="91"/><rect fill="none" height="6" style="stroke: #C82930; stroke-width: 1.0;" width="6" x="577.5" y="99"/><text fill="#000000" font-family="sans-serif" font-size="11" lengthAdjust="spacingAndGlyphs" textLength="95" x="589.5" y="105.2104">language : string</text><rect fill="none" height="6" style="stroke: #C82930; stroke-width: 1.0;" width="6" x="577.5" y="111.8047"/><text fill="#000000" font-family="sans-serif" font-size="11" lengthAdjust="spacingAndGlyphs" textLength="89" x="589.5" y="118.0151">volume : double</text><rect fill="none" height="6" style="stroke: #C82930; stroke-width: 1.0;" width="6" x="577.5" y="124.6094"/><text fill="#000000" font-family="sans-serif" font-size="11" lengthAdjust="spacingAndGlyphs" textLength="79" x="589.5" y="130.8198">h_window : int</text><rect fill="none" height="6" style="stroke: #C82930; stroke-width: 1.0;" width="6" x="577.5" y="137.4141"/><text fill="#000000" font-family="sans-serif" font-size="11" lengthAdjust="spacingAndGlyphs" textLength="81" x="589.5" y="143.6245">w_window : int</text><!--MD5=[42b6c9b95235c21ed83560c01266501d]
class ModelPet--><rect fill="#FEFECE" filter="url(#fguhjz55th8fs)" height="32" id="ModelPet" style="stroke: #A80036; stroke-width: 1.5;" width="86" x="735" y="210"/><ellipse cx="750" cy="226" fill="#B4A7E5" rx="11" ry="11" style="stroke: #A80036; stroke-width: 1.0;"/><path d="M745.9219,221.7656 L745.9219,219.6094 L753.3125,219.6094 L753.3125,221.7656 L750.8438,221.7656 L750.8438,229.8438 L753.3125,229.8438 L753.3125,232 L745.9219,232 L745.9219,229.8438 L748.3906,229.8438 L748.3906,221.7656 L745.9219,221.7656 Z "/><text fill="#000000" font-family="sans-serif" font-size="12" font-style="italic" lengthAdjust="spacingAndGlyphs" textLength="54" x="764" y="230.1543">ModelPet</text><!--MD5=[60fb4f72b7635aa97affd2efc062a79f]
class Robot--><rect fill="#FEFECE" filter="url(#fguhjz55th8fs)" height="32" id="Robot" style="stroke: #A80036; stroke-width: 1.5;" width="69" x="699.5" y="319"/><ellipse cx="714.5" cy="335" fill="#ADD1B2" rx="11" ry="11" style="stroke: #A80036; stroke-width: 1.0;"/><path d="M717.4688,340.6406 Q716.8906,340.9375 716.25,341.0781 Q715.6094,341.2344 714.9063,341.2344 Q712.4063,341.2344 711.0781,339.5938 Q709.7656,337.9375 709.7656,334.8125 Q709.7656,331.6875 711.0781,330.0313 Q712.4063,328.375 714.9063,328.375 Q715.6094,328.375 716.25,328.5313 Q716.9063,328.6875 717.4688,328.9844 L717.4688,331.7031 Q716.8438,331.125 716.25,330.8594 Q715.6563,330.5781 715.0313,330.5781 Q713.6875,330.5781 713,331.6563 Q712.3125,332.7188 712.3125,334.8125 Q712.3125,336.9063 713,337.9844 Q713.6875,339.0469 715.0313,339.0469 Q715.6563,339.0469 716.25,338.7813 Q716.8438,338.5 717.4688,337.9219 L717.4688,340.6406 Z "/><text fill="#000000" font-family="sans-serif" font-size="12" lengthAdjust="spacingAndGlyphs" textLength="37" x="728.5" y="339.1543">Robot</text><!--MD5=[7fd4401f5c5cb0e3d029c879cad30c04]
class Animal--><rect fill="#FEFECE" filter="url(#fguhjz55th8fs)" height="32" id="Animal" style="stroke: #A80036; stroke-width: 1.5;" width="73" x="803.5" y="319"/><ellipse cx="818.5" cy="335" fill="#ADD1B2" rx="11" ry="11" style="stroke: #A80036; stroke-width: 1.0;"/><path d="M821.4688,340.6406 Q820.8906,340.9375 820.25,341.0781 Q819.6094,341.2344 818.9063,341.2344 Q816.4063,341.2344 815.0781,339.5938 Q813.7656,337.9375 813.7656,334.8125 Q813.7656,331.6875 815.0781,330.0313 Q816.4063,328.375 818.9063,328.375 Q819.6094,328.375 820.25,328.5313 Q820.9063,328.6875 821.4688,328.9844 L821.4688,331.7031 Q820.8438,331.125 820.25,330.8594 Q819.6563,330.5781 819.0313,330.5781 Q817.6875,330.5781 817,331.6563 Q816.3125,332.7188 816.3125,334.8125 Q816.3125,336.9063 817,337.9844 Q817.6875,339.0469 819.0313,339.0469 Q819.6563,339.0469 820.25,338.7813 Q820.8438,338.5 821.4688,337.9219 L821.4688,340.6406 Z "/><text fill="#000000" font-family="sans-serif" font-size="12" lengthAdjust="spacingAndGlyphs" textLength="41" x="832.5" y="339.1543">Animal</text><!--MD5=[2369c9863c53bf1001e6873222dfb3fe]
class ViewMain--><rect fill="#FEFECE" filter="url(#fguhjz55th8fs)" height="32" id="ViewMain" style="stroke: #A80036; stroke-width: 1.5;" width="89" x="1287.5" y="88.5"/><ellipse cx="1302.5" cy="104.5" fill="#ADD1B2" rx="11" ry="11" style="stroke: #A80036; stroke-width: 1.0;"/><path d="M1305.4688,110.1406 Q1304.8906,110.4375 1304.25,110.5781 Q1303.6094,110.7344 1302.9063,110.7344 Q1300.4063,110.7344 1299.0781,109.0938 Q1297.7656,107.4375 1297.7656,104.3125 Q1297.7656,101.1875 1299.0781,99.5313 Q1300.4063,97.875 1302.9063,97.875 Q1303.6094,97.875 1304.25,98.0313 Q1304.9063,98.1875 1305.4688,98.4844 L1305.4688,101.2031 Q1304.8438,100.625 1304.25,100.3594 Q1303.6563,100.0781 1303.0313,100.0781 Q1301.6875,100.0781 1301,101.1563 Q1300.3125,102.2188 1300.3125,104.3125 Q1300.3125,106.4063 1301,107.4844 Q1301.6875,108.5469 1303.0313,108.5469 Q1303.6563,108.5469 1304.25,108.2813 Q1304.8438,108 1305.4688,107.4219 L1305.4688,110.1406 Z "/><text fill="#000000" font-family="sans-serif" font-size="12" lengthAdjust="spacingAndGlyphs" textLength="57" x="1316.5" y="108.6543">ViewMain</text><!--MD5=[66004aa1b2b41dfc3553a089f11ca636]
class ViewPet--><rect fill="#FEFECE" filter="url(#fguhjz55th8fs)" height="32" id="ViewPet" style="stroke: #A80036; stroke-width: 1.5;" width="81" x="1357.5" y="319"/><ellipse cx="1372.5" cy="335" fill="#ADD1B2" rx="11" ry="11" style="stroke: #A80036; stroke-width: 1.0;"/><path d="M1375.4688,340.6406 Q1374.8906,340.9375 1374.25,341.0781 Q1373.6094,341.2344 1372.9063,341.2344 Q1370.4063,341.2344 1369.0781,339.5938 Q1367.7656,337.9375 1367.7656,334.8125 Q1367.7656,331.6875 1369.0781,330.0313 Q1370.4063,328.375 1372.9063,328.375 Q1373.6094,328.375 1374.25,328.5313 Q1374.9063,328.6875 1375.4688,328.9844 L1375.4688,331.7031 Q1374.8438,331.125 1374.25,330.8594 Q1373.6563,330.5781 1373.0313,330.5781 Q1371.6875,330.5781 1371,331.6563 Q1370.3125,332.7188 1370.3125,334.8125 Q1370.3125,336.9063 1371,337.9844 Q1371.6875,339.0469 1373.0313,339.0469 Q1373.6563,339.0469 1374.25,338.7813 Q1374.8438,338.5 1375.4688,337.9219 L1375.4688,340.6406 Z "/><text fill="#000000" font-family="sans-serif" font-size="12" lengthAdjust="spacingAndGlyphs" textLength="49" x="1386.5" y="339.1543">ViewPet</text><!--MD5=[27e4653765d9e56603ae0db51ef372f2]
class ViewRoom--><rect fill="#FEFECE" filter="url(#fguhjz55th8fs)" height="32" id="ViewRoom" style="stroke: #A80036; stroke-width: 1.5;" width="95" x="1473.5" y="319"/><ellipse cx="1488.5" cy="335" fill="#ADD1B2" rx="11" ry="11" style="stroke: #A80036; stroke-width: 1.0;"/><path d="M1491.4688,340.6406 Q1490.8906,340.9375 1490.25,341.0781 Q1489.6094,341.2344 1488.9063,341.2344 Q1486.4063,341.2344 1485.0781,339.5938 Q1483.7656,337.9375 1483.7656,334.8125 Q1483.7656,331.6875 1485.0781,330.0313 Q1486.4063,328.375 1488.9063,328.375 Q1489.6094,328.375 1490.25,328.5313 Q1490.9063,328.6875 1491.4688,328.9844 L1491.4688,331.7031 Q1490.8438,331.125 1490.25,330.8594 Q1489.6563,330.5781 1489.0313,330.5781 Q1487.6875,330.5781 1487,331.6563 Q1486.3125,332.7188 1486.3125,334.8125 Q1486.3125,336.9063 1487,337.9844 Q1487.6875,339.0469 1489.0313,339.0469 Q1489.6563,339.0469 1490.25,338.7813 Q1490.8438,338.5 1491.4688,337.9219 L1491.4688,340.6406 Z "/><text fill="#000000" font-family="sans-serif" font-size="12" lengthAdjust="spacingAndGlyphs" textLength="63" x="1502.5" y="339.1543">ViewRoom</text><!--MD5=[fe60a39180a13549a61d1a377547b35e]
class ViewStat--><rect fill="#FEFECE" filter="url(#fguhjz55th8fs)" height="32" id="ViewStat" style="stroke: #A80036; stroke-width: 1.5;" width="86" x="1470" y="445"/><ellipse cx="1485" cy="461" fill="#ADD1B2" rx="11" ry="11" style="stroke: #A80036; stroke-width: 1.0;"/><path d="M1487.9688,466.6406 Q1487.3906,466.9375 1486.75,467.0781 Q1486.1094,467.2344 1485.4063,467.2344 Q1482.9063,467.2344 1481.5781,465.5938 Q1480.2656,463.9375 1480.2656,460.8125 Q1480.2656,457.6875 1481.5781,456.0313 Q1482.9063,454.375 1485.4063,454.375 Q1486.1094,454.375 1486.75,454.5313 Q1487.4063,454.6875 1487.9688,454.9844 L1487.9688,457.7031 Q1487.3438,457.125 1486.75,456.8594 Q1486.1563,456.5781 1485.5313,456.5781 Q1484.1875,456.5781 1483.5,457.6563 Q1482.8125,458.7188 1482.8125,460.8125 Q1482.8125,462.9063 1483.5,463.9844 Q1484.1875,465.0469 1485.5313,465.0469 Q1486.1563,465.0469 1486.75,464.7813 Q1487.3438,464.5 1487.9688,463.9219 L1487.9688,466.6406 Z "/><text fill="#000000" font-family="sans-serif" font-size="12" lengthAdjust="spacingAndGlyphs" textLength="54" x="1499" y="465.1543">ViewStat</text><!--MD5=[9e3e829b1d67d6c705c38104337e7cce]
class ViewMenu--><rect fill="#FEFECE" filter="url(#fguhjz55th8fs)" height="32" id="ViewMenu" style="stroke: #A80036; stroke-width: 1.5;" width="94" x="1159" y="210"/><ellipse cx="1174" cy="226" fill="#ADD1B2" rx="11" ry="11" style="stroke: #A80036; stroke-width: 1.0;"/><path d="M1176.9688,231.6406 Q1176.3906,231.9375 1175.75,232.0781 Q1175.1094,232.2344 1174.4063,232.2344 Q1171.9063,232.2344 1170.5781,230.5938 Q1169.2656,228.9375 1169.2656,225.8125 Q1169.2656,222.6875 1170.5781,221.0313 Q1171.9063,219.375 1174.4063,219.375 Q1175.1094,219.375 1175.75,219.5313 Q1176.4063,219.6875 1176.9688,219.9844 L1176.9688,222.7031 Q1176.3438,222.125 1175.75,221.8594 Q1175.1563,221.5781 1174.5313,221.5781 Q1173.1875,221.5781 1172.5,222.6563 Q1171.8125,223.7188 1171.8125,225.8125 Q1171.8125,227.9063 1172.5,228.9844 Q1173.1875,230.0469 1174.5313,230.0469 Q1175.1563,230.0469 1175.75,229.7813 Q1176.3438,229.5 1176.9688,228.9219 L1176.9688,231.6406 Z "/><text fill="#000000" font-family="sans-serif" font-size="12" lengthAdjust="spacingAndGlyphs" textLength="62" x="1188" y="230.1543">ViewMenu</text><!--MD5=[bb8139252ab9d60963f0ad3aa85822d8]
class ViewCustomPet--><rect fill="#FEFECE" filter="url(#fguhjz55th8fs)" height="32" id="ViewCustomPet" style="stroke: #A80036; stroke-width: 1.5;" width="128" x="933" y="319"/><ellipse cx="948" cy="335" fill="#ADD1B2" rx="11" ry="11" style="stroke: #A80036; stroke-width: 1.0;"/><path d="M950.9688,340.6406 Q950.3906,340.9375 949.75,341.0781 Q949.1094,341.2344 948.4063,341.2344 Q945.9063,341.2344 944.5781,339.5938 Q943.2656,337.9375 943.2656,334.8125 Q943.2656,331.6875 944.5781,330.0313 Q945.9063,328.375 948.4063,328.375 Q949.1094,328.375 949.75,328.5313 Q950.4063,328.6875 950.9688,328.9844 L950.9688,331.7031 Q950.3438,331.125 949.75,330.8594 Q949.1563,330.5781 948.5313,330.5781 Q947.1875,330.5781 946.5,331.6563 Q945.8125,332.7188 945.8125,334.8125 Q945.8125,336.9063 946.5,337.9844 Q947.1875,339.0469 948.5313,339.0469 Q949.1563,339.0469 949.75,338.7813 Q950.3438,338.5 950.9688,337.9219 L950.9688,340.6406 Z "/><text fill="#000000" font-family="sans-serif" font-size="12" lengthAdjust="spacingAndGlyphs" textLength="96" x="962" y="339.1543">ViewCustomPet</text><!--MD5=[d18d64f195106826546ed42fd601b6d0]
class ViewLoad--><rect fill="#FEFECE" filter="url(#fguhjz55th8fs)" height="32" id="ViewLoad" style="stroke: #A80036; stroke-width: 1.5;" width="90" x="1096" y="319"/><ellipse cx="1111" cy="335" fill="#ADD1B2" rx="11" ry="11" style="stroke: #A80036; stroke-width: 1.0;"/><path d="M1113.9688,340.6406 Q1113.3906,340.9375 1112.75,341.0781 Q1112.1094,341.2344 1111.4063,341.2344 Q1108.9063,341.2344 1107.5781,339.5938 Q1106.2656,337.9375 1106.2656,334.8125 Q1106.2656,331.6875 1107.5781,330.0313 Q1108.9063,328.375 1111.4063,328.375 Q1112.1094,328.375 1112.75,328.5313 Q1113.4063,328.6875 1113.9688,328.9844 L1113.9688,331.7031 Q1113.3438,331.125 1112.75,330.8594 Q1112.1563,330.5781 1111.5313,330.5781 Q1110.1875,330.5781 1109.5,331.6563 Q1108.8125,332.7188 1108.8125,334.8125 Q1108.8125,336.9063 1109.5,337.9844 Q1110.1875,339.0469 1111.5313,339.0469 Q1112.1563,339.0469 1112.75,338.7813 Q1113.3438,338.5 1113.9688,337.9219 L1113.9688,340.6406 Z "/><text fill="#000000" font-family="sans-serif" font-size="12" lengthAdjust="spacingAndGlyphs" textLength="58" x="1125" y="339.1543">ViewLoad</text><!--MD5=[363299a84393b04db7416c04d3062cf1]
class ViewAction--><rect fill="#FEFECE" filter="url(#fguhjz55th8fs)" height="32" id="ViewAction" style="stroke: #A80036; stroke-width: 1.5;" width="99" x="1591.5" y="445"/><ellipse cx="1606.5" cy="461" fill="#ADD1B2" rx="11" ry="11" style="stroke: #A80036; stroke-width: 1.0;"/><path d="M1609.4688,466.6406 Q1608.8906,466.9375 1608.25,467.0781 Q1607.6094,467.2344 1606.9063,467.2344 Q1604.4063,467.2344 1603.0781,465.5938 Q1601.7656,463.9375 1601.7656,460.8125 Q1601.7656,457.6875 1603.0781,456.0313 Q1604.4063,454.375 1606.9063,454.375 Q1607.6094,454.375 1608.25,454.5313 Q1608.9063,454.6875 1609.4688,454.9844 L1609.4688,457.7031 Q1608.8438,457.125 1608.25,456.8594 Q1607.6563,456.5781 1607.0313,456.5781 Q1605.6875,456.5781 1605,457.6563 Q1604.3125,458.7188 1604.3125,460.8125 Q1604.3125,462.9063 1605,463.9844 Q1605.6875,465.0469 1607.0313,465.0469 Q1607.6563,465.0469 1608.25,464.7813 Q1608.8438,464.5 1609.4688,463.9219 L1609.4688,466.6406 Z "/><text fill="#000000" font-family="sans-serif" font-size="12" lengthAdjust="spacingAndGlyphs" textLength="67" x="1620.5" y="465.1543">ViewAction</text><!--MD5=[47d553743e6c0f650877be889f88f64f]
class ViewOption--><rect fill="#FEFECE" filter="url(#fguhjz55th8fs)" height="32" id="ViewOption" style="stroke: #A80036; stroke-width: 1.5;" width="101" x="1221.5" y="319"/><ellipse cx="1236.5" cy="335" fill="#ADD1B2" rx="11" ry="11" style="stroke: #A80036; stroke-width: 1.0;"/><path d="M1239.4688,340.6406 Q1238.8906,340.9375 1238.25,341.0781 Q1237.6094,341.2344 1236.9063,341.2344 Q1234.4063,341.2344 1233.0781,339.5938 Q1231.7656,337.9375 1231.7656,334.8125 Q1231.7656,331.6875 1233.0781,330.0313 Q1234.4063,328.375 1236.9063,328.375 Q1237.6094,328.375 1238.25,328.5313 Q1238.9063,328.6875 1239.4688,328.9844 L1239.4688,331.7031 Q1238.8438,331.125 1238.25,330.8594 Q1237.6563,330.5781 1237.0313,330.5781 Q1235.6875,330.5781 1235,331.6563 Q1234.3125,332.7188 1234.3125,334.8125 Q1234.3125,336.9063 1235,337.9844 Q1235.6875,339.0469 1237.0313,339.0469 Q1237.6563,339.0469 1238.25,338.7813 Q1238.8438,338.5 1239.4688,337.9219 L1239.4688,340.6406 Z "/><text fill="#000000" font-family="sans-serif" font-size="12" lengthAdjust="spacingAndGlyphs" textLength="69" x="1250.5" y="339.1543">ViewOption</text><!--MD5=[7ef7df81153a108328eb7a5b9355a136]
class ViewGame--><rect fill="#FEFECE" filter="url(#fguhjz55th8fs)" height="32" id="ViewGame" style="stroke: #A80036; stroke-width: 1.5;" width="96" x="1411" y="210"/><ellipse cx="1426" cy="226" fill="#ADD1B2" rx="11" ry="11" style="stroke: #A80036; stroke-width: 1.0;"/><path d="M1428.9688,231.6406 Q1428.3906,231.9375 1427.75,232.0781 Q1427.1094,232.2344 1426.4063,232.2344 Q1423.9063,232.2344 1422.5781,230.5938 Q1421.2656,228.9375 1421.2656,225.8125 Q1421.2656,222.6875 1422.5781,221.0313 Q1423.9063,219.375 1426.4063,219.375 Q1427.1094,219.375 1427.75,219.5313 Q1428.4063,219.6875 1428.9688,219.9844 L1428.9688,222.7031 Q1428.3438,222.125 1427.75,221.8594 Q1427.1563,221.5781 1426.5313,221.5781 Q1425.1875,221.5781 1424.5,222.6563 Q1423.8125,223.7188 1423.8125,225.8125 Q1423.8125,227.9063 1424.5,228.9844 Q1425.1875,230.0469 1426.5313,230.0469 Q1427.1563,230.0469 1427.75,229.7813 Q1428.3438,229.5 1428.9688,228.9219 L1428.9688,231.6406 Z "/><text fill="#000000" font-family="sans-serif" font-size="12" lengthAdjust="spacingAndGlyphs" textLength="64" x="1440" y="230.1543">ViewGame</text><!--MD5=[fab7056576ea3880aaf36e4ccb94a01c]
class ViewHUD--><rect fill="#FEFECE" filter="url(#fguhjz55th8fs)" height="32" id="ViewHUD" style="stroke: #A80036; stroke-width: 1.5;" width="87" x="1603.5" y="319"/><ellipse cx="1618.5" cy="335" fill="#ADD1B2" rx="11" ry="11" style="stroke: #A80036; stroke-width: 1.0;"/><path d="M1621.4688,340.6406 Q1620.8906,340.9375 1620.25,341.0781 Q1619.6094,341.2344 1618.9063,341.2344 Q1616.4063,341.2344 1615.0781,339.5938 Q1613.7656,337.9375 1613.7656,334.8125 Q1613.7656,331.6875 1615.0781,330.0313 Q1616.4063,328.375 1618.9063,328.375 Q1619.6094,328.375 1620.25,328.5313 Q1620.9063,328.6875 1621.4688,328.9844 L1621.4688,331.7031 Q1620.8438,331.125 1620.25,330.8594 Q1619.6563,330.5781 1619.0313,330.5781 Q1617.6875,330.5781 1617,331.6563 Q1616.3125,332.7188 1616.3125,334.8125 Q1616.3125,336.9063 1617,337.9844 Q1617.6875,339.0469 1619.0313,339.0469 Q1619.6563,339.0469 1620.25,338.7813 Q1620.8438,338.5 1621.4688,337.9219 L1621.4688,340.6406 Z "/><text fill="#000000" font-family="sans-serif" font-size="12" lengthAdjust="spacingAndGlyphs" textLength="55" x="1632.5" y="339.1543">ViewHUD</text><!--MD5=[b4d764e3c38fb7b1af6f2a8a636bdd8c]
class ControllerMain--><rect fill="#FEFECE" filter="url(#fguhjz55th8fs)" height="32" id="ControllerMain" style="stroke: #A80036; stroke-width: 1.5;" width="122" x="224" y="210"/><ellipse cx="239" cy="226" fill="#ADD1B2" rx="11" ry="11" style="stroke: #A80036; stroke-width: 1.0;"/><path d="M241.9688,231.6406 Q241.3906,231.9375 240.75,232.0781 Q240.1094,232.2344 239.4063,232.2344 Q236.9063,232.2344 235.5781,230.5938 Q234.2656,228.9375 234.2656,225.8125 Q234.2656,222.6875 235.5781,221.0313 Q236.9063,219.375 239.4063,219.375 Q240.1094,219.375 240.75,219.5313 Q241.4063,219.6875 241.9688,219.9844 L241.9688,222.7031 Q241.3438,222.125 240.75,221.8594 Q240.1563,221.5781 239.5313,221.5781 Q238.1875,221.5781 237.5,222.6563 Q236.8125,223.7188 236.8125,225.8125 Q236.8125,227.9063 237.5,228.9844 Q238.1875,230.0469 239.5313,230.0469 Q240.1563,230.0469 240.75,229.7813 Q241.3438,229.5 241.9688,228.9219 L241.9688,231.6406 Z "/><text fill="#000000" font-family="sans-serif" font-size="12" lengthAdjust="spacingAndGlyphs" textLength="90" x="253" y="230.1543">ControllerMain</text><!--MD5=[a8dd5522732e18611229f49aa10f22e6]
class ControllerPet--><rect fill="#FEFECE" filter="url(#fguhjz55th8fs)" height="65.6094" id="ControllerPet" style="stroke: #A80036; stroke-width: 1.5;" width="114" x="235" y="428"/><ellipse cx="250" cy="444" fill="#ADD1B2" rx="11" ry="11" style="stroke: #A80036; stroke-width: 1.0;"/><path d="M252.9688,449.6406 Q252.3906,449.9375 251.75,450.0781 Q251.1094,450.2344 250.4063,450.2344 Q247.9063,450.2344 246.5781,448.5938 Q245.2656,446.9375 245.2656,443.8125 Q245.2656,440.6875 246.5781,439.0313 Q247.9063,437.375 250.4063,437.375 Q251.1094,437.375 251.75,437.5313 Q252.4063,437.6875 252.9688,437.9844 L252.9688,440.7031 Q252.3438,440.125 251.75,439.8594 Q251.1563,439.5781 250.5313,439.5781 Q249.1875,439.5781 248.5,440.6563 Q247.8125,441.7188 247.8125,443.8125 Q247.8125,445.9063 248.5,446.9844 Q249.1875,448.0469 250.5313,448.0469 Q251.1563,448.0469 251.75,447.7813 Q252.3438,447.5 252.9688,446.9219 L252.9688,449.6406 Z "/><text fill="#000000" font-family="sans-serif" font-size="12" lengthAdjust="spacingAndGlyphs" textLength="82" x="264" y="448.1543">ControllerPet</text><line style="stroke: #A80036; stroke-width: 1.5;" x1="236" x2="348" y1="460" y2="460"/><rect fill="none" height="6" style="stroke: #C82930; stroke-width: 1.0;" width="6" x="243" y="468"/><text fill="#000000" font-family="sans-serif" font-size="11" lengthAdjust="spacingAndGlyphs" textLength="51" x="255" y="474.2104">ModelPet</text><rect fill="none" height="6" style="stroke: #C82930; stroke-width: 1.0;" width="6" x="243" y="480.8047"/><text fill="#000000" font-family="sans-serif" font-size="11" lengthAdjust="spacingAndGlyphs" textLength="44" x="255" y="487.0151">ViewPet</text><!--MD5=[87caa93e14c110f7c3c35dde97c8934c]
class ControllerRoom--><rect fill="#FEFECE" filter="url(#fguhjz55th8fs)" height="65.6094" id="ControllerRoom" style="stroke: #A80036; stroke-width: 1.5;" width="128" x="384" y="428"/><ellipse cx="399" cy="444" fill="#ADD1B2" rx="11" ry="11" style="stroke: #A80036; stroke-width: 1.0;"/><path d="M401.9688,449.6406 Q401.3906,449.9375 400.75,450.0781 Q400.1094,450.2344 399.4063,450.2344 Q396.9063,450.2344 395.5781,448.5938 Q394.2656,446.9375 394.2656,443.8125 Q394.2656,440.6875 395.5781,439.0313 Q396.9063,437.375 399.4063,437.375 Q400.1094,437.375 400.75,437.5313 Q401.4063,437.6875 401.9688,437.9844 L401.9688,440.7031 Q401.3438,440.125 400.75,439.8594 Q400.1563,439.5781 399.5313,439.5781 Q398.1875,439.5781 397.5,440.6563 Q396.8125,441.7188 396.8125,443.8125 Q396.8125,445.9063 397.5,446.9844 Q398.1875,448.0469 399.5313,448.0469 Q400.1563,448.0469 400.75,447.7813 Q401.3438,447.5 401.9688,446.9219 L401.9688,449.6406 Z "/><text fill="#000000" font-family="sans-serif" font-size="12" lengthAdjust="spacingAndGlyphs" textLength="96" x="413" y="448.1543">ControllerRoom</text><line style="stroke: #A80036; stroke-width: 1.5;" x1="385" x2="511" y1="460" y2="460"/><rect fill="none" height="6" style="stroke: #C82930; stroke-width: 1.0;" width="6" x="392" y="468"/><text fill="#000000" font-family="sans-serif" font-size="11" lengthAdjust="spacingAndGlyphs" textLength="65" x="404" y="474.2104">ModelRoom</text><rect fill="none" height="6" style="stroke: #C82930; stroke-width: 1.0;" width="6" x="392" y="480.8047"/><text fill="#000000" font-family="sans-serif" font-size="11" lengthAdjust="spacingAndGlyphs" textLength="58" x="404" y="487.0151">ViewRoom</text><!--MD5=[a8c4fef36f1be4f4b0b1faa4659e444b]
class ControllerStat--><rect fill="#FEFECE" filter="url(#fguhjz55th8fs)" height="65.6094" id="ControllerStat" style="stroke: #A80036; stroke-width: 1.5;" width="119" x="232.5" y="554"/><ellipse cx="247.5" cy="570" fill="#ADD1B2" rx="11" ry="11" style="stroke: #A80036; stroke-width: 1.0;"/><path d="M250.4688,575.6406 Q249.8906,575.9375 249.25,576.0781 Q248.6094,576.2344 247.9063,576.2344 Q245.4063,576.2344 244.0781,574.5938 Q242.7656,572.9375 242.7656,569.8125 Q242.7656,566.6875 244.0781,565.0313 Q245.4063,563.375 247.9063,563.375 Q248.6094,563.375 249.25,563.5313 Q249.9063,563.6875 250.4688,563.9844 L250.4688,566.7031 Q249.8438,566.125 249.25,565.8594 Q248.6563,565.5781 248.0313,565.5781 Q246.6875,565.5781 246,566.6563 Q245.3125,567.7188 245.3125,569.8125 Q245.3125,571.9063 246,572.9844 Q246.6875,574.0469 248.0313,574.0469 Q248.6563,574.0469 249.25,573.7813 Q249.8438,573.5 250.4688,572.9219 L250.4688,575.6406 Z "/><text fill="#000000" font-family="sans-serif" font-size="12" lengthAdjust="spacingAndGlyphs" textLength="87" x="261.5" y="574.1543">ControllerStat</text><line style="stroke: #A80036; stroke-width: 1.5;" x1="233.5" x2="350.5" y1="586" y2="586"/><rect fill="none" height="6" style="stroke: #C82930; stroke-width: 1.0;" width="6" x="240.5" y="594"/><text fill="#000000" font-family="sans-serif" font-size="11" lengthAdjust="spacingAndGlyphs" textLength="56" x="252.5" y="600.2104">ModelStat</text><rect fill="none" height="6" style="stroke: #C82930; stroke-width: 1.0;" width="6" x="240.5" y="606.8047"/><text fill="#000000" font-family="sans-serif" font-size="11" lengthAdjust="spacingAndGlyphs" textLength="49" x="252.5" y="613.0151">ViewStat</text><!--MD5=[ad9dd60b9e2ea02c403c8610a882571c]
class ControllerMenu--><rect fill="#FEFECE" filter="url(#fguhjz55th8fs)" height="65.6094" id="ControllerMenu" style="stroke: #A80036; stroke-width: 1.5;" width="127" x="221.5" y="302"/><ellipse cx="236.5" cy="318" fill="#ADD1B2" rx="11" ry="11" style="stroke: #A80036; stroke-width: 1.0;"/><path d="M239.4688,323.6406 Q238.8906,323.9375 238.25,324.0781 Q237.6094,324.2344 236.9063,324.2344 Q234.4063,324.2344 233.0781,322.5938 Q231.7656,320.9375 231.7656,317.8125 Q231.7656,314.6875 233.0781,313.0313 Q234.4063,311.375 236.9063,311.375 Q237.6094,311.375 238.25,311.5313 Q238.9063,311.6875 239.4688,311.9844 L239.4688,314.7031 Q238.8438,314.125 238.25,313.8594 Q237.6563,313.5781 237.0313,313.5781 Q235.6875,313.5781 235,314.6563 Q234.3125,315.7188 234.3125,317.8125 Q234.3125,319.9063 235,320.9844 Q235.6875,322.0469 237.0313,322.0469 Q237.6563,322.0469 238.25,321.7813 Q238.8438,321.5 239.4688,320.9219 L239.4688,323.6406 Z "/><text fill="#000000" font-family="sans-serif" font-size="12" lengthAdjust="spacingAndGlyphs" textLength="95" x="250.5" y="322.1543">ControllerMenu</text><line style="stroke: #A80036; stroke-width: 1.5;" x1="222.5" x2="347.5" y1="334" y2="334"/><rect fill="none" height="6" style="stroke: #C82930; stroke-width: 1.0;" width="6" x="229.5" y="342"/><text fill="#000000" font-family="sans-serif" font-size="11" lengthAdjust="spacingAndGlyphs" textLength="70" x="241.5" y="348.2104">ModelOption</text><rect fill="none" height="6" style="stroke: #C82930; stroke-width: 1.0;" width="6" x="229.5" y="354.8047"/><text fill="#000000" font-family="sans-serif" font-size="11" lengthAdjust="spacingAndGlyphs" textLength="56" x="241.5" y="361.0151">ViewMenu</text><!--MD5=[a23319bb6651943ab882a8895f3a4933]
class ControllerGame--><rect fill="#FEFECE" filter="url(#fguhjz55th8fs)" height="65.6094" id="ControllerGame" style="stroke: #A80036; stroke-width: 1.5;" width="129" x="383.5" y="302"/><ellipse cx="398.5" cy="318" fill="#ADD1B2" rx="11" ry="11" style="stroke: #A80036; stroke-width: 1.0;"/><path d="M401.4688,323.6406 Q400.8906,323.9375 400.25,324.0781 Q399.6094,324.2344 398.9063,324.2344 Q396.4063,324.2344 395.0781,322.5938 Q393.7656,320.9375 393.7656,317.8125 Q393.7656,314.6875 395.0781,313.0313 Q396.4063,311.375 398.9063,311.375 Q399.6094,311.375 400.25,311.5313 Q400.9063,311.6875 401.4688,311.9844 L401.4688,314.7031 Q400.8438,314.125 400.25,313.8594 Q399.6563,313.5781 399.0313,313.5781 Q397.6875,313.5781 397,314.6563 Q396.3125,315.7188 396.3125,317.8125 Q396.3125,319.9063 397,320.9844 Q397.6875,322.0469 399.0313,322.0469 Q399.6563,322.0469 400.25,321.7813 Q400.8438,321.5 401.4688,320.9219 L401.4688,323.6406 Z "/><text fill="#000000" font-family="sans-serif" font-size="12" lengthAdjust="spacingAndGlyphs" textLength="97" x="412.5" y="322.1543">ControllerGame</text><line style="stroke: #A80036; stroke-width: 1.5;" x1="384.5" x2="511.5" y1="334" y2="334"/><rect fill="none" height="6" style="stroke: #C82930; stroke-width: 1.0;" width="6" x="391.5" y="342"/><text fill="#000000" font-family="sans-serif" font-size="11" lengthAdjust="spacingAndGlyphs" textLength="67" x="403.5" y="348.2104">ModelGame</text><rect fill="none" height="6" style="stroke: #C82930; stroke-width: 1.0;" width="6" x="391.5" y="354.8047"/><text fill="#000000" font-family="sans-serif" font-size="11" lengthAdjust="spacingAndGlyphs" textLength="60" x="403.5" y="361.0151">ViewGame</text><!--MD5=[335f4d9be48430461c68bf6d6fdba145]
class App--><rect fill="#FEFECE" filter="url(#fguhjz55th8fs)" height="65.6094" id="App" style="stroke: #A80036; stroke-width: 1.5;" width="172" x="123" y="71.5"/><ellipse cx="192.75" cy="87.5" fill="#ADD1B2" rx="11" ry="11" style="stroke: #A80036; stroke-width: 1.0;"/><path d="M195.7188,93.1406 Q195.1406,93.4375 194.5,93.5781 Q193.8594,93.7344 193.1563,93.7344 Q190.6563,93.7344 189.3281,92.0938 Q188.0156,90.4375 188.0156,87.3125 Q188.0156,84.1875 189.3281,82.5313 Q190.6563,80.875 193.1563,80.875 Q193.8594,80.875 194.5,81.0313 Q195.1563,81.1875 195.7188,81.4844 L195.7188,84.2031 Q195.0938,83.625 194.5,83.3594 Q193.9063,83.0781 193.2813,83.0781 Q191.9375,83.0781 191.25,84.1563 Q190.5625,85.2188 190.5625,87.3125 Q190.5625,89.4063 191.25,90.4844 Q191.9375,91.5469 193.2813,91.5469 Q193.9063,91.5469 194.5,91.2813 Q195.0938,91 195.7188,90.4219 L195.7188,93.1406 Z "/><text fill="#000000" font-family="sans-serif" font-size="12" lengthAdjust="spacingAndGlyphs" textLength="24" x="213.25" y="91.6543">App</text><line style="stroke: #A80036; stroke-width: 1.5;" x1="124" x2="294" y1="103.5" y2="103.5"/><ellipse cx="134" cy="114.5" fill="#84BE84" rx="3" ry="3" style="stroke: #038048; stroke-width: 1.0;"/><text fill="#000000" font-family="sans-serif" font-size="11" lengthAdjust="spacingAndGlyphs" text-decoration="underline" textLength="90" x="143" y="117.7104">getLang() : Lang</text><ellipse cx="134" cy="127.3047" fill="#84BE84" rx="3" ry="3" style="stroke: #038048; stroke-width: 1.0;"/><text fill="#000000" font-family="sans-serif" font-size="11" lengthAdjust="spacingAndGlyphs" text-decoration="underline" textLength="146" x="143" y="130.5151">setLang( newLang : Lang )</text><!--MD5=[4f466642c94ef2a73e975d7b90f446a9]
reverse link ModelPet to Robot--><path d="M764.06,260.91 C756.08,280.31 746.46,303.69 740.29,318.7 " fill="none" id="ModelPet&lt;-Robot" style="stroke: #A80036; stroke-width: 1.0; stroke-dasharray: 7.0,7.0;"/><polygon fill="none" points="757.62,258.17,771.7,242.33,770.56,263.49,757.62,258.17" style="stroke: #A80036; stroke-width: 1.0;"/><!--MD5=[74c06c42aaa6c8b448d0338302a44b32]
reverse link ModelPet to Animal--><path d="M796.94,259.68 C808.31,279.31 822.25,303.37 831.13,318.7 " fill="none" id="ModelPet&lt;-Animal" style="stroke: #A80036; stroke-width: 1.0; stroke-dasharray: 7.0,7.0;"/><polygon fill="none" points="790.85,263.14,786.88,242.33,802.97,256.13,790.85,263.14" style="stroke: #A80036; stroke-width: 1.0;"/><!--MD5=[8bab838cf7b2054389e90a3dcb385861]
link ModelPet to ModelStat--><path d="M745.2773,248.7442 C745.2773,248.7442 678.18,293.34 650.66,311.63 " fill="none" id="ModelPet-ModelStat" style="stroke: #A80036; stroke-width: 1.0;"/><polygon fill="#A80036" points="639.61,318.97,649.3193,317.3177,643.7736,316.2016,644.8898,310.6559,639.61,318.97" style="stroke: #A80036; stroke-width: 1.0;"/><line style="stroke: #A80036; stroke-width: 1.0;" x1="643.7736" x2="650.44" y1="316.2016" y2="311.78"/><polygon fill="#FFFFFF" points="755.27,242.1,748.0589,242.0912,745.2773,248.7442,752.4884,248.753,755.27,242.1" style="stroke: #A80036; stroke-width: 1.0;"/><!--MD5=[5971e1841a2b9e394eb43f7dc4831a0e]
link ModelGame to ModelPet--><path d="M778,132.63 C778,132.63 778,177.79 778,196.81 " fill="none" id="ModelGame-ModelPet" style="stroke: #A80036; stroke-width: 1.0;"/><polygon fill="#A80036" points="778,209.99,782,200.99,778,204.99,774,200.99,778,209.99" style="stroke: #A80036; stroke-width: 1.0;"/><line style="stroke: #A80036; stroke-width: 1.0;" x1="778" x2="778" y1="204.99" y2="196.99"/><polygon fill="#FFFFFF" points="778,120.63,774,126.63,778,132.63,782,126.63,778,120.63" style="stroke: #A80036; stroke-width: 1.0;"/><!--MD5=[4de9b067ee7228c78f0bb54c9b6691cd]
link ModelGame to ModelRoom--><path d="M752.6996,128.7447 C752.6996,128.7447 696.57,180.35 673.95,201.15 " fill="none" id="ModelGame-ModelRoom" style="stroke: #A80036; stroke-width: 1.0;"/><polygon fill="#A80036" points="664.33,209.99,673.6626,206.8432,668.0107,206.6059,668.2481,200.954,664.33,209.99" style="stroke: #A80036; stroke-width: 1.0;"/><line style="stroke: #A80036; stroke-width: 1.0;" x1="668.0107" x2="673.9" y1="206.6059" y2="201.19"/><polygon fill="#FFFFFF" points="761.54,120.63,754.4149,121.7405,752.6996,128.7447,759.8247,127.6341,761.54,120.63" style="stroke: #A80036; stroke-width: 1.0;"/><!--MD5=[8bf2486ab1619f20eac8878ac066c89f]
link ViewMain to ViewGame--><path d="M1356.8184,128.8544 C1356.8184,128.8544 1411.42,180.23 1433.4,200.91 " fill="none" id="ViewMain-ViewGame" style="stroke: #A80036; stroke-width: 1.0;"/><polygon fill="#A80036" points="1443.05,209.99,1439.2445,200.906,1439.4116,206.5604,1433.7572,206.7275,1443.05,209.99" style="stroke: #A80036; stroke-width: 1.0;"/><line style="stroke: #A80036; stroke-width: 1.0;" x1="1439.4116" x2="1433.58" y1="206.5604" y2="201.08"/><polygon fill="#FFFFFF" points="1348.08,120.63,1349.7077,127.655,1356.8184,128.8544,1355.1907,121.8294,1348.08,120.63" style="stroke: #A80036; stroke-width: 1.0;"/><!--MD5=[da53a9ba11fef0ffc8dc778c68eb8e27]
link ViewMain to ViewMenu--><path d="M1307.3334,128.8881 C1307.3334,128.8881 1253.21,180.23 1231.4,200.91 " fill="none" id="ViewMain-ViewMenu" style="stroke: #A80036; stroke-width: 1.0;"/><polygon fill="#A80036" points="1221.83,209.99,1231.1126,206.6986,1225.4577,206.5491,1225.6072,200.8943,1221.83,209.99" style="stroke: #A80036; stroke-width: 1.0;"/><line style="stroke: #A80036; stroke-width: 1.0;" x1="1225.4577" x2="1231.26" y1="206.5491" y2="201.04"/><polygon fill="#FFFFFF" points="1316.04,120.63,1308.934,121.8568,1307.3334,128.8881,1314.4394,127.6612,1316.04,120.63" style="stroke: #A80036; stroke-width: 1.0;"/><!--MD5=[be9c79c74cacc2f476e166c2a4f64dcb]
link ViewMenu to ViewOption--><path d="M1221.7558,252.5458 C1221.7558,252.5458 1245.31,290.74 1255.45,307.16 " fill="none" id="ViewMenu-ViewOption" style="stroke: #A80036; stroke-width: 1.0;"/><polygon fill="#A80036" points="1262.56,318.7,1261.2399,308.94,1259.9352,314.4444,1254.4309,313.1397,1262.56,318.7" style="stroke: #A80036; stroke-width: 1.0;"/><line style="stroke: #A80036; stroke-width: 1.0;" x1="1259.9352" x2="1255.735" y1="314.4444" y2="307.63"/><polygon fill="#A80036" points="1215.46,242.33,1215.2026,249.5365,1221.7558,252.5458,1222.0132,245.3393,1215.46,242.33" style="stroke: #A80036; stroke-width: 1.0;"/><!--MD5=[f650e94ab78217e3508de37f16f9547a]
link ViewMenu to ViewCustomPet--><path d="M1165.8201,247.5718 C1165.8201,247.5718 1074.74,294.2 1038.09,312.96 " fill="none" id="ViewMenu-ViewCustomPet" style="stroke: #A80036; stroke-width: 1.0;"/><polygon fill="#A80036" points="1026.35,318.97,1036.1838,318.4261,1030.7999,316.6901,1032.536,311.3062,1026.35,318.97" style="stroke: #A80036; stroke-width: 1.0;"/><line style="stroke: #A80036; stroke-width: 1.0;" x1="1030.7999" x2="1037.925" y1="316.6901" y2="313.05"/><polygon fill="#A80036" points="1176.5,242.1,1169.3361,241.2759,1165.8201,247.5718,1172.984,248.3958,1176.5,242.1" style="stroke: #A80036; stroke-width: 1.0;"/><!--MD5=[6446f8f44f20e882252a98232a1037b1]
link ViewMenu to ViewLoad--><path d="M1190.4657,252.5895 C1190.4657,252.5895 1167.28,290.74 1157.3,307.16 " fill="none" id="ViewMenu-ViewLoad" style="stroke: #A80036; stroke-width: 1.0;"/><polygon fill="#A80036" points="1150.3,318.7,1158.3913,313.0847,1152.8959,314.4267,1151.5539,308.9313,1150.3,318.7" style="stroke: #A80036; stroke-width: 1.0;"/><line style="stroke: #A80036; stroke-width: 1.0;" x1="1152.8959" x2="1157.045" y1="314.4267" y2="307.59"/><polygon fill="#A80036" points="1196.69,242.33,1190.158,245.385,1190.4657,252.5895,1196.9977,249.5345,1196.69,242.33" style="stroke: #A80036; stroke-width: 1.0;"/><!--MD5=[9168ed23fe193ebb26894be34fee4a0e]
link ViewGame to ViewHUD--><path d="M1495.9646,248.0437 C1495.9646,248.0437 1576.35,293.79 1608.88,312.3 " fill="none" id="ViewGame-ViewHUD" style="stroke: #A80036; stroke-width: 1.0;"/><polygon fill="#A80036" points="1620.6,318.97,1614.7552,311.0429,1616.2541,316.4976,1610.7994,317.9964,1620.6,318.97" style="stroke: #A80036; stroke-width: 1.0;"/><line style="stroke: #A80036; stroke-width: 1.0;" x1="1616.2541" x2="1609.3" y1="316.4976" y2="312.545"/><polygon fill="#A80036" points="1485.54,242.1,1488.7711,248.5467,1495.9646,248.0437,1492.7335,241.597,1485.54,242.1" style="stroke: #A80036; stroke-width: 1.0;"/><!--MD5=[09dd6a64c3d68c174e3adb5d94daf6ef]
link ViewHUD to ViewAction--><path d="M1645.6798,363.186 C1645.6798,363.186 1643.36,411.33 1642.38,431.41 " fill="none" id="ViewHUD-ViewAction" style="stroke: #A80036; stroke-width: 1.0;"/><polygon fill="#A80036" points="1641.74,444.67,1646.1709,435.8742,1641.982,439.6759,1638.1803,435.4869,1641.74,444.67" style="stroke: #A80036; stroke-width: 1.0;"/><line style="stroke: #A80036; stroke-width: 1.0;" x1="1641.982" x2="1642.37" y1="439.6759" y2="431.69"/><polygon fill="#A80036" points="1646.26,351.2,1641.9746,356.9996,1645.6798,363.186,1649.9652,357.3864,1646.26,351.2" style="stroke: #A80036; stroke-width: 1.0;"/><!--MD5=[2c621505a26fa19aa311a2aae8df3665]
link ViewHUD to ViewStat--><path d="M1621.7615,359.3492 C1621.7615,359.3492 1562.9,413.82 1539.27,435.69 " fill="none" id="ViewHUD-ViewStat" style="stroke: #A80036; stroke-width: 1.0;"/><polygon fill="#A80036" points="1529.57,444.67,1538.8928,441.4943,1533.2402,441.2745,1533.46,435.6219,1529.57,444.67" style="stroke: #A80036; stroke-width: 1.0;"/><line style="stroke: #A80036; stroke-width: 1.0;" x1="1533.2402" x2="1539.11" y1="441.2745" y2="435.84"/><polygon fill="#FFFFFF" points="1630.57,351.2,1623.4493,352.3384,1621.7615,359.3492,1628.8821,358.2108,1630.57,351.2" style="stroke: #A80036; stroke-width: 1.0;"/><!--MD5=[72c63d8179027bd176e1b9e790de2564]
link ViewGame to ViewRoom--><path d="M1473.8904,252.7163 C1473.8904,252.7163 1496.02,290.88 1505.48,307.22 " fill="none" id="ViewGame-ViewRoom" style="stroke: #A80036; stroke-width: 1.0;"/><polygon fill="#A80036" points="1512.13,318.7,1511.0789,308.9074,1509.6233,314.3737,1504.1569,312.9181,1512.13,318.7" style="stroke: #A80036; stroke-width: 1.0;"/><line style="stroke: #A80036; stroke-width: 1.0;" x1="1509.6233" x2="1505.615" y1="314.3737" y2="307.45"/><polygon fill="#FFFFFF" points="1467.88,242.33,1467.4231,249.5266,1473.8904,252.7163,1474.3473,245.5197,1467.88,242.33" style="stroke: #A80036; stroke-width: 1.0;"/><!--MD5=[1982cb46ecac96c4096775a36a11f323]
link ViewGame to ViewPet--><path d="M1444.3106,252.7514 C1444.3106,252.7514 1422.58,290.88 1413.27,307.22 " fill="none" id="ViewGame-ViewPet" style="stroke: #A80036; stroke-width: 1.0;"/><polygon fill="#A80036" points="1406.72,318.7,1414.6558,312.8671,1409.1989,314.3578,1407.7083,308.9009,1406.72,318.7" style="stroke: #A80036; stroke-width: 1.0;"/><line style="stroke: #A80036; stroke-width: 1.0;" x1="1409.1989" x2="1413.16" y1="314.3578" y2="307.405"/><polygon fill="#FFFFFF" points="1450.26,242.33,1443.8115,245.5575,1444.3106,252.7514,1450.7591,249.5238,1450.26,242.33" style="stroke: #A80036; stroke-width: 1.0;"/><!--MD5=[b1ef4671a1757d589d06dc8a838d028a]
link ControllerPet to ControllerStat--><path d="M292,506.26 C292,506.26 292,529.79 292,540.65 " fill="none" id="ControllerPet-ControllerStat" style="stroke: #A80036; stroke-width: 1.0;"/><polygon fill="#A80036" points="292,553.91,296,544.91,292,548.91,288,544.91,292,553.91" style="stroke: #A80036; stroke-width: 1.0;"/><line style="stroke: #A80036; stroke-width: 1.0;" x1="292" x2="292" y1="548.91" y2="540.91"/><polygon fill="#A80036" points="292,494.26,288,500.26,292,506.26,296,500.26,292,494.26" style="stroke: #A80036; stroke-width: 1.0;"/><!--MD5=[efe405b14041d5631e08871e4931eb2f]
link ControllerGame to ControllerPet--><path d="M398.0213,375.7209 C398.0213,375.7209 360.27,405.73 342.89,419.55 " fill="none" id="ControllerGame-ControllerPet" style="stroke: #A80036; stroke-width: 1.0;"/><polygon fill="#A80036" points="332.38,427.91,341.916,425.4472,336.2961,424.8013,336.942,419.1814,332.38,427.91" style="stroke: #A80036; stroke-width: 1.0;"/><line style="stroke: #A80036; stroke-width: 1.0;" x1="336.2961" x2="342.55" y1="424.8013" y2="419.815"/><polygon fill="#A80036" points="407.42,368.26,400.2337,368.8576,398.0213,375.7209,405.2076,375.1233,407.42,368.26" style="stroke: #A80036; stroke-width: 1.0;"/><!--MD5=[ddcc429a3235b8516599080435159d34]
link ControllerGame to ControllerRoom--><path d="M448,380.26 C448,380.26 448,403.79 448,414.65 " fill="none" id="ControllerGame-ControllerRoom" style="stroke: #A80036; stroke-width: 1.0;"/><polygon fill="#A80036" points="448,427.91,452,418.91,448,422.91,444,418.91,448,427.91" style="stroke: #A80036; stroke-width: 1.0;"/><line style="stroke: #A80036; stroke-width: 1.0;" x1="448" x2="448" y1="422.91" y2="414.91"/><polygon fill="#A80036" points="448,368.26,444,374.26,448,380.26,452,374.26,448,368.26" style="stroke: #A80036; stroke-width: 1.0;"/><!--MD5=[9929c6352887e0a164ebebea74672e21]
link ControllerMain to ControllerGame--><path d="M318.045,248.6801 C318.045,248.6801 364.58,279.24 387.79,294.47 " fill="none" id="ControllerMain-ControllerGame" style="stroke: #A80036; stroke-width: 1.0;"/><polygon fill="#A80036" points="398.95,301.8,393.6247,293.515,394.7713,299.0544,389.2318,300.201,398.95,301.8" style="stroke: #A80036; stroke-width: 1.0;"/><line style="stroke: #A80036; stroke-width: 1.0;" x1="394.7713" x2="388.08" y1="299.0544" y2="294.665"/><polygon fill="#A80036" points="308.01,242.1,310.8341,248.7351,318.045,248.6801,315.2209,242.0451,308.01,242.1" style="stroke: #A80036; stroke-width: 1.0;"/><!--MD5=[db94271f82011bff79064c77ddb1b261]
link ControllerMain to ControllerMenu--><path d="M285,254.33 C285,254.33 285,277.33 285,288.59 " fill="none" id="ControllerMain-ControllerMenu" style="stroke: #A80036; stroke-width: 1.0;"/><polygon fill="#A80036" points="285,301.94,289,292.94,285,296.94,281,292.94,285,301.94" style="stroke: #A80036; stroke-width: 1.0;"/><line style="stroke: #A80036; stroke-width: 1.0;" x1="285" x2="285" y1="296.94" y2="288.94"/><polygon fill="#A80036" points="285,242.33,281,248.33,285,254.33,289,248.33,285,242.33" style="stroke: #A80036; stroke-width: 1.0;"/><!--MD5=[7a711561beb8c4cdf7234f3728bff315]
reverse link Lang to Fr--><path d="M111.82,259.07 C98.17,278.81 81.29,303.21 70.58,318.7 " fill="none" id="Lang&lt;-Fr" style="stroke: #A80036; stroke-width: 1.0; stroke-dasharray: 7.0,7.0;"/><polygon fill="none" points="106.26,254.8,123.4,242.33,117.78,262.76,106.26,254.8" style="stroke: #A80036; stroke-width: 1.0;"/><!--MD5=[19ab5e507920a255ac7de618dae57c4a]
reverse link Lang to En--><path d="M136.32,262.45 C137.57,281.54 139.04,304.09 140,318.7 " fill="none" id="Lang&lt;-En" style="stroke: #A80036; stroke-width: 1.0; stroke-dasharray: 7.0,7.0;"/><polygon fill="none" points="129.32,262.74,135,242.33,143.29,261.83,129.32,262.74" style="stroke: #A80036; stroke-width: 1.0;"/><!--MD5=[44ec7255984f9518cac8781f20697b6b]
link App to Lang--><path d="M182.5234,147.6856 C182.5234,147.6856 159.69,184.07 150.49,198.73 " fill="none" id="App-Lang" style="stroke: #A80036; stroke-width: 1.0;"/><polygon fill="#A80036" points="143.43,209.97,151.601,204.4713,146.0869,205.7343,144.8239,200.2203,143.43,209.97" style="stroke: #A80036; stroke-width: 1.0;"/><line style="stroke: #A80036; stroke-width: 1.0;" x1="146.0869" x2="150.34" y1="205.7343" y2="198.965"/><polygon fill="#FFFFFF" points="188.9,137.52,182.3232,140.4773,182.5234,147.6856,189.1002,144.7283,188.9,137.52" style="stroke: #A80036; stroke-width: 1.0;"/><!--MD5=[dd57218bcfe32411ddd60f0a689a21ae]
link App to ControllerMain--><path d="M235.8151,147.6423 C235.8151,147.6423 258.97,184.07 268.29,198.73 " fill="none" id="App-ControllerMain" style="stroke: #A80036; stroke-width: 1.0;"/><polygon fill="#A80036" points="275.44,209.97,273.9803,200.2299,272.7546,205.7524,267.2321,204.5266,275.44,209.97" style="stroke: #A80036; stroke-width: 1.0;"/><line style="stroke: #A80036; stroke-width: 1.0;" x1="272.7546" x2="268.47" y1="205.7524" y2="199.005"/><polygon fill="#A80036" points="229.37,137.52,229.2184,144.7295,235.8151,147.6423,235.9666,140.4328,229.37,137.52" style="stroke: #A80036; stroke-width: 1.0;"/><!--MD5=[d6914a5d1f89e1acb0c212f5ea36d668]
@startuml

hide empty attributes
hide empty methods

class App {
	+ {static} getLang() : Lang
	+ {static} setLang( newLang : Lang )
}


package lang {
	interface Lang
	class Fr
	Class En
}

package model {
    class ModelRoom
    class ModelGame
    class ModelStat
    class ModelOption {
    	-language : string
	    -volume : double
	    -h_window : int
	    -w_window : int
    }
    interface ModelPet
    class Robot
    class Animal
    
    ModelPet <|.. Robot
    ModelPet <|.. Animal
    ModelPet o- -> ModelStat
    ModelGame o- -> ModelPet
    ModelGame o- -> ModelRoom
}

package view {
	class ViewMain
    class ViewPet
    class ViewRoom
    class ViewStat
    class ViewMenu
    class ViewCustomPet
    class ViewLoad
    class ViewAction
    class ViewOption
    class ViewGame
    class ViewHUD
    
    ViewMain o- -> ViewGame
    ViewMain o- -> ViewMenu
    ViewMenu *- -> ViewOption
    ViewMenu *- -> ViewCustomPet
    ViewMenu *- -> ViewLoad
    ViewGame *- -> ViewHUD
    ViewHUD  *- -> ViewAction
    ViewHUD  o- -> ViewStat
    ViewGame o- -> ViewRoom
    ViewGame o- -> ViewPet
}

package Controller {
    class ControllerMain
    
    class ControllerPet {
        -ModelPet
        -ViewPet
    }
    class ControllerRoom {
        -ModelRoom
        -ViewRoom
    }
    class ControllerStat {
        -ModelStat
        -ViewStat
    }
    class ControllerMenu {
        -ModelOption
        -ViewMenu
    }
    class ControllerGame {
        -ModelGame
        -ViewGame
    }
    
    ControllerPet *- -> ControllerStat
    ControllerGame *- -> ControllerPet
    ControllerGame *- -> ControllerRoom
    ControllerMain *- -> ControllerGame 
    ControllerMain *- -> ControllerMenu
    
}

Lang <|.. Fr
Lang <|.. En
App o- -> Lang
App *- -> ControllerMain

@enduml

PlantUML version 1.2020.02(Sun Mar 01 11:22:07 CET 2020)
(GPL source distribution)
Java Runtime: OpenJDK Runtime Environment
JVM: OpenJDK 64-Bit Server VM
Java Version: 17.0.5+8-Debian-2
Operating System: Linux
Default Encoding: UTF-8
Language: fr
Country: FR
--></g></svg>