<?xml version="1.0" encoding="UTF-8" standalone="no"?><svg xmlns="http://www.w3.org/2000/svg" xmlns:xlink="http://www.w3.org/1999/xlink" contentScriptType="application/ecmascript" contentStyleType="text/css" height="648px" preserveAspectRatio="none" style="width:1690px;height:648px;" version="1.1" viewBox="0 0 1690 648" width="1690px" zoomAndPan="magnify"><defs><filter height="300%" id="ff5v2aepgelfn" width="300%" x="-1" y="-1"><feGaussianBlur result="blurOut" stdDeviation="2.0"/><feColorMatrix in="blurOut" result="blurOut2" type="matrix" values="0 0 0 0 0 0 0 0 0 0 0 0 0 0 0 0 0 0 .4 0"/><feOffset dx="4.0" dy="4.0" in="blurOut2" result="blurOut3"/><feBlend in="SourceGraphic" in2="blurOut3" mode="normal"/></filter></defs><g><!--MD5=[5d4cd377749310b66bf14896f5cd8d9b]
cluster model--><polygon fill="#FFFFFF" filter="url(#ff5v2aepgelfn)" points="514,24,568,24,575,46.2969,854,46.2969,854,367,514,367,514,24" style="stroke: #000000; stroke-width: 1.5;"/><line style="stroke: #000000; stroke-width: 1.5;" x1="514" x2="575" y1="46.2969" y2="46.2969"/><text fill="#000000" font-family="sans-serif" font-size="14" font-weight="bold" lengthAdjust="spacingAndGlyphs" textLength="48" x="518" y="38.9951">model</text><!--MD5=[86cbce8df1eb9d604fbbb2fa357940f8]
cluster view--><polygon fill="#FFFFFF" filter="url(#ff5v2aepgelfn)" points="878,53.5,921,53.5,928,75.7969,1668,75.7969,1668,493,878,493,878,53.5" style="stroke: #000000; stroke-width: 1.5;"/><line style="stroke: #000000; stroke-width: 1.5;" x1="878" x2="928" y1="75.7969" y2="75.7969"/><text fill="#000000" font-family="sans-serif" font-size="14" font-weight="bold" lengthAdjust="spacingAndGlyphs" textLength="37" x="882" y="68.4951">view</text><!--MD5=[1f2cfc53d9d308f53762fd0fcbaa4873]
cluster Controller--><polygon fill="#FFFFFF" filter="url(#ff5v2aepgelfn)" points="22,175,107,175,114,197.2969,346,197.2969,346,636,22,636,22,175" style="stroke: #000000; stroke-width: 1.5;"/><line style="stroke: #000000; stroke-width: 1.5;" x1="22" x2="114" y1="197.2969" y2="197.2969"/><text fill="#000000" font-family="sans-serif" font-size="14" font-weight="bold" lengthAdjust="spacingAndGlyphs" textLength="79" x="26" y="189.9951">Controller</text><!--MD5=[ce588b4fa91533db47d899c6e7055886]
class ModelRoom--><rect fill="#FEFECE" filter="url(#ff5v2aepgelfn)" height="32" id="ModelRoom" style="stroke: #A80036; stroke-width: 1.5;" width="104" x="557" y="210"/><ellipse cx="572" cy="226" fill="#ADD1B2" rx="11" ry="11" style="stroke: #A80036; stroke-width: 1.0;"/><path d="M574.9688,231.6406 Q574.3906,231.9375 573.75,232.0781 Q573.1094,232.2344 572.4063,232.2344 Q569.9063,232.2344 568.5781,230.5938 Q567.2656,228.9375 567.2656,225.8125 Q567.2656,222.6875 568.5781,221.0313 Q569.9063,219.375 572.4063,219.375 Q573.1094,219.375 573.75,219.5313 Q574.4063,219.6875 574.9688,219.9844 L574.9688,222.7031 Q574.3438,222.125 573.75,221.8594 Q573.1563,221.5781 572.5313,221.5781 Q571.1875,221.5781 570.5,222.6563 Q569.8125,223.7188 569.8125,225.8125 Q569.8125,227.9063 570.5,228.9844 Q571.1875,230.0469 572.5313,230.0469 Q573.1563,230.0469 573.75,229.7813 Q574.3438,229.5 574.9688,228.9219 L574.9688,231.6406 Z "/><text fill="#000000" font-family="sans-serif" font-size="12" lengthAdjust="spacingAndGlyphs" textLength="72" x="586" y="230.1543">ModelRoom</text><!--MD5=[5ef06c8862a4439f35d8b1de5f55aae6]
class ModelGame--><rect fill="#FEFECE" filter="url(#ff5v2aepgelfn)" height="32" id="ModelGame" style="stroke: #A80036; stroke-width: 1.5;" width="105" x="686.5" y="88.5"/><ellipse cx="701.5" cy="104.5" fill="#ADD1B2" rx="11" ry="11" style="stroke: #A80036; stroke-width: 1.0;"/><path d="M704.4688,110.1406 Q703.8906,110.4375 703.25,110.5781 Q702.6094,110.7344 701.9063,110.7344 Q699.4063,110.7344 698.0781,109.0938 Q696.7656,107.4375 696.7656,104.3125 Q696.7656,101.1875 698.0781,99.5313 Q699.4063,97.875 701.9063,97.875 Q702.6094,97.875 703.25,98.0313 Q703.9063,98.1875 704.4688,98.4844 L704.4688,101.2031 Q703.8438,100.625 703.25,100.3594 Q702.6563,100.0781 702.0313,100.0781 Q700.6875,100.0781 700,101.1563 Q699.3125,102.2188 699.3125,104.3125 Q699.3125,106.4063 700,107.4844 Q700.6875,108.5469 702.0313,108.5469 Q702.6563,108.5469 703.25,108.2813 Q703.8438,108 704.4688,107.4219 L704.4688,110.1406 Z "/><text fill="#000000" font-family="sans-serif" font-size="12" lengthAdjust="spacingAndGlyphs" textLength="73" x="715.5" y="108.6543">ModelGame</text><!--MD5=[93eb20994f674771d0d73131508a8777]
class ModelStat--><rect fill="#FEFECE" filter="url(#ff5v2aepgelfn)" height="32" id="ModelStat" style="stroke: #A80036; stroke-width: 1.5;" width="95" x="530.5" y="319"/><ellipse cx="545.5" cy="335" fill="#ADD1B2" rx="11" ry="11" style="stroke: #A80036; stroke-width: 1.0;"/><path d="M548.4688,340.6406 Q547.8906,340.9375 547.25,341.0781 Q546.6094,341.2344 545.9063,341.2344 Q543.4063,341.2344 542.0781,339.5938 Q540.7656,337.9375 540.7656,334.8125 Q540.7656,331.6875 542.0781,330.0313 Q543.4063,328.375 545.9063,328.375 Q546.6094,328.375 547.25,328.5313 Q547.9063,328.6875 548.4688,328.9844 L548.4688,331.7031 Q547.8438,331.125 547.25,330.8594 Q546.6563,330.5781 546.0313,330.5781 Q544.6875,330.5781 544,331.6563 Q543.3125,332.7188 543.3125,334.8125 Q543.3125,336.9063 544,337.9844 Q544.6875,339.0469 546.0313,339.0469 Q546.6563,339.0469 547.25,338.7813 Q547.8438,338.5 548.4688,337.9219 L548.4688,340.6406 Z "/><text fill="#000000" font-family="sans-serif" font-size="12" lengthAdjust="spacingAndGlyphs" textLength="63" x="559.5" y="339.1543">ModelStat</text><!--MD5=[9a411119b15aaa1f323289dd6a5d4481]
class ModelOption--><rect fill="#FEFECE" filter="url(#ff5v2aepgelfn)" height="91.2188" id="ModelOption" style="stroke: #A80036; stroke-width: 1.5;" width="121" x="530.5" y="59"/><ellipse cx="550.45" cy="75" fill="#ADD1B2" rx="11" ry="11" style="stroke: #A80036; stroke-width: 1.0;"/><path d="M553.4188,80.6406 Q552.8406,80.9375 552.2,81.0781 Q551.5594,81.2344 550.8563,81.2344 Q548.3563,81.2344 547.0281,79.5938 Q545.7156,77.9375 545.7156,74.8125 Q545.7156,71.6875 547.0281,70.0313 Q548.3563,68.375 550.8563,68.375 Q551.5594,68.375 552.2,68.5313 Q552.8563,68.6875 553.4188,68.9844 L553.4188,71.7031 Q552.7938,71.125 552.2,70.8594 Q551.6063,70.5781 550.9813,70.5781 Q549.6375,70.5781 548.95,71.6563 Q548.2625,72.7188 548.2625,74.8125 Q548.2625,76.9063 548.95,77.9844 Q549.6375,79.0469 550.9813,79.0469 Q551.6063,79.0469 552.2,78.7813 Q552.7938,78.5 553.4188,77.9219 L553.4188,80.6406 Z "/><text fill="#000000" font-family="sans-serif" font-size="12" lengthAdjust="spacingAndGlyphs" textLength="78" x="565.55" y="79.1543">ModelOption</text><line style="stroke: #A80036; stroke-width: 1.5;" x1="531.5" x2="650.5" y1="91" y2="91"/><rect fill="none" height="6" style="stroke: #C82930; stroke-width: 1.0;" width="6" x="538.5" y="99"/><text fill="#000000" font-family="sans-serif" font-size="11" lengthAdjust="spacingAndGlyphs" textLength="95" x="550.5" y="105.2104">language : string</text><rect fill="none" height="6" style="stroke: #C82930; stroke-width: 1.0;" width="6" x="538.5" y="111.8047"/><text fill="#000000" font-family="sans-serif" font-size="11" lengthAdjust="spacingAndGlyphs" textLength="89" x="550.5" y="118.0151">volume : double</text><rect fill="none" height="6" style="stroke: #C82930; stroke-width: 1.0;" width="6" x="538.5" y="124.6094"/><text fill="#000000" font-family="sans-serif" font-size="11" lengthAdjust="spacingAndGlyphs" textLength="79" x="550.5" y="130.8198">h_window : int</text><rect fill="none" height="6" style="stroke: #C82930; stroke-width: 1.0;" width="6" x="538.5" y="137.4141"/><text fill="#000000" font-family="sans-serif" font-size="11" lengthAdjust="spacingAndGlyphs" textLength="81" x="550.5" y="143.6245">w_window : int</text><!--MD5=[42b6c9b95235c21ed83560c01266501d]
class ModelPet--><rect fill="#FEFECE" filter="url(#ff5v2aepgelfn)" height="32" id="ModelPet" style="stroke: #A80036; stroke-width: 1.5;" width="86" x="696" y="210"/><ellipse cx="711" cy="226" fill="#B4A7E5" rx="11" ry="11" style="stroke: #A80036; stroke-width: 1.0;"/><path d="M706.9219,221.7656 L706.9219,219.6094 L714.3125,219.6094 L714.3125,221.7656 L711.8438,221.7656 L711.8438,229.8438 L714.3125,229.8438 L714.3125,232 L706.9219,232 L706.9219,229.8438 L709.3906,229.8438 L709.3906,221.7656 L706.9219,221.7656 Z "/><text fill="#000000" font-family="sans-serif" font-size="12" font-style="italic" lengthAdjust="spacingAndGlyphs" textLength="54" x="725" y="230.1543">ModelPet</text><!--MD5=[60fb4f72b7635aa97affd2efc062a79f]
class Robot--><rect fill="#FEFECE" filter="url(#ff5v2aepgelfn)" height="32" id="Robot" style="stroke: #A80036; stroke-width: 1.5;" width="69" x="660.5" y="319"/><ellipse cx="675.5" cy="335" fill="#ADD1B2" rx="11" ry="11" style="stroke: #A80036; stroke-width: 1.0;"/><path d="M678.4688,340.6406 Q677.8906,340.9375 677.25,341.0781 Q676.6094,341.2344 675.9063,341.2344 Q673.4063,341.2344 672.0781,339.5938 Q670.7656,337.9375 670.7656,334.8125 Q670.7656,331.6875 672.0781,330.0313 Q673.4063,328.375 675.9063,328.375 Q676.6094,328.375 677.25,328.5313 Q677.9063,328.6875 678.4688,328.9844 L678.4688,331.7031 Q677.8438,331.125 677.25,330.8594 Q676.6563,330.5781 676.0313,330.5781 Q674.6875,330.5781 674,331.6563 Q673.3125,332.7188 673.3125,334.8125 Q673.3125,336.9063 674,337.9844 Q674.6875,339.0469 676.0313,339.0469 Q676.6563,339.0469 677.25,338.7813 Q677.8438,338.5 678.4688,337.9219 L678.4688,340.6406 Z "/><text fill="#000000" font-family="sans-serif" font-size="12" lengthAdjust="spacingAndGlyphs" textLength="37" x="689.5" y="339.1543">Robot</text><!--MD5=[7fd4401f5c5cb0e3d029c879cad30c04]
class Animal--><rect fill="#FEFECE" filter="url(#ff5v2aepgelfn)" height="32" id="Animal" style="stroke: #A80036; stroke-width: 1.5;" width="73" x="764.5" y="319"/><ellipse cx="779.5" cy="335" fill="#ADD1B2" rx="11" ry="11" style="stroke: #A80036; stroke-width: 1.0;"/><path d="M782.4688,340.6406 Q781.8906,340.9375 781.25,341.0781 Q780.6094,341.2344 779.9063,341.2344 Q777.4063,341.2344 776.0781,339.5938 Q774.7656,337.9375 774.7656,334.8125 Q774.7656,331.6875 776.0781,330.0313 Q777.4063,328.375 779.9063,328.375 Q780.6094,328.375 781.25,328.5313 Q781.9063,328.6875 782.4688,328.9844 L782.4688,331.7031 Q781.8438,331.125 781.25,330.8594 Q780.6563,330.5781 780.0313,330.5781 Q778.6875,330.5781 778,331.6563 Q777.3125,332.7188 777.3125,334.8125 Q777.3125,336.9063 778,337.9844 Q778.6875,339.0469 780.0313,339.0469 Q780.6563,339.0469 781.25,338.7813 Q781.8438,338.5 782.4688,337.9219 L782.4688,340.6406 Z "/><text fill="#000000" font-family="sans-serif" font-size="12" lengthAdjust="spacingAndGlyphs" textLength="41" x="793.5" y="339.1543">Animal</text><!--MD5=[2369c9863c53bf1001e6873222dfb3fe]
class ViewMain--><rect fill="#FEFECE" filter="url(#ff5v2aepgelfn)" height="32" id="ViewMain" style="stroke: #A80036; stroke-width: 1.5;" width="89" x="1248.5" y="88.5"/><ellipse cx="1263.5" cy="104.5" fill="#ADD1B2" rx="11" ry="11" style="stroke: #A80036; stroke-width: 1.0;"/><path d="M1266.4688,110.1406 Q1265.8906,110.4375 1265.25,110.5781 Q1264.6094,110.7344 1263.9063,110.7344 Q1261.4063,110.7344 1260.0781,109.0938 Q1258.7656,107.4375 1258.7656,104.3125 Q1258.7656,101.1875 1260.0781,99.5313 Q1261.4063,97.875 1263.9063,97.875 Q1264.6094,97.875 1265.25,98.0313 Q1265.9063,98.1875 1266.4688,98.4844 L1266.4688,101.2031 Q1265.8438,100.625 1265.25,100.3594 Q1264.6563,100.0781 1264.0313,100.0781 Q1262.6875,100.0781 1262,101.1563 Q1261.3125,102.2188 1261.3125,104.3125 Q1261.3125,106.4063 1262,107.4844 Q1262.6875,108.5469 1264.0313,108.5469 Q1264.6563,108.5469 1265.25,108.2813 Q1265.8438,108 1266.4688,107.4219 L1266.4688,110.1406 Z "/><text fill="#000000" font-family="sans-serif" font-size="12" lengthAdjust="spacingAndGlyphs" textLength="57" x="1277.5" y="108.6543">ViewMain</text><!--MD5=[66004aa1b2b41dfc3553a089f11ca636]
class ViewPet--><rect fill="#FEFECE" filter="url(#ff5v2aepgelfn)" height="32" id="ViewPet" style="stroke: #A80036; stroke-width: 1.5;" width="81" x="1318.5" y="319"/><ellipse cx="1333.5" cy="335" fill="#ADD1B2" rx="11" ry="11" style="stroke: #A80036; stroke-width: 1.0;"/><path d="M1336.4688,340.6406 Q1335.8906,340.9375 1335.25,341.0781 Q1334.6094,341.2344 1333.9063,341.2344 Q1331.4063,341.2344 1330.0781,339.5938 Q1328.7656,337.9375 1328.7656,334.8125 Q1328.7656,331.6875 1330.0781,330.0313 Q1331.4063,328.375 1333.9063,328.375 Q1334.6094,328.375 1335.25,328.5313 Q1335.9063,328.6875 1336.4688,328.9844 L1336.4688,331.7031 Q1335.8438,331.125 1335.25,330.8594 Q1334.6563,330.5781 1334.0313,330.5781 Q1332.6875,330.5781 1332,331.6563 Q1331.3125,332.7188 1331.3125,334.8125 Q1331.3125,336.9063 1332,337.9844 Q1332.6875,339.0469 1334.0313,339.0469 Q1334.6563,339.0469 1335.25,338.7813 Q1335.8438,338.5 1336.4688,337.9219 L1336.4688,340.6406 Z "/><text fill="#000000" font-family="sans-serif" font-size="12" lengthAdjust="spacingAndGlyphs" textLength="49" x="1347.5" y="339.1543">ViewPet</text><!--MD5=[27e4653765d9e56603ae0db51ef372f2]
class ViewRoom--><rect fill="#FEFECE" filter="url(#ff5v2aepgelfn)" height="32" id="ViewRoom" style="stroke: #A80036; stroke-width: 1.5;" width="95" x="1434.5" y="319"/><ellipse cx="1449.5" cy="335" fill="#ADD1B2" rx="11" ry="11" style="stroke: #A80036; stroke-width: 1.0;"/><path d="M1452.4688,340.6406 Q1451.8906,340.9375 1451.25,341.0781 Q1450.6094,341.2344 1449.9063,341.2344 Q1447.4063,341.2344 1446.0781,339.5938 Q1444.7656,337.9375 1444.7656,334.8125 Q1444.7656,331.6875 1446.0781,330.0313 Q1447.4063,328.375 1449.9063,328.375 Q1450.6094,328.375 1451.25,328.5313 Q1451.9063,328.6875 1452.4688,328.9844 L1452.4688,331.7031 Q1451.8438,331.125 1451.25,330.8594 Q1450.6563,330.5781 1450.0313,330.5781 Q1448.6875,330.5781 1448,331.6563 Q1447.3125,332.7188 1447.3125,334.8125 Q1447.3125,336.9063 1448,337.9844 Q1448.6875,339.0469 1450.0313,339.0469 Q1450.6563,339.0469 1451.25,338.7813 Q1451.8438,338.5 1452.4688,337.9219 L1452.4688,340.6406 Z "/><text fill="#000000" font-family="sans-serif" font-size="12" lengthAdjust="spacingAndGlyphs" textLength="63" x="1463.5" y="339.1543">ViewRoom</text><!--MD5=[fe60a39180a13549a61d1a377547b35e]
class ViewStat--><rect fill="#FEFECE" filter="url(#ff5v2aepgelfn)" height="32" id="ViewStat" style="stroke: #A80036; stroke-width: 1.5;" width="86" x="1431" y="445"/><ellipse cx="1446" cy="461" fill="#ADD1B2" rx="11" ry="11" style="stroke: #A80036; stroke-width: 1.0;"/><path d="M1448.9688,466.6406 Q1448.3906,466.9375 1447.75,467.0781 Q1447.1094,467.2344 1446.4063,467.2344 Q1443.9063,467.2344 1442.5781,465.5938 Q1441.2656,463.9375 1441.2656,460.8125 Q1441.2656,457.6875 1442.5781,456.0313 Q1443.9063,454.375 1446.4063,454.375 Q1447.1094,454.375 1447.75,454.5313 Q1448.4063,454.6875 1448.9688,454.9844 L1448.9688,457.7031 Q1448.3438,457.125 1447.75,456.8594 Q1447.1563,456.5781 1446.5313,456.5781 Q1445.1875,456.5781 1444.5,457.6563 Q1443.8125,458.7188 1443.8125,460.8125 Q1443.8125,462.9063 1444.5,463.9844 Q1445.1875,465.0469 1446.5313,465.0469 Q1447.1563,465.0469 1447.75,464.7813 Q1448.3438,464.5 1448.9688,463.9219 L1448.9688,466.6406 Z "/><text fill="#000000" font-family="sans-serif" font-size="12" lengthAdjust="spacingAndGlyphs" textLength="54" x="1460" y="465.1543">ViewStat</text><!--MD5=[9e3e829b1d67d6c705c38104337e7cce]
class ViewMenu--><rect fill="#FEFECE" filter="url(#ff5v2aepgelfn)" height="32" id="ViewMenu" style="stroke: #A80036; stroke-width: 1.5;" width="94" x="1120" y="210"/><ellipse cx="1135" cy="226" fill="#ADD1B2" rx="11" ry="11" style="stroke: #A80036; stroke-width: 1.0;"/><path d="M1137.9688,231.6406 Q1137.3906,231.9375 1136.75,232.0781 Q1136.1094,232.2344 1135.4063,232.2344 Q1132.9063,232.2344 1131.5781,230.5938 Q1130.2656,228.9375 1130.2656,225.8125 Q1130.2656,222.6875 1131.5781,221.0313 Q1132.9063,219.375 1135.4063,219.375 Q1136.1094,219.375 1136.75,219.5313 Q1137.4063,219.6875 1137.9688,219.9844 L1137.9688,222.7031 Q1137.3438,222.125 1136.75,221.8594 Q1136.1563,221.5781 1135.5313,221.5781 Q1134.1875,221.5781 1133.5,222.6563 Q1132.8125,223.7188 1132.8125,225.8125 Q1132.8125,227.9063 1133.5,228.9844 Q1134.1875,230.0469 1135.5313,230.0469 Q1136.1563,230.0469 1136.75,229.7813 Q1137.3438,229.5 1137.9688,228.9219 L1137.9688,231.6406 Z "/><text fill="#000000" font-family="sans-serif" font-size="12" lengthAdjust="spacingAndGlyphs" textLength="62" x="1149" y="230.1543">ViewMenu</text><!--MD5=[bb8139252ab9d60963f0ad3aa85822d8]
class ViewCustomPet--><rect fill="#FEFECE" filter="url(#ff5v2aepgelfn)" height="32" id="ViewCustomPet" style="stroke: #A80036; stroke-width: 1.5;" width="128" x="894" y="319"/><ellipse cx="909" cy="335" fill="#ADD1B2" rx="11" ry="11" style="stroke: #A80036; stroke-width: 1.0;"/><path d="M911.9688,340.6406 Q911.3906,340.9375 910.75,341.0781 Q910.1094,341.2344 909.4063,341.2344 Q906.9063,341.2344 905.5781,339.5938 Q904.2656,337.9375 904.2656,334.8125 Q904.2656,331.6875 905.5781,330.0313 Q906.9063,328.375 909.4063,328.375 Q910.1094,328.375 910.75,328.5313 Q911.4063,328.6875 911.9688,328.9844 L911.9688,331.7031 Q911.3438,331.125 910.75,330.8594 Q910.1563,330.5781 909.5313,330.5781 Q908.1875,330.5781 907.5,331.6563 Q906.8125,332.7188 906.8125,334.8125 Q906.8125,336.9063 907.5,337.9844 Q908.1875,339.0469 909.5313,339.0469 Q910.1563,339.0469 910.75,338.7813 Q911.3438,338.5 911.9688,337.9219 L911.9688,340.6406 Z "/><text fill="#000000" font-family="sans-serif" font-size="12" lengthAdjust="spacingAndGlyphs" textLength="96" x="923" y="339.1543">ViewCustomPet</text><!--MD5=[d18d64f195106826546ed42fd601b6d0]
class ViewLoad--><rect fill="#FEFECE" filter="url(#ff5v2aepgelfn)" height="32" id="ViewLoad" style="stroke: #A80036; stroke-width: 1.5;" width="90" x="1057" y="319"/><ellipse cx="1072" cy="335" fill="#ADD1B2" rx="11" ry="11" style="stroke: #A80036; stroke-width: 1.0;"/><path d="M1074.9688,340.6406 Q1074.3906,340.9375 1073.75,341.0781 Q1073.1094,341.2344 1072.4063,341.2344 Q1069.9063,341.2344 1068.5781,339.5938 Q1067.2656,337.9375 1067.2656,334.8125 Q1067.2656,331.6875 1068.5781,330.0313 Q1069.9063,328.375 1072.4063,328.375 Q1073.1094,328.375 1073.75,328.5313 Q1074.4063,328.6875 1074.9688,328.9844 L1074.9688,331.7031 Q1074.3438,331.125 1073.75,330.8594 Q1073.1563,330.5781 1072.5313,330.5781 Q1071.1875,330.5781 1070.5,331.6563 Q1069.8125,332.7188 1069.8125,334.8125 Q1069.8125,336.9063 1070.5,337.9844 Q1071.1875,339.0469 1072.5313,339.0469 Q1073.1563,339.0469 1073.75,338.7813 Q1074.3438,338.5 1074.9688,337.9219 L1074.9688,340.6406 Z "/><text fill="#000000" font-family="sans-serif" font-size="12" lengthAdjust="spacingAndGlyphs" textLength="58" x="1086" y="339.1543">ViewLoad</text><!--MD5=[363299a84393b04db7416c04d3062cf1]
class ViewAction--><rect fill="#FEFECE" filter="url(#ff5v2aepgelfn)" height="32" id="ViewAction" style="stroke: #A80036; stroke-width: 1.5;" width="99" x="1552.5" y="445"/><ellipse cx="1567.5" cy="461" fill="#ADD1B2" rx="11" ry="11" style="stroke: #A80036; stroke-width: 1.0;"/><path d="M1570.4688,466.6406 Q1569.8906,466.9375 1569.25,467.0781 Q1568.6094,467.2344 1567.9063,467.2344 Q1565.4063,467.2344 1564.0781,465.5938 Q1562.7656,463.9375 1562.7656,460.8125 Q1562.7656,457.6875 1564.0781,456.0313 Q1565.4063,454.375 1567.9063,454.375 Q1568.6094,454.375 1569.25,454.5313 Q1569.9063,454.6875 1570.4688,454.9844 L1570.4688,457.7031 Q1569.8438,457.125 1569.25,456.8594 Q1568.6563,456.5781 1568.0313,456.5781 Q1566.6875,456.5781 1566,457.6563 Q1565.3125,458.7188 1565.3125,460.8125 Q1565.3125,462.9063 1566,463.9844 Q1566.6875,465.0469 1568.0313,465.0469 Q1568.6563,465.0469 1569.25,464.7813 Q1569.8438,464.5 1570.4688,463.9219 L1570.4688,466.6406 Z "/><text fill="#000000" font-family="sans-serif" font-size="12" lengthAdjust="spacingAndGlyphs" textLength="67" x="1581.5" y="465.1543">ViewAction</text><!--MD5=[47d553743e6c0f650877be889f88f64f]
class ViewOption--><rect fill="#FEFECE" filter="url(#ff5v2aepgelfn)" height="32" id="ViewOption" style="stroke: #A80036; stroke-width: 1.5;" width="101" x="1182.5" y="319"/><ellipse cx="1197.5" cy="335" fill="#ADD1B2" rx="11" ry="11" style="stroke: #A80036; stroke-width: 1.0;"/><path d="M1200.4688,340.6406 Q1199.8906,340.9375 1199.25,341.0781 Q1198.6094,341.2344 1197.9063,341.2344 Q1195.4063,341.2344 1194.0781,339.5938 Q1192.7656,337.9375 1192.7656,334.8125 Q1192.7656,331.6875 1194.0781,330.0313 Q1195.4063,328.375 1197.9063,328.375 Q1198.6094,328.375 1199.25,328.5313 Q1199.9063,328.6875 1200.4688,328.9844 L1200.4688,331.7031 Q1199.8438,331.125 1199.25,330.8594 Q1198.6563,330.5781 1198.0313,330.5781 Q1196.6875,330.5781 1196,331.6563 Q1195.3125,332.7188 1195.3125,334.8125 Q1195.3125,336.9063 1196,337.9844 Q1196.6875,339.0469 1198.0313,339.0469 Q1198.6563,339.0469 1199.25,338.7813 Q1199.8438,338.5 1200.4688,337.9219 L1200.4688,340.6406 Z "/><text fill="#000000" font-family="sans-serif" font-size="12" lengthAdjust="spacingAndGlyphs" textLength="69" x="1211.5" y="339.1543">ViewOption</text><!--MD5=[7ef7df81153a108328eb7a5b9355a136]
class ViewGame--><rect fill="#FEFECE" filter="url(#ff5v2aepgelfn)" height="32" id="ViewGame" style="stroke: #A80036; stroke-width: 1.5;" width="96" x="1372" y="210"/><ellipse cx="1387" cy="226" fill="#ADD1B2" rx="11" ry="11" style="stroke: #A80036; stroke-width: 1.0;"/><path d="M1389.9688,231.6406 Q1389.3906,231.9375 1388.75,232.0781 Q1388.1094,232.2344 1387.4063,232.2344 Q1384.9063,232.2344 1383.5781,230.5938 Q1382.2656,228.9375 1382.2656,225.8125 Q1382.2656,222.6875 1383.5781,221.0313 Q1384.9063,219.375 1387.4063,219.375 Q1388.1094,219.375 1388.75,219.5313 Q1389.4063,219.6875 1389.9688,219.9844 L1389.9688,222.7031 Q1389.3438,222.125 1388.75,221.8594 Q1388.1563,221.5781 1387.5313,221.5781 Q1386.1875,221.5781 1385.5,222.6563 Q1384.8125,223.7188 1384.8125,225.8125 Q1384.8125,227.9063 1385.5,228.9844 Q1386.1875,230.0469 1387.5313,230.0469 Q1388.1563,230.0469 1388.75,229.7813 Q1389.3438,229.5 1389.9688,228.9219 L1389.9688,231.6406 Z "/><text fill="#000000" font-family="sans-serif" font-size="12" lengthAdjust="spacingAndGlyphs" textLength="64" x="1401" y="230.1543">ViewGame</text><!--MD5=[fab7056576ea3880aaf36e4ccb94a01c]
class ViewHUD--><rect fill="#FEFECE" filter="url(#ff5v2aepgelfn)" height="32" id="ViewHUD" style="stroke: #A80036; stroke-width: 1.5;" width="87" x="1564.5" y="319"/><ellipse cx="1579.5" cy="335" fill="#ADD1B2" rx="11" ry="11" style="stroke: #A80036; stroke-width: 1.0;"/><path d="M1582.4688,340.6406 Q1581.8906,340.9375 1581.25,341.0781 Q1580.6094,341.2344 1579.9063,341.2344 Q1577.4063,341.2344 1576.0781,339.5938 Q1574.7656,337.9375 1574.7656,334.8125 Q1574.7656,331.6875 1576.0781,330.0313 Q1577.4063,328.375 1579.9063,328.375 Q1580.6094,328.375 1581.25,328.5313 Q1581.9063,328.6875 1582.4688,328.9844 L1582.4688,331.7031 Q1581.8438,331.125 1581.25,330.8594 Q1580.6563,330.5781 1580.0313,330.5781 Q1578.6875,330.5781 1578,331.6563 Q1577.3125,332.7188 1577.3125,334.8125 Q1577.3125,336.9063 1578,337.9844 Q1578.6875,339.0469 1580.0313,339.0469 Q1580.6563,339.0469 1581.25,338.7813 Q1581.8438,338.5 1582.4688,337.9219 L1582.4688,340.6406 Z "/><text fill="#000000" font-family="sans-serif" font-size="12" lengthAdjust="spacingAndGlyphs" textLength="55" x="1593.5" y="339.1543">ViewHUD</text><!--MD5=[b4d764e3c38fb7b1af6f2a8a636bdd8c]
class ControllerMain--><rect fill="#FEFECE" filter="url(#ff5v2aepgelfn)" height="32" id="ControllerMain" style="stroke: #A80036; stroke-width: 1.5;" width="122" x="204" y="210"/><ellipse cx="219" cy="226" fill="#ADD1B2" rx="11" ry="11" style="stroke: #A80036; stroke-width: 1.0;"/><path d="M221.9688,231.6406 Q221.3906,231.9375 220.75,232.0781 Q220.1094,232.2344 219.4063,232.2344 Q216.9063,232.2344 215.5781,230.5938 Q214.2656,228.9375 214.2656,225.8125 Q214.2656,222.6875 215.5781,221.0313 Q216.9063,219.375 219.4063,219.375 Q220.1094,219.375 220.75,219.5313 Q221.4063,219.6875 221.9688,219.9844 L221.9688,222.7031 Q221.3438,222.125 220.75,221.8594 Q220.1563,221.5781 219.5313,221.5781 Q218.1875,221.5781 217.5,222.6563 Q216.8125,223.7188 216.8125,225.8125 Q216.8125,227.9063 217.5,228.9844 Q218.1875,230.0469 219.5313,230.0469 Q220.1563,230.0469 220.75,229.7813 Q221.3438,229.5 221.9688,228.9219 L221.9688,231.6406 Z "/><text fill="#000000" font-family="sans-serif" font-size="12" lengthAdjust="spacingAndGlyphs" textLength="90" x="233" y="230.1543">ControllerMain</text><!--MD5=[a8dd5522732e18611229f49aa10f22e6]
class ControllerPet--><rect fill="#FEFECE" filter="url(#ff5v2aepgelfn)" height="65.6094" id="ControllerPet" style="stroke: #A80036; stroke-width: 1.5;" width="114" x="52" y="428"/><ellipse cx="67" cy="444" fill="#ADD1B2" rx="11" ry="11" style="stroke: #A80036; stroke-width: 1.0;"/><path d="M69.9688,449.6406 Q69.3906,449.9375 68.75,450.0781 Q68.1094,450.2344 67.4063,450.2344 Q64.9063,450.2344 63.5781,448.5938 Q62.2656,446.9375 62.2656,443.8125 Q62.2656,440.6875 63.5781,439.0313 Q64.9063,437.375 67.4063,437.375 Q68.1094,437.375 68.75,437.5313 Q69.4063,437.6875 69.9688,437.9844 L69.9688,440.7031 Q69.3438,440.125 68.75,439.8594 Q68.1563,439.5781 67.5313,439.5781 Q66.1875,439.5781 65.5,440.6563 Q64.8125,441.7188 64.8125,443.8125 Q64.8125,445.9063 65.5,446.9844 Q66.1875,448.0469 67.5313,448.0469 Q68.1563,448.0469 68.75,447.7813 Q69.3438,447.5 69.9688,446.9219 L69.9688,449.6406 Z "/><text fill="#000000" font-family="sans-serif" font-size="12" lengthAdjust="spacingAndGlyphs" textLength="82" x="81" y="448.1543">ControllerPet</text><line style="stroke: #A80036; stroke-width: 1.5;" x1="53" x2="165" y1="460" y2="460"/><rect fill="none" height="6" style="stroke: #C82930; stroke-width: 1.0;" width="6" x="60" y="468"/><text fill="#000000" font-family="sans-serif" font-size="11" lengthAdjust="spacingAndGlyphs" textLength="51" x="72" y="474.2104">ModelPet</text><rect fill="none" height="6" style="stroke: #C82930; stroke-width: 1.0;" width="6" x="60" y="480.8047"/><text fill="#000000" font-family="sans-serif" font-size="11" lengthAdjust="spacingAndGlyphs" textLength="44" x="72" y="487.0151">ViewPet</text><!--MD5=[87caa93e14c110f7c3c35dde97c8934c]
class ControllerRoom--><rect fill="#FEFECE" filter="url(#ff5v2aepgelfn)" height="65.6094" id="ControllerRoom" style="stroke: #A80036; stroke-width: 1.5;" width="128" x="201" y="428"/><ellipse cx="216" cy="444" fill="#ADD1B2" rx="11" ry="11" style="stroke: #A80036; stroke-width: 1.0;"/><path d="M218.9688,449.6406 Q218.3906,449.9375 217.75,450.0781 Q217.1094,450.2344 216.4063,450.2344 Q213.9063,450.2344 212.5781,448.5938 Q211.2656,446.9375 211.2656,443.8125 Q211.2656,440.6875 212.5781,439.0313 Q213.9063,437.375 216.4063,437.375 Q217.1094,437.375 217.75,437.5313 Q218.4063,437.6875 218.9688,437.9844 L218.9688,440.7031 Q218.3438,440.125 217.75,439.8594 Q217.1563,439.5781 216.5313,439.5781 Q215.1875,439.5781 214.5,440.6563 Q213.8125,441.7188 213.8125,443.8125 Q213.8125,445.9063 214.5,446.9844 Q215.1875,448.0469 216.5313,448.0469 Q217.1563,448.0469 217.75,447.7813 Q218.3438,447.5 218.9688,446.9219 L218.9688,449.6406 Z "/><text fill="#000000" font-family="sans-serif" font-size="12" lengthAdjust="spacingAndGlyphs" textLength="96" x="230" y="448.1543">ControllerRoom</text><line style="stroke: #A80036; stroke-width: 1.5;" x1="202" x2="328" y1="460" y2="460"/><rect fill="none" height="6" style="stroke: #C82930; stroke-width: 1.0;" width="6" x="209" y="468"/><text fill="#000000" font-family="sans-serif" font-size="11" lengthAdjust="spacingAndGlyphs" textLength="65" x="221" y="474.2104">ModelRoom</text><rect fill="none" height="6" style="stroke: #C82930; stroke-width: 1.0;" width="6" x="209" y="480.8047"/><text fill="#000000" font-family="sans-serif" font-size="11" lengthAdjust="spacingAndGlyphs" textLength="58" x="221" y="487.0151">ViewRoom</text><!--MD5=[a8c4fef36f1be4f4b0b1faa4659e444b]
class ControllerStat--><rect fill="#FEFECE" filter="url(#ff5v2aepgelfn)" height="65.6094" id="ControllerStat" style="stroke: #A80036; stroke-width: 1.5;" width="119" x="49.5" y="554"/><ellipse cx="64.5" cy="570" fill="#ADD1B2" rx="11" ry="11" style="stroke: #A80036; stroke-width: 1.0;"/><path d="M67.4688,575.6406 Q66.8906,575.9375 66.25,576.0781 Q65.6094,576.2344 64.9063,576.2344 Q62.4063,576.2344 61.0781,574.5938 Q59.7656,572.9375 59.7656,569.8125 Q59.7656,566.6875 61.0781,565.0313 Q62.4063,563.375 64.9063,563.375 Q65.6094,563.375 66.25,563.5313 Q66.9063,563.6875 67.4688,563.9844 L67.4688,566.7031 Q66.8438,566.125 66.25,565.8594 Q65.6563,565.5781 65.0313,565.5781 Q63.6875,565.5781 63,566.6563 Q62.3125,567.7188 62.3125,569.8125 Q62.3125,571.9063 63,572.9844 Q63.6875,574.0469 65.0313,574.0469 Q65.6563,574.0469 66.25,573.7813 Q66.8438,573.5 67.4688,572.9219 L67.4688,575.6406 Z "/><text fill="#000000" font-family="sans-serif" font-size="12" lengthAdjust="spacingAndGlyphs" textLength="87" x="78.5" y="574.1543">ControllerStat</text><line style="stroke: #A80036; stroke-width: 1.5;" x1="50.5" x2="167.5" y1="586" y2="586"/><rect fill="none" height="6" style="stroke: #C82930; stroke-width: 1.0;" width="6" x="57.5" y="594"/><text fill="#000000" font-family="sans-serif" font-size="11" lengthAdjust="spacingAndGlyphs" textLength="56" x="69.5" y="600.2104">ModelStat</text><rect fill="none" height="6" style="stroke: #C82930; stroke-width: 1.0;" width="6" x="57.5" y="606.8047"/><text fill="#000000" font-family="sans-serif" font-size="11" lengthAdjust="spacingAndGlyphs" textLength="49" x="69.5" y="613.0151">ViewStat</text><!--MD5=[ad9dd60b9e2ea02c403c8610a882571c]
class ControllerMenu--><rect fill="#FEFECE" filter="url(#ff5v2aepgelfn)" height="65.6094" id="ControllerMenu" style="stroke: #A80036; stroke-width: 1.5;" width="127" x="38.5" y="302"/><ellipse cx="53.5" cy="318" fill="#ADD1B2" rx="11" ry="11" style="stroke: #A80036; stroke-width: 1.0;"/><path d="M56.4688,323.6406 Q55.8906,323.9375 55.25,324.0781 Q54.6094,324.2344 53.9063,324.2344 Q51.4063,324.2344 50.0781,322.5938 Q48.7656,320.9375 48.7656,317.8125 Q48.7656,314.6875 50.0781,313.0313 Q51.4063,311.375 53.9063,311.375 Q54.6094,311.375 55.25,311.5313 Q55.9063,311.6875 56.4688,311.9844 L56.4688,314.7031 Q55.8438,314.125 55.25,313.8594 Q54.6563,313.5781 54.0313,313.5781 Q52.6875,313.5781 52,314.6563 Q51.3125,315.7188 51.3125,317.8125 Q51.3125,319.9063 52,320.9844 Q52.6875,322.0469 54.0313,322.0469 Q54.6563,322.0469 55.25,321.7813 Q55.8438,321.5 56.4688,320.9219 L56.4688,323.6406 Z "/><text fill="#000000" font-family="sans-serif" font-size="12" lengthAdjust="spacingAndGlyphs" textLength="95" x="67.5" y="322.1543">ControllerMenu</text><line style="stroke: #A80036; stroke-width: 1.5;" x1="39.5" x2="164.5" y1="334" y2="334"/><rect fill="none" height="6" style="stroke: #C82930; stroke-width: 1.0;" width="6" x="46.5" y="342"/><text fill="#000000" font-family="sans-serif" font-size="11" lengthAdjust="spacingAndGlyphs" textLength="70" x="58.5" y="348.2104">ModelOption</text><rect fill="none" height="6" style="stroke: #C82930; stroke-width: 1.0;" width="6" x="46.5" y="354.8047"/><text fill="#000000" font-family="sans-serif" font-size="11" lengthAdjust="spacingAndGlyphs" textLength="56" x="58.5" y="361.0151">ViewMenu</text><!--MD5=[a23319bb6651943ab882a8895f3a4933]
class ControllerGame--><rect fill="#FEFECE" filter="url(#ff5v2aepgelfn)" height="65.6094" id="ControllerGame" style="stroke: #A80036; stroke-width: 1.5;" width="129" x="200.5" y="302"/><ellipse cx="215.5" cy="318" fill="#ADD1B2" rx="11" ry="11" style="stroke: #A80036; stroke-width: 1.0;"/><path d="M218.4688,323.6406 Q217.8906,323.9375 217.25,324.0781 Q216.6094,324.2344 215.9063,324.2344 Q213.4063,324.2344 212.0781,322.5938 Q210.7656,320.9375 210.7656,317.8125 Q210.7656,314.6875 212.0781,313.0313 Q213.4063,311.375 215.9063,311.375 Q216.6094,311.375 217.25,311.5313 Q217.9063,311.6875 218.4688,311.9844 L218.4688,314.7031 Q217.8438,314.125 217.25,313.8594 Q216.6563,313.5781 216.0313,313.5781 Q214.6875,313.5781 214,314.6563 Q213.3125,315.7188 213.3125,317.8125 Q213.3125,319.9063 214,320.9844 Q214.6875,322.0469 216.0313,322.0469 Q216.6563,322.0469 217.25,321.7813 Q217.8438,321.5 218.4688,320.9219 L218.4688,323.6406 Z "/><text fill="#000000" font-family="sans-serif" font-size="12" lengthAdjust="spacingAndGlyphs" textLength="97" x="229.5" y="322.1543">ControllerGame</text><line style="stroke: #A80036; stroke-width: 1.5;" x1="201.5" x2="328.5" y1="334" y2="334"/><rect fill="none" height="6" style="stroke: #C82930; stroke-width: 1.0;" width="6" x="208.5" y="342"/><text fill="#000000" font-family="sans-serif" font-size="11" lengthAdjust="spacingAndGlyphs" textLength="67" x="220.5" y="348.2104">ModelGame</text><rect fill="none" height="6" style="stroke: #C82930; stroke-width: 1.0;" width="6" x="208.5" y="354.8047"/><text fill="#000000" font-family="sans-serif" font-size="11" lengthAdjust="spacingAndGlyphs" textLength="60" x="220.5" y="361.0151">ViewGame</text><!--MD5=[335f4d9be48430461c68bf6d6fdba145]
class App--><rect fill="#FEFECE" filter="url(#ff5v2aepgelfn)" height="65.6094" id="App" style="stroke: #A80036; stroke-width: 1.5;" width="172" x="243" y="71.5"/><ellipse cx="312.75" cy="87.5" fill="#ADD1B2" rx="11" ry="11" style="stroke: #A80036; stroke-width: 1.0;"/><path d="M315.7188,93.1406 Q315.1406,93.4375 314.5,93.5781 Q313.8594,93.7344 313.1563,93.7344 Q310.6563,93.7344 309.3281,92.0938 Q308.0156,90.4375 308.0156,87.3125 Q308.0156,84.1875 309.3281,82.5313 Q310.6563,80.875 313.1563,80.875 Q313.8594,80.875 314.5,81.0313 Q315.1563,81.1875 315.7188,81.4844 L315.7188,84.2031 Q315.0938,83.625 314.5,83.3594 Q313.9063,83.0781 313.2813,83.0781 Q311.9375,83.0781 311.25,84.1563 Q310.5625,85.2188 310.5625,87.3125 Q310.5625,89.4063 311.25,90.4844 Q311.9375,91.5469 313.2813,91.5469 Q313.9063,91.5469 314.5,91.2813 Q315.0938,91 315.7188,90.4219 L315.7188,93.1406 Z "/><text fill="#000000" font-family="sans-serif" font-size="12" lengthAdjust="spacingAndGlyphs" textLength="24" x="333.25" y="91.6543">App</text><line style="stroke: #A80036; stroke-width: 1.5;" x1="244" x2="414" y1="103.5" y2="103.5"/><ellipse cx="254" cy="114.5" fill="#84BE84" rx="3" ry="3" style="stroke: #038048; stroke-width: 1.0;"/><text fill="#000000" font-family="sans-serif" font-size="11" lengthAdjust="spacingAndGlyphs" text-decoration="underline" textLength="90" x="263" y="117.7104">getLang() : Lang</text><ellipse cx="254" cy="127.3047" fill="#84BE84" rx="3" ry="3" style="stroke: #038048; stroke-width: 1.0;"/><text fill="#000000" font-family="sans-serif" font-size="11" lengthAdjust="spacingAndGlyphs" text-decoration="underline" textLength="146" x="263" y="130.5151">setLang( newLang : Lang )</text><!--MD5=[d6c567a33847b77a8058f3d00eba0565]
class Lang--><rect fill="#FEFECE" filter="url(#ff5v2aepgelfn)" height="32" id="Lang" style="stroke: #A80036; stroke-width: 1.5;" width="61" x="362.5" y="210"/><ellipse cx="377.5" cy="226" fill="#B4A7E5" rx="11" ry="11" style="stroke: #A80036; stroke-width: 1.0;"/><path d="M373.4219,221.7656 L373.4219,219.6094 L380.8125,219.6094 L380.8125,221.7656 L378.3438,221.7656 L378.3438,229.8438 L380.8125,229.8438 L380.8125,232 L373.4219,232 L373.4219,229.8438 L375.8906,229.8438 L375.8906,221.7656 L373.4219,221.7656 Z "/><text fill="#000000" font-family="sans-serif" font-size="12" font-style="italic" lengthAdjust="spacingAndGlyphs" textLength="29" x="391.5" y="230.1543">Lang</text><!--MD5=[e0b0f022d868ad323502bc5184d39584]
class Fr--><rect fill="#FEFECE" filter="url(#ff5v2aepgelfn)" height="32" id="Fr" style="stroke: #A80036; stroke-width: 1.5;" width="44" x="368" y="319"/><ellipse cx="383" cy="335" fill="#ADD1B2" rx="11" ry="11" style="stroke: #A80036; stroke-width: 1.0;"/><path d="M385.9688,340.6406 Q385.3906,340.9375 384.75,341.0781 Q384.1094,341.2344 383.4063,341.2344 Q380.9063,341.2344 379.5781,339.5938 Q378.2656,337.9375 378.2656,334.8125 Q378.2656,331.6875 379.5781,330.0313 Q380.9063,328.375 383.4063,328.375 Q384.1094,328.375 384.75,328.5313 Q385.4063,328.6875 385.9688,328.9844 L385.9688,331.7031 Q385.3438,331.125 384.75,330.8594 Q384.1563,330.5781 383.5313,330.5781 Q382.1875,330.5781 381.5,331.6563 Q380.8125,332.7188 380.8125,334.8125 Q380.8125,336.9063 381.5,337.9844 Q382.1875,339.0469 383.5313,339.0469 Q384.1563,339.0469 384.75,338.7813 Q385.3438,338.5 385.9688,337.9219 L385.9688,340.6406 Z "/><text fill="#000000" font-family="sans-serif" font-size="12" lengthAdjust="spacingAndGlyphs" textLength="12" x="397" y="339.1543">Fr</text><!--MD5=[11aee42e7bda610f1ae7beec836b5cfb]
class En--><rect fill="#FEFECE" filter="url(#ff5v2aepgelfn)" height="32" id="En" style="stroke: #A80036; stroke-width: 1.5;" width="48" x="447" y="319"/><ellipse cx="462" cy="335" fill="#ADD1B2" rx="11" ry="11" style="stroke: #A80036; stroke-width: 1.0;"/><path d="M464.9688,340.6406 Q464.3906,340.9375 463.75,341.0781 Q463.1094,341.2344 462.4063,341.2344 Q459.9063,341.2344 458.5781,339.5938 Q457.2656,337.9375 457.2656,334.8125 Q457.2656,331.6875 458.5781,330.0313 Q459.9063,328.375 462.4063,328.375 Q463.1094,328.375 463.75,328.5313 Q464.4063,328.6875 464.9688,328.9844 L464.9688,331.7031 Q464.3438,331.125 463.75,330.8594 Q463.1563,330.5781 462.5313,330.5781 Q461.1875,330.5781 460.5,331.6563 Q459.8125,332.7188 459.8125,334.8125 Q459.8125,336.9063 460.5,337.9844 Q461.1875,339.0469 462.5313,339.0469 Q463.1563,339.0469 463.75,338.7813 Q464.3438,338.5 464.9688,337.9219 L464.9688,340.6406 Z "/><text fill="#000000" font-family="sans-serif" font-size="12" lengthAdjust="spacingAndGlyphs" textLength="16" x="476" y="339.1543">En</text><!--MD5=[7a711561beb8c4cdf7234f3728bff315]
reverse link Lang to Fr--><path d="M392.01,262.45 C391.47,281.54 390.84,304.09 390.43,318.7 " fill="none" id="Lang&lt;-Fr" style="stroke: #A80036; stroke-width: 1.0; stroke-dasharray: 7.0,7.0;"/><polygon fill="none" points="385.01,262.13,392.57,242.33,399.01,262.52,385.01,262.13" style="stroke: #A80036; stroke-width: 1.0;"/><!--MD5=[19ab5e507920a255ac7de618dae57c4a]
reverse link Lang to En--><path d="M416.16,258.77 C430.59,278.56 448.5,303.14 459.85,318.7 " fill="none" id="Lang&lt;-En" style="stroke: #A80036; stroke-width: 1.0; stroke-dasharray: 7.0,7.0;"/><polygon fill="none" points="410.3,262.62,404.18,242.33,421.61,254.37,410.3,262.62" style="stroke: #A80036; stroke-width: 1.0;"/><!--MD5=[44ec7255984f9518cac8781f20697b6b]
link App to Lang--><path d="M351.8101,148.1013 C351.8101,148.1013 370.95,183.84 378.72,198.34 " fill="none" id="App-Lang" style="stroke: #A80036; stroke-width: 1.0;"/><polygon fill="#A80036" points="384.95,209.97,384.2371,200.147,382.5939,205.5599,377.181,203.9167,384.95,209.97" style="stroke: #A80036; stroke-width: 1.0;"/><line style="stroke: #A80036; stroke-width: 1.0;" x1="382.5939" x2="378.815" y1="205.5599" y2="198.515"/><polygon fill="#FFFFFF" points="346.15,137.52,345.4529,144.6973,351.8101,148.1013,352.5071,140.924,346.15,137.52" style="stroke: #A80036; stroke-width: 1.0;"/><!--MD5=[4f466642c94ef2a73e975d7b90f446a9]
reverse link ModelPet to Robot--><path d="M725.06,260.91 C717.08,280.31 707.46,303.69 701.29,318.7 " fill="none" id="ModelPet&lt;-Robot" style="stroke: #A80036; stroke-width: 1.0; stroke-dasharray: 7.0,7.0;"/><polygon fill="none" points="718.62,258.17,732.7,242.33,731.56,263.49,718.62,258.17" style="stroke: #A80036; stroke-width: 1.0;"/><!--MD5=[74c06c42aaa6c8b448d0338302a44b32]
reverse link ModelPet to Animal--><path d="M757.94,259.68 C769.31,279.31 783.25,303.37 792.13,318.7 " fill="none" id="ModelPet&lt;-Animal" style="stroke: #A80036; stroke-width: 1.0; stroke-dasharray: 7.0,7.0;"/><polygon fill="none" points="751.85,263.14,747.88,242.33,763.97,256.13,751.85,263.14" style="stroke: #A80036; stroke-width: 1.0;"/><!--MD5=[8bab838cf7b2054389e90a3dcb385861]
link ModelPet to ModelStat--><path d="M706.2773,248.7442 C706.2773,248.7442 639.18,293.34 611.66,311.63 " fill="none" id="ModelPet-ModelStat" style="stroke: #A80036; stroke-width: 1.0;"/><polygon fill="#A80036" points="600.61,318.97,610.3193,317.3177,604.7736,316.2016,605.8898,310.6559,600.61,318.97" style="stroke: #A80036; stroke-width: 1.0;"/><line style="stroke: #A80036; stroke-width: 1.0;" x1="604.7736" x2="611.44" y1="316.2016" y2="311.78"/><polygon fill="#FFFFFF" points="716.27,242.1,709.0589,242.0912,706.2773,248.7442,713.4884,248.753,716.27,242.1" style="stroke: #A80036; stroke-width: 1.0;"/><!--MD5=[5971e1841a2b9e394eb43f7dc4831a0e]
link ModelGame to ModelPet--><path d="M739,132.63 C739,132.63 739,177.79 739,196.81 " fill="none" id="ModelGame-ModelPet" style="stroke: #A80036; stroke-width: 1.0;"/><polygon fill="#A80036" points="739,209.99,743,200.99,739,204.99,735,200.99,739,209.99" style="stroke: #A80036; stroke-width: 1.0;"/><line style="stroke: #A80036; stroke-width: 1.0;" x1="739" x2="739" y1="204.99" y2="196.99"/><polygon fill="#FFFFFF" points="739,120.63,735,126.63,739,132.63,743,126.63,739,120.63" style="stroke: #A80036; stroke-width: 1.0;"/><!--MD5=[4de9b067ee7228c78f0bb54c9b6691cd]
link ModelGame to ModelRoom--><path d="M713.6996,128.7447 C713.6996,128.7447 657.57,180.35 634.95,201.15 " fill="none" id="ModelGame-ModelRoom" style="stroke: #A80036; stroke-width: 1.0;"/><polygon fill="#A80036" points="625.33,209.99,634.6626,206.8432,629.0107,206.6059,629.2481,200.954,625.33,209.99" style="stroke: #A80036; stroke-width: 1.0;"/><line style="stroke: #A80036; stroke-width: 1.0;" x1="629.0107" x2="634.9" y1="206.6059" y2="201.19"/><polygon fill="#FFFFFF" points="722.54,120.63,715.4149,121.7405,713.6996,128.7447,720.8247,127.6341,722.54,120.63" style="stroke: #A80036; stroke-width: 1.0;"/><!--MD5=[8bf2486ab1619f20eac8878ac066c89f]
link ViewMain to ViewGame--><path d="M1317.8184,128.8544 C1317.8184,128.8544 1372.42,180.23 1394.4,200.91 " fill="none" id="ViewMain-ViewGame" style="stroke: #A80036; stroke-width: 1.0;"/><polygon fill="#A80036" points="1404.05,209.99,1400.2445,200.906,1400.4116,206.5604,1394.7572,206.7275,1404.05,209.99" style="stroke: #A80036; stroke-width: 1.0;"/><line style="stroke: #A80036; stroke-width: 1.0;" x1="1400.4116" x2="1394.58" y1="206.5604" y2="201.08"/><polygon fill="#FFFFFF" points="1309.08,120.63,1310.7077,127.655,1317.8184,128.8544,1316.1907,121.8294,1309.08,120.63" style="stroke: #A80036; stroke-width: 1.0;"/><!--MD5=[da53a9ba11fef0ffc8dc778c68eb8e27]
link ViewMain to ViewMenu--><path d="M1268.3334,128.8881 C1268.3334,128.8881 1214.21,180.23 1192.4,200.91 " fill="none" id="ViewMain-ViewMenu" style="stroke: #A80036; stroke-width: 1.0;"/><polygon fill="#A80036" points="1182.83,209.99,1192.1126,206.6986,1186.4577,206.5491,1186.6072,200.8943,1182.83,209.99" style="stroke: #A80036; stroke-width: 1.0;"/><line style="stroke: #A80036; stroke-width: 1.0;" x1="1186.4577" x2="1192.26" y1="206.5491" y2="201.04"/><polygon fill="#FFFFFF" points="1277.04,120.63,1269.934,121.8568,1268.3334,128.8881,1275.4394,127.6612,1277.04,120.63" style="stroke: #A80036; stroke-width: 1.0;"/><!--MD5=[be9c79c74cacc2f476e166c2a4f64dcb]
link ViewMenu to ViewOption--><path d="M1182.7558,252.5458 C1182.7558,252.5458 1206.31,290.74 1216.45,307.16 " fill="none" id="ViewMenu-ViewOption" style="stroke: #A80036; stroke-width: 1.0;"/><polygon fill="#A80036" points="1223.56,318.7,1222.2399,308.94,1220.9352,314.4444,1215.4309,313.1397,1223.56,318.7" style="stroke: #A80036; stroke-width: 1.0;"/><line style="stroke: #A80036; stroke-width: 1.0;" x1="1220.9352" x2="1216.735" y1="314.4444" y2="307.63"/><polygon fill="#A80036" points="1176.46,242.33,1176.2026,249.5365,1182.7558,252.5458,1183.0132,245.3393,1176.46,242.33" style="stroke: #A80036; stroke-width: 1.0;"/><!--MD5=[f650e94ab78217e3508de37f16f9547a]
link ViewMenu to ViewCustomPet--><path d="M1126.8201,247.5718 C1126.8201,247.5718 1035.74,294.2 999.09,312.96 " fill="none" id="ViewMenu-ViewCustomPet" style="stroke: #A80036; stroke-width: 1.0;"/><polygon fill="#A80036" points="987.35,318.97,997.1838,318.4261,991.7999,316.6901,993.536,311.3062,987.35,318.97" style="stroke: #A80036; stroke-width: 1.0;"/><line style="stroke: #A80036; stroke-width: 1.0;" x1="991.7999" x2="998.925" y1="316.6901" y2="313.05"/><polygon fill="#A80036" points="1137.5,242.1,1130.3361,241.2759,1126.8201,247.5718,1133.984,248.3958,1137.5,242.1" style="stroke: #A80036; stroke-width: 1.0;"/><!--MD5=[6446f8f44f20e882252a98232a1037b1]
link ViewMenu to ViewLoad--><path d="M1151.4657,252.5895 C1151.4657,252.5895 1128.28,290.74 1118.3,307.16 " fill="none" id="ViewMenu-ViewLoad" style="stroke: #A80036; stroke-width: 1.0;"/><polygon fill="#A80036" points="1111.3,318.7,1119.3913,313.0847,1113.8959,314.4267,1112.5539,308.9313,1111.3,318.7" style="stroke: #A80036; stroke-width: 1.0;"/><line style="stroke: #A80036; stroke-width: 1.0;" x1="1113.8959" x2="1118.045" y1="314.4267" y2="307.59"/><polygon fill="#A80036" points="1157.69,242.33,1151.158,245.385,1151.4657,252.5895,1157.9977,249.5345,1157.69,242.33" style="stroke: #A80036; stroke-width: 1.0;"/><!--MD5=[9168ed23fe193ebb26894be34fee4a0e]
link ViewGame to ViewHUD--><path d="M1456.9646,248.0437 C1456.9646,248.0437 1537.35,293.79 1569.88,312.3 " fill="none" id="ViewGame-ViewHUD" style="stroke: #A80036; stroke-width: 1.0;"/><polygon fill="#A80036" points="1581.6,318.97,1575.7552,311.0429,1577.2541,316.4976,1571.7994,317.9964,1581.6,318.97" style="stroke: #A80036; stroke-width: 1.0;"/><line style="stroke: #A80036; stroke-width: 1.0;" x1="1577.2541" x2="1570.3" y1="316.4976" y2="312.545"/><polygon fill="#A80036" points="1446.54,242.1,1449.7711,248.5467,1456.9646,248.0437,1453.7335,241.597,1446.54,242.1" style="stroke: #A80036; stroke-width: 1.0;"/><!--MD5=[09dd6a64c3d68c174e3adb5d94daf6ef]
link ViewHUD to ViewAction--><path d="M1606.6798,363.186 C1606.6798,363.186 1604.36,411.33 1603.38,431.41 " fill="none" id="ViewHUD-ViewAction" style="stroke: #A80036; stroke-width: 1.0;"/><polygon fill="#A80036" points="1602.74,444.67,1607.1709,435.8742,1602.982,439.6759,1599.1803,435.4869,1602.74,444.67" style="stroke: #A80036; stroke-width: 1.0;"/><line style="stroke: #A80036; stroke-width: 1.0;" x1="1602.982" x2="1603.37" y1="439.6759" y2="431.69"/><polygon fill="#A80036" points="1607.26,351.2,1602.9746,356.9996,1606.6798,363.186,1610.9652,357.3864,1607.26,351.2" style="stroke: #A80036; stroke-width: 1.0;"/><!--MD5=[2c621505a26fa19aa311a2aae8df3665]
link ViewHUD to ViewStat--><path d="M1582.7615,359.3492 C1582.7615,359.3492 1523.9,413.82 1500.27,435.69 " fill="none" id="ViewHUD-ViewStat" style="stroke: #A80036; stroke-width: 1.0;"/><polygon fill="#A80036" points="1490.57,444.67,1499.8928,441.4943,1494.2402,441.2745,1494.46,435.6219,1490.57,444.67" style="stroke: #A80036; stroke-width: 1.0;"/><line style="stroke: #A80036; stroke-width: 1.0;" x1="1494.2402" x2="1500.11" y1="441.2745" y2="435.84"/><polygon fill="#FFFFFF" points="1591.57,351.2,1584.4493,352.3384,1582.7615,359.3492,1589.8821,358.2108,1591.57,351.2" style="stroke: #A80036; stroke-width: 1.0;"/><!--MD5=[72c63d8179027bd176e1b9e790de2564]
link ViewGame to ViewRoom--><path d="M1434.8904,252.7163 C1434.8904,252.7163 1457.02,290.88 1466.48,307.22 " fill="none" id="ViewGame-ViewRoom" style="stroke: #A80036; stroke-width: 1.0;"/><polygon fill="#A80036" points="1473.13,318.7,1472.0789,308.9074,1470.6233,314.3737,1465.1569,312.9181,1473.13,318.7" style="stroke: #A80036; stroke-width: 1.0;"/><line style="stroke: #A80036; stroke-width: 1.0;" x1="1470.6233" x2="1466.615" y1="314.3737" y2="307.45"/><polygon fill="#FFFFFF" points="1428.88,242.33,1428.4231,249.5266,1434.8904,252.7163,1435.3473,245.5197,1428.88,242.33" style="stroke: #A80036; stroke-width: 1.0;"/><!--MD5=[1982cb46ecac96c4096775a36a11f323]
link ViewGame to ViewPet--><path d="M1405.3106,252.7514 C1405.3106,252.7514 1383.58,290.88 1374.27,307.22 " fill="none" id="ViewGame-ViewPet" style="stroke: #A80036; stroke-width: 1.0;"/><polygon fill="#A80036" points="1367.72,318.7,1375.6558,312.8671,1370.1989,314.3578,1368.7083,308.9009,1367.72,318.7" style="stroke: #A80036; stroke-width: 1.0;"/><line style="stroke: #A80036; stroke-width: 1.0;" x1="1370.1989" x2="1374.16" y1="314.3578" y2="307.405"/><polygon fill="#FFFFFF" points="1411.26,242.33,1404.8115,245.5575,1405.3106,252.7514,1411.7591,249.5238,1411.26,242.33" style="stroke: #A80036; stroke-width: 1.0;"/><!--MD5=[b1ef4671a1757d589d06dc8a838d028a]
link ControllerPet to ControllerStat--><path d="M109,506.26 C109,506.26 109,529.79 109,540.65 " fill="none" id="ControllerPet-ControllerStat" style="stroke: #A80036; stroke-width: 1.0;"/><polygon fill="#A80036" points="109,553.91,113,544.91,109,548.91,105,544.91,109,553.91" style="stroke: #A80036; stroke-width: 1.0;"/><line style="stroke: #A80036; stroke-width: 1.0;" x1="109" x2="109" y1="548.91" y2="540.91"/><polygon fill="#A80036" points="109,494.26,105,500.26,109,506.26,113,500.26,109,494.26" style="stroke: #A80036; stroke-width: 1.0;"/><!--MD5=[efe405b14041d5631e08871e4931eb2f]
link ControllerGame to ControllerPet--><path d="M215.0213,375.7209 C215.0213,375.7209 177.27,405.73 159.89,419.55 " fill="none" id="ControllerGame-ControllerPet" style="stroke: #A80036; stroke-width: 1.0;"/><polygon fill="#A80036" points="149.38,427.91,158.916,425.4472,153.2961,424.8013,153.942,419.1814,149.38,427.91" style="stroke: #A80036; stroke-width: 1.0;"/><line style="stroke: #A80036; stroke-width: 1.0;" x1="153.2961" x2="159.55" y1="424.8013" y2="419.815"/><polygon fill="#A80036" points="224.42,368.26,217.2337,368.8576,215.0213,375.7209,222.2076,375.1233,224.42,368.26" style="stroke: #A80036; stroke-width: 1.0;"/><!--MD5=[ddcc429a3235b8516599080435159d34]
link ControllerGame to ControllerRoom--><path d="M265,380.26 C265,380.26 265,403.79 265,414.65 " fill="none" id="ControllerGame-ControllerRoom" style="stroke: #A80036; stroke-width: 1.0;"/><polygon fill="#A80036" points="265,427.91,269,418.91,265,422.91,261,418.91,265,427.91" style="stroke: #A80036; stroke-width: 1.0;"/><line style="stroke: #A80036; stroke-width: 1.0;" x1="265" x2="265" y1="422.91" y2="414.91"/><polygon fill="#A80036" points="265,368.26,261,374.26,265,380.26,269,374.26,265,368.26" style="stroke: #A80036; stroke-width: 1.0;"/><!--MD5=[9929c6352887e0a164ebebea74672e21]
link ControllerMain to ControllerGame--><path d="M265,254.33 C265,254.33 265,277.33 265,288.59 " fill="none" id="ControllerMain-ControllerGame" style="stroke: #A80036; stroke-width: 1.0;"/><polygon fill="#A80036" points="265,301.94,269,292.94,265,296.94,261,292.94,265,301.94" style="stroke: #A80036; stroke-width: 1.0;"/><line style="stroke: #A80036; stroke-width: 1.0;" x1="265" x2="265" y1="296.94" y2="288.94"/><polygon fill="#A80036" points="265,242.33,261,248.33,265,254.33,269,248.33,265,242.33" style="stroke: #A80036; stroke-width: 1.0;"/><!--MD5=[db94271f82011bff79064c77ddb1b261]
link ControllerMain to ControllerMenu--><path d="M231.955,248.6801 C231.955,248.6801 185.42,279.24 162.21,294.47 " fill="none" id="ControllerMain-ControllerMenu" style="stroke: #A80036; stroke-width: 1.0;"/><polygon fill="#A80036" points="151.05,301.8,160.7682,300.201,155.2287,299.0544,156.3753,293.515,151.05,301.8" style="stroke: #A80036; stroke-width: 1.0;"/><line style="stroke: #A80036; stroke-width: 1.0;" x1="155.2287" x2="161.92" y1="299.0544" y2="294.665"/><polygon fill="#A80036" points="241.99,242.1,234.7791,242.0451,231.955,248.6801,239.1659,248.7351,241.99,242.1" style="stroke: #A80036; stroke-width: 1.0;"/><!--MD5=[dd57218bcfe32411ddd60f0a689a21ae]
link App to ControllerMain--><path d="M306.1899,148.1013 C306.1899,148.1013 287.05,183.84 279.28,198.34 " fill="none" id="App-ControllerMain" style="stroke: #A80036; stroke-width: 1.0;"/><polygon fill="#A80036" points="273.05,209.97,280.819,203.9167,275.4061,205.5599,273.7629,200.147,273.05,209.97" style="stroke: #A80036; stroke-width: 1.0;"/><line style="stroke: #A80036; stroke-width: 1.0;" x1="275.4061" x2="279.185" y1="205.5599" y2="198.515"/><polygon fill="#A80036" points="311.85,137.52,305.4929,140.924,306.1899,148.1013,312.5471,144.6973,311.85,137.52" style="stroke: #A80036; stroke-width: 1.0;"/><!--MD5=[c05093a9f769b7c0f7a71db5d32bcf06]
@startuml

hide empty attributes
hide empty methods

class App {
	+ {static} getLang() : Lang
	+ {static} setLang( newLang : Lang )
}

interface Lang
class Fr
Class En

Lang <|.. Fr
Lang <|.. En
App o- -> Lang

package model {
    class ModelRoom
    class ModelGame
    class ModelStat
    class ModelOption {
    	-language : string
	    -volume : double
	    -h_window : int
	    -w_window : int
    }
    interface ModelPet
    class Robot
    class Animal
    
    ModelPet <|.. Robot
    ModelPet <|.. Animal
    ModelPet o- -> ModelStat
    ModelGame o- -> ModelPet
    ModelGame o- -> ModelRoom
}

package view {
	class ViewMain
    class ViewPet
    class ViewRoom
    class ViewStat
    class ViewMenu
    class ViewCustomPet
    class ViewLoad
    class ViewAction
    class ViewOption
    class ViewGame
    class ViewHUD
    
    ViewMain o- -> ViewGame
    ViewMain o- -> ViewMenu
    ViewMenu *- -> ViewOption
    ViewMenu *- -> ViewCustomPet
    ViewMenu *- -> ViewLoad
    ViewGame *- -> ViewHUD
    ViewHUD  *- -> ViewAction
    ViewHUD  o- -> ViewStat
    ViewGame o- -> ViewRoom
    ViewGame o- -> ViewPet
}

package Controller {
    class ControllerMain
    
    class ControllerPet {
        -ModelPet
        -ViewPet
    }
    class ControllerRoom {
        -ModelRoom
        -ViewRoom
    }
    class ControllerStat {
        -ModelStat
        -ViewStat
    }
    class ControllerMenu {
        -ModelOption
        -ViewMenu
    }
    class ControllerGame {
        -ModelGame
        -ViewGame
    }
    
    ControllerPet *- -> ControllerStat
    ControllerGame *- -> ControllerPet
    ControllerGame *- -> ControllerRoom
    ControllerMain *- -> ControllerGame 
    ControllerMain *- -> ControllerMenu
    
}

App *- -> ControllerMain

@enduml

PlantUML version 1.2020.02(Sun Mar 01 11:22:07 CET 2020)
(GPL source distribution)
Java Runtime: OpenJDK Runtime Environment
JVM: OpenJDK 64-Bit Server VM
Java Version: 17.0.5+8-Debian-2
Operating System: Linux
Default Encoding: UTF-8
Language: fr
Country: FR
--></g></svg>