<?xml version="1.0" encoding="UTF-8" standalone="no"?><svg xmlns="http://www.w3.org/2000/svg" xmlns:xlink="http://www.w3.org/1999/xlink" contentScriptType="application/ecmascript" contentStyleType="text/css" height="623px" preserveAspectRatio="none" style="width:1690px;height:623px;" version="1.1" viewBox="0 0 1690 623" width="1690px" zoomAndPan="magnify"><defs><filter height="300%" id="f16uvn77bm0ga7" width="300%" x="-1" y="-1"><feGaussianBlur result="blurOut" stdDeviation="2.0"/><feColorMatrix in="blurOut" result="blurOut2" type="matrix" values="0 0 0 0 0 0 0 0 0 0 0 0 0 0 0 0 0 0 .4 0"/><feOffset dx="4.0" dy="4.0" in="blurOut2" result="blurOut3"/><feBlend in="SourceGraphic" in2="blurOut3" mode="normal"/></filter></defs><g><!--MD5=[5d4cd377749310b66bf14896f5cd8d9b]
cluster model--><polygon fill="#FFFFFF" filter="url(#f16uvn77bm0ga7)" points="514,24,568,24,575,46.2969,854,46.2969,854,342,514,342,514,24" style="stroke: #000000; stroke-width: 1.5;"/><line style="stroke: #000000; stroke-width: 1.5;" x1="514" x2="575" y1="46.2969" y2="46.2969"/><text fill="#000000" font-family="sans-serif" font-size="14" font-weight="bold" lengthAdjust="spacingAndGlyphs" textLength="48" x="518" y="38.9951">model</text><!--MD5=[86cbce8df1eb9d604fbbb2fa357940f8]
cluster view--><polygon fill="#FFFFFF" filter="url(#f16uvn77bm0ga7)" points="878,41,921,41,928,63.2969,1668,63.2969,1668,468,878,468,878,41" style="stroke: #000000; stroke-width: 1.5;"/><line style="stroke: #000000; stroke-width: 1.5;" x1="878" x2="928" y1="63.2969" y2="63.2969"/><text fill="#000000" font-family="sans-serif" font-size="14" font-weight="bold" lengthAdjust="spacingAndGlyphs" textLength="37" x="882" y="55.9951">view</text><!--MD5=[1f2cfc53d9d308f53762fd0fcbaa4873]
cluster Controller--><polygon fill="#FFFFFF" filter="url(#f16uvn77bm0ga7)" points="22,150,107,150,114,172.2969,346,172.2969,346,611,22,611,22,150" style="stroke: #000000; stroke-width: 1.5;"/><line style="stroke: #000000; stroke-width: 1.5;" x1="22" x2="114" y1="172.2969" y2="172.2969"/><text fill="#000000" font-family="sans-serif" font-size="14" font-weight="bold" lengthAdjust="spacingAndGlyphs" textLength="79" x="26" y="164.9951">Controller</text><!--MD5=[ce588b4fa91533db47d899c6e7055886]
class ModelRoom--><rect fill="#FEFECE" filter="url(#f16uvn77bm0ga7)" height="32" id="ModelRoom" style="stroke: #A80036; stroke-width: 1.5;" width="104" x="546" y="185"/><ellipse cx="561" cy="201" fill="#ADD1B2" rx="11" ry="11" style="stroke: #A80036; stroke-width: 1.0;"/><path d="M563.9688,206.6406 Q563.3906,206.9375 562.75,207.0781 Q562.1094,207.2344 561.4063,207.2344 Q558.9063,207.2344 557.5781,205.5938 Q556.2656,203.9375 556.2656,200.8125 Q556.2656,197.6875 557.5781,196.0313 Q558.9063,194.375 561.4063,194.375 Q562.1094,194.375 562.75,194.5313 Q563.4063,194.6875 563.9688,194.9844 L563.9688,197.7031 Q563.3438,197.125 562.75,196.8594 Q562.1563,196.5781 561.5313,196.5781 Q560.1875,196.5781 559.5,197.6563 Q558.8125,198.7188 558.8125,200.8125 Q558.8125,202.9063 559.5,203.9844 Q560.1875,205.0469 561.5313,205.0469 Q562.1563,205.0469 562.75,204.7813 Q563.3438,204.5 563.9688,203.9219 L563.9688,206.6406 Z "/><text fill="#000000" font-family="sans-serif" font-size="12" lengthAdjust="spacingAndGlyphs" textLength="72" x="575" y="205.1543">ModelRoom</text><!--MD5=[5ef06c8862a4439f35d8b1de5f55aae6]
class ModelGame--><rect fill="#FEFECE" filter="url(#f16uvn77bm0ga7)" height="32" id="ModelGame" style="stroke: #A80036; stroke-width: 1.5;" width="105" x="675.5" y="76"/><ellipse cx="690.5" cy="92" fill="#ADD1B2" rx="11" ry="11" style="stroke: #A80036; stroke-width: 1.0;"/><path d="M693.4688,97.6406 Q692.8906,97.9375 692.25,98.0781 Q691.6094,98.2344 690.9063,98.2344 Q688.4063,98.2344 687.0781,96.5938 Q685.7656,94.9375 685.7656,91.8125 Q685.7656,88.6875 687.0781,87.0313 Q688.4063,85.375 690.9063,85.375 Q691.6094,85.375 692.25,85.5313 Q692.9063,85.6875 693.4688,85.9844 L693.4688,88.7031 Q692.8438,88.125 692.25,87.8594 Q691.6563,87.5781 691.0313,87.5781 Q689.6875,87.5781 689,88.6563 Q688.3125,89.7188 688.3125,91.8125 Q688.3125,93.9063 689,94.9844 Q689.6875,96.0469 691.0313,96.0469 Q691.6563,96.0469 692.25,95.7813 Q692.8438,95.5 693.4688,94.9219 L693.4688,97.6406 Z "/><text fill="#000000" font-family="sans-serif" font-size="12" lengthAdjust="spacingAndGlyphs" textLength="73" x="704.5" y="96.1543">ModelGame</text><!--MD5=[93eb20994f674771d0d73131508a8777]
class ModelStat--><rect fill="#FEFECE" filter="url(#f16uvn77bm0ga7)" height="32" id="ModelStat" style="stroke: #A80036; stroke-width: 1.5;" width="95" x="530.5" y="294"/><ellipse cx="545.5" cy="310" fill="#ADD1B2" rx="11" ry="11" style="stroke: #A80036; stroke-width: 1.0;"/><path d="M548.4688,315.6406 Q547.8906,315.9375 547.25,316.0781 Q546.6094,316.2344 545.9063,316.2344 Q543.4063,316.2344 542.0781,314.5938 Q540.7656,312.9375 540.7656,309.8125 Q540.7656,306.6875 542.0781,305.0313 Q543.4063,303.375 545.9063,303.375 Q546.6094,303.375 547.25,303.5313 Q547.9063,303.6875 548.4688,303.9844 L548.4688,306.7031 Q547.8438,306.125 547.25,305.8594 Q546.6563,305.5781 546.0313,305.5781 Q544.6875,305.5781 544,306.6563 Q543.3125,307.7188 543.3125,309.8125 Q543.3125,311.9063 544,312.9844 Q544.6875,314.0469 546.0313,314.0469 Q546.6563,314.0469 547.25,313.7813 Q547.8438,313.5 548.4688,312.9219 L548.4688,315.6406 Z "/><text fill="#000000" font-family="sans-serif" font-size="12" lengthAdjust="spacingAndGlyphs" textLength="63" x="559.5" y="314.1543">ModelStat</text><!--MD5=[9a411119b15aaa1f323289dd6a5d4481]
class ModelOption--><rect fill="#FEFECE" filter="url(#f16uvn77bm0ga7)" height="65.6094" id="ModelOption" style="stroke: #A80036; stroke-width: 1.5;" width="110" x="530" y="59"/><ellipse cx="545" cy="75" fill="#ADD1B2" rx="11" ry="11" style="stroke: #A80036; stroke-width: 1.0;"/><path d="M547.9688,80.6406 Q547.3906,80.9375 546.75,81.0781 Q546.1094,81.2344 545.4063,81.2344 Q542.9063,81.2344 541.5781,79.5938 Q540.2656,77.9375 540.2656,74.8125 Q540.2656,71.6875 541.5781,70.0313 Q542.9063,68.375 545.4063,68.375 Q546.1094,68.375 546.75,68.5313 Q547.4063,68.6875 547.9688,68.9844 L547.9688,71.7031 Q547.3438,71.125 546.75,70.8594 Q546.1563,70.5781 545.5313,70.5781 Q544.1875,70.5781 543.5,71.6563 Q542.8125,72.7188 542.8125,74.8125 Q542.8125,76.9063 543.5,77.9844 Q544.1875,79.0469 545.5313,79.0469 Q546.1563,79.0469 546.75,78.7813 Q547.3438,78.5 547.9688,77.9219 L547.9688,80.6406 Z "/><text fill="#000000" font-family="sans-serif" font-size="12" lengthAdjust="spacingAndGlyphs" textLength="78" x="559" y="79.1543">ModelOption</text><line style="stroke: #A80036; stroke-width: 1.5;" x1="531" x2="639" y1="91" y2="91"/><rect fill="none" height="6" style="stroke: #C82930; stroke-width: 1.0;" width="6" x="538" y="99"/><text fill="#000000" font-family="sans-serif" font-size="11" lengthAdjust="spacingAndGlyphs" textLength="54" x="550" y="105.2104">Lang lang</text><rect fill="none" height="6" style="stroke: #C82930; stroke-width: 1.0;" width="6" x="538" y="111.8047"/><text fill="#000000" font-family="sans-serif" font-size="11" lengthAdjust="spacingAndGlyphs" textLength="83" x="550" y="118.0151">Double volume</text><!--MD5=[42b6c9b95235c21ed83560c01266501d]
class ModelPet--><rect fill="#FEFECE" filter="url(#f16uvn77bm0ga7)" height="32" id="ModelPet" style="stroke: #A80036; stroke-width: 1.5;" width="86" x="685" y="185"/><ellipse cx="700" cy="201" fill="#B4A7E5" rx="11" ry="11" style="stroke: #A80036; stroke-width: 1.0;"/><path d="M695.9219,196.7656 L695.9219,194.6094 L703.3125,194.6094 L703.3125,196.7656 L700.8438,196.7656 L700.8438,204.8438 L703.3125,204.8438 L703.3125,207 L695.9219,207 L695.9219,204.8438 L698.3906,204.8438 L698.3906,196.7656 L695.9219,196.7656 Z "/><text fill="#000000" font-family="sans-serif" font-size="12" font-style="italic" lengthAdjust="spacingAndGlyphs" textLength="54" x="714" y="205.1543">ModelPet</text><!--MD5=[60fb4f72b7635aa97affd2efc062a79f]
class Robot--><rect fill="#FEFECE" filter="url(#f16uvn77bm0ga7)" height="32" id="Robot" style="stroke: #A80036; stroke-width: 1.5;" width="69" x="660.5" y="294"/><ellipse cx="675.5" cy="310" fill="#ADD1B2" rx="11" ry="11" style="stroke: #A80036; stroke-width: 1.0;"/><path d="M678.4688,315.6406 Q677.8906,315.9375 677.25,316.0781 Q676.6094,316.2344 675.9063,316.2344 Q673.4063,316.2344 672.0781,314.5938 Q670.7656,312.9375 670.7656,309.8125 Q670.7656,306.6875 672.0781,305.0313 Q673.4063,303.375 675.9063,303.375 Q676.6094,303.375 677.25,303.5313 Q677.9063,303.6875 678.4688,303.9844 L678.4688,306.7031 Q677.8438,306.125 677.25,305.8594 Q676.6563,305.5781 676.0313,305.5781 Q674.6875,305.5781 674,306.6563 Q673.3125,307.7188 673.3125,309.8125 Q673.3125,311.9063 674,312.9844 Q674.6875,314.0469 676.0313,314.0469 Q676.6563,314.0469 677.25,313.7813 Q677.8438,313.5 678.4688,312.9219 L678.4688,315.6406 Z "/><text fill="#000000" font-family="sans-serif" font-size="12" lengthAdjust="spacingAndGlyphs" textLength="37" x="689.5" y="314.1543">Robot</text><!--MD5=[7fd4401f5c5cb0e3d029c879cad30c04]
class Animal--><rect fill="#FEFECE" filter="url(#f16uvn77bm0ga7)" height="32" id="Animal" style="stroke: #A80036; stroke-width: 1.5;" width="73" x="764.5" y="294"/><ellipse cx="779.5" cy="310" fill="#ADD1B2" rx="11" ry="11" style="stroke: #A80036; stroke-width: 1.0;"/><path d="M782.4688,315.6406 Q781.8906,315.9375 781.25,316.0781 Q780.6094,316.2344 779.9063,316.2344 Q777.4063,316.2344 776.0781,314.5938 Q774.7656,312.9375 774.7656,309.8125 Q774.7656,306.6875 776.0781,305.0313 Q777.4063,303.375 779.9063,303.375 Q780.6094,303.375 781.25,303.5313 Q781.9063,303.6875 782.4688,303.9844 L782.4688,306.7031 Q781.8438,306.125 781.25,305.8594 Q780.6563,305.5781 780.0313,305.5781 Q778.6875,305.5781 778,306.6563 Q777.3125,307.7188 777.3125,309.8125 Q777.3125,311.9063 778,312.9844 Q778.6875,314.0469 780.0313,314.0469 Q780.6563,314.0469 781.25,313.7813 Q781.8438,313.5 782.4688,312.9219 L782.4688,315.6406 Z "/><text fill="#000000" font-family="sans-serif" font-size="12" lengthAdjust="spacingAndGlyphs" textLength="41" x="793.5" y="314.1543">Animal</text><!--MD5=[2369c9863c53bf1001e6873222dfb3fe]
class ViewMain--><rect fill="#FEFECE" filter="url(#f16uvn77bm0ga7)" height="32" id="ViewMain" style="stroke: #A80036; stroke-width: 1.5;" width="89" x="1248.5" y="76"/><ellipse cx="1263.5" cy="92" fill="#ADD1B2" rx="11" ry="11" style="stroke: #A80036; stroke-width: 1.0;"/><path d="M1266.4688,97.6406 Q1265.8906,97.9375 1265.25,98.0781 Q1264.6094,98.2344 1263.9063,98.2344 Q1261.4063,98.2344 1260.0781,96.5938 Q1258.7656,94.9375 1258.7656,91.8125 Q1258.7656,88.6875 1260.0781,87.0313 Q1261.4063,85.375 1263.9063,85.375 Q1264.6094,85.375 1265.25,85.5313 Q1265.9063,85.6875 1266.4688,85.9844 L1266.4688,88.7031 Q1265.8438,88.125 1265.25,87.8594 Q1264.6563,87.5781 1264.0313,87.5781 Q1262.6875,87.5781 1262,88.6563 Q1261.3125,89.7188 1261.3125,91.8125 Q1261.3125,93.9063 1262,94.9844 Q1262.6875,96.0469 1264.0313,96.0469 Q1264.6563,96.0469 1265.25,95.7813 Q1265.8438,95.5 1266.4688,94.9219 L1266.4688,97.6406 Z "/><text fill="#000000" font-family="sans-serif" font-size="12" lengthAdjust="spacingAndGlyphs" textLength="57" x="1277.5" y="96.1543">ViewMain</text><!--MD5=[66004aa1b2b41dfc3553a089f11ca636]
class ViewPet--><rect fill="#FEFECE" filter="url(#f16uvn77bm0ga7)" height="32" id="ViewPet" style="stroke: #A80036; stroke-width: 1.5;" width="81" x="1318.5" y="294"/><ellipse cx="1333.5" cy="310" fill="#ADD1B2" rx="11" ry="11" style="stroke: #A80036; stroke-width: 1.0;"/><path d="M1336.4688,315.6406 Q1335.8906,315.9375 1335.25,316.0781 Q1334.6094,316.2344 1333.9063,316.2344 Q1331.4063,316.2344 1330.0781,314.5938 Q1328.7656,312.9375 1328.7656,309.8125 Q1328.7656,306.6875 1330.0781,305.0313 Q1331.4063,303.375 1333.9063,303.375 Q1334.6094,303.375 1335.25,303.5313 Q1335.9063,303.6875 1336.4688,303.9844 L1336.4688,306.7031 Q1335.8438,306.125 1335.25,305.8594 Q1334.6563,305.5781 1334.0313,305.5781 Q1332.6875,305.5781 1332,306.6563 Q1331.3125,307.7188 1331.3125,309.8125 Q1331.3125,311.9063 1332,312.9844 Q1332.6875,314.0469 1334.0313,314.0469 Q1334.6563,314.0469 1335.25,313.7813 Q1335.8438,313.5 1336.4688,312.9219 L1336.4688,315.6406 Z "/><text fill="#000000" font-family="sans-serif" font-size="12" lengthAdjust="spacingAndGlyphs" textLength="49" x="1347.5" y="314.1543">ViewPet</text><!--MD5=[27e4653765d9e56603ae0db51ef372f2]
class ViewRoom--><rect fill="#FEFECE" filter="url(#f16uvn77bm0ga7)" height="32" id="ViewRoom" style="stroke: #A80036; stroke-width: 1.5;" width="95" x="1434.5" y="294"/><ellipse cx="1449.5" cy="310" fill="#ADD1B2" rx="11" ry="11" style="stroke: #A80036; stroke-width: 1.0;"/><path d="M1452.4688,315.6406 Q1451.8906,315.9375 1451.25,316.0781 Q1450.6094,316.2344 1449.9063,316.2344 Q1447.4063,316.2344 1446.0781,314.5938 Q1444.7656,312.9375 1444.7656,309.8125 Q1444.7656,306.6875 1446.0781,305.0313 Q1447.4063,303.375 1449.9063,303.375 Q1450.6094,303.375 1451.25,303.5313 Q1451.9063,303.6875 1452.4688,303.9844 L1452.4688,306.7031 Q1451.8438,306.125 1451.25,305.8594 Q1450.6563,305.5781 1450.0313,305.5781 Q1448.6875,305.5781 1448,306.6563 Q1447.3125,307.7188 1447.3125,309.8125 Q1447.3125,311.9063 1448,312.9844 Q1448.6875,314.0469 1450.0313,314.0469 Q1450.6563,314.0469 1451.25,313.7813 Q1451.8438,313.5 1452.4688,312.9219 L1452.4688,315.6406 Z "/><text fill="#000000" font-family="sans-serif" font-size="12" lengthAdjust="spacingAndGlyphs" textLength="63" x="1463.5" y="314.1543">ViewRoom</text><!--MD5=[fe60a39180a13549a61d1a377547b35e]
class ViewStat--><rect fill="#FEFECE" filter="url(#f16uvn77bm0ga7)" height="32" id="ViewStat" style="stroke: #A80036; stroke-width: 1.5;" width="86" x="1431" y="420"/><ellipse cx="1446" cy="436" fill="#ADD1B2" rx="11" ry="11" style="stroke: #A80036; stroke-width: 1.0;"/><path d="M1448.9688,441.6406 Q1448.3906,441.9375 1447.75,442.0781 Q1447.1094,442.2344 1446.4063,442.2344 Q1443.9063,442.2344 1442.5781,440.5938 Q1441.2656,438.9375 1441.2656,435.8125 Q1441.2656,432.6875 1442.5781,431.0313 Q1443.9063,429.375 1446.4063,429.375 Q1447.1094,429.375 1447.75,429.5313 Q1448.4063,429.6875 1448.9688,429.9844 L1448.9688,432.7031 Q1448.3438,432.125 1447.75,431.8594 Q1447.1563,431.5781 1446.5313,431.5781 Q1445.1875,431.5781 1444.5,432.6563 Q1443.8125,433.7188 1443.8125,435.8125 Q1443.8125,437.9063 1444.5,438.9844 Q1445.1875,440.0469 1446.5313,440.0469 Q1447.1563,440.0469 1447.75,439.7813 Q1448.3438,439.5 1448.9688,438.9219 L1448.9688,441.6406 Z "/><text fill="#000000" font-family="sans-serif" font-size="12" lengthAdjust="spacingAndGlyphs" textLength="54" x="1460" y="440.1543">ViewStat</text><!--MD5=[9e3e829b1d67d6c705c38104337e7cce]
class ViewMenu--><rect fill="#FEFECE" filter="url(#f16uvn77bm0ga7)" height="32" id="ViewMenu" style="stroke: #A80036; stroke-width: 1.5;" width="94" x="1120" y="185"/><ellipse cx="1135" cy="201" fill="#ADD1B2" rx="11" ry="11" style="stroke: #A80036; stroke-width: 1.0;"/><path d="M1137.9688,206.6406 Q1137.3906,206.9375 1136.75,207.0781 Q1136.1094,207.2344 1135.4063,207.2344 Q1132.9063,207.2344 1131.5781,205.5938 Q1130.2656,203.9375 1130.2656,200.8125 Q1130.2656,197.6875 1131.5781,196.0313 Q1132.9063,194.375 1135.4063,194.375 Q1136.1094,194.375 1136.75,194.5313 Q1137.4063,194.6875 1137.9688,194.9844 L1137.9688,197.7031 Q1137.3438,197.125 1136.75,196.8594 Q1136.1563,196.5781 1135.5313,196.5781 Q1134.1875,196.5781 1133.5,197.6563 Q1132.8125,198.7188 1132.8125,200.8125 Q1132.8125,202.9063 1133.5,203.9844 Q1134.1875,205.0469 1135.5313,205.0469 Q1136.1563,205.0469 1136.75,204.7813 Q1137.3438,204.5 1137.9688,203.9219 L1137.9688,206.6406 Z "/><text fill="#000000" font-family="sans-serif" font-size="12" lengthAdjust="spacingAndGlyphs" textLength="62" x="1149" y="205.1543">ViewMenu</text><!--MD5=[bb8139252ab9d60963f0ad3aa85822d8]
class ViewCustomPet--><rect fill="#FEFECE" filter="url(#f16uvn77bm0ga7)" height="32" id="ViewCustomPet" style="stroke: #A80036; stroke-width: 1.5;" width="128" x="894" y="294"/><ellipse cx="909" cy="310" fill="#ADD1B2" rx="11" ry="11" style="stroke: #A80036; stroke-width: 1.0;"/><path d="M911.9688,315.6406 Q911.3906,315.9375 910.75,316.0781 Q910.1094,316.2344 909.4063,316.2344 Q906.9063,316.2344 905.5781,314.5938 Q904.2656,312.9375 904.2656,309.8125 Q904.2656,306.6875 905.5781,305.0313 Q906.9063,303.375 909.4063,303.375 Q910.1094,303.375 910.75,303.5313 Q911.4063,303.6875 911.9688,303.9844 L911.9688,306.7031 Q911.3438,306.125 910.75,305.8594 Q910.1563,305.5781 909.5313,305.5781 Q908.1875,305.5781 907.5,306.6563 Q906.8125,307.7188 906.8125,309.8125 Q906.8125,311.9063 907.5,312.9844 Q908.1875,314.0469 909.5313,314.0469 Q910.1563,314.0469 910.75,313.7813 Q911.3438,313.5 911.9688,312.9219 L911.9688,315.6406 Z "/><text fill="#000000" font-family="sans-serif" font-size="12" lengthAdjust="spacingAndGlyphs" textLength="96" x="923" y="314.1543">ViewCustomPet</text><!--MD5=[d18d64f195106826546ed42fd601b6d0]
class ViewLoad--><rect fill="#FEFECE" filter="url(#f16uvn77bm0ga7)" height="32" id="ViewLoad" style="stroke: #A80036; stroke-width: 1.5;" width="90" x="1057" y="294"/><ellipse cx="1072" cy="310" fill="#ADD1B2" rx="11" ry="11" style="stroke: #A80036; stroke-width: 1.0;"/><path d="M1074.9688,315.6406 Q1074.3906,315.9375 1073.75,316.0781 Q1073.1094,316.2344 1072.4063,316.2344 Q1069.9063,316.2344 1068.5781,314.5938 Q1067.2656,312.9375 1067.2656,309.8125 Q1067.2656,306.6875 1068.5781,305.0313 Q1069.9063,303.375 1072.4063,303.375 Q1073.1094,303.375 1073.75,303.5313 Q1074.4063,303.6875 1074.9688,303.9844 L1074.9688,306.7031 Q1074.3438,306.125 1073.75,305.8594 Q1073.1563,305.5781 1072.5313,305.5781 Q1071.1875,305.5781 1070.5,306.6563 Q1069.8125,307.7188 1069.8125,309.8125 Q1069.8125,311.9063 1070.5,312.9844 Q1071.1875,314.0469 1072.5313,314.0469 Q1073.1563,314.0469 1073.75,313.7813 Q1074.3438,313.5 1074.9688,312.9219 L1074.9688,315.6406 Z "/><text fill="#000000" font-family="sans-serif" font-size="12" lengthAdjust="spacingAndGlyphs" textLength="58" x="1086" y="314.1543">ViewLoad</text><!--MD5=[363299a84393b04db7416c04d3062cf1]
class ViewAction--><rect fill="#FEFECE" filter="url(#f16uvn77bm0ga7)" height="32" id="ViewAction" style="stroke: #A80036; stroke-width: 1.5;" width="99" x="1552.5" y="420"/><ellipse cx="1567.5" cy="436" fill="#ADD1B2" rx="11" ry="11" style="stroke: #A80036; stroke-width: 1.0;"/><path d="M1570.4688,441.6406 Q1569.8906,441.9375 1569.25,442.0781 Q1568.6094,442.2344 1567.9063,442.2344 Q1565.4063,442.2344 1564.0781,440.5938 Q1562.7656,438.9375 1562.7656,435.8125 Q1562.7656,432.6875 1564.0781,431.0313 Q1565.4063,429.375 1567.9063,429.375 Q1568.6094,429.375 1569.25,429.5313 Q1569.9063,429.6875 1570.4688,429.9844 L1570.4688,432.7031 Q1569.8438,432.125 1569.25,431.8594 Q1568.6563,431.5781 1568.0313,431.5781 Q1566.6875,431.5781 1566,432.6563 Q1565.3125,433.7188 1565.3125,435.8125 Q1565.3125,437.9063 1566,438.9844 Q1566.6875,440.0469 1568.0313,440.0469 Q1568.6563,440.0469 1569.25,439.7813 Q1569.8438,439.5 1570.4688,438.9219 L1570.4688,441.6406 Z "/><text fill="#000000" font-family="sans-serif" font-size="12" lengthAdjust="spacingAndGlyphs" textLength="67" x="1581.5" y="440.1543">ViewAction</text><!--MD5=[47d553743e6c0f650877be889f88f64f]
class ViewOption--><rect fill="#FEFECE" filter="url(#f16uvn77bm0ga7)" height="32" id="ViewOption" style="stroke: #A80036; stroke-width: 1.5;" width="101" x="1182.5" y="294"/><ellipse cx="1197.5" cy="310" fill="#ADD1B2" rx="11" ry="11" style="stroke: #A80036; stroke-width: 1.0;"/><path d="M1200.4688,315.6406 Q1199.8906,315.9375 1199.25,316.0781 Q1198.6094,316.2344 1197.9063,316.2344 Q1195.4063,316.2344 1194.0781,314.5938 Q1192.7656,312.9375 1192.7656,309.8125 Q1192.7656,306.6875 1194.0781,305.0313 Q1195.4063,303.375 1197.9063,303.375 Q1198.6094,303.375 1199.25,303.5313 Q1199.9063,303.6875 1200.4688,303.9844 L1200.4688,306.7031 Q1199.8438,306.125 1199.25,305.8594 Q1198.6563,305.5781 1198.0313,305.5781 Q1196.6875,305.5781 1196,306.6563 Q1195.3125,307.7188 1195.3125,309.8125 Q1195.3125,311.9063 1196,312.9844 Q1196.6875,314.0469 1198.0313,314.0469 Q1198.6563,314.0469 1199.25,313.7813 Q1199.8438,313.5 1200.4688,312.9219 L1200.4688,315.6406 Z "/><text fill="#000000" font-family="sans-serif" font-size="12" lengthAdjust="spacingAndGlyphs" textLength="69" x="1211.5" y="314.1543">ViewOption</text><!--MD5=[7ef7df81153a108328eb7a5b9355a136]
class ViewGame--><rect fill="#FEFECE" filter="url(#f16uvn77bm0ga7)" height="32" id="ViewGame" style="stroke: #A80036; stroke-width: 1.5;" width="96" x="1372" y="185"/><ellipse cx="1387" cy="201" fill="#ADD1B2" rx="11" ry="11" style="stroke: #A80036; stroke-width: 1.0;"/><path d="M1389.9688,206.6406 Q1389.3906,206.9375 1388.75,207.0781 Q1388.1094,207.2344 1387.4063,207.2344 Q1384.9063,207.2344 1383.5781,205.5938 Q1382.2656,203.9375 1382.2656,200.8125 Q1382.2656,197.6875 1383.5781,196.0313 Q1384.9063,194.375 1387.4063,194.375 Q1388.1094,194.375 1388.75,194.5313 Q1389.4063,194.6875 1389.9688,194.9844 L1389.9688,197.7031 Q1389.3438,197.125 1388.75,196.8594 Q1388.1563,196.5781 1387.5313,196.5781 Q1386.1875,196.5781 1385.5,197.6563 Q1384.8125,198.7188 1384.8125,200.8125 Q1384.8125,202.9063 1385.5,203.9844 Q1386.1875,205.0469 1387.5313,205.0469 Q1388.1563,205.0469 1388.75,204.7813 Q1389.3438,204.5 1389.9688,203.9219 L1389.9688,206.6406 Z "/><text fill="#000000" font-family="sans-serif" font-size="12" lengthAdjust="spacingAndGlyphs" textLength="64" x="1401" y="205.1543">ViewGame</text><!--MD5=[fab7056576ea3880aaf36e4ccb94a01c]
class ViewHUD--><rect fill="#FEFECE" filter="url(#f16uvn77bm0ga7)" height="32" id="ViewHUD" style="stroke: #A80036; stroke-width: 1.5;" width="87" x="1564.5" y="294"/><ellipse cx="1579.5" cy="310" fill="#ADD1B2" rx="11" ry="11" style="stroke: #A80036; stroke-width: 1.0;"/><path d="M1582.4688,315.6406 Q1581.8906,315.9375 1581.25,316.0781 Q1580.6094,316.2344 1579.9063,316.2344 Q1577.4063,316.2344 1576.0781,314.5938 Q1574.7656,312.9375 1574.7656,309.8125 Q1574.7656,306.6875 1576.0781,305.0313 Q1577.4063,303.375 1579.9063,303.375 Q1580.6094,303.375 1581.25,303.5313 Q1581.9063,303.6875 1582.4688,303.9844 L1582.4688,306.7031 Q1581.8438,306.125 1581.25,305.8594 Q1580.6563,305.5781 1580.0313,305.5781 Q1578.6875,305.5781 1578,306.6563 Q1577.3125,307.7188 1577.3125,309.8125 Q1577.3125,311.9063 1578,312.9844 Q1578.6875,314.0469 1580.0313,314.0469 Q1580.6563,314.0469 1581.25,313.7813 Q1581.8438,313.5 1582.4688,312.9219 L1582.4688,315.6406 Z "/><text fill="#000000" font-family="sans-serif" font-size="12" lengthAdjust="spacingAndGlyphs" textLength="55" x="1593.5" y="314.1543">ViewHUD</text><!--MD5=[b4d764e3c38fb7b1af6f2a8a636bdd8c]
class ControllerMain--><rect fill="#FEFECE" filter="url(#f16uvn77bm0ga7)" height="32" id="ControllerMain" style="stroke: #A80036; stroke-width: 1.5;" width="122" x="204" y="185"/><ellipse cx="219" cy="201" fill="#ADD1B2" rx="11" ry="11" style="stroke: #A80036; stroke-width: 1.0;"/><path d="M221.9688,206.6406 Q221.3906,206.9375 220.75,207.0781 Q220.1094,207.2344 219.4063,207.2344 Q216.9063,207.2344 215.5781,205.5938 Q214.2656,203.9375 214.2656,200.8125 Q214.2656,197.6875 215.5781,196.0313 Q216.9063,194.375 219.4063,194.375 Q220.1094,194.375 220.75,194.5313 Q221.4063,194.6875 221.9688,194.9844 L221.9688,197.7031 Q221.3438,197.125 220.75,196.8594 Q220.1563,196.5781 219.5313,196.5781 Q218.1875,196.5781 217.5,197.6563 Q216.8125,198.7188 216.8125,200.8125 Q216.8125,202.9063 217.5,203.9844 Q218.1875,205.0469 219.5313,205.0469 Q220.1563,205.0469 220.75,204.7813 Q221.3438,204.5 221.9688,203.9219 L221.9688,206.6406 Z "/><text fill="#000000" font-family="sans-serif" font-size="12" lengthAdjust="spacingAndGlyphs" textLength="90" x="233" y="205.1543">ControllerMain</text><!--MD5=[a8dd5522732e18611229f49aa10f22e6]
class ControllerPet--><rect fill="#FEFECE" filter="url(#f16uvn77bm0ga7)" height="65.6094" id="ControllerPet" style="stroke: #A80036; stroke-width: 1.5;" width="114" x="52" y="403"/><ellipse cx="67" cy="419" fill="#ADD1B2" rx="11" ry="11" style="stroke: #A80036; stroke-width: 1.0;"/><path d="M69.9688,424.6406 Q69.3906,424.9375 68.75,425.0781 Q68.1094,425.2344 67.4063,425.2344 Q64.9063,425.2344 63.5781,423.5938 Q62.2656,421.9375 62.2656,418.8125 Q62.2656,415.6875 63.5781,414.0313 Q64.9063,412.375 67.4063,412.375 Q68.1094,412.375 68.75,412.5313 Q69.4063,412.6875 69.9688,412.9844 L69.9688,415.7031 Q69.3438,415.125 68.75,414.8594 Q68.1563,414.5781 67.5313,414.5781 Q66.1875,414.5781 65.5,415.6563 Q64.8125,416.7188 64.8125,418.8125 Q64.8125,420.9063 65.5,421.9844 Q66.1875,423.0469 67.5313,423.0469 Q68.1563,423.0469 68.75,422.7813 Q69.3438,422.5 69.9688,421.9219 L69.9688,424.6406 Z "/><text fill="#000000" font-family="sans-serif" font-size="12" lengthAdjust="spacingAndGlyphs" textLength="82" x="81" y="423.1543">ControllerPet</text><line style="stroke: #A80036; stroke-width: 1.5;" x1="53" x2="165" y1="435" y2="435"/><rect fill="none" height="6" style="stroke: #C82930; stroke-width: 1.0;" width="6" x="60" y="443"/><text fill="#000000" font-family="sans-serif" font-size="11" lengthAdjust="spacingAndGlyphs" textLength="51" x="72" y="449.2104">ModelPet</text><rect fill="none" height="6" style="stroke: #C82930; stroke-width: 1.0;" width="6" x="60" y="455.8047"/><text fill="#000000" font-family="sans-serif" font-size="11" lengthAdjust="spacingAndGlyphs" textLength="44" x="72" y="462.0151">ViewPet</text><!--MD5=[87caa93e14c110f7c3c35dde97c8934c]
class ControllerRoom--><rect fill="#FEFECE" filter="url(#f16uvn77bm0ga7)" height="65.6094" id="ControllerRoom" style="stroke: #A80036; stroke-width: 1.5;" width="128" x="201" y="403"/><ellipse cx="216" cy="419" fill="#ADD1B2" rx="11" ry="11" style="stroke: #A80036; stroke-width: 1.0;"/><path d="M218.9688,424.6406 Q218.3906,424.9375 217.75,425.0781 Q217.1094,425.2344 216.4063,425.2344 Q213.9063,425.2344 212.5781,423.5938 Q211.2656,421.9375 211.2656,418.8125 Q211.2656,415.6875 212.5781,414.0313 Q213.9063,412.375 216.4063,412.375 Q217.1094,412.375 217.75,412.5313 Q218.4063,412.6875 218.9688,412.9844 L218.9688,415.7031 Q218.3438,415.125 217.75,414.8594 Q217.1563,414.5781 216.5313,414.5781 Q215.1875,414.5781 214.5,415.6563 Q213.8125,416.7188 213.8125,418.8125 Q213.8125,420.9063 214.5,421.9844 Q215.1875,423.0469 216.5313,423.0469 Q217.1563,423.0469 217.75,422.7813 Q218.3438,422.5 218.9688,421.9219 L218.9688,424.6406 Z "/><text fill="#000000" font-family="sans-serif" font-size="12" lengthAdjust="spacingAndGlyphs" textLength="96" x="230" y="423.1543">ControllerRoom</text><line style="stroke: #A80036; stroke-width: 1.5;" x1="202" x2="328" y1="435" y2="435"/><rect fill="none" height="6" style="stroke: #C82930; stroke-width: 1.0;" width="6" x="209" y="443"/><text fill="#000000" font-family="sans-serif" font-size="11" lengthAdjust="spacingAndGlyphs" textLength="65" x="221" y="449.2104">ModelRoom</text><rect fill="none" height="6" style="stroke: #C82930; stroke-width: 1.0;" width="6" x="209" y="455.8047"/><text fill="#000000" font-family="sans-serif" font-size="11" lengthAdjust="spacingAndGlyphs" textLength="58" x="221" y="462.0151">ViewRoom</text><!--MD5=[a8c4fef36f1be4f4b0b1faa4659e444b]
class ControllerStat--><rect fill="#FEFECE" filter="url(#f16uvn77bm0ga7)" height="65.6094" id="ControllerStat" style="stroke: #A80036; stroke-width: 1.5;" width="119" x="49.5" y="529"/><ellipse cx="64.5" cy="545" fill="#ADD1B2" rx="11" ry="11" style="stroke: #A80036; stroke-width: 1.0;"/><path d="M67.4688,550.6406 Q66.8906,550.9375 66.25,551.0781 Q65.6094,551.2344 64.9063,551.2344 Q62.4063,551.2344 61.0781,549.5938 Q59.7656,547.9375 59.7656,544.8125 Q59.7656,541.6875 61.0781,540.0313 Q62.4063,538.375 64.9063,538.375 Q65.6094,538.375 66.25,538.5313 Q66.9063,538.6875 67.4688,538.9844 L67.4688,541.7031 Q66.8438,541.125 66.25,540.8594 Q65.6563,540.5781 65.0313,540.5781 Q63.6875,540.5781 63,541.6563 Q62.3125,542.7188 62.3125,544.8125 Q62.3125,546.9063 63,547.9844 Q63.6875,549.0469 65.0313,549.0469 Q65.6563,549.0469 66.25,548.7813 Q66.8438,548.5 67.4688,547.9219 L67.4688,550.6406 Z "/><text fill="#000000" font-family="sans-serif" font-size="12" lengthAdjust="spacingAndGlyphs" textLength="87" x="78.5" y="549.1543">ControllerStat</text><line style="stroke: #A80036; stroke-width: 1.5;" x1="50.5" x2="167.5" y1="561" y2="561"/><rect fill="none" height="6" style="stroke: #C82930; stroke-width: 1.0;" width="6" x="57.5" y="569"/><text fill="#000000" font-family="sans-serif" font-size="11" lengthAdjust="spacingAndGlyphs" textLength="56" x="69.5" y="575.2104">ModelStat</text><rect fill="none" height="6" style="stroke: #C82930; stroke-width: 1.0;" width="6" x="57.5" y="581.8047"/><text fill="#000000" font-family="sans-serif" font-size="11" lengthAdjust="spacingAndGlyphs" textLength="49" x="69.5" y="588.0151">ViewStat</text><!--MD5=[ad9dd60b9e2ea02c403c8610a882571c]
class ControllerMenu--><rect fill="#FEFECE" filter="url(#f16uvn77bm0ga7)" height="65.6094" id="ControllerMenu" style="stroke: #A80036; stroke-width: 1.5;" width="127" x="38.5" y="277"/><ellipse cx="53.5" cy="293" fill="#ADD1B2" rx="11" ry="11" style="stroke: #A80036; stroke-width: 1.0;"/><path d="M56.4688,298.6406 Q55.8906,298.9375 55.25,299.0781 Q54.6094,299.2344 53.9063,299.2344 Q51.4063,299.2344 50.0781,297.5938 Q48.7656,295.9375 48.7656,292.8125 Q48.7656,289.6875 50.0781,288.0313 Q51.4063,286.375 53.9063,286.375 Q54.6094,286.375 55.25,286.5313 Q55.9063,286.6875 56.4688,286.9844 L56.4688,289.7031 Q55.8438,289.125 55.25,288.8594 Q54.6563,288.5781 54.0313,288.5781 Q52.6875,288.5781 52,289.6563 Q51.3125,290.7188 51.3125,292.8125 Q51.3125,294.9063 52,295.9844 Q52.6875,297.0469 54.0313,297.0469 Q54.6563,297.0469 55.25,296.7813 Q55.8438,296.5 56.4688,295.9219 L56.4688,298.6406 Z "/><text fill="#000000" font-family="sans-serif" font-size="12" lengthAdjust="spacingAndGlyphs" textLength="95" x="67.5" y="297.1543">ControllerMenu</text><line style="stroke: #A80036; stroke-width: 1.5;" x1="39.5" x2="164.5" y1="309" y2="309"/><rect fill="none" height="6" style="stroke: #C82930; stroke-width: 1.0;" width="6" x="46.5" y="317"/><text fill="#000000" font-family="sans-serif" font-size="11" lengthAdjust="spacingAndGlyphs" textLength="70" x="58.5" y="323.2104">ModelOption</text><rect fill="none" height="6" style="stroke: #C82930; stroke-width: 1.0;" width="6" x="46.5" y="329.8047"/><text fill="#000000" font-family="sans-serif" font-size="11" lengthAdjust="spacingAndGlyphs" textLength="56" x="58.5" y="336.0151">ViewMenu</text><!--MD5=[a23319bb6651943ab882a8895f3a4933]
class ControllerGame--><rect fill="#FEFECE" filter="url(#f16uvn77bm0ga7)" height="65.6094" id="ControllerGame" style="stroke: #A80036; stroke-width: 1.5;" width="129" x="200.5" y="277"/><ellipse cx="215.5" cy="293" fill="#ADD1B2" rx="11" ry="11" style="stroke: #A80036; stroke-width: 1.0;"/><path d="M218.4688,298.6406 Q217.8906,298.9375 217.25,299.0781 Q216.6094,299.2344 215.9063,299.2344 Q213.4063,299.2344 212.0781,297.5938 Q210.7656,295.9375 210.7656,292.8125 Q210.7656,289.6875 212.0781,288.0313 Q213.4063,286.375 215.9063,286.375 Q216.6094,286.375 217.25,286.5313 Q217.9063,286.6875 218.4688,286.9844 L218.4688,289.7031 Q217.8438,289.125 217.25,288.8594 Q216.6563,288.5781 216.0313,288.5781 Q214.6875,288.5781 214,289.6563 Q213.3125,290.7188 213.3125,292.8125 Q213.3125,294.9063 214,295.9844 Q214.6875,297.0469 216.0313,297.0469 Q216.6563,297.0469 217.25,296.7813 Q217.8438,296.5 218.4688,295.9219 L218.4688,298.6406 Z "/><text fill="#000000" font-family="sans-serif" font-size="12" lengthAdjust="spacingAndGlyphs" textLength="97" x="229.5" y="297.1543">ControllerGame</text><line style="stroke: #A80036; stroke-width: 1.5;" x1="201.5" x2="328.5" y1="309" y2="309"/><rect fill="none" height="6" style="stroke: #C82930; stroke-width: 1.0;" width="6" x="208.5" y="317"/><text fill="#000000" font-family="sans-serif" font-size="11" lengthAdjust="spacingAndGlyphs" textLength="67" x="220.5" y="323.2104">ModelGame</text><rect fill="none" height="6" style="stroke: #C82930; stroke-width: 1.0;" width="6" x="208.5" y="329.8047"/><text fill="#000000" font-family="sans-serif" font-size="11" lengthAdjust="spacingAndGlyphs" textLength="60" x="220.5" y="336.0151">ViewGame</text><!--MD5=[335f4d9be48430461c68bf6d6fdba145]
class App--><rect fill="#FEFECE" filter="url(#f16uvn77bm0ga7)" height="32" id="App" style="stroke: #A80036; stroke-width: 1.5;" width="56" x="301" y="76"/><ellipse cx="316" cy="92" fill="#ADD1B2" rx="11" ry="11" style="stroke: #A80036; stroke-width: 1.0;"/><path d="M318.9688,97.6406 Q318.3906,97.9375 317.75,98.0781 Q317.1094,98.2344 316.4063,98.2344 Q313.9063,98.2344 312.5781,96.5938 Q311.2656,94.9375 311.2656,91.8125 Q311.2656,88.6875 312.5781,87.0313 Q313.9063,85.375 316.4063,85.375 Q317.1094,85.375 317.75,85.5313 Q318.4063,85.6875 318.9688,85.9844 L318.9688,88.7031 Q318.3438,88.125 317.75,87.8594 Q317.1563,87.5781 316.5313,87.5781 Q315.1875,87.5781 314.5,88.6563 Q313.8125,89.7188 313.8125,91.8125 Q313.8125,93.9063 314.5,94.9844 Q315.1875,96.0469 316.5313,96.0469 Q317.1563,96.0469 317.75,95.7813 Q318.3438,95.5 318.9688,94.9219 L318.9688,97.6406 Z "/><text fill="#000000" font-family="sans-serif" font-size="12" lengthAdjust="spacingAndGlyphs" textLength="24" x="330" y="96.1543">App</text><!--MD5=[d6c567a33847b77a8058f3d00eba0565]
class Lang--><rect fill="#FEFECE" filter="url(#f16uvn77bm0ga7)" height="32" id="Lang" style="stroke: #A80036; stroke-width: 1.5;" width="61" x="362.5" y="185"/><ellipse cx="377.5" cy="201" fill="#B4A7E5" rx="11" ry="11" style="stroke: #A80036; stroke-width: 1.0;"/><path d="M373.4219,196.7656 L373.4219,194.6094 L380.8125,194.6094 L380.8125,196.7656 L378.3438,196.7656 L378.3438,204.8438 L380.8125,204.8438 L380.8125,207 L373.4219,207 L373.4219,204.8438 L375.8906,204.8438 L375.8906,196.7656 L373.4219,196.7656 Z "/><text fill="#000000" font-family="sans-serif" font-size="12" font-style="italic" lengthAdjust="spacingAndGlyphs" textLength="29" x="391.5" y="205.1543">Lang</text><!--MD5=[e0b0f022d868ad323502bc5184d39584]
class Fr--><rect fill="#FEFECE" filter="url(#f16uvn77bm0ga7)" height="32" id="Fr" style="stroke: #A80036; stroke-width: 1.5;" width="44" x="368" y="294"/><ellipse cx="383" cy="310" fill="#ADD1B2" rx="11" ry="11" style="stroke: #A80036; stroke-width: 1.0;"/><path d="M385.9688,315.6406 Q385.3906,315.9375 384.75,316.0781 Q384.1094,316.2344 383.4063,316.2344 Q380.9063,316.2344 379.5781,314.5938 Q378.2656,312.9375 378.2656,309.8125 Q378.2656,306.6875 379.5781,305.0313 Q380.9063,303.375 383.4063,303.375 Q384.1094,303.375 384.75,303.5313 Q385.4063,303.6875 385.9688,303.9844 L385.9688,306.7031 Q385.3438,306.125 384.75,305.8594 Q384.1563,305.5781 383.5313,305.5781 Q382.1875,305.5781 381.5,306.6563 Q380.8125,307.7188 380.8125,309.8125 Q380.8125,311.9063 381.5,312.9844 Q382.1875,314.0469 383.5313,314.0469 Q384.1563,314.0469 384.75,313.7813 Q385.3438,313.5 385.9688,312.9219 L385.9688,315.6406 Z "/><text fill="#000000" font-family="sans-serif" font-size="12" lengthAdjust="spacingAndGlyphs" textLength="12" x="397" y="314.1543">Fr</text><!--MD5=[11aee42e7bda610f1ae7beec836b5cfb]
class En--><rect fill="#FEFECE" filter="url(#f16uvn77bm0ga7)" height="32" id="En" style="stroke: #A80036; stroke-width: 1.5;" width="48" x="447" y="294"/><ellipse cx="462" cy="310" fill="#ADD1B2" rx="11" ry="11" style="stroke: #A80036; stroke-width: 1.0;"/><path d="M464.9688,315.6406 Q464.3906,315.9375 463.75,316.0781 Q463.1094,316.2344 462.4063,316.2344 Q459.9063,316.2344 458.5781,314.5938 Q457.2656,312.9375 457.2656,309.8125 Q457.2656,306.6875 458.5781,305.0313 Q459.9063,303.375 462.4063,303.375 Q463.1094,303.375 463.75,303.5313 Q464.4063,303.6875 464.9688,303.9844 L464.9688,306.7031 Q464.3438,306.125 463.75,305.8594 Q463.1563,305.5781 462.5313,305.5781 Q461.1875,305.5781 460.5,306.6563 Q459.8125,307.7188 459.8125,309.8125 Q459.8125,311.9063 460.5,312.9844 Q461.1875,314.0469 462.5313,314.0469 Q463.1563,314.0469 463.75,313.7813 Q464.3438,313.5 464.9688,312.9219 L464.9688,315.6406 Z "/><text fill="#000000" font-family="sans-serif" font-size="12" lengthAdjust="spacingAndGlyphs" textLength="16" x="476" y="314.1543">En</text><!--MD5=[44ec7255984f9518cac8781f20697b6b]
link App to Lang--><path d="M338.17,108.33 C349.48,127.24 368.73,159.43 381.15,180.19 " fill="none" id="App-&gt;Lang" style="stroke: #A80036; stroke-width: 1.0; stroke-dasharray: 7.0,7.0;"/><polygon fill="#A80036" points="383.85,184.7,382.6495,174.9246,381.2775,180.4125,375.7896,179.0405,383.85,184.7" style="stroke: #A80036; stroke-width: 1.0;"/><!--MD5=[7a711561beb8c4cdf7234f3728bff315]
reverse link Lang to Fr--><path d="M392.01,237.45 C391.47,256.54 390.84,279.09 390.43,293.7 " fill="none" id="Lang&lt;-Fr" style="stroke: #A80036; stroke-width: 1.0; stroke-dasharray: 7.0,7.0;"/><polygon fill="none" points="385.01,237.13,392.57,217.33,399.01,237.52,385.01,237.13" style="stroke: #A80036; stroke-width: 1.0;"/><!--MD5=[19ab5e507920a255ac7de618dae57c4a]
reverse link Lang to En--><path d="M416.16,233.77 C430.59,253.56 448.5,278.14 459.85,293.7 " fill="none" id="Lang&lt;-En" style="stroke: #A80036; stroke-width: 1.0; stroke-dasharray: 7.0,7.0;"/><polygon fill="none" points="410.3,237.62,404.18,217.33,421.61,229.37,410.3,237.62" style="stroke: #A80036; stroke-width: 1.0;"/><!--MD5=[4f466642c94ef2a73e975d7b90f446a9]
reverse link ModelPet to Robot--><path d="M717.35,236.52 C711.41,255.8 704.3,278.85 699.72,293.7 " fill="none" id="ModelPet&lt;-Robot" style="stroke: #A80036; stroke-width: 1.0; stroke-dasharray: 7.0,7.0;"/><polygon fill="none" points="710.69,234.38,723.27,217.33,724.07,238.51,710.69,234.38" style="stroke: #A80036; stroke-width: 1.0;"/><!--MD5=[74c06c42aaa6c8b448d0338302a44b32]
reverse link ModelPet to Animal--><path d="M749.88,234.07 C763.35,253.81 780,278.21 790.56,293.7 " fill="none" id="ModelPet&lt;-Animal" style="stroke: #A80036; stroke-width: 1.0; stroke-dasharray: 7.0,7.0;"/><polygon fill="none" points="743.95,237.8,738.46,217.33,755.51,229.91,743.95,237.8" style="stroke: #A80036; stroke-width: 1.0;"/><!--MD5=[679d484d0ec5c45ee4398561603d9200]
reverse link ModelPet to ModelStat--><path d="M695.94,224.87 C666.67,245.75 624.25,276.01 599.07,293.97 " fill="none" id="ModelPet&lt;-ModelStat" style="stroke: #A80036; stroke-width: 1.0;"/><polygon fill="#FFFFFF" points="706.83,217.1,699.6226,217.3307,697.0634,224.0724,704.2708,223.8417,706.83,217.1" style="stroke: #A80036; stroke-width: 1.0;"/><!--MD5=[e75d7599123d6020c26870df9debc80d]
reverse link ModelGame to ModelPet--><path d="M728,121.48 C728,141.77 728,168.26 728,184.7 " fill="none" id="ModelGame&lt;-ModelPet" style="stroke: #A80036; stroke-width: 1.0;"/><polygon fill="#FFFFFF" points="728,108.33,724,114.33,728,120.33,732,114.33,728,108.33" style="stroke: #A80036; stroke-width: 1.0;"/><!--MD5=[5fe33b06dadbfbab2ab1b29b9177ea2a]
reverse link ModelGame to ModelRoom--><path d="M699.18,116.47 C689.28,124.55 678.14,133.66 668,142 C650.33,156.54 630.22,173.21 616.1,184.94 " fill="none" id="ModelGame&lt;-ModelRoom" style="stroke: #A80036; stroke-width: 1.0;"/><polygon fill="#FFFFFF" points="709.32,108.2,702.1417,108.8875,700.0155,115.778,707.1938,115.0905,709.32,108.2" style="stroke: #A80036; stroke-width: 1.0;"/><!--MD5=[48f795a1ea3fbd0d2cb0c5362b9d4642]
reverse link ViewMain to ViewGame--><path d="M1321.14,116.71 C1345.87,137.55 1381.12,167.24 1402.16,184.97 " fill="none" id="ViewMain&lt;-ViewGame" style="stroke: #A80036; stroke-width: 1.0;"/><polygon fill="#A80036" points="1310.93,108.1,1312.9435,115.0243,1320.1096,115.8288,1318.0961,108.9045,1310.93,108.1" style="stroke: #A80036; stroke-width: 1.0;"/><!--MD5=[27327f93782e4d7f55ee92f2800cf328]
reverse link ViewMain to ViewMenu--><path d="M1265.08,116.71 C1240.54,137.55 1205.57,167.24 1184.7,184.97 " fill="none" id="ViewMain&lt;-ViewMenu" style="stroke: #A80036; stroke-width: 1.0;"/><polygon fill="#A80036" points="1275.21,108.1,1268.0471,108.9327,1266.0609,115.8649,1273.2237,115.0322,1275.21,108.1" style="stroke: #A80036; stroke-width: 1.0;"/><!--MD5=[dc9a0cf9061e5980592fd14bccfd4b22]
reverse link ViewMenu to ViewOption--><path d="M1183.31,228.45 C1195.97,248.97 1213.08,276.71 1223.56,293.7 " fill="none" id="ViewMenu&lt;-ViewOption" style="stroke: #A80036; stroke-width: 1.0;"/><polygon fill="#A80036" points="1176.46,217.33,1176.2026,224.5365,1182.7558,227.5458,1183.0132,220.3393,1176.46,217.33" style="stroke: #A80036; stroke-width: 1.0;"/><!--MD5=[e10526ff49d25e2e6608a2602bee142a]
reverse link ViewMenu to ViewCustomPet--><path d="M1125.8,223.09 C1084.97,244 1023.46,275.49 987.35,293.97 " fill="none" id="ViewMenu&lt;-ViewCustomPet" style="stroke: #A80036; stroke-width: 1.0;"/><polygon fill="#A80036" points="1137.5,217.1,1130.3361,216.2759,1126.8201,222.5718,1133.984,223.3958,1137.5,217.1" style="stroke: #A80036; stroke-width: 1.0;"/><!--MD5=[5c866a0f2d9af451f59908340b4b6a64]
reverse link ViewMenu to ViewLoad--><path d="M1150.93,228.45 C1138.47,248.97 1121.62,276.71 1111.3,293.7 " fill="none" id="ViewMenu&lt;-ViewLoad" style="stroke: #A80036; stroke-width: 1.0;"/><polygon fill="#A80036" points="1157.69,217.33,1151.158,220.385,1151.4657,227.5895,1157.9977,224.5345,1157.69,217.33" style="stroke: #A80036; stroke-width: 1.0;"/><!--MD5=[1d9a8e0ffb92ef49066cb9379d34f6cb]
reverse link ViewGame to ViewHUD--><path d="M1458.25,223.77 C1494.97,244.67 1549.47,275.69 1581.6,293.97 " fill="none" id="ViewGame&lt;-ViewHUD" style="stroke: #A80036; stroke-width: 1.0;"/><polygon fill="#A80036" points="1446.54,217.1,1449.7711,223.5467,1456.9646,223.0437,1453.7335,216.597,1446.54,217.1" style="stroke: #A80036; stroke-width: 1.0;"/><!--MD5=[4ae9e93d27cc485812247138474be005]
reverse link ViewHUD to ViewAction--><path d="M1606.62,339.5 C1605.41,364.44 1603.71,399.71 1602.74,419.67 " fill="none" id="ViewHUD&lt;-ViewAction" style="stroke: #A80036; stroke-width: 1.0;"/><polygon fill="#A80036" points="1607.26,326.2,1602.9746,331.9996,1606.6798,338.186,1610.9652,332.3864,1607.26,326.2" style="stroke: #A80036; stroke-width: 1.0;"/><!--MD5=[784197eb996fe32eed30e04d57fb653d]
reverse link ViewHUD to ViewStat--><path d="M1581.98,335.08 C1554.94,360.1 1513.44,398.5 1490.57,419.67 " fill="none" id="ViewHUD&lt;-ViewStat" style="stroke: #A80036; stroke-width: 1.0;"/><polygon fill="#FFFFFF" points="1591.57,326.2,1584.4493,327.3384,1582.7615,334.3492,1589.8821,333.2108,1591.57,326.2" style="stroke: #A80036; stroke-width: 1.0;"/><!--MD5=[039506e5731d0cdfbf522b46b8721320]
reverse link ViewGame to ViewRoom--><path d="M1435.49,228.73 C1447.37,249.23 1463.33,276.79 1473.13,293.7 " fill="none" id="ViewGame&lt;-ViewRoom" style="stroke: #A80036; stroke-width: 1.0;"/><polygon fill="#FFFFFF" points="1428.88,217.33,1428.4231,224.5266,1434.8904,227.7163,1435.3473,220.5197,1428.88,217.33" style="stroke: #A80036; stroke-width: 1.0;"/><!--MD5=[e0ae029bf8757a3b8d6502cf0a33182e]
reverse link ViewGame to ViewPet--><path d="M1404.76,228.73 C1393.07,249.23 1377.37,276.79 1367.72,293.7 " fill="none" id="ViewGame&lt;-ViewPet" style="stroke: #A80036; stroke-width: 1.0;"/><polygon fill="#FFFFFF" points="1411.26,217.33,1404.8115,220.5575,1405.3106,227.7514,1411.7591,224.5238,1411.26,217.33" style="stroke: #A80036; stroke-width: 1.0;"/><!--MD5=[8466e2bcad38480452a253633c3f3bd1]
reverse link ControllerPet to ControllerStat--><path d="M109,482.34 C109,497.78 109,514.72 109,528.91 " fill="none" id="ControllerPet&lt;-ControllerStat" style="stroke: #A80036; stroke-width: 1.0;"/><polygon fill="#A80036" points="109,469.26,105,475.26,109,481.26,113,475.26,109,469.26" style="stroke: #A80036; stroke-width: 1.0;"/><!--MD5=[9229276c4cb4dbc1b86b8c5fab041ffd]
reverse link ControllerGame to ControllerPet--><path d="M214.07,351.48 C193.09,368.16 169.12,387.21 149.38,402.91 " fill="none" id="ControllerGame&lt;-ControllerPet" style="stroke: #A80036; stroke-width: 1.0;"/><polygon fill="#A80036" points="224.42,343.26,217.2337,343.8576,215.0213,350.7209,222.2076,350.1233,224.42,343.26" style="stroke: #A80036; stroke-width: 1.0;"/><!--MD5=[5368b871930de664e6112bd1802f89fc]
reverse link ControllerGame to ControllerRoom--><path d="M265,356.34 C265,371.78 265,388.72 265,402.91 " fill="none" id="ControllerGame&lt;-ControllerRoom" style="stroke: #A80036; stroke-width: 1.0;"/><polygon fill="#A80036" points="265,343.26,261,349.26,265,355.26,269,349.26,265,343.26" style="stroke: #A80036; stroke-width: 1.0;"/><!--MD5=[02a37f491c2df9bd9d4949cd82160a48]
reverse link ControllerMain to ControllerGame--><path d="M265,230.4 C265,244.72 265,262.14 265,276.94 " fill="none" id="ControllerMain&lt;-ControllerGame" style="stroke: #A80036; stroke-width: 1.0;"/><polygon fill="#A80036" points="265,217.33,261,223.33,265,229.33,269,223.33,265,217.33" style="stroke: #A80036; stroke-width: 1.0;"/><!--MD5=[3249f48cac15ffa808744ad64ad49e16]
reverse link ControllerMain to ControllerMenu--><path d="M231,224.32 C207.85,239.51 176.86,259.86 151.05,276.8 " fill="none" id="ControllerMain&lt;-ControllerMenu" style="stroke: #A80036; stroke-width: 1.0;"/><polygon fill="#A80036" points="241.99,217.1,234.7791,217.0451,231.955,223.6801,239.1659,223.7351,241.99,217.1" style="stroke: #A80036; stroke-width: 1.0;"/><!--MD5=[70e24e9f57e7ae5a199a36f32818d8ad]
reverse link App to ControllerMain--><path d="M313.01,119.73 C300.75,140.23 284.27,167.79 274.15,184.7 " fill="none" id="App&lt;-ControllerMain" style="stroke: #A80036; stroke-width: 1.0;"/><polygon fill="#A80036" points="319.83,108.33,313.3177,111.4268,313.6716,118.6292,320.1839,115.5324,319.83,108.33" style="stroke: #A80036; stroke-width: 1.0;"/><!--MD5=[7fa9803d10b526d96aad362f3c2751b6]
@startuml

hide empty attributes
hide empty methods

class App
interface Lang
App ..> Lang
class Fr
Class En
Lang <|.. Fr
Lang <|.. En

package model {
    class ModelRoom
    class ModelGame
    class ModelStat
    class ModelOption {
	    -Lang lang
	    -Double volume
    }
    interface ModelPet
    class Robot
    class Animal
    
    ModelPet <|.. Robot
    ModelPet <|.. Animal
    ModelPet o- - ModelStat
    ModelGame o- - ModelPet
    ModelGame o- - ModelRoom
}

package view {
	class ViewMain
    class ViewPet
    class ViewRoom
    class ViewStat
    class ViewMenu
    class ViewCustomPet
    class ViewLoad
    class ViewAction
    class ViewOption
    class ViewGame
    class ViewHUD
    
    ViewMain *- - ViewGame
    ViewMain *- - ViewMenu
    ViewMenu *- - ViewOption
    ViewMenu *- - ViewCustomPet
    ViewMenu *- - ViewLoad
    ViewGame *- - ViewHUD
    ViewHUD  *- - ViewAction
    ViewHUD  o- - ViewStat
    ViewGame o- - ViewRoom
    ViewGame o- - ViewPet
}

package Controller {
    class ControllerMain
    
    class ControllerPet {
        -ModelPet
        -ViewPet
    }
    class ControllerRoom {
        -ModelRoom
        -ViewRoom
    }
    class ControllerStat {
        -ModelStat
        -ViewStat
    }
    class ControllerMenu {
        -ModelOption
        -ViewMenu
    }
    class ControllerGame {
        -ModelGame
        -ViewGame
    }
    
    ControllerPet *- - ControllerStat
    ControllerGame *- - ControllerPet
    ControllerGame *- - ControllerRoom
    ControllerMain *- - ControllerGame 
    ControllerMain *- - ControllerMenu
    
}

App *- - ControllerMain

@enduml

PlantUML version 1.2020.02(Sun Mar 01 11:22:07 CET 2020)
(GPL source distribution)
Java Runtime: OpenJDK Runtime Environment
JVM: OpenJDK 64-Bit Server VM
Java Version: 17.0.5+8-Debian-2
Operating System: Linux
Default Encoding: UTF-8
Language: fr
Country: FR
--></g></svg>