<?xml version="1.0" encoding="UTF-8" standalone="no"?><svg xmlns="http://www.w3.org/2000/svg" xmlns:xlink="http://www.w3.org/1999/xlink" contentScriptType="application/ecmascript" contentStyleType="text/css" height="648px" preserveAspectRatio="none" style="width:1722px;height:648px;" version="1.1" viewBox="0 0 1722 648" width="1722px" zoomAndPan="magnify"><defs><filter height="300%" id="f10g29il2jcngm" width="300%" x="-1" y="-1"><feGaussianBlur result="blurOut" stdDeviation="2.0"/><feColorMatrix in="blurOut" result="blurOut2" type="matrix" values="0 0 0 0 0 0 0 0 0 0 0 0 0 0 0 0 0 0 .4 0"/><feOffset dx="4.0" dy="4.0" in="blurOut2" result="blurOut3"/><feBlend in="SourceGraphic" in2="blurOut3" mode="normal"/></filter></defs><g><!--MD5=[78194114d808d3aaca9db31f547b0644]
cluster lang--><polygon fill="#FFFFFF" filter="url(#f10g29il2jcngm)" points="370,36.5,409,36.5,416,58.7969,568,58.7969,568,258,370,258,370,36.5" style="stroke: #000000; stroke-width: 1.5;"/><line style="stroke: #000000; stroke-width: 1.5;" x1="370" x2="416" y1="58.7969" y2="58.7969"/><text fill="#000000" font-family="sans-serif" font-size="14" font-weight="bold" lengthAdjust="spacingAndGlyphs" textLength="33" x="374" y="51.4951">lang</text><!--MD5=[5d4cd377749310b66bf14896f5cd8d9b]
cluster model--><polygon fill="#FFFFFF" filter="url(#f10g29il2jcngm)" points="592,24,646,24,653,46.2969,886,46.2969,886,493,592,493,592,24" style="stroke: #000000; stroke-width: 1.5;"/><line style="stroke: #000000; stroke-width: 1.5;" x1="592" x2="653" y1="46.2969" y2="46.2969"/><text fill="#000000" font-family="sans-serif" font-size="14" font-weight="bold" lengthAdjust="spacingAndGlyphs" textLength="48" x="596" y="38.9951">model</text><!--MD5=[86cbce8df1eb9d604fbbb2fa357940f8]
cluster view--><polygon fill="#FFFFFF" filter="url(#f10g29il2jcngm)" points="910,53.5,953,53.5,960,75.7969,1700,75.7969,1700,493,910,493,910,53.5" style="stroke: #000000; stroke-width: 1.5;"/><line style="stroke: #000000; stroke-width: 1.5;" x1="910" x2="960" y1="75.7969" y2="75.7969"/><text fill="#000000" font-family="sans-serif" font-size="14" font-weight="bold" lengthAdjust="spacingAndGlyphs" textLength="37" x="914" y="68.4951">view</text><!--MD5=[1f2cfc53d9d308f53762fd0fcbaa4873]
cluster Controller--><polygon fill="#FFFFFF" filter="url(#f10g29il2jcngm)" points="22,175,107,175,114,197.2969,346,197.2969,346,636,22,636,22,175" style="stroke: #000000; stroke-width: 1.5;"/><line style="stroke: #000000; stroke-width: 1.5;" x1="22" x2="114" y1="197.2969" y2="197.2969"/><text fill="#000000" font-family="sans-serif" font-size="14" font-weight="bold" lengthAdjust="spacingAndGlyphs" textLength="79" x="26" y="189.9951">Controller</text><!--MD5=[d6c567a33847b77a8058f3d00eba0565]
class Lang--><rect fill="#FEFECE" filter="url(#f10g29il2jcngm)" height="65.6094" id="Lang" style="stroke: #A80036; stroke-width: 1.5;" width="166" x="386" y="71.5"/><ellipse cx="450.25" cy="87.5" fill="#A9DCDF" rx="11" ry="11" style="stroke: #A80036; stroke-width: 1.0;"/><path d="M450.3594,82.8438 L449.2031,87.9219 L451.5313,87.9219 L450.3594,82.8438 Z M448.875,80.6094 L451.8594,80.6094 L455.2188,93 L452.7656,93 L452,89.9375 L448.7188,89.9375 L447.9688,93 L445.5313,93 L448.875,80.6094 Z "/><text fill="#000000" font-family="sans-serif" font-size="12" font-style="italic" lengthAdjust="spacingAndGlyphs" textLength="29" x="470.75" y="91.6543">Lang</text><line style="stroke: #A80036; stroke-width: 1.5;" x1="387" x2="551" y1="103.5" y2="103.5"/><ellipse cx="397" cy="114.5" fill="#84BE84" rx="3" ry="3" style="stroke: #038048; stroke-width: 1.0;"/><text fill="#000000" font-family="sans-serif" font-size="11" lengthAdjust="spacingAndGlyphs" text-decoration="underline" textLength="90" x="406" y="117.7104">getLang() : Lang</text><ellipse cx="397" cy="127.3047" fill="#84BE84" rx="3" ry="3" style="stroke: #038048; stroke-width: 1.0;"/><text fill="#000000" font-family="sans-serif" font-size="11" lengthAdjust="spacingAndGlyphs" text-decoration="underline" textLength="140" x="406" y="130.5151">setLang( newInst : Lang )</text><!--MD5=[e0b0f022d868ad323502bc5184d39584]
class Fr--><rect fill="#FEFECE" filter="url(#f10g29il2jcngm)" height="32" id="Fr" style="stroke: #A80036; stroke-width: 1.5;" width="44" x="405" y="210"/><ellipse cx="420" cy="226" fill="#ADD1B2" rx="11" ry="11" style="stroke: #A80036; stroke-width: 1.0;"/><path d="M422.9688,231.6406 Q422.3906,231.9375 421.75,232.0781 Q421.1094,232.2344 420.4063,232.2344 Q417.9063,232.2344 416.5781,230.5938 Q415.2656,228.9375 415.2656,225.8125 Q415.2656,222.6875 416.5781,221.0313 Q417.9063,219.375 420.4063,219.375 Q421.1094,219.375 421.75,219.5313 Q422.4063,219.6875 422.9688,219.9844 L422.9688,222.7031 Q422.3438,222.125 421.75,221.8594 Q421.1563,221.5781 420.5313,221.5781 Q419.1875,221.5781 418.5,222.6563 Q417.8125,223.7188 417.8125,225.8125 Q417.8125,227.9063 418.5,228.9844 Q419.1875,230.0469 420.5313,230.0469 Q421.1563,230.0469 421.75,229.7813 Q422.3438,229.5 422.9688,228.9219 L422.9688,231.6406 Z "/><text fill="#000000" font-family="sans-serif" font-size="12" lengthAdjust="spacingAndGlyphs" textLength="12" x="434" y="230.1543">Fr</text><!--MD5=[11aee42e7bda610f1ae7beec836b5cfb]
class En--><rect fill="#FEFECE" filter="url(#f10g29il2jcngm)" height="32" id="En" style="stroke: #A80036; stroke-width: 1.5;" width="48" x="484" y="210"/><ellipse cx="499" cy="226" fill="#ADD1B2" rx="11" ry="11" style="stroke: #A80036; stroke-width: 1.0;"/><path d="M501.9688,231.6406 Q501.3906,231.9375 500.75,232.0781 Q500.1094,232.2344 499.4063,232.2344 Q496.9063,232.2344 495.5781,230.5938 Q494.2656,228.9375 494.2656,225.8125 Q494.2656,222.6875 495.5781,221.0313 Q496.9063,219.375 499.4063,219.375 Q500.1094,219.375 500.75,219.5313 Q501.4063,219.6875 501.9688,219.9844 L501.9688,222.7031 Q501.3438,222.125 500.75,221.8594 Q500.1563,221.5781 499.5313,221.5781 Q498.1875,221.5781 497.5,222.6563 Q496.8125,223.7188 496.8125,225.8125 Q496.8125,227.9063 497.5,228.9844 Q498.1875,230.0469 499.5313,230.0469 Q500.1563,230.0469 500.75,229.7813 Q501.3438,229.5 501.9688,228.9219 L501.9688,231.6406 Z "/><text fill="#000000" font-family="sans-serif" font-size="12" lengthAdjust="spacingAndGlyphs" textLength="16" x="513" y="230.1543">En</text><!--MD5=[ce588b4fa91533db47d899c6e7055886]
class ModelRoom--><rect fill="#FEFECE" filter="url(#f10g29il2jcngm)" height="32" id="ModelRoom" style="stroke: #A80036; stroke-width: 1.5;" width="104" x="639" y="210"/><ellipse cx="654" cy="226" fill="#ADD1B2" rx="11" ry="11" style="stroke: #A80036; stroke-width: 1.0;"/><path d="M656.9688,231.6406 Q656.3906,231.9375 655.75,232.0781 Q655.1094,232.2344 654.4063,232.2344 Q651.9063,232.2344 650.5781,230.5938 Q649.2656,228.9375 649.2656,225.8125 Q649.2656,222.6875 650.5781,221.0313 Q651.9063,219.375 654.4063,219.375 Q655.1094,219.375 655.75,219.5313 Q656.4063,219.6875 656.9688,219.9844 L656.9688,222.7031 Q656.3438,222.125 655.75,221.8594 Q655.1563,221.5781 654.5313,221.5781 Q653.1875,221.5781 652.5,222.6563 Q651.8125,223.7188 651.8125,225.8125 Q651.8125,227.9063 652.5,228.9844 Q653.1875,230.0469 654.5313,230.0469 Q655.1563,230.0469 655.75,229.7813 Q656.3438,229.5 656.9688,228.9219 L656.9688,231.6406 Z "/><text fill="#000000" font-family="sans-serif" font-size="12" lengthAdjust="spacingAndGlyphs" textLength="72" x="668" y="230.1543">ModelRoom</text><!--MD5=[5ef06c8862a4439f35d8b1de5f55aae6]
class ModelGame--><rect fill="#FEFECE" filter="url(#f10g29il2jcngm)" height="32" id="ModelGame" style="stroke: #A80036; stroke-width: 1.5;" width="105" x="764.5" y="88.5"/><ellipse cx="779.5" cy="104.5" fill="#ADD1B2" rx="11" ry="11" style="stroke: #A80036; stroke-width: 1.0;"/><path d="M782.4688,110.1406 Q781.8906,110.4375 781.25,110.5781 Q780.6094,110.7344 779.9063,110.7344 Q777.4063,110.7344 776.0781,109.0938 Q774.7656,107.4375 774.7656,104.3125 Q774.7656,101.1875 776.0781,99.5313 Q777.4063,97.875 779.9063,97.875 Q780.6094,97.875 781.25,98.0313 Q781.9063,98.1875 782.4688,98.4844 L782.4688,101.2031 Q781.8438,100.625 781.25,100.3594 Q780.6563,100.0781 780.0313,100.0781 Q778.6875,100.0781 778,101.1563 Q777.3125,102.2188 777.3125,104.3125 Q777.3125,106.4063 778,107.4844 Q778.6875,108.5469 780.0313,108.5469 Q780.6563,108.5469 781.25,108.2813 Q781.8438,108 782.4688,107.4219 L782.4688,110.1406 Z "/><text fill="#000000" font-family="sans-serif" font-size="12" lengthAdjust="spacingAndGlyphs" textLength="73" x="793.5" y="108.6543">ModelGame</text><!--MD5=[93eb20994f674771d0d73131508a8777]
class ModelStat--><rect fill="#FEFECE" filter="url(#f10g29il2jcngm)" height="32" id="ModelStat" style="stroke: #A80036; stroke-width: 1.5;" width="95" x="728.5" y="445"/><ellipse cx="743.5" cy="461" fill="#ADD1B2" rx="11" ry="11" style="stroke: #A80036; stroke-width: 1.0;"/><path d="M746.4688,466.6406 Q745.8906,466.9375 745.25,467.0781 Q744.6094,467.2344 743.9063,467.2344 Q741.4063,467.2344 740.0781,465.5938 Q738.7656,463.9375 738.7656,460.8125 Q738.7656,457.6875 740.0781,456.0313 Q741.4063,454.375 743.9063,454.375 Q744.6094,454.375 745.25,454.5313 Q745.9063,454.6875 746.4688,454.9844 L746.4688,457.7031 Q745.8438,457.125 745.25,456.8594 Q744.6563,456.5781 744.0313,456.5781 Q742.6875,456.5781 742,457.6563 Q741.3125,458.7188 741.3125,460.8125 Q741.3125,462.9063 742,463.9844 Q742.6875,465.0469 744.0313,465.0469 Q744.6563,465.0469 745.25,464.7813 Q745.8438,464.5 746.4688,463.9219 L746.4688,466.6406 Z "/><text fill="#000000" font-family="sans-serif" font-size="12" lengthAdjust="spacingAndGlyphs" textLength="63" x="757.5" y="465.1543">ModelStat</text><!--MD5=[9a411119b15aaa1f323289dd6a5d4481]
class ModelOption--><rect fill="#FEFECE" filter="url(#f10g29il2jcngm)" height="91.2188" id="ModelOption" style="stroke: #A80036; stroke-width: 1.5;" width="121" x="608.5" y="59"/><ellipse cx="628.45" cy="75" fill="#ADD1B2" rx="11" ry="11" style="stroke: #A80036; stroke-width: 1.0;"/><path d="M631.4188,80.6406 Q630.8406,80.9375 630.2,81.0781 Q629.5594,81.2344 628.8563,81.2344 Q626.3563,81.2344 625.0281,79.5938 Q623.7156,77.9375 623.7156,74.8125 Q623.7156,71.6875 625.0281,70.0313 Q626.3563,68.375 628.8563,68.375 Q629.5594,68.375 630.2,68.5313 Q630.8563,68.6875 631.4188,68.9844 L631.4188,71.7031 Q630.7938,71.125 630.2,70.8594 Q629.6063,70.5781 628.9813,70.5781 Q627.6375,70.5781 626.95,71.6563 Q626.2625,72.7188 626.2625,74.8125 Q626.2625,76.9063 626.95,77.9844 Q627.6375,79.0469 628.9813,79.0469 Q629.6063,79.0469 630.2,78.7813 Q630.7938,78.5 631.4188,77.9219 L631.4188,80.6406 Z "/><text fill="#000000" font-family="sans-serif" font-size="12" lengthAdjust="spacingAndGlyphs" textLength="78" x="643.55" y="79.1543">ModelOption</text><line style="stroke: #A80036; stroke-width: 1.5;" x1="609.5" x2="728.5" y1="91" y2="91"/><rect fill="none" height="6" style="stroke: #C82930; stroke-width: 1.0;" width="6" x="616.5" y="99"/><text fill="#000000" font-family="sans-serif" font-size="11" lengthAdjust="spacingAndGlyphs" textLength="95" x="628.5" y="105.2104">language : string</text><rect fill="none" height="6" style="stroke: #C82930; stroke-width: 1.0;" width="6" x="616.5" y="111.8047"/><text fill="#000000" font-family="sans-serif" font-size="11" lengthAdjust="spacingAndGlyphs" textLength="89" x="628.5" y="118.0151">volume : double</text><rect fill="none" height="6" style="stroke: #C82930; stroke-width: 1.0;" width="6" x="616.5" y="124.6094"/><text fill="#000000" font-family="sans-serif" font-size="11" lengthAdjust="spacingAndGlyphs" textLength="79" x="628.5" y="130.8198">h_window : int</text><rect fill="none" height="6" style="stroke: #C82930; stroke-width: 1.0;" width="6" x="616.5" y="137.4141"/><text fill="#000000" font-family="sans-serif" font-size="11" lengthAdjust="spacingAndGlyphs" textLength="81" x="628.5" y="143.6245">w_window : int</text><!--MD5=[42b6c9b95235c21ed83560c01266501d]
class ModelPet--><rect fill="#FEFECE" filter="url(#f10g29il2jcngm)" height="32" id="ModelPet" style="stroke: #A80036; stroke-width: 1.5;" width="86" x="778" y="210"/><ellipse cx="793" cy="226" fill="#B4A7E5" rx="11" ry="11" style="stroke: #A80036; stroke-width: 1.0;"/><path d="M788.9219,221.7656 L788.9219,219.6094 L796.3125,219.6094 L796.3125,221.7656 L793.8438,221.7656 L793.8438,229.8438 L796.3125,229.8438 L796.3125,232 L788.9219,232 L788.9219,229.8438 L791.3906,229.8438 L791.3906,221.7656 L788.9219,221.7656 Z "/><text fill="#000000" font-family="sans-serif" font-size="12" font-style="italic" lengthAdjust="spacingAndGlyphs" textLength="54" x="807" y="230.1543">ModelPet</text><!--MD5=[60fb4f72b7635aa97affd2efc062a79f]
class Robot--><rect fill="#FEFECE" filter="url(#f10g29il2jcngm)" height="32" id="Robot" style="stroke: #A80036; stroke-width: 1.5;" width="69" x="688.5" y="319"/><ellipse cx="703.5" cy="335" fill="#ADD1B2" rx="11" ry="11" style="stroke: #A80036; stroke-width: 1.0;"/><path d="M706.4688,340.6406 Q705.8906,340.9375 705.25,341.0781 Q704.6094,341.2344 703.9063,341.2344 Q701.4063,341.2344 700.0781,339.5938 Q698.7656,337.9375 698.7656,334.8125 Q698.7656,331.6875 700.0781,330.0313 Q701.4063,328.375 703.9063,328.375 Q704.6094,328.375 705.25,328.5313 Q705.9063,328.6875 706.4688,328.9844 L706.4688,331.7031 Q705.8438,331.125 705.25,330.8594 Q704.6563,330.5781 704.0313,330.5781 Q702.6875,330.5781 702,331.6563 Q701.3125,332.7188 701.3125,334.8125 Q701.3125,336.9063 702,337.9844 Q702.6875,339.0469 704.0313,339.0469 Q704.6563,339.0469 705.25,338.7813 Q705.8438,338.5 706.4688,337.9219 L706.4688,340.6406 Z "/><text fill="#000000" font-family="sans-serif" font-size="12" lengthAdjust="spacingAndGlyphs" textLength="37" x="717.5" y="339.1543">Robot</text><!--MD5=[7fd4401f5c5cb0e3d029c879cad30c04]
class Animal--><rect fill="#FEFECE" filter="url(#f10g29il2jcngm)" height="32" id="Animal" style="stroke: #A80036; stroke-width: 1.5;" width="73" x="792.5" y="319"/><ellipse cx="807.5" cy="335" fill="#ADD1B2" rx="11" ry="11" style="stroke: #A80036; stroke-width: 1.0;"/><path d="M810.4688,340.6406 Q809.8906,340.9375 809.25,341.0781 Q808.6094,341.2344 807.9063,341.2344 Q805.4063,341.2344 804.0781,339.5938 Q802.7656,337.9375 802.7656,334.8125 Q802.7656,331.6875 804.0781,330.0313 Q805.4063,328.375 807.9063,328.375 Q808.6094,328.375 809.25,328.5313 Q809.9063,328.6875 810.4688,328.9844 L810.4688,331.7031 Q809.8438,331.125 809.25,330.8594 Q808.6563,330.5781 808.0313,330.5781 Q806.6875,330.5781 806,331.6563 Q805.3125,332.7188 805.3125,334.8125 Q805.3125,336.9063 806,337.9844 Q806.6875,339.0469 808.0313,339.0469 Q808.6563,339.0469 809.25,338.7813 Q809.8438,338.5 810.4688,337.9219 L810.4688,340.6406 Z "/><text fill="#000000" font-family="sans-serif" font-size="12" lengthAdjust="spacingAndGlyphs" textLength="41" x="821.5" y="339.1543">Animal</text><!--MD5=[2369c9863c53bf1001e6873222dfb3fe]
class ViewMain--><rect fill="#FEFECE" filter="url(#f10g29il2jcngm)" height="32" id="ViewMain" style="stroke: #A80036; stroke-width: 1.5;" width="89" x="1280.5" y="88.5"/><ellipse cx="1295.5" cy="104.5" fill="#ADD1B2" rx="11" ry="11" style="stroke: #A80036; stroke-width: 1.0;"/><path d="M1298.4688,110.1406 Q1297.8906,110.4375 1297.25,110.5781 Q1296.6094,110.7344 1295.9063,110.7344 Q1293.4063,110.7344 1292.0781,109.0938 Q1290.7656,107.4375 1290.7656,104.3125 Q1290.7656,101.1875 1292.0781,99.5313 Q1293.4063,97.875 1295.9063,97.875 Q1296.6094,97.875 1297.25,98.0313 Q1297.9063,98.1875 1298.4688,98.4844 L1298.4688,101.2031 Q1297.8438,100.625 1297.25,100.3594 Q1296.6563,100.0781 1296.0313,100.0781 Q1294.6875,100.0781 1294,101.1563 Q1293.3125,102.2188 1293.3125,104.3125 Q1293.3125,106.4063 1294,107.4844 Q1294.6875,108.5469 1296.0313,108.5469 Q1296.6563,108.5469 1297.25,108.2813 Q1297.8438,108 1298.4688,107.4219 L1298.4688,110.1406 Z "/><text fill="#000000" font-family="sans-serif" font-size="12" lengthAdjust="spacingAndGlyphs" textLength="57" x="1309.5" y="108.6543">ViewMain</text><!--MD5=[66004aa1b2b41dfc3553a089f11ca636]
class ViewPet--><rect fill="#FEFECE" filter="url(#f10g29il2jcngm)" height="32" id="ViewPet" style="stroke: #A80036; stroke-width: 1.5;" width="81" x="1350.5" y="319"/><ellipse cx="1365.5" cy="335" fill="#ADD1B2" rx="11" ry="11" style="stroke: #A80036; stroke-width: 1.0;"/><path d="M1368.4688,340.6406 Q1367.8906,340.9375 1367.25,341.0781 Q1366.6094,341.2344 1365.9063,341.2344 Q1363.4063,341.2344 1362.0781,339.5938 Q1360.7656,337.9375 1360.7656,334.8125 Q1360.7656,331.6875 1362.0781,330.0313 Q1363.4063,328.375 1365.9063,328.375 Q1366.6094,328.375 1367.25,328.5313 Q1367.9063,328.6875 1368.4688,328.9844 L1368.4688,331.7031 Q1367.8438,331.125 1367.25,330.8594 Q1366.6563,330.5781 1366.0313,330.5781 Q1364.6875,330.5781 1364,331.6563 Q1363.3125,332.7188 1363.3125,334.8125 Q1363.3125,336.9063 1364,337.9844 Q1364.6875,339.0469 1366.0313,339.0469 Q1366.6563,339.0469 1367.25,338.7813 Q1367.8438,338.5 1368.4688,337.9219 L1368.4688,340.6406 Z "/><text fill="#000000" font-family="sans-serif" font-size="12" lengthAdjust="spacingAndGlyphs" textLength="49" x="1379.5" y="339.1543">ViewPet</text><!--MD5=[27e4653765d9e56603ae0db51ef372f2]
class ViewRoom--><rect fill="#FEFECE" filter="url(#f10g29il2jcngm)" height="32" id="ViewRoom" style="stroke: #A80036; stroke-width: 1.5;" width="95" x="1466.5" y="319"/><ellipse cx="1481.5" cy="335" fill="#ADD1B2" rx="11" ry="11" style="stroke: #A80036; stroke-width: 1.0;"/><path d="M1484.4688,340.6406 Q1483.8906,340.9375 1483.25,341.0781 Q1482.6094,341.2344 1481.9063,341.2344 Q1479.4063,341.2344 1478.0781,339.5938 Q1476.7656,337.9375 1476.7656,334.8125 Q1476.7656,331.6875 1478.0781,330.0313 Q1479.4063,328.375 1481.9063,328.375 Q1482.6094,328.375 1483.25,328.5313 Q1483.9063,328.6875 1484.4688,328.9844 L1484.4688,331.7031 Q1483.8438,331.125 1483.25,330.8594 Q1482.6563,330.5781 1482.0313,330.5781 Q1480.6875,330.5781 1480,331.6563 Q1479.3125,332.7188 1479.3125,334.8125 Q1479.3125,336.9063 1480,337.9844 Q1480.6875,339.0469 1482.0313,339.0469 Q1482.6563,339.0469 1483.25,338.7813 Q1483.8438,338.5 1484.4688,337.9219 L1484.4688,340.6406 Z "/><text fill="#000000" font-family="sans-serif" font-size="12" lengthAdjust="spacingAndGlyphs" textLength="63" x="1495.5" y="339.1543">ViewRoom</text><!--MD5=[fe60a39180a13549a61d1a377547b35e]
class ViewStat--><rect fill="#FEFECE" filter="url(#f10g29il2jcngm)" height="32" id="ViewStat" style="stroke: #A80036; stroke-width: 1.5;" width="86" x="1463" y="445"/><ellipse cx="1478" cy="461" fill="#ADD1B2" rx="11" ry="11" style="stroke: #A80036; stroke-width: 1.0;"/><path d="M1480.9688,466.6406 Q1480.3906,466.9375 1479.75,467.0781 Q1479.1094,467.2344 1478.4063,467.2344 Q1475.9063,467.2344 1474.5781,465.5938 Q1473.2656,463.9375 1473.2656,460.8125 Q1473.2656,457.6875 1474.5781,456.0313 Q1475.9063,454.375 1478.4063,454.375 Q1479.1094,454.375 1479.75,454.5313 Q1480.4063,454.6875 1480.9688,454.9844 L1480.9688,457.7031 Q1480.3438,457.125 1479.75,456.8594 Q1479.1563,456.5781 1478.5313,456.5781 Q1477.1875,456.5781 1476.5,457.6563 Q1475.8125,458.7188 1475.8125,460.8125 Q1475.8125,462.9063 1476.5,463.9844 Q1477.1875,465.0469 1478.5313,465.0469 Q1479.1563,465.0469 1479.75,464.7813 Q1480.3438,464.5 1480.9688,463.9219 L1480.9688,466.6406 Z "/><text fill="#000000" font-family="sans-serif" font-size="12" lengthAdjust="spacingAndGlyphs" textLength="54" x="1492" y="465.1543">ViewStat</text><!--MD5=[9e3e829b1d67d6c705c38104337e7cce]
class ViewMenu--><rect fill="#FEFECE" filter="url(#f10g29il2jcngm)" height="32" id="ViewMenu" style="stroke: #A80036; stroke-width: 1.5;" width="94" x="1152" y="210"/><ellipse cx="1167" cy="226" fill="#ADD1B2" rx="11" ry="11" style="stroke: #A80036; stroke-width: 1.0;"/><path d="M1169.9688,231.6406 Q1169.3906,231.9375 1168.75,232.0781 Q1168.1094,232.2344 1167.4063,232.2344 Q1164.9063,232.2344 1163.5781,230.5938 Q1162.2656,228.9375 1162.2656,225.8125 Q1162.2656,222.6875 1163.5781,221.0313 Q1164.9063,219.375 1167.4063,219.375 Q1168.1094,219.375 1168.75,219.5313 Q1169.4063,219.6875 1169.9688,219.9844 L1169.9688,222.7031 Q1169.3438,222.125 1168.75,221.8594 Q1168.1563,221.5781 1167.5313,221.5781 Q1166.1875,221.5781 1165.5,222.6563 Q1164.8125,223.7188 1164.8125,225.8125 Q1164.8125,227.9063 1165.5,228.9844 Q1166.1875,230.0469 1167.5313,230.0469 Q1168.1563,230.0469 1168.75,229.7813 Q1169.3438,229.5 1169.9688,228.9219 L1169.9688,231.6406 Z "/><text fill="#000000" font-family="sans-serif" font-size="12" lengthAdjust="spacingAndGlyphs" textLength="62" x="1181" y="230.1543">ViewMenu</text><!--MD5=[bb8139252ab9d60963f0ad3aa85822d8]
class ViewCustomPet--><rect fill="#FEFECE" filter="url(#f10g29il2jcngm)" height="32" id="ViewCustomPet" style="stroke: #A80036; stroke-width: 1.5;" width="128" x="926" y="319"/><ellipse cx="941" cy="335" fill="#ADD1B2" rx="11" ry="11" style="stroke: #A80036; stroke-width: 1.0;"/><path d="M943.9688,340.6406 Q943.3906,340.9375 942.75,341.0781 Q942.1094,341.2344 941.4063,341.2344 Q938.9063,341.2344 937.5781,339.5938 Q936.2656,337.9375 936.2656,334.8125 Q936.2656,331.6875 937.5781,330.0313 Q938.9063,328.375 941.4063,328.375 Q942.1094,328.375 942.75,328.5313 Q943.4063,328.6875 943.9688,328.9844 L943.9688,331.7031 Q943.3438,331.125 942.75,330.8594 Q942.1563,330.5781 941.5313,330.5781 Q940.1875,330.5781 939.5,331.6563 Q938.8125,332.7188 938.8125,334.8125 Q938.8125,336.9063 939.5,337.9844 Q940.1875,339.0469 941.5313,339.0469 Q942.1563,339.0469 942.75,338.7813 Q943.3438,338.5 943.9688,337.9219 L943.9688,340.6406 Z "/><text fill="#000000" font-family="sans-serif" font-size="12" lengthAdjust="spacingAndGlyphs" textLength="96" x="955" y="339.1543">ViewCustomPet</text><!--MD5=[d18d64f195106826546ed42fd601b6d0]
class ViewLoad--><rect fill="#FEFECE" filter="url(#f10g29il2jcngm)" height="32" id="ViewLoad" style="stroke: #A80036; stroke-width: 1.5;" width="90" x="1089" y="319"/><ellipse cx="1104" cy="335" fill="#ADD1B2" rx="11" ry="11" style="stroke: #A80036; stroke-width: 1.0;"/><path d="M1106.9688,340.6406 Q1106.3906,340.9375 1105.75,341.0781 Q1105.1094,341.2344 1104.4063,341.2344 Q1101.9063,341.2344 1100.5781,339.5938 Q1099.2656,337.9375 1099.2656,334.8125 Q1099.2656,331.6875 1100.5781,330.0313 Q1101.9063,328.375 1104.4063,328.375 Q1105.1094,328.375 1105.75,328.5313 Q1106.4063,328.6875 1106.9688,328.9844 L1106.9688,331.7031 Q1106.3438,331.125 1105.75,330.8594 Q1105.1563,330.5781 1104.5313,330.5781 Q1103.1875,330.5781 1102.5,331.6563 Q1101.8125,332.7188 1101.8125,334.8125 Q1101.8125,336.9063 1102.5,337.9844 Q1103.1875,339.0469 1104.5313,339.0469 Q1105.1563,339.0469 1105.75,338.7813 Q1106.3438,338.5 1106.9688,337.9219 L1106.9688,340.6406 Z "/><text fill="#000000" font-family="sans-serif" font-size="12" lengthAdjust="spacingAndGlyphs" textLength="58" x="1118" y="339.1543">ViewLoad</text><!--MD5=[363299a84393b04db7416c04d3062cf1]
class ViewAction--><rect fill="#FEFECE" filter="url(#f10g29il2jcngm)" height="32" id="ViewAction" style="stroke: #A80036; stroke-width: 1.5;" width="99" x="1584.5" y="445"/><ellipse cx="1599.5" cy="461" fill="#ADD1B2" rx="11" ry="11" style="stroke: #A80036; stroke-width: 1.0;"/><path d="M1602.4688,466.6406 Q1601.8906,466.9375 1601.25,467.0781 Q1600.6094,467.2344 1599.9063,467.2344 Q1597.4063,467.2344 1596.0781,465.5938 Q1594.7656,463.9375 1594.7656,460.8125 Q1594.7656,457.6875 1596.0781,456.0313 Q1597.4063,454.375 1599.9063,454.375 Q1600.6094,454.375 1601.25,454.5313 Q1601.9063,454.6875 1602.4688,454.9844 L1602.4688,457.7031 Q1601.8438,457.125 1601.25,456.8594 Q1600.6563,456.5781 1600.0313,456.5781 Q1598.6875,456.5781 1598,457.6563 Q1597.3125,458.7188 1597.3125,460.8125 Q1597.3125,462.9063 1598,463.9844 Q1598.6875,465.0469 1600.0313,465.0469 Q1600.6563,465.0469 1601.25,464.7813 Q1601.8438,464.5 1602.4688,463.9219 L1602.4688,466.6406 Z "/><text fill="#000000" font-family="sans-serif" font-size="12" lengthAdjust="spacingAndGlyphs" textLength="67" x="1613.5" y="465.1543">ViewAction</text><!--MD5=[47d553743e6c0f650877be889f88f64f]
class ViewOption--><rect fill="#FEFECE" filter="url(#f10g29il2jcngm)" height="32" id="ViewOption" style="stroke: #A80036; stroke-width: 1.5;" width="101" x="1214.5" y="319"/><ellipse cx="1229.5" cy="335" fill="#ADD1B2" rx="11" ry="11" style="stroke: #A80036; stroke-width: 1.0;"/><path d="M1232.4688,340.6406 Q1231.8906,340.9375 1231.25,341.0781 Q1230.6094,341.2344 1229.9063,341.2344 Q1227.4063,341.2344 1226.0781,339.5938 Q1224.7656,337.9375 1224.7656,334.8125 Q1224.7656,331.6875 1226.0781,330.0313 Q1227.4063,328.375 1229.9063,328.375 Q1230.6094,328.375 1231.25,328.5313 Q1231.9063,328.6875 1232.4688,328.9844 L1232.4688,331.7031 Q1231.8438,331.125 1231.25,330.8594 Q1230.6563,330.5781 1230.0313,330.5781 Q1228.6875,330.5781 1228,331.6563 Q1227.3125,332.7188 1227.3125,334.8125 Q1227.3125,336.9063 1228,337.9844 Q1228.6875,339.0469 1230.0313,339.0469 Q1230.6563,339.0469 1231.25,338.7813 Q1231.8438,338.5 1232.4688,337.9219 L1232.4688,340.6406 Z "/><text fill="#000000" font-family="sans-serif" font-size="12" lengthAdjust="spacingAndGlyphs" textLength="69" x="1243.5" y="339.1543">ViewOption</text><!--MD5=[7ef7df81153a108328eb7a5b9355a136]
class ViewGame--><rect fill="#FEFECE" filter="url(#f10g29il2jcngm)" height="32" id="ViewGame" style="stroke: #A80036; stroke-width: 1.5;" width="96" x="1404" y="210"/><ellipse cx="1419" cy="226" fill="#ADD1B2" rx="11" ry="11" style="stroke: #A80036; stroke-width: 1.0;"/><path d="M1421.9688,231.6406 Q1421.3906,231.9375 1420.75,232.0781 Q1420.1094,232.2344 1419.4063,232.2344 Q1416.9063,232.2344 1415.5781,230.5938 Q1414.2656,228.9375 1414.2656,225.8125 Q1414.2656,222.6875 1415.5781,221.0313 Q1416.9063,219.375 1419.4063,219.375 Q1420.1094,219.375 1420.75,219.5313 Q1421.4063,219.6875 1421.9688,219.9844 L1421.9688,222.7031 Q1421.3438,222.125 1420.75,221.8594 Q1420.1563,221.5781 1419.5313,221.5781 Q1418.1875,221.5781 1417.5,222.6563 Q1416.8125,223.7188 1416.8125,225.8125 Q1416.8125,227.9063 1417.5,228.9844 Q1418.1875,230.0469 1419.5313,230.0469 Q1420.1563,230.0469 1420.75,229.7813 Q1421.3438,229.5 1421.9688,228.9219 L1421.9688,231.6406 Z "/><text fill="#000000" font-family="sans-serif" font-size="12" lengthAdjust="spacingAndGlyphs" textLength="64" x="1433" y="230.1543">ViewGame</text><!--MD5=[fab7056576ea3880aaf36e4ccb94a01c]
class ViewHUD--><rect fill="#FEFECE" filter="url(#f10g29il2jcngm)" height="32" id="ViewHUD" style="stroke: #A80036; stroke-width: 1.5;" width="87" x="1596.5" y="319"/><ellipse cx="1611.5" cy="335" fill="#ADD1B2" rx="11" ry="11" style="stroke: #A80036; stroke-width: 1.0;"/><path d="M1614.4688,340.6406 Q1613.8906,340.9375 1613.25,341.0781 Q1612.6094,341.2344 1611.9063,341.2344 Q1609.4063,341.2344 1608.0781,339.5938 Q1606.7656,337.9375 1606.7656,334.8125 Q1606.7656,331.6875 1608.0781,330.0313 Q1609.4063,328.375 1611.9063,328.375 Q1612.6094,328.375 1613.25,328.5313 Q1613.9063,328.6875 1614.4688,328.9844 L1614.4688,331.7031 Q1613.8438,331.125 1613.25,330.8594 Q1612.6563,330.5781 1612.0313,330.5781 Q1610.6875,330.5781 1610,331.6563 Q1609.3125,332.7188 1609.3125,334.8125 Q1609.3125,336.9063 1610,337.9844 Q1610.6875,339.0469 1612.0313,339.0469 Q1612.6563,339.0469 1613.25,338.7813 Q1613.8438,338.5 1614.4688,337.9219 L1614.4688,340.6406 Z "/><text fill="#000000" font-family="sans-serif" font-size="12" lengthAdjust="spacingAndGlyphs" textLength="55" x="1625.5" y="339.1543">ViewHUD</text><!--MD5=[b4d764e3c38fb7b1af6f2a8a636bdd8c]
class ControllerMain--><rect fill="#FEFECE" filter="url(#f10g29il2jcngm)" height="32" id="ControllerMain" style="stroke: #A80036; stroke-width: 1.5;" width="122" x="122" y="210"/><ellipse cx="137" cy="226" fill="#ADD1B2" rx="11" ry="11" style="stroke: #A80036; stroke-width: 1.0;"/><path d="M139.9688,231.6406 Q139.3906,231.9375 138.75,232.0781 Q138.1094,232.2344 137.4063,232.2344 Q134.9063,232.2344 133.5781,230.5938 Q132.2656,228.9375 132.2656,225.8125 Q132.2656,222.6875 133.5781,221.0313 Q134.9063,219.375 137.4063,219.375 Q138.1094,219.375 138.75,219.5313 Q139.4063,219.6875 139.9688,219.9844 L139.9688,222.7031 Q139.3438,222.125 138.75,221.8594 Q138.1563,221.5781 137.5313,221.5781 Q136.1875,221.5781 135.5,222.6563 Q134.8125,223.7188 134.8125,225.8125 Q134.8125,227.9063 135.5,228.9844 Q136.1875,230.0469 137.5313,230.0469 Q138.1563,230.0469 138.75,229.7813 Q139.3438,229.5 139.9688,228.9219 L139.9688,231.6406 Z "/><text fill="#000000" font-family="sans-serif" font-size="12" lengthAdjust="spacingAndGlyphs" textLength="90" x="151" y="230.1543">ControllerMain</text><!--MD5=[a8dd5522732e18611229f49aa10f22e6]
class ControllerPet--><rect fill="#FEFECE" filter="url(#f10g29il2jcngm)" height="65.6094" id="ControllerPet" style="stroke: #A80036; stroke-width: 1.5;" width="114" x="52" y="428"/><ellipse cx="67" cy="444" fill="#ADD1B2" rx="11" ry="11" style="stroke: #A80036; stroke-width: 1.0;"/><path d="M69.9688,449.6406 Q69.3906,449.9375 68.75,450.0781 Q68.1094,450.2344 67.4063,450.2344 Q64.9063,450.2344 63.5781,448.5938 Q62.2656,446.9375 62.2656,443.8125 Q62.2656,440.6875 63.5781,439.0313 Q64.9063,437.375 67.4063,437.375 Q68.1094,437.375 68.75,437.5313 Q69.4063,437.6875 69.9688,437.9844 L69.9688,440.7031 Q69.3438,440.125 68.75,439.8594 Q68.1563,439.5781 67.5313,439.5781 Q66.1875,439.5781 65.5,440.6563 Q64.8125,441.7188 64.8125,443.8125 Q64.8125,445.9063 65.5,446.9844 Q66.1875,448.0469 67.5313,448.0469 Q68.1563,448.0469 68.75,447.7813 Q69.3438,447.5 69.9688,446.9219 L69.9688,449.6406 Z "/><text fill="#000000" font-family="sans-serif" font-size="12" lengthAdjust="spacingAndGlyphs" textLength="82" x="81" y="448.1543">ControllerPet</text><line style="stroke: #A80036; stroke-width: 1.5;" x1="53" x2="165" y1="460" y2="460"/><rect fill="none" height="6" style="stroke: #C82930; stroke-width: 1.0;" width="6" x="60" y="468"/><text fill="#000000" font-family="sans-serif" font-size="11" lengthAdjust="spacingAndGlyphs" textLength="51" x="72" y="474.2104">ModelPet</text><rect fill="none" height="6" style="stroke: #C82930; stroke-width: 1.0;" width="6" x="60" y="480.8047"/><text fill="#000000" font-family="sans-serif" font-size="11" lengthAdjust="spacingAndGlyphs" textLength="44" x="72" y="487.0151">ViewPet</text><!--MD5=[87caa93e14c110f7c3c35dde97c8934c]
class ControllerRoom--><rect fill="#FEFECE" filter="url(#f10g29il2jcngm)" height="65.6094" id="ControllerRoom" style="stroke: #A80036; stroke-width: 1.5;" width="128" x="201" y="428"/><ellipse cx="216" cy="444" fill="#ADD1B2" rx="11" ry="11" style="stroke: #A80036; stroke-width: 1.0;"/><path d="M218.9688,449.6406 Q218.3906,449.9375 217.75,450.0781 Q217.1094,450.2344 216.4063,450.2344 Q213.9063,450.2344 212.5781,448.5938 Q211.2656,446.9375 211.2656,443.8125 Q211.2656,440.6875 212.5781,439.0313 Q213.9063,437.375 216.4063,437.375 Q217.1094,437.375 217.75,437.5313 Q218.4063,437.6875 218.9688,437.9844 L218.9688,440.7031 Q218.3438,440.125 217.75,439.8594 Q217.1563,439.5781 216.5313,439.5781 Q215.1875,439.5781 214.5,440.6563 Q213.8125,441.7188 213.8125,443.8125 Q213.8125,445.9063 214.5,446.9844 Q215.1875,448.0469 216.5313,448.0469 Q217.1563,448.0469 217.75,447.7813 Q218.3438,447.5 218.9688,446.9219 L218.9688,449.6406 Z "/><text fill="#000000" font-family="sans-serif" font-size="12" lengthAdjust="spacingAndGlyphs" textLength="96" x="230" y="448.1543">ControllerRoom</text><line style="stroke: #A80036; stroke-width: 1.5;" x1="202" x2="328" y1="460" y2="460"/><rect fill="none" height="6" style="stroke: #C82930; stroke-width: 1.0;" width="6" x="209" y="468"/><text fill="#000000" font-family="sans-serif" font-size="11" lengthAdjust="spacingAndGlyphs" textLength="65" x="221" y="474.2104">ModelRoom</text><rect fill="none" height="6" style="stroke: #C82930; stroke-width: 1.0;" width="6" x="209" y="480.8047"/><text fill="#000000" font-family="sans-serif" font-size="11" lengthAdjust="spacingAndGlyphs" textLength="58" x="221" y="487.0151">ViewRoom</text><!--MD5=[a8c4fef36f1be4f4b0b1faa4659e444b]
class ControllerStat--><rect fill="#FEFECE" filter="url(#f10g29il2jcngm)" height="65.6094" id="ControllerStat" style="stroke: #A80036; stroke-width: 1.5;" width="119" x="49.5" y="554"/><ellipse cx="64.5" cy="570" fill="#ADD1B2" rx="11" ry="11" style="stroke: #A80036; stroke-width: 1.0;"/><path d="M67.4688,575.6406 Q66.8906,575.9375 66.25,576.0781 Q65.6094,576.2344 64.9063,576.2344 Q62.4063,576.2344 61.0781,574.5938 Q59.7656,572.9375 59.7656,569.8125 Q59.7656,566.6875 61.0781,565.0313 Q62.4063,563.375 64.9063,563.375 Q65.6094,563.375 66.25,563.5313 Q66.9063,563.6875 67.4688,563.9844 L67.4688,566.7031 Q66.8438,566.125 66.25,565.8594 Q65.6563,565.5781 65.0313,565.5781 Q63.6875,565.5781 63,566.6563 Q62.3125,567.7188 62.3125,569.8125 Q62.3125,571.9063 63,572.9844 Q63.6875,574.0469 65.0313,574.0469 Q65.6563,574.0469 66.25,573.7813 Q66.8438,573.5 67.4688,572.9219 L67.4688,575.6406 Z "/><text fill="#000000" font-family="sans-serif" font-size="12" lengthAdjust="spacingAndGlyphs" textLength="87" x="78.5" y="574.1543">ControllerStat</text><line style="stroke: #A80036; stroke-width: 1.5;" x1="50.5" x2="167.5" y1="586" y2="586"/><rect fill="none" height="6" style="stroke: #C82930; stroke-width: 1.0;" width="6" x="57.5" y="594"/><text fill="#000000" font-family="sans-serif" font-size="11" lengthAdjust="spacingAndGlyphs" textLength="56" x="69.5" y="600.2104">ModelStat</text><rect fill="none" height="6" style="stroke: #C82930; stroke-width: 1.0;" width="6" x="57.5" y="606.8047"/><text fill="#000000" font-family="sans-serif" font-size="11" lengthAdjust="spacingAndGlyphs" textLength="49" x="69.5" y="613.0151">ViewStat</text><!--MD5=[ad9dd60b9e2ea02c403c8610a882571c]
class ControllerMenu--><rect fill="#FEFECE" filter="url(#f10g29il2jcngm)" height="65.6094" id="ControllerMenu" style="stroke: #A80036; stroke-width: 1.5;" width="127" x="38.5" y="302"/><ellipse cx="53.5" cy="318" fill="#ADD1B2" rx="11" ry="11" style="stroke: #A80036; stroke-width: 1.0;"/><path d="M56.4688,323.6406 Q55.8906,323.9375 55.25,324.0781 Q54.6094,324.2344 53.9063,324.2344 Q51.4063,324.2344 50.0781,322.5938 Q48.7656,320.9375 48.7656,317.8125 Q48.7656,314.6875 50.0781,313.0313 Q51.4063,311.375 53.9063,311.375 Q54.6094,311.375 55.25,311.5313 Q55.9063,311.6875 56.4688,311.9844 L56.4688,314.7031 Q55.8438,314.125 55.25,313.8594 Q54.6563,313.5781 54.0313,313.5781 Q52.6875,313.5781 52,314.6563 Q51.3125,315.7188 51.3125,317.8125 Q51.3125,319.9063 52,320.9844 Q52.6875,322.0469 54.0313,322.0469 Q54.6563,322.0469 55.25,321.7813 Q55.8438,321.5 56.4688,320.9219 L56.4688,323.6406 Z "/><text fill="#000000" font-family="sans-serif" font-size="12" lengthAdjust="spacingAndGlyphs" textLength="95" x="67.5" y="322.1543">ControllerMenu</text><line style="stroke: #A80036; stroke-width: 1.5;" x1="39.5" x2="164.5" y1="334" y2="334"/><rect fill="none" height="6" style="stroke: #C82930; stroke-width: 1.0;" width="6" x="46.5" y="342"/><text fill="#000000" font-family="sans-serif" font-size="11" lengthAdjust="spacingAndGlyphs" textLength="70" x="58.5" y="348.2104">ModelOption</text><rect fill="none" height="6" style="stroke: #C82930; stroke-width: 1.0;" width="6" x="46.5" y="354.8047"/><text fill="#000000" font-family="sans-serif" font-size="11" lengthAdjust="spacingAndGlyphs" textLength="56" x="58.5" y="361.0151">ViewMenu</text><!--MD5=[a23319bb6651943ab882a8895f3a4933]
class ControllerGame--><rect fill="#FEFECE" filter="url(#f10g29il2jcngm)" height="65.6094" id="ControllerGame" style="stroke: #A80036; stroke-width: 1.5;" width="129" x="200.5" y="302"/><ellipse cx="215.5" cy="318" fill="#ADD1B2" rx="11" ry="11" style="stroke: #A80036; stroke-width: 1.0;"/><path d="M218.4688,323.6406 Q217.8906,323.9375 217.25,324.0781 Q216.6094,324.2344 215.9063,324.2344 Q213.4063,324.2344 212.0781,322.5938 Q210.7656,320.9375 210.7656,317.8125 Q210.7656,314.6875 212.0781,313.0313 Q213.4063,311.375 215.9063,311.375 Q216.6094,311.375 217.25,311.5313 Q217.9063,311.6875 218.4688,311.9844 L218.4688,314.7031 Q217.8438,314.125 217.25,313.8594 Q216.6563,313.5781 216.0313,313.5781 Q214.6875,313.5781 214,314.6563 Q213.3125,315.7188 213.3125,317.8125 Q213.3125,319.9063 214,320.9844 Q214.6875,322.0469 216.0313,322.0469 Q216.6563,322.0469 217.25,321.7813 Q217.8438,321.5 218.4688,320.9219 L218.4688,323.6406 Z "/><text fill="#000000" font-family="sans-serif" font-size="12" lengthAdjust="spacingAndGlyphs" textLength="97" x="229.5" y="322.1543">ControllerGame</text><line style="stroke: #A80036; stroke-width: 1.5;" x1="201.5" x2="328.5" y1="334" y2="334"/><rect fill="none" height="6" style="stroke: #C82930; stroke-width: 1.0;" width="6" x="208.5" y="342"/><text fill="#000000" font-family="sans-serif" font-size="11" lengthAdjust="spacingAndGlyphs" textLength="67" x="220.5" y="348.2104">ModelGame</text><rect fill="none" height="6" style="stroke: #C82930; stroke-width: 1.0;" width="6" x="208.5" y="354.8047"/><text fill="#000000" font-family="sans-serif" font-size="11" lengthAdjust="spacingAndGlyphs" textLength="60" x="220.5" y="361.0151">ViewGame</text><!--MD5=[335f4d9be48430461c68bf6d6fdba145]
class App--><rect fill="#FEFECE" filter="url(#f10g29il2jcngm)" height="32" id="App" style="stroke: #A80036; stroke-width: 1.5;" width="56" x="155" y="88.5"/><ellipse cx="170" cy="104.5" fill="#ADD1B2" rx="11" ry="11" style="stroke: #A80036; stroke-width: 1.0;"/><path d="M172.9688,110.1406 Q172.3906,110.4375 171.75,110.5781 Q171.1094,110.7344 170.4063,110.7344 Q167.9063,110.7344 166.5781,109.0938 Q165.2656,107.4375 165.2656,104.3125 Q165.2656,101.1875 166.5781,99.5313 Q167.9063,97.875 170.4063,97.875 Q171.1094,97.875 171.75,98.0313 Q172.4063,98.1875 172.9688,98.4844 L172.9688,101.2031 Q172.3438,100.625 171.75,100.3594 Q171.1563,100.0781 170.5313,100.0781 Q169.1875,100.0781 168.5,101.1563 Q167.8125,102.2188 167.8125,104.3125 Q167.8125,106.4063 168.5,107.4844 Q169.1875,108.5469 170.5313,108.5469 Q171.1563,108.5469 171.75,108.2813 Q172.3438,108 172.9688,107.4219 L172.9688,110.1406 Z "/><text fill="#000000" font-family="sans-serif" font-size="12" lengthAdjust="spacingAndGlyphs" textLength="24" x="184" y="108.6543">App</text><!--MD5=[7a711561beb8c4cdf7234f3728bff315]
reverse link Lang to Fr--><path d="M451.07,156.52 C444.26,175.88 437.02,196.48 432.28,209.97 " fill="none" id="Lang&lt;-Fr" style="stroke: #A80036; stroke-width: 1.0;"/><polygon fill="none" points="444.51,154.07,457.74,137.52,457.72,158.71,444.51,154.07" style="stroke: #A80036; stroke-width: 1.0;"/><!--MD5=[19ab5e507920a255ac7de618dae57c4a]
reverse link Lang to En--><path d="M485.75,156.83 C492.04,176.09 498.72,196.55 503.1,209.97 " fill="none" id="Lang&lt;-En" style="stroke: #A80036; stroke-width: 1.0;"/><polygon fill="none" points="479,158.71,479.45,137.52,492.31,154.37,479,158.71" style="stroke: #A80036; stroke-width: 1.0;"/><!--MD5=[4f466642c94ef2a73e975d7b90f446a9]
reverse link ModelPet to Robot--><path d="M793.28,257.26 C774.93,277.3 751.63,302.74 737.01,318.7 " fill="none" id="ModelPet&lt;-Robot" style="stroke: #A80036; stroke-width: 1.0; stroke-dasharray: 7.0,7.0;"/><polygon fill="none" points="788.29,252.35,806.96,242.33,798.61,261.81,788.29,252.35" style="stroke: #A80036; stroke-width: 1.0;"/><!--MD5=[74c06c42aaa6c8b448d0338302a44b32]
reverse link ModelPet to Animal--><path d="M823.65,262.45 C825.08,281.54 826.76,304.09 827.86,318.7 " fill="none" id="ModelPet&lt;-Animal" style="stroke: #A80036; stroke-width: 1.0; stroke-dasharray: 7.0,7.0;"/><polygon fill="none" points="816.66,262.8,822.15,242.33,830.62,261.75,816.66,262.8" style="stroke: #A80036; stroke-width: 1.0;"/><!--MD5=[e7fdbd9cc01a81d0a8cc9dd038c862e3]
link Animal to ModelStat--><path d="M817.7809,362.2331 C817.7809,362.2331 796.46,412.12 787.68,432.68 " fill="none" id="Animal-ModelStat" style="stroke: #A80036; stroke-width: 1.0;"/><polygon fill="#A80036" points="782.55,444.67,789.767,437.9682,784.5163,440.0729,782.4116,434.8221,782.55,444.67" style="stroke: #A80036; stroke-width: 1.0;"/><line style="stroke: #A80036; stroke-width: 1.0;" x1="784.5163" x2="787.665" y1="440.0729" y2="432.72"/><polygon fill="#FFFFFF" points="822.5,351.2,816.4627,355.1435,817.7809,362.2331,823.8182,358.2896,822.5,351.2" style="stroke: #A80036; stroke-width: 1.0;"/><!--MD5=[f422c2807d3be77dbf95b21178d759de]
link Robot to ModelStat--><path d="M734.2191,362.2331 C734.2191,362.2331 755.54,412.12 764.32,432.68 " fill="none" id="Robot-ModelStat" style="stroke: #A80036; stroke-width: 1.0;"/><polygon fill="#A80036" points="769.45,444.67,769.5884,434.8221,767.4837,440.0729,762.233,437.9682,769.45,444.67" style="stroke: #A80036; stroke-width: 1.0;"/><line style="stroke: #A80036; stroke-width: 1.0;" x1="767.4837" x2="764.335" y1="440.0729" y2="432.72"/><polygon fill="#FFFFFF" points="729.5,351.2,728.1818,358.2896,734.2191,362.2331,735.5373,355.1435,729.5,351.2" style="stroke: #A80036; stroke-width: 1.0;"/><!--MD5=[5971e1841a2b9e394eb43f7dc4831a0e]
link ModelGame to ModelPet--><path d="M817.9054,132.6235 C817.9054,132.6235 819.42,177.79 820.06,196.81 " fill="none" id="ModelGame-ModelPet" style="stroke: #A80036; stroke-width: 1.0;"/><polygon fill="#A80036" points="820.5,209.99,824.1909,200.8589,820.3296,204.9929,816.1956,201.1316,820.5,209.99" style="stroke: #A80036; stroke-width: 1.0;"/><line style="stroke: #A80036; stroke-width: 1.0;" x1="820.3296" x2="820.065" y1="204.9929" y2="196.995"/><polygon fill="#FFFFFF" points="817.51,120.63,813.7099,126.7585,817.9054,132.6235,821.7055,126.4949,817.51,120.63" style="stroke: #A80036; stroke-width: 1.0;"/><!--MD5=[4de9b067ee7228c78f0bb54c9b6691cd]
link ModelGame to ModelRoom--><path d="M792.3334,128.8881 C792.3334,128.8881 738.21,180.23 716.4,200.91 " fill="none" id="ModelGame-ModelRoom" style="stroke: #A80036; stroke-width: 1.0;"/><polygon fill="#A80036" points="706.83,209.99,716.1126,206.6986,710.4577,206.5491,710.6072,200.8943,706.83,209.99" style="stroke: #A80036; stroke-width: 1.0;"/><line style="stroke: #A80036; stroke-width: 1.0;" x1="710.4577" x2="716.26" y1="206.5491" y2="201.04"/><polygon fill="#FFFFFF" points="801.04,120.63,793.934,121.8568,792.3334,128.8881,799.4394,127.6612,801.04,120.63" style="stroke: #A80036; stroke-width: 1.0;"/><!--MD5=[8bf2486ab1619f20eac8878ac066c89f]
link ViewMain to ViewGame--><path d="M1349.8184,128.8544 C1349.8184,128.8544 1404.42,180.23 1426.4,200.91 " fill="none" id="ViewMain-ViewGame" style="stroke: #A80036; stroke-width: 1.0;"/><polygon fill="#A80036" points="1436.05,209.99,1432.2445,200.906,1432.4116,206.5604,1426.7572,206.7275,1436.05,209.99" style="stroke: #A80036; stroke-width: 1.0;"/><line style="stroke: #A80036; stroke-width: 1.0;" x1="1432.4116" x2="1426.58" y1="206.5604" y2="201.08"/><polygon fill="#FFFFFF" points="1341.08,120.63,1342.7077,127.655,1349.8184,128.8544,1348.1907,121.8294,1341.08,120.63" style="stroke: #A80036; stroke-width: 1.0;"/><!--MD5=[da53a9ba11fef0ffc8dc778c68eb8e27]
link ViewMain to ViewMenu--><path d="M1300.3334,128.8881 C1300.3334,128.8881 1246.21,180.23 1224.4,200.91 " fill="none" id="ViewMain-ViewMenu" style="stroke: #A80036; stroke-width: 1.0;"/><polygon fill="#A80036" points="1214.83,209.99,1224.1126,206.6986,1218.4577,206.5491,1218.6072,200.8943,1214.83,209.99" style="stroke: #A80036; stroke-width: 1.0;"/><line style="stroke: #A80036; stroke-width: 1.0;" x1="1218.4577" x2="1224.26" y1="206.5491" y2="201.04"/><polygon fill="#FFFFFF" points="1309.04,120.63,1301.934,121.8568,1300.3334,128.8881,1307.4394,127.6612,1309.04,120.63" style="stroke: #A80036; stroke-width: 1.0;"/><!--MD5=[be9c79c74cacc2f476e166c2a4f64dcb]
link ViewMenu to ViewOption--><path d="M1214.7558,252.5458 C1214.7558,252.5458 1238.31,290.74 1248.45,307.16 " fill="none" id="ViewMenu-ViewOption" style="stroke: #A80036; stroke-width: 1.0;"/><polygon fill="#A80036" points="1255.56,318.7,1254.2399,308.94,1252.9352,314.4444,1247.4309,313.1397,1255.56,318.7" style="stroke: #A80036; stroke-width: 1.0;"/><line style="stroke: #A80036; stroke-width: 1.0;" x1="1252.9352" x2="1248.735" y1="314.4444" y2="307.63"/><polygon fill="#A80036" points="1208.46,242.33,1208.2026,249.5365,1214.7558,252.5458,1215.0132,245.3393,1208.46,242.33" style="stroke: #A80036; stroke-width: 1.0;"/><!--MD5=[f650e94ab78217e3508de37f16f9547a]
link ViewMenu to ViewCustomPet--><path d="M1158.8201,247.5718 C1158.8201,247.5718 1067.74,294.2 1031.09,312.96 " fill="none" id="ViewMenu-ViewCustomPet" style="stroke: #A80036; stroke-width: 1.0;"/><polygon fill="#A80036" points="1019.35,318.97,1029.1838,318.4261,1023.7999,316.6901,1025.536,311.3062,1019.35,318.97" style="stroke: #A80036; stroke-width: 1.0;"/><line style="stroke: #A80036; stroke-width: 1.0;" x1="1023.7999" x2="1030.925" y1="316.6901" y2="313.05"/><polygon fill="#A80036" points="1169.5,242.1,1162.3361,241.2759,1158.8201,247.5718,1165.984,248.3958,1169.5,242.1" style="stroke: #A80036; stroke-width: 1.0;"/><!--MD5=[6446f8f44f20e882252a98232a1037b1]
link ViewMenu to ViewLoad--><path d="M1183.4657,252.5895 C1183.4657,252.5895 1160.28,290.74 1150.3,307.16 " fill="none" id="ViewMenu-ViewLoad" style="stroke: #A80036; stroke-width: 1.0;"/><polygon fill="#A80036" points="1143.3,318.7,1151.3913,313.0847,1145.8959,314.4267,1144.5539,308.9313,1143.3,318.7" style="stroke: #A80036; stroke-width: 1.0;"/><line style="stroke: #A80036; stroke-width: 1.0;" x1="1145.8959" x2="1150.045" y1="314.4267" y2="307.59"/><polygon fill="#A80036" points="1189.69,242.33,1183.158,245.385,1183.4657,252.5895,1189.9977,249.5345,1189.69,242.33" style="stroke: #A80036; stroke-width: 1.0;"/><!--MD5=[9168ed23fe193ebb26894be34fee4a0e]
link ViewGame to ViewHUD--><path d="M1488.9646,248.0437 C1488.9646,248.0437 1569.35,293.79 1601.88,312.3 " fill="none" id="ViewGame-ViewHUD" style="stroke: #A80036; stroke-width: 1.0;"/><polygon fill="#A80036" points="1613.6,318.97,1607.7552,311.0429,1609.2541,316.4976,1603.7994,317.9964,1613.6,318.97" style="stroke: #A80036; stroke-width: 1.0;"/><line style="stroke: #A80036; stroke-width: 1.0;" x1="1609.2541" x2="1602.3" y1="316.4976" y2="312.545"/><polygon fill="#A80036" points="1478.54,242.1,1481.7711,248.5467,1488.9646,248.0437,1485.7335,241.597,1478.54,242.1" style="stroke: #A80036; stroke-width: 1.0;"/><!--MD5=[09dd6a64c3d68c174e3adb5d94daf6ef]
link ViewHUD to ViewAction--><path d="M1638.6798,363.186 C1638.6798,363.186 1636.36,411.33 1635.38,431.41 " fill="none" id="ViewHUD-ViewAction" style="stroke: #A80036; stroke-width: 1.0;"/><polygon fill="#A80036" points="1634.74,444.67,1639.1709,435.8742,1634.982,439.6759,1631.1803,435.4869,1634.74,444.67" style="stroke: #A80036; stroke-width: 1.0;"/><line style="stroke: #A80036; stroke-width: 1.0;" x1="1634.982" x2="1635.37" y1="439.6759" y2="431.69"/><polygon fill="#A80036" points="1639.26,351.2,1634.9746,356.9996,1638.6798,363.186,1642.9652,357.3864,1639.26,351.2" style="stroke: #A80036; stroke-width: 1.0;"/><!--MD5=[2c621505a26fa19aa311a2aae8df3665]
link ViewHUD to ViewStat--><path d="M1614.7615,359.3492 C1614.7615,359.3492 1555.9,413.82 1532.27,435.69 " fill="none" id="ViewHUD-ViewStat" style="stroke: #A80036; stroke-width: 1.0;"/><polygon fill="#A80036" points="1522.57,444.67,1531.8928,441.4943,1526.2402,441.2745,1526.46,435.6219,1522.57,444.67" style="stroke: #A80036; stroke-width: 1.0;"/><line style="stroke: #A80036; stroke-width: 1.0;" x1="1526.2402" x2="1532.11" y1="441.2745" y2="435.84"/><polygon fill="#FFFFFF" points="1623.57,351.2,1616.4493,352.3384,1614.7615,359.3492,1621.8821,358.2108,1623.57,351.2" style="stroke: #A80036; stroke-width: 1.0;"/><!--MD5=[72c63d8179027bd176e1b9e790de2564]
link ViewGame to ViewRoom--><path d="M1466.8904,252.7163 C1466.8904,252.7163 1489.02,290.88 1498.48,307.22 " fill="none" id="ViewGame-ViewRoom" style="stroke: #A80036; stroke-width: 1.0;"/><polygon fill="#A80036" points="1505.13,318.7,1504.0789,308.9074,1502.6233,314.3737,1497.1569,312.9181,1505.13,318.7" style="stroke: #A80036; stroke-width: 1.0;"/><line style="stroke: #A80036; stroke-width: 1.0;" x1="1502.6233" x2="1498.615" y1="314.3737" y2="307.45"/><polygon fill="#FFFFFF" points="1460.88,242.33,1460.4231,249.5266,1466.8904,252.7163,1467.3473,245.5197,1460.88,242.33" style="stroke: #A80036; stroke-width: 1.0;"/><!--MD5=[1982cb46ecac96c4096775a36a11f323]
link ViewGame to ViewPet--><path d="M1437.3106,252.7514 C1437.3106,252.7514 1415.58,290.88 1406.27,307.22 " fill="none" id="ViewGame-ViewPet" style="stroke: #A80036; stroke-width: 1.0;"/><polygon fill="#A80036" points="1399.72,318.7,1407.6558,312.8671,1402.1989,314.3578,1400.7083,308.9009,1399.72,318.7" style="stroke: #A80036; stroke-width: 1.0;"/><line style="stroke: #A80036; stroke-width: 1.0;" x1="1402.1989" x2="1406.16" y1="314.3578" y2="307.405"/><polygon fill="#FFFFFF" points="1443.26,242.33,1436.8115,245.5575,1437.3106,252.7514,1443.7591,249.5238,1443.26,242.33" style="stroke: #A80036; stroke-width: 1.0;"/><!--MD5=[b1ef4671a1757d589d06dc8a838d028a]
link ControllerPet to ControllerStat--><path d="M109,506.26 C109,506.26 109,529.79 109,540.65 " fill="none" id="ControllerPet-ControllerStat" style="stroke: #A80036; stroke-width: 1.0;"/><polygon fill="#A80036" points="109,553.91,113,544.91,109,548.91,105,544.91,109,553.91" style="stroke: #A80036; stroke-width: 1.0;"/><line style="stroke: #A80036; stroke-width: 1.0;" x1="109" x2="109" y1="548.91" y2="540.91"/><polygon fill="#A80036" points="109,494.26,105,500.26,109,506.26,113,500.26,109,494.26" style="stroke: #A80036; stroke-width: 1.0;"/><!--MD5=[efe405b14041d5631e08871e4931eb2f]
link ControllerGame to ControllerPet--><path d="M215.0213,375.7209 C215.0213,375.7209 177.27,405.73 159.89,419.55 " fill="none" id="ControllerGame-ControllerPet" style="stroke: #A80036; stroke-width: 1.0;"/><polygon fill="#A80036" points="149.38,427.91,158.916,425.4472,153.2961,424.8013,153.942,419.1814,149.38,427.91" style="stroke: #A80036; stroke-width: 1.0;"/><line style="stroke: #A80036; stroke-width: 1.0;" x1="153.2961" x2="159.55" y1="424.8013" y2="419.815"/><polygon fill="#A80036" points="224.42,368.26,217.2337,368.8576,215.0213,375.7209,222.2076,375.1233,224.42,368.26" style="stroke: #A80036; stroke-width: 1.0;"/><!--MD5=[ddcc429a3235b8516599080435159d34]
link ControllerGame to ControllerRoom--><path d="M265,380.26 C265,380.26 265,403.79 265,414.65 " fill="none" id="ControllerGame-ControllerRoom" style="stroke: #A80036; stroke-width: 1.0;"/><polygon fill="#A80036" points="265,427.91,269,418.91,265,422.91,261,418.91,265,427.91" style="stroke: #A80036; stroke-width: 1.0;"/><line style="stroke: #A80036; stroke-width: 1.0;" x1="265" x2="265" y1="422.91" y2="414.91"/><polygon fill="#A80036" points="265,368.26,261,374.26,265,380.26,269,374.26,265,368.26" style="stroke: #A80036; stroke-width: 1.0;"/><!--MD5=[9929c6352887e0a164ebebea74672e21]
link ControllerMain to ControllerGame--><path d="M202.0487,251.8552 C202.0487,251.8552 222.26,278.23 232.25,291.27 " fill="none" id="ControllerMain-ControllerGame" style="stroke: #A80036; stroke-width: 1.0;"/><polygon fill="#A80036" points="240.43,301.94,238.1246,292.3648,237.3862,297.9732,231.7778,297.2348,240.43,301.94" style="stroke: #A80036; stroke-width: 1.0;"/><line style="stroke: #A80036; stroke-width: 1.0;" x1="237.3862" x2="232.52" y1="297.9732" y2="291.62"/><polygon fill="#A80036" points="194.75,242.33,195.2243,249.5255,202.0487,251.8552,201.5744,244.6597,194.75,242.33" style="stroke: #A80036; stroke-width: 1.0;"/><!--MD5=[db94271f82011bff79064c77ddb1b261]
link ControllerMain to ControllerMenu--><path d="M164.1521,251.9014 C164.1521,251.9014 144.22,278.23 134.35,291.27 " fill="none" id="ControllerMain-ControllerMenu" style="stroke: #A80036; stroke-width: 1.0;"/><polygon fill="#A80036" points="126.27,301.94,134.8889,297.1741,129.2858,297.9519,128.508,292.3488,126.27,301.94" style="stroke: #A80036; stroke-width: 1.0;"/><line style="stroke: #A80036; stroke-width: 1.0;" x1="129.2858" x2="134.12" y1="297.9519" y2="291.575"/><polygon fill="#A80036" points="171.39,242.33,164.5806,244.7031,164.1521,251.9014,170.9615,249.5284,171.39,242.33" style="stroke: #A80036; stroke-width: 1.0;"/><!--MD5=[dd57218bcfe32411ddd60f0a689a21ae]
link App to ControllerMain--><path d="M183,132.63 C183,132.63 183,177.79 183,196.81 " fill="none" id="App-ControllerMain" style="stroke: #A80036; stroke-width: 1.0;"/><polygon fill="#A80036" points="183,209.99,187,200.99,183,204.99,179,200.99,183,209.99" style="stroke: #A80036; stroke-width: 1.0;"/><line style="stroke: #A80036; stroke-width: 1.0;" x1="183" x2="183" y1="204.99" y2="196.99"/><polygon fill="#A80036" points="183,120.63,179,126.63,183,132.63,187,126.63,183,120.63" style="stroke: #A80036; stroke-width: 1.0;"/><!--MD5=[8941a64e7d1c1f57e42245812778ba20]
@startuml

hide empty attributes
hide empty methods

class App


package lang {
	abstract class Lang {
		+ {method} {static} getLang() : Lang
		+ {method} {static} setLang( newInst : Lang )
	}
	
	class Fr
	Class En
	
	Lang <|- - Fr
	Lang <|- - En
}

package model {
    class ModelRoom
    class ModelGame
    class ModelStat
    class ModelOption {
    	-language : string
	    -volume : double
	    -h_window : int
	    -w_window : int
    }
    interface ModelPet
    class Robot
    class Animal
    
    ModelPet <|.. Robot
    ModelPet <|.. Animal
    Animal o- -> ModelStat
    Robot o- -> ModelStat
    ModelGame o- -> ModelPet
    ModelGame o- -> ModelRoom
}

package view {
	class ViewMain
    class ViewPet
    class ViewRoom
    class ViewStat
    class ViewMenu
    class ViewCustomPet
    class ViewLoad
    class ViewAction
    class ViewOption
    class ViewGame
    class ViewHUD
    
    ViewMain o- -> ViewGame
    ViewMain o- -> ViewMenu
    ViewMenu *- -> ViewOption
    ViewMenu *- -> ViewCustomPet
    ViewMenu *- -> ViewLoad
    ViewGame *- -> ViewHUD
    ViewHUD  *- -> ViewAction
    ViewHUD  o- -> ViewStat
    ViewGame o- -> ViewRoom
    ViewGame o- -> ViewPet
}

package Controller {
    class ControllerMain
    
    class ControllerPet {
        -ModelPet
        -ViewPet
    }
    class ControllerRoom {
        -ModelRoom
        -ViewRoom
    }
    class ControllerStat {
        -ModelStat
        -ViewStat
    }
    class ControllerMenu {
        -ModelOption
        -ViewMenu
    }
    class ControllerGame {
        -ModelGame
        -ViewGame
    }
    
    ControllerPet *- -> ControllerStat
    ControllerGame *- -> ControllerPet
    ControllerGame *- -> ControllerRoom
    ControllerMain *- -> ControllerGame 
    ControllerMain *- -> ControllerMenu
    
}

App *- -> ControllerMain

@enduml

PlantUML version 1.2020.02(Sun Mar 01 11:22:07 CET 2020)
(GPL source distribution)
Java Runtime: OpenJDK Runtime Environment
JVM: OpenJDK 64-Bit Server VM
Java Version: 17.0.5+8-Debian-2
Operating System: Linux
Default Encoding: UTF-8
Language: fr
Country: FR
--></g></svg>