<?xml version="1.0" encoding="UTF-8" standalone="no"?><svg xmlns="http://www.w3.org/2000/svg" xmlns:xlink="http://www.w3.org/1999/xlink" contentScriptType="application/ecmascript" contentStyleType="text/css" height="1388px" preserveAspectRatio="none" style="width:2355px;height:1388px;" version="1.1" viewBox="0 0 2355 1388" width="2355px" zoomAndPan="magnify"><defs><filter height="300%" id="fgj4at9mtm4rj" width="300%" x="-1" y="-1"><feGaussianBlur result="blurOut" stdDeviation="2.0"/><feColorMatrix in="blurOut" result="blurOut2" type="matrix" values="0 0 0 0 0 0 0 0 0 0 0 0 0 0 0 0 0 0 .4 0"/><feOffset dx="4.0" dy="4.0" in="blurOut2" result="blurOut3"/><feBlend in="SourceGraphic" in2="blurOut3" mode="normal"/></filter></defs><g><line style="stroke: #A80036; stroke-width: 1.0; stroke-dasharray: 5.0,5.0;" x1="26" x2="26" y1="86.2969" y2="1300.7422"/><line style="stroke: #A80036; stroke-width: 1.0; stroke-dasharray: 5.0,5.0;" x1="92" x2="92" y1="86.2969" y2="1300.7422"/><line style="stroke: #A80036; stroke-width: 1.0; stroke-dasharray: 5.0,5.0;" x1="199" x2="199" y1="86.2969" y2="1300.7422"/><line style="stroke: #A80036; stroke-width: 1.0; stroke-dasharray: 5.0,5.0;" x1="330" x2="330" y1="86.2969" y2="1300.7422"/><line style="stroke: #A80036; stroke-width: 1.0; stroke-dasharray: 5.0,5.0;" x1="455" x2="455" y1="86.2969" y2="1300.7422"/><line style="stroke: #A80036; stroke-width: 1.0; stroke-dasharray: 5.0,5.0;" x1="562" x2="562" y1="86.2969" y2="1300.7422"/><line style="stroke: #A80036; stroke-width: 1.0; stroke-dasharray: 5.0,5.0;" x1="669.5" x2="669.5" y1="86.2969" y2="1300.7422"/><line style="stroke: #A80036; stroke-width: 1.0; stroke-dasharray: 5.0,5.0;" x1="790.5" x2="790.5" y1="86.2969" y2="1300.7422"/><line style="stroke: #A80036; stroke-width: 1.0; stroke-dasharray: 5.0,5.0;" x1="905.5" x2="905.5" y1="86.2969" y2="1300.7422"/><line style="stroke: #A80036; stroke-width: 1.0; stroke-dasharray: 5.0,5.0;" x1="1003.5" x2="1003.5" y1="86.2969" y2="1300.7422"/><line style="stroke: #A80036; stroke-width: 1.0; stroke-dasharray: 5.0,5.0;" x1="1123.5" x2="1123.5" y1="86.2969" y2="1300.7422"/><line style="stroke: #A80036; stroke-width: 1.0; stroke-dasharray: 5.0,5.0;" x1="1250.5" x2="1250.5" y1="86.2969" y2="1300.7422"/><line style="stroke: #A80036; stroke-width: 1.0; stroke-dasharray: 5.0,5.0;" x1="1357" x2="1357" y1="86.2969" y2="1300.7422"/><line style="stroke: #A80036; stroke-width: 1.0; stroke-dasharray: 5.0,5.0;" x1="1445" x2="1445" y1="86.2969" y2="1300.7422"/><line style="stroke: #A80036; stroke-width: 1.0; stroke-dasharray: 5.0,5.0;" x1="1548" x2="1548" y1="86.2969" y2="1300.7422"/><line style="stroke: #A80036; stroke-width: 1.0; stroke-dasharray: 5.0,5.0;" x1="1657" x2="1657" y1="86.2969" y2="1300.7422"/><line style="stroke: #A80036; stroke-width: 1.0; stroke-dasharray: 5.0,5.0;" x1="1749" x2="1749" y1="86.2969" y2="1300.7422"/><line style="stroke: #A80036; stroke-width: 1.0; stroke-dasharray: 5.0,5.0;" x1="1861" x2="1861" y1="86.2969" y2="1300.7422"/><line style="stroke: #A80036; stroke-width: 1.0; stroke-dasharray: 5.0,5.0;" x1="1984" x2="1984" y1="86.2969" y2="1300.7422"/><line style="stroke: #A80036; stroke-width: 1.0; stroke-dasharray: 5.0,5.0;" x1="2090" x2="2090" y1="86.2969" y2="1300.7422"/><line style="stroke: #A80036; stroke-width: 1.0; stroke-dasharray: 5.0,5.0;" x1="2196" x2="2196" y1="86.2969" y2="1300.7422"/><line style="stroke: #A80036; stroke-width: 1.0; stroke-dasharray: 5.0,5.0;" x1="2302" x2="2302" y1="86.2969" y2="1300.7422"/><text fill="#000000" font-family="sans-serif" font-size="14" lengthAdjust="spacingAndGlyphs" textLength="31" x="8" y="82.9951">user</text><ellipse cx="26.5" cy="13" fill="#FEFECE" filter="url(#fgj4at9mtm4rj)" rx="8" ry="8" style="stroke: #A80036; stroke-width: 2.0;"/><path d="M26.5,21 L26.5,48 M13.5,29 L39.5,29 M26.5,48 L13.5,63 M26.5,48 L39.5,63 " fill="none" filter="url(#fgj4at9mtm4rj)" style="stroke: #A80036; stroke-width: 2.0;"/><text fill="#000000" font-family="sans-serif" font-size="14" lengthAdjust="spacingAndGlyphs" textLength="31" x="8" y="1312.7373">user</text><ellipse cx="26.5" cy="1326.0391" fill="#FEFECE" filter="url(#fgj4at9mtm4rj)" rx="8" ry="8" style="stroke: #A80036; stroke-width: 2.0;"/><path d="M26.5,1334.0391 L26.5,1361.0391 M13.5,1342.0391 L39.5,1342.0391 M26.5,1361.0391 L13.5,1376.0391 M26.5,1361.0391 L39.5,1376.0391 " fill="none" filter="url(#fgj4at9mtm4rj)" style="stroke: #A80036; stroke-width: 2.0;"/><rect fill="#FEFECE" filter="url(#fgj4at9mtm4rj)" height="30.2969" style="stroke: #A80036; stroke-width: 1.5;" width="41" x="70" y="51"/><text fill="#000000" font-family="sans-serif" font-size="14" lengthAdjust="spacingAndGlyphs" textLength="27" x="77" y="70.9951">App</text><rect fill="#FEFECE" filter="url(#fgj4at9mtm4rj)" height="30.2969" style="stroke: #A80036; stroke-width: 1.5;" width="41" x="70" y="1299.7422"/><text fill="#000000" font-family="sans-serif" font-size="14" lengthAdjust="spacingAndGlyphs" textLength="27" x="77" y="1319.7373">App</text><rect fill="#FEFECE" filter="url(#fgj4at9mtm4rj)" height="30.2969" style="stroke: #A80036; stroke-width: 1.5;" width="113" x="141" y="51"/><text fill="#000000" font-family="sans-serif" font-size="14" lengthAdjust="spacingAndGlyphs" textLength="99" x="148" y="70.9951">ControllerMain</text><rect fill="#FEFECE" filter="url(#fgj4at9mtm4rj)" height="30.2969" style="stroke: #A80036; stroke-width: 1.5;" width="113" x="141" y="1299.7422"/><text fill="#000000" font-family="sans-serif" font-size="14" lengthAdjust="spacingAndGlyphs" textLength="99" x="148" y="1319.7373">ControllerMain</text><rect fill="#FEFECE" filter="url(#fgj4at9mtm4rj)" height="30.2969" style="stroke: #A80036; stroke-width: 1.5;" width="120" x="268" y="51"/><text fill="#000000" font-family="sans-serif" font-size="14" lengthAdjust="spacingAndGlyphs" textLength="106" x="275" y="70.9951">ControllerMenu</text><rect fill="#FEFECE" filter="url(#fgj4at9mtm4rj)" height="30.2969" style="stroke: #A80036; stroke-width: 1.5;" width="120" x="268" y="1299.7422"/><text fill="#000000" font-family="sans-serif" font-size="14" lengthAdjust="spacingAndGlyphs" textLength="106" x="275" y="1319.7373">ControllerMenu</text><rect fill="#FEFECE" filter="url(#fgj4at9mtm4rj)" height="30.2969" style="stroke: #A80036; stroke-width: 1.5;" width="102" x="402" y="51"/><text fill="#000000" font-family="sans-serif" font-size="14" lengthAdjust="spacingAndGlyphs" textLength="88" x="409" y="70.9951">ModelOption</text><rect fill="#FEFECE" filter="url(#fgj4at9mtm4rj)" height="30.2969" style="stroke: #A80036; stroke-width: 1.5;" width="102" x="402" y="1299.7422"/><text fill="#000000" font-family="sans-serif" font-size="14" lengthAdjust="spacingAndGlyphs" textLength="88" x="409" y="1319.7373">ModelOption</text><rect fill="#FEFECE" filter="url(#fgj4at9mtm4rj)" height="30.2969" style="stroke: #A80036; stroke-width: 1.5;" width="85" x="518" y="51"/><text fill="#000000" font-family="sans-serif" font-size="14" lengthAdjust="spacingAndGlyphs" textLength="71" x="525" y="70.9951">ViewMenu</text><rect fill="#FEFECE" filter="url(#fgj4at9mtm4rj)" height="30.2969" style="stroke: #A80036; stroke-width: 1.5;" width="85" x="518" y="1299.7422"/><text fill="#000000" font-family="sans-serif" font-size="14" lengthAdjust="spacingAndGlyphs" textLength="71" x="525" y="1319.7373">ViewMenu</text><rect fill="#FEFECE" filter="url(#fgj4at9mtm4rj)" height="30.2969" style="stroke: #A80036; stroke-width: 1.5;" width="92" x="621.5" y="51"/><text fill="#000000" font-family="sans-serif" font-size="14" lengthAdjust="spacingAndGlyphs" textLength="78" x="628.5" y="70.9951">ViewOption</text><rect fill="#FEFECE" filter="url(#fgj4at9mtm4rj)" height="30.2969" style="stroke: #A80036; stroke-width: 1.5;" width="92" x="621.5" y="1299.7422"/><text fill="#000000" font-family="sans-serif" font-size="14" lengthAdjust="spacingAndGlyphs" textLength="78" x="628.5" y="1319.7373">ViewOption</text><rect fill="#FEFECE" filter="url(#fgj4at9mtm4rj)" height="30.2969" style="stroke: #A80036; stroke-width: 1.5;" width="123" x="727.5" y="51"/><text fill="#000000" font-family="sans-serif" font-size="14" lengthAdjust="spacingAndGlyphs" textLength="109" x="734.5" y="70.9951">ViewCustomPet</text><rect fill="#FEFECE" filter="url(#fgj4at9mtm4rj)" height="30.2969" style="stroke: #A80036; stroke-width: 1.5;" width="123" x="727.5" y="1299.7422"/><text fill="#000000" font-family="sans-serif" font-size="14" lengthAdjust="spacingAndGlyphs" textLength="109" x="734.5" y="1319.7373">ViewCustomPet</text><rect fill="#FEFECE" filter="url(#fgj4at9mtm4rj)" height="30.2969" style="stroke: #A80036; stroke-width: 1.5;" width="79" x="864.5" y="51"/><text fill="#000000" font-family="sans-serif" font-size="14" lengthAdjust="spacingAndGlyphs" textLength="65" x="871.5" y="70.9951">ViewLoad</text><rect fill="#FEFECE" filter="url(#fgj4at9mtm4rj)" height="30.2969" style="stroke: #A80036; stroke-width: 1.5;" width="79" x="864.5" y="1299.7422"/><text fill="#000000" font-family="sans-serif" font-size="14" lengthAdjust="spacingAndGlyphs" textLength="65" x="871.5" y="1319.7373">ViewLoad</text><rect fill="#FEFECE" filter="url(#fgj4at9mtm4rj)" height="30.2969" style="stroke: #A80036; stroke-width: 1.5;" width="89" x="957.5" y="51"/><text fill="#000000" font-family="sans-serif" font-size="14" lengthAdjust="spacingAndGlyphs" textLength="75" x="964.5" y="70.9951">ViewAction</text><rect fill="#FEFECE" filter="url(#fgj4at9mtm4rj)" height="30.2969" style="stroke: #A80036; stroke-width: 1.5;" width="89" x="957.5" y="1299.7422"/><text fill="#000000" font-family="sans-serif" font-size="14" lengthAdjust="spacingAndGlyphs" textLength="75" x="964.5" y="1319.7373">ViewAction</text><rect fill="#FEFECE" filter="url(#fgj4at9mtm4rj)" height="30.2969" style="stroke: #A80036; stroke-width: 1.5;" width="122" x="1060.5" y="51"/><text fill="#000000" font-family="sans-serif" font-size="14" lengthAdjust="spacingAndGlyphs" textLength="108" x="1067.5" y="70.9951">ControllerGame</text><rect fill="#FEFECE" filter="url(#fgj4at9mtm4rj)" height="30.2969" style="stroke: #A80036; stroke-width: 1.5;" width="122" x="1060.5" y="1299.7422"/><text fill="#000000" font-family="sans-serif" font-size="14" lengthAdjust="spacingAndGlyphs" textLength="108" x="1067.5" y="1319.7373">ControllerGame</text><rect fill="#FEFECE" filter="url(#fgj4at9mtm4rj)" height="30.2969" style="stroke: #A80036; stroke-width: 1.5;" width="104" x="1196.5" y="51"/><text fill="#000000" font-family="sans-serif" font-size="14" lengthAdjust="spacingAndGlyphs" textLength="90" x="1203.5" y="70.9951">ControllerPet</text><rect fill="#FEFECE" filter="url(#fgj4at9mtm4rj)" height="30.2969" style="stroke: #A80036; stroke-width: 1.5;" width="104" x="1196.5" y="1299.7422"/><text fill="#000000" font-family="sans-serif" font-size="14" lengthAdjust="spacingAndGlyphs" textLength="90" x="1203.5" y="1319.7373">ControllerPet</text><rect fill="#FEFECE" filter="url(#fgj4at9mtm4rj)" height="30.2969" style="stroke: #A80036; stroke-width: 1.5;" width="79" x="1316" y="51"/><text fill="#000000" font-family="sans-serif" font-size="14" lengthAdjust="spacingAndGlyphs" textLength="65" x="1323" y="70.9951">ModelPet</text><rect fill="#FEFECE" filter="url(#fgj4at9mtm4rj)" height="30.2969" style="stroke: #A80036; stroke-width: 1.5;" width="79" x="1316" y="1299.7422"/><text fill="#000000" font-family="sans-serif" font-size="14" lengthAdjust="spacingAndGlyphs" textLength="65" x="1323" y="1319.7373">ModelPet</text><rect fill="#FEFECE" filter="url(#fgj4at9mtm4rj)" height="30.2969" style="stroke: #A80036; stroke-width: 1.5;" width="69" x="1409" y="51"/><text fill="#000000" font-family="sans-serif" font-size="14" lengthAdjust="spacingAndGlyphs" textLength="55" x="1416" y="70.9951">ViewPet</text><rect fill="#FEFECE" filter="url(#fgj4at9mtm4rj)" height="30.2969" style="stroke: #A80036; stroke-width: 1.5;" width="69" x="1409" y="1299.7422"/><text fill="#000000" font-family="sans-serif" font-size="14" lengthAdjust="spacingAndGlyphs" textLength="55" x="1416" y="1319.7373">ViewPet</text><rect fill="#FEFECE" filter="url(#fgj4at9mtm4rj)" height="30.2969" style="stroke: #A80036; stroke-width: 1.5;" width="108" x="1492" y="51"/><text fill="#000000" font-family="sans-serif" font-size="14" lengthAdjust="spacingAndGlyphs" textLength="94" x="1499" y="70.9951">ControllerStat</text><rect fill="#FEFECE" filter="url(#fgj4at9mtm4rj)" height="30.2969" style="stroke: #A80036; stroke-width: 1.5;" width="108" x="1492" y="1299.7422"/><text fill="#000000" font-family="sans-serif" font-size="14" lengthAdjust="spacingAndGlyphs" textLength="94" x="1499" y="1319.7373">ControllerStat</text><rect fill="#FEFECE" filter="url(#fgj4at9mtm4rj)" height="30.2969" style="stroke: #A80036; stroke-width: 1.5;" width="83" x="1614" y="51"/><text fill="#000000" font-family="sans-serif" font-size="14" lengthAdjust="spacingAndGlyphs" textLength="69" x="1621" y="70.9951">ModelStat</text><rect fill="#FEFECE" filter="url(#fgj4at9mtm4rj)" height="30.2969" style="stroke: #A80036; stroke-width: 1.5;" width="83" x="1614" y="1299.7422"/><text fill="#000000" font-family="sans-serif" font-size="14" lengthAdjust="spacingAndGlyphs" textLength="69" x="1621" y="1319.7373">ModelStat</text><rect fill="#FEFECE" filter="url(#fgj4at9mtm4rj)" height="30.2969" style="stroke: #A80036; stroke-width: 1.5;" width="73" x="1711" y="51"/><text fill="#000000" font-family="sans-serif" font-size="14" lengthAdjust="spacingAndGlyphs" textLength="59" x="1718" y="70.9951">ViewStat</text><rect fill="#FEFECE" filter="url(#fgj4at9mtm4rj)" height="30.2969" style="stroke: #A80036; stroke-width: 1.5;" width="73" x="1711" y="1299.7422"/><text fill="#000000" font-family="sans-serif" font-size="14" lengthAdjust="spacingAndGlyphs" textLength="59" x="1718" y="1319.7373">ViewStat</text><rect fill="#FEFECE" filter="url(#fgj4at9mtm4rj)" height="30.2969" style="stroke: #A80036; stroke-width: 1.5;" width="122" x="1798" y="51"/><text fill="#000000" font-family="sans-serif" font-size="14" lengthAdjust="spacingAndGlyphs" textLength="108" x="1805" y="70.9951">ControllerRoom</text><rect fill="#FEFECE" filter="url(#fgj4at9mtm4rj)" height="30.2969" style="stroke: #A80036; stroke-width: 1.5;" width="122" x="1798" y="1299.7422"/><text fill="#000000" font-family="sans-serif" font-size="14" lengthAdjust="spacingAndGlyphs" textLength="108" x="1805" y="1319.7373">ControllerRoom</text><rect fill="#FEFECE" filter="url(#fgj4at9mtm4rj)" height="30.2969" style="stroke: #A80036; stroke-width: 1.5;" width="97" x="1934" y="51"/><text fill="#000000" font-family="sans-serif" font-size="14" lengthAdjust="spacingAndGlyphs" textLength="83" x="1941" y="70.9951">ModelRoom</text><rect fill="#FEFECE" filter="url(#fgj4at9mtm4rj)" height="30.2969" style="stroke: #A80036; stroke-width: 1.5;" width="97" x="1934" y="1299.7422"/><text fill="#000000" font-family="sans-serif" font-size="14" lengthAdjust="spacingAndGlyphs" textLength="83" x="1941" y="1319.7373">ModelRoom</text><rect fill="#FEFECE" filter="url(#fgj4at9mtm4rj)" height="30.2969" style="stroke: #A80036; stroke-width: 1.5;" width="87" x="2045" y="51"/><text fill="#000000" font-family="sans-serif" font-size="14" lengthAdjust="spacingAndGlyphs" textLength="73" x="2052" y="70.9951">ViewRoom</text><rect fill="#FEFECE" filter="url(#fgj4at9mtm4rj)" height="30.2969" style="stroke: #A80036; stroke-width: 1.5;" width="87" x="2045" y="1299.7422"/><text fill="#000000" font-family="sans-serif" font-size="14" lengthAdjust="spacingAndGlyphs" textLength="73" x="2052" y="1319.7373">ViewRoom</text><rect fill="#FEFECE" filter="url(#fgj4at9mtm4rj)" height="30.2969" style="stroke: #A80036; stroke-width: 1.5;" width="97" x="2146" y="51"/><text fill="#000000" font-family="sans-serif" font-size="14" lengthAdjust="spacingAndGlyphs" textLength="83" x="2153" y="70.9951">ModelGame</text><rect fill="#FEFECE" filter="url(#fgj4at9mtm4rj)" height="30.2969" style="stroke: #A80036; stroke-width: 1.5;" width="97" x="2146" y="1299.7422"/><text fill="#000000" font-family="sans-serif" font-size="14" lengthAdjust="spacingAndGlyphs" textLength="83" x="2153" y="1319.7373">ModelGame</text><rect fill="#FEFECE" filter="url(#fgj4at9mtm4rj)" height="30.2969" style="stroke: #A80036; stroke-width: 1.5;" width="87" x="2257" y="51"/><text fill="#000000" font-family="sans-serif" font-size="14" lengthAdjust="spacingAndGlyphs" textLength="73" x="2264" y="70.9951">ViewGame</text><rect fill="#FEFECE" filter="url(#fgj4at9mtm4rj)" height="30.2969" style="stroke: #A80036; stroke-width: 1.5;" width="87" x="2257" y="1299.7422"/><text fill="#000000" font-family="sans-serif" font-size="14" lengthAdjust="spacingAndGlyphs" textLength="73" x="2264" y="1319.7373">ViewGame</text><polygon fill="#A80036" points="80.5,113.4297,90.5,117.4297,80.5,121.4297,84.5,117.4297" style="stroke: #A80036; stroke-width: 1.0;"/><line style="stroke: #A80036; stroke-width: 1.0;" x1="26.5" x2="86.5" y1="117.4297" y2="117.4297"/><text fill="#000000" font-family="sans-serif" font-size="13" lengthAdjust="spacingAndGlyphs" textLength="42" x="33.5" y="112.3638">launch</text><polygon fill="#A80036" points="187.5,142.5625,197.5,146.5625,187.5,150.5625,191.5,146.5625" style="stroke: #A80036; stroke-width: 1.0;"/><line style="stroke: #A80036; stroke-width: 1.0;" x1="92.5" x2="193.5" y1="146.5625" y2="146.5625"/><text fill="#000000" font-family="sans-serif" font-size="13" lengthAdjust="spacingAndGlyphs" textLength="83" x="99.5" y="141.4966">constructor()</text><polygon fill="#A80036" points="318,171.6953,328,175.6953,318,179.6953,322,175.6953" style="stroke: #A80036; stroke-width: 1.0;"/><line style="stroke: #A80036; stroke-width: 1.0;" x1="199.5" x2="324" y1="175.6953" y2="175.6953"/><text fill="#000000" font-family="sans-serif" font-size="13" lengthAdjust="spacingAndGlyphs" textLength="83" x="206.5" y="170.6294">constructor()</text><polygon fill="#A80036" points="443,200.8281,453,204.8281,443,208.8281,447,204.8281" style="stroke: #A80036; stroke-width: 1.0;"/><line style="stroke: #A80036; stroke-width: 1.0;" x1="330" x2="449" y1="204.8281" y2="204.8281"/><text fill="#000000" font-family="sans-serif" font-size="13" lengthAdjust="spacingAndGlyphs" textLength="83" x="337" y="199.7622">constructor()</text><polygon fill="#A80036" points="341,229.9609,331,233.9609,341,237.9609,337,233.9609" style="stroke: #A80036; stroke-width: 1.0;"/><line style="stroke: #A80036; stroke-width: 1.0; stroke-dasharray: 2.0,2.0;" x1="335" x2="454" y1="233.9609" y2="233.9609"/><text fill="#000000" font-family="sans-serif" font-size="13" lengthAdjust="spacingAndGlyphs" textLength="54" x="347" y="228.895">instance</text><polygon fill="#A80036" points="550.5,259.0938,560.5,263.0938,550.5,267.0938,554.5,263.0938" style="stroke: #A80036; stroke-width: 1.0;"/><line style="stroke: #A80036; stroke-width: 1.0;" x1="330" x2="556.5" y1="263.0938" y2="263.0938"/><text fill="#000000" font-family="sans-serif" font-size="13" lengthAdjust="spacingAndGlyphs" textLength="83" x="337" y="258.0278">constructor()</text><polygon fill="#A80036" points="657.5,288.2266,667.5,292.2266,657.5,296.2266,661.5,292.2266" style="stroke: #A80036; stroke-width: 1.0;"/><line style="stroke: #A80036; stroke-width: 1.0;" x1="562.5" x2="663.5" y1="292.2266" y2="292.2266"/><text fill="#000000" font-family="sans-serif" font-size="13" lengthAdjust="spacingAndGlyphs" textLength="83" x="569.5" y="287.1606">constructor()</text><polygon fill="#A80036" points="573.5,317.3594,563.5,321.3594,573.5,325.3594,569.5,321.3594" style="stroke: #A80036; stroke-width: 1.0;"/><line style="stroke: #A80036; stroke-width: 1.0; stroke-dasharray: 2.0,2.0;" x1="567.5" x2="668.5" y1="321.3594" y2="321.3594"/><text fill="#000000" font-family="sans-serif" font-size="13" lengthAdjust="spacingAndGlyphs" textLength="54" x="579.5" y="316.2935">instance</text><polygon fill="#A80036" points="779,346.4922,789,350.4922,779,354.4922,783,350.4922" style="stroke: #A80036; stroke-width: 1.0;"/><line style="stroke: #A80036; stroke-width: 1.0;" x1="562.5" x2="785" y1="350.4922" y2="350.4922"/><text fill="#000000" font-family="sans-serif" font-size="13" lengthAdjust="spacingAndGlyphs" textLength="83" x="569.5" y="345.4263">constructor()</text><polygon fill="#A80036" points="573.5,375.625,563.5,379.625,573.5,383.625,569.5,379.625" style="stroke: #A80036; stroke-width: 1.0;"/><line style="stroke: #A80036; stroke-width: 1.0; stroke-dasharray: 2.0,2.0;" x1="567.5" x2="790" y1="379.625" y2="379.625"/><text fill="#000000" font-family="sans-serif" font-size="13" lengthAdjust="spacingAndGlyphs" textLength="54" x="579.5" y="374.5591">instance</text><polygon fill="#A80036" points="894,404.7578,904,408.7578,894,412.7578,898,408.7578" style="stroke: #A80036; stroke-width: 1.0;"/><line style="stroke: #A80036; stroke-width: 1.0;" x1="562.5" x2="900" y1="408.7578" y2="408.7578"/><text fill="#000000" font-family="sans-serif" font-size="13" lengthAdjust="spacingAndGlyphs" textLength="83" x="569.5" y="403.6919">constructor()</text><polygon fill="#A80036" points="573.5,433.8906,563.5,437.8906,573.5,441.8906,569.5,437.8906" style="stroke: #A80036; stroke-width: 1.0;"/><line style="stroke: #A80036; stroke-width: 1.0; stroke-dasharray: 2.0,2.0;" x1="567.5" x2="905" y1="437.8906" y2="437.8906"/><text fill="#000000" font-family="sans-serif" font-size="13" lengthAdjust="spacingAndGlyphs" textLength="54" x="579.5" y="432.8247">instance</text><polygon fill="#A80036" points="992,463.0234,1002,467.0234,992,471.0234,996,467.0234" style="stroke: #A80036; stroke-width: 1.0;"/><line style="stroke: #A80036; stroke-width: 1.0;" x1="562.5" x2="998" y1="467.0234" y2="467.0234"/><text fill="#000000" font-family="sans-serif" font-size="13" lengthAdjust="spacingAndGlyphs" textLength="83" x="569.5" y="461.9575">constructor()</text><polygon fill="#A80036" points="573.5,492.1563,563.5,496.1563,573.5,500.1563,569.5,496.1563" style="stroke: #A80036; stroke-width: 1.0;"/><line style="stroke: #A80036; stroke-width: 1.0; stroke-dasharray: 2.0,2.0;" x1="567.5" x2="1003" y1="496.1563" y2="496.1563"/><text fill="#000000" font-family="sans-serif" font-size="13" lengthAdjust="spacingAndGlyphs" textLength="54" x="579.5" y="491.0903">instance</text><polygon fill="#A80036" points="341,521.2891,331,525.2891,341,529.2891,337,525.2891" style="stroke: #A80036; stroke-width: 1.0;"/><line style="stroke: #A80036; stroke-width: 1.0; stroke-dasharray: 2.0,2.0;" x1="335" x2="561.5" y1="525.2891" y2="525.2891"/><text fill="#000000" font-family="sans-serif" font-size="13" lengthAdjust="spacingAndGlyphs" textLength="54" x="347" y="520.2231">instance</text><polygon fill="#A80036" points="210.5,550.4219,200.5,554.4219,210.5,558.4219,206.5,554.4219" style="stroke: #A80036; stroke-width: 1.0;"/><line style="stroke: #A80036; stroke-width: 1.0; stroke-dasharray: 2.0,2.0;" x1="204.5" x2="329" y1="554.4219" y2="554.4219"/><text fill="#000000" font-family="sans-serif" font-size="13" lengthAdjust="spacingAndGlyphs" textLength="54" x="216.5" y="549.356">instance</text><polygon fill="#A80036" points="1111.5,579.5547,1121.5,583.5547,1111.5,587.5547,1115.5,583.5547" style="stroke: #A80036; stroke-width: 1.0;"/><line style="stroke: #A80036; stroke-width: 1.0;" x1="199.5" x2="1117.5" y1="583.5547" y2="583.5547"/><text fill="#000000" font-family="sans-serif" font-size="13" lengthAdjust="spacingAndGlyphs" textLength="83" x="206.5" y="578.4888">constructor()</text><polygon fill="#A80036" points="1238.5,608.6875,1248.5,612.6875,1238.5,616.6875,1242.5,612.6875" style="stroke: #A80036; stroke-width: 1.0;"/><line style="stroke: #A80036; stroke-width: 1.0;" x1="1123.5" x2="1244.5" y1="612.6875" y2="612.6875"/><text fill="#000000" font-family="sans-serif" font-size="13" lengthAdjust="spacingAndGlyphs" textLength="83" x="1130.5" y="607.6216">constructor()</text><polygon fill="#A80036" points="1345.5,637.8203,1355.5,641.8203,1345.5,645.8203,1349.5,641.8203" style="stroke: #A80036; stroke-width: 1.0;"/><line style="stroke: #A80036; stroke-width: 1.0;" x1="1250.5" x2="1351.5" y1="641.8203" y2="641.8203"/><text fill="#000000" font-family="sans-serif" font-size="13" lengthAdjust="spacingAndGlyphs" textLength="83" x="1257.5" y="636.7544">constructor()</text><polygon fill="#A80036" points="1261.5,666.9531,1251.5,670.9531,1261.5,674.9531,1257.5,670.9531" style="stroke: #A80036; stroke-width: 1.0;"/><line style="stroke: #A80036; stroke-width: 1.0; stroke-dasharray: 2.0,2.0;" x1="1255.5" x2="1356.5" y1="670.9531" y2="670.9531"/><text fill="#000000" font-family="sans-serif" font-size="13" lengthAdjust="spacingAndGlyphs" textLength="54" x="1267.5" y="665.8872">instance</text><polygon fill="#A80036" points="1433.5,696.0859,1443.5,700.0859,1433.5,704.0859,1437.5,700.0859" style="stroke: #A80036; stroke-width: 1.0;"/><line style="stroke: #A80036; stroke-width: 1.0;" x1="1250.5" x2="1439.5" y1="700.0859" y2="700.0859"/><text fill="#000000" font-family="sans-serif" font-size="13" lengthAdjust="spacingAndGlyphs" textLength="83" x="1257.5" y="695.02">constructor()</text><polygon fill="#A80036" points="1261.5,725.2188,1251.5,729.2188,1261.5,733.2188,1257.5,729.2188" style="stroke: #A80036; stroke-width: 1.0;"/><line style="stroke: #A80036; stroke-width: 1.0; stroke-dasharray: 2.0,2.0;" x1="1255.5" x2="1444.5" y1="729.2188" y2="729.2188"/><text fill="#000000" font-family="sans-serif" font-size="13" lengthAdjust="spacingAndGlyphs" textLength="54" x="1267.5" y="724.1528">instance</text><polygon fill="#A80036" points="1536,754.3516,1546,758.3516,1536,762.3516,1540,758.3516" style="stroke: #A80036; stroke-width: 1.0;"/><line style="stroke: #A80036; stroke-width: 1.0;" x1="1250.5" x2="1542" y1="758.3516" y2="758.3516"/><text fill="#000000" font-family="sans-serif" font-size="13" lengthAdjust="spacingAndGlyphs" textLength="83" x="1257.5" y="753.2856">constructor()</text><polygon fill="#A80036" points="1645.5,783.4844,1655.5,787.4844,1645.5,791.4844,1649.5,787.4844" style="stroke: #A80036; stroke-width: 1.0;"/><line style="stroke: #A80036; stroke-width: 1.0;" x1="1548" x2="1651.5" y1="787.4844" y2="787.4844"/><text fill="#000000" font-family="sans-serif" font-size="13" lengthAdjust="spacingAndGlyphs" textLength="83" x="1555" y="782.4185">constructor()</text><polygon fill="#A80036" points="1559,812.6172,1549,816.6172,1559,820.6172,1555,816.6172" style="stroke: #A80036; stroke-width: 1.0;"/><line style="stroke: #A80036; stroke-width: 1.0; stroke-dasharray: 2.0,2.0;" x1="1553" x2="1656.5" y1="816.6172" y2="816.6172"/><text fill="#000000" font-family="sans-serif" font-size="13" lengthAdjust="spacingAndGlyphs" textLength="54" x="1565" y="811.5513">instance</text><polygon fill="#A80036" points="1737.5,841.75,1747.5,845.75,1737.5,849.75,1741.5,845.75" style="stroke: #A80036; stroke-width: 1.0;"/><line style="stroke: #A80036; stroke-width: 1.0;" x1="1548" x2="1743.5" y1="845.75" y2="845.75"/><text fill="#000000" font-family="sans-serif" font-size="13" lengthAdjust="spacingAndGlyphs" textLength="83" x="1555" y="840.6841">constructor()</text><polygon fill="#A80036" points="1559,870.8828,1549,874.8828,1559,878.8828,1555,874.8828" style="stroke: #A80036; stroke-width: 1.0;"/><line style="stroke: #A80036; stroke-width: 1.0; stroke-dasharray: 2.0,2.0;" x1="1553" x2="1748.5" y1="874.8828" y2="874.8828"/><text fill="#000000" font-family="sans-serif" font-size="13" lengthAdjust="spacingAndGlyphs" textLength="54" x="1565" y="869.8169">instance</text><polygon fill="#A80036" points="1261.5,900.0156,1251.5,904.0156,1261.5,908.0156,1257.5,904.0156" style="stroke: #A80036; stroke-width: 1.0;"/><line style="stroke: #A80036; stroke-width: 1.0; stroke-dasharray: 2.0,2.0;" x1="1255.5" x2="1547" y1="904.0156" y2="904.0156"/><text fill="#000000" font-family="sans-serif" font-size="13" lengthAdjust="spacingAndGlyphs" textLength="54" x="1267.5" y="898.9497">instance</text><polygon fill="#A80036" points="1134.5,929.1484,1124.5,933.1484,1134.5,937.1484,1130.5,933.1484" style="stroke: #A80036; stroke-width: 1.0;"/><line style="stroke: #A80036; stroke-width: 1.0; stroke-dasharray: 2.0,2.0;" x1="1128.5" x2="1249.5" y1="933.1484" y2="933.1484"/><text fill="#000000" font-family="sans-serif" font-size="13" lengthAdjust="spacingAndGlyphs" textLength="54" x="1140.5" y="928.0825">instance</text><polygon fill="#A80036" points="1849,958.2813,1859,962.2813,1849,966.2813,1853,962.2813" style="stroke: #A80036; stroke-width: 1.0;"/><line style="stroke: #A80036; stroke-width: 1.0;" x1="1123.5" x2="1855" y1="962.2813" y2="962.2813"/><text fill="#000000" font-family="sans-serif" font-size="13" lengthAdjust="spacingAndGlyphs" textLength="83" x="1130.5" y="957.2153">constructor()</text><polygon fill="#A80036" points="1972.5,987.4141,1982.5,991.4141,1972.5,995.4141,1976.5,991.4141" style="stroke: #A80036; stroke-width: 1.0;"/><line style="stroke: #A80036; stroke-width: 1.0;" x1="1861" x2="1978.5" y1="991.4141" y2="991.4141"/><text fill="#000000" font-family="sans-serif" font-size="13" lengthAdjust="spacingAndGlyphs" textLength="83" x="1868" y="986.3481">constructor()</text><polygon fill="#A80036" points="1872,1016.5469,1862,1020.5469,1872,1024.5469,1868,1020.5469" style="stroke: #A80036; stroke-width: 1.0;"/><line style="stroke: #A80036; stroke-width: 1.0; stroke-dasharray: 2.0,2.0;" x1="1866" x2="1983.5" y1="1020.5469" y2="1020.5469"/><text fill="#000000" font-family="sans-serif" font-size="13" lengthAdjust="spacingAndGlyphs" textLength="54" x="1878" y="1015.481">instance</text><polygon fill="#A80036" points="2078.5,1045.6797,2088.5,1049.6797,2078.5,1053.6797,2082.5,1049.6797" style="stroke: #A80036; stroke-width: 1.0;"/><line style="stroke: #A80036; stroke-width: 1.0;" x1="1861" x2="2084.5" y1="1049.6797" y2="1049.6797"/><text fill="#000000" font-family="sans-serif" font-size="13" lengthAdjust="spacingAndGlyphs" textLength="83" x="1868" y="1044.6138">constructor()</text><polygon fill="#A80036" points="1872,1074.8125,1862,1078.8125,1872,1082.8125,1868,1078.8125" style="stroke: #A80036; stroke-width: 1.0;"/><line style="stroke: #A80036; stroke-width: 1.0; stroke-dasharray: 2.0,2.0;" x1="1866" x2="2089.5" y1="1078.8125" y2="1078.8125"/><text fill="#000000" font-family="sans-serif" font-size="13" lengthAdjust="spacingAndGlyphs" textLength="54" x="1878" y="1073.7466">instance</text><polygon fill="#A80036" points="1134.5,1103.9453,1124.5,1107.9453,1134.5,1111.9453,1130.5,1107.9453" style="stroke: #A80036; stroke-width: 1.0;"/><line style="stroke: #A80036; stroke-width: 1.0; stroke-dasharray: 2.0,2.0;" x1="1128.5" x2="1860" y1="1107.9453" y2="1107.9453"/><text fill="#000000" font-family="sans-serif" font-size="13" lengthAdjust="spacingAndGlyphs" textLength="54" x="1140.5" y="1102.8794">instance</text><polygon fill="#A80036" points="2184.5,1133.0781,2194.5,1137.0781,2184.5,1141.0781,2188.5,1137.0781" style="stroke: #A80036; stroke-width: 1.0;"/><line style="stroke: #A80036; stroke-width: 1.0;" x1="1123.5" x2="2190.5" y1="1137.0781" y2="1137.0781"/><text fill="#000000" font-family="sans-serif" font-size="13" lengthAdjust="spacingAndGlyphs" textLength="83" x="1130.5" y="1132.0122">constructor()</text><polygon fill="#A80036" points="1134.5,1162.2109,1124.5,1166.2109,1134.5,1170.2109,1130.5,1166.2109" style="stroke: #A80036; stroke-width: 1.0;"/><line style="stroke: #A80036; stroke-width: 1.0; stroke-dasharray: 2.0,2.0;" x1="1128.5" x2="2195.5" y1="1166.2109" y2="1166.2109"/><text fill="#000000" font-family="sans-serif" font-size="13" lengthAdjust="spacingAndGlyphs" textLength="54" x="1140.5" y="1161.145">instance</text><polygon fill="#A80036" points="2290.5,1191.3438,2300.5,1195.3438,2290.5,1199.3438,2294.5,1195.3438" style="stroke: #A80036; stroke-width: 1.0;"/><line style="stroke: #A80036; stroke-width: 1.0;" x1="1123.5" x2="2296.5" y1="1195.3438" y2="1195.3438"/><text fill="#000000" font-family="sans-serif" font-size="13" lengthAdjust="spacingAndGlyphs" textLength="315" x="1130.5" y="1190.2778">constructor(instanceViewPet, instanceViewRoom)</text><polygon fill="#A80036" points="1134.5,1220.4766,1124.5,1224.4766,1134.5,1228.4766,1130.5,1224.4766" style="stroke: #A80036; stroke-width: 1.0;"/><line style="stroke: #A80036; stroke-width: 1.0; stroke-dasharray: 2.0,2.0;" x1="1128.5" x2="2301.5" y1="1224.4766" y2="1224.4766"/><text fill="#000000" font-family="sans-serif" font-size="13" lengthAdjust="spacingAndGlyphs" textLength="54" x="1140.5" y="1219.4106">instance</text><polygon fill="#A80036" points="210.5,1249.6094,200.5,1253.6094,210.5,1257.6094,206.5,1253.6094" style="stroke: #A80036; stroke-width: 1.0;"/><line style="stroke: #A80036; stroke-width: 1.0; stroke-dasharray: 2.0,2.0;" x1="204.5" x2="1122.5" y1="1253.6094" y2="1253.6094"/><text fill="#000000" font-family="sans-serif" font-size="13" lengthAdjust="spacingAndGlyphs" textLength="54" x="216.5" y="1248.5435">instance</text><polygon fill="#A80036" points="103.5,1278.7422,93.5,1282.7422,103.5,1286.7422,99.5,1282.7422" style="stroke: #A80036; stroke-width: 1.0;"/><line style="stroke: #A80036; stroke-width: 1.0; stroke-dasharray: 2.0,2.0;" x1="97.5" x2="198.5" y1="1282.7422" y2="1282.7422"/><text fill="#000000" font-family="sans-serif" font-size="13" lengthAdjust="spacingAndGlyphs" textLength="54" x="109.5" y="1277.6763">instance</text><!--MD5=[ae073cea5eda949a2f9736a2ffb2a7a6]
@startuml

    actor user as Player

    Player -> App : launch
    
    App -> ControllerMain : constructor()
	
    	ControllerMain -> ControllerMenu : constructor()
    	
		    ControllerMenu -> ModelOption : constructor()
		    ModelOption - -> ControllerMenu : instance
		    ControllerMenu -> ViewMenu : constructor()
		    	ViewMenu -> ViewOption : constructor()
		    	ViewOption - -> ViewMenu : instance
		    	ViewMenu -> ViewCustomPet : constructor()
		    	ViewCustomPet - -> ViewMenu : instance
		    	ViewMenu -> ViewLoad : constructor()
		    	ViewLoad - -> ViewMenu : instance
		    	ViewMenu -> ViewAction : constructor()
		    	ViewAction - -> ViewMenu : instance
		    ViewMenu - -> ControllerMenu : instance
		    
	    ControllerMenu - -> ControllerMain : instance
	    
	    ControllerMain -> ControllerGame : constructor()
	    
		    ControllerGame -> ControllerPet : constructor()
		    
		    	ControllerPet -> ModelPet : constructor()
			    ModelPet - -> ControllerPet : instance
			    ControllerPet -> ViewPet : constructor()
			    ViewPet - -> ControllerPet : instance
			    
			    ControllerPet -> ControllerStat : constructor()
			    
		    	    ControllerStat -> ModelStat : constructor()
				    ModelStat - -> ControllerStat : instance
				    ControllerStat -> ViewStat : constructor()
				    ViewStat - -> ControllerStat : instance
				    
				ControllerStat - -> ControllerPet : instance
				
		    ControllerPet - -> ControllerGame : instance
		    
		    ControllerGame -> ControllerRoom : constructor()
		    
			    ControllerRoom -> ModelRoom : constructor()
			    ModelRoom - -> ControllerRoom : instance
			    ControllerRoom -> ViewRoom : constructor()
			    ViewRoom - -> ControllerRoom : instance
			    
		    ControllerRoom - -> ControllerGame : instance
		    
		    ControllerGame -> ModelGame : constructor()
		    ModelGame - -> ControllerGame : instance
		    ControllerGame -> ViewGame : constructor(instanceViewPet, instanceViewRoom)
		    ViewGame - -> ControllerGame : instance
	    
	    ControllerGame - -> ControllerMain : instance
	    
    ControllerMain - -> App : instance
	
@enduml

PlantUML version 1.2020.02(Sun Mar 01 11:22:07 CET 2020)
(GPL source distribution)
Java Runtime: OpenJDK Runtime Environment
JVM: OpenJDK 64-Bit Server VM
Java Version: 17.0.5+8-Debian-2
Operating System: Linux
Default Encoding: UTF-8
Language: fr
Country: FR
--></g></svg>