<?xml version="1.0" encoding="UTF-8" standalone="no"?><svg xmlns="http://www.w3.org/2000/svg" xmlns:xlink="http://www.w3.org/1999/xlink" contentScriptType="application/ecmascript" contentStyleType="text/css" height="1798px" preserveAspectRatio="none" style="width:1088px;height:1798px;" version="1.1" viewBox="0 0 1088 1798" width="1088px" zoomAndPan="magnify"><defs><filter height="300%" id="f1k67tqtven76h" width="300%" x="-1" y="-1"><feGaussianBlur result="blurOut" stdDeviation="2.0"/><feColorMatrix in="blurOut" result="blurOut2" type="matrix" values="0 0 0 0 0 0 0 0 0 0 0 0 0 0 0 0 0 0 .4 0"/><feOffset dx="4.0" dy="4.0" in="blurOut2" result="blurOut3"/><feBlend in="SourceGraphic" in2="blurOut3" mode="normal"/></filter></defs><g><rect fill="#FFFFFF" filter="url(#f1k67tqtven76h)" height="352.9375" style="stroke: #000000; stroke-width: 2.0;" width="653.5" x="23" y="55.2969"/><rect fill="#FFFFFF" filter="url(#f1k67tqtven76h)" height="116.2031" style="stroke: #000000; stroke-width: 2.0;" width="196" x="470.5" y="166.8281"/><rect fill="#FFFFFF" height="56.9375" style="stroke: none; stroke-width: 1.0;" width="196" x="470.5" y="226.0938"/><rect fill="#FFFFFF" filter="url(#f1k67tqtven76h)" height="90.2031" style="stroke: #000000; stroke-width: 2.0;" width="208" x="369.5" y="297.0313"/><rect fill="#FFFFFF" height="43.9375" style="stroke: none; stroke-width: 1.0;" width="208" x="369.5" y="343.2969"/><rect fill="#FFFFFF" filter="url(#f1k67tqtven76h)" height="367.2656" style="stroke: #000000; stroke-width: 2.0;" width="445.5" x="13" y="422.2344"/><rect fill="#FFFFFF" filter="url(#f1k67tqtven76h)" height="89.3984" style="stroke: #000000; stroke-width: 2.0;" width="425.5" x="23" y="606.0313"/><rect fill="#FFFFFF" height="87.0703" style="stroke: none; stroke-width: 1.0;" width="445.5" x="13" y="702.4297"/><rect fill="#FFFFFF" filter="url(#f1k67tqtven76h)" height="89.3984" style="stroke: #000000; stroke-width: 2.0;" width="425.5" x="23" y="920.0313"/><rect fill="#FFFFFF" filter="url(#f1k67tqtven76h)" height="717.3359" style="stroke: #000000; stroke-width: 2.0;" width="1063.5" x="13" y="1023.4297"/><rect fill="#FFFFFF" height="145.3359" style="stroke: none; stroke-width: 1.0;" width="1063.5" x="13" y="1215.3594"/><rect fill="#FFFFFF" height="293" style="stroke: none; stroke-width: 1.0;" width="1063.5" x="13" y="1360.6953"/><rect fill="#FFFFFF" filter="url(#f1k67tqtven76h)" height="264.1953" style="stroke: #000000; stroke-width: 2.0;" width="1043.5" x="23" y="1382.5"/><rect fill="#FFFFFF" height="87.0703" style="stroke: none; stroke-width: 1.0;" width="1063.5" x="13" y="1653.6953"/><line style="stroke: #A80036; stroke-width: 1.0; stroke-dasharray: 5.0,5.0;" x1="58" x2="58" y1="38.2969" y2="1757.7656"/><line style="stroke: #A80036; stroke-width: 1.0; stroke-dasharray: 5.0,5.0;" x1="256.5" x2="256.5" y1="38.2969" y2="1757.7656"/><line style="stroke: #A80036; stroke-width: 1.0; stroke-dasharray: 5.0,5.0;" x1="408.5" x2="408.5" y1="38.2969" y2="1757.7656"/><line style="stroke: #A80036; stroke-width: 1.0; stroke-dasharray: 5.0,5.0;" x1="523.5" x2="523.5" y1="38.2969" y2="1757.7656"/><line style="stroke: #A80036; stroke-width: 1.0; stroke-dasharray: 5.0,5.0;" x1="636.5" x2="636.5" y1="38.2969" y2="1757.7656"/><line style="stroke: #A80036; stroke-width: 1.0; stroke-dasharray: 5.0,5.0;" x1="715.5" x2="715.5" y1="38.2969" y2="1757.7656"/><line style="stroke: #A80036; stroke-width: 1.0; stroke-dasharray: 5.0,5.0;" x1="769.5" x2="769.5" y1="38.2969" y2="1757.7656"/><line style="stroke: #A80036; stroke-width: 1.0; stroke-dasharray: 5.0,5.0;" x1="859.5" x2="859.5" y1="38.2969" y2="1757.7656"/><line style="stroke: #A80036; stroke-width: 1.0; stroke-dasharray: 5.0,5.0;" x1="992.5" x2="992.5" y1="38.2969" y2="1757.7656"/><rect fill="#FEFECE" filter="url(#f1k67tqtven76h)" height="30.2969" style="stroke: #A80036; stroke-width: 1.5;" width="46" x="33" y="3"/><text fill="#000000" font-family="sans-serif" font-size="14" lengthAdjust="spacingAndGlyphs" textLength="32" x="40" y="22.9951">User</text><rect fill="#FEFECE" filter="url(#f1k67tqtven76h)" height="30.2969" style="stroke: #A80036; stroke-width: 1.5;" width="46" x="33" y="1756.7656"/><text fill="#000000" font-family="sans-serif" font-size="14" lengthAdjust="spacingAndGlyphs" textLength="32" x="40" y="1776.7607">User</text><rect fill="#FEFECE" filter="url(#f1k67tqtven76h)" height="30.2969" style="stroke: #A80036; stroke-width: 1.5;" width="41" x="234.5" y="3"/><text fill="#000000" font-family="sans-serif" font-size="14" lengthAdjust="spacingAndGlyphs" textLength="27" x="241.5" y="22.9951">App</text><rect fill="#FEFECE" filter="url(#f1k67tqtven76h)" height="30.2969" style="stroke: #A80036; stroke-width: 1.5;" width="41" x="234.5" y="1756.7656"/><text fill="#000000" font-family="sans-serif" font-size="14" lengthAdjust="spacingAndGlyphs" textLength="27" x="241.5" y="1776.7607">App</text><rect fill="#FEFECE" filter="url(#f1k67tqtven76h)" height="30.2969" style="stroke: #A80036; stroke-width: 1.5;" width="55" x="379.5" y="3"/><text fill="#000000" font-family="sans-serif" font-size="14" lengthAdjust="spacingAndGlyphs" textLength="41" x="386.5" y="22.9951">Game</text><rect fill="#FEFECE" filter="url(#f1k67tqtven76h)" height="30.2969" style="stroke: #A80036; stroke-width: 1.5;" width="55" x="379.5" y="1756.7656"/><text fill="#000000" font-family="sans-serif" font-size="14" lengthAdjust="spacingAndGlyphs" textLength="41" x="386.5" y="1776.7607">Game</text><rect fill="#FEFECE" filter="url(#f1k67tqtven76h)" height="30.2969" style="stroke: #A80036; stroke-width: 1.5;" width="83" x="480.5" y="3"/><text fill="#000000" font-family="sans-serif" font-size="14" lengthAdjust="spacingAndGlyphs" textLength="69" x="487.5" y="22.9951">ViewLogin</text><rect fill="#FEFECE" filter="url(#f1k67tqtven76h)" height="30.2969" style="stroke: #A80036; stroke-width: 1.5;" width="83" x="480.5" y="1756.7656"/><text fill="#000000" font-family="sans-serif" font-size="14" lengthAdjust="spacingAndGlyphs" textLength="69" x="487.5" y="1776.7607">ViewLogin</text><rect fill="#FEFECE" filter="url(#f1k67tqtven76h)" height="30.2969" style="stroke: #A80036; stroke-width: 1.5;" width="87" x="591.5" y="3"/><text fill="#000000" font-family="sans-serif" font-size="14" lengthAdjust="spacingAndGlyphs" textLength="73" x="598.5" y="22.9951">ViewGame</text><rect fill="#FEFECE" filter="url(#f1k67tqtven76h)" height="30.2969" style="stroke: #A80036; stroke-width: 1.5;" width="87" x="591.5" y="1756.7656"/><text fill="#000000" font-family="sans-serif" font-size="14" lengthAdjust="spacingAndGlyphs" textLength="73" x="598.5" y="1776.7607">ViewGame</text><rect fill="#FEFECE" filter="url(#f1k67tqtven76h)" height="30.2969" style="stroke: #A80036; stroke-width: 1.5;" width="43" x="692.5" y="3"/><text fill="#000000" font-family="sans-serif" font-size="14" lengthAdjust="spacingAndGlyphs" textLength="29" x="699.5" y="22.9951">Map</text><rect fill="#FEFECE" filter="url(#f1k67tqtven76h)" height="30.2969" style="stroke: #A80036; stroke-width: 1.5;" width="43" x="692.5" y="1756.7656"/><text fill="#000000" font-family="sans-serif" font-size="14" lengthAdjust="spacingAndGlyphs" textLength="29" x="699.5" y="1776.7607">Map</text><rect fill="#FEFECE" filter="url(#f1k67tqtven76h)" height="30.2969" style="stroke: #A80036; stroke-width: 1.5;" width="37" x="749.5" y="3"/><text fill="#000000" font-family="sans-serif" font-size="14" lengthAdjust="spacingAndGlyphs" textLength="23" x="756.5" y="22.9951">Pet</text><rect fill="#FEFECE" filter="url(#f1k67tqtven76h)" height="30.2969" style="stroke: #A80036; stroke-width: 1.5;" width="37" x="749.5" y="1756.7656"/><text fill="#000000" font-family="sans-serif" font-size="14" lengthAdjust="spacingAndGlyphs" textLength="23" x="756.5" y="1776.7607">Pet</text><rect fill="#FEFECE" filter="url(#f1k67tqtven76h)" height="30.2969" style="stroke: #A80036; stroke-width: 1.5;" width="114" x="800.5" y="3"/><text fill="#000000" font-family="sans-serif" font-size="14" lengthAdjust="spacingAndGlyphs" textLength="100" x="807.5" y="22.9951">ViewMiniGame</text><rect fill="#FEFECE" filter="url(#f1k67tqtven76h)" height="30.2969" style="stroke: #A80036; stroke-width: 1.5;" width="114" x="800.5" y="1756.7656"/><text fill="#000000" font-family="sans-serif" font-size="14" lengthAdjust="spacingAndGlyphs" textLength="100" x="807.5" y="1776.7607">ViewMiniGame</text><rect fill="#FEFECE" filter="url(#f1k67tqtven76h)" height="30.2969" style="stroke: #A80036; stroke-width: 1.5;" width="124" x="928.5" y="3"/><text fill="#000000" font-family="sans-serif" font-size="14" lengthAdjust="spacingAndGlyphs" textLength="110" x="935.5" y="22.9951">ModelMiniGame</text><rect fill="#FEFECE" filter="url(#f1k67tqtven76h)" height="30.2969" style="stroke: #A80036; stroke-width: 1.5;" width="124" x="928.5" y="1756.7656"/><text fill="#000000" font-family="sans-serif" font-size="14" lengthAdjust="spacingAndGlyphs" textLength="110" x="935.5" y="1776.7607">ModelMiniGame</text><path d="M23,55.2969 L87,55.2969 L87,62.2969 L77,72.2969 L23,72.2969 L23,55.2969 " fill="#EEEEEE" style="stroke: #000000; stroke-width: 1.0;"/><rect fill="none" height="352.9375" style="stroke: #000000; stroke-width: 2.0;" width="653.5" x="23" y="55.2969"/><text fill="#000000" font-family="sans-serif" font-size="13" font-weight="bold" lengthAdjust="spacingAndGlyphs" textLength="19" x="38" y="68.3638">alt</text><text fill="#000000" font-family="sans-serif" font-size="11" font-weight="bold" lengthAdjust="spacingAndGlyphs" textLength="76" x="102" y="67.5073">[login case]</text><polygon fill="#A80036" points="245,89.5625,255,93.5625,245,97.5625,249,93.5625" style="stroke: #A80036; stroke-width: 1.0;"/><line style="stroke: #A80036; stroke-width: 1.0;" x1="58" x2="251" y1="93.5625" y2="93.5625"/><text fill="#000000" font-family="sans-serif" font-size="13" lengthAdjust="spacingAndGlyphs" textLength="119" x="65" y="88.4966">click-button-login()</text><polygon fill="#A80036" points="397,118.6953,407,122.6953,397,126.6953,401,122.6953" style="stroke: #A80036; stroke-width: 1.0;"/><line style="stroke: #A80036; stroke-width: 1.0;" x1="257" x2="403" y1="122.6953" y2="122.6953"/><text fill="#000000" font-family="sans-serif" font-size="13" lengthAdjust="spacingAndGlyphs" textLength="118" x="264" y="117.6294">create-view-login()</text><polygon fill="#A80036" points="512,147.8281,522,151.8281,512,155.8281,516,151.8281" style="stroke: #A80036; stroke-width: 1.0;"/><line style="stroke: #A80036; stroke-width: 1.0;" x1="409" x2="518" y1="151.8281" y2="151.8281"/><text fill="#000000" font-family="sans-serif" font-size="13" lengthAdjust="spacingAndGlyphs" textLength="91" x="416" y="146.7622">identification()</text><path d="M470.5,166.8281 L534.5,166.8281 L534.5,173.8281 L524.5,183.8281 L470.5,183.8281 L470.5,166.8281 " fill="#EEEEEE" style="stroke: #000000; stroke-width: 1.0;"/><rect fill="none" height="116.2031" style="stroke: #000000; stroke-width: 2.0;" width="196" x="470.5" y="166.8281"/><text fill="#000000" font-family="sans-serif" font-size="13" font-weight="bold" lengthAdjust="spacingAndGlyphs" textLength="19" x="485.5" y="179.895">alt</text><text fill="#000000" font-family="sans-serif" font-size="11" font-weight="bold" lengthAdjust="spacingAndGlyphs" textLength="112" x="549.5" y="179.0386">[first-connection]</text><line style="stroke: #A80036; stroke-width: 1.0;" x1="524" x2="566" y1="205.0938" y2="205.0938"/><line style="stroke: #A80036; stroke-width: 1.0;" x1="566" x2="566" y1="205.0938" y2="218.0938"/><line style="stroke: #A80036; stroke-width: 1.0;" x1="525" x2="566" y1="218.0938" y2="218.0938"/><polygon fill="#A80036" points="535,214.0938,525,218.0938,535,222.0938,531,218.0938" style="stroke: #A80036; stroke-width: 1.0;"/><text fill="#000000" font-family="sans-serif" font-size="13" lengthAdjust="spacingAndGlyphs" textLength="90" x="531" y="200.0278">create-acount</text><line style="stroke: #000000; stroke-width: 1.0; stroke-dasharray: 2.0,2.0;" x1="470.5" x2="666.5" y1="227.0938" y2="227.0938"/><text fill="#000000" font-family="sans-serif" font-size="11" font-weight="bold" lengthAdjust="spacingAndGlyphs" textLength="81" x="475.5" y="237.3042">[connection]</text><line style="stroke: #A80036; stroke-width: 1.0;" x1="524" x2="566" y1="262.0313" y2="262.0313"/><line style="stroke: #A80036; stroke-width: 1.0;" x1="566" x2="566" y1="262.0313" y2="275.0313"/><line style="stroke: #A80036; stroke-width: 1.0;" x1="525" x2="566" y1="275.0313" y2="275.0313"/><polygon fill="#A80036" points="535,271.0313,525,275.0313,535,279.0313,531,275.0313" style="stroke: #A80036; stroke-width: 1.0;"/><text fill="#000000" font-family="sans-serif" font-size="13" lengthAdjust="spacingAndGlyphs" textLength="99" x="531" y="256.9653">authentification</text><path d="M369.5,297.0313 L433.5,297.0313 L433.5,304.0313 L423.5,314.0313 L369.5,314.0313 L369.5,297.0313 " fill="#EEEEEE" style="stroke: #000000; stroke-width: 1.0;"/><rect fill="none" height="90.2031" style="stroke: #000000; stroke-width: 2.0;" width="208" x="369.5" y="297.0313"/><text fill="#000000" font-family="sans-serif" font-size="13" font-weight="bold" lengthAdjust="spacingAndGlyphs" textLength="19" x="384.5" y="310.0981">alt</text><text fill="#000000" font-family="sans-serif" font-size="11" font-weight="bold" lengthAdjust="spacingAndGlyphs" textLength="61" x="448.5" y="309.2417">[success]</text><polygon fill="#A80036" points="420,331.2969,410,335.2969,420,339.2969,416,335.2969" style="stroke: #A80036; stroke-width: 1.0;"/><line style="stroke: #A80036; stroke-width: 1.0; stroke-dasharray: 2.0,2.0;" x1="414" x2="523" y1="335.2969" y2="335.2969"/><text fill="#000000" font-family="sans-serif" font-size="13" lengthAdjust="spacingAndGlyphs" textLength="51" x="426" y="330.231">success</text><line style="stroke: #000000; stroke-width: 1.0; stroke-dasharray: 2.0,2.0;" x1="369.5" x2="577.5" y1="344.2969" y2="344.2969"/><text fill="#000000" font-family="sans-serif" font-size="11" font-weight="bold" lengthAdjust="spacingAndGlyphs" textLength="48" x="374.5" y="354.5073">[echec]</text><polygon fill="#A80036" points="420,375.2344,410,379.2344,420,383.2344,416,379.2344" style="stroke: #A80036; stroke-width: 1.0;"/><line style="stroke: #A80036; stroke-width: 1.0; stroke-dasharray: 2.0,2.0;" x1="414" x2="523" y1="379.2344" y2="379.2344"/><text fill="#000000" font-family="sans-serif" font-size="13" lengthAdjust="spacingAndGlyphs" textLength="38" x="426" y="374.1685">echec</text><polygon fill="#A80036" points="268,396.2344,258,400.2344,268,404.2344,264,400.2344" style="stroke: #A80036; stroke-width: 1.0;"/><line style="stroke: #A80036; stroke-width: 1.0; stroke-dasharray: 2.0,2.0;" x1="262" x2="408" y1="400.2344" y2="400.2344"/><path d="M13,422.2344 L77,422.2344 L77,429.2344 L67,439.2344 L13,439.2344 L13,422.2344 " fill="#EEEEEE" style="stroke: #000000; stroke-width: 1.0;"/><rect fill="none" height="367.2656" style="stroke: #000000; stroke-width: 2.0;" width="445.5" x="13" y="422.2344"/><text fill="#000000" font-family="sans-serif" font-size="13" font-weight="bold" lengthAdjust="spacingAndGlyphs" textLength="19" x="28" y="435.3013">alt</text><text fill="#000000" font-family="sans-serif" font-size="11" font-weight="bold" lengthAdjust="spacingAndGlyphs" textLength="95" x="92" y="434.4448">[no-save case]</text><polygon fill="#A80036" points="245,456.5,255,460.5,245,464.5,249,460.5" style="stroke: #A80036; stroke-width: 1.0;"/><line style="stroke: #A80036; stroke-width: 1.0;" x1="58" x2="251" y1="460.5" y2="460.5"/><text fill="#000000" font-family="sans-serif" font-size="13" lengthAdjust="spacingAndGlyphs" textLength="156" x="65" y="455.4341">click-button-new-game()</text><polygon fill="#A80036" points="397,485.6328,407,489.6328,397,493.6328,401,489.6328" style="stroke: #A80036; stroke-width: 1.0;"/><line style="stroke: #A80036; stroke-width: 1.0;" x1="257" x2="403" y1="489.6328" y2="489.6328"/><text fill="#000000" font-family="sans-serif" font-size="13" lengthAdjust="spacingAndGlyphs" textLength="93" x="264" y="484.5669">create-game()</text><polygon fill="#A80036" points="268,514.7656,258,518.7656,268,522.7656,264,518.7656" style="stroke: #A80036; stroke-width: 1.0;"/><line style="stroke: #A80036; stroke-width: 1.0; stroke-dasharray: 2.0,2.0;" x1="262" x2="408" y1="518.7656" y2="518.7656"/><text fill="#000000" font-family="sans-serif" font-size="13" lengthAdjust="spacingAndGlyphs" textLength="117" x="274" y="513.6997">instance-de-game</text><polygon fill="#A80036" points="245,543.8984,255,547.8984,245,551.8984,249,547.8984" style="stroke: #A80036; stroke-width: 1.0;"/><line style="stroke: #A80036; stroke-width: 1.0;" x1="58" x2="251" y1="547.8984" y2="547.8984"/><text fill="#000000" font-family="sans-serif" font-size="13" lengthAdjust="spacingAndGlyphs" textLength="161" x="65" y="542.8325">click-button-choose-pet()</text><polygon fill="#A80036" points="397,573.0313,407,577.0313,397,581.0313,401,577.0313" style="stroke: #A80036; stroke-width: 1.0;"/><line style="stroke: #A80036; stroke-width: 1.0;" x1="257" x2="403" y1="577.0313" y2="577.0313"/><text fill="#000000" font-family="sans-serif" font-size="13" lengthAdjust="spacingAndGlyphs" textLength="56" x="264" y="571.9653">set-pet()</text><polygon fill="#A80036" points="268,587.0313,258,591.0313,268,595.0313,264,591.0313" style="stroke: #A80036; stroke-width: 1.0;"/><line style="stroke: #A80036; stroke-width: 1.0; stroke-dasharray: 2.0,2.0;" x1="262" x2="408" y1="591.0313" y2="591.0313"/><path d="M23,606.0313 L87,606.0313 L87,613.0313 L77,623.0313 L23,623.0313 L23,606.0313 " fill="#EEEEEE" style="stroke: #000000; stroke-width: 1.0;"/><rect fill="none" height="89.3984" style="stroke: #000000; stroke-width: 2.0;" width="425.5" x="23" y="606.0313"/><text fill="#000000" font-family="sans-serif" font-size="13" font-weight="bold" lengthAdjust="spacingAndGlyphs" textLength="19" x="38" y="619.0981">alt</text><text fill="#000000" font-family="sans-serif" font-size="11" font-weight="bold" lengthAdjust="spacingAndGlyphs" textLength="90" x="102" y="618.2417">[custom case]</text><polygon fill="#A80036" points="245,640.2969,255,644.2969,245,648.2969,249,644.2969" style="stroke: #A80036; stroke-width: 1.0;"/><line style="stroke: #A80036; stroke-width: 1.0;" x1="58" x2="251" y1="644.2969" y2="644.2969"/><text fill="#000000" font-family="sans-serif" font-size="13" lengthAdjust="spacingAndGlyphs" textLength="163" x="65" y="639.231">click-button-custom-pet()</text><polygon fill="#A80036" points="397,669.4297,407,673.4297,397,677.4297,401,673.4297" style="stroke: #A80036; stroke-width: 1.0;"/><line style="stroke: #A80036; stroke-width: 1.0;" x1="257" x2="403" y1="673.4297" y2="673.4297"/><text fill="#000000" font-family="sans-serif" font-size="13" lengthAdjust="spacingAndGlyphs" textLength="84" x="264" y="668.3638">custom-pet()</text><polygon fill="#A80036" points="268,683.4297,258,687.4297,268,691.4297,264,687.4297" style="stroke: #A80036; stroke-width: 1.0;"/><line style="stroke: #A80036; stroke-width: 1.0; stroke-dasharray: 2.0,2.0;" x1="262" x2="408" y1="687.4297" y2="687.4297"/><line style="stroke: #000000; stroke-width: 1.0; stroke-dasharray: 2.0,2.0;" x1="13" x2="458.5" y1="703.4297" y2="703.4297"/><text fill="#000000" font-family="sans-serif" font-size="11" font-weight="bold" lengthAdjust="spacingAndGlyphs" textLength="74" x="18" y="713.6401">[save case]</text><polygon fill="#A80036" points="245,734.3672,255,738.3672,245,742.3672,249,738.3672" style="stroke: #A80036; stroke-width: 1.0;"/><line style="stroke: #A80036; stroke-width: 1.0;" x1="58" x2="251" y1="738.3672" y2="738.3672"/><text fill="#000000" font-family="sans-serif" font-size="13" lengthAdjust="spacingAndGlyphs" textLength="116" x="65" y="733.3013">click-button-load()</text><polygon fill="#A80036" points="397,763.5,407,767.5,397,771.5,401,767.5" style="stroke: #A80036; stroke-width: 1.0;"/><line style="stroke: #A80036; stroke-width: 1.0;" x1="257" x2="403" y1="767.5" y2="767.5"/><text fill="#000000" font-family="sans-serif" font-size="13" lengthAdjust="spacingAndGlyphs" textLength="37" x="264" y="762.4341">load()</text><polygon fill="#A80036" points="268,777.5,258,781.5,268,785.5,264,781.5" style="stroke: #A80036; stroke-width: 1.0;"/><line style="stroke: #A80036; stroke-width: 1.0; stroke-dasharray: 2.0,2.0;" x1="262" x2="408" y1="781.5" y2="781.5"/><polygon fill="#A80036" points="245,813.6328,255,817.6328,245,821.6328,249,817.6328" style="stroke: #A80036; stroke-width: 1.0;"/><line style="stroke: #A80036; stroke-width: 1.0;" x1="58" x2="251" y1="817.6328" y2="817.6328"/><text fill="#000000" font-family="sans-serif" font-size="13" lengthAdjust="spacingAndGlyphs" textLength="161" x="65" y="812.5669">click-button-start-game()</text><polygon fill="#A80036" points="397,842.7656,407,846.7656,397,850.7656,401,846.7656" style="stroke: #A80036; stroke-width: 1.0;"/><line style="stroke: #A80036; stroke-width: 1.0;" x1="257" x2="403" y1="846.7656" y2="846.7656"/><text fill="#000000" font-family="sans-serif" font-size="13" lengthAdjust="spacingAndGlyphs" textLength="40" x="264" y="841.6997">start()</text><polygon fill="#A80036" points="625,871.8984,635,875.8984,625,879.8984,629,875.8984" style="stroke: #A80036; stroke-width: 1.0;"/><line style="stroke: #A80036; stroke-width: 1.0;" x1="409" x2="631" y1="875.8984" y2="875.8984"/><text fill="#000000" font-family="sans-serif" font-size="13" lengthAdjust="spacingAndGlyphs" textLength="125" x="416" y="870.8325">create-view-game()</text><polygon fill="#A80036" points="420,901.0313,410,905.0313,420,909.0313,416,905.0313" style="stroke: #A80036; stroke-width: 1.0;"/><line style="stroke: #A80036; stroke-width: 1.0; stroke-dasharray: 2.0,2.0;" x1="414" x2="636" y1="905.0313" y2="905.0313"/><text fill="#000000" font-family="sans-serif" font-size="13" lengthAdjust="spacingAndGlyphs" textLength="128" x="426" y="899.9653">instance-view-game</text><path d="M23,920.0313 L87,920.0313 L87,927.0313 L77,937.0313 L23,937.0313 L23,920.0313 " fill="#EEEEEE" style="stroke: #000000; stroke-width: 1.0;"/><rect fill="none" height="89.3984" style="stroke: #000000; stroke-width: 2.0;" width="425.5" x="23" y="920.0313"/><text fill="#000000" font-family="sans-serif" font-size="13" font-weight="bold" lengthAdjust="spacingAndGlyphs" textLength="19" x="38" y="933.0981">alt</text><text fill="#000000" font-family="sans-serif" font-size="11" font-weight="bold" lengthAdjust="spacingAndGlyphs" textLength="91" x="102" y="932.2417">[menu-option]</text><polygon fill="#A80036" points="245,954.2969,255,958.2969,245,962.2969,249,958.2969" style="stroke: #A80036; stroke-width: 1.0;"/><line style="stroke: #A80036; stroke-width: 1.0;" x1="58" x2="251" y1="958.2969" y2="958.2969"/><text fill="#000000" font-family="sans-serif" font-size="13" lengthAdjust="spacingAndGlyphs" textLength="129" x="65" y="953.231">click-button-option()</text><polygon fill="#A80036" points="397,983.4297,407,987.4297,397,991.4297,401,987.4297" style="stroke: #A80036; stroke-width: 1.0;"/><line style="stroke: #A80036; stroke-width: 1.0;" x1="257" x2="403" y1="987.4297" y2="987.4297"/><text fill="#000000" font-family="sans-serif" font-size="13" lengthAdjust="spacingAndGlyphs" textLength="79" x="264" y="982.3638">edit-option()</text><polygon fill="#A80036" points="268,997.4297,258,1001.4297,268,1005.4297,264,1001.4297" style="stroke: #A80036; stroke-width: 1.0;"/><line style="stroke: #A80036; stroke-width: 1.0; stroke-dasharray: 2.0,2.0;" x1="262" x2="408" y1="1001.4297" y2="1001.4297"/><path d="M13,1023.4297 L77,1023.4297 L77,1030.4297 L67,1040.4297 L13,1040.4297 L13,1023.4297 " fill="#EEEEEE" style="stroke: #000000; stroke-width: 1.0;"/><rect fill="none" height="717.3359" style="stroke: #000000; stroke-width: 2.0;" width="1063.5" x="13" y="1023.4297"/><text fill="#000000" font-family="sans-serif" font-size="13" font-weight="bold" lengthAdjust="spacingAndGlyphs" textLength="19" x="28" y="1036.4966">alt</text><text fill="#000000" font-family="sans-serif" font-size="11" font-weight="bold" lengthAdjust="spacingAndGlyphs" textLength="42" x="92" y="1035.6401">[room]</text><polygon fill="#A80036" points="245,1057.6953,255,1061.6953,245,1065.6953,249,1061.6953" style="stroke: #A80036; stroke-width: 1.0;"/><line style="stroke: #A80036; stroke-width: 1.0;" x1="58" x2="251" y1="1061.6953" y2="1061.6953"/><text fill="#000000" font-family="sans-serif" font-size="13" lengthAdjust="spacingAndGlyphs" textLength="175" x="65" y="1056.6294">click-button-change-room()</text><polygon fill="#A80036" points="397,1086.8281,407,1090.8281,397,1094.8281,401,1090.8281" style="stroke: #A80036; stroke-width: 1.0;"/><line style="stroke: #A80036; stroke-width: 1.0;" x1="257" x2="403" y1="1090.8281" y2="1090.8281"/><text fill="#000000" font-family="sans-serif" font-size="13" lengthAdjust="spacingAndGlyphs" textLength="96" x="264" y="1085.7622">change-room()</text><polygon fill="#A80036" points="704,1115.9609,714,1119.9609,704,1123.9609,708,1119.9609" style="stroke: #A80036; stroke-width: 1.0;"/><line style="stroke: #A80036; stroke-width: 1.0;" x1="409" x2="710" y1="1119.9609" y2="1119.9609"/><text fill="#000000" font-family="sans-serif" font-size="13" lengthAdjust="spacingAndGlyphs" textLength="71" x="416" y="1114.895">load-map()</text><polygon fill="#A80036" points="420,1145.0938,410,1149.0938,420,1153.0938,416,1149.0938" style="stroke: #A80036; stroke-width: 1.0;"/><line style="stroke: #A80036; stroke-width: 1.0; stroke-dasharray: 2.0,2.0;" x1="414" x2="715" y1="1149.0938" y2="1149.0938"/><text fill="#000000" font-family="sans-serif" font-size="13" lengthAdjust="spacingAndGlyphs" textLength="88" x="426" y="1144.0278">instance-map</text><polygon fill="#A80036" points="268,1174.2266,258,1178.2266,268,1182.2266,264,1178.2266" style="stroke: #A80036; stroke-width: 1.0;"/><line style="stroke: #A80036; stroke-width: 1.0; stroke-dasharray: 2.0,2.0;" x1="262" x2="408" y1="1178.2266" y2="1178.2266"/><text fill="#000000" font-family="sans-serif" font-size="13" lengthAdjust="spacingAndGlyphs" textLength="124" x="274" y="1173.1606">new-player-location</text><polygon fill="#A80036" points="69,1203.3594,59,1207.3594,69,1211.3594,65,1207.3594" style="stroke: #A80036; stroke-width: 1.0;"/><line style="stroke: #A80036; stroke-width: 1.0; stroke-dasharray: 2.0,2.0;" x1="63" x2="256" y1="1207.3594" y2="1207.3594"/><text fill="#000000" font-family="sans-serif" font-size="13" lengthAdjust="spacingAndGlyphs" textLength="124" x="75" y="1202.2935">new-player-location</text><line style="stroke: #000000; stroke-width: 1.0; stroke-dasharray: 2.0,2.0;" x1="13" x2="1076.5" y1="1216.3594" y2="1216.3594"/><text fill="#000000" font-family="sans-serif" font-size="11" font-weight="bold" lengthAdjust="spacingAndGlyphs" textLength="39" x="18" y="1226.5698">[feed]</text><polygon fill="#A80036" points="245,1247.2969,255,1251.2969,245,1255.2969,249,1251.2969" style="stroke: #A80036; stroke-width: 1.0;"/><line style="stroke: #A80036; stroke-width: 1.0;" x1="58" x2="251" y1="1251.2969" y2="1251.2969"/><text fill="#000000" font-family="sans-serif" font-size="13" lengthAdjust="spacingAndGlyphs" textLength="117" x="65" y="1246.231">click-button-feed()</text><polygon fill="#A80036" points="397,1276.4297,407,1280.4297,397,1284.4297,401,1280.4297" style="stroke: #A80036; stroke-width: 1.0;"/><line style="stroke: #A80036; stroke-width: 1.0;" x1="257" x2="403" y1="1280.4297" y2="1280.4297"/><text fill="#000000" font-family="sans-serif" font-size="13" lengthAdjust="spacingAndGlyphs" textLength="38" x="264" y="1275.3638">feed()</text><polygon fill="#A80036" points="758,1305.5625,768,1309.5625,758,1313.5625,762,1309.5625" style="stroke: #A80036; stroke-width: 1.0;"/><line style="stroke: #A80036; stroke-width: 1.0;" x1="409" x2="764" y1="1309.5625" y2="1309.5625"/><text fill="#000000" font-family="sans-serif" font-size="13" lengthAdjust="spacingAndGlyphs" textLength="102" x="416" y="1304.4966">change-states()</text><polygon fill="#A80036" points="648,1334.6953,638,1338.6953,648,1342.6953,644,1338.6953" style="stroke: #A80036; stroke-width: 1.0;"/><line style="stroke: #A80036; stroke-width: 1.0; stroke-dasharray: 2.0,2.0;" x1="642" x2="769" y1="1338.6953" y2="1338.6953"/><text fill="#000000" font-family="sans-serif" font-size="13" lengthAdjust="spacingAndGlyphs" textLength="70" x="654" y="1333.6294">new-states</text><polygon fill="#A80036" points="268,1348.6953,258,1352.6953,268,1356.6953,264,1352.6953" style="stroke: #A80036; stroke-width: 1.0;"/><line style="stroke: #A80036; stroke-width: 1.0; stroke-dasharray: 2.0,2.0;" x1="262" x2="408" y1="1352.6953" y2="1352.6953"/><line style="stroke: #000000; stroke-width: 1.0; stroke-dasharray: 2.0,2.0;" x1="13" x2="1076.5" y1="1361.6953" y2="1361.6953"/><text fill="#000000" font-family="sans-serif" font-size="11" font-weight="bold" lengthAdjust="spacingAndGlyphs" textLength="86" x="18" y="1371.9058">[interact-pet]</text><path d="M23,1382.5 L87,1382.5 L87,1389.5 L77,1399.5 L23,1399.5 L23,1382.5 " fill="#EEEEEE" style="stroke: #000000; stroke-width: 1.0;"/><rect fill="none" height="264.1953" style="stroke: #000000; stroke-width: 2.0;" width="1043.5" x="23" y="1382.5"/><text fill="#000000" font-family="sans-serif" font-size="13" font-weight="bold" lengthAdjust="spacingAndGlyphs" textLength="19" x="38" y="1395.5669">alt</text><text fill="#000000" font-family="sans-serif" font-size="11" font-weight="bold" lengthAdjust="spacingAndGlyphs" textLength="77" x="102" y="1394.7104">[mini-game]</text><polygon fill="#A80036" points="245,1416.7656,255,1420.7656,245,1424.7656,249,1420.7656" style="stroke: #A80036; stroke-width: 1.0;"/><line style="stroke: #A80036; stroke-width: 1.0;" x1="58" x2="251" y1="1420.7656" y2="1420.7656"/><text fill="#000000" font-family="sans-serif" font-size="13" lengthAdjust="spacingAndGlyphs" textLength="158" x="65" y="1415.6997">click-button-mini-game()</text><polygon fill="#A80036" points="397,1445.8984,407,1449.8984,397,1453.8984,401,1449.8984" style="stroke: #A80036; stroke-width: 1.0;"/><line style="stroke: #A80036; stroke-width: 1.0;" x1="257" x2="403" y1="1449.8984" y2="1449.8984"/><text fill="#000000" font-family="sans-serif" font-size="13" lengthAdjust="spacingAndGlyphs" textLength="128" x="264" y="1444.8325">charge-mini-game()</text><polygon fill="#A80036" points="847.5,1475.0313,857.5,1479.0313,847.5,1483.0313,851.5,1479.0313" style="stroke: #A80036; stroke-width: 1.0;"/><line style="stroke: #A80036; stroke-width: 1.0;" x1="409" x2="853.5" y1="1479.0313" y2="1479.0313"/><text fill="#000000" font-family="sans-serif" font-size="13" lengthAdjust="spacingAndGlyphs" textLength="157" x="416" y="1473.9653">create-view-mini-game()</text><polygon fill="#A80036" points="980.5,1504.1641,990.5,1508.1641,980.5,1512.1641,984.5,1508.1641" style="stroke: #A80036; stroke-width: 1.0;"/><line style="stroke: #A80036; stroke-width: 1.0;" x1="409" x2="986.5" y1="1508.1641" y2="1508.1641"/><text fill="#000000" font-family="sans-serif" font-size="13" lengthAdjust="spacingAndGlyphs" textLength="170" x="416" y="1503.0981">create-model-mini-game()</text><polygon fill="#A80036" points="420,1533.2969,410,1537.2969,420,1541.2969,416,1537.2969" style="stroke: #A80036; stroke-width: 1.0;"/><line style="stroke: #A80036; stroke-width: 1.0; stroke-dasharray: 2.0,2.0;" x1="414" x2="991.5" y1="1537.2969" y2="1537.2969"/><text fill="#000000" font-family="sans-serif" font-size="13" lengthAdjust="spacingAndGlyphs" textLength="173" x="426" y="1532.231">instance-model-mini-game</text><polygon fill="#A80036" points="420,1562.4297,410,1566.4297,420,1570.4297,416,1566.4297" style="stroke: #A80036; stroke-width: 1.0;"/><line style="stroke: #A80036; stroke-width: 1.0; stroke-dasharray: 2.0,2.0;" x1="414" x2="858.5" y1="1566.4297" y2="1566.4297"/><text fill="#000000" font-family="sans-serif" font-size="13" lengthAdjust="spacingAndGlyphs" textLength="160" x="426" y="1561.3638">instance-view-mini-game</text><polygon fill="#A80036" points="980.5,1591.5625,990.5,1595.5625,980.5,1599.5625,984.5,1595.5625" style="stroke: #A80036; stroke-width: 1.0;"/><line style="stroke: #A80036; stroke-width: 1.0;" x1="859.5" x2="986.5" y1="1595.5625" y2="1595.5625"/><text fill="#000000" font-family="sans-serif" font-size="13" lengthAdjust="spacingAndGlyphs" textLength="102" x="866.5" y="1590.4966">change-states()</text><polygon fill="#A80036" points="781,1620.6953,771,1624.6953,781,1628.6953,777,1624.6953" style="stroke: #A80036; stroke-width: 1.0;"/><line style="stroke: #A80036; stroke-width: 1.0; stroke-dasharray: 2.0,2.0;" x1="775" x2="991.5" y1="1624.6953" y2="1624.6953"/><text fill="#000000" font-family="sans-serif" font-size="13" lengthAdjust="spacingAndGlyphs" textLength="70" x="787" y="1619.6294">new-states</text><polygon fill="#A80036" points="268,1634.6953,258,1638.6953,268,1642.6953,264,1638.6953" style="stroke: #A80036; stroke-width: 1.0;"/><line style="stroke: #A80036; stroke-width: 1.0; stroke-dasharray: 2.0,2.0;" x1="262" x2="408" y1="1638.6953" y2="1638.6953"/><line style="stroke: #000000; stroke-width: 1.0; stroke-dasharray: 2.0,2.0;" x1="13" x2="1076.5" y1="1654.6953" y2="1654.6953"/><text fill="#000000" font-family="sans-serif" font-size="11" font-weight="bold" lengthAdjust="spacingAndGlyphs" textLength="51" x="18" y="1664.9058">[option]</text><polygon fill="#A80036" points="245,1685.6328,255,1689.6328,245,1693.6328,249,1689.6328" style="stroke: #A80036; stroke-width: 1.0;"/><line style="stroke: #A80036; stroke-width: 1.0;" x1="58" x2="251" y1="1689.6328" y2="1689.6328"/><text fill="#000000" font-family="sans-serif" font-size="13" lengthAdjust="spacingAndGlyphs" textLength="129" x="65" y="1684.5669">click-button-option()</text><polygon fill="#A80036" points="397,1714.7656,407,1718.7656,397,1722.7656,401,1718.7656" style="stroke: #A80036; stroke-width: 1.0;"/><line style="stroke: #A80036; stroke-width: 1.0;" x1="257" x2="403" y1="1718.7656" y2="1718.7656"/><text fill="#000000" font-family="sans-serif" font-size="13" lengthAdjust="spacingAndGlyphs" textLength="79" x="264" y="1713.6997">edit-option()</text><polygon fill="#A80036" points="268,1728.7656,258,1732.7656,268,1736.7656,264,1732.7656" style="stroke: #A80036; stroke-width: 1.0;"/><line style="stroke: #A80036; stroke-width: 1.0; stroke-dasharray: 2.0,2.0;" x1="262" x2="408" y1="1732.7656" y2="1732.7656"/><!--MD5=[5a2cefdf34194d3ee11ba7de346490c0]
@startuml

    alt login case

        User -> App : click-button-login()
        App -> Game : create-view-login()
        Game -> ViewLogin : identification()

        alt first-connection

            ViewLogin -> ViewLogin : create-acount

        else connection

            ViewLogin -> ViewLogin : authentification

        end

        alt success

            ViewLogin - -> Game : success

        else echec

        ViewLogin - -> Game : echec

    end

    Game - -> App

    end

    alt no-save case

        User -> App : click-button-new-game()
        App -> Game : create-game()
        Game - -> App : instance-de-game

        User -> App : click-button-choose-pet()
        App -> Game : set-pet()
        Game - -> App

        alt custom case

            User -> App : click-button-custom-pet()
            App -> Game : custom-pet()
            Game - -> App

        end

    else save case

        User -> App : click-button-load()
        App -> Game : load()
        Game - -> App

    end

    User -> App : click-button-start-game()
    App -> Game : start()
    Game -> ViewGame : create-view-game()
    ViewGame - -> Game : instance-view-game 

    alt menu-option

        User -> App : click-button-option()
        App -> Game : edit-option()
        Game - -> App

    end

    alt room 

        User -> App : click-button-change-room()
        App -> Game : change-room()
        Game -> Map : load-map()
        Map - -> Game : instance-map

        Game - -> App : new-player-location
        App - -> User : new-player-location

    else feed

        User -> App : click-button-feed()
        App -> Game : feed()
        Game -> Pet : change-states()
        Pet - -> ViewGame : new-states
        Game - -> App

    else interact-pet

        alt mini-game 
            User -> App : click-button-mini-game()
            App -> Game : charge-mini-game()
            Game -> ViewMiniGame : create-view-mini-game()
            Game -> ModelMiniGame : create-model-mini-game()
            ModelMiniGame - -> Game : instance-model-mini-game
            ViewMiniGame - -> Game : instance-view-mini-game
            ViewMiniGame -> ModelMiniGame : change-states()
            ModelMiniGame - -> Pet : new-states
            Game - -> App
        end 

    else option

        User -> App : click-button-option()
        App -> Game : edit-option()
        Game - -> App

    end

@enduml

PlantUML version 1.2020.02(Sun Mar 01 11:22:07 CET 2020)
(GPL source distribution)
Java Runtime: OpenJDK Runtime Environment
JVM: OpenJDK 64-Bit Server VM
Java Version: 17.0.4+8-Debian-1
Operating System: Linux
Default Encoding: UTF-8
Language: fr
Country: FR
--></g></svg>