<?xml version="1.0" encoding="UTF-8" standalone="no"?><svg xmlns="http://www.w3.org/2000/svg" xmlns:xlink="http://www.w3.org/1999/xlink" contentScriptType="application/ecmascript" contentStyleType="text/css" height="623px" preserveAspectRatio="none" style="width:1766px;height:623px;" version="1.1" viewBox="0 0 1766 623" width="1766px" zoomAndPan="magnify"><defs><filter height="300%" id="ftky8pfvol5cu" width="300%" x="-1" y="-1"><feGaussianBlur result="blurOut" stdDeviation="2.0"/><feColorMatrix in="blurOut" result="blurOut2" type="matrix" values="0 0 0 0 0 0 0 0 0 0 0 0 0 0 0 0 0 0 .4 0"/><feOffset dx="4.0" dy="4.0" in="blurOut2" result="blurOut3"/><feBlend in="SourceGraphic" in2="blurOut3" mode="normal"/></filter></defs><g><!--cluster model--><polygon fill="#FFFFFF" filter="url(#ftky8pfvol5cu)" points="511,24,565,24,572,46.2969,917,46.2969,917,342,511,342,511,24" style="stroke: #000000; stroke-width: 1.5;"/><line style="stroke: #000000; stroke-width: 1.5;" x1="511" x2="572" y1="46.2969" y2="46.2969"/><text fill="#000000" font-family="sans-serif" font-size="14" font-weight="bold" lengthAdjust="spacingAndGlyphs" textLength="48" x="515" y="38.9951">model</text><!--cluster view--><polygon fill="#FFFFFF" filter="url(#ftky8pfvol5cu)" points="941,24,984,24,991,46.2969,1744,46.2969,1744,216,941,216,941,24" style="stroke: #000000; stroke-width: 1.5;"/><line style="stroke: #000000; stroke-width: 1.5;" x1="941" x2="991" y1="46.2969" y2="46.2969"/><text fill="#000000" font-family="sans-serif" font-size="14" font-weight="bold" lengthAdjust="spacingAndGlyphs" textLength="37" x="945" y="38.9951">view</text><!--cluster Controller--><polygon fill="#FFFFFF" filter="url(#ftky8pfvol5cu)" points="22,133,107,133,114,155.2969,346,155.2969,346,611,22,611,22,133" style="stroke: #000000; stroke-width: 1.5;"/><line style="stroke: #000000; stroke-width: 1.5;" x1="22" x2="114" y1="155.2969" y2="155.2969"/><text fill="#000000" font-family="sans-serif" font-size="14" font-weight="bold" lengthAdjust="spacingAndGlyphs" textLength="79" x="26" y="147.9951">Controller</text><!--class ModelRoom--><rect fill="#FEFECE" filter="url(#ftky8pfvol5cu)" height="32" id="ModelRoom" style="stroke: #A80036; stroke-width: 1.5;" width="104" x="527" y="168"/><ellipse cx="542" cy="184" fill="#ADD1B2" rx="11" ry="11" style="stroke: #A80036; stroke-width: 1.0;"/><path d="M544.9688,189.6406 Q544.3906,189.9375 543.75,190.0781 Q543.1094,190.2344 542.4063,190.2344 Q539.9063,190.2344 538.5781,188.5938 Q537.2656,186.9375 537.2656,183.8125 Q537.2656,180.6875 538.5781,179.0313 Q539.9063,177.375 542.4063,177.375 Q543.1094,177.375 543.75,177.5313 Q544.4063,177.6875 544.9688,177.9844 L544.9688,180.7031 Q544.3438,180.125 543.75,179.8594 Q543.1563,179.5781 542.5313,179.5781 Q541.1875,179.5781 540.5,180.6563 Q539.8125,181.7188 539.8125,183.8125 Q539.8125,185.9063 540.5,186.9844 Q541.1875,188.0469 542.5313,188.0469 Q543.1563,188.0469 543.75,187.7813 Q544.3438,187.5 544.9688,186.9219 L544.9688,189.6406 Z "/><text fill="#000000" font-family="sans-serif" font-size="12" lengthAdjust="spacingAndGlyphs" textLength="72" x="556" y="188.1543">ModelRoom</text><!--class ModelGame--><rect fill="#FEFECE" filter="url(#ftky8pfvol5cu)" height="32" id="ModelGame" style="stroke: #A80036; stroke-width: 1.5;" width="105" x="658.5" y="59"/><ellipse cx="673.5" cy="75" fill="#ADD1B2" rx="11" ry="11" style="stroke: #A80036; stroke-width: 1.0;"/><path d="M676.4688,80.6406 Q675.8906,80.9375 675.25,81.0781 Q674.6094,81.2344 673.9063,81.2344 Q671.4063,81.2344 670.0781,79.5938 Q668.7656,77.9375 668.7656,74.8125 Q668.7656,71.6875 670.0781,70.0313 Q671.4063,68.375 673.9063,68.375 Q674.6094,68.375 675.25,68.5313 Q675.9063,68.6875 676.4688,68.9844 L676.4688,71.7031 Q675.8438,71.125 675.25,70.8594 Q674.6563,70.5781 674.0313,70.5781 Q672.6875,70.5781 672,71.6563 Q671.3125,72.7188 671.3125,74.8125 Q671.3125,76.9063 672,77.9844 Q672.6875,79.0469 674.0313,79.0469 Q674.6563,79.0469 675.25,78.7813 Q675.8438,78.5 676.4688,77.9219 L676.4688,80.6406 Z "/><text fill="#000000" font-family="sans-serif" font-size="12" lengthAdjust="spacingAndGlyphs" textLength="73" x="687.5" y="79.1543">ModelGame</text><!--class ModelPet--><rect fill="#FEFECE" filter="url(#ftky8pfvol5cu)" height="32" id="ModelPet" style="stroke: #A80036; stroke-width: 1.5;" width="89" x="666.5" y="168"/><ellipse cx="681.5" cy="184" fill="#B4A7E5" rx="11" ry="11" style="stroke: #A80036; stroke-width: 1.0;"/><path d="M677.4219,179.7656 L677.4219,177.6094 L684.8125,177.6094 L684.8125,179.7656 L682.3438,179.7656 L682.3438,187.8438 L684.8125,187.8438 L684.8125,190 L677.4219,190 L677.4219,187.8438 L679.8906,187.8438 L679.8906,179.7656 L677.4219,179.7656 Z "/><text fill="#000000" font-family="sans-serif" font-size="12" font-style="italic" lengthAdjust="spacingAndGlyphs" textLength="57" x="695.5" y="188.1543">ModelPet</text><!--class Robot--><rect fill="#FEFECE" filter="url(#ftky8pfvol5cu)" height="32" id="Robot" style="stroke: #A80036; stroke-width: 1.5;" width="69" x="570.5" y="294"/><ellipse cx="585.5" cy="310" fill="#ADD1B2" rx="11" ry="11" style="stroke: #A80036; stroke-width: 1.0;"/><path d="M588.4688,315.6406 Q587.8906,315.9375 587.25,316.0781 Q586.6094,316.2344 585.9063,316.2344 Q583.4063,316.2344 582.0781,314.5938 Q580.7656,312.9375 580.7656,309.8125 Q580.7656,306.6875 582.0781,305.0313 Q583.4063,303.375 585.9063,303.375 Q586.6094,303.375 587.25,303.5313 Q587.9063,303.6875 588.4688,303.9844 L588.4688,306.7031 Q587.8438,306.125 587.25,305.8594 Q586.6563,305.5781 586.0313,305.5781 Q584.6875,305.5781 584,306.6563 Q583.3125,307.7188 583.3125,309.8125 Q583.3125,311.9063 584,312.9844 Q584.6875,314.0469 586.0313,314.0469 Q586.6563,314.0469 587.25,313.7813 Q587.8438,313.5 588.4688,312.9219 L588.4688,315.6406 Z "/><text fill="#000000" font-family="sans-serif" font-size="12" lengthAdjust="spacingAndGlyphs" textLength="37" x="599.5" y="314.1543">Robot</text><!--class Animal--><rect fill="#FEFECE" filter="url(#ftky8pfvol5cu)" height="32" id="Animal" style="stroke: #A80036; stroke-width: 1.5;" width="73" x="674.5" y="294"/><ellipse cx="689.5" cy="310" fill="#ADD1B2" rx="11" ry="11" style="stroke: #A80036; stroke-width: 1.0;"/><path d="M692.4688,315.6406 Q691.8906,315.9375 691.25,316.0781 Q690.6094,316.2344 689.9063,316.2344 Q687.4063,316.2344 686.0781,314.5938 Q684.7656,312.9375 684.7656,309.8125 Q684.7656,306.6875 686.0781,305.0313 Q687.4063,303.375 689.9063,303.375 Q690.6094,303.375 691.25,303.5313 Q691.9063,303.6875 692.4688,303.9844 L692.4688,306.7031 Q691.8438,306.125 691.25,305.8594 Q690.6563,305.5781 690.0313,305.5781 Q688.6875,305.5781 688,306.6563 Q687.3125,307.7188 687.3125,309.8125 Q687.3125,311.9063 688,312.9844 Q688.6875,314.0469 690.0313,314.0469 Q690.6563,314.0469 691.25,313.7813 Q691.8438,313.5 692.4688,312.9219 L692.4688,315.6406 Z "/><text fill="#000000" font-family="sans-serif" font-size="12" lengthAdjust="spacingAndGlyphs" textLength="41" x="703.5" y="314.1543">Animal</text><!--class ModelOption--><rect fill="#FEFECE" filter="url(#ftky8pfvol5cu)" height="65.6094" id="ModelOption" style="stroke: #A80036; stroke-width: 1.5;" width="110" x="791" y="151"/><ellipse cx="806" cy="167" fill="#ADD1B2" rx="11" ry="11" style="stroke: #A80036; stroke-width: 1.0;"/><path d="M808.9688,172.6406 Q808.3906,172.9375 807.75,173.0781 Q807.1094,173.2344 806.4063,173.2344 Q803.9063,173.2344 802.5781,171.5938 Q801.2656,169.9375 801.2656,166.8125 Q801.2656,163.6875 802.5781,162.0313 Q803.9063,160.375 806.4063,160.375 Q807.1094,160.375 807.75,160.5313 Q808.4063,160.6875 808.9688,160.9844 L808.9688,163.7031 Q808.3438,163.125 807.75,162.8594 Q807.1563,162.5781 806.5313,162.5781 Q805.1875,162.5781 804.5,163.6563 Q803.8125,164.7188 803.8125,166.8125 Q803.8125,168.9063 804.5,169.9844 Q805.1875,171.0469 806.5313,171.0469 Q807.1563,171.0469 807.75,170.7813 Q808.3438,170.5 808.9688,169.9219 L808.9688,172.6406 Z "/><text fill="#000000" font-family="sans-serif" font-size="12" lengthAdjust="spacingAndGlyphs" textLength="78" x="820" y="171.1543">ModelOption</text><line style="stroke: #A80036; stroke-width: 1.5;" x1="792" x2="900" y1="183" y2="183"/><rect fill="none" height="6" style="stroke: #C82930; stroke-width: 1.0;" width="6" x="799" y="191.9023"/><text fill="#000000" font-family="sans-serif" font-size="11" lengthAdjust="spacingAndGlyphs" textLength="62" x="811" y="197.2104">String lang</text><rect fill="none" height="6" style="stroke: #C82930; stroke-width: 1.0;" width="6" x="799" y="204.707"/><text fill="#000000" font-family="sans-serif" font-size="11" lengthAdjust="spacingAndGlyphs" textLength="78" x="811" y="210.0151">Double sound</text><!--class ModelStat--><rect fill="#FEFECE" filter="url(#ftky8pfvol5cu)" height="32" id="ModelStat" style="stroke: #A80036; stroke-width: 1.5;" width="95" x="782.5" y="294"/><ellipse cx="797.5" cy="310" fill="#ADD1B2" rx="11" ry="11" style="stroke: #A80036; stroke-width: 1.0;"/><path d="M800.4688,315.6406 Q799.8906,315.9375 799.25,316.0781 Q798.6094,316.2344 797.9063,316.2344 Q795.4063,316.2344 794.0781,314.5938 Q792.7656,312.9375 792.7656,309.8125 Q792.7656,306.6875 794.0781,305.0313 Q795.4063,303.375 797.9063,303.375 Q798.6094,303.375 799.25,303.5313 Q799.9063,303.6875 800.4688,303.9844 L800.4688,306.7031 Q799.8438,306.125 799.25,305.8594 Q798.6563,305.5781 798.0313,305.5781 Q796.6875,305.5781 796,306.6563 Q795.3125,307.7188 795.3125,309.8125 Q795.3125,311.9063 796,312.9844 Q796.6875,314.0469 798.0313,314.0469 Q798.6563,314.0469 799.25,313.7813 Q799.8438,313.5 800.4688,312.9219 L800.4688,315.6406 Z "/><text fill="#000000" font-family="sans-serif" font-size="12" lengthAdjust="spacingAndGlyphs" textLength="63" x="811.5" y="314.1543">ModelStat</text><!--class ViewPet--><rect fill="#FEFECE" filter="url(#ftky8pfvol5cu)" height="32" id="ViewPet" style="stroke: #A80036; stroke-width: 1.5;" width="81" x="957.5" y="168"/><ellipse cx="972.5" cy="184" fill="#ADD1B2" rx="11" ry="11" style="stroke: #A80036; stroke-width: 1.0;"/><path d="M975.4688,189.6406 Q974.8906,189.9375 974.25,190.0781 Q973.6094,190.2344 972.9063,190.2344 Q970.4063,190.2344 969.0781,188.5938 Q967.7656,186.9375 967.7656,183.8125 Q967.7656,180.6875 969.0781,179.0313 Q970.4063,177.375 972.9063,177.375 Q973.6094,177.375 974.25,177.5313 Q974.9063,177.6875 975.4688,177.9844 L975.4688,180.7031 Q974.8438,180.125 974.25,179.8594 Q973.6563,179.5781 973.0313,179.5781 Q971.6875,179.5781 971,180.6563 Q970.3125,181.7188 970.3125,183.8125 Q970.3125,185.9063 971,186.9844 Q971.6875,188.0469 973.0313,188.0469 Q973.6563,188.0469 974.25,187.7813 Q974.8438,187.5 975.4688,186.9219 L975.4688,189.6406 Z "/><text fill="#000000" font-family="sans-serif" font-size="12" lengthAdjust="spacingAndGlyphs" textLength="49" x="986.5" y="188.1543">ViewPet</text><!--class ViewRoom--><rect fill="#FEFECE" filter="url(#ftky8pfvol5cu)" height="32" id="ViewRoom" style="stroke: #A80036; stroke-width: 1.5;" width="95" x="1073.5" y="168"/><ellipse cx="1088.5" cy="184" fill="#ADD1B2" rx="11" ry="11" style="stroke: #A80036; stroke-width: 1.0;"/><path d="M1091.4688,189.6406 Q1090.8906,189.9375 1090.25,190.0781 Q1089.6094,190.2344 1088.9063,190.2344 Q1086.4063,190.2344 1085.0781,188.5938 Q1083.7656,186.9375 1083.7656,183.8125 Q1083.7656,180.6875 1085.0781,179.0313 Q1086.4063,177.375 1088.9063,177.375 Q1089.6094,177.375 1090.25,177.5313 Q1090.9063,177.6875 1091.4688,177.9844 L1091.4688,180.7031 Q1090.8438,180.125 1090.25,179.8594 Q1089.6563,179.5781 1089.0313,179.5781 Q1087.6875,179.5781 1087,180.6563 Q1086.3125,181.7188 1086.3125,183.8125 Q1086.3125,185.9063 1087,186.9844 Q1087.6875,188.0469 1089.0313,188.0469 Q1089.6563,188.0469 1090.25,187.7813 Q1090.8438,187.5 1091.4688,186.9219 L1091.4688,189.6406 Z "/><text fill="#000000" font-family="sans-serif" font-size="12" lengthAdjust="spacingAndGlyphs" textLength="63" x="1102.5" y="188.1543">ViewRoom</text><!--class ViewStat--><rect fill="#FEFECE" filter="url(#ftky8pfvol5cu)" height="32" id="ViewStat" style="stroke: #A80036; stroke-width: 1.5;" width="86" x="1635" y="59"/><ellipse cx="1650" cy="75" fill="#ADD1B2" rx="11" ry="11" style="stroke: #A80036; stroke-width: 1.0;"/><path d="M1652.9688,80.6406 Q1652.3906,80.9375 1651.75,81.0781 Q1651.1094,81.2344 1650.4063,81.2344 Q1647.9063,81.2344 1646.5781,79.5938 Q1645.2656,77.9375 1645.2656,74.8125 Q1645.2656,71.6875 1646.5781,70.0313 Q1647.9063,68.375 1650.4063,68.375 Q1651.1094,68.375 1651.75,68.5313 Q1652.4063,68.6875 1652.9688,68.9844 L1652.9688,71.7031 Q1652.3438,71.125 1651.75,70.8594 Q1651.1563,70.5781 1650.5313,70.5781 Q1649.1875,70.5781 1648.5,71.6563 Q1647.8125,72.7188 1647.8125,74.8125 Q1647.8125,76.9063 1648.5,77.9844 Q1649.1875,79.0469 1650.5313,79.0469 Q1651.1563,79.0469 1651.75,78.7813 Q1652.3438,78.5 1652.9688,77.9219 L1652.9688,80.6406 Z "/><text fill="#000000" font-family="sans-serif" font-size="12" lengthAdjust="spacingAndGlyphs" textLength="54" x="1664" y="79.1543">ViewStat</text><!--class ViewMenu--><rect fill="#FEFECE" filter="url(#ftky8pfvol5cu)" height="32" id="ViewMenu" style="stroke: #A80036; stroke-width: 1.5;" width="94" x="1499" y="59"/><ellipse cx="1514" cy="75" fill="#ADD1B2" rx="11" ry="11" style="stroke: #A80036; stroke-width: 1.0;"/><path d="M1516.9688,80.6406 Q1516.3906,80.9375 1515.75,81.0781 Q1515.1094,81.2344 1514.4063,81.2344 Q1511.9063,81.2344 1510.5781,79.5938 Q1509.2656,77.9375 1509.2656,74.8125 Q1509.2656,71.6875 1510.5781,70.0313 Q1511.9063,68.375 1514.4063,68.375 Q1515.1094,68.375 1515.75,68.5313 Q1516.4063,68.6875 1516.9688,68.9844 L1516.9688,71.7031 Q1516.3438,71.125 1515.75,70.8594 Q1515.1563,70.5781 1514.5313,70.5781 Q1513.1875,70.5781 1512.5,71.6563 Q1511.8125,72.7188 1511.8125,74.8125 Q1511.8125,76.9063 1512.5,77.9844 Q1513.1875,79.0469 1514.5313,79.0469 Q1515.1563,79.0469 1515.75,78.7813 Q1516.3438,78.5 1516.9688,77.9219 L1516.9688,80.6406 Z "/><text fill="#000000" font-family="sans-serif" font-size="12" lengthAdjust="spacingAndGlyphs" textLength="62" x="1528" y="79.1543">ViewMenu</text><!--class ViewCustomPet--><rect fill="#FEFECE" filter="url(#ftky8pfvol5cu)" height="32" id="ViewCustomPet" style="stroke: #A80036; stroke-width: 1.5;" width="128" x="1338" y="168"/><ellipse cx="1353" cy="184" fill="#ADD1B2" rx="11" ry="11" style="stroke: #A80036; stroke-width: 1.0;"/><path d="M1355.9688,189.6406 Q1355.3906,189.9375 1354.75,190.0781 Q1354.1094,190.2344 1353.4063,190.2344 Q1350.9063,190.2344 1349.5781,188.5938 Q1348.2656,186.9375 1348.2656,183.8125 Q1348.2656,180.6875 1349.5781,179.0313 Q1350.9063,177.375 1353.4063,177.375 Q1354.1094,177.375 1354.75,177.5313 Q1355.4063,177.6875 1355.9688,177.9844 L1355.9688,180.7031 Q1355.3438,180.125 1354.75,179.8594 Q1354.1563,179.5781 1353.5313,179.5781 Q1352.1875,179.5781 1351.5,180.6563 Q1350.8125,181.7188 1350.8125,183.8125 Q1350.8125,185.9063 1351.5,186.9844 Q1352.1875,188.0469 1353.5313,188.0469 Q1354.1563,188.0469 1354.75,187.7813 Q1355.3438,187.5 1355.9688,186.9219 L1355.9688,189.6406 Z "/><text fill="#000000" font-family="sans-serif" font-size="12" lengthAdjust="spacingAndGlyphs" textLength="96" x="1367" y="188.1543">ViewCustomPet</text><!--class ViewLoad--><rect fill="#FEFECE" filter="url(#ftky8pfvol5cu)" height="32" id="ViewLoad" style="stroke: #A80036; stroke-width: 1.5;" width="90" x="1501" y="168"/><ellipse cx="1516" cy="184" fill="#ADD1B2" rx="11" ry="11" style="stroke: #A80036; stroke-width: 1.0;"/><path d="M1518.9688,189.6406 Q1518.3906,189.9375 1517.75,190.0781 Q1517.1094,190.2344 1516.4063,190.2344 Q1513.9063,190.2344 1512.5781,188.5938 Q1511.2656,186.9375 1511.2656,183.8125 Q1511.2656,180.6875 1512.5781,179.0313 Q1513.9063,177.375 1516.4063,177.375 Q1517.1094,177.375 1517.75,177.5313 Q1518.4063,177.6875 1518.9688,177.9844 L1518.9688,180.7031 Q1518.3438,180.125 1517.75,179.8594 Q1517.1563,179.5781 1516.5313,179.5781 Q1515.1875,179.5781 1514.5,180.6563 Q1513.8125,181.7188 1513.8125,183.8125 Q1513.8125,185.9063 1514.5,186.9844 Q1515.1875,188.0469 1516.5313,188.0469 Q1517.1563,188.0469 1517.75,187.7813 Q1518.3438,187.5 1518.9688,186.9219 L1518.9688,189.6406 Z "/><text fill="#000000" font-family="sans-serif" font-size="12" lengthAdjust="spacingAndGlyphs" textLength="58" x="1530" y="188.1543">ViewLoad</text><!--class ViewAction--><rect fill="#FEFECE" filter="url(#ftky8pfvol5cu)" height="32" id="ViewAction" style="stroke: #A80036; stroke-width: 1.5;" width="99" x="1203.5" y="168"/><ellipse cx="1218.5" cy="184" fill="#ADD1B2" rx="11" ry="11" style="stroke: #A80036; stroke-width: 1.0;"/><path d="M1221.4688,189.6406 Q1220.8906,189.9375 1220.25,190.0781 Q1219.6094,190.2344 1218.9063,190.2344 Q1216.4063,190.2344 1215.0781,188.5938 Q1213.7656,186.9375 1213.7656,183.8125 Q1213.7656,180.6875 1215.0781,179.0313 Q1216.4063,177.375 1218.9063,177.375 Q1219.6094,177.375 1220.25,177.5313 Q1220.9063,177.6875 1221.4688,177.9844 L1221.4688,180.7031 Q1220.8438,180.125 1220.25,179.8594 Q1219.6563,179.5781 1219.0313,179.5781 Q1217.6875,179.5781 1217,180.6563 Q1216.3125,181.7188 1216.3125,183.8125 Q1216.3125,185.9063 1217,186.9844 Q1217.6875,188.0469 1219.0313,188.0469 Q1219.6563,188.0469 1220.25,187.7813 Q1220.8438,187.5 1221.4688,186.9219 L1221.4688,189.6406 Z "/><text fill="#000000" font-family="sans-serif" font-size="12" lengthAdjust="spacingAndGlyphs" textLength="67" x="1232.5" y="188.1543">ViewAction</text><!--class ViewOption--><rect fill="#FEFECE" filter="url(#ftky8pfvol5cu)" height="32" id="ViewOption" style="stroke: #A80036; stroke-width: 1.5;" width="101" x="1626.5" y="168"/><ellipse cx="1641.5" cy="184" fill="#ADD1B2" rx="11" ry="11" style="stroke: #A80036; stroke-width: 1.0;"/><path d="M1644.4688,189.6406 Q1643.8906,189.9375 1643.25,190.0781 Q1642.6094,190.2344 1641.9063,190.2344 Q1639.4063,190.2344 1638.0781,188.5938 Q1636.7656,186.9375 1636.7656,183.8125 Q1636.7656,180.6875 1638.0781,179.0313 Q1639.4063,177.375 1641.9063,177.375 Q1642.6094,177.375 1643.25,177.5313 Q1643.9063,177.6875 1644.4688,177.9844 L1644.4688,180.7031 Q1643.8438,180.125 1643.25,179.8594 Q1642.6563,179.5781 1642.0313,179.5781 Q1640.6875,179.5781 1640,180.6563 Q1639.3125,181.7188 1639.3125,183.8125 Q1639.3125,185.9063 1640,186.9844 Q1640.6875,188.0469 1642.0313,188.0469 Q1642.6563,188.0469 1643.25,187.7813 Q1643.8438,187.5 1644.4688,186.9219 L1644.4688,189.6406 Z "/><text fill="#000000" font-family="sans-serif" font-size="12" lengthAdjust="spacingAndGlyphs" textLength="69" x="1655.5" y="188.1543">ViewOption</text><!--class ViewGame--><rect fill="#FEFECE" filter="url(#ftky8pfvol5cu)" height="32" id="ViewGame" style="stroke: #A80036; stroke-width: 1.5;" width="96" x="1073" y="59"/><ellipse cx="1088" cy="75" fill="#ADD1B2" rx="11" ry="11" style="stroke: #A80036; stroke-width: 1.0;"/><path d="M1090.9688,80.6406 Q1090.3906,80.9375 1089.75,81.0781 Q1089.1094,81.2344 1088.4063,81.2344 Q1085.9063,81.2344 1084.5781,79.5938 Q1083.2656,77.9375 1083.2656,74.8125 Q1083.2656,71.6875 1084.5781,70.0313 Q1085.9063,68.375 1088.4063,68.375 Q1089.1094,68.375 1089.75,68.5313 Q1090.4063,68.6875 1090.9688,68.9844 L1090.9688,71.7031 Q1090.3438,71.125 1089.75,70.8594 Q1089.1563,70.5781 1088.5313,70.5781 Q1087.1875,70.5781 1086.5,71.6563 Q1085.8125,72.7188 1085.8125,74.8125 Q1085.8125,76.9063 1086.5,77.9844 Q1087.1875,79.0469 1088.5313,79.0469 Q1089.1563,79.0469 1089.75,78.7813 Q1090.3438,78.5 1090.9688,77.9219 L1090.9688,80.6406 Z "/><text fill="#000000" font-family="sans-serif" font-size="12" lengthAdjust="spacingAndGlyphs" textLength="64" x="1102" y="79.1543">ViewGame</text><!--class ControllerMain--><rect fill="#FEFECE" filter="url(#ftky8pfvol5cu)" height="32" id="ControllerMain" style="stroke: #A80036; stroke-width: 1.5;" width="122" x="204" y="168"/><ellipse cx="219" cy="184" fill="#ADD1B2" rx="11" ry="11" style="stroke: #A80036; stroke-width: 1.0;"/><path d="M221.9688,189.6406 Q221.3906,189.9375 220.75,190.0781 Q220.1094,190.2344 219.4063,190.2344 Q216.9063,190.2344 215.5781,188.5938 Q214.2656,186.9375 214.2656,183.8125 Q214.2656,180.6875 215.5781,179.0313 Q216.9063,177.375 219.4063,177.375 Q220.1094,177.375 220.75,177.5313 Q221.4063,177.6875 221.9688,177.9844 L221.9688,180.7031 Q221.3438,180.125 220.75,179.8594 Q220.1563,179.5781 219.5313,179.5781 Q218.1875,179.5781 217.5,180.6563 Q216.8125,181.7188 216.8125,183.8125 Q216.8125,185.9063 217.5,186.9844 Q218.1875,188.0469 219.5313,188.0469 Q220.1563,188.0469 220.75,187.7813 Q221.3438,187.5 221.9688,186.9219 L221.9688,189.6406 Z "/><text fill="#000000" font-family="sans-serif" font-size="12" lengthAdjust="spacingAndGlyphs" textLength="90" x="233" y="188.1543">ControllerMain</text><!--class ControllerPet--><rect fill="#FEFECE" filter="url(#ftky8pfvol5cu)" height="65.6094" id="ControllerPet" style="stroke: #A80036; stroke-width: 1.5;" width="114" x="52" y="403"/><ellipse cx="67" cy="419" fill="#ADD1B2" rx="11" ry="11" style="stroke: #A80036; stroke-width: 1.0;"/><path d="M69.9688,424.6406 Q69.3906,424.9375 68.75,425.0781 Q68.1094,425.2344 67.4063,425.2344 Q64.9063,425.2344 63.5781,423.5938 Q62.2656,421.9375 62.2656,418.8125 Q62.2656,415.6875 63.5781,414.0313 Q64.9063,412.375 67.4063,412.375 Q68.1094,412.375 68.75,412.5313 Q69.4063,412.6875 69.9688,412.9844 L69.9688,415.7031 Q69.3438,415.125 68.75,414.8594 Q68.1563,414.5781 67.5313,414.5781 Q66.1875,414.5781 65.5,415.6563 Q64.8125,416.7188 64.8125,418.8125 Q64.8125,420.9063 65.5,421.9844 Q66.1875,423.0469 67.5313,423.0469 Q68.1563,423.0469 68.75,422.7813 Q69.3438,422.5 69.9688,421.9219 L69.9688,424.6406 Z "/><text fill="#000000" font-family="sans-serif" font-size="12" lengthAdjust="spacingAndGlyphs" textLength="82" x="81" y="423.1543">ControllerPet</text><line style="stroke: #A80036; stroke-width: 1.5;" x1="53" x2="165" y1="435" y2="435"/><rect fill="none" height="6" style="stroke: #C82930; stroke-width: 1.0;" width="6" x="60" y="443.9023"/><text fill="#000000" font-family="sans-serif" font-size="11" lengthAdjust="spacingAndGlyphs" textLength="51" x="72" y="449.2104">ModelPet</text><rect fill="none" height="6" style="stroke: #C82930; stroke-width: 1.0;" width="6" x="60" y="456.707"/><text fill="#000000" font-family="sans-serif" font-size="11" lengthAdjust="spacingAndGlyphs" textLength="44" x="72" y="462.0151">ViewPet</text><!--class ControllerRoom--><rect fill="#FEFECE" filter="url(#ftky8pfvol5cu)" height="65.6094" id="ControllerRoom" style="stroke: #A80036; stroke-width: 1.5;" width="128" x="201" y="403"/><ellipse cx="216" cy="419" fill="#ADD1B2" rx="11" ry="11" style="stroke: #A80036; stroke-width: 1.0;"/><path d="M218.9688,424.6406 Q218.3906,424.9375 217.75,425.0781 Q217.1094,425.2344 216.4063,425.2344 Q213.9063,425.2344 212.5781,423.5938 Q211.2656,421.9375 211.2656,418.8125 Q211.2656,415.6875 212.5781,414.0313 Q213.9063,412.375 216.4063,412.375 Q217.1094,412.375 217.75,412.5313 Q218.4063,412.6875 218.9688,412.9844 L218.9688,415.7031 Q218.3438,415.125 217.75,414.8594 Q217.1563,414.5781 216.5313,414.5781 Q215.1875,414.5781 214.5,415.6563 Q213.8125,416.7188 213.8125,418.8125 Q213.8125,420.9063 214.5,421.9844 Q215.1875,423.0469 216.5313,423.0469 Q217.1563,423.0469 217.75,422.7813 Q218.3438,422.5 218.9688,421.9219 L218.9688,424.6406 Z "/><text fill="#000000" font-family="sans-serif" font-size="12" lengthAdjust="spacingAndGlyphs" textLength="96" x="230" y="423.1543">ControllerRoom</text><line style="stroke: #A80036; stroke-width: 1.5;" x1="202" x2="328" y1="435" y2="435"/><rect fill="none" height="6" style="stroke: #C82930; stroke-width: 1.0;" width="6" x="209" y="443.9023"/><text fill="#000000" font-family="sans-serif" font-size="11" lengthAdjust="spacingAndGlyphs" textLength="65" x="221" y="449.2104">ModelRoom</text><rect fill="none" height="6" style="stroke: #C82930; stroke-width: 1.0;" width="6" x="209" y="456.707"/><text fill="#000000" font-family="sans-serif" font-size="11" lengthAdjust="spacingAndGlyphs" textLength="58" x="221" y="462.0151">ViewRoom</text><!--class ControllerStat--><rect fill="#FEFECE" filter="url(#ftky8pfvol5cu)" height="65.6094" id="ControllerStat" style="stroke: #A80036; stroke-width: 1.5;" width="119" x="49.5" y="529"/><ellipse cx="64.5" cy="545" fill="#ADD1B2" rx="11" ry="11" style="stroke: #A80036; stroke-width: 1.0;"/><path d="M67.4688,550.6406 Q66.8906,550.9375 66.25,551.0781 Q65.6094,551.2344 64.9063,551.2344 Q62.4063,551.2344 61.0781,549.5938 Q59.7656,547.9375 59.7656,544.8125 Q59.7656,541.6875 61.0781,540.0313 Q62.4063,538.375 64.9063,538.375 Q65.6094,538.375 66.25,538.5313 Q66.9063,538.6875 67.4688,538.9844 L67.4688,541.7031 Q66.8438,541.125 66.25,540.8594 Q65.6563,540.5781 65.0313,540.5781 Q63.6875,540.5781 63,541.6563 Q62.3125,542.7188 62.3125,544.8125 Q62.3125,546.9063 63,547.9844 Q63.6875,549.0469 65.0313,549.0469 Q65.6563,549.0469 66.25,548.7813 Q66.8438,548.5 67.4688,547.9219 L67.4688,550.6406 Z "/><text fill="#000000" font-family="sans-serif" font-size="12" lengthAdjust="spacingAndGlyphs" textLength="87" x="78.5" y="549.1543">ControllerStat</text><line style="stroke: #A80036; stroke-width: 1.5;" x1="50.5" x2="167.5" y1="561" y2="561"/><rect fill="none" height="6" style="stroke: #C82930; stroke-width: 1.0;" width="6" x="57.5" y="569.9023"/><text fill="#000000" font-family="sans-serif" font-size="11" lengthAdjust="spacingAndGlyphs" textLength="56" x="69.5" y="575.2104">ModelStat</text><rect fill="none" height="6" style="stroke: #C82930; stroke-width: 1.0;" width="6" x="57.5" y="582.707"/><text fill="#000000" font-family="sans-serif" font-size="11" lengthAdjust="spacingAndGlyphs" textLength="49" x="69.5" y="588.0151">ViewStat</text><!--class ControllerMenu--><rect fill="#FEFECE" filter="url(#ftky8pfvol5cu)" height="65.6094" id="ControllerMenu" style="stroke: #A80036; stroke-width: 1.5;" width="127" x="38.5" y="277"/><ellipse cx="53.5" cy="293" fill="#ADD1B2" rx="11" ry="11" style="stroke: #A80036; stroke-width: 1.0;"/><path d="M56.4688,298.6406 Q55.8906,298.9375 55.25,299.0781 Q54.6094,299.2344 53.9063,299.2344 Q51.4063,299.2344 50.0781,297.5938 Q48.7656,295.9375 48.7656,292.8125 Q48.7656,289.6875 50.0781,288.0313 Q51.4063,286.375 53.9063,286.375 Q54.6094,286.375 55.25,286.5313 Q55.9063,286.6875 56.4688,286.9844 L56.4688,289.7031 Q55.8438,289.125 55.25,288.8594 Q54.6563,288.5781 54.0313,288.5781 Q52.6875,288.5781 52,289.6563 Q51.3125,290.7188 51.3125,292.8125 Q51.3125,294.9063 52,295.9844 Q52.6875,297.0469 54.0313,297.0469 Q54.6563,297.0469 55.25,296.7813 Q55.8438,296.5 56.4688,295.9219 L56.4688,298.6406 Z "/><text fill="#000000" font-family="sans-serif" font-size="12" lengthAdjust="spacingAndGlyphs" textLength="95" x="67.5" y="297.1543">ControllerMenu</text><line style="stroke: #A80036; stroke-width: 1.5;" x1="39.5" x2="164.5" y1="309" y2="309"/><rect fill="none" height="6" style="stroke: #C82930; stroke-width: 1.0;" width="6" x="46.5" y="317.9023"/><text fill="#000000" font-family="sans-serif" font-size="11" lengthAdjust="spacingAndGlyphs" textLength="70" x="58.5" y="323.2104">ModelOption</text><rect fill="none" height="6" style="stroke: #C82930; stroke-width: 1.0;" width="6" x="46.5" y="330.707"/><text fill="#000000" font-family="sans-serif" font-size="11" lengthAdjust="spacingAndGlyphs" textLength="56" x="58.5" y="336.0151">ViewMenu</text><!--class ControllerGame--><rect fill="#FEFECE" filter="url(#ftky8pfvol5cu)" height="65.6094" id="ControllerGame" style="stroke: #A80036; stroke-width: 1.5;" width="129" x="200.5" y="277"/><ellipse cx="215.5" cy="293" fill="#ADD1B2" rx="11" ry="11" style="stroke: #A80036; stroke-width: 1.0;"/><path d="M218.4688,298.6406 Q217.8906,298.9375 217.25,299.0781 Q216.6094,299.2344 215.9063,299.2344 Q213.4063,299.2344 212.0781,297.5938 Q210.7656,295.9375 210.7656,292.8125 Q210.7656,289.6875 212.0781,288.0313 Q213.4063,286.375 215.9063,286.375 Q216.6094,286.375 217.25,286.5313 Q217.9063,286.6875 218.4688,286.9844 L218.4688,289.7031 Q217.8438,289.125 217.25,288.8594 Q216.6563,288.5781 216.0313,288.5781 Q214.6875,288.5781 214,289.6563 Q213.3125,290.7188 213.3125,292.8125 Q213.3125,294.9063 214,295.9844 Q214.6875,297.0469 216.0313,297.0469 Q216.6563,297.0469 217.25,296.7813 Q217.8438,296.5 218.4688,295.9219 L218.4688,298.6406 Z "/><text fill="#000000" font-family="sans-serif" font-size="12" lengthAdjust="spacingAndGlyphs" textLength="97" x="229.5" y="297.1543">ControllerGame</text><line style="stroke: #A80036; stroke-width: 1.5;" x1="201.5" x2="328.5" y1="309" y2="309"/><rect fill="none" height="6" style="stroke: #C82930; stroke-width: 1.0;" width="6" x="208.5" y="317.9023"/><text fill="#000000" font-family="sans-serif" font-size="11" lengthAdjust="spacingAndGlyphs" textLength="67" x="220.5" y="323.2104">ModelGame</text><rect fill="none" height="6" style="stroke: #C82930; stroke-width: 1.0;" width="6" x="208.5" y="330.707"/><text fill="#000000" font-family="sans-serif" font-size="11" lengthAdjust="spacingAndGlyphs" textLength="60" x="220.5" y="336.0151">ViewGame</text><!--class App--><rect fill="#FEFECE" filter="url(#ftky8pfvol5cu)" height="32" id="App" style="stroke: #A80036; stroke-width: 1.5;" width="56" x="301" y="59"/><ellipse cx="316" cy="75" fill="#ADD1B2" rx="11" ry="11" style="stroke: #A80036; stroke-width: 1.0;"/><path d="M318.9688,80.6406 Q318.3906,80.9375 317.75,81.0781 Q317.1094,81.2344 316.4063,81.2344 Q313.9063,81.2344 312.5781,79.5938 Q311.2656,77.9375 311.2656,74.8125 Q311.2656,71.6875 312.5781,70.0313 Q313.9063,68.375 316.4063,68.375 Q317.1094,68.375 317.75,68.5313 Q318.4063,68.6875 318.9688,68.9844 L318.9688,71.7031 Q318.3438,71.125 317.75,70.8594 Q317.1563,70.5781 316.5313,70.5781 Q315.1875,70.5781 314.5,71.6563 Q313.8125,72.7188 313.8125,74.8125 Q313.8125,76.9063 314.5,77.9844 Q315.1875,79.0469 316.5313,79.0469 Q317.1563,79.0469 317.75,78.7813 Q318.3438,78.5 318.9688,77.9219 L318.9688,80.6406 Z "/><text fill="#000000" font-family="sans-serif" font-size="12" lengthAdjust="spacingAndGlyphs" textLength="24" x="330" y="79.1543">App</text><!--class Lang--><rect fill="#FEFECE" filter="url(#ftky8pfvol5cu)" height="32" id="Lang" style="stroke: #A80036; stroke-width: 1.5;" width="63" x="362.5" y="168"/><ellipse cx="377.5" cy="184" fill="#B4A7E5" rx="11" ry="11" style="stroke: #A80036; stroke-width: 1.0;"/><path d="M373.4219,179.7656 L373.4219,177.6094 L380.8125,177.6094 L380.8125,179.7656 L378.3438,179.7656 L378.3438,187.8438 L380.8125,187.8438 L380.8125,190 L373.4219,190 L373.4219,187.8438 L375.8906,187.8438 L375.8906,179.7656 L373.4219,179.7656 Z "/><text fill="#000000" font-family="sans-serif" font-size="12" font-style="italic" lengthAdjust="spacingAndGlyphs" textLength="31" x="391.5" y="188.1543">Lang</text><!--class Fr--><rect fill="#FEFECE" filter="url(#ftky8pfvol5cu)" height="32" id="Fr" style="stroke: #A80036; stroke-width: 1.5;" width="44" x="368" y="294"/><ellipse cx="383" cy="310" fill="#ADD1B2" rx="11" ry="11" style="stroke: #A80036; stroke-width: 1.0;"/><path d="M385.9688,315.6406 Q385.3906,315.9375 384.75,316.0781 Q384.1094,316.2344 383.4063,316.2344 Q380.9063,316.2344 379.5781,314.5938 Q378.2656,312.9375 378.2656,309.8125 Q378.2656,306.6875 379.5781,305.0313 Q380.9063,303.375 383.4063,303.375 Q384.1094,303.375 384.75,303.5313 Q385.4063,303.6875 385.9688,303.9844 L385.9688,306.7031 Q385.3438,306.125 384.75,305.8594 Q384.1563,305.5781 383.5313,305.5781 Q382.1875,305.5781 381.5,306.6563 Q380.8125,307.7188 380.8125,309.8125 Q380.8125,311.9063 381.5,312.9844 Q382.1875,314.0469 383.5313,314.0469 Q384.1563,314.0469 384.75,313.7813 Q385.3438,313.5 385.9688,312.9219 L385.9688,315.6406 Z "/><text fill="#000000" font-family="sans-serif" font-size="12" lengthAdjust="spacingAndGlyphs" textLength="12" x="397" y="314.1543">Fr</text><!--class En--><rect fill="#FEFECE" filter="url(#ftky8pfvol5cu)" height="32" id="En" style="stroke: #A80036; stroke-width: 1.5;" width="48" x="447" y="294"/><ellipse cx="462" cy="310" fill="#ADD1B2" rx="11" ry="11" style="stroke: #A80036; stroke-width: 1.0;"/><path d="M464.9688,315.6406 Q464.3906,315.9375 463.75,316.0781 Q463.1094,316.2344 462.4063,316.2344 Q459.9063,316.2344 458.5781,314.5938 Q457.2656,312.9375 457.2656,309.8125 Q457.2656,306.6875 458.5781,305.0313 Q459.9063,303.375 462.4063,303.375 Q463.1094,303.375 463.75,303.5313 Q464.4063,303.6875 464.9688,303.9844 L464.9688,306.7031 Q464.3438,306.125 463.75,305.8594 Q463.1563,305.5781 462.5313,305.5781 Q461.1875,305.5781 460.5,306.6563 Q459.8125,307.7188 459.8125,309.8125 Q459.8125,311.9063 460.5,312.9844 Q461.1875,314.0469 462.5313,314.0469 Q463.1563,314.0469 463.75,313.7813 Q464.3438,313.5 464.9688,312.9219 L464.9688,315.6406 Z "/><text fill="#000000" font-family="sans-serif" font-size="12" lengthAdjust="spacingAndGlyphs" textLength="16" x="476" y="314.1543">En</text><!--link App to Lang--><path d="M338.31,91.33 C349.8,110.24 369.35,142.43 381.97,163.19 " fill="none" id="App-Lang" style="stroke: #A80036; stroke-width: 1.0; stroke-dasharray: 7.0,7.0;"/><polygon fill="#A80036" points="384.7,167.7,383.4611,157.9294,382.1107,163.4227,376.6174,162.0722,384.7,167.7" style="stroke: #A80036; stroke-width: 1.0;"/><!--link Lang to Fr--><path d="M392.86,220.37 C392.08,244.58 391.08,275.48 390.49,293.67 " fill="none" id="Lang-Fr" style="stroke: #A80036; stroke-width: 1.0; stroke-dasharray: 7.0,7.0;"/><polygon fill="none" points="385.87,219.97,393.51,200.2,399.86,220.42,385.87,219.97" style="stroke: #A80036; stroke-width: 1.0;"/><!--link Lang to En--><path d="M414.13,217.42 C429.41,242.03 449.72,274.74 461.48,293.67 " fill="none" id="Lang-En" style="stroke: #A80036; stroke-width: 1.0; stroke-dasharray: 7.0,7.0;"/><polygon fill="none" points="408.05,220.89,403.44,200.2,419.94,213.5,408.05,220.89" style="stroke: #A80036; stroke-width: 1.0;"/><!--link ModelPet to Robot--><path d="M684.82,215.62 C663.64,240.41 634.69,274.27 618.1,293.67 " fill="none" id="ModelPet-Robot" style="stroke: #A80036; stroke-width: 1.0; stroke-dasharray: 7.0,7.0;"/><polygon fill="none" points="679.69,210.86,698,200.2,690.33,219.96,679.69,210.86" style="stroke: #A80036; stroke-width: 1.0;"/><!--link ModelPet to Animal--><path d="M711,220.37 C711,244.58 711,275.48 711,293.67 " fill="none" id="ModelPet-Animal" style="stroke: #A80036; stroke-width: 1.0; stroke-dasharray: 7.0,7.0;"/><polygon fill="none" points="704,220.2,711,200.2,718,220.2,704,220.2" style="stroke: #A80036; stroke-width: 1.0;"/><!--link ModelPet to ModelStat--><path d="M734.74,209.74 C758.77,234.77 795.15,272.69 815.29,293.67 " fill="none" id="ModelPet-ModelStat" style="stroke: #A80036; stroke-width: 1.0;"/><polygon fill="#FFFFFF" points="725.59,200.2,726.8556,207.2992,733.8954,208.8614,732.6298,201.7622,725.59,200.2" style="stroke: #A80036; stroke-width: 1.0;"/><!--link ModelGame to ModelPet--><path d="M711,104.48 C711,124.77 711,151.26 711,167.7 " fill="none" id="ModelGame-ModelPet" style="stroke: #A80036; stroke-width: 1.0;"/><polygon fill="#FFFFFF" points="711,91.33,707,97.33,711,103.33,715,97.33,711,91.33" style="stroke: #A80036; stroke-width: 1.0;"/><!--link ModelGame to ModelRoom--><path d="M681.14,99.37 C670.91,107.44 659.42,116.57 649,125 C631.21,139.4 611.12,156.09 597.04,167.86 " fill="none" id="ModelGame-ModelRoom" style="stroke: #A80036; stroke-width: 1.0;"/><polygon fill="#FFFFFF" points="691.64,91.12,684.4509,91.683,682.2056,98.5356,689.3946,97.9726,691.64,91.12" style="stroke: #A80036; stroke-width: 1.0;"/><!--link ModelGame to ModelOption--><path d="M740.76,99.49 C750.98,107.57 762.5,116.68 773,125 C783.53,133.34 794.91,142.37 805.47,150.77 " fill="none" id="ModelGame-ModelOption" style="stroke: #A80036; stroke-width: 1.0;"/><polygon fill="#FFFFFF" points="730.28,91.22,732.5135,98.0765,739.7016,98.6519,737.4681,91.7954,730.28,91.22" style="stroke: #A80036; stroke-width: 1.0;"/><!--link ViewMenu to ViewOption--><path d="M1576.11,98.98 C1586.6,107.1 1598.4,116.36 1609,125 C1626.44,139.21 1645.94,155.93 1659.57,167.76 " fill="none" id="ViewMenu-ViewOption" style="stroke: #A80036; stroke-width: 1.0;"/><polygon fill="#A80036" points="1565.76,91,1568.0687,97.8315,1575.2627,98.328,1572.954,91.4964,1565.76,91" style="stroke: #A80036; stroke-width: 1.0;"/><!--link ViewMenu to ViewCustomPet--><path d="M1515.22,98.87 C1487.13,119.75 1446.4,150.01 1422.22,167.97 " fill="none" id="ViewMenu-ViewCustomPet" style="stroke: #A80036; stroke-width: 1.0;"/><polygon fill="#A80036" points="1525.67,91.1,1518.4679,91.4604,1516.0306,98.2471,1523.2327,97.8867,1525.67,91.1" style="stroke: #A80036; stroke-width: 1.0;"/><!--link ViewMenu to ViewLoad--><path d="M1546,104.48 C1546,124.77 1546,151.26 1546,167.7 " fill="none" id="ViewMenu-ViewLoad" style="stroke: #A80036; stroke-width: 1.0;"/><polygon fill="#A80036" points="1546,91.33,1542,97.33,1546,103.33,1550,97.33,1546,91.33" style="stroke: #A80036; stroke-width: 1.0;"/><!--link ViewGame to ViewAction--><path d="M1152.42,99.01 C1163.19,107.08 1175.23,116.3 1186,125 C1203.47,139.12 1222.81,156 1236.2,167.9 " fill="none" id="ViewGame-ViewAction" style="stroke: #A80036; stroke-width: 1.0;"/><polygon fill="#A80036" points="1141.77,91.1,1144.2029,97.8883,1151.4047,98.2535,1148.9719,91.4652,1141.77,91.1" style="stroke: #A80036; stroke-width: 1.0;"/><!--link ViewGame to ViewRoom--><path d="M1121,104.48 C1121,124.77 1121,151.26 1121,167.7 " fill="none" id="ViewGame-ViewRoom" style="stroke: #A80036; stroke-width: 1.0;"/><polygon fill="#FFFFFF" points="1121,91.33,1117,97.33,1121,103.33,1125,97.33,1121,91.33" style="stroke: #A80036; stroke-width: 1.0;"/><!--link ViewGame to ViewPet--><path d="M1088.72,98.94 C1078.06,106.89 1066.29,116.05 1056,125 C1040.31,138.64 1023.65,155.59 1012.23,167.63 " fill="none" id="ViewGame-ViewPet" style="stroke: #A80036; stroke-width: 1.0;"/><polygon fill="#FFFFFF" points="1099.34,91.17,1092.136,91.4909,1089.6615,98.2641,1096.8654,97.9432,1099.34,91.17" style="stroke: #A80036; stroke-width: 1.0;"/><!--link ControllerPet to ControllerStat--><path d="M109,482.34 C109,497.78 109,514.72 109,528.91 " fill="none" id="ControllerPet-ControllerStat" style="stroke: #A80036; stroke-width: 1.0;"/><polygon fill="#A80036" points="109,469.26,105,475.26,109,481.26,113,475.26,109,469.26" style="stroke: #A80036; stroke-width: 1.0;"/><!--link ControllerGame to ControllerPet--><path d="M214.07,351.48 C193.09,368.16 169.12,387.21 149.38,402.91 " fill="none" id="ControllerGame-ControllerPet" style="stroke: #A80036; stroke-width: 1.0;"/><polygon fill="#A80036" points="224.42,343.26,217.2337,343.8576,215.0213,350.7209,222.2076,350.1233,224.42,343.26" style="stroke: #A80036; stroke-width: 1.0;"/><!--link ControllerGame to ControllerRoom--><path d="M265,356.34 C265,371.78 265,388.72 265,402.91 " fill="none" id="ControllerGame-ControllerRoom" style="stroke: #A80036; stroke-width: 1.0;"/><polygon fill="#A80036" points="265,343.26,261,349.26,265,355.26,269,349.26,265,343.26" style="stroke: #A80036; stroke-width: 1.0;"/><!--link ControllerMain to ControllerGame--><path d="M265,213.34 C265,232.3 265,257.29 265,276.97 " fill="none" id="ControllerMain-ControllerGame" style="stroke: #A80036; stroke-width: 1.0;"/><polygon fill="#A80036" points="265,200.2,261,206.2,265,212.2,269,206.2,265,200.2" style="stroke: #A80036; stroke-width: 1.0;"/><!--link ControllerMain to ControllerMenu--><path d="M234.49,208.21 C209,227.6 172.39,255.45 144.11,276.97 " fill="none" id="ControllerMain-ControllerMenu" style="stroke: #A80036; stroke-width: 1.0;"/><polygon fill="#A80036" points="245.01,200.2,237.8127,200.6459,235.4561,207.461,242.6534,207.0151,245.01,200.2" style="stroke: #A80036; stroke-width: 1.0;"/><!--link App to ControllerMain--><path d="M313.01,102.73 C300.75,123.23 284.27,150.79 274.15,167.7 " fill="none" id="App-ControllerMain" style="stroke: #A80036; stroke-width: 1.0;"/><polygon fill="#A80036" points="319.83,91.33,313.3177,94.4268,313.6716,101.6292,320.1839,98.5324,319.83,91.33" style="stroke: #A80036; stroke-width: 1.0;"/><!--
@startuml

hide empty attributes
hide empty methods

class App
interface Lang
App ..> Lang
class Fr
Class En
Lang <|.. Fr
Lang <|.. En

package model {
    class ModelRoom
    class ModelGame
    
    interface ModelPet
    class Robot
    class Animal
    
    class ModelOption {
        -String lang
        -Double sound
    }
    class ModelStat
    ModelPet <|.. Robot
    ModelPet <|.. Animal
    
    ModelPet o- - ModelStat
    ModelGame o- - ModelPet
    ModelGame o- - ModelRoom
    ModelGame o- - ModelOption
}

package view {
    class ViewPet
    class ViewRoom
    class ViewStat
    class ViewMenu
    class ViewCustomPet
    class ViewLoad
    class ViewAction
    class ViewOption
    class ViewGame
    
    ViewMenu *- - ViewOption
    ViewMenu *- - ViewCustomPet
    ViewMenu *- - ViewLoad
    ViewGame *- - ViewAction
    ViewGame o- - ViewRoom
    ViewGame o- - ViewPet
}

package Controller {
    class ControllerMain
    
    class ControllerPet {
        -ModelPet
        -ViewPet
    }
    class ControllerRoom {
        -ModelRoom
        -ViewRoom
    }
    class ControllerStat {
        -ModelStat
        -ViewStat
    }
    class ControllerMenu {
        -ModelOption
        -ViewMenu
    }
    class ControllerGame {
        -ModelGame
        -ViewGame
    }
    
    ControllerPet *- - ControllerStat
    ControllerGame *- - ControllerPet
    ControllerGame *- - ControllerRoom
    ControllerMain *- - ControllerGame 
    ControllerMain *- - ControllerMenu
    
}

App *- - ControllerMain

@enduml

PlantUML version 1.2018.13(Mon Nov 26 18:11:51 CET 2018)
(GPL source distribution)
Java Runtime: OpenJDK Runtime Environment
JVM: OpenJDK 64-Bit Server VM
Java Version: 17.0.4+8-Ubuntu-120.04
Operating System: Linux
OS Version: 5.15.0-52-generic
Default Encoding: UTF-8
Language: fr
Country: FR
--></g></svg>