<?xml version="1.0" encoding="UTF-8" standalone="no"?><svg xmlns="http://www.w3.org/2000/svg" xmlns:xlink="http://www.w3.org/1999/xlink" contentScriptType="application/ecmascript" contentStyleType="text/css" height="2482px" preserveAspectRatio="none" style="width:1326px;height:2482px;" version="1.1" viewBox="0 0 1326 2482" width="1326px" zoomAndPan="magnify"><defs><filter height="300%" id="f1pm65e10tg6vb" width="300%" x="-1" y="-1"><feGaussianBlur result="blurOut" stdDeviation="2.0"/><feColorMatrix in="blurOut" result="blurOut2" type="matrix" values="0 0 0 0 0 0 0 0 0 0 0 0 0 0 0 0 0 0 .4 0"/><feOffset dx="4.0" dy="4.0" in="blurOut2" result="blurOut3"/><feBlend in="SourceGraphic" in2="blurOut3" mode="normal"/></filter></defs><g><rect fill="#FFFFFF" filter="url(#f1pm65e10tg6vb)" height="365.1328" style="stroke: #000000; stroke-width: 2.0;" width="642.5" x="23" y="248.9609"/><rect fill="#FFFFFF" filter="url(#f1pm65e10tg6vb)" height="144.2031" style="stroke: #000000; stroke-width: 2.0;" width="570.5" x="85" y="389.625"/><rect fill="#FFFFFF" height="70.9375" style="stroke: none; stroke-width: 1.0;" width="570.5" x="85" y="462.8906"/><rect fill="#FFFFFF" filter="url(#f1pm65e10tg6vb)" height="59.2656" style="stroke: #000000; stroke-width: 2.0;" width="253" x="85" y="547.8281"/><rect fill="#FFFFFF" filter="url(#f1pm65e10tg6vb)" height="684.5938" style="stroke: #000000; stroke-width: 2.0;" width="855" x="13" y="628.0938"/><rect fill="#FFFFFF" filter="url(#f1pm65e10tg6vb)" height="131.5313" style="stroke: #000000; stroke-width: 2.0;" width="835" x="23" y="941.4219"/><rect fill="#FFFFFF" height="232.7344" style="stroke: none; stroke-width: 1.0;" width="855" x="13" y="1079.9531"/><rect fill="#FFFFFF" filter="url(#f1pm65e10tg6vb)" height="133.6641" style="stroke: #000000; stroke-width: 2.0;" width="835" x="23" y="1414.0859"/><rect fill="#FFFFFF" filter="url(#f1pm65e10tg6vb)" height="816.0625" style="stroke: #000000; stroke-width: 2.0;" width="1301.5" x="13" y="1561.75"/><rect fill="#FFFFFF" height="202.6016" style="stroke: none; stroke-width: 1.0;" width="1301.5" x="13" y="1737.5469"/><rect fill="#FFFFFF" height="437.6641" style="stroke: none; stroke-width: 1.0;" width="1301.5" x="13" y="1940.1484"/><rect fill="#FFFFFF" filter="url(#f1pm65e10tg6vb)" height="408.8594" style="stroke: #000000; stroke-width: 2.0;" width="1281.5" x="23" y="1961.9531"/><line style="stroke: #A80036; stroke-width: 1.0; stroke-dasharray: 5.0,5.0;" x1="51" x2="51" y1="86.2969" y2="2394.8125"/><line style="stroke: #A80036; stroke-width: 1.0; stroke-dasharray: 5.0,5.0;" x1="117" x2="117" y1="86.2969" y2="2394.8125"/><line style="stroke: #A80036; stroke-width: 1.0; stroke-dasharray: 5.0,5.0;" x1="272.5" x2="272.5" y1="86.2969" y2="2394.8125"/><line style="stroke: #A80036; stroke-width: 1.0; stroke-dasharray: 5.0,5.0;" x1="417" x2="417" y1="86.2969" y2="2394.8125"/><line style="stroke: #A80036; stroke-width: 1.0; stroke-dasharray: 5.0,5.0;" x1="527" x2="527" y1="86.2969" y2="2394.8125"/><line style="stroke: #A80036; stroke-width: 1.0; stroke-dasharray: 5.0,5.0;" x1="650" x2="650" y1="86.2969" y2="2394.8125"/><line style="stroke: #A80036; stroke-width: 1.0; stroke-dasharray: 5.0,5.0;" x1="802" x2="802" y1="86.2969" y2="2394.8125"/><line style="stroke: #A80036; stroke-width: 1.0; stroke-dasharray: 5.0,5.0;" x1="881" x2="881" y1="86.2969" y2="2394.8125"/><line style="stroke: #A80036; stroke-width: 1.0; stroke-dasharray: 5.0,5.0;" x1="935" x2="935" y1="86.2969" y2="2394.8125"/><line style="stroke: #A80036; stroke-width: 1.0; stroke-dasharray: 5.0,5.0;" x1="1051.5" x2="1051.5" y1="86.2969" y2="2394.8125"/><line style="stroke: #A80036; stroke-width: 1.0; stroke-dasharray: 5.0,5.0;" x1="1235.5" x2="1235.5" y1="86.2969" y2="2394.8125"/><text fill="#000000" font-family="sans-serif" font-size="14" lengthAdjust="spacingAndGlyphs" textLength="31" x="33" y="82.9951">user</text><ellipse cx="51.5" cy="13" fill="#FEFECE" filter="url(#f1pm65e10tg6vb)" rx="8" ry="8" style="stroke: #A80036; stroke-width: 2.0;"/><path d="M51.5,21 L51.5,48 M38.5,29 L64.5,29 M51.5,48 L38.5,63 M51.5,48 L64.5,63 " fill="none" filter="url(#f1pm65e10tg6vb)" style="stroke: #A80036; stroke-width: 2.0;"/><text fill="#000000" font-family="sans-serif" font-size="14" lengthAdjust="spacingAndGlyphs" textLength="31" x="33" y="2406.8076">user</text><ellipse cx="51.5" cy="2420.1094" fill="#FEFECE" filter="url(#f1pm65e10tg6vb)" rx="8" ry="8" style="stroke: #A80036; stroke-width: 2.0;"/><path d="M51.5,2428.1094 L51.5,2455.1094 M38.5,2436.1094 L64.5,2436.1094 M51.5,2455.1094 L38.5,2470.1094 M51.5,2455.1094 L64.5,2470.1094 " fill="none" filter="url(#f1pm65e10tg6vb)" style="stroke: #A80036; stroke-width: 2.0;"/><rect fill="#FEFECE" filter="url(#f1pm65e10tg6vb)" height="30.2969" style="stroke: #A80036; stroke-width: 1.5;" width="41" x="95" y="51"/><text fill="#000000" font-family="sans-serif" font-size="14" lengthAdjust="spacingAndGlyphs" textLength="27" x="102" y="70.9951">App</text><rect fill="#FEFECE" filter="url(#f1pm65e10tg6vb)" height="30.2969" style="stroke: #A80036; stroke-width: 1.5;" width="41" x="95" y="2393.8125"/><text fill="#000000" font-family="sans-serif" font-size="14" lengthAdjust="spacingAndGlyphs" textLength="27" x="102" y="2413.8076">App</text><rect fill="#FEFECE" filter="url(#f1pm65e10tg6vb)" height="30.2969" style="stroke: #A80036; stroke-width: 1.5;" width="92" x="224.5" y="51"/><text fill="#000000" font-family="sans-serif" font-size="14" lengthAdjust="spacingAndGlyphs" textLength="78" x="231.5" y="70.9951">OptionView</text><rect fill="#FEFECE" filter="url(#f1pm65e10tg6vb)" height="30.2969" style="stroke: #A80036; stroke-width: 1.5;" width="92" x="224.5" y="2393.8125"/><text fill="#000000" font-family="sans-serif" font-size="14" lengthAdjust="spacingAndGlyphs" textLength="78" x="231.5" y="2413.8076">OptionView</text><rect fill="#FEFECE" filter="url(#f1pm65e10tg6vb)" height="30.2969" style="stroke: #A80036; stroke-width: 1.5;" width="83" x="374" y="51"/><text fill="#000000" font-family="sans-serif" font-size="14" lengthAdjust="spacingAndGlyphs" textLength="69" x="381" y="70.9951">LoginView</text><rect fill="#FEFECE" filter="url(#f1pm65e10tg6vb)" height="30.2969" style="stroke: #A80036; stroke-width: 1.5;" width="83" x="374" y="2393.8125"/><text fill="#000000" font-family="sans-serif" font-size="14" lengthAdjust="spacingAndGlyphs" textLength="69" x="381" y="2413.8076">LoginView</text><rect fill="#FEFECE" filter="url(#f1pm65e10tg6vb)" height="30.2969" style="stroke: #A80036; stroke-width: 1.5;" width="109" x="471" y="51"/><text fill="#000000" font-family="sans-serif" font-size="14" lengthAdjust="spacingAndGlyphs" textLength="95" x="478" y="70.9951">LoginChecker</text><rect fill="#FEFECE" filter="url(#f1pm65e10tg6vb)" height="30.2969" style="stroke: #A80036; stroke-width: 1.5;" width="109" x="471" y="2393.8125"/><text fill="#000000" font-family="sans-serif" font-size="14" lengthAdjust="spacingAndGlyphs" textLength="95" x="478" y="2413.8076">LoginChecker</text><rect fill="#FEFECE" filter="url(#f1pm65e10tg6vb)" height="30.2969" style="stroke: #A80036; stroke-width: 1.5;" width="55" x="621" y="51"/><text fill="#000000" font-family="sans-serif" font-size="14" lengthAdjust="spacingAndGlyphs" textLength="41" x="628" y="70.9951">Game</text><rect fill="#FEFECE" filter="url(#f1pm65e10tg6vb)" height="30.2969" style="stroke: #A80036; stroke-width: 1.5;" width="55" x="621" y="2393.8125"/><text fill="#000000" font-family="sans-serif" font-size="14" lengthAdjust="spacingAndGlyphs" textLength="41" x="628" y="2413.8076">Game</text><rect fill="#FEFECE" filter="url(#f1pm65e10tg6vb)" height="30.2969" style="stroke: #A80036; stroke-width: 1.5;" width="87" x="757" y="51"/><text fill="#000000" font-family="sans-serif" font-size="14" lengthAdjust="spacingAndGlyphs" textLength="73" x="764" y="70.9951">GameView</text><rect fill="#FEFECE" filter="url(#f1pm65e10tg6vb)" height="30.2969" style="stroke: #A80036; stroke-width: 1.5;" width="87" x="757" y="2393.8125"/><text fill="#000000" font-family="sans-serif" font-size="14" lengthAdjust="spacingAndGlyphs" textLength="73" x="764" y="2413.8076">GameView</text><rect fill="#FEFECE" filter="url(#f1pm65e10tg6vb)" height="30.2969" style="stroke: #A80036; stroke-width: 1.5;" width="43" x="858" y="51"/><text fill="#000000" font-family="sans-serif" font-size="14" lengthAdjust="spacingAndGlyphs" textLength="29" x="865" y="70.9951">Map</text><rect fill="#FEFECE" filter="url(#f1pm65e10tg6vb)" height="30.2969" style="stroke: #A80036; stroke-width: 1.5;" width="43" x="858" y="2393.8125"/><text fill="#000000" font-family="sans-serif" font-size="14" lengthAdjust="spacingAndGlyphs" textLength="29" x="865" y="2413.8076">Map</text><rect fill="#FEFECE" filter="url(#f1pm65e10tg6vb)" height="30.2969" style="stroke: #A80036; stroke-width: 1.5;" width="37" x="915" y="51"/><text fill="#000000" font-family="sans-serif" font-size="14" lengthAdjust="spacingAndGlyphs" textLength="23" x="922" y="70.9951">Pet</text><rect fill="#FEFECE" filter="url(#f1pm65e10tg6vb)" height="30.2969" style="stroke: #A80036; stroke-width: 1.5;" width="37" x="915" y="2393.8125"/><text fill="#000000" font-family="sans-serif" font-size="14" lengthAdjust="spacingAndGlyphs" textLength="23" x="922" y="2413.8076">Pet</text><rect fill="#FEFECE" filter="url(#f1pm65e10tg6vb)" height="30.2969" style="stroke: #A80036; stroke-width: 1.5;" width="82" x="1008.5" y="51"/><text fill="#000000" font-family="sans-serif" font-size="14" lengthAdjust="spacingAndGlyphs" textLength="68" x="1015.5" y="70.9951">MiniGame</text><rect fill="#FEFECE" filter="url(#f1pm65e10tg6vb)" height="30.2969" style="stroke: #A80036; stroke-width: 1.5;" width="82" x="1008.5" y="2393.8125"/><text fill="#000000" font-family="sans-serif" font-size="14" lengthAdjust="spacingAndGlyphs" textLength="68" x="1015.5" y="2413.8076">MiniGame</text><rect fill="#FEFECE" filter="url(#f1pm65e10tg6vb)" height="30.2969" style="stroke: #A80036; stroke-width: 1.5;" width="114" x="1176.5" y="51"/><text fill="#000000" font-family="sans-serif" font-size="14" lengthAdjust="spacingAndGlyphs" textLength="100" x="1183.5" y="70.9951">ViewMiniGame</text><rect fill="#FEFECE" filter="url(#f1pm65e10tg6vb)" height="30.2969" style="stroke: #A80036; stroke-width: 1.5;" width="114" x="1176.5" y="2393.8125"/><text fill="#000000" font-family="sans-serif" font-size="14" lengthAdjust="spacingAndGlyphs" textLength="100" x="1183.5" y="2413.8076">ViewMiniGame</text><polygon fill="#A80036" points="105.5,113.4297,115.5,117.4297,105.5,121.4297,109.5,117.4297" style="stroke: #A80036; stroke-width: 1.0;"/><line style="stroke: #A80036; stroke-width: 1.0;" x1="51.5" x2="111.5" y1="117.4297" y2="117.4297"/><text fill="#000000" font-family="sans-serif" font-size="13" lengthAdjust="spacingAndGlyphs" textLength="42" x="58.5" y="112.3638">launch</text><polygon fill="#A80036" points="260.5,142.5625,270.5,146.5625,260.5,150.5625,264.5,146.5625" style="stroke: #A80036; stroke-width: 1.0;"/><line style="stroke: #A80036; stroke-width: 1.0;" x1="117.5" x2="266.5" y1="146.5625" y2="146.5625"/><text fill="#000000" font-family="sans-serif" font-size="13" lengthAdjust="spacingAndGlyphs" textLength="128" x="124.5" y="141.4966">create-option-view()</text><polygon fill="#A80036" points="128.5,171.6953,118.5,175.6953,128.5,179.6953,124.5,175.6953" style="stroke: #A80036; stroke-width: 1.0;"/><line style="stroke: #A80036; stroke-width: 1.0; stroke-dasharray: 2.0,2.0;" x1="122.5" x2="271.5" y1="175.6953" y2="175.6953"/><text fill="#000000" font-family="sans-serif" font-size="13" lengthAdjust="spacingAndGlyphs" textLength="131" x="134.5" y="170.6294">instance-option-view</text><polygon fill="#A80036" points="405.5,200.8281,415.5,204.8281,405.5,208.8281,409.5,204.8281" style="stroke: #A80036; stroke-width: 1.0;"/><line style="stroke: #A80036; stroke-width: 1.0;" x1="272.5" x2="411.5" y1="204.8281" y2="204.8281"/><text fill="#000000" font-family="sans-serif" font-size="13" lengthAdjust="spacingAndGlyphs" textLength="118" x="279.5" y="199.7622">create-login-view()</text><polygon fill="#A80036" points="283.5,229.9609,273.5,233.9609,283.5,237.9609,279.5,233.9609" style="stroke: #A80036; stroke-width: 1.0;"/><line style="stroke: #A80036; stroke-width: 1.0; stroke-dasharray: 2.0,2.0;" x1="277.5" x2="416.5" y1="233.9609" y2="233.9609"/><text fill="#000000" font-family="sans-serif" font-size="13" lengthAdjust="spacingAndGlyphs" textLength="121" x="289.5" y="228.895">instance-login-view</text><path d="M23,248.9609 L87,248.9609 L87,255.9609 L77,265.9609 L23,265.9609 L23,248.9609 " fill="#EEEEEE" style="stroke: #000000; stroke-width: 1.0;"/><rect fill="none" height="365.1328" style="stroke: #000000; stroke-width: 2.0;" width="642.5" x="23" y="248.9609"/><text fill="#000000" font-family="sans-serif" font-size="13" font-weight="bold" lengthAdjust="spacingAndGlyphs" textLength="19" x="38" y="262.0278">alt</text><text fill="#000000" font-family="sans-serif" font-size="11" font-weight="bold" lengthAdjust="spacingAndGlyphs" textLength="76" x="102" y="261.1714">[login case]</text><polygon fill="#A80036" points="260.5,283.2266,270.5,287.2266,260.5,291.2266,264.5,287.2266" style="stroke: #A80036; stroke-width: 1.0;"/><line style="stroke: #A80036; stroke-width: 1.0;" x1="51.5" x2="266.5" y1="287.2266" y2="287.2266"/><text fill="#000000" font-family="sans-serif" font-size="13" lengthAdjust="spacingAndGlyphs" textLength="119" x="58.5" y="282.1606">click-button-login()</text><polygon fill="#A80036" points="405.5,312.3594,415.5,316.3594,405.5,320.3594,409.5,316.3594" style="stroke: #A80036; stroke-width: 1.0;"/><line style="stroke: #A80036; stroke-width: 1.0;" x1="272.5" x2="411.5" y1="316.3594" y2="316.3594"/><text fill="#000000" font-family="sans-serif" font-size="13" lengthAdjust="spacingAndGlyphs" textLength="42" x="279.5" y="311.2935">show()</text><polygon fill="#A80036" points="405.5,341.4922,415.5,345.4922,405.5,349.4922,409.5,345.4922" style="stroke: #A80036; stroke-width: 1.0;"/><line style="stroke: #A80036; stroke-width: 1.0;" x1="51.5" x2="411.5" y1="345.4922" y2="345.4922"/><text fill="#000000" font-family="sans-serif" font-size="13" lengthAdjust="spacingAndGlyphs" textLength="79" x="58.5" y="340.4263">enter-login()</text><polygon fill="#A80036" points="515.5,370.625,525.5,374.625,515.5,378.625,519.5,374.625" style="stroke: #A80036; stroke-width: 1.0;"/><line style="stroke: #A80036; stroke-width: 1.0;" x1="417.5" x2="521.5" y1="374.625" y2="374.625"/><text fill="#000000" font-family="sans-serif" font-size="13" lengthAdjust="spacingAndGlyphs" textLength="47" x="424.5" y="369.5591">identity</text><path d="M85,389.625 L149,389.625 L149,396.625 L139,406.625 L85,406.625 L85,389.625 " fill="#EEEEEE" style="stroke: #000000; stroke-width: 1.0;"/><rect fill="none" height="144.2031" style="stroke: #000000; stroke-width: 2.0;" width="570.5" x="85" y="389.625"/><text fill="#000000" font-family="sans-serif" font-size="13" font-weight="bold" lengthAdjust="spacingAndGlyphs" textLength="19" x="100" y="402.6919">alt</text><text fill="#000000" font-family="sans-serif" font-size="11" font-weight="bold" lengthAdjust="spacingAndGlyphs" textLength="112" x="164" y="401.8354">[first-connection]</text><line style="stroke: #A80036; stroke-width: 1.0;" x1="527.5" x2="569.5" y1="427.8906" y2="427.8906"/><line style="stroke: #A80036; stroke-width: 1.0;" x1="569.5" x2="569.5" y1="427.8906" y2="440.8906"/><line style="stroke: #A80036; stroke-width: 1.0;" x1="528.5" x2="569.5" y1="440.8906" y2="440.8906"/><polygon fill="#A80036" points="538.5,436.8906,528.5,440.8906,538.5,444.8906,534.5,440.8906" style="stroke: #A80036; stroke-width: 1.0;"/><text fill="#000000" font-family="sans-serif" font-size="13" lengthAdjust="spacingAndGlyphs" textLength="100" x="534.5" y="422.8247">create-acount()</text><polygon fill="#A80036" points="128.5,450.8906,118.5,454.8906,128.5,458.8906,124.5,454.8906" style="stroke: #A80036; stroke-width: 1.0;"/><line style="stroke: #A80036; stroke-width: 1.0; stroke-dasharray: 2.0,2.0;" x1="122.5" x2="526.5" y1="454.8906" y2="454.8906"/><line style="stroke: #000000; stroke-width: 1.0; stroke-dasharray: 2.0,2.0;" x1="85" x2="655.5" y1="463.8906" y2="463.8906"/><text fill="#000000" font-family="sans-serif" font-size="11" font-weight="bold" lengthAdjust="spacingAndGlyphs" textLength="81" x="90" y="474.1011">[connection]</text><line style="stroke: #A80036; stroke-width: 1.0;" x1="527.5" x2="569.5" y1="498.8281" y2="498.8281"/><line style="stroke: #A80036; stroke-width: 1.0;" x1="569.5" x2="569.5" y1="498.8281" y2="511.8281"/><line style="stroke: #A80036; stroke-width: 1.0;" x1="528.5" x2="569.5" y1="511.8281" y2="511.8281"/><polygon fill="#A80036" points="538.5,507.8281,528.5,511.8281,538.5,515.8281,534.5,511.8281" style="stroke: #A80036; stroke-width: 1.0;"/><text fill="#000000" font-family="sans-serif" font-size="13" lengthAdjust="spacingAndGlyphs" textLength="109" x="534.5" y="493.7622">authentification()</text><polygon fill="#A80036" points="128.5,521.8281,118.5,525.8281,128.5,529.8281,124.5,525.8281" style="stroke: #A80036; stroke-width: 1.0;"/><line style="stroke: #A80036; stroke-width: 1.0; stroke-dasharray: 2.0,2.0;" x1="122.5" x2="526.5" y1="525.8281" y2="525.8281"/><path d="M85,547.8281 L149,547.8281 L149,554.8281 L139,564.8281 L85,564.8281 L85,547.8281 " fill="#EEEEEE" style="stroke: #000000; stroke-width: 1.0;"/><rect fill="none" height="59.2656" style="stroke: #000000; stroke-width: 2.0;" width="253" x="85" y="547.8281"/><text fill="#000000" font-family="sans-serif" font-size="13" font-weight="bold" lengthAdjust="spacingAndGlyphs" textLength="19" x="100" y="560.895">alt</text><text fill="#000000" font-family="sans-serif" font-size="11" font-weight="bold" lengthAdjust="spacingAndGlyphs" textLength="169" x="164" y="560.0386">[authentification-success]</text><line style="stroke: #A80036; stroke-width: 1.0;" x1="117.5" x2="159.5" y1="586.0938" y2="586.0938"/><line style="stroke: #A80036; stroke-width: 1.0;" x1="159.5" x2="159.5" y1="586.0938" y2="599.0938"/><line style="stroke: #A80036; stroke-width: 1.0;" x1="118.5" x2="159.5" y1="599.0938" y2="599.0938"/><polygon fill="#A80036" points="128.5,595.0938,118.5,599.0938,128.5,603.0938,124.5,599.0938" style="stroke: #A80036; stroke-width: 1.0;"/><text fill="#000000" font-family="sans-serif" font-size="13" lengthAdjust="spacingAndGlyphs" textLength="120" x="124.5" y="581.0278">ConnectToServer()</text><path d="M13,628.0938 L77,628.0938 L77,635.0938 L67,645.0938 L13,645.0938 L13,628.0938 " fill="#EEEEEE" style="stroke: #000000; stroke-width: 1.0;"/><rect fill="none" height="684.5938" style="stroke: #000000; stroke-width: 2.0;" width="855" x="13" y="628.0938"/><text fill="#000000" font-family="sans-serif" font-size="13" font-weight="bold" lengthAdjust="spacingAndGlyphs" textLength="19" x="28" y="641.1606">alt</text><text fill="#000000" font-family="sans-serif" font-size="11" font-weight="bold" lengthAdjust="spacingAndGlyphs" textLength="95" x="92" y="640.3042">[no-save case]</text><polygon fill="#A80036" points="260.5,662.3594,270.5,666.3594,260.5,670.3594,264.5,666.3594" style="stroke: #A80036; stroke-width: 1.0;"/><line style="stroke: #A80036; stroke-width: 1.0;" x1="51.5" x2="266.5" y1="666.3594" y2="666.3594"/><text fill="#000000" font-family="sans-serif" font-size="13" lengthAdjust="spacingAndGlyphs" textLength="156" x="58.5" y="661.2935">click-button-new-game()</text><polygon fill="#A80036" points="128.5,691.4922,118.5,695.4922,128.5,699.4922,124.5,695.4922" style="stroke: #A80036; stroke-width: 1.0;"/><line style="stroke: #A80036; stroke-width: 1.0; stroke-dasharray: 2.0,2.0;" x1="122.5" x2="271.5" y1="695.4922" y2="695.4922"/><text fill="#000000" font-family="sans-serif" font-size="13" lengthAdjust="spacingAndGlyphs" textLength="68" x="134.5" y="690.4263">click-event</text><polygon fill="#A80036" points="638.5,720.625,648.5,724.625,638.5,728.625,642.5,724.625" style="stroke: #A80036; stroke-width: 1.0;"/><line style="stroke: #A80036; stroke-width: 1.0;" x1="117.5" x2="644.5" y1="724.625" y2="724.625"/><text fill="#000000" font-family="sans-serif" font-size="13" lengthAdjust="spacingAndGlyphs" textLength="93" x="124.5" y="719.5591">create-game()</text><polygon fill="#A80036" points="790.5,749.7578,800.5,753.7578,790.5,757.7578,794.5,753.7578" style="stroke: #A80036; stroke-width: 1.0;"/><line style="stroke: #A80036; stroke-width: 1.0;" x1="650.5" x2="796.5" y1="753.7578" y2="753.7578"/><text fill="#000000" font-family="sans-serif" font-size="13" lengthAdjust="spacingAndGlyphs" textLength="125" x="657.5" y="748.6919">create-game-view()</text><polygon fill="#A80036" points="661.5,778.8906,651.5,782.8906,661.5,786.8906,657.5,782.8906" style="stroke: #A80036; stroke-width: 1.0;"/><line style="stroke: #A80036; stroke-width: 1.0; stroke-dasharray: 2.0,2.0;" x1="655.5" x2="801.5" y1="782.8906" y2="782.8906"/><text fill="#000000" font-family="sans-serif" font-size="13" lengthAdjust="spacingAndGlyphs" textLength="128" x="667.5" y="777.8247">instance-game-view</text><polygon fill="#A80036" points="128.5,808.0234,118.5,812.0234,128.5,816.0234,124.5,812.0234" style="stroke: #A80036; stroke-width: 1.0;"/><line style="stroke: #A80036; stroke-width: 1.0; stroke-dasharray: 2.0,2.0;" x1="122.5" x2="649.5" y1="812.0234" y2="812.0234"/><text fill="#000000" font-family="sans-serif" font-size="13" lengthAdjust="spacingAndGlyphs" textLength="117" x="134.5" y="806.9575">instance-de-game</text><polygon fill="#A80036" points="790.5,837.1563,800.5,841.1563,790.5,845.1563,794.5,841.1563" style="stroke: #A80036; stroke-width: 1.0;"/><line style="stroke: #A80036; stroke-width: 1.0;" x1="51.5" x2="796.5" y1="841.1563" y2="841.1563"/><text fill="#000000" font-family="sans-serif" font-size="13" lengthAdjust="spacingAndGlyphs" textLength="161" x="58.5" y="836.0903">click-button-choose-pet()</text><polygon fill="#A80036" points="661.5,866.2891,651.5,870.2891,661.5,874.2891,657.5,870.2891" style="stroke: #A80036; stroke-width: 1.0;"/><line style="stroke: #A80036; stroke-width: 1.0; stroke-dasharray: 2.0,2.0;" x1="655.5" x2="801.5" y1="870.2891" y2="870.2891"/><text fill="#000000" font-family="sans-serif" font-size="13" lengthAdjust="spacingAndGlyphs" textLength="68" x="667.5" y="865.2231">click-event</text><line style="stroke: #A80036; stroke-width: 1.0;" x1="650.5" x2="692.5" y1="899.4219" y2="899.4219"/><line style="stroke: #A80036; stroke-width: 1.0;" x1="692.5" x2="692.5" y1="899.4219" y2="912.4219"/><line style="stroke: #A80036; stroke-width: 1.0;" x1="651.5" x2="692.5" y1="912.4219" y2="912.4219"/><polygon fill="#A80036" points="661.5,908.4219,651.5,912.4219,661.5,916.4219,657.5,912.4219" style="stroke: #A80036; stroke-width: 1.0;"/><text fill="#000000" font-family="sans-serif" font-size="13" lengthAdjust="spacingAndGlyphs" textLength="56" x="657.5" y="894.356">set-pet()</text><polygon fill="#A80036" points="128.5,922.4219,118.5,926.4219,128.5,930.4219,124.5,926.4219" style="stroke: #A80036; stroke-width: 1.0;"/><line style="stroke: #A80036; stroke-width: 1.0; stroke-dasharray: 2.0,2.0;" x1="122.5" x2="649.5" y1="926.4219" y2="926.4219"/><path d="M23,941.4219 L87,941.4219 L87,948.4219 L77,958.4219 L23,958.4219 L23,941.4219 " fill="#EEEEEE" style="stroke: #000000; stroke-width: 1.0;"/><rect fill="none" height="131.5313" style="stroke: #000000; stroke-width: 2.0;" width="835" x="23" y="941.4219"/><text fill="#000000" font-family="sans-serif" font-size="13" font-weight="bold" lengthAdjust="spacingAndGlyphs" textLength="19" x="38" y="954.4888">alt</text><text fill="#000000" font-family="sans-serif" font-size="11" font-weight="bold" lengthAdjust="spacingAndGlyphs" textLength="90" x="102" y="953.6323">[custom case]</text><polygon fill="#A80036" points="790.5,975.6875,800.5,979.6875,790.5,983.6875,794.5,979.6875" style="stroke: #A80036; stroke-width: 1.0;"/><line style="stroke: #A80036; stroke-width: 1.0;" x1="51.5" x2="796.5" y1="979.6875" y2="979.6875"/><text fill="#000000" font-family="sans-serif" font-size="13" lengthAdjust="spacingAndGlyphs" textLength="163" x="58.5" y="974.6216">click-button-custom-pet()</text><polygon fill="#A80036" points="661.5,1004.8203,651.5,1008.8203,661.5,1012.8203,657.5,1008.8203" style="stroke: #A80036; stroke-width: 1.0;"/><line style="stroke: #A80036; stroke-width: 1.0; stroke-dasharray: 2.0,2.0;" x1="655.5" x2="801.5" y1="1008.8203" y2="1008.8203"/><text fill="#000000" font-family="sans-serif" font-size="13" lengthAdjust="spacingAndGlyphs" textLength="68" x="667.5" y="1003.7544">click-event</text><line style="stroke: #A80036; stroke-width: 1.0;" x1="650.5" x2="692.5" y1="1037.9531" y2="1037.9531"/><line style="stroke: #A80036; stroke-width: 1.0;" x1="692.5" x2="692.5" y1="1037.9531" y2="1050.9531"/><line style="stroke: #A80036; stroke-width: 1.0;" x1="651.5" x2="692.5" y1="1050.9531" y2="1050.9531"/><polygon fill="#A80036" points="661.5,1046.9531,651.5,1050.9531,661.5,1054.9531,657.5,1050.9531" style="stroke: #A80036; stroke-width: 1.0;"/><text fill="#000000" font-family="sans-serif" font-size="13" lengthAdjust="spacingAndGlyphs" textLength="84" x="657.5" y="1032.8872">custom-pet()</text><polygon fill="#A80036" points="128.5,1060.9531,118.5,1064.9531,128.5,1068.9531,124.5,1064.9531" style="stroke: #A80036; stroke-width: 1.0;"/><line style="stroke: #A80036; stroke-width: 1.0; stroke-dasharray: 2.0,2.0;" x1="122.5" x2="649.5" y1="1064.9531" y2="1064.9531"/><line style="stroke: #000000; stroke-width: 1.0; stroke-dasharray: 2.0,2.0;" x1="13" x2="868" y1="1080.9531" y2="1080.9531"/><text fill="#000000" font-family="sans-serif" font-size="11" font-weight="bold" lengthAdjust="spacingAndGlyphs" textLength="74" x="18" y="1091.1636">[save case]</text><polygon fill="#A80036" points="260.5,1111.8906,270.5,1115.8906,260.5,1119.8906,264.5,1115.8906" style="stroke: #A80036; stroke-width: 1.0;"/><line style="stroke: #A80036; stroke-width: 1.0;" x1="51.5" x2="266.5" y1="1115.8906" y2="1115.8906"/><text fill="#000000" font-family="sans-serif" font-size="13" lengthAdjust="spacingAndGlyphs" textLength="116" x="58.5" y="1110.8247">click-button-load()</text><polygon fill="#A80036" points="128.5,1141.0234,118.5,1145.0234,128.5,1149.0234,124.5,1145.0234" style="stroke: #A80036; stroke-width: 1.0;"/><line style="stroke: #A80036; stroke-width: 1.0; stroke-dasharray: 2.0,2.0;" x1="122.5" x2="271.5" y1="1145.0234" y2="1145.0234"/><text fill="#000000" font-family="sans-serif" font-size="13" lengthAdjust="spacingAndGlyphs" textLength="68" x="134.5" y="1139.9575">click-event</text><polygon fill="#A80036" points="638.5,1170.1563,648.5,1174.1563,638.5,1178.1563,642.5,1174.1563" style="stroke: #A80036; stroke-width: 1.0;"/><line style="stroke: #A80036; stroke-width: 1.0;" x1="117.5" x2="644.5" y1="1174.1563" y2="1174.1563"/><text fill="#000000" font-family="sans-serif" font-size="13" lengthAdjust="spacingAndGlyphs" textLength="93" x="124.5" y="1169.0903">create-game()</text><polygon fill="#A80036" points="790.5,1199.2891,800.5,1203.2891,790.5,1207.2891,794.5,1203.2891" style="stroke: #A80036; stroke-width: 1.0;"/><line style="stroke: #A80036; stroke-width: 1.0;" x1="650.5" x2="796.5" y1="1203.2891" y2="1203.2891"/><text fill="#000000" font-family="sans-serif" font-size="13" lengthAdjust="spacingAndGlyphs" textLength="125" x="657.5" y="1198.2231">create-game-view()</text><polygon fill="#A80036" points="661.5,1228.4219,651.5,1232.4219,661.5,1236.4219,657.5,1232.4219" style="stroke: #A80036; stroke-width: 1.0;"/><line style="stroke: #A80036; stroke-width: 1.0; stroke-dasharray: 2.0,2.0;" x1="655.5" x2="801.5" y1="1232.4219" y2="1232.4219"/><text fill="#000000" font-family="sans-serif" font-size="13" lengthAdjust="spacingAndGlyphs" textLength="128" x="667.5" y="1227.356">instance-game-view</text><polygon fill="#A80036" points="128.5,1257.5547,118.5,1261.5547,128.5,1265.5547,124.5,1261.5547" style="stroke: #A80036; stroke-width: 1.0;"/><line style="stroke: #A80036; stroke-width: 1.0; stroke-dasharray: 2.0,2.0;" x1="122.5" x2="649.5" y1="1261.5547" y2="1261.5547"/><text fill="#000000" font-family="sans-serif" font-size="13" lengthAdjust="spacingAndGlyphs" textLength="117" x="134.5" y="1256.4888">instance-de-game</text><polygon fill="#A80036" points="638.5,1286.6875,648.5,1290.6875,638.5,1294.6875,642.5,1290.6875" style="stroke: #A80036; stroke-width: 1.0;"/><line style="stroke: #A80036; stroke-width: 1.0;" x1="117.5" x2="644.5" y1="1290.6875" y2="1290.6875"/><text fill="#000000" font-family="sans-serif" font-size="13" lengthAdjust="spacingAndGlyphs" textLength="37" x="124.5" y="1285.6216">load()</text><polygon fill="#A80036" points="128.5,1300.6875,118.5,1304.6875,128.5,1308.6875,124.5,1304.6875" style="stroke: #A80036; stroke-width: 1.0;"/><line style="stroke: #A80036; stroke-width: 1.0; stroke-dasharray: 2.0,2.0;" x1="122.5" x2="649.5" y1="1304.6875" y2="1304.6875"/><polygon fill="#A80036" points="260.5,1336.8203,270.5,1340.8203,260.5,1344.8203,264.5,1340.8203" style="stroke: #A80036; stroke-width: 1.0;"/><line style="stroke: #A80036; stroke-width: 1.0;" x1="51.5" x2="266.5" y1="1340.8203" y2="1340.8203"/><text fill="#000000" font-family="sans-serif" font-size="13" lengthAdjust="spacingAndGlyphs" textLength="161" x="58.5" y="1335.7544">click-button-start-game()</text><polygon fill="#A80036" points="128.5,1365.9531,118.5,1369.9531,128.5,1373.9531,124.5,1369.9531" style="stroke: #A80036; stroke-width: 1.0;"/><line style="stroke: #A80036; stroke-width: 1.0; stroke-dasharray: 2.0,2.0;" x1="122.5" x2="271.5" y1="1369.9531" y2="1369.9531"/><text fill="#000000" font-family="sans-serif" font-size="13" lengthAdjust="spacingAndGlyphs" textLength="68" x="134.5" y="1364.8872">click-event</text><polygon fill="#A80036" points="638.5,1395.0859,648.5,1399.0859,638.5,1403.0859,642.5,1399.0859" style="stroke: #A80036; stroke-width: 1.0;"/><line style="stroke: #A80036; stroke-width: 1.0;" x1="117.5" x2="644.5" y1="1399.0859" y2="1399.0859"/><text fill="#000000" font-family="sans-serif" font-size="13" lengthAdjust="spacingAndGlyphs" textLength="40" x="124.5" y="1394.02">start()</text><path d="M23,1414.0859 L87,1414.0859 L87,1421.0859 L77,1431.0859 L23,1431.0859 L23,1414.0859 " fill="#EEEEEE" style="stroke: #000000; stroke-width: 1.0;"/><rect fill="none" height="133.6641" style="stroke: #000000; stroke-width: 2.0;" width="835" x="23" y="1414.0859"/><text fill="#000000" font-family="sans-serif" font-size="13" font-weight="bold" lengthAdjust="spacingAndGlyphs" textLength="19" x="38" y="1427.1528">alt</text><text fill="#000000" font-family="sans-serif" font-size="11" font-weight="bold" lengthAdjust="spacingAndGlyphs" textLength="91" x="102" y="1426.2964">[menu-option]</text><polygon fill="#A80036" points="790.5,1448.3516,800.5,1452.3516,790.5,1456.3516,794.5,1452.3516" style="stroke: #A80036; stroke-width: 1.0;"/><line style="stroke: #A80036; stroke-width: 1.0;" x1="51.5" x2="796.5" y1="1452.3516" y2="1452.3516"/><text fill="#000000" font-family="sans-serif" font-size="13" lengthAdjust="spacingAndGlyphs" textLength="129" x="58.5" y="1447.2856">click-button-option()</text><polygon fill="#A80036" points="661.5,1477.4844,651.5,1481.4844,661.5,1485.4844,657.5,1481.4844" style="stroke: #A80036; stroke-width: 1.0;"/><line style="stroke: #A80036; stroke-width: 1.0; stroke-dasharray: 2.0,2.0;" x1="655.5" x2="801.5" y1="1481.4844" y2="1481.4844"/><text fill="#000000" font-family="sans-serif" font-size="13" lengthAdjust="spacingAndGlyphs" textLength="68" x="667.5" y="1476.4185">click-event</text><polygon fill="#A80036" points="128.5,1506.6172,118.5,1510.6172,128.5,1514.6172,124.5,1510.6172" style="stroke: #A80036; stroke-width: 1.0;"/><line style="stroke: #A80036; stroke-width: 1.0; stroke-dasharray: 2.0,2.0;" x1="122.5" x2="649.5" y1="1510.6172" y2="1510.6172"/><text fill="#000000" font-family="sans-serif" font-size="13" lengthAdjust="spacingAndGlyphs" textLength="68" x="134.5" y="1505.5513">click-event</text><polygon fill="#A80036" points="260.5,1535.75,270.5,1539.75,260.5,1543.75,264.5,1539.75" style="stroke: #A80036; stroke-width: 1.0;"/><line style="stroke: #A80036; stroke-width: 1.0;" x1="117.5" x2="266.5" y1="1539.75" y2="1539.75"/><text fill="#000000" font-family="sans-serif" font-size="13" lengthAdjust="spacingAndGlyphs" textLength="42" x="124.5" y="1534.6841">show()</text><path d="M13,1561.75 L77,1561.75 L77,1568.75 L67,1578.75 L13,1578.75 L13,1561.75 " fill="#EEEEEE" style="stroke: #000000; stroke-width: 1.0;"/><rect fill="none" height="816.0625" style="stroke: #000000; stroke-width: 2.0;" width="1301.5" x="13" y="1561.75"/><text fill="#000000" font-family="sans-serif" font-size="13" font-weight="bold" lengthAdjust="spacingAndGlyphs" textLength="19" x="28" y="1574.8169">alt</text><text fill="#000000" font-family="sans-serif" font-size="11" font-weight="bold" lengthAdjust="spacingAndGlyphs" textLength="42" x="92" y="1573.9604">[room]</text><polygon fill="#A80036" points="790.5,1596.0156,800.5,1600.0156,790.5,1604.0156,794.5,1600.0156" style="stroke: #A80036; stroke-width: 1.0;"/><line style="stroke: #A80036; stroke-width: 1.0;" x1="51.5" x2="796.5" y1="1600.0156" y2="1600.0156"/><text fill="#000000" font-family="sans-serif" font-size="13" lengthAdjust="spacingAndGlyphs" textLength="175" x="58.5" y="1594.9497">click-button-change-room()</text><polygon fill="#A80036" points="661.5,1625.1484,651.5,1629.1484,661.5,1633.1484,657.5,1629.1484" style="stroke: #A80036; stroke-width: 1.0;"/><line style="stroke: #A80036; stroke-width: 1.0; stroke-dasharray: 2.0,2.0;" x1="655.5" x2="801.5" y1="1629.1484" y2="1629.1484"/><text fill="#000000" font-family="sans-serif" font-size="13" lengthAdjust="spacingAndGlyphs" textLength="68" x="667.5" y="1624.0825">click-event</text><line style="stroke: #A80036; stroke-width: 1.0;" x1="650.5" x2="692.5" y1="1658.2813" y2="1658.2813"/><line style="stroke: #A80036; stroke-width: 1.0;" x1="692.5" x2="692.5" y1="1658.2813" y2="1671.2813"/><line style="stroke: #A80036; stroke-width: 1.0;" x1="651.5" x2="692.5" y1="1671.2813" y2="1671.2813"/><polygon fill="#A80036" points="661.5,1667.2813,651.5,1671.2813,661.5,1675.2813,657.5,1671.2813" style="stroke: #A80036; stroke-width: 1.0;"/><text fill="#000000" font-family="sans-serif" font-size="13" lengthAdjust="spacingAndGlyphs" textLength="96" x="657.5" y="1653.2153">change-room()</text><polygon fill="#A80036" points="869.5,1696.4141,879.5,1700.4141,869.5,1704.4141,873.5,1700.4141" style="stroke: #A80036; stroke-width: 1.0;"/><line style="stroke: #A80036; stroke-width: 1.0;" x1="650.5" x2="875.5" y1="1700.4141" y2="1700.4141"/><text fill="#000000" font-family="sans-serif" font-size="13" lengthAdjust="spacingAndGlyphs" textLength="71" x="657.5" y="1695.3481">load-map()</text><polygon fill="#A80036" points="661.5,1725.5469,651.5,1729.5469,661.5,1733.5469,657.5,1729.5469" style="stroke: #A80036; stroke-width: 1.0;"/><line style="stroke: #A80036; stroke-width: 1.0; stroke-dasharray: 2.0,2.0;" x1="655.5" x2="880.5" y1="1729.5469" y2="1729.5469"/><text fill="#000000" font-family="sans-serif" font-size="13" lengthAdjust="spacingAndGlyphs" textLength="88" x="667.5" y="1724.481">instance-map</text><line style="stroke: #000000; stroke-width: 1.0; stroke-dasharray: 2.0,2.0;" x1="13" x2="1314.5" y1="1738.5469" y2="1738.5469"/><text fill="#000000" font-family="sans-serif" font-size="11" font-weight="bold" lengthAdjust="spacingAndGlyphs" textLength="39" x="18" y="1748.7573">[feed]</text><polygon fill="#A80036" points="790.5,1769.4844,800.5,1773.4844,790.5,1777.4844,794.5,1773.4844" style="stroke: #A80036; stroke-width: 1.0;"/><line style="stroke: #A80036; stroke-width: 1.0;" x1="51.5" x2="796.5" y1="1773.4844" y2="1773.4844"/><text fill="#000000" font-family="sans-serif" font-size="13" lengthAdjust="spacingAndGlyphs" textLength="117" x="58.5" y="1768.4185">click-button-feed()</text><polygon fill="#A80036" points="661.5,1798.6172,651.5,1802.6172,661.5,1806.6172,657.5,1802.6172" style="stroke: #A80036; stroke-width: 1.0;"/><line style="stroke: #A80036; stroke-width: 1.0; stroke-dasharray: 2.0,2.0;" x1="655.5" x2="801.5" y1="1802.6172" y2="1802.6172"/><text fill="#000000" font-family="sans-serif" font-size="13" lengthAdjust="spacingAndGlyphs" textLength="68" x="667.5" y="1797.5513">click-event</text><polygon fill="#A80036" points="923.5,1827.75,933.5,1831.75,923.5,1835.75,927.5,1831.75" style="stroke: #A80036; stroke-width: 1.0;"/><line style="stroke: #A80036; stroke-width: 1.0;" x1="650.5" x2="929.5" y1="1831.75" y2="1831.75"/><text fill="#000000" font-family="sans-serif" font-size="13" lengthAdjust="spacingAndGlyphs" textLength="38" x="657.5" y="1826.6841">feed()</text><line style="stroke: #A80036; stroke-width: 1.0;" x1="935.5" x2="977.5" y1="1860.8828" y2="1860.8828"/><line style="stroke: #A80036; stroke-width: 1.0;" x1="977.5" x2="977.5" y1="1860.8828" y2="1873.8828"/><line style="stroke: #A80036; stroke-width: 1.0;" x1="936.5" x2="977.5" y1="1873.8828" y2="1873.8828"/><polygon fill="#A80036" points="946.5,1869.8828,936.5,1873.8828,946.5,1877.8828,942.5,1873.8828" style="stroke: #A80036; stroke-width: 1.0;"/><text fill="#000000" font-family="sans-serif" font-size="13" lengthAdjust="spacingAndGlyphs" textLength="102" x="942.5" y="1855.8169">change-states()</text><polygon fill="#A80036" points="661.5,1899.0156,651.5,1903.0156,661.5,1907.0156,657.5,1903.0156" style="stroke: #A80036; stroke-width: 1.0;"/><line style="stroke: #A80036; stroke-width: 1.0; stroke-dasharray: 2.0,2.0;" x1="655.5" x2="934.5" y1="1903.0156" y2="1903.0156"/><text fill="#000000" font-family="sans-serif" font-size="13" lengthAdjust="spacingAndGlyphs" textLength="70" x="667.5" y="1897.9497">new-states</text><polygon fill="#A80036" points="790.5,1928.1484,800.5,1932.1484,790.5,1936.1484,794.5,1932.1484" style="stroke: #A80036; stroke-width: 1.0;"/><line style="stroke: #A80036; stroke-width: 1.0; stroke-dasharray: 2.0,2.0;" x1="650.5" x2="796.5" y1="1932.1484" y2="1932.1484"/><text fill="#000000" font-family="sans-serif" font-size="13" lengthAdjust="spacingAndGlyphs" textLength="70" x="657.5" y="1927.0825">new-states</text><line style="stroke: #000000; stroke-width: 1.0; stroke-dasharray: 2.0,2.0;" x1="13" x2="1314.5" y1="1941.1484" y2="1941.1484"/><text fill="#000000" font-family="sans-serif" font-size="11" font-weight="bold" lengthAdjust="spacingAndGlyphs" textLength="86" x="18" y="1951.3589">[interact-pet]</text><path d="M23,1961.9531 L87,1961.9531 L87,1968.9531 L77,1978.9531 L23,1978.9531 L23,1961.9531 " fill="#EEEEEE" style="stroke: #000000; stroke-width: 1.0;"/><rect fill="none" height="408.8594" style="stroke: #000000; stroke-width: 2.0;" width="1281.5" x="23" y="1961.9531"/><text fill="#000000" font-family="sans-serif" font-size="13" font-weight="bold" lengthAdjust="spacingAndGlyphs" textLength="19" x="38" y="1975.02">alt</text><text fill="#000000" font-family="sans-serif" font-size="11" font-weight="bold" lengthAdjust="spacingAndGlyphs" textLength="77" x="102" y="1974.1636">[mini-game]</text><polygon fill="#A80036" points="790.5,1996.2188,800.5,2000.2188,790.5,2004.2188,794.5,2000.2188" style="stroke: #A80036; stroke-width: 1.0;"/><line style="stroke: #A80036; stroke-width: 1.0;" x1="51.5" x2="796.5" y1="2000.2188" y2="2000.2188"/><text fill="#000000" font-family="sans-serif" font-size="13" lengthAdjust="spacingAndGlyphs" textLength="158" x="58.5" y="1995.1528">click-button-mini-game()</text><polygon fill="#A80036" points="661.5,2025.3516,651.5,2029.3516,661.5,2033.3516,657.5,2029.3516" style="stroke: #A80036; stroke-width: 1.0;"/><line style="stroke: #A80036; stroke-width: 1.0; stroke-dasharray: 2.0,2.0;" x1="655.5" x2="801.5" y1="2029.3516" y2="2029.3516"/><text fill="#000000" font-family="sans-serif" font-size="13" lengthAdjust="spacingAndGlyphs" textLength="68" x="667.5" y="2024.2856">click-event</text><polygon fill="#A80036" points="1039.5,2054.4844,1049.5,2058.4844,1039.5,2062.4844,1043.5,2058.4844" style="stroke: #A80036; stroke-width: 1.0;"/><line style="stroke: #A80036; stroke-width: 1.0;" x1="650.5" x2="1045.5" y1="2058.4844" y2="2058.4844"/><text fill="#000000" font-family="sans-serif" font-size="13" lengthAdjust="spacingAndGlyphs" textLength="125" x="657.5" y="2053.4185">create-mini-game()</text><polygon fill="#A80036" points="1223.5,2083.6172,1233.5,2087.6172,1223.5,2091.6172,1227.5,2087.6172" style="stroke: #A80036; stroke-width: 1.0;"/><line style="stroke: #A80036; stroke-width: 1.0;" x1="1051.5" x2="1229.5" y1="2087.6172" y2="2087.6172"/><text fill="#000000" font-family="sans-serif" font-size="13" lengthAdjust="spacingAndGlyphs" textLength="157" x="1058.5" y="2082.5513">create-view-mini-game()</text><polygon fill="#A80036" points="1062.5,2112.75,1052.5,2116.75,1062.5,2120.75,1058.5,2116.75" style="stroke: #A80036; stroke-width: 1.0;"/><line style="stroke: #A80036; stroke-width: 1.0; stroke-dasharray: 2.0,2.0;" x1="1056.5" x2="1234.5" y1="2116.75" y2="2116.75"/><text fill="#000000" font-family="sans-serif" font-size="13" lengthAdjust="spacingAndGlyphs" textLength="160" x="1068.5" y="2111.6841">instance-view-mini-game</text><polygon fill="#A80036" points="661.5,2141.8828,651.5,2145.8828,661.5,2149.8828,657.5,2145.8828" style="stroke: #A80036; stroke-width: 1.0;"/><line style="stroke: #A80036; stroke-width: 1.0; stroke-dasharray: 2.0,2.0;" x1="655.5" x2="1050.5" y1="2145.8828" y2="2145.8828"/><text fill="#000000" font-family="sans-serif" font-size="13" lengthAdjust="spacingAndGlyphs" textLength="128" x="667.5" y="2140.8169">instance-mini-game</text><polygon fill="#A80036" points="1039.5,2171.0156,1049.5,2175.0156,1039.5,2179.0156,1043.5,2175.0156" style="stroke: #A80036; stroke-width: 1.0;"/><line style="stroke: #A80036; stroke-width: 1.0;" x1="650.5" x2="1045.5" y1="2175.0156" y2="2175.0156"/><text fill="#000000" font-family="sans-serif" font-size="13" lengthAdjust="spacingAndGlyphs" textLength="42" x="657.5" y="2169.9497">show()</text><polygon fill="#A80036" points="1223.5,2200.1484,1233.5,2204.1484,1223.5,2208.1484,1227.5,2204.1484" style="stroke: #A80036; stroke-width: 1.0;"/><line style="stroke: #A80036; stroke-width: 1.0;" x1="51.5" x2="1229.5" y1="2204.1484" y2="2204.1484"/><text fill="#000000" font-family="sans-serif" font-size="13" lengthAdjust="spacingAndGlyphs" textLength="127" x="58.5" y="2199.0825">send-input-to-play()</text><polygon fill="#A80036" points="1062.5,2229.2813,1052.5,2233.2813,1062.5,2237.2813,1058.5,2233.2813" style="stroke: #A80036; stroke-width: 1.0;"/><line style="stroke: #A80036; stroke-width: 1.0; stroke-dasharray: 2.0,2.0;" x1="1056.5" x2="1234.5" y1="2233.2813" y2="2233.2813"/><text fill="#000000" font-family="sans-serif" font-size="13" lengthAdjust="spacingAndGlyphs" textLength="73" x="1068.5" y="2228.2153">input-event</text><polygon fill="#A80036" points="946.5,2258.4141,936.5,2262.4141,946.5,2266.4141,942.5,2262.4141" style="stroke: #A80036; stroke-width: 1.0;"/><line style="stroke: #A80036; stroke-width: 1.0;" x1="940.5" x2="1050.5" y1="2262.4141" y2="2262.4141"/><text fill="#000000" font-family="sans-serif" font-size="13" lengthAdjust="spacingAndGlyphs" textLength="70" x="952.5" y="2257.3481">do-action()</text><line style="stroke: #A80036; stroke-width: 1.0;" x1="935.5" x2="977.5" y1="2291.5469" y2="2291.5469"/><line style="stroke: #A80036; stroke-width: 1.0;" x1="977.5" x2="977.5" y1="2291.5469" y2="2304.5469"/><line style="stroke: #A80036; stroke-width: 1.0;" x1="936.5" x2="977.5" y1="2304.5469" y2="2304.5469"/><polygon fill="#A80036" points="946.5,2300.5469,936.5,2304.5469,946.5,2308.5469,942.5,2304.5469" style="stroke: #A80036; stroke-width: 1.0;"/><text fill="#000000" font-family="sans-serif" font-size="13" lengthAdjust="spacingAndGlyphs" textLength="102" x="942.5" y="2286.481">change-states()</text><polygon fill="#A80036" points="661.5,2329.6797,651.5,2333.6797,661.5,2337.6797,657.5,2333.6797" style="stroke: #A80036; stroke-width: 1.0;"/><line style="stroke: #A80036; stroke-width: 1.0; stroke-dasharray: 2.0,2.0;" x1="655.5" x2="934.5" y1="2333.6797" y2="2333.6797"/><text fill="#000000" font-family="sans-serif" font-size="13" lengthAdjust="spacingAndGlyphs" textLength="70" x="667.5" y="2328.6138">new-states</text><polygon fill="#A80036" points="790.5,2358.8125,800.5,2362.8125,790.5,2366.8125,794.5,2362.8125" style="stroke: #A80036; stroke-width: 1.0;"/><line style="stroke: #A80036; stroke-width: 1.0; stroke-dasharray: 2.0,2.0;" x1="650.5" x2="796.5" y1="2362.8125" y2="2362.8125"/><text fill="#000000" font-family="sans-serif" font-size="13" lengthAdjust="spacingAndGlyphs" textLength="70" x="657.5" y="2357.7466">new-states</text><!--MD5=[b5923851c8e4ff7ca6777719415e4c77]
@startuml

    actor user as Player

    Player -> App : launch
    
    App -> OptionView : create-option-view()
    OptionView - -> App : instance-option-view
    OptionView -> LoginView : create-login-view()
    LoginView - -> OptionView : instance-login-view
    
    
    alt login case

        Player -> OptionView : click-button-login()
        OptionView -> LoginView : show()
        Player -> LoginView : enter-login()
        LoginView -> LoginChecker : identity

        alt first-connection

            LoginChecker -> LoginChecker : create-acount()
            LoginChecker - -> App

        else connection

            LoginChecker -> LoginChecker : authentification()
            LoginChecker - -> App

        end

        alt authentification-success

            App -> App : ConnectToServer()
        
        end

    end

    alt no-save case

        Player -> OptionView : click-button-new-game()
        OptionView - -> App : click-event
        App -> Game : create-game()
        Game -> GameView : create-game-view()
        GameView - -> Game : instance-game-view
        Game - -> App : instance-de-game
        
        Player -> GameView : click-button-choose-pet()
        GameView - -> Game : click-event
        Game -> Game : set-pet()
        Game - -> App

        alt custom case

            Player -> GameView : click-button-custom-pet()
            GameView - -> Game : click-event
            Game -> Game : custom-pet()
            Game - -> App

        end

    else save case

        Player -> OptionView : click-button-load()
        OptionView - -> App : click-event
        App -> Game : create-game()
        Game -> GameView : create-game-view()
        GameView - -> Game : instance-game-view
        Game - -> App : instance-de-game
        
        App -> Game : load()
        Game - -> App

    end

    Player -> OptionView : click-button-start-game()
    OptionView - -> App : click-event
    App -> Game : start()

    alt menu-option

        Player -> GameView : click-button-option()
        GameView - -> Game : click-event
        Game - -> App : click-event
        App -> OptionView : show()

    end

    alt room 

        Player -> GameView : click-button-change-room()
        GameView - -> Game : click-event
        Game -> Game : change-room()
        Game -> Map : load-map()
        Map - -> Game : instance-map

    else feed

        Player -> GameView : click-button-feed()
        GameView - -> Game : click-event
        Game -> Pet : feed()
        Pet -> Pet : change-states()
        Pet - -> Game : new-states
        Game - -> GameView : new-states

    else interact-pet

        alt mini-game
        
            Player -> GameView : click-button-mini-game()
            GameView - -> Game : click-event
            Game -> MiniGame : create-mini-game()
            MiniGame -> ViewMiniGame : create-view-mini-game()
            ViewMiniGame - -> MiniGame : instance-view-mini-game
            MiniGame - -> Game : instance-mini-game
            Game -> MiniGame : show()
            
            Player -> ViewMiniGame : send-input-to-play()
            ViewMiniGame - -> MiniGame : input-event
            MiniGame -> Pet : do-action()
            Pet -> Pet : change-states()
            Pet - -> Game : new-states
            Game - -> GameView : new-states

        end

    end

@enduml

PlantUML version 1.2020.02(Sun Mar 01 11:22:07 CET 2020)
(GPL source distribution)
Java Runtime: OpenJDK Runtime Environment
JVM: OpenJDK 64-Bit Server VM
Java Version: 17.0.4+8-Debian-1
Operating System: Linux
Default Encoding: UTF-8
Language: fr
Country: FR
--></g></svg>